<?xml version="1.0" encoding="UTF-8" standalone="no"?>
<!DOCTYPE svg PUBLIC "-//W3C//DTD SVG 20010904//EN"
              "http://www.w3.org/TR/2001/REC-SVG-20010904/DTD/svg10.dtd">

<svg xmlns="http://www.w3.org/2000/svg"
     width="4.16615in" height="4.16615in"
     viewBox="0 0 300 300">
  <path id="Selection"
        fill="green" stroke="black" stroke-width="1"
        d="M 86.00,49.00
           C 100.88,49.00 94.56,50.62 106.00,55.00
             106.00,55.00 109.31,70.00 109.31,70.00
             109.31,70.00 108.00,81.00 108.00,81.00
             112.63,80.14 113.07,80.45 117.00,83.00
             117.00,83.00 116.00,79.00 116.00,79.00
             116.00,79.00 122.00,79.00 122.00,79.00
             122.00,79.00 124.00,69.00 124.00,69.00
             129.66,68.09 132.94,64.55 136.96,60.66
             138.58,59.09 140.85,56.21 143.08,55.73
             146.46,55.00 148.22,58.38 151.09,59.16
             155.71,60.41 160.79,54.38 164.17,51.82
             167.97,48.96 169.44,49.03 174.00,49.00
             185.13,48.92 182.08,47.70 188.00,47.13
             193.47,46.61 195.48,49.03 199.00,48.02
             201.62,47.27 203.93,44.64 207.00,43.58
             212.58,41.66 213.09,45.17 219.00,38.00
             225.35,41.93 229.02,48.80 235.00,53.66
             240.40,58.05 247.27,59.80 254.00,61.00
             255.75,69.17 257.60,74.62 265.00,79.00
             262.42,89.47 263.11,100.45 265.00,111.00
             259.55,111.07 251.50,112.60 252.32,119.92
             252.50,121.59 253.43,123.42 254.00,125.00
             244.82,128.70 250.84,130.98 239.00,131.00
             229.70,131.02 211.55,129.06 204.57,135.94
             201.00,139.46 202.95,142.44 200.40,145.53
             197.46,149.11 195.88,147.19 194.00,153.00
             194.00,153.00 184.91,156.87 184.91,156.87
             184.91,156.87 174.00,156.09 174.00,156.09
             174.00,156.09 168.00,158.49 168.00,158.49
             168.00,158.49 160.00,159.64 160.00,159.64
             160.00,159.64 152.00,162.47 152.00,162.47
             152.00,162.47 141.00,158.00 141.00,158.00
             140.89,159.95 143.19,173.72 143.95,175.93
             145.51,180.40 148.37,183.95 147.73,189.00
             147.73,189.00 146.00,197.00 146.00,197.00
             142.65,197.43 135.86,199.00 133.60,201.57
             131.39,204.09 132.32,207.51 131.74,211.00
             130.62,217.86 128.07,223.90 128.00,231.00
             122.04,232.57 112.87,235.31 108.38,239.48
             106.50,241.22 104.08,244.12 104.64,246.87
             105.33,250.26 109.25,251.63 112.00,257.00
             103.29,257.64 104.01,261.64 104.00,269.00
             104.00,269.00 92.00,265.00 92.00,265.00
             92.00,262.50 92.17,258.29 91.49,256.00
             89.83,250.37 78.16,238.01 73.00,235.39
             73.00,235.39 59.32,230.77 59.32,230.77
             59.32,230.77 49.00,223.00 49.00,223.00
             49.00,223.00 49.00,221.00 49.00,221.00
             56.21,216.42 54.15,212.69 52.43,205.72
             51.89,203.54 52.09,201.18 50.98,199.17
             49.08,195.74 45.01,194.53 45.02,190.00
             45.03,187.90 47.96,176.95 49.00,175.04
             50.92,171.49 54.25,170.42 53.30,165.99
             52.65,162.97 49.73,159.75 49.47,155.00
             49.20,149.93 52.10,146.17 51.74,142.00
             51.35,137.65 48.52,135.96 48.13,131.93
             47.68,127.15 50.63,124.45 51.03,121.71
             51.39,119.26 49.83,116.35 49.00,114.00
             49.00,114.00 57.00,113.00 57.00,113.00
             57.00,113.00 54.21,102.00 54.21,102.00
             53.79,99.07 54.47,94.76 52.98,92.34
             51.13,89.33 43.37,86.15 40.08,85.00
             40.77,79.14 41.62,76.03 40.08,70.00
             38.98,65.16 36.33,62.29 36.49,59.00
             36.64,55.69 39.18,53.28 40.74,50.58
             40.74,50.58 43.28,45.00 43.28,45.00
             46.04,39.82 50.28,35.39 55.00,32.00
             55.78,34.47 56.80,38.63 59.34,39.85
             63.73,41.95 74.88,33.83 78.00,31.00
             83.56,35.52 85.53,42.00 86.00,49.00 Z
           M 115.00,146.00
           C 115.00,146.00 116.00,147.00 116.00,147.00
             116.00,147.00 116.00,146.00 116.00,146.00
             116.00,146.00 115.00,146.00 115.00,146.00 Z" />
</svg>
