<?xml version="1.0" encoding="UTF-8" standalone="no"?>
<!DOCTYPE svg PUBLIC "-//W3C//DTD SVG 20010904//EN"
              "http://www.w3.org/TR/2001/REC-SVG-20010904/DTD/svg10.dtd">

<svg xmlns="http://www.w3.org/2000/svg"
     width="6.94358in" height="5.55486in"
     viewBox="0 0 500 400">
  <path id="Austria"
        fill="blue" stroke="black" stroke-width="1"
        d="M 368.00,99.61
           C 368.00,99.61 382.00,105.64 382.00,105.64
             385.36,105.98 387.99,104.26 392.00,105.64
             396.74,107.74 400.46,113.35 405.00,115.69
             408.12,117.29 411.60,117.01 415.00,117.00
             420.91,116.99 426.26,117.24 427.00,110.00
             434.22,109.73 432.15,114.04 436.34,115.62
             438.12,116.44 439.93,115.47 442.00,115.62
             442.00,115.62 449.00,117.00 449.00,117.00
             449.00,117.00 447.90,128.00 447.90,128.00
             447.90,128.00 443.54,138.00 443.54,138.00
             443.54,138.00 449.92,150.58 449.92,150.58
             449.92,150.58 453.00,165.00 453.00,165.00
             453.00,165.00 458.00,164.00 458.00,164.00
             458.00,164.00 459.00,194.76 459.00,194.76
             456.05,195.00 450.66,195.20 448.00,194.76
             442.89,193.25 439.57,188.95 434.01,191.95
             430.63,193.77 423.20,200.41 426.62,204.69
             429.37,208.14 433.20,205.72 439.00,212.00
             431.74,219.69 427.69,217.12 425.37,222.13
             424.25,225.35 425.66,232.42 425.37,235.00
             424.63,237.51 422.84,239.12 423.19,241.72
             423.33,242.79 426.97,250.10 425.72,252.63
             424.27,255.58 420.86,252.45 417.19,254.56
             413.14,256.89 412.18,262.67 409.46,265.67
             404.40,271.24 397.82,267.78 397.00,279.00
             393.44,279.00 388.29,278.70 385.00,279.76
             381.09,281.03 377.97,283.93 374.00,284.86
             374.00,284.86 352.00,284.86 352.00,284.86
             345.85,285.04 342.39,285.99 337.52,290.01
             329.63,296.52 333.87,298.77 323.00,301.70
             319.91,302.54 318.34,303.19 315.00,302.87
             315.00,302.87 298.00,299.37 298.00,299.37
             298.00,299.37 264.00,292.56 264.00,292.56
             264.00,292.56 252.83,288.75 252.83,288.75
             249.64,288.29 247.99,290.50 244.00,290.20
             244.00,290.20 215.00,283.58 215.00,283.58
             215.00,283.58 201.11,279.83 201.11,279.83
             197.15,277.55 196.38,272.18 194.34,268.29
             192.09,263.98 189.89,262.66 186.00,260.00
             188.66,251.70 188.99,254.34 189.00,245.00
             179.29,245.00 170.02,243.82 163.00,252.00
             148.95,248.28 149.69,250.97 141.00,250.97
             135.42,250.97 133.46,249.26 128.00,252.19
             119.22,256.90 117.20,264.76 111.91,265.40
             107.59,265.92 104.23,261.81 101.00,259.64
             97.30,257.17 95.25,257.11 91.00,257.00
             90.35,254.79 90.25,253.99 88.69,252.09
             87.74,250.94 86.26,249.68 85.00,248.89
             75.48,242.94 71.96,255.80 66.07,256.56
             62.91,256.97 57.36,251.94 55.00,250.00
             55.60,248.68 56.36,247.69 55.71,246.13
             54.57,243.40 44.93,239.24 42.00,238.00
             41.53,231.42 37.12,217.71 48.00,219.00
             47.41,214.91 47.22,214.78 45.91,211.00
             42.26,200.45 56.56,207.77 58.71,209.86
             62.56,213.59 59.72,217.26 62.60,220.69
             64.18,222.56 65.80,222.64 68.00,223.00
             68.00,223.00 67.00,231.00 67.00,231.00
             70.30,230.78 76.08,229.56 78.96,228.00
             83.98,225.29 81.94,223.58 89.00,223.00
             89.19,216.36 91.50,212.47 95.00,207.00
             104.46,210.04 111.53,211.80 113.00,222.94
             113.00,222.94 123.00,222.94 123.00,222.94
             123.00,222.94 128.83,221.72 128.83,221.72
             128.83,221.72 134.09,221.72 134.09,221.72
             134.09,221.72 154.00,209.00 154.00,209.00
             160.99,212.06 169.44,206.80 177.00,207.02
             181.39,207.15 184.58,208.91 186.57,207.85
             188.91,206.60 188.87,203.26 189.00,201.00
             201.30,202.27 199.01,206.15 215.00,205.00
             216.89,212.62 220.56,214.16 227.00,217.64
             229.59,219.04 231.95,220.68 234.69,218.46
             237.35,216.31 241.81,201.39 239.97,198.34
             238.24,195.47 234.57,195.35 233.62,192.70
             232.91,189.63 236.99,185.44 233.62,178.09
             231.49,174.06 223.83,165.95 225.87,161.54
             226.95,159.20 230.74,157.71 233.00,156.81
             240.44,153.84 246.48,153.68 253.91,149.49
             258.10,147.12 261.28,143.58 262.53,138.83
             263.20,136.31 262.76,133.15 264.02,131.61
             266.15,129.03 272.90,131.95 277.32,129.65
             281.90,127.27 283.96,120.30 286.00,116.00
             286.00,116.00 289.00,128.00 289.00,128.00
             300.68,128.11 302.82,131.42 308.00,130.72
             312.07,130.18 316.37,127.04 321.00,127.11
             326.36,127.20 327.73,131.32 330.72,129.83
             334.49,127.96 331.86,120.56 334.02,117.31
             336.15,114.12 343.50,115.00 347.00,115.00
             347.00,115.00 349.00,98.00 349.00,98.00
             354.58,99.10 360.46,97.59 368.00,99.61 Z" />
</svg>
