<?xml version="1.0" encoding="UTF-8" standalone="no"?>
<!DOCTYPE svg PUBLIC "-//W3C//DTD SVG 20010904//EN"
              "http://www.w3.org/TR/2001/REC-SVG-20010904/DTD/svg10.dtd">

<svg xmlns="http://www.w3.org/2000/svg"
     width="5.55486in" height="5.55486in"
     viewBox="0 0 400 400">
  <path id="Selection"
        fill="green" stroke="black" stroke-width="1"
        d="M 145.00,101.00
           C 145.04,110.99 145.71,109.13 152.83,113.66
             154.59,114.78 155.90,116.27 158.09,116.56
             159.88,116.80 163.94,115.44 166.00,115.00
             166.00,115.00 168.00,105.00 168.00,105.00
             171.24,104.82 176.51,102.77 178.69,103.65
             180.76,104.48 181.51,107.56 182.63,109.42
             186.44,115.78 188.71,114.67 189.00,123.00
             189.00,123.00 199.00,123.00 199.00,123.00
             199.00,123.00 199.00,127.00 199.00,127.00
             199.00,127.00 205.00,129.00 205.00,129.00
             205.00,129.00 205.00,125.00 205.00,125.00
             209.09,125.13 213.49,125.79 216.74,128.55
             219.70,131.05 220.69,135.59 224.09,135.90
             226.02,136.07 229.27,133.94 231.00,133.00
             234.80,138.40 235.80,132.19 243.00,131.00
             242.47,138.33 239.00,141.28 232.00,143.00
             232.00,143.00 237.00,157.00 237.00,157.00
             237.00,157.00 243.00,156.00 243.00,156.00
             243.00,156.00 250.00,163.00 250.00,163.00
             249.65,170.33 252.02,171.95 257.91,175.56
             260.06,176.87 262.33,178.94 265.00,177.85
             270.00,175.80 271.22,167.42 277.04,167.35
             278.92,167.33 281.25,168.35 283.00,169.00
             283.00,159.41 283.71,159.01 278.00,151.00
             287.32,152.30 290.89,160.02 298.00,162.21
             304.15,164.48 306.79,159.64 313.00,162.21
             313.00,162.21 307.00,163.00 307.00,163.00
             308.90,171.45 313.09,175.49 319.72,180.65
             321.59,182.11 323.66,183.89 326.01,184.45
             329.29,185.23 331.82,183.57 335.00,183.22
             342.61,182.39 345.25,187.56 351.00,191.00
             352.70,187.65 353.35,187.52 357.00,187.00
             357.05,190.98 357.43,191.27 361.00,193.00
             361.73,202.96 367.90,202.09 373.13,208.04
             375.04,210.22 375.30,213.28 376.00,215.99
             376.00,215.99 368.00,215.99 368.00,215.99
             361.51,217.91 355.47,226.45 355.00,233.00
             345.55,234.33 348.58,238.46 340.00,241.00
             340.00,241.00 337.00,257.00 337.00,257.00
             327.36,258.56 323.86,271.89 315.00,274.78
             311.08,276.24 298.83,274.11 294.00,274.78
             289.53,275.14 286.35,277.74 283.51,281.03
             281.69,283.16 280.16,286.22 276.96,286.22
             273.84,286.21 261.57,278.41 255.00,279.16
             251.47,279.57 249.21,282.25 245.91,283.31
             235.07,286.78 224.67,284.29 220.00,273.00
             220.00,273.00 209.00,277.00 209.00,277.00
             207.82,275.57 207.46,274.93 205.89,273.76
             204.59,272.81 191.26,266.19 190.00,265.98
             186.65,265.43 185.00,267.48 182.00,266.56
             177.84,265.28 174.86,258.61 169.57,263.87
             164.15,269.25 169.74,276.50 166.82,280.44
             165.43,282.32 162.81,282.10 160.02,283.85
             155.39,286.76 153.37,291.78 153.00,297.00
             145.36,293.35 139.75,290.46 135.00,300.00
             135.00,300.00 121.00,298.00 121.00,298.00
             120.61,286.93 113.65,289.07 108.57,283.24
             106.58,280.95 107.40,279.13 105.44,276.09
             100.65,268.63 93.59,265.03 85.00,265.00
             84.26,254.67 76.80,253.42 69.52,245.16
             67.23,242.58 62.61,235.70 60.48,234.31
             57.26,232.20 52.62,233.80 48.60,228.56
             46.33,225.60 47.73,223.81 45.18,218.09
             43.19,213.62 35.80,206.82 36.07,203.00
             36.39,198.61 42.78,192.66 40.82,187.00
             38.14,179.28 29.38,176.01 24.00,171.00
             31.74,169.06 30.99,165.94 31.00,159.00
             36.17,157.21 38.53,156.06 41.00,150.90
             41.00,150.90 48.00,150.90 48.00,150.90
             48.00,150.90 53.00,149.89 53.00,149.89
             53.00,149.89 60.00,151.23 60.00,151.23
             60.00,151.23 69.00,149.00 69.00,149.00
             69.00,149.00 69.00,145.00 69.00,145.00
             77.05,144.74 80.39,141.31 85.00,135.00
             92.79,135.28 91.15,130.96 96.04,128.68
             96.04,128.68 99.29,127.77 99.29,127.77
             109.41,124.37 106.09,125.00 117.00,125.00
             117.12,123.51 117.05,121.86 118.02,120.59
             119.78,118.32 124.92,117.24 127.00,119.00
             127.00,119.00 135.17,113.93 135.17,113.93
             140.33,110.99 144.61,111.78 142.00,101.00
             142.00,101.00 145.00,101.00 145.00,101.00 Z" />
</svg>
