<?xml version="1.0" encoding="UTF-8" standalone="no"?>
<!DOCTYPE svg PUBLIC "-//W3C//DTD SVG 20010904//EN"
              "http://www.w3.org/TR/2001/REC-SVG-20010904/DTD/svg10.dtd">

<svg xmlns="http://www.w3.org/2000/svg"
     width="6.24922in" height="3.47179in"
     viewBox="0 0 450 250">
  <path id="Selection"
        fill="green" stroke="black" stroke-width="1"
        d="M 170.00,26.00
           C 170.04,35.99 170.71,34.13 177.83,38.66
             179.59,39.78 180.90,41.27 183.09,41.56
             184.88,41.80 188.94,40.44 191.00,40.00
             191.00,40.00 193.00,30.00 193.00,30.00
             196.24,29.82 201.51,27.77 203.69,28.65
             205.76,29.48 206.51,32.56 207.63,34.42
             211.44,40.78 213.71,39.67 214.00,48.00
             214.00,48.00 224.00,48.00 224.00,48.00
             224.00,48.00 224.00,52.00 224.00,52.00
             224.00,52.00 230.00,54.00 230.00,54.00
             230.00,54.00 230.00,50.00 230.00,50.00
             234.09,50.13 238.49,50.79 241.74,53.55
             244.70,56.05 245.69,60.59 249.09,60.90
             251.02,61.07 254.27,58.94 256.00,58.00
             259.80,63.40 260.80,57.19 268.00,56.00
             267.47,63.33 264.00,66.28 257.00,68.00
             257.00,68.00 262.00,82.00 262.00,82.00
             262.00,82.00 268.00,81.00 268.00,81.00
             268.00,81.00 275.00,88.00 275.00,88.00
             274.65,95.33 277.02,96.95 282.91,100.56
             285.06,101.87 287.33,103.94 290.00,102.85
             295.00,100.80 296.22,92.42 302.04,92.35
             303.92,92.33 306.25,93.35 308.00,94.00
             308.00,84.41 308.71,84.01 303.00,76.00
             312.32,77.30 315.89,85.02 323.00,87.21
             329.15,89.48 331.79,84.64 338.00,87.21
             338.00,87.21 332.00,88.00 332.00,88.00
             333.90,96.45 338.09,100.49 344.72,105.65
             346.59,107.11 348.66,108.89 351.01,109.45
             354.29,110.23 356.82,108.57 360.00,108.22
             367.61,107.39 370.25,112.56 376.00,116.00
             377.70,112.65 378.35,112.52 382.00,112.00
             382.05,115.98 382.43,116.27 386.00,118.00
             386.73,127.96 392.90,127.09 398.13,133.04
             400.04,135.22 400.30,138.28 401.00,140.99
             401.00,140.99 393.00,140.99 393.00,140.99
             386.51,142.91 380.47,151.45 380.00,158.00
             370.55,159.33 373.58,163.46 365.00,166.00
             365.00,166.00 362.00,182.00 362.00,182.00
             352.36,183.56 348.86,196.89 340.00,199.78
             336.08,201.24 323.83,199.11 319.00,199.78
             314.53,200.14 311.35,202.74 308.51,206.03
             306.69,208.16 305.16,211.22 301.96,211.22
             298.84,211.21 286.57,203.41 280.00,204.16
             276.47,204.57 274.21,207.25 270.91,208.31
             260.07,211.78 249.67,209.29 245.00,198.00
             245.00,198.00 234.00,202.00 234.00,202.00
             232.82,200.57 232.46,199.93 230.89,198.76
             229.59,197.81 216.26,191.19 215.00,190.98
             211.65,190.43 210.00,192.48 207.00,191.56
             202.84,190.28 199.86,183.61 194.57,188.87
             189.15,194.25 194.74,201.50 191.82,205.44
             190.43,207.32 187.81,207.10 185.02,208.85
             180.39,211.76 178.37,216.78 178.00,222.00
             170.36,218.35 164.75,215.46 160.00,225.00
             160.00,225.00 146.00,223.00 146.00,223.00
             145.61,211.93 138.65,214.07 133.57,208.24
             131.58,205.95 132.40,204.13 130.44,201.09
             125.65,193.63 118.59,190.03 110.00,190.00
             109.26,179.67 101.80,178.42 94.52,170.16
             92.23,167.58 87.61,160.70 85.48,159.31
             82.26,157.20 77.62,158.80 73.60,153.56
             71.33,150.60 72.73,148.81 70.18,143.09
             68.19,138.62 60.80,131.82 61.07,128.00
             61.39,123.61 67.78,117.66 65.82,112.00
             63.14,104.28 54.38,101.01 49.00,96.00
             56.74,94.06 55.99,90.94 56.00,84.00
             61.17,82.21 63.53,81.06 66.00,75.90
             66.00,75.90 73.00,75.90 73.00,75.90
             73.00,75.90 78.00,74.89 78.00,74.89
             78.00,74.89 85.00,76.23 85.00,76.23
             85.00,76.23 94.00,74.00 94.00,74.00
             94.00,74.00 94.00,70.00 94.00,70.00
             102.05,69.74 105.39,66.31 110.00,60.00
             117.79,60.28 116.15,55.96 121.04,53.68
             121.04,53.68 124.29,52.77 124.29,52.77
             134.41,49.37 131.09,50.00 142.00,50.00
             142.12,48.51 142.05,46.86 143.02,45.59
             144.78,43.32 149.92,42.24 152.00,44.00
             152.00,44.00 160.17,38.93 160.17,38.93
             165.33,35.99 169.61,36.78 167.00,26.00
             167.00,26.00 170.00,26.00 170.00,26.00 Z" />
</svg>
