<?xml version="1.0" encoding="UTF-8" standalone="no"?>
<!DOCTYPE svg PUBLIC "-//W3C//DTD SVG 20010904//EN"
              "http://www.w3.org/TR/2001/REC-SVG-20010904/DTD/svg10.dtd">

<svg xmlns="http://www.w3.org/2000/svg"
     width="5.55486in" height="5.55486in"
     viewBox="0 0 400 400">
  <path id="Selection"
        fill="green" stroke="black" stroke-width="1"
        d="M 137.00,95.14
           C 137.00,95.14 152.00,95.14 152.00,95.14
             162.86,95.02 158.90,96.72 165.01,98.49
             167.47,99.21 172.27,98.98 175.00,99.00
             184.28,99.06 185.22,101.75 189.00,101.77
             191.27,101.78 194.69,99.87 197.00,99.00
             197.00,99.00 198.00,105.00 198.00,105.00
             198.00,105.00 209.96,106.83 209.96,106.83
             209.96,106.83 222.00,99.00 222.00,99.00
             223.88,101.06 224.93,102.42 228.00,102.40
             233.29,102.36 240.54,96.51 242.00,105.00
             242.00,105.00 256.00,102.00 256.00,102.00
             256.00,102.00 260.00,106.00 260.00,106.00
             259.53,107.66 258.63,109.97 259.11,111.68
             260.34,116.03 270.64,121.14 275.00,120.88
             280.37,120.55 283.22,117.26 287.00,115.84
             289.81,114.78 293.03,115.00 296.00,115.00
             295.92,121.95 293.87,128.06 290.25,134.00
             288.72,136.52 284.44,141.83 283.88,144.09
             283.39,145.97 283.84,148.08 283.88,150.00
             284.07,155.18 282.91,162.41 288.30,165.83
             290.62,167.30 295.25,167.00 298.00,167.00
             301.70,176.24 309.32,177.83 315.00,184.00
             306.52,186.41 305.27,184.22 298.00,183.10
             298.00,183.10 291.00,183.10 291.00,183.10
             291.66,196.19 299.39,196.76 304.12,204.09
             305.57,206.33 307.20,213.92 308.00,217.00
             299.44,215.33 301.98,218.88 295.91,220.72
             291.83,221.96 288.00,221.02 285.00,221.34
             285.00,221.34 278.00,223.00 278.00,223.00
             278.01,237.28 281.12,231.54 286.00,243.00
             274.93,238.18 266.43,244.08 262.76,255.00
             262.76,255.00 260.07,267.68 260.07,267.68
             257.26,273.00 249.31,274.55 250.05,285.99
             250.63,294.84 257.38,296.46 258.00,306.00
             253.86,303.33 254.18,300.40 249.95,299.31
             245.68,298.22 239.45,300.29 235.09,297.42
             231.90,295.31 228.71,290.00 225.82,287.18
             220.47,281.97 216.10,281.03 209.00,281.00
             210.89,272.82 208.18,273.50 203.44,267.92
             203.44,267.92 199.74,263.52 199.74,263.52
             194.75,258.82 190.29,256.98 185.51,249.68
             183.03,245.90 184.55,240.11 178.66,234.34
             175.61,231.35 170.11,230.28 166.00,229.00
             164.28,220.00 157.88,217.91 151.53,211.96
             151.53,211.96 133.00,193.04 133.00,193.04
             133.00,193.04 118.92,180.82 118.92,180.82
             115.05,175.08 115.73,169.38 116.00,163.00
             116.00,163.00 110.00,162.00 110.00,162.00
             110.00,158.76 110.33,153.16 109.21,150.28
             107.98,147.10 105.32,144.83 103.58,142.00
             101.62,138.82 102.12,136.95 99.69,134.34
             92.87,127.02 86.07,132.36 86.16,120.00
             86.16,120.00 86.16,106.00 86.16,106.00
             86.16,106.00 88.00,97.00 88.00,97.00
             92.13,97.00 95.32,96.61 99.00,98.89
             107.73,104.29 115.26,120.25 124.22,106.82
             125.17,105.38 125.96,103.61 126.58,102.00
             127.67,99.13 127.80,98.00 128.00,95.14
             128.00,95.14 137.00,95.14 137.00,95.14 Z" />
</svg>
