<?xml version="1.0" encoding="UTF-8" standalone="no"?>
<!DOCTYPE svg PUBLIC "-//W3C//DTD SVG 20010904//EN"
              "http://www.w3.org/TR/2001/REC-SVG-20010904/DTD/svg10.dtd">

<svg xmlns="http://www.w3.org/2000/svg"
     width="43.6334in" height="36.3288in"
     viewBox="0 0 3142 2616">
  <path id="Bosnia"
        fill="Black" stroke="black" stroke-width="1"
        d="M 1814.00,1691.14
           C 1814.00,1691.14 1829.00,1691.14 1829.00,1691.14
             1839.86,1691.02 1835.90,1692.72 1842.01,1694.49
             1844.47,1695.21 1849.27,1694.98 1852.00,1695.00
             1861.28,1695.06 1862.22,1697.75 1866.00,1697.77
             1868.27,1697.78 1871.69,1695.87 1874.00,1695.00
             1874.00,1695.00 1875.00,1701.00 1875.00,1701.00
             1875.00,1701.00 1886.96,1702.83 1886.96,1702.83
             1886.96,1702.83 1899.00,1695.00 1899.00,1695.00
             1900.88,1697.06 1901.93,1698.42 1905.00,1698.40
             1910.29,1698.36 1917.54,1692.51 1919.00,1701.00
             1919.00,1701.00 1933.00,1698.00 1933.00,1698.00
             1933.00,1698.00 1937.00,1702.00 1937.00,1702.00
             1936.53,1703.66 1935.63,1705.97 1936.11,1707.68
             1937.34,1712.03 1947.64,1717.14 1952.00,1716.88
             1957.37,1716.55 1960.22,1713.26 1964.00,1711.84
             1966.81,1710.78 1970.03,1711.00 1973.00,1711.00
             1972.92,1717.95 1970.87,1724.06 1967.25,1730.00
             1965.72,1732.52 1961.44,1737.83 1960.88,1740.09
             1960.39,1741.97 1960.84,1744.08 1960.88,1746.00
             1961.07,1751.18 1959.91,1758.41 1965.30,1761.83
             1967.62,1763.30 1972.25,1763.00 1975.00,1763.00
             1978.70,1772.24 1986.32,1773.83 1992.00,1780.00
             1983.52,1782.41 1982.27,1780.22 1975.00,1779.10
             1975.00,1779.10 1968.00,1779.10 1968.00,1779.10
             1968.66,1792.19 1976.39,1792.76 1981.12,1800.09
             1982.57,1802.33 1984.20,1809.92 1985.00,1813.00
             1976.44,1811.33 1978.98,1814.88 1972.91,1816.72
             1968.83,1817.96 1965.00,1817.02 1962.00,1817.34
             1962.00,1817.34 1955.00,1819.00 1955.00,1819.00
             1955.01,1833.28 1958.12,1827.54 1963.00,1839.00
             1951.93,1834.18 1943.43,1840.08 1939.76,1851.00
             1939.76,1851.00 1937.07,1863.68 1937.07,1863.68
             1934.26,1869.00 1926.31,1870.55 1927.05,1881.99
             1927.63,1890.84 1934.38,1892.46 1935.00,1902.00
             1930.86,1899.33 1931.18,1896.40 1926.95,1895.31
             1922.68,1894.22 1916.45,1896.29 1912.09,1893.42
             1908.90,1891.31 1905.71,1886.00 1902.82,1883.18
             1897.47,1877.97 1893.10,1877.03 1886.00,1877.00
             1887.89,1868.82 1885.18,1869.50 1880.44,1863.92
             1880.44,1863.92 1876.74,1859.52 1876.74,1859.52
             1871.75,1854.82 1867.29,1852.98 1862.51,1845.68
             1860.03,1841.90 1861.55,1836.11 1855.66,1830.34
             1852.61,1827.35 1847.11,1826.28 1843.00,1825.00
             1841.28,1816.00 1834.88,1813.91 1828.53,1807.96
             1828.53,1807.96 1810.00,1789.04 1810.00,1789.04
             1810.00,1789.04 1795.92,1776.82 1795.92,1776.82
             1792.05,1771.08 1792.73,1765.38 1793.00,1759.00
             1793.00,1759.00 1787.00,1758.00 1787.00,1758.00
             1787.00,1754.76 1787.33,1749.16 1786.21,1746.28
             1784.98,1743.10 1782.32,1740.83 1780.58,1738.00
             1778.62,1734.82 1779.12,1732.95 1776.69,1730.34
             1769.87,1723.02 1763.07,1728.36 1763.16,1716.00
             1763.16,1716.00 1763.16,1702.00 1763.16,1702.00
             1763.16,1702.00 1765.00,1693.00 1765.00,1693.00
             1769.13,1693.00 1772.32,1692.61 1776.00,1694.89
             1784.73,1700.29 1792.26,1716.25 1801.22,1702.82
             1802.17,1701.38 1802.96,1699.61 1803.58,1698.00
             1804.67,1695.13 1804.80,1694.00 1805.00,1691.14
             1805.00,1691.14 1814.00,1691.14 1814.00,1691.14 Z" />
</svg>
