<?xml version="1.0" encoding="UTF-8" standalone="no"?>
<!DOCTYPE svg PUBLIC "-//W3C//DTD SVG 20010904//EN"
              "http://www.w3.org/TR/2001/REC-SVG-20010904/DTD/svg10.dtd">

<svg xmlns="http://www.w3.org/2000/svg"
     width="43.6334in" height="36.3288in"
     viewBox="0 0 3142 2616">
  <path id="Const.svg"
        fill="Green" stroke="black" stroke-width="1"
        d="M 2477.00,1894.49
           C 2477.00,1894.49 2485.00,1890.28 2485.00,1890.28
             2489.15,1889.53 2492.11,1895.02 2495.17,1897.11
             2496.55,1898.06 2505.36,1900.24 2507.13,1900.39
             2510.45,1900.67 2510.73,1898.48 2514.21,1897.17
             2517.92,1895.76 2520.81,1896.15 2522.34,1895.79
             2525.55,1895.04 2524.12,1893.71 2533.00,1892.00
             2532.36,1901.27 2534.09,1905.65 2539.87,1913.00
             2542.50,1916.33 2546.55,1920.78 2550.00,1923.16
             2559.27,1929.55 2578.89,1934.74 2590.00,1937.70
             2595.42,1939.15 2603.34,1939.95 2609.00,1940.00
             2609.00,1945.25 2610.75,1954.99 2605.37,1957.89
             2602.58,1959.39 2599.92,1958.68 2597.00,1959.51
             2593.89,1960.38 2591.69,1962.57 2589.26,1961.70
             2585.72,1960.44 2587.05,1956.31 2579.00,1955.00
             2579.00,1955.00 2579.00,1961.00 2579.00,1961.00
             2570.36,1958.30 2567.99,1956.62 2559.00,1958.73
             2556.72,1959.27 2555.17,1959.48 2553.18,1960.89
             2549.23,1963.69 2547.87,1968.95 2543.91,1970.38
             2539.69,1971.91 2535.49,1967.59 2528.00,1969.47
             2524.49,1970.35 2515.01,1975.83 2513.60,1979.19
             2512.53,1981.74 2513.58,1984.74 2511.98,1988.00
             2510.49,1991.04 2507.12,1993.52 2505.85,1996.28
             2504.77,1998.66 2505.00,2002.38 2505.00,2005.00
             2505.00,2005.00 2481.00,2019.00 2481.00,2019.00
             2480.54,2012.59 2477.17,2005.88 2471.00,2013.00
             2471.00,2013.00 2461.00,2013.00 2461.00,2013.00
             2461.00,2013.00 2461.00,2017.00 2461.00,2017.00
             2449.38,2013.52 2446.79,2020.97 2438.00,2020.52
             2435.75,2020.41 2433.06,2018.94 2431.00,2018.00
             2431.00,2018.00 2435.00,2007.00 2435.00,2007.00
             2435.00,2007.00 2441.00,2007.00 2441.00,2007.00
             2441.27,2004.35 2442.60,1997.67 2443.97,1995.51
             2445.59,1992.97 2449.74,1991.19 2448.67,1986.00
             2447.80,1981.83 2439.84,1975.82 2441.68,1970.34
             2442.47,1967.96 2446.92,1965.99 2449.00,1964.45
             2456.16,1959.14 2460.74,1955.53 2458.40,1946.00
             2457.29,1941.44 2453.62,1932.52 2449.90,1929.77
             2444.50,1925.78 2440.74,1928.18 2437.00,1921.00
             2437.00,1921.00 2449.00,1921.00 2449.00,1921.00
             2449.00,1921.00 2449.00,1905.00 2449.00,1905.00
             2463.45,1904.99 2465.08,1900.68 2477.00,1894.49 Z" />
</svg>
