<?xml version="1.0" encoding="UTF-8" standalone="no"?>
<!DOCTYPE svg PUBLIC "-//W3C//DTD SVG 20010904//EN"
              "http://www.w3.org/TR/2001/REC-SVG-20010904/DTD/svg10.dtd">

<svg xmlns="http://www.w3.org/2000/svg"
     width="5.55486in" height="5.55486in"
     viewBox="0 0 400 400">
  <path id="Selection"
        fill="green" stroke="black" stroke-width="1"
        d="M 157.00,139.49
           C 157.00,139.49 165.00,135.28 165.00,135.28
             169.15,134.53 172.11,140.02 175.17,142.11
             176.55,143.06 185.36,145.24 187.13,145.39
             190.45,145.67 190.73,143.48 194.21,142.17
             197.92,140.76 200.81,141.15 202.34,140.79
             205.55,140.04 204.12,138.71 213.00,137.00
             212.36,146.27 214.09,150.65 219.87,158.00
             222.50,161.33 226.55,165.78 230.00,168.16
             239.27,174.55 258.89,179.74 270.00,182.70
             275.42,184.15 283.34,184.95 289.00,185.00
             289.00,190.25 290.75,199.99 285.37,202.89
             282.58,204.39 279.92,203.68 277.00,204.51
             273.89,205.38 271.69,207.57 269.26,206.70
             265.72,205.44 267.05,201.31 259.00,200.00
             259.00,200.00 259.00,206.00 259.00,206.00
             250.36,203.30 247.99,201.62 239.00,203.73
             236.72,204.27 235.17,204.48 233.18,205.89
             229.23,208.69 227.87,213.95 223.91,215.38
             219.69,216.91 215.49,212.59 208.00,214.47
             204.49,215.35 195.01,220.83 193.60,224.19
             192.53,226.74 193.58,229.74 191.98,233.00
             190.49,236.04 187.12,238.52 185.85,241.28
             184.77,243.66 185.00,247.38 185.00,250.00
             185.00,250.00 161.00,264.00 161.00,264.00
             160.54,257.59 157.17,250.88 151.00,258.00
             151.00,258.00 141.00,258.00 141.00,258.00
             141.00,258.00 141.00,262.00 141.00,262.00
             129.38,258.52 126.79,265.97 118.00,265.52
             115.75,265.41 113.06,263.94 111.00,263.00
             111.00,263.00 115.00,252.00 115.00,252.00
             115.00,252.00 121.00,252.00 121.00,252.00
             121.27,249.35 122.60,242.67 123.97,240.51
             125.59,237.97 129.74,236.19 128.67,231.00
             127.80,226.83 119.84,220.82 121.68,215.34
             122.47,212.96 126.92,210.99 129.00,209.45
             136.16,204.14 140.74,200.53 138.40,191.00
             137.29,186.44 133.62,177.52 129.90,174.77
             124.50,170.78 120.74,173.18 117.00,166.00
             117.00,166.00 129.00,166.00 129.00,166.00
             129.00,166.00 129.00,150.00 129.00,150.00
             143.45,149.99 145.08,145.68 157.00,139.49 Z" />
</svg>
