<?xml version="1.0" encoding="UTF-8" standalone="no"?>
<!DOCTYPE svg PUBLIC "-//W3C//DTD SVG 20010904//EN"
              "http://www.w3.org/TR/2001/REC-SVG-20010904/DTD/svg10.dtd">

<svg xmlns="http://www.w3.org/2000/svg"
     width="5.55486in" height="5.55486in"
     viewBox="0 0 400 400">
  <path id="Selection"
        fill="green" stroke="black" stroke-width="1"
        d="M 196.00,38.00
           C 194.61,44.54 192.47,49.39 201.00,52.00
             201.00,52.00 201.00,59.00 201.00,59.00
             201.00,59.00 198.00,60.00 198.00,60.00
             198.00,60.00 206.10,69.40 206.10,69.40
             206.10,69.40 216.78,71.02 216.78,71.02
             216.78,71.02 221.87,78.11 221.87,78.11
             221.87,78.11 229.00,80.00 229.00,80.00
             230.45,90.05 235.67,95.29 246.00,96.00
             246.78,101.56 253.68,112.17 259.01,114.13
             262.73,115.72 268.18,114.69 272.00,114.13
             274.91,124.81 285.37,121.72 288.00,131.00
             297.80,129.00 294.81,127.93 306.00,128.00
             315.01,128.05 316.65,131.23 322.00,129.35
             327.07,127.57 331.83,122.49 336.04,119.24
             338.00,117.72 341.14,115.29 343.79,115.96
             346.92,116.75 347.36,120.47 348.21,123.00
             348.21,123.00 351.68,131.00 351.68,131.00
             352.95,137.29 346.24,143.14 358.00,144.00
             357.24,146.09 354.46,153.20 354.54,155.00
             354.74,159.59 362.30,163.51 366.00,165.00
             359.26,174.71 363.88,175.84 364.00,186.00
             364.00,186.00 359.00,186.00 359.00,186.00
             359.13,188.87 361.04,197.43 355.13,195.34
             351.23,193.97 352.66,189.37 350.83,186.19
             350.83,186.19 343.12,178.48 343.12,178.48
             339.57,175.41 334.91,179.25 331.09,179.25
             329.07,179.25 320.72,174.23 316.00,174.57
             313.54,174.74 311.05,176.70 309.00,178.00
             307.50,176.76 306.03,175.20 304.00,174.87
             298.56,173.99 296.29,182.97 290.00,181.36
             287.17,180.63 284.73,177.62 281.00,176.51
             278.33,175.72 271.18,176.04 268.00,176.00
             261.37,175.90 261.60,174.27 257.96,174.85
             255.52,175.24 254.07,176.51 251.00,175.80
             246.14,174.69 242.76,170.01 240.74,169.44
             237.99,168.66 229.43,171.60 226.00,171.90
             218.39,172.55 216.86,169.22 213.09,169.92
             206.78,171.09 202.96,182.61 202.00,188.00
             187.17,185.18 186.23,167.83 173.00,172.84
             161.18,177.32 161.98,186.64 162.00,197.00
             162.01,201.68 161.91,202.40 163.14,207.00
             164.25,211.14 164.72,214.55 168.27,217.47
             171.45,220.09 174.14,219.95 178.00,220.00
             178.04,223.96 177.92,227.42 180.65,230.66
             182.92,233.36 186.09,233.98 187.40,237.13
             189.77,242.83 184.72,248.45 194.00,250.00
             194.00,250.00 194.00,257.00 194.00,257.00
             194.22,269.59 203.54,273.33 211.85,279.84
             211.85,279.84 232.33,299.04 232.33,299.04
             240.36,307.53 244.96,318.30 258.00,320.00
             258.10,328.24 260.35,333.98 266.10,339.96
             273.70,347.87 281.99,350.01 285.00,362.00
             285.00,362.00 279.00,362.00 279.00,362.00
             280.43,353.85 275.26,354.77 270.30,350.24
             266.57,346.84 268.04,344.81 262.00,345.00
             259.45,341.25 257.75,342.46 254.00,344.00
             253.80,337.85 251.78,337.09 247.67,333.00
             239.63,324.99 237.66,325.15 227.00,321.39
             227.00,321.39 221.28,319.48 221.28,319.48
             217.36,317.57 214.72,312.45 209.00,312.23
             209.00,312.23 186.00,318.00 186.00,318.00
             186.00,318.00 179.47,300.43 179.47,300.43
             179.47,300.43 171.04,296.86 171.04,296.86
             171.04,296.86 162.17,291.16 162.17,291.16
             162.17,291.16 150.00,282.00 150.00,282.00
             146.77,271.02 139.49,275.02 135.00,261.00
             135.00,261.00 142.00,261.00 142.00,261.00
             142.00,261.00 142.00,256.00 142.00,256.00
             142.00,256.00 148.00,258.00 148.00,258.00
             148.75,267.09 154.75,266.00 162.00,266.00
             161.27,255.71 154.94,252.63 147.00,247.64
             141.71,244.32 138.15,244.88 137.00,238.00
             137.00,238.00 134.00,238.00 134.00,238.00
             131.62,230.15 123.29,230.25 119.05,217.96
             116.68,211.12 119.96,209.43 119.76,200.00
             120.01,197.75 120.12,194.27 119.76,192.17
             117.30,184.51 108.99,181.32 104.19,176.68
             99.99,172.62 100.54,169.70 98.42,167.58
             97.19,166.35 95.55,165.93 94.00,165.30
             85.34,161.73 87.56,162.00 78.00,162.00
             78.00,162.00 75.03,176.00 75.03,176.00
             72.56,181.62 70.55,180.33 70.00,188.00
             70.00,188.00 64.00,188.00 64.00,188.00
             64.00,194.23 65.41,198.76 58.00,200.00
             58.00,200.00 58.00,206.00 58.00,206.00
             53.38,202.53 55.19,199.39 53.02,195.09
             49.57,188.26 45.46,191.40 46.00,180.00
             46.00,180.00 42.00,180.00 42.00,180.00
             42.00,167.81 41.60,169.45 38.00,158.00
             43.85,160.62 46.50,161.84 53.00,162.00
             49.92,157.58 49.79,156.92 52.00,152.00
             52.00,152.00 43.00,152.00 43.00,152.00
             47.39,145.93 57.37,149.02 60.58,143.44
             62.56,140.00 58.90,134.35 56.66,131.84
             53.87,128.70 47.46,123.84 46.71,119.96
             45.73,116.38 48.13,114.04 46.71,111.13
             45.46,107.97 41.79,107.88 39.00,104.00
             44.40,103.08 45.02,101.13 46.00,96.00
             46.00,96.00 50.00,96.00 50.00,96.00
             47.90,89.51 39.91,87.89 34.00,86.00
             34.00,86.00 34.00,82.00 34.00,82.00
             34.00,82.00 42.00,80.00 42.00,80.00
             42.00,80.00 42.00,74.00 42.00,74.00
             42.00,74.00 50.00,73.00 50.00,73.00
             50.00,73.00 50.00,69.00 50.00,69.00
             50.00,69.00 62.00,70.45 62.00,70.45
             62.00,70.45 80.00,74.00 80.00,74.00
             80.00,74.00 80.00,77.00 80.00,77.00
             80.00,77.00 88.91,76.38 88.91,76.38
             88.91,76.38 96.04,78.44 96.04,78.44
             96.04,78.44 106.00,73.00 106.00,73.00
             106.00,73.00 126.00,58.00 126.00,58.00
             136.22,61.18 135.29,59.70 145.00,59.47
             147.45,59.39 149.54,60.00 152.00,59.47
             155.48,58.77 161.53,54.67 168.00,54.10
             177.99,53.22 180.44,59.35 184.11,56.06
             187.47,53.04 183.40,48.45 182.00,42.00
             182.00,42.00 196.00,38.00 196.00,38.00 Z
           M 145.00,158.00
           C 145.00,158.00 146.00,159.00 146.00,159.00
             146.00,159.00 146.00,158.00 146.00,158.00
             146.00,158.00 145.00,158.00 145.00,158.00 Z" />
</svg>
