<?xml version="1.0" encoding="UTF-8" standalone="no"?>
<!DOCTYPE svg PUBLIC "-//W3C//DTD SVG 20010904//EN"
              "http://www.w3.org/TR/2001/REC-SVG-20010904/DTD/svg10.dtd">

<svg xmlns="http://www.w3.org/2000/svg"
     width="43.6334in" height="36.3288in"
     viewBox="0 0 3142 2616">
  <path id="Croatia.svg"
        fill="Green" stroke="black" stroke-width="1"
        d="M 1789.00,1551.00
           C 1787.61,1557.54 1785.47,1562.39 1794.00,1565.00
             1794.00,1565.00 1794.00,1572.00 1794.00,1572.00
             1794.00,1572.00 1791.00,1573.00 1791.00,1573.00
             1791.00,1573.00 1799.11,1582.40 1799.11,1582.40
             1799.11,1582.40 1809.78,1584.02 1809.78,1584.02
             1809.78,1584.02 1814.87,1591.11 1814.87,1591.11
             1814.87,1591.11 1822.00,1593.00 1822.00,1593.00
             1823.45,1603.05 1828.67,1608.29 1839.00,1609.00
             1839.78,1614.56 1846.68,1625.17 1852.01,1627.13
             1855.73,1628.72 1861.18,1627.69 1865.00,1627.13
             1867.91,1637.81 1878.37,1634.72 1881.00,1644.00
             1890.80,1642.00 1887.81,1640.93 1899.00,1641.00
             1908.01,1641.05 1909.65,1644.23 1915.00,1642.35
             1920.07,1640.57 1924.83,1635.49 1929.04,1632.24
             1931.00,1630.72 1934.14,1628.29 1936.79,1628.96
             1939.92,1629.75 1940.36,1633.47 1941.21,1636.00
             1941.21,1636.00 1944.68,1644.00 1944.68,1644.00
             1945.95,1650.29 1939.24,1656.14 1951.00,1657.00
             1950.24,1659.09 1947.46,1666.20 1947.54,1668.00
             1947.74,1672.59 1955.30,1676.51 1959.00,1678.00
             1952.26,1687.71 1956.88,1688.84 1957.00,1699.00
             1957.00,1699.00 1952.00,1699.00 1952.00,1699.00
             1952.13,1701.87 1954.04,1710.43 1948.13,1708.34
             1944.23,1706.97 1945.66,1702.37 1943.83,1699.19
             1943.83,1699.19 1936.12,1691.48 1936.12,1691.48
             1932.57,1688.41 1927.91,1692.25 1924.09,1692.25
             1922.07,1692.25 1913.72,1687.23 1909.00,1687.57
             1906.54,1687.74 1904.05,1689.70 1902.00,1691.00
             1900.50,1689.76 1899.03,1688.20 1897.00,1687.87
             1891.56,1686.99 1889.29,1695.97 1883.00,1694.36
             1880.17,1693.63 1877.73,1690.62 1874.00,1689.51
             1871.33,1688.72 1864.18,1689.04 1861.00,1689.00
             1854.37,1688.90 1854.60,1687.27 1850.96,1687.85
             1848.52,1688.24 1847.07,1689.51 1844.00,1688.80
             1839.14,1687.69 1835.76,1683.01 1833.74,1682.44
             1830.99,1681.66 1822.43,1684.60 1819.00,1684.90
             1811.39,1685.55 1809.86,1682.22 1806.09,1682.92
             1799.78,1684.09 1795.96,1695.61 1795.00,1701.00
             1780.17,1698.18 1779.23,1680.83 1766.00,1685.84
             1754.18,1690.32 1754.98,1699.64 1755.00,1710.00
             1755.01,1714.68 1754.91,1715.40 1756.14,1720.00
             1757.25,1724.14 1757.72,1727.55 1761.27,1730.47
             1764.45,1733.09 1767.14,1732.95 1771.00,1733.00
             1771.04,1736.96 1770.92,1740.42 1773.65,1743.66
             1775.92,1746.36 1779.09,1746.98 1780.40,1750.13
             1782.77,1755.83 1777.72,1761.45 1787.00,1763.00
             1787.00,1763.00 1787.00,1770.00 1787.00,1770.00
             1787.22,1782.59 1796.54,1786.33 1804.85,1792.84
             1804.85,1792.84 1825.33,1812.04 1825.33,1812.04
             1833.36,1820.53 1837.96,1831.30 1851.00,1833.00
             1851.10,1841.24 1853.35,1846.98 1859.10,1852.96
             1866.70,1860.87 1874.99,1863.01 1878.00,1875.00
             1878.00,1875.00 1872.00,1875.00 1872.00,1875.00
             1873.43,1866.85 1868.26,1867.77 1863.30,1863.24
             1859.57,1859.84 1861.04,1857.81 1855.00,1858.00
             1852.45,1854.25 1850.75,1855.46 1847.00,1857.00
             1846.80,1850.85 1844.78,1850.09 1840.67,1846.00
             1832.63,1837.99 1830.66,1838.15 1820.00,1834.39
             1820.00,1834.39 1814.28,1832.48 1814.28,1832.48
             1810.36,1830.57 1807.72,1825.45 1802.00,1825.23
             1802.00,1825.23 1779.00,1831.00 1779.00,1831.00
             1779.00,1831.00 1772.47,1813.43 1772.47,1813.43
             1772.47,1813.43 1764.04,1809.86 1764.04,1809.86
             1764.04,1809.86 1755.17,1804.16 1755.17,1804.16
             1755.17,1804.16 1743.00,1795.00 1743.00,1795.00
             1739.77,1784.02 1732.49,1788.02 1728.00,1774.00
             1728.00,1774.00 1735.00,1774.00 1735.00,1774.00
             1735.00,1774.00 1735.00,1769.00 1735.00,1769.00
             1735.00,1769.00 1741.00,1771.00 1741.00,1771.00
             1741.75,1780.09 1747.75,1779.00 1755.00,1779.00
             1754.27,1768.71 1747.94,1765.63 1740.00,1760.64
             1734.71,1757.32 1731.15,1757.88 1730.00,1751.00
             1730.00,1751.00 1727.00,1751.00 1727.00,1751.00
             1724.62,1743.15 1716.29,1743.25 1712.05,1730.96
             1709.68,1724.12 1712.96,1722.43 1712.76,1713.00
             1713.01,1710.75 1713.12,1707.27 1712.76,1705.17
             1710.30,1697.51 1701.99,1694.32 1697.19,1689.68
             1692.99,1685.62 1693.54,1682.70 1691.42,1680.58
             1690.19,1679.35 1688.55,1678.93 1687.00,1678.30
             1678.34,1674.73 1680.56,1675.00 1671.00,1675.00
             1671.00,1675.00 1668.03,1689.00 1668.03,1689.00
             1665.56,1694.62 1663.55,1693.33 1663.00,1701.00
             1663.00,1701.00 1657.00,1701.00 1657.00,1701.00
             1657.00,1707.23 1658.41,1711.76 1651.00,1713.00
             1651.00,1713.00 1651.00,1719.00 1651.00,1719.00
             1646.38,1715.53 1648.19,1712.39 1646.02,1708.09
             1642.57,1701.26 1638.46,1704.40 1639.00,1693.00
             1639.00,1693.00 1635.00,1693.00 1635.00,1693.00
             1635.00,1680.81 1634.60,1682.45 1631.00,1671.00
             1636.85,1673.62 1639.50,1674.84 1646.00,1675.00
             1642.95,1670.65 1642.53,1669.80 1645.00,1665.00
             1645.00,1665.00 1636.00,1665.00 1636.00,1665.00
             1640.39,1658.93 1650.37,1662.02 1653.58,1656.44
             1655.56,1653.00 1651.90,1647.35 1649.66,1644.84
             1646.87,1641.70 1640.46,1636.84 1639.71,1632.96
             1638.73,1629.38 1641.13,1627.04 1639.71,1624.13
             1638.46,1620.97 1634.79,1620.88 1632.00,1617.00
             1637.40,1616.08 1638.02,1614.13 1639.00,1609.00
             1639.00,1609.00 1643.00,1609.00 1643.00,1609.00
             1640.90,1602.51 1632.91,1600.89 1627.00,1599.00
             1627.00,1599.00 1627.00,1595.00 1627.00,1595.00
             1627.00,1595.00 1635.00,1593.00 1635.00,1593.00
             1635.00,1593.00 1635.00,1587.00 1635.00,1587.00
             1635.00,1587.00 1643.00,1586.00 1643.00,1586.00
             1643.00,1586.00 1643.00,1582.00 1643.00,1582.00
             1643.00,1582.00 1655.00,1583.45 1655.00,1583.45
             1655.00,1583.45 1673.00,1587.00 1673.00,1587.00
             1673.00,1587.00 1673.00,1590.00 1673.00,1590.00
             1673.00,1590.00 1681.91,1589.38 1681.91,1589.38
             1681.91,1589.38 1689.04,1591.44 1689.04,1591.44
             1689.04,1591.44 1699.00,1586.00 1699.00,1586.00
             1699.00,1586.00 1719.00,1571.00 1719.00,1571.00
             1729.22,1574.18 1728.29,1572.70 1738.00,1572.47
             1740.45,1572.39 1742.54,1573.00 1745.00,1572.47
             1748.48,1571.77 1754.53,1567.67 1761.00,1567.10
             1770.99,1566.22 1773.44,1572.35 1777.11,1569.06
             1780.47,1566.04 1776.40,1561.45 1775.00,1555.00
             1775.00,1555.00 1789.00,1551.00 1789.00,1551.00 Z
           M 1738.00,1671.00
           C 1738.00,1671.00 1739.00,1672.00 1739.00,1672.00
             1739.00,1672.00 1739.00,1671.00 1739.00,1671.00
             1739.00,1671.00 1738.00,1671.00 1738.00,1671.00 Z" />
</svg>
