<?xml version="1.0" encoding="UTF-8" standalone="no"?>
<!DOCTYPE svg PUBLIC "-//W3C//DTD SVG 20010904//EN"
              "http://www.w3.org/TR/2001/REC-SVG-20010904/DTD/svg10.dtd">

<svg xmlns="http://www.w3.org/2000/svg"
     width="6.94358in" height="6.94358in"
     viewBox="0 0 500 500">
  <path id="Selection"
        fill="red" stroke="black" stroke-width="1"
        d="M 431.00,18.80
           C 434.84,19.38 438.30,18.93 441.11,22.39
             441.11,22.39 447.00,38.00 447.00,38.00
             441.36,42.25 435.80,49.06 429.00,51.00
             429.00,51.00 429.60,62.00 429.60,62.00
             429.60,62.00 432.72,75.00 432.72,75.00
             432.72,75.00 424.00,91.00 424.00,91.00
             416.20,88.38 416.88,87.05 408.00,87.00
             387.71,86.90 385.31,91.49 363.00,87.00
             363.00,87.00 364.00,81.00 364.00,81.00
             364.00,81.00 357.00,83.89 357.00,83.89
             357.00,83.89 348.83,89.57 348.83,89.57
             346.57,90.58 344.58,90.24 342.34,91.60
             339.36,93.42 338.14,97.53 335.13,98.15
             332.83,98.62 329.89,95.39 327.91,94.15
             323.19,91.20 320.20,90.97 315.05,93.11
             308.30,95.91 307.55,107.04 301.24,111.85
             294.94,116.67 291.32,112.83 281.00,113.00
             279.36,113.03 277.59,113.03 276.00,113.51
             274.59,113.94 273.28,114.62 272.15,115.57
             263.83,122.59 275.55,130.20 277.98,135.00
             277.98,135.00 279.84,141.72 279.84,141.72
             279.84,141.72 283.00,148.00 283.00,148.00
             276.47,150.06 272.52,151.45 272.00,159.00
             272.00,159.00 258.00,157.15 258.00,157.15
             258.00,157.15 249.72,160.76 249.72,160.76
             249.72,160.76 239.00,160.76 239.00,160.76
             239.00,160.76 239.00,156.86 239.00,156.86
             237.62,156.98 235.47,157.04 234.17,156.86
             230.37,155.76 222.76,150.59 221.00,147.00
             221.00,147.00 226.00,147.00 226.00,147.00
             223.74,141.66 220.30,135.65 215.00,133.00
             211.02,141.46 201.42,147.15 200.17,150.28
             198.92,153.39 202.16,155.47 202.48,159.00
             202.48,159.00 200.76,172.83 200.76,172.83
             199.82,178.24 198.52,178.97 201.55,184.86
             203.09,187.83 206.39,189.51 208.81,192.09
             212.57,196.10 212.65,198.69 214.87,201.37
             217.55,204.59 220.24,204.85 222.35,207.30
             225.56,211.00 225.00,216.43 225.00,221.00
             230.46,222.55 231.38,224.57 236.00,227.09
             239.55,229.02 242.02,229.27 244.86,232.63
             247.32,235.57 246.72,237.33 248.59,239.61
             248.59,239.61 253.42,243.63 253.42,243.63
             257.44,248.16 254.84,252.94 252.00,257.00
             243.44,255.76 245.98,258.80 239.20,261.00
             239.20,261.00 239.20,266.00 239.20,266.00
             239.98,268.87 243.34,273.67 240.40,275.96
             239.07,277.00 234.04,276.77 232.00,277.00
             232.00,277.00 233.00,281.00 233.00,281.00
             227.62,284.15 226.70,284.22 224.00,290.00
             226.71,291.13 226.45,291.13 227.00,294.00
             234.65,294.00 232.82,293.97 240.00,295.55
             246.11,296.89 251.60,296.56 252.00,305.00
             258.71,301.64 257.85,302.44 265.09,303.00
             264.59,305.40 263.78,308.47 265.09,310.69
             267.44,314.24 280.81,313.00 285.00,313.00
             285.00,313.00 287.00,324.15 287.00,324.15
             287.00,324.15 295.00,324.15 295.00,324.15
             299.79,325.00 301.30,326.98 306.00,325.00
             310.11,327.27 315.99,327.85 317.84,332.13
             319.96,337.05 315.83,338.45 315.57,342.00
             315.57,342.00 316.92,348.09 316.92,348.09
             318.15,355.65 317.74,360.93 324.00,366.00
             322.95,370.80 323.31,371.46 325.00,376.00
             316.39,371.13 319.24,362.54 307.00,365.00
             303.83,356.67 302.74,354.24 293.00,353.00
             293.00,353.00 293.00,345.00 293.00,345.00
             293.00,345.00 275.00,352.70 275.00,352.70
             271.50,354.18 267.03,354.97 264.04,356.87
             256.60,361.61 259.12,364.86 249.00,369.00
             249.00,369.00 260.00,373.00 260.00,373.00
             260.31,376.76 262.81,389.90 265.43,392.10
             271.11,396.88 279.99,393.84 287.00,402.00
             273.81,403.07 276.60,404.96 269.00,409.00
             269.00,409.00 269.00,402.00 269.00,402.00
             252.78,399.80 255.95,392.59 244.00,396.00
             243.03,390.56 239.72,391.06 235.00,391.00
             235.01,398.76 235.19,396.93 236.63,404.00
             237.78,409.63 237.29,412.03 243.00,415.00
             243.49,421.73 244.56,420.06 247.50,425.04
             247.50,425.04 250.59,431.91 250.59,431.91
             252.21,434.21 257.54,438.11 260.00,440.00
             260.00,440.00 259.31,445.91 259.31,445.91
             259.31,445.91 267.00,462.00 267.00,462.00
             258.61,469.58 265.69,473.99 269.00,481.00
             269.00,481.00 263.00,481.00 263.00,481.00
             261.35,474.42 252.53,461.74 246.00,459.59
             242.15,458.32 235.35,460.77 232.55,463.53
             227.97,468.05 227.93,478.47 225.00,483.00
             225.00,483.00 224.16,474.28 224.16,474.28
             224.16,474.28 213.21,458.74 213.21,458.74
             213.21,458.74 207.58,451.91 207.58,451.91
             207.58,451.91 207.00,445.00 207.00,445.00
             199.42,445.00 186.53,445.29 184.52,455.00
             184.02,457.43 185.50,465.23 186.00,468.00
             186.00,468.00 175.60,466.93 175.60,466.93
             173.38,465.36 174.56,461.73 172.99,458.04
             170.59,452.36 163.86,451.00 165.31,441.00
             166.59,432.08 172.31,431.20 172.00,426.91
             171.86,424.96 169.52,421.33 168.46,419.58
             168.46,419.58 160.74,406.53 160.74,406.53
             160.74,406.53 151.75,398.97 151.75,398.97
             149.98,397.88 148.70,398.04 146.58,396.43
             146.58,396.43 137.08,387.06 137.08,387.06
             134.91,385.28 129.29,382.84 128.72,380.66
             127.50,376.01 136.04,372.40 138.40,369.48
             139.58,368.03 143.70,355.26 144.00,353.00
             147.21,353.52 152.64,355.79 155.00,355.36
             160.15,354.42 168.54,342.63 170.00,338.00
             170.00,338.00 184.72,340.56 184.72,340.56
             184.72,340.56 192.00,344.86 192.00,344.86
             192.00,344.86 204.00,348.00 204.00,348.00
             204.00,348.00 204.00,352.00 204.00,352.00
             211.91,351.83 214.93,349.83 223.00,353.11
             227.20,354.82 237.12,361.51 239.99,361.72
             243.54,361.99 244.00,359.32 250.00,358.00
             250.07,352.22 254.39,355.12 258.96,352.84
             264.02,350.32 267.59,345.57 268.00,340.00
             268.00,340.00 259.00,337.14 259.00,337.14
             259.00,337.14 238.00,337.14 238.00,337.14
             238.00,337.14 238.00,331.00 238.00,331.00
             238.00,331.00 231.66,329.62 231.66,329.62
             231.66,329.62 224.96,325.17 224.96,325.17
             224.96,325.17 219.00,328.00 219.00,328.00
             216.10,321.73 212.40,321.08 205.90,321.00
             206.13,322.53 206.48,323.36 205.90,324.94
             204.42,328.17 196.43,331.14 193.17,330.28
             190.47,329.56 188.64,326.16 185.61,326.11
             185.61,326.11 173.00,331.00 173.00,331.00
             167.76,327.67 168.41,332.78 164.70,334.35
             163.24,334.98 156.96,334.95 155.00,334.99
             147.85,335.17 140.60,338.63 139.00,329.00
             139.00,329.00 126.00,339.00 126.00,339.00
             126.00,339.00 123.00,321.00 123.00,321.00
             123.00,321.00 118.00,322.00 118.00,322.00
             118.00,322.00 115.40,312.34 115.40,312.34
             115.40,312.34 106.23,306.69 106.23,306.69
             106.23,306.69 107.00,299.00 107.00,299.00
             107.00,299.00 100.00,298.00 100.00,298.00
             100.00,298.00 106.00,295.00 106.00,295.00
             103.44,289.58 102.71,288.76 97.00,291.00
             97.12,287.56 96.63,286.40 100.00,285.00
             94.61,277.73 93.72,280.32 89.52,278.19
             87.11,276.98 79.15,269.23 78.02,267.00
             77.00,264.96 77.08,263.19 77.00,261.00
             77.00,261.00 63.00,261.00 63.00,261.00
             63.00,261.00 59.39,252.00 59.39,252.00
             59.39,252.00 60.00,243.00 60.00,243.00
             60.00,243.00 53.00,243.00 53.00,243.00
             55.73,235.86 62.44,230.70 63.00,223.00
             75.12,222.02 68.83,213.59 63.00,209.00
             63.00,209.00 69.00,199.00 69.00,199.00
             69.00,199.00 85.00,197.00 85.00,197.00
             85.00,197.00 86.70,179.00 86.70,179.00
             86.70,179.00 87.25,173.17 87.25,173.17
             87.25,173.17 90.00,165.00 90.00,165.00
             92.19,164.84 93.88,164.84 95.87,163.69
             101.02,160.69 105.36,149.69 103.77,144.01
             102.25,138.58 97.45,133.91 100.59,131.16
             103.73,128.41 113.84,129.46 116.96,128.69
             120.63,127.78 121.60,125.27 125.04,124.65
             128.34,123.70 131.78,125.50 135.00,124.65
             137.42,124.33 145.61,119.85 147.11,117.86
             147.11,117.86 149.97,112.54 149.97,112.54
             153.26,108.49 158.37,110.34 158.00,101.00
             167.55,98.03 177.07,99.02 187.00,99.00
             201.95,98.98 194.52,94.51 207.00,96.00
             209.49,85.39 209.00,88.12 209.00,77.00
             213.84,77.00 230.58,77.75 233.98,75.98
             237.14,74.33 238.06,72.19 239.00,69.00
             250.12,73.70 254.50,67.00 272.00,67.00
             272.00,67.00 271.00,63.00 271.00,63.00
             271.00,63.00 284.99,59.11 284.99,59.11
             284.99,59.11 292.17,53.56 292.17,53.56
             292.17,53.56 315.00,48.00 315.00,48.00
             319.01,54.53 322.21,55.21 328.96,57.99
             330.81,58.76 334.00,60.49 335.96,60.00
             339.60,59.09 339.29,54.06 345.02,55.52
             347.77,56.23 361.84,65.36 366.00,65.82
             368.26,66.07 374.57,63.55 377.00,62.66
             381.70,60.91 383.52,59.88 385.00,55.00
             392.08,56.59 398.70,58.26 406.00,56.12
             415.91,53.22 414.09,48.54 424.00,50.00
             425.41,39.28 427.34,24.92 414.00,21.00
             418.20,14.23 424.90,17.87 431.00,18.80 Z
           M 222.00,290.00
           C 222.00,290.00 223.00,291.00 223.00,291.00
             223.00,291.00 223.00,290.00 223.00,290.00
             223.00,290.00 222.00,290.00 222.00,290.00 Z" />
</svg>
