<?xml version="1.0" encoding="UTF-8" standalone="no"?>
<!DOCTYPE svg PUBLIC "-//W3C//DTD SVG 20010904//EN"
              "http://www.w3.org/TR/2001/REC-SVG-20010904/DTD/svg10.dtd">

<svg xmlns="http://www.w3.org/2000/svg"
     width="43.6334in" height="36.3288in"
     viewBox="0 0 3142 2616">
  <path id="Greece"
        fill="Green" stroke="black" stroke-width="1"
        d="M 2437.00,1932.80
           C 2440.84,1933.38 2444.30,1932.93 2447.11,1936.39
             2447.11,1936.39 2453.00,1952.00 2453.00,1952.00
             2447.36,1956.25 2441.80,1963.06 2435.00,1965.00
             2435.00,1965.00 2435.60,1976.00 2435.60,1976.00
             2435.60,1976.00 2438.72,1989.00 2438.72,1989.00
             2438.72,1989.00 2430.00,2005.00 2430.00,2005.00
             2422.20,2002.38 2422.88,2001.05 2414.00,2001.00
             2393.71,2000.90 2391.31,2005.49 2369.00,2001.00
             2369.00,2001.00 2370.00,1995.00 2370.00,1995.00
             2370.00,1995.00 2363.00,1997.89 2363.00,1997.89
             2363.00,1997.89 2354.83,2003.57 2354.83,2003.57
             2352.57,2004.58 2350.58,2004.24 2348.34,2005.60
             2345.36,2007.42 2344.14,2011.53 2341.13,2012.15
             2338.83,2012.62 2335.89,2009.39 2333.91,2008.15
             2329.19,2005.20 2326.20,2004.97 2321.05,2007.11
             2314.30,2009.91 2313.55,2021.04 2307.24,2025.85
             2300.94,2030.67 2297.32,2026.83 2287.00,2027.00
             2285.36,2027.03 2283.59,2027.03 2282.00,2027.51
             2280.59,2027.94 2279.28,2028.62 2278.15,2029.57
             2269.83,2036.59 2281.55,2044.20 2283.98,2049.00
             2283.98,2049.00 2285.84,2055.72 2285.84,2055.72
             2285.84,2055.72 2289.00,2062.00 2289.00,2062.00
             2282.47,2064.06 2278.52,2065.45 2278.00,2073.00
             2278.00,2073.00 2264.00,2071.15 2264.00,2071.15
             2264.00,2071.15 2255.72,2074.76 2255.72,2074.76
             2255.72,2074.76 2245.00,2074.76 2245.00,2074.76
             2245.00,2074.76 2245.00,2070.86 2245.00,2070.86
             2243.62,2070.98 2241.47,2071.04 2240.17,2070.86
             2236.37,2069.76 2228.76,2064.59 2227.00,2061.00
             2227.00,2061.00 2232.00,2061.00 2232.00,2061.00
             2229.74,2055.66 2226.30,2049.65 2221.00,2047.00
             2217.02,2055.46 2207.42,2061.15 2206.17,2064.28
             2204.92,2067.39 2208.16,2069.47 2208.48,2073.00
             2208.48,2073.00 2206.76,2086.83 2206.76,2086.83
             2205.82,2092.24 2204.52,2092.97 2207.55,2098.86
             2209.09,2101.83 2212.39,2103.51 2214.81,2106.09
             2218.57,2110.10 2218.65,2112.69 2220.87,2115.37
             2223.55,2118.59 2226.24,2118.85 2228.35,2121.30
             2231.56,2125.00 2231.00,2130.43 2231.00,2135.00
             2236.46,2136.55 2237.38,2138.57 2242.00,2141.09
             2245.55,2143.02 2248.02,2143.27 2250.86,2146.63
             2253.32,2149.57 2252.72,2151.33 2254.59,2153.61
             2254.59,2153.61 2259.42,2157.63 2259.42,2157.63
             2263.44,2162.16 2260.84,2166.94 2258.00,2171.00
             2249.44,2169.76 2251.98,2172.80 2245.20,2175.00
             2245.20,2175.00 2245.20,2180.00 2245.20,2180.00
             2245.98,2182.87 2249.34,2187.67 2246.40,2189.96
             2245.07,2191.00 2240.04,2190.77 2238.00,2191.00
             2238.00,2191.00 2239.00,2195.00 2239.00,2195.00
             2233.62,2198.15 2232.70,2198.22 2230.00,2204.00
             2232.71,2205.13 2232.45,2205.13 2233.00,2208.00
             2240.65,2208.00 2238.82,2207.97 2246.00,2209.55
             2252.11,2210.89 2257.60,2210.56 2258.00,2219.00
             2264.71,2215.64 2263.85,2216.44 2271.09,2217.00
             2270.59,2219.40 2269.78,2222.47 2271.09,2224.69
             2273.44,2228.24 2286.81,2227.00 2291.00,2227.00
             2291.00,2227.00 2293.00,2238.15 2293.00,2238.15
             2293.00,2238.15 2301.00,2238.15 2301.00,2238.15
             2305.79,2239.00 2307.30,2240.98 2312.00,2239.00
             2316.11,2241.27 2321.99,2241.85 2323.84,2246.13
             2325.96,2251.05 2321.83,2252.45 2321.57,2256.00
             2321.57,2256.00 2322.92,2262.09 2322.92,2262.09
             2324.15,2269.65 2323.74,2274.93 2330.00,2280.00
             2328.95,2284.80 2329.31,2285.46 2331.00,2290.00
             2322.39,2285.13 2325.24,2276.54 2313.00,2279.00
             2309.83,2270.67 2308.74,2268.24 2299.00,2267.00
             2299.00,2267.00 2299.00,2259.00 2299.00,2259.00
             2299.00,2259.00 2281.00,2266.70 2281.00,2266.70
             2277.50,2268.18 2273.03,2268.97 2270.04,2270.87
             2262.60,2275.61 2265.12,2278.86 2255.00,2283.00
             2255.00,2283.00 2266.00,2287.00 2266.00,2287.00
             2266.31,2290.76 2268.81,2303.90 2271.43,2306.10
             2277.11,2310.88 2285.99,2307.84 2293.00,2316.00
             2279.81,2317.07 2282.60,2318.96 2275.00,2323.00
             2275.00,2323.00 2275.00,2316.00 2275.00,2316.00
             2258.78,2313.80 2261.95,2306.59 2250.00,2310.00
             2249.03,2304.56 2245.72,2305.06 2241.00,2305.00
             2241.01,2312.76 2241.19,2310.93 2242.63,2318.00
             2243.78,2323.63 2243.29,2326.03 2249.00,2329.00
             2249.49,2335.73 2250.56,2334.06 2253.50,2339.04
             2253.50,2339.04 2256.59,2345.91 2256.59,2345.91
             2258.21,2348.21 2263.54,2352.11 2266.00,2354.00
             2266.00,2354.00 2265.31,2359.91 2265.31,2359.91
             2265.31,2359.91 2273.00,2376.00 2273.00,2376.00
             2264.61,2383.58 2271.69,2387.99 2275.00,2395.00
             2275.00,2395.00 2269.00,2395.00 2269.00,2395.00
             2267.35,2388.42 2258.53,2375.74 2252.00,2373.59
             2248.15,2372.32 2241.35,2374.77 2238.55,2377.53
             2233.97,2382.05 2233.93,2392.47 2231.00,2397.00
             2231.00,2397.00 2230.16,2388.28 2230.16,2388.28
             2230.16,2388.28 2219.21,2372.74 2219.21,2372.74
             2219.21,2372.74 2213.58,2365.91 2213.58,2365.91
             2213.58,2365.91 2213.00,2359.00 2213.00,2359.00
             2205.42,2359.00 2192.53,2359.29 2190.52,2369.00
             2190.02,2371.43 2191.50,2379.23 2192.00,2382.00
             2192.00,2382.00 2181.60,2380.93 2181.60,2380.93
             2179.38,2379.36 2180.56,2375.73 2178.99,2372.04
             2176.59,2366.36 2169.86,2365.00 2171.31,2355.00
             2172.59,2346.08 2178.31,2345.20 2178.00,2340.91
             2177.86,2338.96 2175.52,2335.33 2174.46,2333.58
             2174.46,2333.58 2166.74,2320.53 2166.74,2320.53
             2166.74,2320.53 2157.75,2312.97 2157.75,2312.97
             2155.98,2311.88 2154.70,2312.04 2152.58,2310.43
             2152.58,2310.43 2143.08,2301.06 2143.08,2301.06
             2140.91,2299.28 2135.29,2296.84 2134.72,2294.66
             2133.50,2290.01 2142.04,2286.40 2144.40,2283.48
             2145.58,2282.03 2149.70,2269.26 2150.00,2267.00
             2153.21,2267.52 2158.64,2269.79 2161.00,2269.36
             2166.15,2268.42 2174.54,2256.63 2176.00,2252.00
             2176.00,2252.00 2190.72,2254.56 2190.72,2254.56
             2190.72,2254.56 2198.00,2258.86 2198.00,2258.86
             2198.00,2258.86 2210.00,2262.00 2210.00,2262.00
             2210.00,2262.00 2210.00,2266.00 2210.00,2266.00
             2217.91,2265.83 2220.93,2263.83 2229.00,2267.11
             2233.20,2268.82 2243.12,2275.51 2245.99,2275.72
             2249.54,2275.99 2250.00,2273.32 2256.00,2272.00
             2256.07,2266.22 2260.39,2269.12 2264.96,2266.84
             2270.02,2264.32 2273.59,2259.57 2274.00,2254.00
             2274.00,2254.00 2265.00,2251.14 2265.00,2251.14
             2265.00,2251.14 2244.00,2251.14 2244.00,2251.14
             2244.00,2251.14 2244.00,2245.00 2244.00,2245.00
             2244.00,2245.00 2237.66,2243.62 2237.66,2243.62
             2237.66,2243.62 2230.96,2239.17 2230.96,2239.17
             2230.96,2239.17 2225.00,2242.00 2225.00,2242.00
             2222.10,2235.73 2218.40,2235.08 2211.90,2235.00
             2212.13,2236.53 2212.48,2237.36 2211.90,2238.94
             2210.42,2242.17 2202.43,2245.14 2199.17,2244.28
             2196.47,2243.56 2194.64,2240.16 2191.61,2240.11
             2191.61,2240.11 2179.00,2245.00 2179.00,2245.00
             2173.76,2241.67 2174.41,2246.78 2170.70,2248.35
             2169.24,2248.98 2162.96,2248.95 2161.00,2248.99
             2153.85,2249.17 2146.60,2252.63 2145.00,2243.00
             2145.00,2243.00 2132.00,2253.00 2132.00,2253.00
             2132.00,2253.00 2129.00,2235.00 2129.00,2235.00
             2129.00,2235.00 2124.00,2236.00 2124.00,2236.00
             2124.00,2236.00 2121.40,2226.34 2121.40,2226.34
             2121.40,2226.34 2112.23,2220.69 2112.23,2220.69
             2112.23,2220.69 2113.00,2213.00 2113.00,2213.00
             2113.00,2213.00 2106.00,2212.00 2106.00,2212.00
             2106.00,2212.00 2112.00,2209.00 2112.00,2209.00
             2109.44,2203.58 2108.71,2202.76 2103.00,2205.00
             2103.12,2201.56 2102.63,2200.40 2106.00,2199.00
             2100.61,2191.73 2099.72,2194.32 2095.52,2192.19
             2093.11,2190.98 2085.15,2183.23 2084.02,2181.00
             2083.00,2178.96 2083.08,2177.19 2083.00,2175.00
             2083.00,2175.00 2069.00,2175.00 2069.00,2175.00
             2069.00,2175.00 2065.39,2166.00 2065.39,2166.00
             2065.39,2166.00 2066.00,2157.00 2066.00,2157.00
             2066.00,2157.00 2059.00,2157.00 2059.00,2157.00
             2061.73,2149.86 2068.44,2144.70 2069.00,2137.00
             2081.12,2136.02 2074.83,2127.59 2069.00,2123.00
             2069.00,2123.00 2075.00,2113.00 2075.00,2113.00
             2075.00,2113.00 2091.00,2111.00 2091.00,2111.00
             2091.00,2111.00 2092.70,2093.00 2092.70,2093.00
             2092.70,2093.00 2093.25,2087.17 2093.25,2087.17
             2093.25,2087.17 2096.00,2079.00 2096.00,2079.00
             2098.19,2078.84 2099.88,2078.84 2101.87,2077.69
             2107.02,2074.69 2111.36,2063.69 2109.77,2058.01
             2108.25,2052.58 2103.45,2047.91 2106.59,2045.16
             2109.73,2042.41 2119.84,2043.46 2122.96,2042.69
             2126.63,2041.78 2127.60,2039.27 2131.04,2038.65
             2134.34,2037.70 2137.78,2039.50 2141.00,2038.65
             2143.42,2038.33 2151.61,2033.85 2153.11,2031.86
             2153.11,2031.86 2155.97,2026.54 2155.97,2026.54
             2159.26,2022.49 2164.37,2024.34 2164.00,2015.00
             2173.55,2012.03 2183.07,2013.02 2193.00,2013.00
             2207.95,2012.98 2200.52,2008.51 2213.00,2010.00
             2215.49,1999.39 2215.00,2002.12 2215.00,1991.00
             2219.84,1991.00 2236.58,1991.75 2239.98,1989.98
             2243.14,1988.33 2244.06,1986.19 2245.00,1983.00
             2256.12,1987.70 2260.50,1981.00 2278.00,1981.00
             2278.00,1981.00 2277.00,1977.00 2277.00,1977.00
             2277.00,1977.00 2290.99,1973.11 2290.99,1973.11
             2290.99,1973.11 2298.17,1967.56 2298.17,1967.56
             2298.17,1967.56 2321.00,1962.00 2321.00,1962.00
             2325.01,1968.53 2328.21,1969.21 2334.96,1971.99
             2336.81,1972.76 2340.00,1974.49 2341.96,1974.00
             2345.60,1973.09 2345.29,1968.06 2351.02,1969.52
             2353.77,1970.23 2367.84,1979.36 2372.00,1979.82
             2374.26,1980.07 2380.57,1977.55 2383.00,1976.66
             2387.70,1974.91 2389.52,1973.88 2391.00,1969.00
             2398.08,1970.59 2404.70,1972.26 2412.00,1970.12
             2421.91,1967.22 2420.09,1962.54 2430.00,1964.00
             2431.41,1953.28 2433.34,1938.92 2420.00,1935.00
             2424.20,1928.23 2430.90,1931.87 2437.00,1932.80 Z
           M 2228.00,2204.00
           C 2228.00,2204.00 2229.00,2205.00 2229.00,2205.00
             2229.00,2205.00 2229.00,2204.00 2229.00,2204.00
             2229.00,2204.00 2228.00,2204.00 2228.00,2204.00 Z" />
</svg>
