<?xml version="1.0" encoding="UTF-8" standalone="no"?>
<!DOCTYPE svg PUBLIC "-//W3C//DTD SVG 20010904//EN"
              "http://www.w3.org/TR/2001/REC-SVG-20010904/DTD/svg10.dtd">

<svg xmlns="http://www.w3.org/2000/svg"
     width="8.33229in" height="8.33229in"
     viewBox="0 0 600 600">
  <path id="Selection"
        fill="green" stroke="black" stroke-width="1"
        d="M 481.00,68.80
           C 484.84,69.38 488.30,68.93 491.11,72.39
             491.11,72.39 497.00,88.00 497.00,88.00
             491.36,92.25 485.80,99.06 479.00,101.00
             479.00,101.00 479.60,112.00 479.60,112.00
             479.60,112.00 482.72,125.00 482.72,125.00
             482.72,125.00 474.00,141.00 474.00,141.00
             466.20,138.38 466.88,137.05 458.00,137.00
             437.71,136.90 435.31,141.49 413.00,137.00
             413.00,137.00 414.00,131.00 414.00,131.00
             414.00,131.00 407.00,133.89 407.00,133.89
             407.00,133.89 398.83,139.57 398.83,139.57
             396.57,140.58 394.58,140.24 392.34,141.60
             389.36,143.42 388.14,147.53 385.13,148.15
             382.83,148.62 379.89,145.39 377.91,144.15
             373.19,141.20 370.20,140.97 365.05,143.11
             358.30,145.91 357.55,157.04 351.24,161.85
             344.94,166.67 341.32,162.83 331.00,163.00
             329.36,163.03 327.59,163.03 326.00,163.51
             324.59,163.94 323.28,164.62 322.15,165.57
             313.83,172.59 325.55,180.20 327.98,185.00
             327.98,185.00 329.84,191.72 329.84,191.72
             329.84,191.72 333.00,198.00 333.00,198.00
             326.47,200.06 322.52,201.45 322.00,209.00
             322.00,209.00 308.00,207.15 308.00,207.15
             308.00,207.15 299.72,210.76 299.72,210.76
             299.72,210.76 289.00,210.76 289.00,210.76
             289.00,210.76 289.00,206.86 289.00,206.86
             287.62,206.98 285.47,207.04 284.17,206.86
             280.37,205.76 272.76,200.59 271.00,197.00
             271.00,197.00 276.00,197.00 276.00,197.00
             273.74,191.66 270.30,185.65 265.00,183.00
             261.02,191.46 251.42,197.15 250.17,200.28
             248.92,203.39 252.16,205.47 252.48,209.00
             252.48,209.00 250.76,222.83 250.76,222.83
             249.82,228.24 248.52,228.97 251.55,234.86
             253.09,237.83 256.39,239.51 258.81,242.09
             262.57,246.10 262.65,248.69 264.87,251.37
             267.55,254.59 270.24,254.85 272.35,257.30
             275.56,261.00 275.00,266.43 275.00,271.00
             280.46,272.55 281.38,274.57 286.00,277.09
             289.55,279.02 292.02,279.27 294.86,282.63
             297.32,285.57 296.72,287.33 298.59,289.61
             298.59,289.61 303.42,293.63 303.42,293.63
             307.44,298.16 304.84,302.94 302.00,307.00
             293.44,305.76 295.98,308.80 289.20,311.00
             289.20,311.00 289.20,316.00 289.20,316.00
             289.98,318.87 293.34,323.67 290.40,325.96
             289.07,327.00 284.04,326.77 282.00,327.00
             282.00,327.00 283.00,331.00 283.00,331.00
             277.62,334.15 276.70,334.22 274.00,340.00
             276.71,341.13 276.45,341.13 277.00,344.00
             284.65,344.00 282.82,343.97 290.00,345.55
             296.11,346.89 301.60,346.56 302.00,355.00
             308.71,351.64 307.85,352.44 315.09,353.00
             314.59,355.40 313.78,358.47 315.09,360.69
             317.44,364.24 330.81,363.00 335.00,363.00
             335.00,363.00 337.00,374.15 337.00,374.15
             337.00,374.15 345.00,374.15 345.00,374.15
             349.79,375.00 351.30,376.98 356.00,375.00
             360.11,377.27 365.99,377.85 367.84,382.13
             369.96,387.05 365.83,388.45 365.57,392.00
             365.57,392.00 366.92,398.09 366.92,398.09
             368.15,405.65 367.74,410.93 374.00,416.00
             372.95,420.80 373.31,421.46 375.00,426.00
             366.39,421.13 369.24,412.54 357.00,415.00
             353.83,406.67 352.74,404.24 343.00,403.00
             343.00,403.00 343.00,395.00 343.00,395.00
             343.00,395.00 325.00,402.70 325.00,402.70
             321.50,404.18 317.03,404.97 314.04,406.87
             306.60,411.61 309.12,414.86 299.00,419.00
             299.00,419.00 310.00,423.00 310.00,423.00
             310.31,426.76 312.81,439.90 315.43,442.10
             321.11,446.88 329.99,443.84 337.00,452.00
             323.81,453.07 326.60,454.96 319.00,459.00
             319.00,459.00 319.00,452.00 319.00,452.00
             302.78,449.80 305.95,442.59 294.00,446.00
             293.03,440.56 289.72,441.06 285.00,441.00
             285.01,448.76 285.19,446.93 286.63,454.00
             287.78,459.63 287.29,462.03 293.00,465.00
             293.49,471.73 294.56,470.06 297.50,475.04
             297.50,475.04 300.59,481.91 300.59,481.91
             302.21,484.21 307.54,488.11 310.00,490.00
             310.00,490.00 309.31,495.91 309.31,495.91
             309.31,495.91 317.00,512.00 317.00,512.00
             308.61,519.58 315.69,523.99 319.00,531.00
             319.00,531.00 313.00,531.00 313.00,531.00
             311.35,524.42 302.53,511.74 296.00,509.59
             292.15,508.32 285.35,510.77 282.55,513.53
             277.97,518.05 277.93,528.47 275.00,533.00
             275.00,533.00 274.16,524.28 274.16,524.28
             274.16,524.28 263.21,508.74 263.21,508.74
             263.21,508.74 257.58,501.91 257.58,501.91
             257.58,501.91 257.00,495.00 257.00,495.00
             249.42,495.00 236.53,495.29 234.52,505.00
             234.02,507.43 235.50,515.23 236.00,518.00
             236.00,518.00 225.60,516.93 225.60,516.93
             223.38,515.36 224.56,511.73 222.99,508.04
             220.59,502.36 213.86,501.00 215.31,491.00
             216.59,482.08 222.31,481.20 222.00,476.91
             221.86,474.96 219.52,471.33 218.46,469.58
             218.46,469.58 210.74,456.53 210.74,456.53
             210.74,456.53 201.75,448.97 201.75,448.97
             199.98,447.88 198.70,448.04 196.58,446.43
             196.58,446.43 187.08,437.06 187.08,437.06
             184.91,435.28 179.29,432.84 178.72,430.66
             177.50,426.01 186.04,422.40 188.40,419.48
             189.58,418.03 193.70,405.26 194.00,403.00
             197.21,403.52 202.64,405.79 205.00,405.36
             210.15,404.42 218.54,392.63 220.00,388.00
             220.00,388.00 234.72,390.56 234.72,390.56
             234.72,390.56 242.00,394.86 242.00,394.86
             242.00,394.86 254.00,398.00 254.00,398.00
             254.00,398.00 254.00,402.00 254.00,402.00
             261.91,401.83 264.93,399.83 273.00,403.11
             277.20,404.82 287.12,411.51 289.99,411.72
             293.54,411.99 294.00,409.32 300.00,408.00
             300.07,402.22 304.39,405.12 308.96,402.84
             314.02,400.32 317.59,395.57 318.00,390.00
             318.00,390.00 309.00,387.14 309.00,387.14
             309.00,387.14 288.00,387.14 288.00,387.14
             288.00,387.14 288.00,381.00 288.00,381.00
             288.00,381.00 281.66,379.62 281.66,379.62
             281.66,379.62 274.96,375.17 274.96,375.17
             274.96,375.17 269.00,378.00 269.00,378.00
             266.10,371.73 262.40,371.08 255.90,371.00
             256.13,372.53 256.48,373.36 255.90,374.94
             254.42,378.17 246.43,381.14 243.17,380.28
             240.47,379.56 238.64,376.16 235.61,376.11
             235.61,376.11 223.00,381.00 223.00,381.00
             217.76,377.67 218.41,382.78 214.70,384.35
             213.24,384.98 206.96,384.95 205.00,384.99
             197.85,385.17 190.60,388.63 189.00,379.00
             189.00,379.00 176.00,389.00 176.00,389.00
             176.00,389.00 173.00,371.00 173.00,371.00
             173.00,371.00 168.00,372.00 168.00,372.00
             168.00,372.00 165.40,362.34 165.40,362.34
             165.40,362.34 156.23,356.69 156.23,356.69
             156.23,356.69 157.00,349.00 157.00,349.00
             157.00,349.00 150.00,348.00 150.00,348.00
             150.00,348.00 156.00,345.00 156.00,345.00
             153.44,339.58 152.71,338.76 147.00,341.00
             147.12,337.56 146.63,336.40 150.00,335.00
             144.61,327.73 143.72,330.32 139.52,328.19
             137.11,326.98 129.15,319.23 128.02,317.00
             127.00,314.96 127.08,313.19 127.00,311.00
             127.00,311.00 113.00,311.00 113.00,311.00
             113.00,311.00 109.39,302.00 109.39,302.00
             109.39,302.00 110.00,293.00 110.00,293.00
             110.00,293.00 103.00,293.00 103.00,293.00
             105.73,285.86 112.44,280.70 113.00,273.00
             125.12,272.02 118.83,263.59 113.00,259.00
             113.00,259.00 119.00,249.00 119.00,249.00
             119.00,249.00 135.00,247.00 135.00,247.00
             135.00,247.00 136.70,229.00 136.70,229.00
             136.70,229.00 137.25,223.17 137.25,223.17
             137.25,223.17 140.00,215.00 140.00,215.00
             142.19,214.84 143.88,214.84 145.87,213.69
             151.02,210.69 155.36,199.69 153.77,194.01
             152.25,188.58 147.45,183.91 150.59,181.16
             153.73,178.41 163.84,179.46 166.96,178.69
             170.63,177.78 171.60,175.27 175.04,174.65
             178.34,173.70 181.78,175.50 185.00,174.65
             187.42,174.33 195.61,169.85 197.11,167.86
             197.11,167.86 199.97,162.54 199.97,162.54
             203.26,158.49 208.37,160.34 208.00,151.00
             217.55,148.03 227.07,149.02 237.00,149.00
             251.95,148.98 244.52,144.51 257.00,146.00
             259.49,135.39 259.00,138.12 259.00,127.00
             263.84,127.00 280.58,127.75 283.98,125.98
             287.14,124.33 288.06,122.19 289.00,119.00
             300.12,123.70 304.50,117.00 322.00,117.00
             322.00,117.00 321.00,113.00 321.00,113.00
             321.00,113.00 334.99,109.11 334.99,109.11
             334.99,109.11 342.17,103.56 342.17,103.56
             342.17,103.56 365.00,98.00 365.00,98.00
             369.01,104.53 372.21,105.21 378.96,107.99
             380.81,108.76 384.00,110.49 385.96,110.00
             389.60,109.09 389.29,104.06 395.02,105.52
             397.77,106.23 411.84,115.36 416.00,115.82
             418.26,116.07 424.57,113.55 427.00,112.66
             431.70,110.91 433.52,109.88 435.00,105.00
             442.08,106.59 448.70,108.26 456.00,106.12
             465.91,103.22 464.09,98.54 474.00,100.00
             475.41,89.28 477.34,74.92 464.00,71.00
             468.20,64.23 474.90,67.87 481.00,68.80 Z
           M 272.00,340.00
           C 272.00,340.00 273.00,341.00 273.00,341.00
             273.00,341.00 273.00,340.00 273.00,340.00
             273.00,340.00 272.00,340.00 272.00,340.00 Z" />
</svg>
