<?xml version="1.0" encoding="UTF-8" standalone="no"?>
<!DOCTYPE svg PUBLIC "-//W3C//DTD SVG 20010904//EN"
              "http://www.w3.org/TR/2001/REC-SVG-20010904/DTD/svg10.dtd">

<svg xmlns="http://www.w3.org/2000/svg"
     width="6.94358in" height="5.55486in"
     viewBox="0 0 500 400">
  <path id="Selection"
        fill="green" stroke="black" stroke-width="1"
        d="M 253.00,57.00
           C 253.38,59.84 253.92,68.87 255.60,70.56
             257.94,72.92 260.71,70.87 264.99,71.07
             270.33,71.33 271.64,75.04 274.62,73.75
             278.70,71.99 279.95,62.86 280.00,59.00
             280.00,59.00 301.00,53.33 301.00,53.33
             309.16,53.13 318.31,64.28 327.69,55.24
             329.36,53.62 329.34,53.04 330.00,51.00
             330.00,51.00 336.00,45.00 336.00,45.00
             339.46,46.24 342.19,47.97 346.00,47.49
             348.98,47.11 351.97,45.37 354.96,45.97
             358.86,46.74 360.98,50.73 365.00,51.87
             367.42,52.16 369.56,51.03 371.59,51.87
             373.97,53.39 374.14,56.71 379.32,60.63
             385.56,65.36 398.21,68.91 406.00,69.00
             403.80,73.19 402.07,76.38 400.72,81.00
             398.16,89.74 398.38,103.88 388.00,107.00
             388.00,107.00 388.00,123.00 388.00,123.00
             378.50,124.36 383.63,129.55 386.10,129.95
             388.39,130.31 393.80,127.95 396.00,127.00
             397.89,130.81 398.91,133.14 402.44,135.81
             409.24,140.96 416.60,141.00 418.00,151.00
             420.74,151.00 428.47,150.53 430.48,152.02
             434.26,154.82 429.88,166.81 426.85,169.13
             422.49,172.46 407.65,174.98 402.00,175.00
             400.76,181.99 399.66,187.14 395.11,192.78
             392.67,195.80 389.92,196.06 388.60,199.19
             386.05,205.20 391.69,210.87 382.00,213.00
             382.00,223.23 385.12,236.49 372.00,239.00
             372.00,239.00 374.00,245.00 374.00,245.00
             374.00,245.00 374.00,247.00 374.00,247.00
             374.00,247.00 370.00,257.00 370.00,257.00
             361.88,260.27 362.17,267.15 362.00,275.00
             362.00,275.00 356.00,275.00 356.00,275.00
             356.00,275.00 350.00,305.00 350.00,305.00
             339.68,305.01 327.01,307.43 324.00,318.95
             314.62,315.04 314.73,318.18 307.00,318.95
             300.46,319.50 297.08,317.81 295.01,317.96
             292.22,318.16 290.89,319.98 288.72,320.15
             286.40,320.84 284.60,319.56 282.00,320.15
             282.00,320.15 276.00,321.88 276.00,321.88
             271.69,322.35 268.51,316.62 260.04,320.13
             254.13,322.58 254.73,325.64 252.28,328.45
             249.59,331.53 248.41,330.56 246.00,335.00
             242.72,335.00 238.00,334.70 235.00,335.84
             230.94,337.38 228.00,341.06 222.00,343.05
             216.16,344.98 214.29,342.18 211.55,343.82
             211.55,343.82 207.63,348.65 207.63,348.65
             204.77,351.85 199.01,357.30 195.00,358.49
             188.69,360.37 180.98,356.30 174.00,356.34
             169.03,356.37 166.19,358.68 164.09,358.18
             162.50,357.80 161.34,355.99 159.74,355.08
             157.13,353.82 154.72,354.54 152.00,355.08
             151.27,344.75 142.85,341.27 134.00,345.00
             129.64,338.46 126.23,335.22 126.00,327.00
             115.04,326.96 106.32,323.31 106.00,311.00
             91.94,310.82 98.87,303.34 84.00,299.00
             83.77,291.69 82.20,284.33 74.00,283.00
             74.00,283.00 75.27,275.00 75.27,275.00
             75.27,275.00 68.00,265.00 68.00,265.00
             68.00,265.00 84.00,265.00 84.00,265.00
             84.00,265.00 82.68,257.72 82.68,257.72
             82.68,257.72 84.30,250.00 84.30,250.00
             84.30,250.00 82.00,242.00 82.00,242.00
             85.24,237.71 83.36,235.77 82.00,231.00
             87.47,229.96 93.73,225.64 95.15,219.91
             96.14,215.96 92.38,208.30 88.90,206.31
             86.88,205.16 85.22,205.16 83.00,205.00
             83.00,205.00 85.00,201.00 85.00,201.00
             85.00,201.00 99.58,207.81 99.58,207.81
             99.58,207.81 114.00,205.00 114.00,205.00
             114.00,191.64 115.12,195.91 115.80,189.00
             116.65,180.48 111.53,176.21 122.00,169.00
             120.26,168.34 108.78,162.41 107.98,161.42
             106.65,159.78 106.37,156.18 105.82,154.09
             104.61,149.44 101.53,145.18 102.16,140.01
             102.65,136.02 104.72,135.67 106.04,130.96
             107.66,125.17 108.74,114.15 115.09,111.60
             116.96,110.85 120.89,110.99 123.00,111.00
             131.48,111.05 132.35,113.63 137.00,111.72
             139.99,110.50 152.41,101.32 155.00,98.94
             160.03,94.32 162.03,90.73 169.00,89.00
             168.34,83.52 169.08,76.91 172.82,72.47
             174.75,70.17 177.54,69.53 181.82,64.96
             185.30,61.25 189.31,55.37 192.00,51.00
             192.00,51.00 206.00,51.00 206.00,51.00
             206.14,52.67 206.08,54.16 207.02,55.66
             209.62,59.79 220.18,60.11 223.79,57.40
             227.23,54.83 227.78,50.94 228.00,47.00
             232.41,46.42 234.60,45.93 237.00,42.00
             243.54,48.95 240.23,55.64 253.00,57.00 Z" />
</svg>
