<?xml version="1.0" encoding="UTF-8" standalone="no"?>
<!DOCTYPE svg PUBLIC "-//W3C//DTD SVG 20010904//EN"
              "http://www.w3.org/TR/2001/REC-SVG-20010904/DTD/svg10.dtd">

<svg xmlns="http://www.w3.org/2000/svg"
     width="5.55486in" height="5.55486in"
     viewBox="0 0 400 400">
  <path id="Selection#1"
        fill="green" stroke="black" stroke-width="1"
        d="M 203.00,57.00
           C 203.38,59.84 203.92,68.87 205.60,70.56
             207.94,72.92 210.71,70.87 214.99,71.07
             220.33,71.33 221.64,75.04 224.62,73.75
             228.70,71.99 229.95,62.86 230.00,59.00
             230.00,59.00 251.00,53.33 251.00,53.33
             259.16,53.13 268.31,64.28 277.69,55.24
             279.36,53.62 279.34,53.04 280.00,51.00
             280.00,51.00 286.00,45.00 286.00,45.00
             289.46,46.24 292.19,47.97 296.00,47.49
             298.98,47.11 301.97,45.37 304.96,45.97
             308.86,46.74 310.98,50.73 315.00,51.87
             317.42,52.16 319.56,51.03 321.59,51.87
             323.97,53.39 324.14,56.71 329.32,60.63
             335.56,65.36 348.21,68.91 356.00,69.00
             353.80,73.19 352.07,76.38 350.72,81.00
             348.16,89.74 348.38,103.88 338.00,107.00
             338.00,107.00 338.00,123.00 338.00,123.00
             328.50,124.36 333.63,129.55 336.10,129.95
             338.39,130.31 343.80,127.95 346.00,127.00
             347.89,130.81 348.91,133.14 352.44,135.81
             359.24,140.96 366.60,141.00 368.00,151.00
             370.74,151.00 378.47,150.53 380.48,152.02
             384.26,154.82 379.88,166.81 376.85,169.13
             372.49,172.46 357.65,174.98 352.00,175.00
             350.76,181.99 349.66,187.14 345.11,192.78
             342.67,195.80 339.92,196.06 338.60,199.19
             336.05,205.20 341.69,210.87 332.00,213.00
             332.00,223.23 335.12,236.49 322.00,239.00
             322.00,239.00 324.00,245.00 324.00,245.00
             324.00,245.00 324.00,247.00 324.00,247.00
             324.00,247.00 320.00,257.00 320.00,257.00
             311.88,260.27 312.17,267.15 312.00,275.00
             312.00,275.00 306.00,275.00 306.00,275.00
             306.00,275.00 300.00,305.00 300.00,305.00
             289.68,305.01 277.01,307.43 274.00,318.95
             264.62,315.04 264.73,318.18 257.00,318.95
             250.46,319.50 247.08,317.81 245.01,317.96
             242.22,318.16 240.89,319.98 238.72,320.15
             236.40,320.84 234.60,319.56 232.00,320.15
             232.00,320.15 226.00,321.88 226.00,321.88
             221.69,322.35 218.51,316.62 210.04,320.13
             204.13,322.58 204.73,325.64 202.28,328.45
             199.59,331.53 198.41,330.56 196.00,335.00
             192.72,335.00 188.00,334.70 185.00,335.84
             180.94,337.38 178.00,341.06 172.00,343.05
             166.16,344.98 164.29,342.18 161.55,343.82
             161.55,343.82 157.63,348.65 157.63,348.65
             154.77,351.85 149.01,357.30 145.00,358.49
             138.69,360.37 130.98,356.30 124.00,356.34
             119.03,356.37 116.19,358.68 114.09,358.18
             112.50,357.80 111.34,355.99 109.74,355.08
             107.13,353.82 104.72,354.54 102.00,355.08
             101.27,344.75 92.85,341.27 84.00,345.00
             79.64,338.46 76.23,335.22 76.00,327.00
             65.04,326.96 56.32,323.31 56.00,311.00
             41.94,310.82 48.87,303.34 34.00,299.00
             33.77,291.69 32.20,284.33 24.00,283.00
             24.00,283.00 25.27,275.00 25.27,275.00
             25.27,275.00 18.00,265.00 18.00,265.00
             18.00,265.00 34.00,265.00 34.00,265.00
             34.00,265.00 32.68,257.72 32.68,257.72
             32.68,257.72 34.30,250.00 34.30,250.00
             34.30,250.00 32.00,242.00 32.00,242.00
             35.24,237.71 33.36,235.77 32.00,231.00
             37.47,229.96 43.73,225.64 45.15,219.91
             46.14,215.96 42.38,208.30 38.90,206.31
             36.88,205.16 35.22,205.16 33.00,205.00
             33.00,205.00 35.00,201.00 35.00,201.00
             35.00,201.00 49.58,207.81 49.58,207.81
             49.58,207.81 64.00,205.00 64.00,205.00
             64.00,191.64 65.12,195.91 65.80,189.00
             66.65,180.48 61.53,176.21 72.00,169.00
             70.26,168.34 58.78,162.41 57.98,161.42
             56.65,159.78 56.37,156.18 55.82,154.09
             54.61,149.44 51.53,145.18 52.16,140.01
             52.65,136.02 54.72,135.67 56.04,130.96
             57.66,125.17 58.74,114.15 65.09,111.60
             66.96,110.85 70.89,110.99 73.00,111.00
             81.48,111.05 82.35,113.63 87.00,111.72
             89.99,110.50 102.41,101.32 105.00,98.94
             110.03,94.32 112.03,90.73 119.00,89.00
             118.34,83.52 119.08,76.91 122.82,72.47
             124.75,70.17 127.54,69.53 131.82,64.96
             135.30,61.25 139.31,55.37 142.00,51.00
             142.00,51.00 156.00,51.00 156.00,51.00
             156.14,52.67 156.08,54.16 157.02,55.66
             159.62,59.79 170.18,60.11 173.79,57.40
             177.23,54.83 177.78,50.94 178.00,47.00
             182.41,46.42 184.60,45.93 187.00,42.00
             193.54,48.95 190.23,55.64 203.00,57.00 Z" />
</svg>
