<?xml version="1.0" encoding="UTF-8" standalone="no"?>
<!DOCTYPE svg PUBLIC "-//W3C//DTD SVG 20010904//EN"
              "http://www.w3.org/TR/2001/REC-SVG-20010904/DTD/svg10.dtd">

<svg xmlns="http://www.w3.org/2000/svg"
     width="43.6334in" height="36.3288in"
     viewBox="0 0 3142 2616">
  <path id="Romania"
        fill="Green" stroke="black" stroke-width="1"
        d="M 2427.00,1359.00
           C 2429.21,1366.25 2435.05,1364.49 2441.00,1367.00
             2441.00,1367.00 2440.00,1373.00 2440.00,1373.00
             2440.00,1373.00 2455.00,1371.00 2455.00,1371.00
             2455.34,1377.26 2463.59,1379.97 2469.00,1381.00
             2469.43,1379.33 2469.59,1377.89 2470.89,1376.57
             2473.95,1373.46 2481.83,1375.54 2484.96,1377.70
             2488.75,1380.31 2490.34,1384.16 2495.00,1385.99
             2499.29,1387.67 2502.18,1385.74 2506.00,1384.00
             2508.84,1393.14 2510.93,1402.38 2511.00,1412.00
             2511.02,1414.40 2510.90,1416.79 2512.02,1419.00
             2514.94,1424.77 2530.62,1434.11 2537.00,1435.00
             2537.00,1438.14 2536.62,1445.07 2537.85,1447.68
             2537.85,1447.68 2542.03,1453.18 2542.03,1453.18
             2543.72,1456.27 2542.74,1458.33 2546.23,1460.66
             2548.78,1462.37 2557.78,1465.92 2561.00,1467.00
             2563.11,1467.71 2567.65,1468.87 2568.88,1470.58
             2573.03,1475.74 2567.10,1483.23 2568.88,1487.91
             2569.66,1490.36 2576.82,1496.87 2579.17,1498.17
             2579.17,1498.17 2586.00,1500.42 2586.00,1500.42
             2586.00,1500.42 2593.00,1504.00 2593.00,1504.00
             2593.00,1504.00 2592.00,1501.00 2592.00,1501.00
             2592.00,1501.00 2602.00,1508.00 2602.00,1508.00
             2602.00,1508.00 2599.00,1509.00 2599.00,1509.00
             2600.97,1509.69 2601.99,1509.88 2603.59,1511.42
             2613.16,1520.69 2602.79,1529.56 2601.00,1539.00
             2594.62,1540.06 2595.17,1542.53 2590.90,1546.83
             2586.57,1551.20 2578.68,1559.48 2576.20,1565.09
             2576.20,1565.09 2574.76,1571.00 2574.76,1571.00
             2574.22,1573.06 2573.35,1574.77 2573.58,1577.00
             2574.20,1583.17 2578.87,1581.55 2581.00,1588.00
             2581.00,1588.00 2580.00,1588.00 2580.00,1588.00
             2580.00,1588.00 2578.00,1586.00 2578.00,1586.00
             2580.13,1594.45 2580.78,1599.57 2578.00,1608.00
             2578.00,1608.00 2580.41,1609.59 2580.41,1609.59
             2580.41,1609.59 2581.00,1631.00 2581.00,1631.00
             2572.99,1632.02 2565.03,1639.14 2557.00,1636.00
             2557.00,1636.00 2552.00,1640.00 2552.00,1640.00
             2551.47,1644.79 2545.83,1649.44 2543.37,1654.09
             2540.42,1659.69 2534.56,1678.56 2533.37,1685.00
             2532.89,1687.61 2534.94,1701.34 2535.75,1704.00
             2536.69,1707.08 2538.40,1709.55 2538.77,1713.00
             2539.07,1715.70 2535.99,1729.82 2535.00,1732.87
             2535.00,1732.87 2522.00,1732.87 2522.00,1732.87
             2522.00,1732.87 2506.00,1729.00 2506.00,1729.00
             2506.00,1729.00 2503.00,1717.00 2503.00,1717.00
             2492.43,1717.13 2496.50,1719.58 2488.00,1723.00
             2488.00,1723.00 2487.00,1717.00 2487.00,1717.00
             2487.00,1717.00 2469.00,1718.87 2469.00,1718.87
             2464.17,1718.28 2461.04,1714.92 2456.00,1713.61
             2452.74,1712.76 2444.69,1713.74 2441.00,1714.17
             2428.82,1715.60 2433.84,1721.83 2421.00,1722.00
             2421.00,1722.00 2421.00,1725.00 2421.00,1725.00
             2421.00,1725.00 2403.00,1729.84 2403.00,1729.84
             2400.48,1730.82 2389.24,1737.35 2387.52,1739.21
             2387.52,1739.21 2375.76,1756.00 2375.76,1756.00
             2375.76,1756.00 2372.11,1762.57 2372.11,1762.57
             2372.11,1762.57 2359.72,1770.43 2359.72,1770.43
             2352.52,1773.36 2342.63,1769.01 2335.00,1769.09
             2335.00,1769.09 2322.00,1769.09 2322.00,1769.09
             2317.44,1769.73 2316.92,1770.84 2311.00,1770.99
             2301.24,1771.22 2300.67,1768.26 2296.00,1769.86
             2292.82,1770.95 2283.13,1778.26 2278.00,1778.61
             2278.00,1778.61 2264.00,1775.59 2264.00,1775.59
             2256.82,1773.86 2244.06,1771.01 2237.00,1771.00
             2237.00,1771.00 2227.00,1771.00 2227.00,1771.00
             2218.70,1771.14 2215.43,1774.59 2208.00,1776.40
             2204.54,1777.25 2199.66,1777.00 2196.00,1777.00
             2196.11,1774.73 2196.11,1772.35 2197.29,1770.32
             2199.92,1765.79 2208.57,1763.98 2206.47,1757.18
             2205.88,1755.26 2204.61,1754.19 2202.81,1753.42
             2202.81,1753.42 2199.00,1752.22 2199.00,1752.22
             2199.00,1752.22 2193.00,1752.22 2193.00,1752.22
             2188.35,1743.79 2183.35,1749.78 2183.00,1739.00
             2174.50,1738.89 2176.24,1737.89 2170.00,1730.00
             2179.83,1722.28 2175.16,1726.84 2180.95,1724.15
             2185.03,1722.25 2186.14,1718.00 2182.69,1714.84
             2176.67,1709.33 2168.68,1713.14 2167.00,1703.00
             2155.81,1705.13 2149.55,1713.84 2146.00,1724.00
             2146.00,1724.00 2140.02,1720.73 2140.02,1720.73
             2140.02,1720.73 2136.69,1714.02 2136.69,1714.02
             2136.69,1714.02 2130.00,1712.79 2130.00,1712.79
             2130.00,1712.79 2115.00,1711.00 2115.00,1711.00
             2112.64,1703.14 2108.99,1704.48 2103.00,1702.00
             2104.61,1701.40 2107.09,1700.70 2108.26,1699.42
             2113.64,1693.51 2104.59,1689.49 2100.00,1689.00
             2101.75,1685.80 2106.93,1680.07 2106.36,1676.96
             2104.93,1669.10 2095.08,1668.43 2089.17,1666.73
             2086.43,1665.94 2084.48,1663.76 2081.99,1662.43
             2081.99,1662.43 2061.05,1653.00 2061.05,1653.00
             2064.00,1644.63 2061.81,1647.61 2061.05,1640.00
             2060.34,1631.81 2062.45,1625.16 2051.00,1626.00
             2050.35,1621.59 2049.95,1621.72 2047.07,1618.49
             2047.07,1618.49 2043.55,1614.58 2043.55,1614.58
             2038.10,1610.24 2033.96,1614.90 2030.00,1604.00
             2030.00,1604.00 2047.91,1599.72 2047.91,1599.72
             2047.91,1599.72 2055.43,1591.02 2055.43,1591.02
             2055.43,1591.02 2064.00,1589.83 2064.00,1589.83
             2064.00,1589.83 2077.00,1587.00 2077.00,1587.00
             2077.00,1587.00 2078.00,1575.00 2078.00,1575.00
             2078.00,1575.00 2083.00,1577.00 2083.00,1577.00
             2083.00,1577.00 2083.99,1559.42 2083.99,1559.42
             2083.99,1559.42 2094.78,1547.68 2094.78,1547.68
             2094.78,1547.68 2093.97,1540.09 2093.97,1540.09
             2093.97,1540.09 2100.04,1527.00 2100.04,1527.00
             2100.04,1527.00 2102.02,1519.43 2102.02,1519.43
             2102.02,1519.43 2107.00,1517.00 2107.00,1517.00
             2107.04,1505.82 2109.02,1510.01 2110.61,1503.00
             2110.61,1503.00 2111.60,1494.10 2111.60,1494.10
             2112.79,1491.10 2115.24,1490.53 2116.40,1487.79
             2117.36,1485.55 2116.50,1481.91 2119.62,1475.42
             2122.88,1468.66 2125.93,1468.25 2128.00,1460.00
             2135.65,1458.73 2134.19,1457.10 2138.28,1455.55
             2141.70,1454.26 2143.84,1456.07 2148.96,1451.79
             2154.30,1447.33 2157.02,1441.70 2160.04,1438.83
             2165.76,1433.40 2170.21,1437.33 2172.00,1425.00
             2175.13,1425.10 2176.91,1425.02 2179.68,1426.80
             2182.62,1428.69 2184.08,1431.63 2188.01,1431.79
             2188.01,1431.79 2194.00,1431.03 2194.00,1431.03
             2194.00,1431.03 2211.00,1431.03 2211.00,1431.03
             2211.00,1431.03 2229.00,1431.68 2229.00,1431.68
             2229.00,1431.68 2239.00,1430.27 2239.00,1430.27
             2242.44,1429.28 2245.29,1427.21 2249.00,1427.85
             2259.69,1429.72 2267.99,1443.41 2276.00,1442.69
             2282.90,1442.07 2287.48,1438.98 2290.74,1433.00
             2292.40,1429.95 2294.46,1423.72 2297.26,1422.10
             2300.04,1420.50 2306.21,1421.56 2311.00,1420.29
             2322.54,1417.21 2332.81,1411.05 2345.00,1411.00
             2345.00,1411.00 2346.00,1403.00 2346.00,1403.00
             2346.00,1403.00 2351.00,1403.00 2351.00,1403.00
             2351.00,1403.00 2351.00,1391.00 2351.00,1391.00
             2351.00,1391.00 2373.00,1380.00 2373.00,1380.00
             2373.00,1380.00 2372.00,1377.00 2372.00,1377.00
             2376.35,1374.80 2383.36,1370.75 2388.00,1369.51
             2394.33,1367.81 2400.10,1373.93 2401.00,1363.00
             2401.00,1363.00 2411.00,1362.00 2411.00,1362.00
             2411.00,1362.00 2410.00,1360.00 2410.00,1360.00
             2410.00,1360.00 2427.00,1359.00 2427.00,1359.00 Z
           M 2390.00,1385.00
           C 2390.00,1385.00 2391.00,1386.00 2391.00,1386.00
             2391.00,1386.00 2391.00,1385.00 2391.00,1385.00
             2391.00,1385.00 2390.00,1385.00 2390.00,1385.00 Z
           M 2577.00,1585.00
           C 2577.00,1585.00 2578.00,1586.00 2578.00,1586.00
             2578.00,1586.00 2578.00,1585.00 2578.00,1585.00
             2578.00,1585.00 2577.00,1585.00 2577.00,1585.00 Z
           M 2556.00,1633.00
           C 2556.00,1633.00 2557.00,1634.00 2557.00,1634.00
             2557.00,1634.00 2557.00,1633.00 2557.00,1633.00
             2557.00,1633.00 2556.00,1633.00 2556.00,1633.00 Z" />
</svg>
