<?xml version="1.0" encoding="UTF-8" standalone="no"?>
<!DOCTYPE svg PUBLIC "-//W3C//DTD SVG 20010904//EN"
              "http://www.w3.org/TR/2001/REC-SVG-20010904/DTD/svg10.dtd">

<svg xmlns="http://www.w3.org/2000/svg"
     width="8.33229in" height="8.33229in"
     viewBox="0 0 600 600">
  <path id="Selection"
        fill="none" stroke="black" stroke-width="1"
        d="M 408.00,90.00
           C 410.21,97.25 416.05,95.49 422.00,98.00
             422.00,98.00 421.00,104.00 421.00,104.00
             421.00,104.00 436.00,102.00 436.00,102.00
             436.34,108.26 444.59,110.97 450.00,112.00
             450.43,110.33 450.59,108.89 451.89,107.57
             454.95,104.46 462.83,106.54 465.96,108.70
             469.75,111.31 471.34,115.16 476.00,116.99
             480.29,118.67 483.18,116.74 487.00,115.00
             489.84,124.14 491.93,133.38 492.00,143.00
             492.02,145.40 491.90,147.79 493.02,150.00
             495.94,155.77 511.62,165.11 518.00,166.00
             518.00,169.14 517.62,176.07 518.85,178.68
             518.85,178.68 523.03,184.18 523.03,184.18
             524.72,187.27 523.74,189.33 527.23,191.66
             529.78,193.37 538.78,196.92 542.00,198.00
             544.11,198.71 548.65,199.87 549.88,201.58
             554.03,206.74 548.10,214.23 549.88,218.91
             550.66,221.36 557.82,227.87 560.17,229.17
             560.17,229.17 567.00,231.42 567.00,231.42
             567.00,231.42 574.00,235.00 574.00,235.00
             574.00,235.00 573.00,232.00 573.00,232.00
             573.00,232.00 583.00,239.00 583.00,239.00
             583.00,239.00 580.00,240.00 580.00,240.00
             581.97,240.69 582.99,240.88 584.59,242.42
             594.16,251.69 583.79,260.56 582.00,270.00
             575.61,271.06 576.06,273.46 571.82,277.72
             567.22,282.34 559.87,290.05 557.20,296.09
             557.20,296.09 555.76,302.00 555.76,302.00
             555.22,304.06 554.35,305.77 554.58,308.00
             555.20,314.17 559.87,312.55 562.00,319.00
             562.00,319.00 561.00,319.00 561.00,319.00
             561.00,319.00 559.00,317.00 559.00,317.00
             561.33,326.23 561.63,329.86 559.00,339.00
             559.00,339.00 561.41,340.59 561.41,340.59
             561.41,340.59 562.00,362.00 562.00,362.00
             553.99,363.02 546.03,370.14 538.00,367.00
             538.00,367.00 533.00,371.00 533.00,371.00
             532.47,375.79 526.83,380.44 524.37,385.09
             521.42,390.69 515.56,409.56 514.37,416.00
             513.89,418.61 515.94,432.34 516.75,435.00
             517.69,438.08 519.40,440.55 519.77,444.00
             520.07,446.70 516.99,460.82 516.00,463.87
             516.00,463.87 503.00,463.87 503.00,463.87
             503.00,463.87 487.00,460.00 487.00,460.00
             487.00,460.00 484.00,448.00 484.00,448.00
             473.43,448.13 477.50,450.58 469.00,454.00
             469.00,454.00 468.00,448.00 468.00,448.00
             468.00,448.00 450.00,449.87 450.00,449.87
             445.17,449.28 442.04,445.92 437.00,444.61
             433.74,443.76 425.69,444.74 422.00,445.17
             409.82,446.60 414.84,452.83 402.00,453.00
             402.00,453.00 402.00,456.00 402.00,456.00
             402.00,456.00 384.00,460.84 384.00,460.84
             381.48,461.82 370.24,468.35 368.52,470.21
             368.52,470.21 356.76,487.00 356.76,487.00
             356.76,487.00 353.11,493.57 353.11,493.57
             353.11,493.57 340.72,501.43 340.72,501.43
             333.52,504.36 323.63,500.01 316.00,500.09
             316.00,500.09 303.00,500.09 303.00,500.09
             298.44,500.73 297.92,501.84 292.00,501.99
             282.24,502.22 281.67,499.26 277.00,500.86
             273.82,501.95 264.13,509.26 259.00,509.61
             259.00,509.61 245.00,506.59 245.00,506.59
             237.82,504.86 225.06,502.01 218.00,502.00
             218.00,502.00 208.00,502.00 208.00,502.00
             199.70,502.14 196.43,505.59 189.00,507.40
             185.54,508.25 180.66,508.00 177.00,508.00
             177.11,505.73 177.11,503.35 178.29,501.32
             180.92,496.79 189.57,494.98 187.47,488.18
             186.88,486.26 185.61,485.19 183.81,484.42
             183.81,484.42 180.00,483.22 180.00,483.22
             180.00,483.22 174.00,483.22 174.00,483.22
             169.35,474.79 164.35,480.78 164.00,470.00
             155.50,469.89 157.24,468.89 151.00,461.00
             160.83,453.28 156.16,457.84 161.95,455.15
             166.03,453.25 167.14,449.00 163.69,445.84
             157.67,440.33 149.68,444.14 148.00,434.00
             136.81,436.13 130.55,444.84 127.00,455.00
             127.00,455.00 121.02,451.73 121.02,451.73
             121.02,451.73 117.69,445.02 117.69,445.02
             117.69,445.02 111.00,443.79 111.00,443.79
             111.00,443.79 96.00,442.00 96.00,442.00
             93.64,434.14 89.99,435.48 84.00,433.00
             85.61,432.40 88.09,431.70 89.26,430.42
             94.64,424.51 85.59,420.49 81.00,420.00
             82.75,416.80 87.93,411.07 87.36,407.96
             85.93,400.10 76.08,399.43 70.17,397.73
             67.43,396.94 65.48,394.76 62.99,393.43
             62.99,393.43 42.05,384.00 42.05,384.00
             45.00,375.63 42.81,378.61 42.05,371.00
             41.34,362.81 43.45,356.16 32.00,357.00
             31.35,352.59 30.95,352.72 28.07,349.49
             28.07,349.49 24.55,345.58 24.55,345.58
             19.10,341.24 14.96,345.90 11.00,335.00
             11.00,335.00 28.91,330.72 28.91,330.72
             28.91,330.72 36.43,322.02 36.43,322.02
             36.43,322.02 45.00,320.83 45.00,320.83
             45.00,320.83 58.00,318.00 58.00,318.00
             58.00,318.00 59.00,306.00 59.00,306.00
             59.00,306.00 64.00,308.00 64.00,308.00
             64.00,308.00 64.99,290.42 64.99,290.42
             64.99,290.42 75.78,278.68 75.78,278.68
             75.78,278.68 74.97,271.09 74.97,271.09
             74.97,271.09 81.04,258.00 81.04,258.00
             81.04,258.00 83.02,250.43 83.02,250.43
             83.02,250.43 88.00,248.00 88.00,248.00
             88.04,236.82 90.02,241.01 91.61,234.00
             91.61,234.00 92.60,225.10 92.60,225.10
             93.79,222.10 96.24,221.53 97.40,218.79
             98.36,216.55 97.50,212.91 100.62,206.42
             103.88,199.66 106.93,199.25 109.00,191.00
             116.65,189.73 115.19,188.10 119.28,186.55
             122.70,185.26 124.84,187.07 129.96,182.79
             135.30,178.33 138.02,172.70 141.04,169.83
             146.76,164.40 151.21,168.33 153.00,156.00
             156.13,156.10 157.91,156.02 160.68,157.80
             163.62,159.69 165.08,162.63 169.01,162.79
             169.01,162.79 175.00,162.03 175.00,162.03
             175.00,162.03 192.00,162.03 192.00,162.03
             192.00,162.03 210.00,162.68 210.00,162.68
             210.00,162.68 220.00,161.27 220.00,161.27
             223.44,160.28 226.29,158.21 230.00,158.85
             240.69,160.72 248.99,174.41 257.00,173.69
             263.90,173.07 268.48,169.98 271.74,164.00
             273.40,160.95 275.46,154.72 278.26,153.10
             281.04,151.50 287.21,152.56 292.00,151.29
             303.54,148.21 313.81,142.05 326.00,142.00
             326.00,142.00 327.00,134.00 327.00,134.00
             327.00,134.00 332.00,134.00 332.00,134.00
             332.00,134.00 332.00,122.00 332.00,122.00
             332.00,122.00 354.00,111.00 354.00,111.00
             354.00,111.00 353.00,108.00 353.00,108.00
             357.35,105.80 364.36,101.75 369.00,100.51
             375.33,98.81 381.10,104.93 382.00,94.00
             382.00,94.00 392.00,93.00 392.00,93.00
             392.00,93.00 391.00,91.00 391.00,91.00
             391.00,91.00 408.00,90.00 408.00,90.00 Z
           M 371.00,116.00
           C 371.00,116.00 372.00,117.00 372.00,117.00
             372.00,117.00 372.00,116.00 372.00,116.00
             372.00,116.00 371.00,116.00 371.00,116.00 Z
           M 558.00,316.00
           C 558.00,316.00 559.00,317.00 559.00,317.00
             559.00,317.00 559.00,316.00 559.00,316.00
             559.00,316.00 558.00,316.00 558.00,316.00 Z" />
</svg>
