<?xml version="1.0" encoding="UTF-8" standalone="no"?>
<!DOCTYPE svg PUBLIC "-//W3C//DTD SVG 20010904//EN"
              "http://www.w3.org/TR/2001/REC-SVG-20010904/DTD/svg10.dtd">

<svg xmlns="http://www.w3.org/2000/svg"
     width="43.6334in" height="36.3288in"
     viewBox="0 0 3142 2616">
  <path id="Serbia"
        fill="Green" stroke="black" stroke-width="1"
        d="M 2012.00,1603.00
           C 2012.00,1603.00 2021.00,1603.00 2021.00,1603.00
             2021.00,1603.00 2027.00,1617.00 2027.00,1617.00
             2042.29,1617.47 2041.96,1629.89 2055.00,1635.00
             2054.28,1636.99 2053.36,1638.91 2053.13,1641.04
             2052.72,1644.89 2054.80,1653.20 2057.57,1655.96
             2063.47,1661.84 2071.43,1661.31 2073.00,1671.00
             2073.00,1671.00 2081.00,1669.00 2081.00,1669.00
             2081.00,1669.00 2082.59,1672.26 2082.59,1672.26
             2082.59,1672.26 2098.00,1675.00 2098.00,1675.00
             2095.09,1686.78 2090.45,1687.29 2098.00,1696.00
             2098.00,1696.00 2088.02,1707.26 2088.02,1707.26
             2088.02,1707.26 2087.00,1711.00 2087.00,1711.00
             2087.00,1711.00 2096.09,1709.58 2096.09,1709.58
             2096.09,1709.58 2109.00,1713.00 2109.00,1713.00
             2109.00,1713.00 2109.00,1720.00 2109.00,1720.00
             2109.00,1720.00 2133.00,1720.00 2133.00,1720.00
             2133.52,1723.21 2133.76,1724.36 2136.15,1726.81
             2137.24,1727.94 2138.67,1728.98 2140.00,1729.81
             2140.98,1730.43 2142.92,1731.47 2144.00,1731.81
             2153.56,1734.78 2154.25,1718.66 2158.54,1714.49
             2160.26,1712.83 2161.81,1712.58 2164.00,1712.00
             2164.00,1712.00 2166.82,1715.42 2166.82,1715.42
             2171.01,1721.66 2161.97,1722.77 2161.57,1728.09
             2161.43,1729.98 2162.65,1732.09 2163.50,1733.71
             2166.98,1740.35 2169.20,1743.51 2177.00,1745.00
             2174.88,1749.98 2174.31,1755.46 2171.15,1759.98
             2167.61,1765.05 2164.45,1764.82 2163.31,1769.05
             2164.40,1765.00 2161.29,1785.86 2161.69,1782.96
             2161.46,1784.17 2161.51,1784.55 2161.69,1785.72
             2163.51,1792.46 2168.26,1796.18 2169.98,1799.28
             2171.52,1802.05 2170.40,1803.95 2173.27,1808.99
             2177.34,1816.11 2187.16,1820.19 2195.00,1821.00
             2196.62,1827.68 2199.10,1831.30 2206.00,1833.00
             2203.85,1839.94 2200.14,1843.61 2196.14,1849.42
             2194.37,1852.01 2192.99,1855.16 2189.91,1856.40
             2187.68,1857.29 2179.82,1857.00 2177.00,1857.00
             2177.00,1857.00 2177.00,1879.00 2177.00,1879.00
             2177.00,1881.82 2176.68,1887.27 2177.85,1889.68
             2179.27,1892.58 2182.17,1893.89 2185.00,1895.00
             2185.00,1895.00 2179.00,1904.00 2179.00,1904.00
             2170.08,1902.92 2172.77,1906.35 2167.79,1908.41
             2162.53,1910.57 2161.07,1905.99 2154.00,1914.94
             2145.62,1911.82 2149.51,1914.01 2142.00,1914.94
             2133.09,1915.90 2131.14,1914.51 2121.00,1918.42
             2113.82,1921.19 2111.47,1925.51 2107.17,1924.36
             2104.87,1923.75 2103.27,1921.24 2099.99,1921.42
             2097.19,1921.57 2093.32,1924.45 2091.00,1926.00
             2077.48,1935.05 2074.74,1940.43 2071.00,1943.00
             2071.00,1940.65 2071.16,1937.18 2070.42,1935.00
             2069.69,1932.87 2068.07,1930.84 2066.74,1929.04
             2061.35,1921.76 2056.46,1917.29 2047.00,1917.00
             2046.92,1914.46 2046.98,1912.41 2045.69,1910.09
             2043.54,1906.25 2035.59,1900.30 2031.00,1900.95
             2027.45,1901.46 2021.73,1905.38 2017.00,1907.00
             2015.45,1903.07 2015.38,1889.16 2008.13,1891.66
             2005.51,1892.56 2005.30,1895.19 2004.47,1896.74
             2003.01,1899.51 2001.06,1899.90 1999.85,1902.34
             1998.54,1904.98 1999.46,1907.77 1997.26,1910.45
             1994.98,1913.22 1991.26,1913.51 1989.58,1917.19
             1987.70,1921.31 1988.64,1928.50 1981.00,1931.00
             1981.71,1940.95 1986.31,1939.27 1988.40,1945.04
             1989.71,1948.64 1987.19,1953.01 1987.00,1959.00
             1982.61,1956.24 1983.62,1953.58 1980.16,1949.09
             1975.19,1942.65 1964.35,1937.29 1963.00,1929.00
             1959.73,1928.66 1953.94,1927.68 1952.02,1924.70
             1950.32,1922.06 1951.73,1915.19 1946.81,1913.73
             1944.33,1912.99 1941.51,1915.03 1939.31,1914.27
             1937.46,1913.64 1937.18,1911.75 1937.64,1910.07
             1938.55,1906.70 1942.30,1905.40 1941.53,1898.00
             1940.61,1889.14 1935.59,1887.84 1935.63,1882.00
             1935.64,1880.58 1936.32,1878.43 1936.68,1877.00
             1939.36,1866.28 1941.39,1869.24 1943.86,1864.73
             1945.73,1861.34 1944.31,1857.86 1945.85,1854.00
             1945.85,1854.00 1953.00,1843.00 1953.00,1843.00
             1957.51,1844.41 1958.02,1845.46 1959.00,1850.00
             1959.00,1850.00 1971.00,1845.00 1971.00,1845.00
             1970.96,1833.02 1968.50,1835.92 1963.00,1827.13
             1963.00,1827.13 1972.00,1827.13 1972.00,1827.13
             1972.00,1827.13 1984.00,1833.92 1984.00,1833.92
             1984.00,1833.92 1995.00,1835.00 1995.00,1835.00
             1993.09,1832.37 1990.86,1829.65 1987.91,1828.13
             1985.70,1827.00 1983.32,1826.99 1981.89,1825.72
             1978.70,1822.91 1982.38,1821.29 1985.02,1821.02
             1985.02,1821.02 1989.00,1821.02 1989.00,1821.02
             1989.00,1821.02 1995.00,1821.02 1995.00,1821.02
             1994.63,1815.85 1987.30,1799.10 1984.08,1794.84
             1984.08,1794.84 1977.00,1787.00 1977.00,1787.00
             1977.00,1787.00 1991.00,1787.84 1991.00,1787.84
             1991.00,1787.84 2001.00,1783.00 2001.00,1783.00
             1999.00,1773.60 1990.73,1771.12 1984.34,1765.24
             1981.13,1762.30 1980.57,1759.30 1977.66,1757.85
             1975.48,1756.77 1971.47,1757.00 1969.00,1757.00
             1969.00,1757.00 1969.00,1746.00 1969.00,1746.00
             1969.00,1743.98 1968.88,1741.04 1969.58,1739.17
             1970.34,1737.17 1972.50,1735.02 1973.74,1733.00
             1977.11,1727.48 1976.74,1724.42 1978.88,1719.17
             1979.80,1716.89 1981.61,1714.54 1981.04,1711.99
             1980.16,1708.05 1974.70,1704.11 1971.00,1703.00
             1967.92,1702.08 1966.05,1702.52 1963.00,1703.00
             1963.00,1703.00 1963.00,1689.00 1963.00,1689.00
             1963.00,1689.00 1971.00,1687.30 1971.00,1687.30
             1972.81,1687.03 1975.32,1687.02 1976.96,1686.42
             1982.52,1684.37 1983.05,1680.27 1977.98,1677.14
             1974.16,1674.80 1966.49,1673.74 1962.09,1671.89
             1962.09,1671.89 1955.00,1668.00 1955.00,1668.00
             1956.92,1663.35 1958.11,1662.24 1963.00,1661.00
             1962.35,1652.93 1957.29,1651.40 1950.00,1651.00
             1952.08,1645.71 1954.79,1640.81 1951.69,1635.04
             1949.00,1630.05 1946.07,1631.41 1945.00,1625.00
             1947.13,1624.97 1949.71,1625.15 1951.59,1623.98
             1953.52,1622.77 1953.97,1620.62 1956.27,1619.60
             1956.27,1619.60 1965.00,1618.54 1965.00,1618.54
             1972.66,1616.78 1979.85,1612.20 1981.00,1604.00
             2002.64,1606.85 1999.20,1603.15 2012.00,1603.00 Z
           M 1998.00,1838.00
           C 1998.00,1838.00 1996.00,1835.00 1996.00,1835.00
             1996.00,1835.00 1998.00,1838.00 1998.00,1838.00 Z" />
</svg>
