<?xml version="1.0" encoding="UTF-8" standalone="no"?>
<!DOCTYPE svg PUBLIC "-//W3C//DTD SVG 20010904//EN"
              "http://www.w3.org/TR/2001/REC-SVG-20010904/DTD/svg10.dtd">

<svg xmlns="http://www.w3.org/2000/svg"
     width="8.33229in" height="8.33229in"
     viewBox="0 0 600 600">
  <path id="Selection#1"
        fill="green" stroke="black" stroke-width="1"
        d="M 242.00,122.00
           C 242.00,122.00 251.00,122.00 251.00,122.00
             251.00,122.00 257.00,136.00 257.00,136.00
             272.29,136.47 271.96,148.89 285.00,154.00
             284.28,155.99 283.36,157.91 283.13,160.04
             282.72,163.89 284.80,172.20 287.57,174.96
             293.47,180.84 301.43,180.31 303.00,190.00
             303.00,190.00 311.00,188.00 311.00,188.00
             311.00,188.00 312.59,191.26 312.59,191.26
             312.59,191.26 328.00,194.00 328.00,194.00
             325.09,205.78 320.45,206.29 328.00,215.00
             328.00,215.00 318.02,226.26 318.02,226.26
             318.02,226.26 317.00,230.00 317.00,230.00
             317.00,230.00 326.09,228.58 326.09,228.58
             326.09,228.58 339.00,232.00 339.00,232.00
             339.00,232.00 339.00,239.00 339.00,239.00
             339.00,239.00 363.00,239.00 363.00,239.00
             363.52,242.21 363.76,243.36 366.15,245.81
             367.24,246.94 368.67,247.98 370.00,248.81
             370.98,249.43 372.92,250.47 374.00,250.81
             383.56,253.78 384.25,237.66 388.54,233.49
             390.26,231.83 391.81,231.58 394.00,231.00
             394.00,231.00 396.82,234.42 396.82,234.42
             401.01,240.66 391.97,241.77 391.57,247.09
             391.43,248.98 392.65,251.09 393.50,252.71
             396.98,259.35 399.20,262.51 407.00,264.00
             404.88,268.98 404.31,274.46 401.15,278.98
             397.61,284.05 394.45,283.82 393.31,288.05
             394.40,284.00 391.29,304.86 391.69,301.96
             391.46,303.17 391.51,303.55 391.69,304.72
             393.51,311.46 398.26,315.18 399.98,318.28
             401.52,321.05 400.40,322.95 403.27,327.99
             407.34,335.11 417.16,339.19 425.00,340.00
             426.62,346.68 429.10,350.30 436.00,352.00
             433.85,358.94 430.14,362.61 426.14,368.42
             424.37,371.01 422.99,374.16 419.91,375.40
             417.68,376.29 409.82,376.00 407.00,376.00
             407.00,376.00 407.00,398.00 407.00,398.00
             407.00,400.82 406.68,406.27 407.85,408.68
             409.27,411.58 412.17,412.89 415.00,414.00
             415.00,414.00 409.00,423.00 409.00,423.00
             400.08,421.92 402.77,425.35 397.79,427.41
             392.53,429.57 391.07,424.99 384.00,433.94
             375.62,430.82 379.51,433.01 372.00,433.94
             363.09,434.90 361.14,433.51 351.00,437.42
             343.82,440.19 341.47,444.51 337.17,443.36
             334.87,442.75 333.27,440.24 329.99,440.42
             327.19,440.57 323.32,443.45 321.00,445.00
             307.48,454.05 304.74,459.43 301.00,462.00
             301.00,459.65 301.16,456.18 300.42,454.00
             299.69,451.87 298.07,449.84 296.74,448.04
             291.35,440.76 286.46,436.29 277.00,436.00
             276.92,433.46 276.98,431.41 275.69,429.09
             273.54,425.25 265.59,419.30 261.00,419.95
             257.45,420.46 251.73,424.38 247.00,426.00
             245.45,422.07 245.38,408.16 238.13,410.66
             235.51,411.56 235.30,414.19 234.47,415.74
             233.01,418.51 231.06,418.90 229.85,421.34
             228.54,423.98 229.46,426.77 227.26,429.45
             224.98,432.22 221.26,432.51 219.58,436.19
             217.70,440.31 218.64,447.50 211.00,450.00
             211.71,459.95 216.31,458.27 218.40,464.04
             219.71,467.64 217.19,472.01 217.00,478.00
             212.61,475.24 213.62,472.58 210.16,468.09
             205.19,461.65 194.35,456.29 193.00,448.00
             189.73,447.66 183.94,446.68 182.02,443.70
             180.32,441.06 181.73,434.19 176.81,432.73
             174.33,431.99 171.51,434.03 169.31,433.27
             167.46,432.64 167.18,430.75 167.64,429.07
             168.55,425.70 172.30,424.40 171.53,417.00
             170.61,408.14 165.59,406.84 165.63,401.00
             165.64,399.58 166.32,397.43 166.68,396.00
             169.36,385.28 171.39,388.24 173.86,383.73
             175.73,380.34 174.31,376.86 175.85,373.00
             175.85,373.00 183.00,362.00 183.00,362.00
             187.51,363.41 188.02,364.46 189.00,369.00
             189.00,369.00 201.00,364.00 201.00,364.00
             200.96,352.02 198.50,354.92 193.00,346.13
             193.00,346.13 202.00,346.13 202.00,346.13
             202.00,346.13 214.00,352.92 214.00,352.92
             214.00,352.92 225.00,354.00 225.00,354.00
             223.09,351.37 220.86,348.65 217.91,347.13
             215.70,346.00 213.32,345.99 211.89,344.72
             208.70,341.91 212.38,340.29 215.02,340.02
             215.02,340.02 219.00,340.02 219.00,340.02
             219.00,340.02 225.00,340.02 225.00,340.02
             224.63,334.85 217.30,318.10 214.08,313.84
             214.08,313.84 207.00,306.00 207.00,306.00
             207.00,306.00 221.00,306.84 221.00,306.84
             221.00,306.84 231.00,302.00 231.00,302.00
             229.00,292.60 220.73,290.12 214.34,284.24
             211.13,281.30 210.57,278.30 207.66,276.85
             205.48,275.77 201.47,276.00 199.00,276.00
             199.00,276.00 199.00,265.00 199.00,265.00
             199.00,262.98 198.88,260.04 199.58,258.17
             200.34,256.17 202.50,254.02 203.74,252.00
             207.11,246.48 206.74,243.42 208.88,238.17
             209.80,235.89 211.61,233.54 211.04,230.99
             210.16,227.05 204.70,223.11 201.00,222.00
             197.92,221.08 196.05,221.52 193.00,222.00
             193.00,222.00 193.00,208.00 193.00,208.00
             193.00,208.00 201.00,206.30 201.00,206.30
             202.81,206.03 205.32,206.02 206.96,205.42
             212.52,203.37 213.05,199.27 207.98,196.14
             204.16,193.80 196.49,192.74 192.09,190.89
             192.09,190.89 185.00,187.00 185.00,187.00
             186.92,182.35 188.11,181.24 193.00,180.00
             192.35,171.93 187.29,170.40 180.00,170.00
             182.08,164.71 184.79,159.81 181.69,154.04
             179.00,149.05 176.07,150.41 175.00,144.00
             177.13,143.97 179.71,144.15 181.59,142.98
             183.52,141.77 183.97,139.62 186.27,138.60
             186.27,138.60 195.00,137.54 195.00,137.54
             202.66,135.78 209.85,131.20 211.00,123.00
             232.64,125.85 229.20,122.15 242.00,122.00 Z
           M 212.00,197.00
           C 212.00,197.00 213.00,198.00 213.00,198.00
             213.00,198.00 213.00,197.00 213.00,197.00
             213.00,197.00 212.00,197.00 212.00,197.00 Z
           M 228.00,357.00
           C 228.00,357.00 226.00,354.00 226.00,354.00
             226.00,354.00 228.00,357.00 228.00,357.00 Z" />
</svg>
