<?xml version="1.0" encoding="UTF-8" standalone="no"?>
<!DOCTYPE svg PUBLIC "-//W3C//DTD SVG 20010904//EN"
              "http://www.w3.org/TR/2001/REC-SVG-20010904/DTD/svg10.dtd">

<svg xmlns="http://www.w3.org/2000/svg"
     width="43.6334in" height="36.3288in"
     viewBox="0 0 3142 2616">
  <path id="Turkey"
        fill="Green" stroke="black" stroke-width="1"
        d="M 2868.00,1814.90
           C 2868.00,1814.90 2875.00,1813.19 2875.00,1813.19
             2875.00,1813.19 2889.00,1811.73 2889.00,1811.73
             2892.67,1810.80 2896.61,1807.33 2907.00,1805.37
             2907.00,1805.37 2913.00,1804.79 2913.00,1804.79
             2913.00,1804.79 2920.00,1803.00 2920.00,1803.00
             2920.00,1803.00 2928.00,1803.00 2928.00,1803.00
             2928.00,1803.00 2946.00,1798.58 2946.00,1798.58
             2949.64,1797.43 2954.85,1795.02 2957.11,1791.87
             2959.37,1788.74 2959.42,1783.74 2963.18,1783.57
             2969.25,1783.29 2967.94,1790.57 2972.15,1794.48
             2972.15,1794.48 2979.99,1800.00 2979.99,1800.00
             2987.14,1804.87 2991.79,1808.85 3001.00,1809.00
             3012.67,1809.18 3012.07,1806.93 3021.04,1800.67
             3024.21,1798.45 3028.99,1794.22 3033.00,1795.19
             3045.36,1798.17 3037.91,1809.08 3050.30,1816.47
             3053.73,1818.52 3068.52,1825.02 3071.99,1824.36
             3078.22,1823.17 3080.64,1814.36 3081.00,1809.00
             3090.71,1809.00 3096.19,1807.57 3104.41,1814.01
             3107.15,1816.17 3107.90,1816.70 3109.00,1820.00
             3109.00,1820.00 3128.00,1817.04 3128.00,1817.04
             3128.00,1817.04 3142.00,1819.00 3142.00,1819.00
             3142.00,1819.00 3142.00,2069.00 3142.00,2069.00
             3142.00,2069.00 3142.00,2151.00 3142.00,2151.00
             3142.00,2151.00 3141.00,2199.00 3141.00,2199.00
             3141.00,2199.00 3126.00,2202.00 3126.00,2202.00
             3126.99,2210.58 3132.15,2211.77 3131.75,2215.85
             3131.51,2218.32 3128.90,2218.79 3126.98,2219.40
             3122.83,2220.71 3117.25,2222.74 3113.00,2222.96
             3104.33,2223.39 3101.86,2220.25 3096.00,2219.26
             3092.31,2218.63 3087.31,2219.50 3084.00,2218.42
             3080.26,2217.20 3073.16,2211.88 3067.00,2213.32
             3062.56,2214.35 3057.55,2220.43 3054.76,2223.91
             3054.76,2223.91 3039.82,2244.31 3039.82,2244.31
             3037.84,2248.20 3035.61,2254.69 3035.00,2259.00
             3035.00,2259.00 3031.00,2259.00 3031.00,2259.00
             3033.26,2271.97 3031.60,2264.65 3029.00,2275.16
             3025.49,2273.53 3022.71,2272.15 3019.57,2275.16
             3017.00,2277.89 3015.75,2283.60 3013.15,2285.73
             3013.15,2285.73 2999.00,2291.25 2999.00,2291.25
             2993.90,2293.66 2993.86,2295.55 2990.74,2297.28
             2983.55,2301.28 2977.68,2296.17 2972.00,2306.00
             2963.36,2304.00 2962.33,2308.04 2955.00,2311.44
             2951.10,2313.25 2947.27,2313.89 2943.00,2313.99
             2921.50,2314.47 2920.10,2306.04 2905.00,2294.76
             2905.00,2294.76 2888.00,2283.58 2888.00,2283.58
             2885.72,2282.80 2881.52,2283.01 2879.00,2283.00
             2863.81,2282.97 2849.33,2273.09 2835.00,2273.00
             2825.06,2272.94 2821.50,2274.25 2812.00,2276.41
             2805.92,2277.79 2793.04,2276.37 2789.10,2281.28
             2783.89,2287.77 2785.19,2290.95 2786.63,2298.00
             2787.06,2300.11 2786.99,2301.60 2787.78,2303.72
             2787.78,2303.72 2791.00,2311.00 2791.00,2311.00
             2787.73,2314.71 2786.68,2318.03 2786.87,2323.00
             2787.37,2326.17 2789.35,2329.98 2786.87,2332.63
             2782.90,2336.31 2778.56,2330.77 2770.00,2334.13
             2770.00,2334.13 2751.10,2345.56 2751.10,2345.56
             2751.10,2345.56 2746.41,2350.03 2746.41,2350.03
             2746.41,2350.03 2741.00,2353.00 2741.00,2353.00
             2741.00,2353.00 2739.00,2353.00 2739.00,2353.00
             2732.32,2346.13 2730.79,2352.04 2724.00,2350.68
             2720.03,2349.88 2718.02,2345.99 2715.00,2350.00
             2715.00,2350.00 2700.00,2343.00 2700.00,2343.00
             2700.00,2343.00 2701.00,2339.00 2701.00,2339.00
             2701.00,2339.00 2691.93,2327.00 2691.93,2327.00
             2695.70,2324.52 2695.74,2320.50 2691.93,2318.00
             2691.93,2318.00 2687.00,2316.05 2687.00,2316.05
             2687.00,2316.05 2683.00,2314.07 2683.00,2314.07
             2674.72,2311.45 2670.81,2327.07 2661.29,2318.43
             2659.91,2317.18 2659.79,2316.52 2659.00,2315.00
             2659.00,2315.00 2661.00,2311.00 2661.00,2311.00
             2661.00,2311.00 2647.00,2312.00 2647.00,2312.00
             2643.93,2307.44 2640.70,2310.00 2636.00,2311.00
             2636.00,2311.00 2636.00,2315.00 2636.00,2315.00
             2625.44,2312.08 2627.00,2319.13 2627.00,2327.00
             2627.00,2327.00 2625.00,2327.00 2625.00,2327.00
             2624.07,2321.45 2622.08,2320.76 2617.00,2319.00
             2617.00,2319.00 2617.00,2315.00 2617.00,2315.00
             2617.00,2315.00 2625.00,2314.00 2625.00,2314.00
             2625.00,2314.00 2635.00,2295.00 2635.00,2295.00
             2635.00,2295.00 2631.00,2295.00 2631.00,2295.00
             2616.35,2295.09 2600.74,2306.38 2583.00,2310.00
             2583.00,2310.00 2582.00,2307.00 2582.00,2307.00
             2582.00,2307.00 2575.28,2310.26 2575.28,2310.26
             2575.28,2310.26 2568.99,2309.52 2568.99,2309.52
             2568.99,2309.52 2559.00,2313.00 2559.00,2313.00
             2561.59,2301.21 2569.23,2310.16 2575.90,2305.84
             2582.60,2301.50 2581.00,2291.95 2581.00,2285.00
             2581.00,2285.00 2573.00,2287.00 2573.00,2287.00
             2571.98,2280.94 2570.22,2281.55 2565.00,2283.00
             2565.00,2283.00 2568.00,2275.00 2568.00,2275.00
             2558.85,2275.66 2559.91,2279.47 2553.00,2283.00
             2552.58,2276.80 2550.71,2266.13 2545.00,2263.00
             2546.19,2253.71 2549.03,2256.87 2549.00,2242.00
             2548.97,2228.20 2543.73,2231.40 2534.00,2227.73
             2531.33,2226.72 2527.41,2224.24 2525.00,2223.88
             2522.41,2223.54 2520.49,2224.88 2518.33,2223.88
             2514.58,2222.06 2513.36,2214.23 2508.82,2213.98
             2503.43,2213.68 2498.37,2220.76 2495.00,2224.00
             2495.00,2224.00 2495.00,2219.00 2495.00,2219.00
             2495.00,2219.00 2484.00,2217.00 2484.00,2217.00
             2484.00,2217.00 2491.00,2203.00 2491.00,2203.00
             2493.63,2204.85 2504.51,2220.99 2505.00,2207.00
             2505.00,2207.00 2529.00,2203.00 2529.00,2203.00
             2529.00,2203.00 2529.00,2199.00 2529.00,2199.00
             2537.53,2195.52 2532.79,2190.91 2529.00,2189.86
             2525.36,2188.87 2515.34,2194.90 2511.60,2185.00
             2511.09,2183.64 2511.11,2182.40 2511.00,2181.00
             2511.00,2181.00 2505.00,2183.00 2505.00,2183.00
             2505.00,2183.00 2503.00,2175.00 2503.00,2175.00
             2505.48,2175.00 2510.57,2175.35 2512.57,2173.98
             2514.76,2172.48 2514.79,2169.67 2515.71,2167.42
             2517.49,2163.08 2524.39,2156.59 2518.43,2152.31
             2514.67,2149.62 2509.20,2152.81 2503.00,2153.00
             2503.41,2149.77 2505.29,2144.80 2504.67,2142.09
             2503.66,2137.71 2493.73,2130.75 2490.00,2128.00
             2493.21,2121.99 2496.33,2119.71 2499.75,2114.61
             2504.18,2107.99 2505.04,2096.61 2496.00,2098.15
             2492.44,2098.76 2477.26,2104.33 2474.00,2106.17
             2463.52,2112.08 2462.52,2114.96 2449.00,2115.00
             2449.32,2105.73 2453.28,2106.65 2453.00,2102.09
             2452.83,2099.29 2448.98,2095.44 2449.00,2083.00
             2449.00,2080.63 2448.79,2077.33 2450.02,2075.26
             2451.57,2072.66 2455.33,2071.51 2457.69,2067.00
             2459.29,2063.91 2459.00,2060.37 2459.00,2057.00
             2468.79,2056.87 2466.37,2054.70 2471.41,2048.00
             2475.57,2042.46 2477.58,2042.42 2479.00,2035.00
             2479.00,2035.00 2494.96,2034.42 2494.96,2034.42
             2494.96,2034.42 2501.51,2029.81 2501.51,2029.81
             2501.51,2029.81 2511.00,2027.00 2511.00,2027.00
             2511.73,2029.92 2512.37,2032.19 2515.19,2033.83
             2519.97,2036.60 2537.00,2035.10 2541.99,2032.75
             2541.99,2032.75 2551.00,2027.00 2551.00,2027.00
             2555.31,2029.23 2555.59,2025.85 2559.17,2024.17
             2559.17,2024.17 2568.00,2021.52 2568.00,2021.52
             2568.00,2021.52 2589.00,2016.65 2589.00,2016.65
             2593.57,2016.73 2593.69,2019.00 2606.00,2019.00
             2606.00,2019.00 2605.00,2016.00 2605.00,2016.00
             2605.00,2016.00 2613.00,2014.42 2613.00,2014.42
             2617.26,2014.05 2619.31,2015.64 2624.24,2011.85
             2630.01,2007.81 2634.41,2000.57 2624.24,1999.23
             2617.31,1998.36 2612.26,2004.55 2608.00,1997.00
             2608.00,1997.00 2625.11,1989.15 2625.11,1989.15
             2625.11,1989.15 2627.00,1985.00 2627.00,1985.00
             2633.37,1986.07 2636.48,1987.91 2640.00,1981.00
             2645.54,1983.17 2645.69,1982.53 2649.00,1978.00
             2651.92,1981.71 2654.63,1978.55 2658.00,1976.79
             2661.62,1974.89 2674.77,1971.54 2679.00,1971.00
             2679.00,1971.00 2679.00,1965.00 2679.00,1965.00
             2670.68,1964.15 2673.40,1963.00 2665.00,1966.77
             2657.86,1962.51 2655.49,1963.08 2648.00,1966.77
             2645.97,1967.47 2641.11,1970.57 2639.12,1970.28
             2637.44,1970.04 2632.73,1966.46 2631.00,1965.37
             2626.61,1962.60 2621.93,1960.59 2617.00,1959.00
             2617.00,1951.72 2616.12,1945.83 2619.00,1939.00
             2632.23,1941.37 2638.85,1939.02 2651.00,1939.00
             2658.34,1938.99 2665.96,1938.53 2673.00,1936.24
             2679.12,1934.25 2687.00,1927.85 2690.00,1927.41
             2692.41,1927.06 2695.95,1928.61 2699.00,1928.90
             2699.00,1928.90 2726.00,1929.68 2726.00,1929.68
             2732.90,1929.16 2739.13,1928.52 2745.00,1924.47
             2745.00,1924.47 2750.58,1920.25 2750.58,1920.25
             2752.96,1918.72 2755.66,1918.32 2757.26,1916.49
             2762.49,1910.55 2757.70,1896.14 2769.00,1893.16
             2770.49,1892.94 2773.38,1893.01 2775.00,1893.16
             2776.64,1880.41 2789.06,1876.57 2793.00,1869.00
             2801.81,1866.43 2802.17,1859.00 2808.32,1853.55
             2808.32,1853.55 2818.81,1847.16 2818.81,1847.16
             2822.49,1844.25 2822.67,1841.37 2826.13,1838.89
             2826.13,1838.89 2838.82,1833.22 2838.82,1833.22
             2838.82,1833.22 2848.01,1824.34 2848.01,1824.34
             2854.57,1819.02 2858.53,1822.64 2861.00,1814.90
             2861.00,1814.90 2868.00,1814.90 2868.00,1814.90 Z" />
</svg>
