<?xml version="1.0" encoding="UTF-8" standalone="no"?>
<!DOCTYPE svg PUBLIC "-//W3C//DTD SVG 20010904//EN"
              "http://www.w3.org/TR/2001/REC-SVG-20010904/DTD/svg10.dtd">

<svg xmlns="http://www.w3.org/2000/svg"
     width="13.8872in" height="8.33229in"
     viewBox="0 0 1000 600">
  <path id="Selection"
        fill="green" stroke="black" stroke-width="1"
        d="M 573.00,46.90
           C 573.00,46.90 580.00,45.19 580.00,45.19
             580.00,45.19 594.00,43.73 594.00,43.73
             597.67,42.80 601.61,39.33 612.00,37.37
             612.00,37.37 618.00,36.79 618.00,36.79
             618.00,36.79 625.00,35.00 625.00,35.00
             625.00,35.00 633.00,35.00 633.00,35.00
             633.00,35.00 651.00,30.58 651.00,30.58
             654.64,29.43 659.85,27.02 662.11,23.87
             664.37,20.74 664.42,15.74 668.18,15.57
             674.25,15.29 672.94,22.57 677.15,26.48
             677.15,26.48 684.99,32.00 684.99,32.00
             692.14,36.87 696.79,40.85 706.00,41.00
             717.67,41.18 717.07,38.93 726.04,32.67
             729.21,30.45 733.99,26.22 738.00,27.19
             750.36,30.17 742.91,41.08 755.30,48.47
             758.73,50.52 773.52,57.02 776.99,56.36
             783.22,55.17 785.64,46.36 786.00,41.00
             795.71,41.00 801.19,39.57 809.41,46.01
             812.15,48.17 812.90,48.70 814.00,52.00
             814.00,52.00 833.00,49.04 833.00,49.04
             833.00,49.04 847.00,51.00 847.00,51.00
             847.00,51.00 847.00,301.00 847.00,301.00
             847.00,301.00 847.00,383.00 847.00,383.00
             847.00,383.00 846.00,431.00 846.00,431.00
             846.00,431.00 831.00,434.00 831.00,434.00
             831.99,442.58 837.15,443.77 836.75,447.85
             836.51,450.32 833.90,450.79 831.98,451.40
             827.83,452.71 822.25,454.74 818.00,454.96
             809.33,455.39 806.86,452.25 801.00,451.26
             797.31,450.63 792.31,451.50 789.00,450.42
             785.26,449.20 778.16,443.88 772.00,445.32
             767.56,446.35 762.55,452.43 759.76,455.91
             759.76,455.91 744.82,476.31 744.82,476.31
             742.84,480.20 740.61,486.69 740.00,491.00
             740.00,491.00 736.00,491.00 736.00,491.00
             738.26,503.97 736.60,496.65 734.00,507.16
             730.49,505.53 727.71,504.15 724.57,507.16
             722.00,509.89 720.75,515.60 718.15,517.73
             718.15,517.73 704.00,523.25 704.00,523.25
             698.90,525.66 698.86,527.55 695.74,529.28
             688.55,533.28 682.68,528.17 677.00,538.00
             668.36,536.00 667.33,540.04 660.00,543.44
             656.10,545.25 652.27,545.89 648.00,545.99
             626.50,546.47 625.10,538.04 610.00,526.76
             610.00,526.76 593.00,515.58 593.00,515.58
             590.72,514.80 586.52,515.01 584.00,515.00
             568.81,514.97 554.33,505.09 540.00,505.00
             530.06,504.94 526.50,506.25 517.00,508.41
             510.92,509.79 498.04,508.37 494.10,513.28
             488.89,519.77 490.19,522.95 491.63,530.00
             492.06,532.11 491.99,533.60 492.78,535.72
             492.78,535.72 496.00,543.00 496.00,543.00
             492.73,546.71 491.68,550.03 491.87,555.00
             492.37,558.17 494.35,561.98 491.87,564.63
             487.90,568.31 483.56,562.77 475.00,566.13
             475.00,566.13 456.10,577.56 456.10,577.56
             456.10,577.56 451.41,582.03 451.41,582.03
             451.41,582.03 446.00,585.00 446.00,585.00
             446.00,585.00 444.00,585.00 444.00,585.00
             437.32,578.13 435.79,584.04 429.00,582.68
             425.03,581.88 423.02,577.99 420.00,582.00
             420.00,582.00 405.00,575.00 405.00,575.00
             405.00,575.00 406.00,571.00 406.00,571.00
             406.00,571.00 396.93,559.00 396.93,559.00
             400.70,556.52 400.74,552.50 396.93,550.00
             396.93,550.00 392.00,548.05 392.00,548.05
             392.00,548.05 388.00,546.07 388.00,546.07
             379.72,543.45 375.81,559.07 366.29,550.43
             364.91,549.18 364.79,548.52 364.00,547.00
             364.00,547.00 366.00,543.00 366.00,543.00
             366.00,543.00 352.00,544.00 352.00,544.00
             348.93,539.44 345.70,542.00 341.00,543.00
             341.00,543.00 341.00,547.00 341.00,547.00
             330.44,544.08 332.00,551.13 332.00,559.00
             332.00,559.00 330.00,559.00 330.00,559.00
             329.07,553.45 327.08,552.76 322.00,551.00
             322.00,551.00 322.00,547.00 322.00,547.00
             322.00,547.00 330.00,546.00 330.00,546.00
             330.00,546.00 340.00,527.00 340.00,527.00
             340.00,527.00 336.00,527.00 336.00,527.00
             321.35,527.09 305.74,538.38 288.00,542.00
             288.00,542.00 287.00,539.00 287.00,539.00
             287.00,539.00 280.28,542.26 280.28,542.26
             280.28,542.26 273.99,541.52 273.99,541.52
             273.99,541.52 264.00,545.00 264.00,545.00
             266.59,533.21 274.23,542.16 280.90,537.84
             287.60,533.50 286.00,523.95 286.00,517.00
             286.00,517.00 278.00,519.00 278.00,519.00
             276.98,512.94 275.22,513.55 270.00,515.00
             270.00,515.00 273.00,507.00 273.00,507.00
             263.85,507.66 264.91,511.47 258.00,515.00
             257.58,508.80 255.71,498.13 250.00,495.00
             251.19,485.71 254.03,488.87 254.00,474.00
             253.97,460.20 248.73,463.40 239.00,459.73
             236.33,458.72 232.41,456.24 230.00,455.88
             227.41,455.54 225.49,456.88 223.33,455.88
             219.58,454.06 218.36,446.23 213.82,445.98
             208.43,445.68 203.37,452.76 200.00,456.00
             200.00,456.00 200.00,451.00 200.00,451.00
             200.00,451.00 189.00,449.00 189.00,449.00
             189.00,449.00 196.00,435.00 196.00,435.00
             198.63,436.85 209.51,452.99 210.00,439.00
             210.00,439.00 234.00,435.00 234.00,435.00
             234.00,435.00 234.00,431.00 234.00,431.00
             242.53,427.52 237.79,422.91 234.00,421.86
             230.36,420.87 220.34,426.90 216.60,417.00
             216.09,415.64 216.11,414.40 216.00,413.00
             216.00,413.00 210.00,415.00 210.00,415.00
             210.00,415.00 208.00,407.00 208.00,407.00
             210.48,407.00 215.57,407.35 217.57,405.98
             219.76,404.48 219.79,401.67 220.71,399.42
             222.49,395.08 229.39,388.59 223.43,384.31
             219.67,381.62 214.20,384.81 208.00,385.00
             208.41,381.77 210.29,376.80 209.67,374.09
             208.66,369.71 198.73,362.75 195.00,360.00
             198.21,353.99 201.33,351.71 204.75,346.61
             209.18,339.99 210.04,328.61 201.00,330.15
             197.44,330.76 182.26,336.33 179.00,338.17
             168.52,344.08 167.52,346.96 154.00,347.00
             154.32,337.73 158.28,338.65 158.00,334.09
             157.83,331.29 153.98,327.44 154.00,315.00
             154.00,312.63 153.79,309.33 155.02,307.26
             156.57,304.66 160.33,303.51 162.69,299.00
             164.29,295.91 164.00,292.37 164.00,289.00
             173.79,288.87 171.37,286.70 176.41,280.00
             180.57,274.46 182.58,274.42 184.00,267.00
             184.00,267.00 199.96,266.42 199.96,266.42
             199.96,266.42 206.51,261.81 206.51,261.81
             206.51,261.81 216.00,259.00 216.00,259.00
             216.73,261.92 217.37,264.19 220.19,265.83
             224.97,268.60 242.00,267.10 246.99,264.75
             246.99,264.75 256.00,259.00 256.00,259.00
             260.31,261.23 260.59,257.85 264.17,256.17
             264.17,256.17 273.00,253.52 273.00,253.52
             273.00,253.52 294.00,248.65 294.00,248.65
             298.57,248.73 298.69,251.00 311.00,251.00
             311.00,251.00 310.00,248.00 310.00,248.00
             310.00,248.00 318.00,246.42 318.00,246.42
             322.26,246.05 324.31,247.64 329.24,243.85
             335.01,239.81 339.41,232.57 329.24,231.23
             322.31,230.36 317.26,236.55 313.00,229.00
             313.00,229.00 330.11,221.15 330.11,221.15
             330.11,221.15 332.00,217.00 332.00,217.00
             338.37,218.07 341.48,219.91 345.00,213.00
             350.54,215.17 350.69,214.53 354.00,210.00
             356.92,213.71 359.63,210.55 363.00,208.79
             366.62,206.89 379.77,203.54 384.00,203.00
             384.00,203.00 384.00,197.00 384.00,197.00
             375.68,196.15 378.40,195.00 370.00,198.77
             362.86,194.51 360.49,195.08 353.00,198.77
             350.97,199.47 346.11,202.57 344.12,202.28
             342.44,202.04 337.73,198.46 336.00,197.37
             331.61,194.60 326.93,192.59 322.00,191.00
             322.00,183.72 321.12,177.83 324.00,171.00
             337.23,173.37 343.85,171.02 356.00,171.00
             363.34,170.99 370.96,170.53 378.00,168.24
             384.12,166.25 392.00,159.85 395.00,159.41
             397.41,159.06 400.95,160.61 404.00,160.90
             404.00,160.90 431.00,161.68 431.00,161.68
             437.90,161.16 444.13,160.52 450.00,156.47
             450.00,156.47 455.58,152.25 455.58,152.25
             457.96,150.72 460.66,150.32 462.26,148.49
             467.49,142.55 462.70,128.14 474.00,125.16
             475.49,124.94 478.38,125.01 480.00,125.16
             481.64,112.41 494.06,108.57 498.00,101.00
             506.81,98.43 507.17,91.00 513.32,85.55
             513.32,85.55 523.81,79.16 523.81,79.16
             527.49,76.25 527.67,73.37 531.13,70.89
             531.13,70.89 543.82,65.22 543.82,65.22
             543.82,65.22 553.01,56.34 553.01,56.34
             559.57,51.02 563.53,54.64 566.00,46.90
             566.00,46.90 573.00,46.90 573.00,46.90 Z" />
</svg>
