<?xml version="1.0" encoding="UTF-8" standalone="no"?>
<!DOCTYPE svg PUBLIC "-//W3C//DTD SVG 20010904//EN"
              "http://www.w3.org/TR/2001/REC-SVG-20010904/DTD/svg10.dtd">

<svg xmlns="http://www.w3.org/2000/svg"
     width="6.38809in" height="6.38809in"
     viewBox="0 0 460 460">
  <path id="Selection"
        fill="red" stroke="black" stroke-width="1"
        d="M 321.00,42.00
           C 321.00,42.00 320.32,76.00 320.32,76.00
             320.32,76.00 321.75,91.71 321.75,91.71
             321.75,91.71 326.50,102.84 326.50,102.84
             326.50,102.84 324.00,114.00 324.00,114.00
             334.92,110.90 335.66,115.80 345.00,119.00
             347.14,126.85 351.92,124.95 354.27,130.13
             356.46,134.98 357.12,145.61 357.58,146.83
             358.81,150.06 361.54,150.53 366.00,160.00
             356.43,169.94 364.97,186.39 369.00,197.00
             364.54,196.25 363.75,195.46 363.00,191.00
             363.00,191.00 359.00,191.00 359.00,191.00
             359.00,191.00 359.00,183.00 359.00,183.00
             358.39,187.60 356.03,199.92 357.85,203.68
             359.28,206.61 369.15,212.69 372.16,220.09
             373.63,223.71 373.00,241.89 373.00,247.00
             364.11,250.37 353.53,254.82 351.00,265.00
             351.00,265.00 359.00,265.00 359.00,265.00
             359.49,270.91 363.20,273.76 369.00,274.91
             372.38,275.57 379.11,272.22 381.27,269.61
             383.11,267.38 382.91,264.59 385.31,263.65
             387.62,262.75 391.72,264.69 394.00,265.47
             394.00,265.47 414.82,270.70 414.82,270.70
             417.68,272.24 420.66,276.48 423.04,279.00
             426.55,282.72 432.72,288.53 434.30,293.44
             435.54,297.29 434.07,299.37 433.37,303.00
             433.37,303.00 432.61,309.00 432.61,309.00
             431.18,315.28 427.36,321.49 424.26,327.00
             421.18,332.46 421.15,337.28 419.26,339.86
             417.46,342.32 409.04,346.15 406.00,347.00
             402.61,341.27 396.49,338.12 395.00,347.00
             395.00,347.00 389.00,347.00 389.00,347.00
             389.00,347.00 389.00,353.00 389.00,353.00
             389.00,353.00 400.00,354.00 400.00,354.00
             397.81,358.58 396.41,359.62 392.00,362.00
             388.50,351.57 378.55,355.75 375.00,363.00
             365.84,363.74 367.36,368.78 371.02,370.02
             373.08,370.72 375.88,369.49 378.00,369.00
             378.00,369.00 376.65,373.00 376.65,373.00
             372.08,382.86 366.72,375.20 360.00,374.82
             357.89,374.70 353.71,376.46 351.00,377.00
             351.00,377.00 351.00,381.00 351.00,381.00
             345.46,378.73 342.91,378.73 341.00,385.00
             341.00,385.00 350.00,386.54 350.00,386.54
             350.00,386.54 360.00,386.00 360.00,386.00
             356.78,388.61 356.11,388.94 355.00,393.00
             355.00,393.00 363.91,394.02 363.91,394.02
             363.91,394.02 372.01,400.39 372.01,400.39
             372.01,400.39 383.00,399.21 383.00,399.21
             383.00,399.21 396.00,401.00 396.00,401.00
             396.00,401.00 395.00,415.00 395.00,415.00
             395.00,415.00 384.00,418.74 384.00,418.74
             381.63,419.15 378.13,418.77 376.13,419.60
             372.92,420.93 372.37,424.10 368.95,425.98
             368.95,425.98 360.00,428.54 360.00,428.54
             349.53,432.29 356.86,432.93 343.00,433.00
             335.37,433.04 331.90,435.47 328.00,434.48
             328.00,434.48 319.00,430.08 319.00,430.08
             312.74,427.20 300.78,423.11 294.00,423.09
             294.00,423.09 282.04,423.09 282.04,423.09
             276.08,421.81 277.21,415.52 267.00,415.09
             265.14,414.79 261.77,414.83 260.00,415.09
             257.70,415.87 255.93,417.06 254.05,418.47
             248.52,422.60 249.69,424.74 255.00,428.00
             249.22,435.40 247.10,431.53 242.00,426.00
             242.00,426.00 245.00,425.00 245.00,425.00
             245.00,425.00 240.00,415.00 240.00,415.00
             231.30,418.67 232.60,415.53 228.00,415.53
             225.86,415.53 224.11,416.92 222.00,416.79
             220.86,416.38 206.74,404.50 207.36,416.79
             207.36,416.79 208.00,421.00 208.00,421.00
             198.64,416.41 195.57,414.11 185.00,416.00
             183.12,413.38 173.43,402.73 170.82,401.66
             164.96,399.01 152.57,401.60 146.00,401.66
             140.23,401.87 137.97,398.71 135.39,400.15
             133.77,401.05 131.22,409.43 129.78,412.00
             126.78,417.33 119.51,424.74 115.00,429.00
             115.00,429.00 114.00,425.00 114.00,425.00
             114.00,425.00 111.00,426.00 111.00,426.00
             104.33,417.32 99.76,421.59 99.00,410.94
             89.87,412.20 87.12,412.00 78.00,410.94
             73.28,410.29 71.65,408.60 66.01,409.06
             60.19,409.53 60.39,412.91 55.99,413.40
             51.48,413.90 42.27,407.00 39.00,419.00
             39.00,419.00 35.00,419.00 35.00,419.00
             35.00,419.00 36.00,428.00 36.00,428.00
             36.00,428.00 25.00,416.00 25.00,416.00
             25.00,416.00 25.00,414.00 25.00,414.00
             33.58,410.97 36.63,409.44 43.99,403.77
             46.84,401.57 54.03,395.10 57.00,394.24
             58.70,393.75 64.32,394.92 67.00,395.00
             67.00,395.00 66.00,392.00 66.00,392.00
             70.82,390.22 72.10,390.39 73.00,385.00
             73.00,385.00 89.00,377.00 89.00,377.00
             89.00,369.65 88.09,367.57 92.00,361.00
             100.23,363.56 111.80,365.63 115.00,355.00
             115.00,355.00 111.00,355.00 111.00,355.00
             111.00,355.00 113.00,351.00 113.00,351.00
             116.61,351.94 119.17,353.00 123.00,352.95
             126.32,352.90 129.83,351.74 132.98,352.41
             136.85,353.22 137.61,355.29 140.26,356.73
             144.55,359.06 145.97,357.16 147.00,363.00
             147.00,363.00 155.00,364.74 155.00,364.74
             155.00,364.74 175.00,366.00 175.00,366.00
             175.45,357.75 177.13,354.55 184.00,350.00
             186.12,348.60 188.44,346.97 191.00,346.79
             192.70,346.33 195.25,346.79 197.00,346.79
             197.26,338.93 199.07,341.37 203.46,337.33
             205.39,335.56 205.18,334.40 208.14,332.72
             210.59,331.32 213.17,331.15 215.11,328.70
             217.27,325.97 216.99,322.27 217.00,319.00
             217.00,319.00 209.00,319.00 209.00,319.00
             208.86,329.52 206.60,324.89 200.00,328.51
             195.63,330.90 194.61,332.66 189.00,334.27
             182.45,336.16 173.72,335.06 167.00,335.00
             167.00,335.00 167.00,343.00 167.00,343.00
             162.17,342.94 154.44,340.84 150.95,337.46
             150.95,337.46 147.34,332.58 147.34,332.58
             145.97,330.63 144.08,328.01 143.22,325.72
             142.84,323.59 143.00,319.34 143.22,317.00
             143.22,317.00 125.00,316.00 125.00,316.00
             125.00,316.00 129.00,315.00 129.00,315.00
             129.00,315.00 129.00,309.00 129.00,309.00
             118.55,307.10 119.00,304.36 119.00,295.00
             119.00,295.00 110.00,296.74 110.00,296.74
             110.00,296.74 103.00,297.37 103.00,297.37
             103.00,297.37 93.18,298.74 93.18,298.74
             93.18,298.74 86.82,295.03 86.82,295.03
             86.82,295.03 80.89,289.87 80.89,289.87
             80.89,289.87 79.00,277.00 79.00,277.00
             79.00,277.00 88.00,273.00 88.00,273.00
             93.06,281.96 102.48,271.29 109.00,270.06
             111.98,269.25 113.56,270.55 115.99,270.06
             118.89,269.86 120.39,267.65 123.17,267.56
             125.91,267.11 127.84,268.86 130.83,267.56
             133.95,266.56 144.47,258.03 146.38,255.13
             149.01,251.13 148.75,249.26 150.00,247.37
             152.81,243.14 155.32,244.86 157.00,237.00
             157.00,237.00 149.00,237.00 149.00,237.00
             149.00,237.00 155.92,227.72 155.92,227.72
             155.92,227.72 153.22,219.00 153.22,219.00
             153.22,219.00 157.00,208.00 157.00,208.00
             157.00,208.00 136.00,204.00 136.00,204.00
             136.00,204.00 152.00,193.00 152.00,193.00
             148.22,190.17 148.98,188.85 151.00,185.00
             141.81,185.77 142.37,172.68 144.02,170.60
             145.66,168.52 150.55,169.00 153.00,169.00
             153.00,175.33 152.05,178.39 158.00,182.00
             159.65,186.97 164.71,186.49 169.00,187.25
             169.00,187.25 184.00,190.86 184.00,190.86
             191.94,191.52 198.54,184.15 203.00,195.00
             208.84,192.96 213.17,192.16 212.00,185.00
             215.60,186.19 215.69,186.46 217.00,190.00
             217.00,190.00 223.00,188.00 223.00,188.00
             220.54,184.56 221.31,183.85 220.41,180.00
             218.91,173.58 217.61,170.13 224.58,166.25
             228.45,164.10 232.04,165.85 234.22,163.40
             235.02,162.51 235.33,161.29 235.04,160.13
             234.08,156.27 228.01,157.00 225.00,157.00
             225.00,157.00 226.00,150.00 226.00,150.00
             226.00,150.00 233.00,151.00 233.00,151.00
             233.00,151.00 233.00,143.00 233.00,143.00
             233.00,143.00 241.00,143.00 241.00,143.00
             241.00,143.00 239.00,135.00 239.00,135.00
             246.71,132.65 243.15,130.24 245.71,125.17
             246.80,123.00 250.06,120.28 247.40,117.79
             245.20,115.74 242.56,118.29 238.00,119.00
             238.00,119.00 238.00,115.00 238.00,115.00
             228.09,116.15 230.98,120.71 225.00,125.00
             225.00,125.00 227.00,112.93 227.00,112.93
             227.00,112.93 224.02,112.93 224.02,112.93
             216.51,111.63 221.94,106.15 220.48,101.18
             219.48,97.78 214.68,95.05 214.78,90.00
             214.85,86.14 218.91,82.26 221.25,79.42
             221.25,79.42 233.00,63.00 233.00,63.00
             233.00,63.00 237.00,64.00 237.00,64.00
             237.92,60.74 237.79,60.25 241.00,59.00
             241.17,60.02 241.12,60.82 241.59,61.86
             244.87,69.15 249.81,61.00 252.39,59.07
             252.39,59.07 261.00,54.67 261.00,54.67
             273.20,47.87 270.28,50.51 281.00,46.24
             281.00,46.24 293.00,40.31 293.00,40.31
             303.25,35.61 310.11,33.44 320.00,27.00
             320.00,27.00 321.00,42.00 321.00,42.00 Z" />
</svg>
