<?xml version="1.0" encoding="UTF-8" standalone="no"?>
<!DOCTYPE svg PUBLIC "-//W3C//DTD SVG 20010904//EN"
              "http://www.w3.org/TR/2001/REC-SVG-20010904/DTD/svg10.dtd">

<svg xmlns="http://www.w3.org/2000/svg"
     width="5.55486in" height="5.55486in"
     viewBox="0 0 400 400">
  <path id="Selection"
        fill="none" stroke="black" stroke-width="1"
        d="M 162.00,93.42
           C 162.00,93.42 173.43,87.94 173.43,87.94
             176.03,87.16 178.69,88.90 181.00,89.93
             190.84,94.30 188.92,92.29 192.32,101.00
             194.44,106.41 194.61,104.88 194.00,111.00
             200.50,110.77 202.45,109.76 203.00,103.00
             209.47,103.21 207.93,103.87 213.04,106.88
             213.04,106.88 218.83,109.89 218.83,109.89
             220.48,110.98 222.92,113.82 224.82,113.80
             226.92,113.79 227.43,111.52 228.00,109.85
             228.00,109.85 230.94,109.85 230.94,109.85
             238.03,107.58 230.14,102.96 228.00,99.00
             228.00,99.00 248.00,99.00 248.00,99.00
             248.00,99.00 251.05,113.00 251.05,113.00
             251.05,113.00 254.58,123.66 254.58,123.66
             254.58,123.66 262.69,129.55 262.69,129.55
             262.69,129.55 269.06,137.73 269.06,137.73
             269.06,137.73 287.00,143.00 287.00,143.00
             289.38,133.51 294.21,136.87 295.00,127.00
             295.00,127.00 301.00,125.00 301.00,125.00
             302.64,131.25 300.66,131.60 301.65,136.00
             302.60,140.20 305.71,143.34 306.29,146.00
             306.95,148.99 305.04,151.31 305.44,153.90
             306.31,159.55 314.84,159.00 319.00,159.00
             316.71,171.83 321.00,171.69 320.90,178.96
             320.83,183.89 317.43,184.13 317.01,187.14
             316.77,188.86 318.06,190.64 318.54,192.28
             318.54,192.28 321.00,203.00 321.00,203.00
             316.01,204.47 314.47,206.01 313.00,211.00
             313.00,211.00 317.00,212.00 317.00,212.00
             317.00,212.00 311.98,218.01 311.98,218.01
             311.98,218.01 313.43,230.00 313.43,230.00
             313.43,230.00 312.00,253.00 312.00,253.00
             303.09,256.09 304.25,257.56 300.28,264.58
             298.73,267.32 297.12,268.58 295.63,272.00
             293.09,277.86 294.95,277.76 288.98,282.85
             282.39,288.47 275.83,287.90 274.28,292.13
             273.45,294.39 276.34,300.06 277.00,303.00
             272.43,301.08 271.85,300.88 267.00,302.00
             264.55,296.59 260.72,293.47 255.00,292.00
             255.00,292.00 255.00,297.00 255.00,297.00
             255.00,297.00 253.00,297.00 253.00,297.00
             253.00,297.00 253.00,292.00 253.00,292.00
             253.00,292.00 247.00,292.00 247.00,292.00
             247.00,292.00 247.00,297.00 247.00,297.00
             236.08,292.39 222.55,296.09 209.00,291.00
             209.30,292.29 210.51,295.79 210.17,296.93
             208.89,300.86 199.81,297.50 197.00,296.93
             195.18,305.53 188.77,306.91 181.00,307.00
             180.94,305.39 181.03,303.66 180.40,302.13
             179.47,299.84 174.34,295.61 171.93,295.11
             168.42,294.39 166.22,297.01 169.00,301.00
             169.00,301.00 169.00,303.00 169.00,303.00
             166.87,306.32 167.92,307.40 169.00,311.00
             161.47,310.02 157.50,305.21 155.00,313.00
             149.52,310.75 149.50,311.31 144.00,313.00
             141.59,309.31 141.33,308.95 137.00,308.00
             137.00,308.00 137.00,313.00 137.00,313.00
             137.00,313.00 127.00,311.11 127.00,311.11
             127.00,311.11 119.26,312.16 119.26,312.16
             119.26,312.16 108.00,306.00 108.00,306.00
             113.20,296.12 117.20,300.93 118.00,291.00
             111.88,291.00 100.56,291.40 95.02,289.72
             90.70,288.42 88.13,284.42 90.17,280.09
             90.91,278.52 92.86,276.42 94.00,275.00
             89.05,276.85 87.08,278.01 83.00,274.00
             83.00,274.00 85.00,267.00 85.00,267.00
             85.00,267.00 80.00,266.00 80.00,266.00
             80.00,266.00 92.41,261.26 92.41,261.26
             92.41,261.26 97.15,254.17 97.15,254.17
             97.15,254.17 108.00,251.00 108.00,251.00
             108.00,251.00 89.00,248.00 89.00,248.00
             89.00,248.00 85.00,245.17 85.00,245.17
             90.70,238.33 93.56,242.40 100.00,245.17
             105.54,247.86 112.92,250.81 119.00,251.00
             119.00,251.00 117.00,235.00 117.00,235.00
             117.00,235.00 129.00,235.00 129.00,235.00
             129.01,231.15 128.12,228.61 132.00,227.00
             132.00,227.00 131.00,231.00 131.00,231.00
             131.00,231.00 140.00,230.00 140.00,230.00
             140.00,230.00 139.00,233.00 139.00,233.00
             139.00,233.00 146.00,223.00 146.00,223.00
             146.00,223.00 140.00,222.00 140.00,222.00
             140.38,217.47 139.60,217.37 136.00,215.00
             144.38,214.99 150.33,214.38 150.00,204.00
             150.00,204.00 157.00,205.00 157.00,205.00
             157.00,205.00 155.29,198.83 155.29,198.83
             154.92,194.55 158.62,190.03 163.01,189.93
             166.96,189.83 174.29,195.41 180.95,191.83
             186.82,188.66 186.03,182.60 186.00,177.00
             178.31,176.91 176.51,173.86 169.00,177.00
             169.00,177.00 158.14,171.49 158.14,171.49
             158.14,171.49 159.00,159.00 159.00,159.00
             159.00,159.00 147.00,159.00 147.00,159.00
             147.87,150.38 143.24,151.97 137.00,153.00
             137.00,153.00 136.00,148.00 136.00,148.00
             139.67,145.56 139.42,145.06 138.00,141.00
             138.00,141.00 147.00,142.78 147.00,142.78
             147.00,142.78 159.00,145.00 159.00,145.00
             159.00,145.00 159.00,141.00 159.00,141.00
             148.54,138.40 150.24,130.93 156.02,129.56
             160.47,128.51 162.16,132.16 170.00,133.00
             170.00,133.00 173.00,118.00 173.00,118.00
             161.67,116.50 164.44,116.46 162.00,108.00
             161.83,112.89 159.83,117.58 154.22,113.40
             151.80,111.60 150.09,107.76 149.00,105.00
             149.00,105.00 153.00,99.00 153.00,99.00
             157.27,98.24 158.64,95.77 162.00,93.42 Z
           M 174.00,216.00
           C 174.00,216.00 175.00,217.00 175.00,217.00
             175.00,217.00 175.00,216.00 175.00,216.00
             175.00,216.00 174.00,216.00 174.00,216.00 Z
           M 262.00,216.00
           C 262.00,216.00 263.00,217.00 263.00,217.00
             263.00,217.00 263.00,216.00 263.00,216.00
             263.00,216.00 262.00,216.00 262.00,216.00 Z" />
</svg>
