<?xml version="1.0" encoding="UTF-8" standalone="no"?>
<!DOCTYPE svg PUBLIC "-//W3C//DTD SVG 20010904//EN"
              "http://www.w3.org/TR/2001/REC-SVG-20010904/DTD/svg10.dtd">

<svg xmlns="http://www.w3.org/2000/svg"
     width="4.16615in" height="5.55486in"
     viewBox="0 0 300 400">
  <path id="Selection"
        fill="red" stroke="black" stroke-width="1"
        d="M 162.00,57.00
           C 169.44,56.47 169.67,54.30 175.00,50.00
             175.00,50.00 173.00,59.00 173.00,59.00
             173.00,59.00 183.00,57.05 183.00,57.05
             183.00,57.05 200.00,57.05 200.00,57.05
             210.92,57.02 209.32,58.89 218.00,59.00
             222.15,59.04 224.97,59.16 228.99,57.80
             228.99,57.80 237.07,54.31 237.07,54.31
             247.36,52.38 238.51,63.48 238.15,64.04
             237.76,65.58 237.97,66.48 238.15,68.00
             238.15,68.00 233.00,65.00 233.00,65.00
             233.06,72.76 233.35,78.12 224.00,80.42
             221.37,81.07 219.18,80.17 216.32,81.72
             213.20,83.43 212.20,86.63 207.99,88.44
             200.11,91.83 193.63,88.58 191.00,99.00
             191.00,99.00 179.00,100.00 179.00,100.00
             179.00,100.00 179.00,107.00 179.00,107.00
             179.00,107.00 173.00,105.00 173.00,105.00
             173.00,105.00 172.00,113.00 172.00,113.00
             176.47,113.97 180.50,114.95 183.00,119.00
             183.00,119.00 172.00,119.00 172.00,119.00
             172.00,119.00 174.00,128.00 174.00,128.00
             168.64,131.60 169.06,133.90 169.00,140.00
             169.00,140.00 177.72,135.71 177.72,135.71
             177.72,135.71 184.01,136.96 184.01,136.96
             184.01,136.96 192.00,133.16 192.00,133.16
             199.80,137.02 201.40,131.43 208.96,133.16
             214.42,134.67 214.06,139.41 219.05,140.69
             219.05,140.69 231.00,141.37 231.00,141.37
             231.00,141.37 252.00,146.98 252.00,146.98
             260.29,148.67 266.83,148.57 271.00,157.00
             265.58,163.52 267.75,172.11 257.00,173.00
             255.74,181.96 251.45,180.39 249.81,185.18
             248.74,187.44 249.58,190.67 249.81,193.00
             243.59,197.72 245.22,198.89 237.00,199.00
             237.00,201.67 237.25,207.74 236.40,209.99
             234.01,216.32 224.94,217.94 219.00,219.00
             219.00,219.00 219.00,229.00 219.00,229.00
             219.00,229.00 209.00,235.00 209.00,235.00
             209.00,235.00 200.00,231.00 200.00,231.00
             200.00,231.00 194.00,241.00 194.00,241.00
             194.00,241.00 201.00,241.00 201.00,241.00
             201.00,241.00 197.00,249.00 197.00,249.00
             199.67,249.18 204.47,249.68 205.83,252.45
             207.12,255.06 204.19,256.63 201.98,256.73
             198.95,256.86 195.70,254.55 192.09,255.33
             188.87,256.02 187.45,258.73 183.99,260.15
             183.99,260.15 167.00,263.00 167.00,263.00
             167.00,263.00 167.00,259.00 167.00,259.00
             162.91,262.67 162.10,266.05 160.00,271.00
             166.71,273.49 166.36,272.72 173.00,271.00
             174.02,274.19 175.00,275.71 178.02,277.49
             184.56,281.34 189.84,276.87 196.00,275.23
             198.66,274.84 202.22,275.00 205.00,275.23
             205.23,281.63 206.38,282.61 213.00,283.00
             213.00,283.00 213.00,290.00 213.00,290.00
             222.67,290.25 221.80,293.95 227.00,301.00
             227.00,301.00 223.00,302.00 223.00,302.00
             225.45,307.76 232.45,311.81 230.68,318.96
             229.25,324.76 213.43,329.81 208.00,332.31
             208.00,332.31 195.00,338.54 195.00,338.54
             195.00,338.54 181.00,343.49 181.00,343.49
             175.14,346.28 169.81,350.95 163.00,351.34
             156.36,351.72 143.41,345.97 137.00,344.00
             137.00,344.00 135.00,353.00 135.00,353.00
             123.35,352.81 127.29,352.49 116.00,356.00
             116.00,356.00 109.00,349.00 109.00,349.00
             101.38,347.72 103.99,343.89 99.88,342.17
             97.43,341.14 95.92,342.86 95.16,345.06
             94.24,348.97 96.08,353.69 95.16,359.00
             86.32,354.20 89.03,340.96 75.00,339.00
             75.00,331.17 73.42,327.13 79.27,321.27
             83.07,317.47 83.66,317.19 89.00,317.00
             89.00,317.00 90.60,308.01 90.60,308.01
             90.60,308.01 105.92,294.00 105.92,294.00
             105.92,294.00 105.00,280.84 105.00,280.84
             105.00,280.84 102.12,280.84 102.12,280.84
             95.45,278.68 101.94,270.77 102.12,269.02
             102.48,264.95 98.61,265.74 96.30,267.06
             96.30,267.06 93.00,269.00 93.00,269.00
             93.00,269.00 95.00,264.00 95.00,264.00
             89.52,262.43 84.80,258.13 84.00,267.00
             65.79,270.89 64.81,282.32 56.20,289.14
             54.17,290.74 50.50,291.91 48.00,293.00
             50.97,279.24 55.39,278.66 60.23,271.71
             60.23,271.71 64.00,265.00 64.00,265.00
             64.00,265.00 66.00,268.00 66.00,268.00
             68.08,263.77 68.28,263.38 73.00,263.00
             73.00,263.00 71.00,255.00 71.00,255.00
             71.00,255.00 67.00,255.00 67.00,255.00
             67.00,255.00 70.18,245.00 70.18,245.00
             70.18,245.00 70.18,237.00 70.18,237.00
             64.20,237.13 59.07,238.79 54.21,242.05
             50.43,244.59 51.16,246.42 46.00,247.00
             46.00,247.00 39.00,259.00 39.00,259.00
             39.00,259.00 34.00,259.00 34.00,259.00
             34.22,251.78 31.47,251.12 29.00,245.00
             35.73,244.19 35.06,244.23 41.00,241.00
             41.00,241.00 42.00,244.00 42.00,244.00
             45.12,237.77 56.24,232.74 63.00,231.38
             70.37,229.89 81.27,231.24 82.22,221.00
             82.63,219.32 82.25,217.65 82.22,216.00
             82.22,216.00 87.00,211.00 87.00,211.00
             87.00,211.00 98.00,213.00 98.00,213.00
             89.35,204.54 84.37,203.06 73.00,200.00
             73.00,200.00 74.00,203.00 74.00,203.00
             66.98,206.54 69.73,206.97 61.00,207.00
             61.00,207.00 61.00,203.00 61.00,203.00
             61.00,203.00 57.00,202.00 57.00,202.00
             57.00,202.00 67.00,198.00 67.00,198.00
             67.00,198.00 55.00,188.00 55.00,188.00
             55.00,188.00 61.00,185.00 61.00,185.00
             61.00,185.00 62.00,189.00 62.00,189.00
             63.23,181.64 65.34,185.29 71.00,178.00
             71.00,178.00 64.00,177.00 64.00,177.00
             64.00,177.00 64.00,175.00 64.00,175.00
             64.00,175.00 72.00,175.00 72.00,175.00
             72.00,175.00 79.00,182.00 79.00,182.00
             79.00,182.00 85.00,180.00 85.00,180.00
             85.00,180.00 79.00,178.00 79.00,178.00
             79.00,178.00 83.00,177.00 83.00,177.00
             83.00,177.00 83.00,173.00 83.00,173.00
             83.00,173.00 89.00,173.00 89.00,173.00
             89.00,173.00 89.00,167.00 89.00,167.00
             85.23,165.78 85.11,165.32 83.00,162.00
             83.00,162.00 94.00,165.00 94.00,165.00
             94.00,165.00 91.00,151.00 91.00,151.00
             86.73,149.51 82.58,145.58 79.47,142.26
             75.88,138.43 77.21,135.46 71.00,136.00
             71.00,136.00 68.00,129.00 68.00,129.00
             68.00,129.00 72.00,129.00 72.00,129.00
             72.00,129.00 68.00,117.00 68.00,117.00
             68.00,117.00 77.00,115.00 77.00,115.00
             77.22,119.00 77.69,119.35 78.65,123.00
             81.57,134.16 85.65,137.88 95.00,144.00
             95.00,144.00 101.00,125.00 101.00,125.00
             101.00,125.00 97.00,125.00 97.00,125.00
             97.00,125.00 97.00,117.00 97.00,117.00
             97.00,117.00 104.95,119.90 104.95,119.90
             111.06,119.17 104.03,107.73 103.00,105.00
             103.00,105.00 107.00,105.00 107.00,105.00
             107.00,105.00 107.00,99.00 107.00,99.00
             112.35,100.92 116.63,101.63 116.00,94.00
             116.00,94.00 125.00,96.03 125.00,96.03
             129.50,95.70 134.55,89.43 137.00,86.00
             137.00,86.00 131.00,87.00 131.00,87.00
             131.00,87.00 131.00,81.00 131.00,81.00
             137.89,78.30 139.90,76.05 137.00,69.00
             137.00,69.00 146.00,67.00 146.00,67.00
             150.77,70.44 152.91,67.96 154.00,63.00
             149.33,63.86 147.59,63.78 146.00,59.00
             157.27,60.45 152.07,50.62 153.50,46.33
             154.29,43.95 157.05,42.41 159.00,41.00
             164.19,46.68 162.91,50.08 162.00,57.00 Z
           M 72.00,199.00
           C 72.00,199.00 73.00,200.00 73.00,200.00
             73.00,200.00 73.00,199.00 73.00,199.00
             73.00,199.00 72.00,199.00 72.00,199.00 Z
           M 36.00,245.00
           C 36.00,245.00 37.00,246.00 37.00,246.00
             37.00,246.00 37.00,245.00 37.00,245.00
             37.00,245.00 36.00,245.00 36.00,245.00 Z
           M 37.00,246.00
           C 37.00,246.00 38.00,247.00 38.00,247.00
             38.00,247.00 38.00,246.00 38.00,246.00
             38.00,246.00 37.00,246.00 37.00,246.00 Z
           M 38.00,247.00
           C 38.00,247.00 39.00,248.00 39.00,248.00
             39.00,248.00 39.00,247.00 39.00,247.00
             39.00,247.00 38.00,247.00 38.00,247.00 Z" />
</svg>
