<?xml version="1.0" encoding="UTF-8" standalone="no"?>
<!DOCTYPE svg PUBLIC "-//W3C//DTD SVG 20010904//EN"
              "http://www.w3.org/TR/2001/REC-SVG-20010904/DTD/svg10.dtd">

<svg xmlns="http://www.w3.org/2000/svg"
     width="43.6334in" height="36.3288in"
     viewBox="0 0 3142 2616">
  <path id="Scotland"
        fill="Red" stroke="black" stroke-width="1"
        d="M 854.00,465.00
           C 861.44,464.47 861.67,462.30 867.00,458.00
             867.00,458.00 865.00,467.00 865.00,467.00
             865.00,467.00 875.00,465.05 875.00,465.05
             875.00,465.05 892.00,465.05 892.00,465.05
             902.92,465.02 901.32,466.89 910.00,467.00
             914.15,467.04 916.97,467.16 920.99,465.80
             920.99,465.80 929.07,462.31 929.07,462.31
             939.36,460.38 930.51,471.48 930.15,472.04
             929.76,473.58 929.97,474.48 930.15,476.00
             930.15,476.00 925.00,473.00 925.00,473.00
             925.06,480.76 925.35,486.12 916.00,488.42
             913.37,489.07 911.18,488.17 908.32,489.72
             905.20,491.43 904.20,494.63 899.99,496.44
             892.11,499.83 885.63,496.58 883.00,507.00
             883.00,507.00 871.00,508.00 871.00,508.00
             871.00,508.00 871.00,515.00 871.00,515.00
             871.00,515.00 865.00,513.00 865.00,513.00
             865.00,513.00 864.00,521.00 864.00,521.00
             868.47,521.97 872.50,522.95 875.00,527.00
             875.00,527.00 864.00,527.00 864.00,527.00
             864.00,527.00 866.00,536.00 866.00,536.00
             860.64,539.60 861.06,541.90 861.00,548.00
             861.00,548.00 869.72,543.71 869.72,543.71
             869.72,543.71 876.01,544.96 876.01,544.96
             876.01,544.96 884.00,541.16 884.00,541.16
             891.80,545.02 893.40,539.43 900.96,541.16
             906.42,542.67 906.06,547.41 911.05,548.69
             911.05,548.69 923.00,549.37 923.00,549.37
             923.00,549.37 944.00,554.98 944.00,554.98
             952.29,556.67 958.83,556.57 963.00,565.00
             957.58,571.52 959.75,580.11 949.00,581.00
             947.74,589.96 943.45,588.39 941.81,593.18
             940.74,595.44 941.58,598.67 941.81,601.00
             935.59,605.72 937.22,606.89 929.00,607.00
             929.00,609.67 929.25,615.74 928.40,617.99
             926.01,624.32 916.94,625.94 911.00,627.00
             911.00,627.00 911.00,637.00 911.00,637.00
             911.00,637.00 901.00,643.00 901.00,643.00
             901.00,643.00 892.00,639.00 892.00,639.00
             892.00,639.00 886.00,649.00 886.00,649.00
             886.00,649.00 893.00,649.00 893.00,649.00
             893.00,649.00 889.00,657.00 889.00,657.00
             891.67,657.18 896.47,657.68 897.83,660.45
             899.12,663.06 896.19,664.63 893.98,664.73
             890.95,664.86 887.70,662.55 884.09,663.33
             880.87,664.02 879.45,666.73 875.99,668.15
             875.99,668.15 859.00,671.00 859.00,671.00
             859.00,671.00 859.00,667.00 859.00,667.00
             854.91,670.67 854.10,674.05 852.00,679.00
             858.71,681.49 858.36,680.72 865.00,679.00
             866.02,682.19 867.00,683.71 870.02,685.49
             876.56,689.34 881.84,684.87 888.00,683.23
             890.66,682.84 894.22,683.00 897.00,683.23
             897.23,689.63 898.38,690.61 905.00,691.00
             905.00,691.00 905.00,698.00 905.00,698.00
             914.67,698.25 913.80,701.95 919.00,709.00
             919.00,709.00 915.00,710.00 915.00,710.00
             917.45,715.76 924.45,719.81 922.68,726.96
             921.20,732.94 905.51,737.78 900.00,740.31
             900.00,740.31 887.00,746.54 887.00,746.54
             887.00,746.54 873.00,751.49 873.00,751.49
             867.34,754.19 861.65,759.17 855.00,759.39
             848.11,759.61 835.57,754.02 829.00,752.00
             829.00,752.00 827.00,761.00 827.00,761.00
             815.35,760.81 819.29,760.49 808.00,764.00
             808.00,764.00 801.00,757.00 801.00,757.00
             793.38,755.72 795.99,751.89 791.88,750.17
             789.43,749.14 787.92,750.86 787.16,753.06
             786.24,756.97 788.08,761.69 787.16,767.00
             778.32,762.20 781.03,748.96 767.00,747.00
             767.00,739.17 765.42,735.13 771.27,729.27
             775.07,725.47 775.66,725.19 781.00,725.00
             781.00,725.00 782.60,716.01 782.60,716.01
             782.60,716.01 797.92,702.00 797.92,702.00
             797.92,702.00 797.00,688.84 797.00,688.84
             797.00,688.84 794.12,688.84 794.12,688.84
             787.45,686.68 793.94,678.77 794.12,677.02
             794.48,672.95 790.61,673.74 788.30,675.06
             788.30,675.06 785.00,677.00 785.00,677.00
             785.00,677.00 787.00,673.00 787.00,673.00
             781.81,670.68 776.83,665.88 776.00,675.00
             758.31,678.78 757.28,689.97 748.20,697.14
             746.15,698.75 742.51,699.90 740.00,701.00
             743.14,686.47 747.42,686.54 752.23,679.71
             752.23,679.71 756.00,673.00 756.00,673.00
             756.00,673.00 758.00,676.00 758.00,676.00
             759.81,671.72 760.41,671.36 765.00,671.00
             763.70,666.60 763.14,665.19 759.00,663.00
             759.00,663.00 761.95,654.96 761.95,654.96
             761.95,654.96 761.95,645.00 761.95,645.00
             756.50,645.14 750.83,646.99 746.21,650.06
             742.42,652.57 743.19,654.41 738.00,655.00
             738.00,655.00 731.00,667.00 731.00,667.00
             731.00,667.00 726.00,667.00 726.00,667.00
             726.04,660.23 723.34,659.12 721.00,653.00
             721.00,653.00 733.00,649.00 733.00,649.00
             733.00,649.00 734.00,652.00 734.00,652.00
             737.12,645.77 748.24,640.74 755.00,639.38
             762.37,637.89 773.27,639.24 774.22,629.00
             774.63,627.32 774.25,625.65 774.22,624.00
             774.22,624.00 779.00,619.00 779.00,619.00
             779.00,619.00 790.00,621.00 790.00,621.00
             781.62,612.81 776.08,610.98 765.00,608.00
             765.00,608.00 766.00,611.00 766.00,611.00
             758.98,614.54 761.73,614.97 753.00,615.00
             753.00,615.00 753.00,611.00 753.00,611.00
             753.00,611.00 749.00,610.00 749.00,610.00
             749.00,610.00 759.00,606.00 759.00,606.00
             759.00,606.00 747.00,596.00 747.00,596.00
             747.00,596.00 753.00,593.00 753.00,593.00
             753.00,593.00 754.00,597.00 754.00,597.00
             755.23,589.64 757.34,593.29 763.00,586.00
             763.00,586.00 756.00,585.00 756.00,585.00
             756.00,585.00 756.00,583.00 756.00,583.00
             756.00,583.00 764.00,583.00 764.00,583.00
             768.30,587.07 769.51,585.91 775.00,585.00
             775.00,585.00 775.00,581.00 775.00,581.00
             775.00,581.00 781.00,581.00 781.00,581.00
             781.00,581.00 781.00,575.00 781.00,575.00
             777.23,573.78 777.11,573.32 775.00,570.00
             775.00,570.00 786.00,573.00 786.00,573.00
             786.00,573.00 783.00,559.00 783.00,559.00
             779.21,557.68 773.30,552.73 770.69,549.63
             767.57,545.91 768.91,543.49 763.00,544.00
             763.00,544.00 760.00,537.00 760.00,537.00
             760.00,537.00 764.00,537.00 764.00,537.00
             764.00,537.00 760.00,525.00 760.00,525.00
             760.00,525.00 769.00,523.00 769.00,523.00
             769.71,535.68 776.77,545.09 787.00,552.00
             787.00,552.00 793.00,533.00 793.00,533.00
             793.00,533.00 789.00,533.00 789.00,533.00
             789.00,533.00 789.00,525.00 789.00,525.00
             789.00,525.00 796.95,527.90 796.95,527.90
             803.06,527.17 796.03,515.73 795.00,513.00
             795.00,513.00 799.00,513.00 799.00,513.00
             799.00,513.00 799.00,507.00 799.00,507.00
             804.35,508.92 808.63,509.63 808.00,502.00
             808.00,502.00 817.00,504.03 817.00,504.03
             821.50,503.70 826.55,497.43 829.00,494.00
             829.00,494.00 823.00,495.00 823.00,495.00
             823.00,495.00 823.00,489.00 823.00,489.00
             829.89,486.30 831.90,484.05 829.00,477.00
             829.00,477.00 838.00,475.00 838.00,475.00
             842.77,478.44 844.91,475.96 846.00,471.00
             841.33,471.86 839.59,471.78 838.00,467.00
             849.27,468.45 844.07,458.62 845.50,454.33
             846.29,451.95 849.05,450.41 851.00,449.00
             856.19,454.68 854.91,458.08 854.00,465.00 Z
           M 771.00,590.00
           C 771.00,590.00 777.00,588.00 777.00,588.00
             773.64,587.13 772.46,586.51 771.00,590.00 Z
           M 764.00,607.00
           C 764.00,607.00 765.00,608.00 765.00,608.00
             765.00,608.00 765.00,607.00 765.00,607.00
             765.00,607.00 764.00,607.00 764.00,607.00 Z
           M 728.00,653.00
           C 728.00,653.00 729.00,654.00 729.00,654.00
             729.00,654.00 729.00,653.00 729.00,653.00
             729.00,653.00 728.00,653.00 728.00,653.00 Z
           M 729.00,654.00
           C 729.00,654.00 730.00,655.00 730.00,655.00
             730.00,655.00 730.00,654.00 730.00,654.00
             730.00,654.00 729.00,654.00 729.00,654.00 Z
           M 730.00,655.00
           C 730.00,655.00 731.00,656.00 731.00,656.00
             731.00,656.00 731.00,655.00 731.00,655.00
             731.00,655.00 730.00,655.00 730.00,655.00 Z
           M 783.00,658.00
           C 783.00,658.00 784.00,659.00 784.00,659.00
             784.00,659.00 784.00,658.00 784.00,658.00
             784.00,658.00 783.00,658.00 783.00,658.00 Z" />
</svg>
