<?xml version="1.0" encoding="UTF-8" standalone="no"?>
<!DOCTYPE svg PUBLIC "-//W3C//DTD SVG 20010904//EN"
              "http://www.w3.org/TR/2001/REC-SVG-20010904/DTD/svg10.dtd">

<svg xmlns="http://www.w3.org/2000/svg"
     width="13.8872in" height="13.8872in"
     viewBox="0 0 1000 1000">
  <path id="Baltic"
        fill="none" stroke="black" stroke-width="1"
        d="M 1000.00,0.00
           C 1000.00,0.00 1000.00,1000.00 1000.00,1000.00
             1000.00,1000.00 0.00,1000.00 0.00,1000.00
             0.00,1000.00 0.00,0.00 0.00,0.00
             0.00,0.00 1000.00,0.00 1000.00,0.00 Z
           M 601.99,265.62
           C 601.99,265.62 592.00,265.11 592.00,265.11
             592.00,265.11 582.00,265.11 582.00,265.11
             582.00,265.11 565.00,268.03 565.00,268.03
             565.00,268.03 555.00,263.05 555.00,263.05
             555.00,263.05 548.00,263.05 548.00,263.05
             548.00,263.05 525.00,259.00 525.00,259.00
             519.05,267.03 515.80,265.17 507.00,265.00
             506.37,273.54 500.53,275.64 493.00,273.00
             493.00,273.00 493.00,277.00 493.00,277.00
             493.00,277.00 485.00,275.60 485.00,275.60
             485.00,275.60 469.00,282.37 469.00,282.37
             469.00,282.37 457.00,281.00 457.00,281.00
             455.96,286.45 450.97,295.74 445.68,298.16
             442.70,299.52 440.20,298.41 436.09,300.12
             436.09,300.12 426.00,306.00 426.00,306.00
             426.97,313.38 427.53,312.02 425.00,319.00
             433.18,319.29 432.97,321.61 433.00,329.00
             433.00,329.00 425.00,329.00 425.00,329.00
             425.00,329.00 427.00,338.00 427.00,338.00
             427.00,338.00 441.00,337.00 441.00,337.00
             440.74,344.36 438.18,346.06 431.00,347.00
             431.14,358.20 435.13,355.81 438.15,362.28
             439.34,364.84 438.70,367.46 440.60,369.41
             442.98,371.85 444.48,369.70 449.00,375.00
             456.37,374.10 454.52,374.29 461.00,377.00
             462.18,374.63 463.51,371.09 465.30,369.28
             468.58,365.96 476.08,365.21 478.26,370.14
             480.13,374.38 477.12,378.68 477.10,382.96
             477.08,386.42 478.45,387.55 478.94,391.04
             478.94,391.04 478.94,401.00 478.94,401.00
             478.94,401.00 484.00,399.00 484.00,399.00
             484.00,399.00 484.00,409.00 484.00,409.00
             477.00,410.76 476.84,413.35 477.02,420.00
             477.02,420.00 483.19,451.00 483.19,451.00
             483.98,455.44 485.99,459.16 484.19,463.72
             483.21,466.20 479.75,470.76 478.14,473.13
             472.35,481.65 462.58,494.44 451.00,494.25
             446.86,494.18 443.49,491.02 440.00,489.21
             435.34,486.79 432.72,487.37 430.23,485.41
             427.14,482.98 427.27,479.42 425.89,476.09
             423.68,470.76 420.44,466.95 419.00,461.00
             407.70,458.20 410.81,451.17 397.00,451.00
             396.80,444.52 395.33,441.49 392.00,436.00
             392.00,436.00 376.83,444.67 376.83,444.67
             376.83,444.67 359.00,451.00 359.00,451.00
             358.37,460.27 351.36,471.40 349.37,482.00
             348.05,489.08 350.44,496.62 347.57,503.42
             343.87,512.20 338.83,510.66 336.83,516.09
             336.35,517.95 337.00,525.34 336.83,528.00
             336.83,528.00 336.83,552.00 336.83,552.00
             337.29,564.25 336.47,569.80 344.91,580.00
             340.74,585.79 344.75,589.91 344.91,596.00
             344.87,600.24 343.25,605.71 344.21,612.00
             344.66,614.97 352.09,630.06 353.93,632.83
             357.73,638.57 364.47,642.54 367.00,648.00
             369.94,648.00 376.51,647.72 379.00,648.59
             383.08,650.02 386.65,653.89 395.00,654.69
             398.16,654.99 400.04,653.74 403.00,653.06
             403.00,653.06 412.00,653.06 412.00,653.06
             416.76,652.34 416.20,651.21 423.00,651.00
             424.42,661.02 436.63,663.94 438.09,672.01
             438.84,676.16 435.38,677.75 433.60,685.00
             432.62,688.96 433.00,700.29 433.00,705.00
             433.00,705.00 436.00,702.00 436.00,702.00
             436.00,702.00 446.00,708.00 446.00,708.00
             455.32,707.07 450.72,712.14 455.31,714.40
             457.03,715.25 462.17,714.75 467.98,718.26
             474.31,722.08 473.90,725.98 475.72,732.00
             475.72,732.00 479.00,741.00 479.00,741.00
             479.00,741.00 507.00,735.27 507.00,735.27
             510.44,735.71 514.03,738.13 519.00,736.15
             523.38,734.40 526.83,729.78 533.00,727.00
             533.00,724.78 532.80,720.03 533.60,718.13
             535.86,712.77 544.21,713.00 549.00,713.00
             549.10,709.98 549.09,706.80 551.57,704.60
             555.13,701.44 559.36,705.05 564.45,697.91
             569.28,691.15 567.14,681.66 573.00,675.00
             573.00,675.00 573.00,673.00 573.00,673.00
             572.44,672.24 572.15,672.39 571.54,670.78
             571.54,670.78 569.40,656.09 569.40,656.09
             569.80,653.62 571.51,652.39 572.42,649.91
             573.26,647.67 572.84,645.56 574.60,643.57
             576.87,640.99 583.65,639.43 587.00,639.00
             587.00,634.22 586.17,628.13 589.57,624.34
             594.14,619.25 599.77,621.99 603.99,620.40
             608.00,618.89 610.41,614.72 612.00,611.21
             608.81,611.10 603.51,612.43 601.02,611.21
             599.06,610.62 597.34,609.00 596.69,606.96
             595.36,602.78 599.21,589.22 601.03,585.00
             595.74,582.15 595.87,577.22 601.03,574.31
             603.93,572.70 607.79,573.00 611.00,573.00
             612.07,568.18 614.35,562.43 619.02,560.02
             622.47,558.24 639.12,559.00 644.00,559.00
             642.29,545.21 652.55,543.48 653.00,529.00
             658.47,528.61 664.89,524.68 664.27,518.28
             664.27,518.28 661.65,511.99 661.65,511.99
             660.40,507.90 661.70,504.12 660.01,501.55
             658.73,499.62 655.86,498.60 653.57,496.16
             650.51,492.89 651.18,490.22 649.00,487.41
             645.64,483.09 641.70,484.75 641.00,475.00
             641.00,475.00 631.00,477.00 631.00,477.00
             631.00,477.00 631.00,458.00 631.00,458.00
             631.10,450.93 635.81,440.88 630.06,434.72
             628.26,432.79 617.84,429.37 615.00,429.00
             615.00,429.00 615.00,423.00 615.00,423.00
             615.00,423.00 607.00,423.00 607.00,423.00
             607.00,423.00 605.48,413.00 605.48,413.00
             605.48,413.00 609.23,404.00 609.23,404.00
             609.23,404.00 610.61,397.17 610.61,397.17
             610.61,397.17 613.00,391.00 613.00,391.00
             616.76,390.37 617.11,390.35 619.00,387.00
             609.37,379.98 609.69,374.30 608.03,371.17
             608.03,371.17 601.00,360.00 601.00,360.00
             601.00,360.00 609.00,351.00 609.00,351.00
             609.29,347.51 609.03,346.99 612.00,345.00
             612.00,345.00 611.00,339.00 611.00,339.00
             611.00,339.00 615.00,339.00 615.00,339.00
             615.00,339.00 609.76,324.00 609.76,324.00
             609.76,324.00 608.40,307.17 608.40,307.17
             608.40,307.17 602.69,299.99 602.69,299.99
             602.69,299.99 599.00,293.00 599.00,293.00
             599.00,293.00 603.00,295.00 603.00,295.00
             603.00,295.00 603.51,273.17 603.51,273.17
             603.51,273.17 613.00,259.00 613.00,259.00
             613.00,259.00 601.99,265.62 601.99,265.62 Z
           M 773.00,630.00
           C 773.00,630.00 774.00,631.00 774.00,631.00
             774.00,631.00 774.00,630.00 774.00,630.00
             774.00,630.00 773.00,630.00 773.00,630.00 Z
           M 577.00,662.00
           C 577.00,662.00 578.00,663.00 578.00,663.00
             578.00,663.00 578.00,662.00 578.00,662.00
             578.00,662.00 577.00,662.00 577.00,662.00 Z" />
</svg>
