<?xml version="1.0" encoding="UTF-8" standalone="no"?>
<!DOCTYPE svg PUBLIC "-//W3C//DTD SVG 20010904//EN"
              "http://www.w3.org/TR/2001/REC-SVG-20010904/DTD/svg10.dtd">

<svg xmlns="http://www.w3.org/2000/svg"
     width="6.94358in" height="6.94358in"
     viewBox="0 0 500 500">
  <path id="Selection"
        fill="Yellow" stroke="black" stroke-width="1"
        d="M 223.00,56.26
           C 226.87,55.43 230.02,49.28 233.95,50.34
             238.80,51.64 242.47,67.43 250.72,60.69
             250.72,60.69 254.12,57.17 254.12,57.17
             254.12,57.17 258.00,53.00 258.00,53.00
             258.00,53.00 272.00,55.00 272.00,55.00
             272.00,62.03 270.85,66.28 275.61,72.07
             276.76,73.47 278.32,75.20 280.02,75.92
             284.16,77.68 286.89,73.68 289.58,71.29
             295.01,66.48 299.50,67.47 302.00,58.90
             302.00,58.90 313.00,58.90 313.00,58.90
             315.97,58.38 318.96,56.90 321.96,57.19
             324.48,57.43 330.34,60.98 331.40,63.30
             332.08,64.78 331.98,67.36 332.00,69.00
             332.00,69.00 349.00,72.00 349.00,72.00
             347.72,77.28 346.93,89.36 349.89,93.98
             353.52,99.64 358.58,99.19 359.98,106.00
             361.75,114.60 352.05,127.60 357.74,135.90
             359.74,138.81 363.15,140.11 366.00,142.00
             366.00,142.00 364.00,143.00 364.00,143.00
             364.00,143.00 376.00,147.00 376.00,147.00
             376.79,150.33 379.57,157.04 381.70,159.68
             386.95,166.20 391.87,164.07 392.00,177.00
             398.17,177.42 405.15,180.09 411.00,182.17
             414.21,183.32 417.70,184.25 419.66,187.26
             422.85,192.18 422.00,201.18 422.00,207.00
             422.00,207.00 433.00,206.49 433.00,206.49
             433.00,206.49 445.00,201.00 445.00,201.00
             449.78,205.71 452.03,204.18 454.43,206.16
             456.79,208.12 455.23,210.96 458.43,214.82
             462.25,219.42 470.58,222.54 476.00,225.00
             476.00,225.00 467.59,233.26 467.59,233.26
             467.59,233.26 463.23,244.58 463.23,244.58
             463.23,244.58 456.00,255.00 456.00,255.00
             456.00,255.00 442.00,254.08 442.00,254.08
             442.00,254.08 432.00,249.44 432.00,249.44
             432.00,249.44 416.00,253.00 416.00,253.00
             416.00,255.77 416.25,261.52 415.42,263.91
             414.57,266.36 412.65,267.75 412.58,270.09
             412.41,276.61 426.37,286.85 432.00,289.00
             431.38,298.21 427.02,299.63 438.00,306.00
             433.65,313.81 438.39,314.43 440.69,319.18
             442.11,322.13 441.04,323.68 442.50,327.00
             444.49,331.52 447.96,335.21 451.00,339.00
             447.87,339.00 443.92,338.73 441.00,339.84
             437.14,341.30 433.12,345.31 429.00,346.49
             424.89,347.68 421.05,345.88 416.57,350.06
             413.47,352.94 413.30,356.97 411.30,360.49
             406.86,368.28 409.03,366.73 407.19,370.48
             407.19,370.48 402.84,376.32 402.84,376.32
             401.75,378.71 402.02,382.37 402.00,385.00
             401.95,392.64 399.85,394.75 400.33,397.91
             400.80,401.05 403.07,402.13 404.49,404.32
             406.29,407.07 405.67,408.53 406.58,410.96
             408.44,415.96 410.85,414.47 410.00,421.00
             399.52,417.91 397.07,409.39 390.00,407.53
             384.95,406.19 378.71,410.74 374.00,412.24
             370.33,413.41 362.19,413.00 358.00,413.00
             357.45,419.63 356.19,417.88 351.09,419.69
             351.09,419.69 346.00,422.00 346.00,422.00
             344.16,418.67 338.65,407.48 335.81,406.07
             333.19,404.78 330.32,406.33 328.00,407.58
             321.65,411.03 316.77,415.23 314.00,422.00
             314.00,422.00 301.00,415.94 301.00,415.94
             301.00,415.94 292.00,419.00 292.00,419.00
             292.00,419.00 290.00,413.00 290.00,413.00
             280.81,413.74 282.16,419.06 276.00,420.43
             272.56,421.20 270.52,418.96 268.00,419.13
             265.15,419.33 263.44,421.96 260.00,422.67
             256.47,423.40 253.93,421.47 251.00,421.65
             247.59,421.85 246.26,424.14 240.00,425.00
             240.00,425.00 238.00,415.00 238.00,415.00
             238.00,415.00 204.00,415.00 204.00,415.00
             204.00,415.00 186.00,412.35 186.00,412.35
             186.00,412.35 178.00,415.00 178.00,415.00
             173.56,407.03 170.83,409.66 164.00,413.00
             157.13,404.99 150.76,413.81 143.00,414.69
             139.52,415.08 137.62,413.34 133.00,413.05
             121.57,412.34 114.34,419.88 104.00,422.40
             94.93,424.61 93.11,420.04 84.06,427.27
             77.86,432.23 81.36,433.75 79.15,438.96
             78.19,441.21 76.65,442.61 74.95,444.27
             68.13,450.87 68.81,448.74 61.00,447.69
             56.41,447.08 51.85,449.83 48.00,452.00
             48.54,442.96 52.35,444.85 52.94,440.99
             53.30,438.56 50.24,435.56 50.23,432.00
             50.22,429.40 56.14,415.41 46.00,413.14
             46.00,413.14 40.00,413.14 40.00,413.14
             39.43,406.12 37.06,406.13 31.00,404.79
             31.00,404.79 24.00,403.00 24.00,403.00
             24.00,403.00 29.27,391.72 29.27,391.72
             30.50,388.40 30.67,385.29 33.47,382.68
             36.53,379.84 52.19,373.02 54.98,367.91
             56.20,365.67 56.00,362.50 56.00,360.00
             56.02,349.39 57.14,338.31 53.83,328.09
             52.45,323.84 50.75,324.00 48.96,320.82
             47.18,317.63 46.10,312.65 46.00,309.00
             46.00,309.00 43.00,309.00 43.00,309.00
             43.00,309.00 34.25,288.96 34.25,288.96
             34.25,288.96 31.27,280.00 31.27,280.00
             31.27,280.00 26.00,269.00 26.00,269.00
             26.00,269.00 30.00,267.00 30.00,267.00
             30.00,267.00 32.00,267.00 32.00,267.00
             36.83,268.93 37.91,263.65 47.00,263.04
             49.26,262.81 51.83,262.43 54.00,263.04
             56.86,263.96 58.26,266.02 62.00,265.53
             67.80,264.77 71.50,258.71 78.00,256.13
             82.86,254.20 88.10,255.98 89.27,251.85
             89.98,249.37 86.93,244.83 86.00,241.00
             95.82,241.09 101.84,243.94 102.00,231.00
             102.00,231.00 112.00,229.00 112.00,229.00
             112.00,229.00 113.00,232.00 113.00,232.00
             115.50,224.08 119.25,219.61 126.00,215.00
             126.00,215.00 122.00,215.00 122.00,215.00
             122.00,215.00 126.38,197.00 126.38,197.00
             126.38,197.00 124.09,180.00 124.09,180.00
             124.09,180.00 126.00,167.00 126.00,167.00
             139.06,166.28 143.88,159.45 144.00,147.00
             147.76,147.00 156.68,147.82 159.43,145.40
             161.46,143.62 162.43,139.59 163.33,137.04
             163.33,137.04 166.98,129.00 166.98,129.00
             166.84,122.47 156.14,122.99 152.00,124.00
             152.00,124.00 153.91,110.00 153.91,110.00
             153.91,110.00 153.91,101.00 153.91,101.00
             164.63,100.24 165.53,93.43 169.00,85.00
             184.10,89.70 184.63,85.04 198.00,85.00
             198.00,85.00 198.69,71.44 198.69,71.44
             198.69,71.44 212.00,50.00 212.00,50.00
             217.19,52.67 218.94,57.13 223.00,56.26 Z
           M 181.00,305.00
           C 181.00,305.00 182.00,306.00 182.00,306.00
             182.00,306.00 182.00,305.00 182.00,305.00
             182.00,305.00 181.00,305.00 181.00,305.00 Z" />
</svg>
