<?xml version="1.0" encoding="UTF-8" standalone="no"?>
<!DOCTYPE svg PUBLIC "-//W3C//DTD SVG 20010904//EN"
              "http://www.w3.org/TR/2001/REC-SVG-20010904/DTD/svg10.dtd">

<svg xmlns="http://www.w3.org/2000/svg"
     width="43.6334in" height="36.3288in"
     viewBox="0 0 3142 2616">
  <path id="Belarus"
        fill="Yellow" stroke="black" stroke-width="1"
        d="M 2336.00,726.26
           C 2339.87,725.43 2343.02,719.28 2346.95,720.34
             2351.80,721.64 2355.47,737.43 2363.72,730.69
             2363.72,730.69 2367.12,727.17 2367.12,727.17
             2367.12,727.17 2371.00,723.00 2371.00,723.00
             2371.00,723.00 2385.00,725.00 2385.00,725.00
             2385.00,732.03 2383.85,736.28 2388.61,742.07
             2389.76,743.47 2391.32,745.20 2393.02,745.92
             2397.16,747.68 2399.89,743.68 2402.58,741.29
             2408.01,736.48 2412.50,737.47 2415.00,728.90
             2415.00,728.90 2426.00,728.90 2426.00,728.90
             2428.97,728.38 2431.96,726.90 2434.96,727.19
             2437.48,727.43 2443.34,730.98 2444.40,733.30
             2445.08,734.78 2444.98,737.36 2445.00,739.00
             2445.00,739.00 2462.00,742.00 2462.00,742.00
             2460.72,747.28 2459.93,759.36 2462.89,763.98
             2466.52,769.64 2471.58,769.19 2472.98,776.00
             2474.75,784.60 2465.05,797.60 2470.74,805.90
             2472.74,808.81 2476.15,810.11 2479.00,812.00
             2479.00,812.00 2477.00,813.00 2477.00,813.00
             2477.00,813.00 2489.00,817.00 2489.00,817.00
             2489.79,820.33 2492.57,827.04 2494.70,829.68
             2499.95,836.20 2504.87,834.07 2505.00,847.00
             2511.17,847.42 2518.15,850.09 2524.00,852.17
             2527.21,853.32 2530.70,854.25 2532.66,857.26
             2535.85,862.18 2535.00,871.18 2535.00,877.00
             2535.00,877.00 2546.00,876.49 2546.00,876.49
             2546.00,876.49 2558.00,871.00 2558.00,871.00
             2562.78,875.71 2565.03,874.18 2567.43,876.16
             2569.79,878.12 2568.23,880.96 2571.43,884.82
             2575.25,889.42 2583.58,892.54 2589.00,895.00
             2589.00,895.00 2580.59,903.26 2580.59,903.26
             2580.59,903.26 2576.23,914.58 2576.23,914.58
             2576.23,914.58 2569.00,925.00 2569.00,925.00
             2569.00,925.00 2555.00,924.08 2555.00,924.08
             2555.00,924.08 2545.00,919.44 2545.00,919.44
             2545.00,919.44 2529.00,923.00 2529.00,923.00
             2529.00,925.77 2529.25,931.52 2528.42,933.91
             2527.57,936.36 2525.65,937.75 2525.58,940.09
             2525.41,946.61 2539.37,956.85 2545.00,959.00
             2544.38,968.21 2540.02,969.63 2551.00,976.00
             2546.65,983.81 2551.39,984.43 2553.69,989.18
             2555.11,992.13 2554.04,993.68 2555.50,997.00
             2557.49,1001.52 2560.96,1005.21 2564.00,1009.00
             2560.87,1009.00 2556.92,1008.73 2554.00,1009.84
             2550.14,1011.30 2546.12,1015.31 2542.00,1016.49
             2537.89,1017.68 2534.05,1015.88 2529.57,1020.06
             2526.47,1022.94 2526.30,1026.97 2524.30,1030.49
             2519.86,1038.28 2522.03,1036.73 2520.19,1040.48
             2520.19,1040.48 2515.84,1046.32 2515.84,1046.32
             2514.75,1048.71 2515.02,1052.37 2515.00,1055.00
             2514.95,1062.64 2512.85,1064.75 2513.33,1067.91
             2513.80,1071.05 2516.07,1072.13 2517.49,1074.32
             2519.29,1077.07 2518.67,1078.53 2519.58,1080.96
             2521.44,1085.96 2523.85,1084.47 2523.00,1091.00
             2512.52,1087.91 2510.07,1079.39 2503.00,1077.53
             2497.95,1076.19 2491.71,1080.74 2487.00,1082.24
             2483.33,1083.41 2475.19,1083.00 2471.00,1083.00
             2470.45,1089.63 2469.19,1087.88 2464.09,1089.69
             2464.09,1089.69 2459.00,1092.00 2459.00,1092.00
             2457.16,1088.67 2451.65,1077.48 2448.81,1076.07
             2446.19,1074.78 2443.32,1076.33 2441.00,1077.58
             2434.65,1081.03 2429.77,1085.23 2427.00,1092.00
             2427.00,1092.00 2414.00,1085.94 2414.00,1085.94
             2414.00,1085.94 2405.00,1089.00 2405.00,1089.00
             2405.00,1089.00 2403.00,1083.00 2403.00,1083.00
             2393.81,1083.74 2395.16,1089.06 2389.00,1090.43
             2385.56,1091.20 2383.52,1088.96 2381.00,1089.13
             2378.15,1089.33 2376.44,1091.96 2373.00,1092.67
             2369.47,1093.40 2366.93,1091.47 2364.00,1091.65
             2360.59,1091.85 2359.26,1094.14 2353.00,1095.00
             2353.00,1095.00 2351.00,1085.00 2351.00,1085.00
             2351.00,1085.00 2317.00,1085.00 2317.00,1085.00
             2317.00,1085.00 2299.00,1082.35 2299.00,1082.35
             2299.00,1082.35 2291.00,1085.00 2291.00,1085.00
             2286.56,1077.03 2283.83,1079.66 2277.00,1083.00
             2270.13,1074.99 2263.76,1083.81 2256.00,1084.69
             2252.52,1085.08 2250.62,1083.34 2246.00,1083.05
             2234.57,1082.34 2227.34,1089.88 2217.00,1092.40
             2207.93,1094.61 2206.11,1090.04 2197.06,1097.27
             2190.86,1102.23 2194.36,1103.75 2192.15,1108.96
             2191.19,1111.21 2189.65,1112.61 2187.95,1114.27
             2181.13,1120.87 2181.81,1118.74 2174.00,1117.69
             2169.41,1117.08 2164.85,1119.83 2161.00,1122.00
             2161.54,1112.96 2165.35,1114.85 2165.94,1110.99
             2166.30,1108.56 2163.24,1105.56 2163.23,1102.00
             2163.22,1099.40 2169.14,1085.41 2159.00,1083.14
             2159.00,1083.14 2153.00,1083.14 2153.00,1083.14
             2152.43,1076.12 2150.06,1076.13 2144.00,1074.79
             2144.00,1074.79 2137.00,1073.00 2137.00,1073.00
             2137.00,1073.00 2142.27,1061.72 2142.27,1061.72
             2143.50,1058.40 2143.67,1055.29 2146.47,1052.68
             2149.53,1049.84 2165.19,1043.02 2167.98,1037.91
             2169.20,1035.67 2169.00,1032.50 2169.00,1030.00
             2169.02,1019.39 2170.14,1008.31 2166.83,998.09
             2165.45,993.84 2163.75,994.00 2161.96,990.82
             2160.18,987.63 2159.10,982.65 2159.00,979.00
             2159.00,979.00 2156.00,979.00 2156.00,979.00
             2156.00,979.00 2147.25,958.96 2147.25,958.96
             2147.25,958.96 2144.27,950.00 2144.27,950.00
             2144.27,950.00 2139.00,939.00 2139.00,939.00
             2139.00,939.00 2143.00,937.00 2143.00,937.00
             2143.00,937.00 2145.00,937.00 2145.00,937.00
             2149.83,938.93 2150.91,933.65 2160.00,933.04
             2162.26,932.81 2164.83,932.43 2167.00,933.04
             2169.86,933.96 2171.26,936.02 2175.00,935.53
             2180.80,934.77 2184.50,928.71 2191.00,926.13
             2195.86,924.20 2201.10,925.98 2202.27,921.85
             2202.98,919.37 2199.93,914.83 2199.00,911.00
             2208.82,911.09 2214.84,913.94 2215.00,901.00
             2215.00,901.00 2225.00,899.00 2225.00,899.00
             2225.00,899.00 2226.00,902.00 2226.00,902.00
             2228.50,894.08 2232.25,889.61 2239.00,885.00
             2239.00,885.00 2235.00,885.00 2235.00,885.00
             2235.00,885.00 2239.38,867.00 2239.38,867.00
             2239.38,867.00 2237.09,850.00 2237.09,850.00
             2237.09,850.00 2239.00,837.00 2239.00,837.00
             2252.06,836.28 2256.88,829.45 2257.00,817.00
             2260.76,817.00 2269.68,817.82 2272.43,815.40
             2274.46,813.62 2275.43,809.59 2276.33,807.04
             2276.33,807.04 2279.98,799.00 2279.98,799.00
             2279.84,792.47 2269.14,792.99 2265.00,794.00
             2265.00,794.00 2266.91,780.00 2266.91,780.00
             2266.91,780.00 2266.91,771.00 2266.91,771.00
             2277.63,770.24 2278.53,763.43 2282.00,755.00
             2297.10,759.70 2297.63,755.04 2311.00,755.00
             2311.00,755.00 2311.69,741.44 2311.69,741.44
             2311.69,741.44 2325.00,720.00 2325.00,720.00
             2330.19,722.67 2331.94,727.13 2336.00,726.26 Z
           M 2294.00,975.00
           C 2294.00,975.00 2295.00,976.00 2295.00,976.00
             2295.00,976.00 2295.00,975.00 2295.00,975.00
             2295.00,975.00 2294.00,975.00 2294.00,975.00 Z" />
</svg>
