<?xml version="1.0" encoding="UTF-8" standalone="no"?>
<!DOCTYPE svg PUBLIC "-//W3C//DTD SVG 20010904//EN"
              "http://www.w3.org/TR/2001/REC-SVG-20010904/DTD/svg10.dtd">

<svg xmlns="http://www.w3.org/2000/svg"
     width="43.6334in" height="36.3288in"
     viewBox="0 0 3142 2616">
  <path id="Finland"
        fill="Black" stroke="black" stroke-width="1"
        d="M 2262.00,0.00
           C 2259.45,10.64 2264.51,6.01 2264.00,21.00
             2268.20,21.94 2283.92,28.29 2286.49,31.26
             2289.95,35.26 2290.98,41.93 2291.00,47.00
             2285.31,49.31 2284.86,51.04 2285.07,57.00
             2285.19,60.30 2285.90,62.54 2283.50,65.25
             2280.97,68.12 2274.20,70.99 2275.90,75.69
             2277.99,81.49 2290.08,87.33 2294.83,90.82
             2297.72,92.95 2299.35,95.39 2303.00,96.49
             2306.43,97.53 2310.57,96.38 2313.91,97.85
             2318.05,99.68 2318.56,103.47 2321.55,105.73
             2324.33,107.82 2329.52,108.47 2331.51,109.98
             2333.21,111.27 2334.52,114.49 2336.07,116.48
             2338.48,119.59 2347.74,127.37 2348.40,130.24
             2348.85,132.17 2347.70,133.65 2347.13,136.09
             2347.13,136.09 2347.13,147.00 2347.13,147.00
             2346.92,152.80 2346.36,152.06 2345.37,157.00
             2345.37,157.00 2344.40,163.00 2344.40,163.00
             2342.32,171.39 2336.03,182.06 2332.39,190.00
             2332.39,190.00 2328.19,202.49 2328.19,202.49
             2327.60,203.58 2320.79,210.54 2317.37,217.17
             2317.37,217.17 2309.88,240.00 2309.88,240.00
             2309.88,240.00 2303.25,257.00 2303.25,257.00
             2301.44,260.16 2297.26,263.21 2295.85,266.28
             2294.52,269.20 2295.43,272.31 2294.42,274.74
             2293.38,277.23 2291.08,277.83 2289.85,280.34
             2288.66,282.76 2289.39,285.18 2287.98,288.00
             2286.66,290.62 2279.81,297.63 2277.40,300.28
             2271.80,306.45 2266.69,313.02 2262.15,320.00
             2262.15,320.00 2251.50,339.00 2251.50,339.00
             2250.41,341.18 2247.44,348.10 2246.19,349.42
             2246.19,349.42 2241.29,352.58 2241.29,352.58
             2237.44,355.89 2238.98,359.65 2229.00,359.36
             2223.93,359.21 2221.84,355.77 2216.02,357.77
             2211.12,359.45 2207.44,367.25 2201.00,369.93
             2195.47,372.23 2189.96,364.73 2187.00,374.15
             2187.00,374.15 2176.00,374.15 2176.00,374.15
             2176.00,374.15 2167.00,373.00 2167.00,373.00
             2167.00,373.00 2167.00,379.00 2167.00,379.00
             2167.00,379.00 2171.00,379.00 2171.00,379.00
             2171.00,379.00 2171.00,381.00 2171.00,381.00
             2171.00,381.00 2167.00,381.00 2167.00,381.00
             2167.00,381.00 2167.00,389.00 2167.00,389.00
             2167.00,389.00 2163.00,389.00 2163.00,389.00
             2163.00,389.00 2163.00,383.00 2163.00,383.00
             2163.00,383.00 2153.00,385.00 2153.00,385.00
             2152.97,387.14 2153.27,390.50 2151.40,391.98
             2149.43,393.54 2145.90,392.43 2143.30,394.02
             2141.29,395.24 2140.95,397.27 2138.70,398.70
             2138.70,398.70 2130.10,401.93 2130.10,401.93
             2124.28,405.50 2125.61,409.97 2115.00,407.00
             2115.00,407.00 2116.00,415.00 2116.00,415.00
             2116.00,415.00 2108.09,413.85 2108.09,413.85
             2108.09,413.85 2099.00,420.00 2099.00,420.00
             2097.72,418.46 2097.32,417.77 2095.13,419.03
             2095.13,419.03 2089.68,424.19 2089.68,424.19
             2086.77,426.37 2082.49,427.07 2079.00,428.00
             2074.32,421.04 2068.50,429.50 2065.00,433.00
             2065.00,430.08 2065.44,425.88 2063.40,423.57
             2060.56,420.34 2054.02,420.95 2051.10,413.91
             2048.74,408.23 2054.86,408.23 2055.00,397.00
             2044.22,397.89 2044.59,410.46 2033.00,408.00
             2033.00,408.00 2037.00,397.00 2037.00,397.00
             2028.49,396.90 2031.05,395.60 2026.91,394.81
             2026.91,394.81 2018.00,394.81 2018.00,394.81
             2011.53,393.91 2006.25,390.54 2001.00,387.00
             2001.00,387.00 2001.00,385.00 2001.00,385.00
             2001.00,385.00 2004.00,379.00 2004.00,379.00
             2004.00,379.00 1989.00,383.00 1989.00,383.00
             1989.00,383.00 1989.00,387.00 1989.00,387.00
             1981.16,382.26 1983.01,378.46 1983.00,370.00
             1982.98,359.08 1981.10,360.67 1981.00,352.00
             1980.95,347.60 1980.81,345.22 1982.42,341.00
             1982.42,341.00 1986.03,333.00 1986.03,333.00
             1986.03,333.00 1985.02,326.96 1985.02,326.96
             1985.02,326.96 1985.02,311.00 1985.02,311.00
             1987.24,311.78 1993.80,313.60 1991.76,308.30
             1991.76,308.30 1983.00,297.00 1983.00,297.00
             1983.00,297.00 1983.00,295.00 1983.00,295.00
             1985.30,291.04 1982.19,289.87 1979.00,288.00
             1979.00,288.00 1982.00,281.00 1982.00,281.00
             1974.95,278.89 1968.72,268.34 1969.17,261.00
             1969.41,257.09 1971.60,254.86 1971.51,251.00
             1971.43,247.71 1969.76,245.74 1969.12,242.83
             1969.12,242.83 1969.12,233.00 1969.12,233.00
             1969.12,233.00 1962.60,231.40 1962.60,231.40
             1962.60,231.40 1960.79,222.00 1960.79,222.00
             1960.79,222.00 1957.00,201.00 1957.00,201.00
             1959.59,200.02 1966.56,196.94 1967.98,194.70
             1971.04,189.88 1965.67,184.47 1974.00,183.00
             1973.56,175.08 1971.76,175.41 1969.00,169.00
             1969.00,169.00 1979.00,165.00 1979.00,165.00
             1979.00,165.00 1979.00,172.00 1979.00,172.00
             1984.54,171.55 1986.08,170.63 1987.00,165.00
             1992.84,164.81 1995.92,164.34 1997.00,158.00
             1997.97,157.79 1998.90,157.74 1999.84,157.27
             2005.65,154.39 1997.17,150.44 1997.84,147.08
             1998.27,144.91 2001.34,144.17 2002.49,140.81
             2002.49,140.81 2003.32,131.00 2003.32,131.00
             2003.32,131.00 2005.00,124.00 2005.00,124.00
             2007.49,124.47 2012.45,125.85 2014.69,124.66
             2017.83,122.98 2017.00,116.13 2017.00,113.00
             2024.17,111.05 2023.31,106.91 2028.32,102.87
             2030.46,101.15 2033.36,100.51 2034.05,97.86
             2034.75,95.17 2032.23,91.34 2031.00,89.00
             2033.46,89.12 2037.48,89.53 2039.56,88.00
             2042.23,86.03 2040.86,83.09 2042.55,78.00
             2045.97,67.75 2050.87,68.41 2051.00,55.00
             2055.56,53.44 2061.69,51.79 2059.00,46.00
             2059.00,46.00 2063.00,45.00 2063.00,45.00
             2063.95,33.71 2067.66,11.18 2081.95,9.62
             2086.60,9.11 2089.40,17.24 2094.69,13.96
             2098.84,11.38 2095.30,6.11 2094.00,3.00
             2094.00,3.00 2099.00,3.00 2099.00,3.00
             2099.00,3.00 2099.00,0.00 2099.00,0.00
             2099.00,0.00 2262.00,0.00 2262.00,0.00 Z
           M 2149.00,47.00
           C 2149.00,47.00 2150.00,48.00 2150.00,48.00
             2150.00,48.00 2150.00,47.00 2150.00,47.00
             2150.00,47.00 2149.00,47.00 2149.00,47.00 Z" />
</svg>
