<?xml version="1.0" encoding="UTF-8" standalone="no"?>
<!DOCTYPE svg PUBLIC "-//W3C//DTD SVG 20010904//EN"
              "http://www.w3.org/TR/2001/REC-SVG-20010904/DTD/svg10.dtd">

<svg xmlns="http://www.w3.org/2000/svg"
     width="6.94358in" height="6.94358in"
     viewBox="0 0 500 500">
  <path id="Finland"
        fill="none" stroke="black" stroke-width="1"
        d="M 359.00,34.00
           C 356.45,44.64 361.51,40.01 361.00,55.00
             365.20,55.94 380.92,62.29 383.49,65.26
             386.95,69.26 387.98,75.93 388.00,81.00
             382.31,83.31 381.86,85.04 382.07,91.00
             382.19,94.30 382.90,96.54 380.50,99.25
             377.97,102.12 371.20,104.99 372.90,109.69
             374.99,115.49 387.08,121.33 391.83,124.82
             394.72,126.95 396.35,129.39 400.00,130.49
             403.43,131.53 407.57,130.38 410.91,131.85
             415.05,133.68 415.56,137.47 418.55,139.73
             421.33,141.82 426.52,142.47 428.51,143.98
             430.21,145.27 431.52,148.49 433.07,150.48
             435.48,153.59 444.74,161.37 445.40,164.24
             445.85,166.17 444.70,167.65 444.13,170.09
             444.13,170.09 444.13,181.00 444.13,181.00
             443.92,186.80 443.36,186.06 442.37,191.00
             442.37,191.00 441.40,197.00 441.40,197.00
             439.32,205.39 433.03,216.06 429.39,224.00
             429.39,224.00 425.19,236.49 425.19,236.49
             424.60,237.58 417.79,244.54 414.37,251.17
             414.37,251.17 406.88,274.00 406.88,274.00
             406.88,274.00 400.25,291.00 400.25,291.00
             398.44,294.16 394.26,297.21 392.85,300.28
             391.52,303.20 392.43,306.31 391.42,308.74
             390.38,311.23 388.08,311.83 386.85,314.34
             385.66,316.76 386.39,319.18 384.98,322.00
             383.66,324.62 376.81,331.63 374.40,334.28
             368.80,340.45 363.69,347.02 359.15,354.00
             359.15,354.00 348.50,373.00 348.50,373.00
             347.41,375.18 344.44,382.10 343.19,383.42
             343.19,383.42 338.29,386.58 338.29,386.58
             334.44,389.89 335.98,393.65 326.00,393.36
             320.93,393.21 318.84,389.77 313.02,391.77
             308.12,393.45 304.44,401.25 298.00,403.93
             292.47,406.23 286.96,398.73 284.00,408.15
             284.00,408.15 273.00,408.15 273.00,408.15
             273.00,408.15 264.00,407.00 264.00,407.00
             264.00,407.00 264.00,413.00 264.00,413.00
             264.00,413.00 268.00,413.00 268.00,413.00
             268.00,413.00 268.00,415.00 268.00,415.00
             268.00,415.00 264.00,415.00 264.00,415.00
             264.00,415.00 264.00,423.00 264.00,423.00
             264.00,423.00 260.00,423.00 260.00,423.00
             260.00,423.00 260.00,417.00 260.00,417.00
             260.00,417.00 250.00,419.00 250.00,419.00
             249.97,421.14 250.27,424.50 248.40,425.98
             246.43,427.54 242.90,426.43 240.30,428.02
             238.29,429.24 237.95,431.27 235.70,432.70
             235.70,432.70 227.10,435.93 227.10,435.93
             221.28,439.50 222.61,443.97 212.00,441.00
             212.00,441.00 213.00,449.00 213.00,449.00
             213.00,449.00 205.09,447.85 205.09,447.85
             205.09,447.85 196.00,454.00 196.00,454.00
             194.72,452.46 194.32,451.77 192.13,453.03
             192.13,453.03 186.68,458.19 186.68,458.19
             183.77,460.37 179.49,461.07 176.00,462.00
             171.32,455.04 165.50,463.50 162.00,467.00
             162.00,464.08 162.44,459.88 160.40,457.57
             157.56,454.34 151.02,454.95 148.10,447.91
             145.74,442.23 151.86,442.23 152.00,431.00
             141.22,431.89 141.59,444.46 130.00,442.00
             130.00,442.00 134.00,431.00 134.00,431.00
             125.49,430.90 128.05,429.60 123.91,428.81
             123.91,428.81 115.00,428.81 115.00,428.81
             108.53,427.91 103.25,424.54 98.00,421.00
             98.00,421.00 98.00,419.00 98.00,419.00
             98.00,419.00 101.00,413.00 101.00,413.00
             101.00,413.00 86.00,417.00 86.00,417.00
             86.00,417.00 86.00,421.00 86.00,421.00
             78.16,416.26 80.01,412.46 80.00,404.00
             79.98,393.08 78.10,394.67 78.00,386.00
             77.95,381.60 77.81,379.22 79.42,375.00
             79.42,375.00 83.03,367.00 83.03,367.00
             83.03,367.00 82.02,360.96 82.02,360.96
             82.02,360.96 82.02,345.00 82.02,345.00
             84.24,345.78 90.80,347.60 88.76,342.30
             88.76,342.30 80.00,331.00 80.00,331.00
             80.00,331.00 80.00,329.00 80.00,329.00
             82.30,325.04 79.19,323.87 76.00,322.00
             76.00,322.00 79.00,315.00 79.00,315.00
             71.95,312.89 65.72,302.34 66.17,295.00
             66.41,291.09 68.60,288.86 68.51,285.00
             68.43,281.71 66.76,279.74 66.12,276.83
             66.12,276.83 66.12,267.00 66.12,267.00
             66.12,267.00 59.60,265.40 59.60,265.40
             59.60,265.40 57.79,256.00 57.79,256.00
             57.79,256.00 54.00,235.00 54.00,235.00
             56.59,234.02 63.56,230.94 64.98,228.70
             68.04,223.88 62.67,218.47 71.00,217.00
             70.56,209.08 68.76,209.41 66.00,203.00
             66.00,203.00 76.00,199.00 76.00,199.00
             76.00,199.00 76.00,206.00 76.00,206.00
             81.54,205.55 83.08,204.63 84.00,199.00
             89.84,198.81 92.92,198.34 94.00,192.00
             94.97,191.79 95.90,191.74 96.84,191.27
             102.65,188.39 94.17,184.44 94.84,181.08
             95.27,178.91 98.34,178.17 99.49,174.81
             99.49,174.81 100.32,165.00 100.32,165.00
             100.32,165.00 102.00,158.00 102.00,158.00
             104.49,158.47 109.45,159.85 111.69,158.66
             114.83,156.98 114.00,150.13 114.00,147.00
             121.17,145.05 120.31,140.91 125.32,136.87
             127.46,135.15 130.36,134.51 131.05,131.86
             131.75,129.17 129.23,125.34 128.00,123.00
             130.46,123.12 134.48,123.53 136.56,122.00
             139.23,120.03 137.86,117.09 139.55,112.00
             142.97,101.75 147.87,102.41 148.00,89.00
             152.56,87.44 158.69,85.79 156.00,80.00
             156.00,80.00 160.00,79.00 160.00,79.00
             160.95,67.71 164.66,45.18 178.95,43.62
             183.60,43.11 186.40,51.24 191.69,47.96
             195.84,45.38 192.30,40.11 191.00,37.00
             191.00,37.00 196.00,37.00 196.00,37.00
             196.00,37.00 196.00,34.00 196.00,34.00
             196.00,34.00 359.00,34.00 359.00,34.00 Z
           M 246.00,81.00
           C 246.00,81.00 247.00,82.00 247.00,82.00
             247.00,82.00 247.00,81.00 247.00,81.00
             247.00,81.00 246.00,81.00 246.00,81.00 Z" />
</svg>
