<?xml version="1.0" encoding="UTF-8" standalone="no"?>
<!DOCTYPE svg PUBLIC "-//W3C//DTD SVG 20010904//EN"
              "http://www.w3.org/TR/2001/REC-SVG-20010904/DTD/svg10.dtd">

<svg xmlns="http://www.w3.org/2000/svg"
     width="11.1097in" height="6.94358in"
     viewBox="0 0 800 500">
  <path id="Selection"
        fill="none" stroke="black" stroke-width="1"
        d="M 53.00,99.04
           C 53.00,99.04 110.00,99.04 110.00,99.04
             110.00,99.04 218.00,99.04 218.00,99.04
             218.00,99.04 256.00,99.04 256.00,99.04
             256.00,99.04 265.00,99.04 265.00,99.04
             265.00,99.04 291.00,99.04 291.00,99.04
             291.00,99.04 305.00,99.82 305.00,99.82
             305.00,99.82 314.00,99.00 314.00,99.00
             314.00,99.00 468.00,99.00 468.00,99.00
             468.00,99.00 775.00,99.00 775.00,99.00
             771.13,104.29 769.84,104.15 766.52,108.09
             761.75,113.74 761.31,117.28 758.34,122.00
             756.42,125.06 753.75,127.66 752.28,131.00
             750.52,134.97 751.44,138.00 750.26,140.96
             748.48,145.43 746.46,143.38 741.73,155.00
             739.74,159.87 739.39,164.57 735.23,168.20
             735.23,168.20 712.00,180.00 712.00,180.00
             706.63,182.41 701.59,187.57 702.58,194.00
             704.14,204.16 710.50,207.89 712.87,211.37
             714.90,214.36 718.20,223.30 717.78,227.00
             717.00,233.81 711.32,241.37 710.44,244.00
             708.87,248.73 712.02,253.10 712.96,256.00
             713.95,259.71 712.46,261.38 712.96,264.00
             713.94,267.86 717.85,270.15 721.00,272.00
             720.57,273.60 720.39,274.99 719.18,276.28
             717.84,277.71 706.16,282.52 704.00,282.75
             704.00,282.75 693.00,282.00 693.00,282.00
             681.45,281.87 683.04,281.04 673.00,286.37
             670.27,287.82 668.62,288.33 666.09,290.38
             666.09,290.38 653.79,303.21 653.79,303.21
             650.90,305.60 647.34,306.75 644.00,308.32
             642.41,309.06 639.59,310.67 638.00,310.98
             634.23,311.72 631.76,309.07 628.00,308.78
             628.00,308.78 622.00,309.32 622.00,309.32
             622.00,309.32 608.99,308.14 608.99,308.14
             606.69,307.96 603.33,308.22 601.39,306.98
             599.25,305.61 597.96,302.14 596.37,300.04
             593.29,295.97 589.11,293.47 584.00,293.10
             578.46,292.69 562.30,298.57 558.39,302.39
             558.39,302.39 550.06,313.04 550.06,313.04
             548.16,316.09 548.16,317.39 545.32,320.96
             540.95,326.45 535.77,328.52 532.53,336.00
             529.52,342.95 532.59,346.75 529.28,353.00
             524.56,361.90 519.32,358.43 515.26,365.05
             515.26,365.05 509.80,376.00 509.80,376.00
             508.49,380.25 509.76,383.08 505.85,386.36
             498.21,392.79 488.79,388.25 480.00,389.28
             480.00,389.28 466.00,390.32 466.00,390.32
             466.00,390.32 441.00,396.72 441.00,396.72
             441.00,396.72 429.00,402.00 429.00,402.00
             428.32,397.19 426.94,392.28 424.59,388.00
             423.33,385.71 420.18,382.13 419.74,380.00
             419.00,376.44 422.18,374.86 421.65,371.00
             421.65,371.00 416.35,353.00 416.35,353.00
             416.35,353.00 410.72,343.00 410.72,343.00
             409.40,339.26 410.39,334.01 409.79,330.00
             409.79,330.00 405.38,317.00 405.38,317.00
             403.53,307.53 410.79,299.73 409.57,293.00
             408.13,285.05 398.52,281.45 398.05,272.00
             397.57,262.43 401.54,260.75 403.27,256.00
             404.59,252.35 403.55,247.26 404.31,244.00
             405.22,240.09 407.88,238.39 408.23,234.00
             408.72,227.82 405.35,226.49 402.37,223.55
             396.25,217.50 396.72,213.56 386.00,214.04
             375.38,214.52 375.83,221.04 371.73,224.28
             368.58,226.77 364.43,226.18 361.10,228.58
             358.49,230.48 356.40,234.30 354.49,236.96
             354.49,236.96 348.17,244.21 348.17,244.21
             345.84,248.29 345.00,262.90 345.00,268.00
             345.00,268.00 334.00,274.25 334.00,274.25
             334.00,274.25 320.27,280.43 320.27,280.43
             320.27,280.43 311.95,293.00 311.95,293.00
             311.95,293.00 309.23,300.54 309.23,300.54
             309.23,300.54 299.00,306.41 299.00,306.41
             299.00,306.41 293.00,310.00 293.00,310.00
             282.38,303.95 281.73,310.42 276.79,315.91
             274.83,318.10 272.68,319.51 271.09,322.09
             268.44,326.37 270.13,328.14 265.00,331.00
             263.86,329.98 263.51,329.25 261.82,328.84
             260.19,328.44 247.79,329.34 246.00,330.08
             246.00,330.08 239.00,333.71 239.00,333.71
             235.61,334.65 233.54,332.82 230.59,332.91
             227.28,333.02 225.27,335.17 222.00,335.41
             219.50,335.82 216.42,334.63 213.00,335.41
             208.68,336.10 205.43,339.78 202.14,339.46
             198.76,339.14 198.93,335.17 197.74,332.00
             195.70,326.59 192.76,324.06 187.00,325.00
             185.96,322.49 184.35,318.20 182.95,316.05
             180.13,311.73 173.07,305.82 168.00,305.00
             167.92,301.34 167.11,292.68 162.79,291.45
             160.26,290.73 157.94,293.35 154.00,294.74
             149.45,296.35 143.81,296.01 139.00,296.00
             128.38,295.98 132.35,294.41 125.96,291.50
             123.57,290.41 122.82,290.86 118.00,288.36
             118.00,288.36 102.00,279.00 102.00,279.00
             103.29,274.96 103.86,274.69 108.00,274.00
             108.00,274.00 109.98,265.00 109.98,265.00
             109.98,265.00 109.98,258.00 109.98,258.00
             111.15,248.88 111.98,252.07 112.00,240.00
             112.00,240.00 112.95,227.32 112.95,227.32
             112.33,225.16 104.92,218.01 103.07,216.00
             103.07,216.00 90.66,201.01 90.66,201.01
             88.50,199.67 83.94,199.81 79.04,196.54
             75.24,194.00 74.17,191.23 71.79,190.10
             69.55,189.02 67.58,189.95 65.01,189.06
             61.75,187.93 59.89,184.96 56.91,183.31
             52.68,180.95 48.59,182.40 41.00,172.00
             43.75,169.85 47.71,167.57 48.48,163.96
             49.15,160.84 47.21,157.75 48.99,154.18
             50.31,151.53 55.90,147.73 55.89,141.00
             55.88,134.43 52.05,136.73 52.00,124.00
             52.00,124.00 39.00,118.76 39.00,118.76
             39.00,118.76 31.56,116.40 31.56,116.40
             31.56,116.40 25.00,101.00 25.00,101.00
             32.26,97.64 44.80,99.00 53.00,99.04 Z
           M 456.00,136.00
           C 456.00,136.00 458.00,131.00 458.00,131.00
             455.97,133.06 455.48,133.09 456.00,136.00 Z
           M 439.00,167.00
           C 439.00,167.00 440.00,168.00 440.00,168.00
             440.00,168.00 440.00,167.00 440.00,167.00
             440.00,167.00 439.00,167.00 439.00,167.00 Z" />
</svg>
