<?xml version="1.0" encoding="UTF-8" standalone="no"?>
<!DOCTYPE svg PUBLIC "-//W3C//DTD SVG 20010904//EN"
              "http://www.w3.org/TR/2001/REC-SVG-20010904/DTD/svg10.dtd">

<svg xmlns="http://www.w3.org/2000/svg"
     width="43.6334in" height="36.3288in"
     viewBox="0 0 3142 2616">
  <path id="Karelia"
        fill="Blue" stroke="black" stroke-width="1"
        d="M 2296.00,0.04
           C 2296.00,0.04 2353.00,0.04 2353.00,0.04
             2353.00,0.04 2461.00,0.04 2461.00,0.04
             2461.00,0.04 2499.00,0.04 2499.00,0.04
             2499.00,0.04 2508.00,0.04 2508.00,0.04
             2508.00,0.04 2534.00,0.04 2534.00,0.04
             2534.00,0.04 2548.00,0.82 2548.00,0.82
             2548.00,0.82 2557.00,0.00 2557.00,0.00
             2557.00,0.00 2711.00,0.00 2711.00,0.00
             2711.00,0.00 3018.00,0.00 3018.00,0.00
             3018.00,0.00 3008.90,10.04 3008.90,10.04
             3004.09,16.12 3004.48,17.89 3001.39,23.00
             3001.39,23.00 2995.93,31.00 2995.93,31.00
             2994.21,34.59 2995.24,37.48 2993.96,40.99
             2992.37,45.36 2989.60,45.85 2987.41,50.04
             2987.41,50.04 2979.70,67.94 2979.70,67.94
             2978.62,69.22 2977.44,70.22 2976.00,71.07
             2976.00,71.07 2969.00,73.98 2969.00,73.98
             2969.00,73.98 2959.00,79.51 2959.00,79.51
             2952.91,82.66 2948.46,83.57 2945.93,91.00
             2944.50,95.24 2948.05,103.47 2950.64,106.90
             2950.64,106.90 2955.87,112.37 2955.87,112.37
             2955.87,112.37 2960.70,123.00 2960.70,123.00
             2963.41,130.95 2953.32,143.30 2952.98,146.28
             2952.39,151.47 2956.11,155.01 2956.73,158.99
             2956.84,162.02 2955.01,163.77 2956.73,167.05
             2959.09,170.69 2963.35,171.83 2963.26,175.00
             2963.16,178.27 2958.41,179.29 2956.00,180.33
             2956.00,180.33 2949.00,183.18 2949.00,183.18
             2949.00,183.18 2929.00,183.18 2929.00,183.18
             2921.88,183.10 2911.45,188.90 2906.43,193.87
             2902.37,197.89 2898.80,203.35 2893.99,206.10
             2892.04,207.21 2881.73,212.02 2880.00,212.17
             2876.77,212.44 2874.41,210.17 2871.00,210.10
             2871.00,210.10 2865.00,210.10 2865.00,210.10
             2865.00,210.10 2852.00,210.10 2852.00,210.10
             2838.45,209.91 2844.24,203.10 2835.00,196.88
             2827.66,191.94 2819.24,195.57 2812.00,198.29
             2808.95,199.44 2805.82,200.22 2803.10,202.13
             2801.35,203.37 2794.27,212.09 2793.11,214.04
             2791.20,217.26 2791.47,218.33 2788.52,221.99
             2784.16,227.39 2778.41,229.91 2775.64,236.91
             2773.34,242.71 2776.83,246.79 2772.52,254.00
             2767.30,262.72 2762.48,260.22 2758.84,265.14
             2757.89,266.42 2753.82,274.48 2753.42,276.00
             2752.67,278.90 2753.42,281.76 2751.26,284.90
             2745.82,292.84 2736.88,290.54 2729.00,290.09
             2725.14,289.87 2723.53,290.50 2720.00,291.07
             2720.00,291.07 2710.00,291.07 2710.00,291.07
             2710.00,291.07 2691.00,296.41 2691.00,296.41
             2691.00,296.41 2684.00,297.83 2684.00,297.83
             2684.00,297.83 2672.00,303.00 2672.00,303.00
             2670.65,297.67 2670.38,294.09 2667.59,289.00
             2666.33,286.71 2663.18,283.13 2662.74,281.00
             2662.00,277.46 2665.12,276.01 2664.51,272.00
             2664.51,272.00 2659.35,254.00 2659.35,254.00
             2659.35,254.00 2653.72,244.00 2653.72,244.00
             2652.33,240.06 2653.53,234.33 2652.61,230.00
             2651.77,226.01 2648.87,221.75 2648.21,217.00
             2646.92,207.76 2653.58,200.82 2652.52,194.00
             2651.10,184.89 2640.45,183.52 2641.04,170.00
             2641.40,161.76 2644.67,161.33 2646.28,156.96
             2647.57,153.43 2646.57,148.32 2647.30,145.00
             2648.18,141.00 2650.45,139.78 2650.89,135.00
             2651.55,127.75 2647.83,127.72 2644.95,124.53
             2639.09,118.07 2639.48,114.57 2629.00,115.04
             2618.54,115.51 2619.21,121.80 2614.74,125.28
             2611.80,127.56 2607.89,127.34 2605.04,128.98
             2601.05,131.29 2599.06,136.31 2596.28,139.83
             2594.35,142.27 2591.75,144.03 2590.59,147.01
             2590.59,147.01 2588.09,161.00 2588.09,161.00
             2587.92,163.24 2588.30,166.49 2587.01,168.37
             2582.87,174.39 2566.32,178.64 2563.27,181.43
             2561.96,182.63 2555.86,192.22 2555.08,194.00
             2552.98,198.85 2555.01,201.34 2547.58,205.19
             2545.89,206.07 2537.37,209.82 2536.00,209.90
             2533.21,210.07 2529.15,207.71 2525.21,210.60
             2525.21,210.60 2514.14,223.17 2514.14,223.17
             2511.49,227.51 2513.34,229.06 2508.00,232.00
             2506.87,230.99 2506.49,230.23 2504.82,229.85
             2504.82,229.85 2490.00,230.72 2490.00,230.72
             2490.00,230.72 2482.00,234.87 2482.00,234.87
             2478.76,235.78 2476.95,234.18 2474.00,234.27
             2470.81,234.36 2468.95,236.18 2466.00,236.54
             2462.65,237.21 2459.80,235.63 2456.00,236.54
             2451.50,237.32 2448.60,240.96 2445.06,240.54
             2440.58,240.01 2441.42,235.06 2440.15,232.00
             2438.03,226.94 2435.11,225.68 2430.00,226.00
             2426.35,217.18 2427.48,217.91 2420.28,211.55
             2416.53,208.24 2416.40,206.56 2411.00,207.00
             2410.92,203.26 2410.20,193.71 2405.79,192.45
             2403.03,191.66 2400.58,194.79 2396.00,196.20
             2394.25,196.74 2379.73,198.10 2378.01,197.85
             2373.65,197.21 2373.22,194.82 2369.91,193.00
             2368.05,191.98 2365.28,191.80 2360.00,189.00
             2360.00,189.00 2345.00,180.00 2345.00,180.00
             2346.29,175.96 2346.86,175.69 2351.00,175.00
             2351.00,175.00 2352.98,166.00 2352.98,166.00
             2352.98,166.00 2352.98,159.00 2352.98,159.00
             2354.15,149.88 2354.98,153.07 2355.00,141.00
             2355.00,141.00 2355.95,128.32 2355.95,128.32
             2355.33,126.16 2347.92,119.01 2346.07,117.00
             2346.07,117.00 2333.66,102.01 2333.66,102.01
             2331.50,100.67 2326.94,100.81 2322.04,97.54
             2318.24,95.00 2317.17,92.23 2314.79,91.10
             2312.55,90.02 2310.58,90.95 2308.01,90.06
             2304.75,88.93 2302.89,85.96 2299.91,84.31
             2295.68,81.95 2291.59,83.40 2284.00,73.00
             2286.75,70.85 2290.71,68.57 2291.48,64.96
             2292.15,61.84 2290.21,58.75 2291.99,55.18
             2293.31,52.53 2298.90,48.73 2298.89,42.00
             2298.88,35.43 2295.05,37.73 2295.00,25.00
             2295.00,25.00 2282.00,19.76 2282.00,19.76
             2282.00,19.76 2274.56,17.40 2274.56,17.40
             2274.56,17.40 2268.00,2.00 2268.00,2.00
             2275.26,-1.36 2287.80,0.00 2296.00,0.04 Z
           M 2699.00,37.00
           C 2699.00,37.00 2701.00,32.00 2701.00,32.00
             2698.97,34.06 2698.48,34.09 2699.00,37.00 Z" />
</svg>
