<?xml version="1.0" encoding="UTF-8" standalone="no"?>
<!DOCTYPE svg PUBLIC "-//W3C//DTD SVG 20010904//EN"
              "http://www.w3.org/TR/2001/REC-SVG-20010904/DTD/svg10.dtd">

<svg xmlns="http://www.w3.org/2000/svg"
     width="43.6334in" height="36.3288in"
     viewBox="0 0 3142 2616">
  <path id="Moscow"
        fill="Blue" stroke="black" stroke-width="1"
        d="M 2963.18,157.00
           C 2962.32,153.57 2959.08,151.33 2960.00,147.00
             2960.64,143.97 2969.62,129.38 2967.27,122.00
             2967.27,122.00 2960.36,108.18 2960.36,108.18
             2957.08,103.97 2950.90,99.46 2952.70,93.00
             2953.91,88.66 2959.35,86.16 2963.00,84.22
             2970.89,80.02 2980.06,77.24 2985.70,70.00
             2988.38,66.55 2989.50,60.01 2992.02,55.00
             2994.76,49.56 2996.89,48.67 2998.86,45.00
             3001.27,40.53 3000.50,36.33 3001.85,33.00
             3001.85,33.00 3008.96,22.00 3008.96,22.00
             3010.21,19.45 3010.89,17.49 3012.55,15.04
             3014.88,11.58 3024.38,1.93 3028.00,0.60
             3029.94,-0.12 3032.91,0.00 3035.00,0.00
             3035.00,0.00 3142.00,0.00 3142.00,0.00
             3142.00,0.00 3142.00,880.00 3142.00,880.00
             3142.00,880.00 3127.00,875.52 3127.00,875.52
             3127.00,875.52 3117.00,874.47 3117.00,874.47
             3111.93,873.31 3101.00,867.06 3097.17,863.62
             3093.50,860.33 3092.06,856.54 3086.99,852.53
             3081.78,848.42 3075.64,846.99 3071.52,842.67
             3066.70,837.65 3060.41,826.78 3053.00,825.53
             3048.48,824.77 3045.12,828.65 3042.00,830.44
             3038.18,832.65 3036.37,831.51 3033.09,833.31
             3030.33,834.84 3028.55,837.71 3025.96,838.97
             3021.40,841.18 3017.10,837.35 3009.00,838.10
             3002.91,838.67 2995.88,844.22 2990.04,843.76
             2985.84,843.44 2984.81,840.07 2982.39,837.29
             2978.89,833.25 2971.75,827.53 2966.00,829.60
             2960.27,831.67 2958.32,839.84 2954.38,844.71
             2953.03,846.38 2950.73,848.65 2948.71,849.44
             2946.69,850.23 2933.47,851.22 2931.00,850.86
             2927.20,850.29 2926.21,848.70 2923.00,847.56
             2916.49,845.25 2907.24,843.42 2902.63,837.83
             2902.63,837.83 2895.02,827.00 2895.02,827.00
             2893.54,824.00 2894.30,821.24 2892.69,818.02
             2890.81,814.27 2884.27,809.65 2880.00,809.65
             2878.44,809.65 2875.63,810.58 2874.00,811.00
             2874.00,811.00 2867.17,798.04 2867.17,798.04
             2867.17,798.04 2858.52,787.42 2858.52,787.42
             2858.52,787.42 2853.77,779.81 2853.77,779.81
             2853.77,779.81 2842.00,775.00 2842.00,775.00
             2842.92,770.16 2845.57,764.40 2851.00,763.49
             2851.00,763.49 2858.00,763.49 2858.00,763.49
             2858.00,763.49 2872.00,760.26 2872.00,760.26
             2876.95,758.32 2878.94,753.34 2882.26,750.45
             2885.32,747.79 2887.11,748.76 2889.87,747.03
             2892.45,745.42 2894.04,742.54 2897.01,741.02
             2903.05,737.94 2911.69,743.50 2920.77,734.62
             2922.96,732.49 2923.47,730.89 2924.06,728.00
             2926.70,715.13 2918.65,712.97 2918.47,705.00
             2918.38,700.97 2921.25,699.80 2922.83,696.83
             2924.04,694.55 2924.09,691.53 2923.96,689.00
             2923.41,678.44 2915.61,677.67 2913.57,670.96
             2912.69,668.07 2911.87,658.17 2912.17,655.00
             2913.09,645.29 2918.39,632.24 2903.00,631.00
             2904.45,627.30 2905.67,625.14 2909.04,622.81
             2912.08,620.71 2916.47,619.78 2918.44,614.98
             2922.93,604.03 2908.30,601.22 2903.35,594.90
             2899.99,590.60 2904.04,591.56 2898.00,582.00
             2898.80,580.66 2899.71,579.69 2899.85,578.00
             2900.36,571.84 2891.11,568.25 2886.00,568.47
             2883.63,568.57 2881.26,569.35 2879.00,570.00
             2876.25,561.02 2877.47,556.30 2866.00,556.00
             2864.70,549.96 2859.29,545.43 2853.00,545.19
             2853.00,545.19 2846.00,546.00 2846.00,546.00
             2841.89,537.78 2835.82,537.74 2828.00,536.71
             2825.20,536.33 2822.90,535.57 2820.00,536.11
             2816.57,536.75 2814.40,538.85 2812.00,539.34
             2807.60,540.23 2806.03,536.57 2799.00,537.11
             2799.00,537.11 2782.00,539.56 2782.00,539.56
             2778.07,540.81 2777.98,542.53 2772.00,544.00
             2768.47,531.52 2765.18,532.97 2760.00,529.45
             2757.52,527.76 2755.74,525.60 2753.00,524.16
             2747.43,521.24 2740.88,520.91 2735.00,519.10
             2735.00,519.10 2723.00,514.53 2723.00,514.53
             2714.33,512.49 2708.73,513.22 2701.00,508.00
             2704.45,498.78 2701.94,500.46 2699.64,493.00
             2699.64,493.00 2698.37,487.00 2698.37,487.00
             2698.37,487.00 2696.89,482.00 2696.89,482.00
             2696.64,479.36 2698.12,476.69 2698.68,474.00
             2698.68,474.00 2700.28,458.00 2700.28,458.00
             2700.48,456.57 2700.63,455.44 2700.28,454.02
             2697.32,445.19 2688.23,451.82 2684.29,445.61
             2683.30,444.05 2681.17,432.16 2677.19,426.09
             2677.19,426.09 2663.32,407.09 2663.32,407.09
             2663.32,407.09 2657.49,401.49 2657.49,401.49
             2657.49,401.49 2649.01,388.00 2649.01,388.00
             2647.60,385.02 2648.34,382.90 2647.44,380.00
             2647.44,380.00 2643.00,369.00 2643.00,369.00
             2651.67,365.95 2659.93,364.57 2665.26,356.00
             2667.38,352.59 2666.54,350.61 2667.89,347.00
             2669.04,343.93 2670.41,342.68 2670.80,339.00
             2671.43,333.06 2667.87,330.20 2668.40,326.00
             2668.84,322.60 2671.76,320.07 2673.07,317.00
             2674.30,314.10 2674.00,310.15 2674.00,307.00
             2683.31,306.77 2696.63,300.52 2706.00,298.52
             2706.00,298.52 2727.00,296.18 2727.00,296.18
             2727.00,296.18 2739.00,296.99 2739.00,296.99
             2746.37,296.80 2754.39,292.85 2757.83,286.00
             2760.12,281.43 2757.51,278.89 2763.46,270.21
             2767.06,264.96 2772.84,266.09 2778.81,255.00
             2782.69,247.80 2779.71,243.62 2782.01,238.00
             2783.98,233.20 2790.02,229.42 2793.67,225.00
             2797.90,219.88 2798.82,215.16 2805.59,208.39
             2809.63,204.36 2821.29,200.72 2827.00,201.04
             2836.08,201.56 2834.36,207.32 2840.18,212.77
             2843.42,215.81 2845.81,215.94 2850.00,216.09
             2850.00,216.09 2860.00,216.09 2860.00,216.09
             2860.00,216.09 2866.00,217.06 2866.00,217.06
             2866.00,217.06 2872.00,217.06 2872.00,217.06
             2874.75,217.21 2877.41,219.25 2881.00,218.66
             2881.00,218.66 2895.00,212.46 2895.00,212.46
             2903.53,207.95 2904.84,203.10 2911.43,197.23
             2913.55,195.34 2923.36,189.88 2926.00,189.16
             2927.70,188.92 2931.15,188.99 2933.00,189.16
             2938.67,189.02 2945.92,190.94 2951.00,189.16
             2953.65,188.28 2965.08,183.38 2966.72,181.73
             2969.99,178.44 2971.54,170.99 2967.69,167.58
             2966.33,166.38 2963.73,165.63 2962.00,165.00
             2962.66,162.43 2963.84,159.64 2963.18,157.00 Z" />
</svg>
