<?xml version="1.0" encoding="UTF-8" standalone="no"?>
<!DOCTYPE svg PUBLIC "-//W3C//DTD SVG 20010904//EN"
              "http://www.w3.org/TR/2001/REC-SVG-20010904/DTD/svg10.dtd">

<svg xmlns="http://www.w3.org/2000/svg"
     width="7.63793in" height="12.4984in"
     viewBox="0 0 550 900">
  <path id="Moscow"
        fill="none" stroke="black" stroke-width="1"
        d="M 346.18,167.00
           C 345.38,163.79 342.30,161.35 343.11,157.00
             343.85,153.11 352.94,140.02 350.28,132.00
             350.28,132.00 343.36,118.10 343.36,118.10
             340.29,114.04 333.87,109.58 335.70,103.00
             336.91,98.66 342.35,96.16 346.00,94.22
             354.33,89.78 363.81,87.08 369.49,79.00
             369.49,79.00 375.53,64.04 375.53,64.04
             375.53,64.04 381.59,55.96 381.59,55.96
             384.56,50.68 383.43,47.24 384.59,44.00
             384.59,44.00 391.98,32.00 391.98,32.00
             395.03,25.54 404.32,13.06 411.00,10.60
             412.94,9.88 415.91,10.00 418.00,10.00
             418.00,10.00 525.00,10.00 525.00,10.00
             525.00,10.00 525.00,889.00 525.00,889.00
             517.29,888.62 517.39,887.12 511.00,885.68
             511.00,885.68 500.00,884.32 500.00,884.32
             494.14,882.98 485.75,878.00 481.09,874.24
             476.22,870.32 474.48,865.61 469.00,861.63
             469.00,861.63 457.09,854.90 457.09,854.90
             453.05,851.97 452.52,849.57 449.62,846.00
             447.34,843.20 439.14,835.48 435.59,835.07
             431.77,834.62 428.05,838.59 425.00,840.29
             421.12,842.45 419.28,841.28 416.09,843.09
             413.34,844.66 411.65,847.64 408.96,848.96
             404.43,851.19 399.22,847.11 391.00,848.13
             386.26,848.72 379.32,853.53 374.01,853.69
             369.12,853.83 368.05,850.29 365.39,847.17
             361.84,842.99 354.84,837.79 349.02,839.51
             342.69,841.38 342.41,848.66 337.37,854.57
             336.01,856.17 333.89,858.08 332.00,858.99
             329.69,860.11 316.77,861.26 314.00,860.86
             310.21,860.30 309.21,858.70 306.00,857.56
             299.17,855.14 290.66,853.75 285.78,847.83
             285.78,847.83 278.02,837.00 278.02,837.00
             276.46,833.80 277.50,831.26 275.83,828.02
             273.95,824.37 267.13,819.68 263.00,819.48
             260.90,819.38 258.92,820.29 257.00,821.00
             257.00,821.00 252.89,814.00 252.89,814.00
             252.89,814.00 250.28,808.04 250.28,808.04
             250.28,808.04 242.20,798.00 242.20,798.00
             242.20,798.00 236.78,789.70 236.78,789.70
             236.78,789.70 225.00,785.00 225.00,785.00
             226.03,780.66 227.70,776.15 232.02,773.88
             235.11,772.52 237.82,773.91 241.00,773.88
             241.00,773.88 254.00,770.59 254.00,770.59
             259.70,768.86 261.20,764.30 264.46,761.31
             267.66,758.39 269.64,759.46 272.83,757.26
             275.29,755.57 277.13,752.44 280.01,750.91
             283.34,749.42 285.91,751.06 290.00,750.91
             294.72,750.48 301.51,747.39 304.57,743.79
             306.42,741.62 306.77,739.70 307.24,737.00
             309.14,726.18 303.88,725.58 301.81,717.00
             300.39,711.16 304.11,710.35 305.98,706.83
             307.23,704.48 307.20,699.62 306.79,697.00
             305.46,688.57 298.08,686.99 296.47,679.96
             295.90,677.43 294.96,668.56 295.17,666.00
             295.95,656.73 301.17,648.12 291.00,641.85
             289.22,640.75 287.94,640.50 286.00,640.00
             292.43,629.10 298.46,632.25 301.44,624.98
             305.95,613.98 290.70,610.57 286.40,604.90
             283.32,600.83 287.11,601.64 281.00,592.00
             286.16,584.07 278.46,578.99 271.00,578.39
             271.00,578.39 261.00,579.00 261.00,579.00
             260.78,574.48 260.23,569.70 255.89,567.17
             255.89,567.17 250.49,564.99 250.49,564.99
             250.49,564.99 245.78,559.53 245.78,559.53
             239.60,553.90 236.23,554.78 229.00,556.00
             224.76,547.26 219.11,547.83 211.00,546.70
             208.24,546.32 205.84,545.41 203.00,545.97
             199.84,546.60 197.43,548.85 195.00,549.34
             190.63,550.23 187.92,546.31 183.00,546.51
             183.00,546.51 174.00,548.79 174.00,548.79
             170.95,549.23 166.77,548.65 164.09,549.56
             160.39,550.82 161.00,552.49 155.00,554.00
             151.94,543.20 150.84,544.54 143.00,539.31
             140.06,537.35 138.38,535.19 135.00,533.57
             129.88,531.10 123.37,530.54 118.00,528.96
             118.00,528.96 106.00,524.39 106.00,524.39
             97.25,522.45 91.88,523.33 84.00,518.00
             84.69,516.32 85.88,513.77 85.98,512.00
             85.98,512.00 79.95,492.00 79.95,492.00
             79.69,489.59 81.50,485.82 82.06,483.00
             82.06,483.00 83.38,468.00 83.38,468.00
             84.35,454.19 71.46,462.23 67.43,454.87
             66.32,452.85 63.52,441.17 60.19,436.09
             60.19,436.09 46.32,417.04 46.32,417.04
             46.32,417.04 39.81,410.63 39.81,410.63
             39.81,410.63 31.93,397.72 31.93,397.72
             30.65,395.03 31.29,392.82 30.46,390.00
             28.97,384.97 27.41,386.30 27.00,378.00
             35.65,377.11 44.54,372.94 48.86,365.00
             50.26,362.43 50.51,359.71 51.40,357.00
             52.40,353.98 53.63,352.37 53.88,349.00
             54.34,342.91 50.87,340.31 51.52,336.00
             52.02,332.67 54.83,329.96 56.07,327.00
             57.30,324.05 57.00,320.18 57.00,317.00
             63.43,317.57 81.50,310.50 89.00,308.61
             89.00,308.61 110.00,306.18 110.00,306.18
             121.26,306.18 130.78,309.95 139.35,298.83
             143.92,292.90 139.34,291.74 145.92,281.11
             149.73,274.95 153.99,277.29 160.61,267.00
             166.46,257.92 162.31,254.37 165.09,248.00
             167.54,242.39 174.12,239.03 178.35,233.00
             178.35,233.00 181.53,227.17 181.53,227.17
             186.04,219.51 190.12,216.84 198.00,213.58
             202.64,211.65 204.82,210.69 210.00,211.05
             222.42,211.92 216.75,225.72 232.00,226.08
             232.00,226.08 242.00,226.08 242.00,226.08
             242.00,226.08 249.00,227.08 249.00,227.08
             249.00,227.08 255.00,227.08 255.00,227.08
             257.84,227.23 260.49,229.26 263.42,229.00
             263.42,229.00 277.00,223.02 277.00,223.02
             289.86,216.69 287.70,210.42 302.00,202.69
             307.34,199.81 307.77,199.09 314.00,199.00
             314.00,199.00 332.00,199.79 332.00,199.79
             335.74,199.21 337.68,197.59 341.00,196.20
             343.33,195.22 345.85,194.73 347.96,193.28
             352.27,190.31 355.30,181.82 351.26,177.59
             349.95,176.23 346.83,175.59 345.00,175.00
             345.66,172.42 346.83,169.66 346.18,167.00 Z" />
</svg>
