<?xml version="1.0" encoding="UTF-8" standalone="no"?>
<!DOCTYPE svg PUBLIC "-//W3C//DTD SVG 20010904//EN"
              "http://www.w3.org/TR/2001/REC-SVG-20010904/DTD/svg10.dtd">

<svg xmlns="http://www.w3.org/2000/svg"
     width="9.72101in" height="6.94358in"
     viewBox="0 0 700 500">
  <path id="Orel"
        fill="Yellow" stroke="black" stroke-width="1"
        d="M 393.72,6.00
           C 393.72,6.00 396.75,12.00 396.75,12.00
             397.90,15.52 396.40,16.99 398.73,21.00
             398.73,21.00 407.63,34.91 407.63,34.91
             407.63,34.91 414.21,41.32 414.21,41.32
             414.21,41.32 428.18,61.00 428.18,61.00
             433.13,69.36 431.59,82.69 443.00,85.47
             445.29,86.03 447.66,85.98 450.00,86.00
             450.00,90.38 449.71,98.93 448.57,103.00
             447.44,107.07 444.63,108.82 444.87,112.00
             444.92,112.67 452.71,129.86 451.91,134.00
             451.49,136.23 449.39,138.76 451.04,141.86
             453.59,146.66 462.24,148.48 467.00,149.59
             467.00,149.59 478.00,151.78 478.00,151.78
             478.00,151.78 494.00,157.49 494.00,157.49
             494.00,157.49 499.00,160.00 499.00,160.00
             502.39,161.27 504.06,159.98 506.96,161.26
             506.96,161.26 519.78,171.22 519.78,171.22
             521.92,174.34 523.33,180.76 529.00,181.35
             533.48,181.81 536.18,176.97 542.00,176.14
             542.00,176.14 557.00,174.37 557.00,174.37
             560.85,174.76 563.96,178.14 568.00,177.59
             571.04,177.17 573.16,174.68 576.00,173.77
             577.97,173.14 586.79,173.88 589.00,174.39
             595.86,175.98 596.25,180.97 600.10,182.96
             604.10,185.03 607.09,181.67 610.96,182.96
             615.20,184.37 615.75,188.94 619.13,191.40
             621.82,193.36 624.33,192.65 626.15,194.60
             628.90,197.55 626.86,203.34 631.23,205.98
             635.40,208.50 639.12,204.60 649.00,207.00
             646.83,212.84 646.29,214.47 651.00,219.00
             649.86,226.42 652.90,229.85 659.09,233.96
             662.20,236.03 667.02,237.59 667.40,242.00
             667.77,246.16 663.79,247.11 661.09,248.99
             657.72,251.33 651.75,258.59 652.42,262.96
             653.42,269.51 661.37,266.18 663.39,271.15
             664.58,274.09 662.53,279.69 662.09,283.00
             662.09,283.00 662.09,290.00 662.09,290.00
             662.01,294.65 662.39,303.02 664.85,306.96
             667.54,311.27 673.14,313.36 673.72,319.00
             674.27,324.43 668.38,329.22 667.51,334.00
             665.84,343.23 678.81,350.95 672.07,360.67
             666.85,368.20 656.63,363.00 652.00,365.06
             649.32,366.25 646.07,369.90 643.42,371.64
             640.15,373.78 637.80,373.19 634.32,376.39
             631.36,379.12 629.64,383.58 625.83,385.27
             625.83,385.27 613.00,388.39 613.00,388.39
             608.99,388.21 607.11,386.23 603.00,388.39
             594.02,393.70 592.86,402.92 590.86,405.52
             588.49,408.61 584.08,407.66 581.89,413.04
             580.15,417.33 582.09,422.47 579.40,425.69
             577.52,427.93 574.47,427.94 572.00,429.16
             572.00,429.16 562.00,435.96 562.00,435.96
             558.62,437.77 554.02,438.60 551.31,441.39
             545.62,447.27 553.29,449.72 548.00,459.00
             545.91,457.33 543.35,454.68 540.96,453.74
             536.90,452.14 524.67,452.87 521.09,455.57
             518.60,457.46 517.96,459.20 517.00,462.00
             508.80,461.33 504.75,453.73 499.63,448.21
             496.57,444.90 492.00,441.09 489.84,436.83
             488.57,433.63 490.31,431.07 489.84,428.04
             489.08,425.45 483.03,420.00 480.83,418.31
             477.69,415.90 476.54,416.69 473.00,416.67
             459.63,416.59 464.66,419.49 456.00,421.58
             452.79,422.36 443.34,420.64 440.00,419.70
             431.82,417.40 434.96,408.18 427.98,407.69
             427.98,407.69 423.00,408.42 423.00,408.42
             423.00,408.42 418.00,408.42 418.00,408.42
             414.09,408.76 412.44,411.03 409.00,412.28
             405.50,413.55 401.70,412.97 394.02,416.90
             388.53,419.71 388.85,422.39 384.90,423.57
             384.90,423.57 375.00,424.18 375.00,424.18
             368.57,424.98 356.83,430.87 354.23,437.01
             351.80,442.72 354.90,445.84 355.00,454.00
             355.00,454.00 357.83,481.00 357.83,481.00
             358.37,488.06 351.81,494.54 345.00,495.77
             345.00,495.77 334.00,496.55 334.00,496.55
             329.24,497.34 329.36,499.00 323.00,497.96
             318.10,497.15 313.79,494.35 311.00,494.57
             306.34,494.94 307.05,498.81 300.00,500.00
             300.00,500.00 299.00,489.00 299.00,489.00
             299.00,489.00 303.00,488.00 303.00,488.00
             297.35,482.80 298.77,484.74 293.00,481.61
             281.23,475.22 280.23,474.82 267.00,472.00
             265.72,462.00 260.85,457.95 252.00,454.00
             252.00,454.00 255.00,434.00 255.00,434.00
             249.37,434.45 248.34,435.49 245.00,440.00
             245.00,440.00 233.00,434.00 233.00,434.00
             233.00,429.78 232.68,426.02 234.28,422.00
             235.97,417.78 239.54,414.90 238.51,410.00
             237.65,405.87 234.01,401.02 230.97,398.21
             228.95,396.34 225.92,394.83 225.50,391.90
             225.50,391.90 226.47,385.00 226.47,385.00
             226.52,382.60 225.54,380.35 225.21,378.00
             224.69,374.40 225.08,368.35 222.28,365.60
             219.29,362.67 215.92,365.58 211.00,362.89
             211.00,362.89 204.00,358.08 204.00,358.08
             195.02,352.46 183.36,348.74 173.00,353.00
             168.06,355.04 162.48,360.99 158.00,364.24
             156.20,365.54 152.67,368.04 150.33,367.27
             146.49,366.01 150.15,355.63 151.00,353.00
             142.80,349.54 134.08,346.15 125.00,348.47
             120.20,349.70 118.99,352.31 113.00,354.00
             111.91,349.19 111.26,347.63 107.00,345.00
             108.19,342.02 109.07,336.80 103.83,338.98
             99.75,340.68 93.12,345.71 90.00,349.00
             90.00,349.00 88.00,348.00 88.00,348.00
             88.98,342.42 88.24,334.28 86.16,329.00
             86.16,329.00 81.86,321.61 81.86,321.61
             80.41,317.82 85.83,313.04 77.98,310.50
             77.98,310.50 75.00,310.00 75.00,310.00
             75.00,310.00 67.20,299.82 67.20,299.82
             67.20,299.82 67.20,290.00 67.20,290.00
             67.20,290.00 54.00,290.00 54.00,290.00
             55.27,282.92 54.88,283.81 55.00,277.00
             55.13,270.15 56.68,271.07 57.16,267.83
             57.44,265.92 55.10,257.14 54.16,255.32
             49.97,247.27 39.44,249.99 39.00,236.00
             39.00,236.00 30.00,236.00 30.00,236.00
             30.90,232.59 32.63,222.34 33.98,220.19
             36.30,216.48 42.22,215.11 43.50,211.41
             44.21,209.35 42.39,206.10 41.79,204.00
             39.73,196.81 41.45,194.13 31.00,194.00
             31.00,194.00 35.00,183.00 35.00,183.00
             35.00,183.00 31.00,184.00 31.00,184.00
             29.11,180.65 28.76,180.63 25.00,180.00
             26.91,176.92 27.53,176.88 31.00,176.00
             31.36,164.56 37.54,165.79 36.85,158.03
             36.43,153.22 32.24,149.95 31.28,145.00
             30.13,139.15 33.43,132.94 32.17,129.01
             30.61,124.10 25.44,123.72 26.01,118.00
             26.01,118.00 28.79,105.00 28.79,105.00
             29.21,102.03 28.63,96.46 29.60,94.19
             31.85,88.87 40.14,90.09 38.85,81.02
             38.07,75.57 34.08,76.51 31.99,73.44
             31.99,73.44 29.00,60.00 29.00,60.00
             33.76,59.63 42.90,60.33 43.94,54.16
             43.94,54.16 43.00,46.00 43.00,46.00
             44.50,46.12 46.01,46.03 47.30,46.99
             51.20,49.92 51.44,62.33 52.95,67.00
             53.77,69.54 55.58,75.68 57.43,77.26
             60.32,79.74 64.29,78.17 64.81,83.06
             65.19,86.59 63.09,89.67 62.39,93.00
             62.39,93.00 61.47,102.00 61.47,102.00
             59.06,112.73 56.06,117.02 63.73,127.00
             67.29,131.63 68.57,134.40 75.00,133.82
             84.12,133.00 95.68,125.89 104.00,127.15
             112.34,128.41 113.11,136.80 124.00,137.00
             126.71,137.04 131.55,137.29 133.87,135.98
             136.33,134.59 137.04,132.22 138.68,130.82
             140.54,129.23 143.68,128.80 146.00,127.87
             150.31,126.15 152.87,123.42 157.96,124.15
             163.19,124.90 163.40,129.39 168.04,131.83
             171.65,133.72 174.28,132.10 178.89,134.85
             185.22,138.62 183.15,146.15 186.30,151.96
             189.14,157.20 192.35,155.81 198.15,162.05
             206.66,171.21 199.76,177.17 213.00,180.47
             225.51,183.60 231.45,177.59 243.00,177.97
             247.78,178.22 250.11,179.57 255.00,177.97
             262.52,175.31 271.79,161.84 271.95,154.00
             272.03,149.46 270.46,147.09 269.00,143.00
             269.00,143.00 291.96,130.66 291.96,130.66
             296.89,126.47 297.40,123.06 299.68,120.37
             301.95,117.72 305.96,115.94 307.79,112.00
             309.47,108.37 307.42,106.65 309.15,102.00
             312.33,93.44 322.87,90.27 313.00,81.00
             316.42,67.40 309.34,67.30 314.68,57.21
             316.36,54.04 320.13,52.81 322.99,50.78
             326.41,48.36 331.34,42.80 333.01,39.00
             336.27,31.60 327.75,25.04 336.06,19.25
             344.27,13.52 345.50,19.19 353.00,17.47
             359.73,15.92 360.98,11.22 366.01,8.93
             366.01,8.93 380.00,4.85 380.00,4.85
             385.64,3.66 386.54,6.74 392.00,0.00
             392.00,0.00 393.72,6.00 393.72,6.00 Z" />
</svg>
