<?xml version="1.0" encoding="UTF-8" standalone="no"?>
<!DOCTYPE svg PUBLIC "-//W3C//DTD SVG 20010904//EN"
              "http://www.w3.org/TR/2001/REC-SVG-20010904/DTD/svg10.dtd">

<svg xmlns="http://www.w3.org/2000/svg"
     width="43.6334in" height="36.3288in"
     viewBox="0 0 3142 2616">
  <path id="Orel"
        fill="Blue" stroke="black" stroke-width="1"
        d="M 2637.73,375.00
           C 2637.73,375.00 2640.90,381.00 2640.90,381.00
             2642.02,384.42 2640.33,385.85 2642.73,390.00
             2642.73,390.00 2652.39,404.79 2652.39,404.79
             2652.39,404.79 2658.37,410.21 2658.37,410.21
             2658.37,410.21 2672.32,430.00 2672.32,430.00
             2677.56,438.32 2675.43,451.66 2687.00,454.47
             2689.29,455.03 2691.66,454.98 2694.00,455.00
             2694.00,459.93 2693.93,467.28 2692.70,472.00
             2691.63,476.13 2688.91,477.74 2689.13,481.00
             2689.18,481.86 2696.78,499.29 2696.07,503.00
             2695.63,505.29 2693.54,507.86 2695.07,510.86
             2697.50,515.63 2706.32,517.50 2711.00,518.59
             2711.00,518.59 2722.00,520.63 2722.00,520.63
             2722.00,520.63 2737.83,526.19 2737.83,526.19
             2737.83,526.19 2744.04,529.33 2744.04,529.33
             2746.51,530.02 2748.39,528.99 2751.00,530.11
             2752.52,530.76 2762.95,538.68 2763.92,540.13
             2766.09,543.37 2767.05,549.55 2773.00,550.21
             2777.34,550.69 2779.75,546.35 2785.00,545.28
             2785.00,545.28 2802.00,543.45 2802.00,543.45
             2805.12,544.06 2807.92,546.59 2811.00,546.63
             2814.75,546.69 2816.72,543.67 2820.00,542.61
             2822.08,541.93 2830.65,542.86 2833.00,543.39
             2840.84,545.14 2839.70,549.52 2844.11,551.88
             2848.28,553.98 2851.08,550.69 2854.98,551.88
             2859.54,553.44 2859.77,557.91 2863.14,560.40
             2865.77,562.35 2868.40,561.68 2870.26,563.60
             2873.13,566.56 2870.71,572.25 2875.23,574.98
             2879.39,577.50 2884.22,573.51 2893.00,576.00
             2890.25,584.94 2891.86,581.93 2893.87,588.00
             2895.56,593.13 2892.02,593.19 2900.58,600.87
             2904.48,604.37 2910.98,606.16 2911.40,611.00
             2911.73,614.75 2908.49,615.88 2906.00,617.68
             2902.35,620.32 2895.66,626.97 2896.42,631.96
             2897.42,638.51 2905.37,635.18 2907.39,640.15
             2908.55,643.00 2906.50,649.64 2906.17,653.00
             2905.73,657.43 2906.51,668.91 2907.80,673.00
             2910.25,680.74 2917.95,681.82 2917.75,689.00
             2917.60,694.47 2911.73,698.56 2911.51,704.00
             2911.13,713.56 2921.07,717.83 2917.61,727.90
             2914.26,737.65 2900.44,732.08 2896.00,734.06
             2893.45,735.19 2889.98,738.92 2887.42,740.66
             2883.93,743.03 2882.19,742.26 2878.09,746.13
             2875.08,748.97 2873.40,752.77 2869.91,754.27
             2869.91,754.27 2857.00,757.55 2857.00,757.55
             2853.30,757.40 2851.20,755.26 2847.00,757.55
             2837.85,763.18 2836.88,772.04 2835.02,774.50
             2832.61,777.68 2828.00,776.92 2825.89,782.05
             2824.10,786.41 2826.17,792.30 2823.26,795.27
             2821.75,796.81 2818.19,797.36 2816.00,798.44
             2816.00,798.44 2806.00,805.11 2806.00,805.11
             2802.24,807.12 2797.50,807.43 2794.74,811.21
             2789.79,817.98 2798.49,821.10 2791.00,828.00
             2789.47,826.24 2788.01,824.31 2785.91,823.17
             2781.82,820.97 2768.86,821.88 2765.11,824.59
             2762.61,826.40 2761.94,828.25 2761.00,831.00
             2749.13,830.62 2748.12,817.48 2738.00,814.00
             2736.49,808.78 2734.52,807.96 2733.66,805.00
             2732.92,802.29 2734.21,799.61 2733.66,797.05
             2733.13,794.72 2726.00,787.94 2723.91,786.56
             2721.41,785.08 2711.86,785.51 2709.00,786.56
             2705.14,787.78 2703.49,790.42 2698.00,790.89
             2694.55,791.19 2682.68,788.99 2680.30,786.69
             2677.10,783.59 2677.53,777.94 2672.95,776.81
             2672.95,776.81 2660.00,777.82 2660.00,777.82
             2660.00,777.82 2653.00,781.43 2653.00,781.43
             2650.18,782.45 2643.43,782.69 2637.04,786.41
             2632.68,788.95 2632.58,791.47 2628.90,792.57
             2628.90,792.57 2619.00,793.32 2619.00,793.32
             2612.86,794.35 2603.19,798.96 2599.51,804.02
             2595.25,809.88 2598.92,816.51 2599.00,823.00
             2599.11,832.77 2599.68,830.09 2601.04,838.00
             2601.04,838.00 2601.04,845.00 2601.04,845.00
             2601.96,850.67 2603.19,854.14 2598.87,858.83
             2590.85,867.53 2587.84,863.92 2578.00,865.55
             2573.24,866.34 2573.36,868.00 2567.00,866.96
             2562.11,866.15 2557.77,863.35 2555.00,863.57
             2549.99,863.98 2550.34,868.80 2543.00,871.00
             2543.00,871.00 2543.00,858.00 2543.00,858.00
             2543.00,858.00 2547.00,857.00 2547.00,857.00
             2541.35,851.80 2542.77,853.74 2537.00,850.61
             2525.23,844.22 2524.23,843.82 2511.00,841.00
             2509.72,831.00 2504.85,826.95 2496.00,823.00
             2496.00,823.00 2499.00,803.00 2499.00,803.00
             2493.37,803.45 2492.34,804.49 2489.00,809.00
             2489.00,809.00 2477.00,803.00 2477.00,803.00
             2477.00,798.78 2476.68,795.02 2478.28,791.00
             2479.97,786.78 2483.54,783.90 2482.51,779.00
             2481.65,774.87 2478.01,770.02 2474.97,767.21
             2472.95,765.34 2469.92,763.83 2469.50,760.90
             2469.50,760.90 2470.47,754.00 2470.47,754.00
             2470.52,751.60 2469.54,749.35 2469.21,747.00
             2468.69,743.40 2469.08,737.35 2466.28,734.60
             2463.29,731.67 2459.92,734.58 2455.00,731.89
             2455.00,731.89 2448.00,727.08 2448.00,727.08
             2439.02,721.46 2427.36,717.74 2417.00,722.00
             2412.06,724.04 2406.48,729.99 2402.00,733.24
             2400.20,734.54 2396.67,737.04 2394.33,736.27
             2390.49,735.01 2394.15,724.63 2395.00,722.00
             2386.80,718.54 2378.08,715.15 2369.00,717.47
             2364.20,718.70 2362.99,721.31 2357.00,723.00
             2355.91,718.19 2355.26,716.63 2351.00,714.00
             2351.00,714.00 2354.00,709.00 2354.00,709.00
             2354.00,709.00 2349.00,706.00 2349.00,706.00
             2349.00,706.00 2334.00,718.00 2334.00,718.00
             2334.00,718.00 2332.00,717.00 2332.00,717.00
             2332.98,711.42 2332.24,703.28 2330.16,698.00
             2330.16,698.00 2325.86,690.61 2325.86,690.61
             2324.41,686.82 2329.83,682.04 2321.98,679.50
             2321.98,679.50 2319.00,679.00 2319.00,679.00
             2319.00,679.00 2311.20,668.82 2311.20,668.82
             2311.20,668.82 2311.20,659.00 2311.20,659.00
             2311.20,659.00 2298.00,659.00 2298.00,659.00
             2299.27,651.92 2298.88,652.81 2299.00,646.00
             2299.13,639.15 2300.68,640.07 2301.16,636.83
             2301.44,634.92 2299.10,626.14 2298.16,624.32
             2293.97,616.27 2283.44,618.99 2283.00,605.00
             2283.00,605.00 2274.00,605.00 2274.00,605.00
             2274.90,601.59 2276.63,591.34 2277.98,589.19
             2280.30,585.48 2286.22,584.11 2287.50,580.41
             2288.21,578.35 2286.39,575.10 2285.79,573.00
             2283.73,565.81 2285.45,563.13 2275.00,563.00
             2275.00,563.00 2279.00,552.00 2279.00,552.00
             2279.00,552.00 2275.00,553.00 2275.00,553.00
             2273.11,549.65 2272.76,549.63 2269.00,549.00
             2270.91,545.92 2271.53,545.88 2275.00,545.00
             2275.36,533.56 2281.54,534.79 2280.85,527.03
             2280.43,522.22 2276.24,518.95 2275.28,514.00
             2274.13,508.15 2277.43,501.94 2276.17,498.01
             2274.61,493.10 2269.44,492.72 2270.01,487.00
             2270.01,487.00 2272.79,474.00 2272.79,474.00
             2273.21,471.03 2272.63,465.46 2273.60,463.19
             2275.85,457.87 2284.14,459.09 2282.85,450.02
             2282.07,444.57 2278.08,445.51 2275.99,442.44
             2275.99,442.44 2273.00,429.00 2273.00,429.00
             2277.76,428.63 2286.90,429.33 2287.94,423.16
             2287.94,423.16 2287.00,415.00 2287.00,415.00
             2293.78,415.54 2294.00,419.99 2295.19,426.00
             2296.20,431.05 2297.65,444.03 2302.23,446.83
             2304.23,448.05 2306.74,447.94 2309.00,448.00
             2308.97,457.94 2308.31,454.27 2306.47,462.00
             2306.47,462.00 2305.79,470.00 2305.79,470.00
             2305.11,474.84 2303.85,474.56 2303.65,482.00
             2303.58,484.78 2303.60,488.42 2304.65,491.00
             2305.50,493.09 2307.16,495.19 2308.53,496.98
             2309.85,498.72 2311.25,500.73 2313.18,501.83
             2316.98,503.98 2322.15,502.39 2326.00,501.16
             2332.09,499.22 2341.96,495.23 2348.00,496.15
             2353.37,496.96 2356.76,501.89 2361.28,504.44
             2364.49,506.26 2372.43,506.59 2375.96,505.57
             2380.01,504.39 2380.12,501.74 2382.49,499.85
             2384.56,498.20 2388.33,497.67 2391.00,496.45
             2393.57,495.27 2396.34,493.00 2399.00,492.47
             2405.94,491.10 2407.31,498.22 2412.09,500.83
             2416.24,503.08 2420.93,500.91 2425.28,505.70
             2428.20,508.91 2427.92,516.50 2430.44,520.91
             2433.43,526.12 2436.46,524.53 2442.27,531.04
             2449.28,538.90 2445.49,539.36 2448.60,543.96
             2452.44,549.65 2459.78,550.14 2466.00,549.99
             2466.00,549.99 2483.00,547.09 2483.00,547.09
             2489.30,546.65 2494.99,548.73 2501.00,546.03
             2506.17,543.71 2506.81,541.32 2509.64,537.00
             2517.31,525.30 2517.72,525.23 2513.00,512.00
             2513.00,512.00 2535.96,499.61 2535.96,499.61
             2540.80,495.62 2541.42,492.03 2543.68,489.37
             2545.83,486.85 2549.23,485.35 2551.22,481.98
             2553.78,477.67 2550.82,475.74 2553.42,470.00
             2555.69,464.96 2560.02,461.79 2560.63,458.00
             2561.23,454.24 2558.39,452.05 2558.06,449.00
             2558.06,449.00 2558.06,442.00 2558.06,442.00
             2557.46,435.14 2554.94,435.02 2558.06,427.10
             2560.09,422.91 2563.46,422.30 2566.99,419.70
             2570.57,417.06 2575.07,412.08 2576.86,408.00
             2579.80,401.33 2573.58,395.61 2577.60,390.33
             2583.84,382.12 2589.73,387.99 2597.00,386.31
             2603.95,384.71 2604.42,380.50 2610.00,377.92
             2610.00,377.92 2624.00,373.72 2624.00,373.72
             2629.95,372.47 2630.57,375.70 2636.00,369.00
             2636.00,369.00 2637.73,375.00 2637.73,375.00 Z" />
</svg>
