<?xml version="1.0" encoding="UTF-8" standalone="no"?>
<!DOCTYPE svg PUBLIC "-//W3C//DTD SVG 20010904//EN"
              "http://www.w3.org/TR/2001/REC-SVG-20010904/DTD/svg10.dtd">

<svg xmlns="http://www.w3.org/2000/svg"
     width="43.6334in" height="36.3288in"
     viewBox="0 0 3142 2616">
  <path id="Poland"
        fill="Blue" stroke="black" stroke-width="1"
        d="M 2084.97,907.04
           C 2082.72,901.18 2073.55,898.42 2081.61,890.25
             2082.98,888.86 2083.40,888.84 2085.00,888.00
             2085.35,899.20 2089.53,897.95 2097.00,904.00
             2097.00,904.00 2101.00,901.00 2101.00,901.00
             2103.42,904.64 2104.39,903.45 2108.00,905.08
             2108.00,905.08 2116.00,910.07 2116.00,910.07
             2119.75,912.04 2125.12,913.33 2127.61,917.07
             2129.60,920.06 2128.94,928.27 2129.00,932.00
             2129.19,942.84 2134.46,941.74 2137.11,950.00
             2139.59,957.74 2139.68,959.39 2143.23,967.17
             2143.23,967.17 2149.50,981.00 2149.50,981.00
             2149.50,981.00 2151.76,987.72 2151.76,987.72
             2151.76,987.72 2155.93,995.99 2155.93,995.99
             2160.93,1006.78 2163.02,1015.09 2163.00,1027.00
             2162.98,1038.83 2160.38,1034.43 2152.00,1040.46
             2146.42,1044.47 2146.44,1046.47 2139.00,1047.00
             2137.93,1057.36 2131.87,1062.25 2131.10,1071.00
             2130.64,1076.24 2131.44,1080.55 2137.02,1082.35
             2138.93,1082.97 2141.01,1082.97 2143.00,1083.00
             2143.00,1083.00 2147.00,1083.00 2147.00,1083.00
             2147.00,1083.00 2147.00,1089.00 2147.00,1089.00
             2149.28,1089.00 2155.60,1088.58 2157.24,1089.99
             2160.14,1092.48 2156.33,1098.13 2155.65,1101.99
             2155.04,1105.45 2156.47,1107.08 2158.00,1110.00
             2150.53,1114.70 2154.10,1116.12 2154.87,1123.00
             2155.67,1130.14 2152.79,1133.67 2161.00,1137.00
             2161.00,1137.00 2164.69,1146.00 2164.69,1146.00
             2165.57,1149.79 2163.95,1153.04 2167.40,1157.68
             2170.78,1162.22 2174.58,1162.19 2176.77,1165.30
             2176.77,1165.30 2181.20,1175.99 2181.20,1175.99
             2183.64,1180.47 2185.77,1181.46 2189.00,1185.00
             2189.00,1185.00 2185.00,1185.00 2185.00,1185.00
             2185.64,1196.37 2191.09,1194.99 2194.16,1203.00
             2197.21,1210.94 2193.51,1220.34 2185.00,1222.76
             2182.69,1223.12 2179.43,1223.00 2177.00,1222.76
             2175.13,1231.64 2168.76,1242.12 2162.73,1248.48
             2162.73,1248.48 2153.56,1256.48 2153.56,1256.48
             2153.56,1256.48 2146.70,1271.00 2146.70,1271.00
             2142.71,1278.19 2130.42,1295.47 2129.26,1302.00
             2127.68,1310.88 2133.42,1314.53 2135.17,1322.09
             2137.36,1331.61 2131.15,1329.59 2138.00,1339.00
             2138.00,1339.00 2129.00,1337.13 2129.00,1337.13
             2119.02,1336.01 2119.60,1339.01 2108.99,1333.92
             2098.22,1328.76 2096.94,1322.08 2091.91,1318.85
             2088.15,1316.44 2084.15,1317.24 2080.00,1316.91
             2073.24,1316.36 2075.59,1314.85 2064.00,1315.00
             2059.51,1315.06 2046.49,1317.42 2044.02,1321.30
             2042.78,1323.24 2043.01,1326.73 2043.00,1329.00
             2032.16,1327.06 2030.96,1323.05 2026.96,1321.96
             2024.06,1321.18 2022.26,1322.66 2018.00,1322.95
             2014.73,1323.17 2011.03,1322.52 2008.01,1324.02
             2008.01,1324.02 2002.58,1328.01 2002.58,1328.01
             2000.28,1329.31 1998.25,1328.79 1996.39,1330.02
             1992.91,1332.32 1993.04,1337.34 1993.00,1341.00
             1993.00,1341.00 1983.00,1339.00 1983.00,1339.00
             1981.95,1331.47 1978.78,1327.27 1971.00,1327.00
             1970.29,1323.85 1969.55,1321.77 1967.81,1319.00
             1961.31,1308.62 1952.62,1308.91 1945.14,1318.32
             1942.41,1321.77 1943.18,1325.15 1939.90,1326.35
             1936.36,1327.64 1935.61,1324.31 1934.37,1322.09
             1930.70,1315.53 1929.04,1319.99 1929.00,1309.00
             1923.35,1308.93 1913.69,1306.56 1912.35,1300.00
             1910.18,1289.30 1921.13,1292.18 1927.00,1290.21
             1933.36,1288.08 1934.82,1284.26 1934.99,1278.00
             1935.18,1270.64 1934.60,1267.49 1928.91,1262.21
             1926.59,1260.06 1922.62,1258.06 1921.17,1255.67
             1919.63,1253.12 1919.99,1248.01 1920.00,1245.00
             1920.02,1234.19 1923.70,1233.37 1922.22,1229.04
             1919.91,1222.30 1910.13,1224.00 1904.31,1219.04
             1900.08,1215.42 1902.45,1209.49 1898.35,1204.10
             1895.47,1200.32 1891.68,1199.52 1888.10,1196.90
             1882.19,1192.56 1886.36,1192.58 1875.00,1186.00
             1879.64,1175.82 1877.09,1179.48 1876.13,1171.00
             1875.84,1168.46 1876.21,1166.65 1875.46,1164.00
             1874.86,1161.89 1873.70,1160.29 1873.58,1158.00
             1873.58,1158.00 1873.58,1149.00 1873.58,1149.00
             1873.39,1146.00 1868.32,1134.57 1866.52,1132.00
             1858.78,1120.97 1851.16,1121.10 1850.20,1111.00
             1849.25,1101.12 1865.80,1084.43 1874.00,1080.72
             1879.05,1078.45 1881.79,1081.68 1885.69,1077.74
             1889.75,1073.63 1890.86,1058.42 1892.01,1056.00
             1892.01,1056.00 1897.45,1048.00 1897.45,1048.00
             1899.89,1043.56 1900.27,1038.30 1904.48,1034.43
             1904.48,1034.43 1916.00,1028.30 1916.00,1028.30
             1917.94,1027.02 1926.59,1021.12 1928.00,1020.89
             1930.77,1020.45 1931.43,1022.53 1937.00,1022.00
             1937.00,1022.00 1937.85,1024.95 1937.85,1024.95
             1942.15,1034.60 1948.18,1022.27 1954.00,1020.28
             1958.62,1018.71 1960.45,1022.09 1964.00,1022.35
             1967.17,1022.58 1969.19,1020.21 1972.00,1019.26
             1972.00,1019.26 1976.94,1018.33 1976.94,1018.33
             1980.78,1016.90 1980.35,1013.95 1982.58,1011.65
             1984.34,1009.83 1989.48,1007.74 1992.00,1007.58
             1995.64,1007.36 1997.90,1009.67 2002.00,1008.13
             2009.74,1005.22 2008.97,998.09 2019.00,994.38
             2025.39,992.02 2031.22,991.01 2038.00,990.75
             2040.43,991.00 2043.70,991.13 2046.00,990.75
             2048.64,989.78 2068.23,978.42 2071.00,976.39
             2071.00,976.39 2077.00,971.16 2077.00,971.16
             2080.67,967.87 2084.65,964.89 2086.30,960.00
             2090.65,947.14 2078.43,938.50 2077.00,925.00
             2084.39,921.37 2088.10,915.17 2084.97,907.04 Z" />
</svg>
