<?xml version="1.0" encoding="UTF-8" standalone="no"?>
<!DOCTYPE svg PUBLIC "-//W3C//DTD SVG 20010904//EN"
              "http://www.w3.org/TR/2001/REC-SVG-20010904/DTD/svg10.dtd">

<svg xmlns="http://www.w3.org/2000/svg"
     width="6.94358in" height="6.94358in"
     viewBox="0 0 500 500">
  <path id="Poland"
        fill="Yellow" stroke="black" stroke-width="1"
        d="M 315.15,32.73
           C 315.15,32.73 325.00,40.00 325.00,40.00
             325.00,40.00 329.00,37.00 329.00,37.00
             331.42,40.64 332.39,39.45 336.00,41.08
             336.00,41.08 344.00,46.07 344.00,46.07
             347.75,48.04 353.12,49.33 355.61,53.07
             357.60,56.06 356.94,64.27 357.00,68.00
             357.19,78.84 362.46,77.74 365.11,86.00
             367.59,93.74 367.68,95.39 371.23,103.17
             371.23,103.17 377.50,117.00 377.50,117.00
             377.50,117.00 379.76,123.72 379.76,123.72
             379.76,123.72 383.93,131.99 383.93,131.99
             388.93,142.78 391.02,151.09 391.00,163.00
             390.98,174.83 388.38,170.43 380.00,176.46
             374.42,180.47 374.44,182.47 367.00,183.00
             365.93,193.36 359.87,198.25 359.10,207.00
             358.64,212.24 359.44,216.55 365.02,218.35
             366.93,218.97 369.01,218.97 371.00,219.00
             371.00,219.00 375.00,219.00 375.00,219.00
             375.00,219.00 375.00,225.00 375.00,225.00
             377.28,225.00 383.60,224.58 385.24,225.99
             388.14,228.48 384.33,234.13 383.65,237.99
             383.04,241.45 384.47,243.08 386.00,246.00
             378.53,250.70 382.10,252.12 382.87,259.00
             383.67,266.14 380.79,269.67 389.00,273.00
             389.00,273.00 392.69,282.00 392.69,282.00
             393.57,285.79 391.95,289.04 395.40,293.68
             398.78,298.22 402.58,298.19 404.77,301.30
             404.77,301.30 409.20,311.99 409.20,311.99
             411.64,316.47 413.77,317.46 417.00,321.00
             417.00,321.00 413.00,321.00 413.00,321.00
             413.64,332.37 419.09,330.99 422.16,339.00
             425.21,346.94 421.51,356.34 413.00,358.76
             410.69,359.12 407.43,359.00 405.00,358.76
             403.13,367.64 396.76,378.12 390.73,384.48
             390.73,384.48 381.56,392.48 381.56,392.48
             381.56,392.48 374.70,407.00 374.70,407.00
             370.71,414.19 358.42,431.47 357.26,438.00
             355.68,446.88 361.42,450.53 363.17,458.09
             365.36,467.61 359.15,465.59 366.00,475.00
             366.00,475.00 357.00,473.13 357.00,473.13
             347.02,472.01 347.60,475.01 336.99,469.92
             326.22,464.76 324.94,458.08 319.91,454.85
             316.15,452.44 312.15,453.24 308.00,452.91
             301.24,452.36 303.59,450.85 292.00,451.00
             287.51,451.06 274.49,453.42 272.02,457.30
             270.78,459.24 271.01,462.73 271.00,465.00
             260.16,463.06 258.96,459.05 254.96,457.96
             252.06,457.18 250.26,458.66 246.00,458.95
             242.73,459.17 239.03,458.52 236.01,460.02
             236.01,460.02 230.58,464.01 230.58,464.01
             228.28,465.31 226.25,464.79 224.39,466.02
             220.91,468.32 221.04,473.34 221.00,477.00
             221.00,477.00 211.00,475.00 211.00,475.00
             209.95,467.47 206.78,463.27 199.00,463.00
             198.29,459.85 197.55,457.77 195.81,455.00
             189.31,444.62 180.62,444.91 173.14,454.32
             170.41,457.77 171.18,461.15 167.90,462.35
             164.36,463.64 163.61,460.31 162.37,458.09
             158.70,451.53 157.04,455.99 157.00,445.00
             151.35,444.93 141.69,442.56 140.35,436.00
             138.06,424.73 150.94,428.43 156.98,425.43
             163.42,422.24 163.10,417.22 163.00,411.00
             162.79,398.38 153.47,397.31 149.60,391.87
             147.47,388.88 147.98,383.60 148.00,380.00
             148.07,369.69 152.57,369.70 150.49,364.96
             147.37,357.84 138.20,360.11 132.31,355.04
             128.54,351.78 130.08,345.31 127.26,341.04
             124.34,336.61 119.14,335.26 115.21,332.10
             110.19,328.07 112.37,326.60 103.00,322.00
             107.84,312.38 105.00,314.41 104.12,307.00
             104.12,307.00 104.12,301.00 104.12,301.00
             104.12,301.00 101.69,295.00 101.69,295.00
             100.74,291.60 102.23,289.01 101.69,285.00
             101.44,281.70 96.49,270.85 94.54,268.00
             87.28,257.36 79.22,256.95 78.20,247.00
             77.31,238.33 87.97,228.06 94.00,222.87
             96.38,220.83 99.10,218.33 102.00,217.09
             106.81,215.03 110.30,217.38 113.57,214.45
             115.62,212.62 118.35,202.01 118.79,199.00
             119.17,196.43 118.81,194.49 120.02,192.00
             120.02,192.00 125.59,184.00 125.59,184.00
             128.03,179.52 128.43,174.10 132.48,170.51
             132.48,170.51 147.00,162.78 147.00,162.78
             149.14,161.54 154.66,157.12 156.09,156.89
             158.72,156.46 159.47,158.52 165.00,158.00
             165.67,160.53 166.71,164.61 170.05,164.66
             173.85,164.73 176.86,158.22 182.00,156.33
             187.31,154.39 188.94,159.34 194.00,158.17
             194.00,158.17 200.00,155.55 200.00,155.55
             204.46,154.11 208.93,155.00 209.00,148.00
             211.84,146.42 216.77,143.78 220.00,143.58
             223.54,143.37 226.06,145.64 230.00,144.25
             237.15,141.72 236.90,134.67 246.00,130.93
             249.50,129.49 257.25,127.36 261.00,126.88
             264.86,126.81 270.75,127.56 274.00,126.88
             274.00,126.88 290.00,118.00 290.00,118.00
             297.31,113.82 312.69,103.38 314.61,95.00
             317.55,82.17 306.30,73.27 305.00,61.00
             312.33,57.40 316.70,50.01 312.69,42.04
             310.79,38.27 306.39,36.18 306.50,32.16
             306.57,29.27 310.04,25.87 312.00,24.00
             312.00,24.00 315.15,32.73 315.15,32.73 Z" />
</svg>
