<?xml version="1.0" encoding="UTF-8" standalone="no"?>
<!DOCTYPE svg PUBLIC "-//W3C//DTD SVG 20010904//EN"
              "http://www.w3.org/TR/2001/REC-SVG-20010904/DTD/svg10.dtd">

<svg xmlns="http://www.w3.org/2000/svg"
     width="43.6334in" height="36.3288in"
     viewBox="0 0 3142 2616">
  <path id="StPetersburg"
        fill="Blue" stroke="black" stroke-width="1"
        d="M 2516.15,233.89
           C 2518.00,231.38 2518.18,229.46 2519.41,227.00
             2520.69,224.45 2526.77,217.23 2529.28,216.15
             2532.34,214.84 2534.26,217.67 2538.00,216.69
             2538.00,216.69 2555.89,206.70 2555.89,206.70
             2561.27,201.92 2559.15,193.99 2567.45,186.55
             2569.98,184.28 2588.33,177.52 2592.40,171.87
             2594.70,168.68 2594.23,154.43 2596.56,149.32
             2597.56,147.14 2599.41,146.22 2601.21,143.82
             2603.12,141.26 2604.87,136.82 2607.46,134.98
             2609.67,133.41 2613.84,133.40 2617.96,130.35
             2623.46,126.28 2623.33,119.74 2631.99,121.23
             2639.01,122.44 2637.30,128.15 2645.00,132.00
             2644.45,138.97 2642.68,137.32 2641.43,142.04
             2641.43,142.04 2640.58,153.91 2640.58,153.91
             2639.75,157.06 2637.75,158.39 2636.34,162.01
             2634.91,165.67 2634.81,171.08 2635.04,175.00
             2635.66,185.16 2644.24,187.56 2645.93,194.00
             2647.25,199.06 2642.19,205.51 2642.02,214.00
             2641.76,226.25 2646.84,224.26 2647.00,236.00
             2647.05,239.64 2646.61,243.61 2648.14,247.00
             2650.05,251.24 2653.68,253.79 2654.80,260.00
             2654.80,260.00 2656.82,272.00 2656.82,272.00
             2656.82,276.03 2654.56,278.97 2656.13,282.99
             2657.30,286.00 2660.12,288.15 2661.74,291.09
             2662.82,293.03 2667.59,309.14 2667.74,311.00
             2668.21,317.29 2662.61,319.34 2662.13,326.00
             2661.78,330.75 2664.36,334.12 2664.33,338.00
             2664.31,341.51 2662.51,342.94 2661.55,346.00
             2660.81,348.40 2661.17,350.67 2659.98,352.98
             2654.81,362.98 2637.31,361.66 2635.76,362.15
             2632.47,363.20 2632.00,365.80 2628.79,366.71
             2628.79,366.71 2624.00,367.22 2624.00,367.22
             2624.00,367.22 2608.00,371.65 2608.00,371.65
             2603.34,373.75 2600.77,378.08 2597.00,379.51
             2592.95,381.05 2591.09,378.30 2588.00,378.21
             2584.75,378.11 2574.69,383.69 2572.57,386.21
             2566.83,393.02 2572.82,400.87 2570.98,406.00
             2568.22,413.70 2558.78,416.92 2555.28,420.39
             2553.08,422.56 2551.21,427.81 2550.35,430.83
             2548.98,435.72 2551.36,437.83 2551.47,442.00
             2551.55,445.07 2550.03,447.00 2550.84,450.00
             2551.50,452.48 2553.84,454.61 2553.83,457.00
             2553.82,459.27 2547.88,467.04 2546.36,471.00
             2544.64,475.52 2546.17,477.26 2544.89,479.79
             2543.70,482.15 2540.88,483.14 2538.49,486.10
             2535.33,490.05 2535.99,493.42 2529.00,497.18
             2523.53,500.11 2510.03,505.25 2506.62,510.21
             2502.56,516.09 2511.92,517.48 2509.35,526.00
             2508.57,528.58 2501.27,539.25 2498.89,540.26
             2496.34,541.35 2488.18,540.99 2485.00,541.00
             2473.58,541.05 2472.44,544.35 2463.00,543.96
             2451.21,543.48 2454.16,538.35 2451.98,534.00
             2451.98,534.00 2444.32,523.31 2444.32,523.31
             2441.23,519.96 2437.83,521.46 2435.43,516.89
             2433.45,513.13 2433.73,504.69 2429.58,500.46
             2424.05,494.80 2418.61,496.77 2415.21,495.26
             2411.94,493.81 2410.44,489.42 2406.00,487.17
             2398.91,483.59 2393.81,488.50 2388.00,491.04
             2384.89,492.39 2382.00,492.63 2379.10,494.70
             2375.14,497.52 2375.75,499.97 2369.98,499.96
             2365.28,499.96 2361.70,497.66 2358.37,494.49
             2356.23,492.45 2355.12,490.00 2351.96,489.40
             2345.57,488.19 2333.23,492.60 2327.00,494.59
             2322.84,495.78 2318.17,497.95 2314.44,494.59
             2307.48,488.55 2310.18,479.71 2311.63,472.00
             2311.63,472.00 2312.61,463.00 2312.61,463.00
             2313.89,457.88 2315.83,454.84 2314.77,449.00
             2313.38,441.28 2308.06,443.48 2305.34,439.69
             2303.16,436.66 2299.69,419.46 2299.00,415.00
             2307.75,411.57 2310.89,406.09 2311.00,397.00
             2311.00,397.00 2337.00,397.00 2337.00,397.00
             2347.03,397.00 2354.17,398.02 2361.00,389.00
             2369.53,392.42 2374.45,401.74 2384.48,393.81
             2385.93,392.67 2386.86,391.41 2388.00,390.00
             2388.00,390.00 2381.00,387.00 2381.00,387.00
             2381.00,387.00 2381.00,391.00 2381.00,391.00
             2367.00,390.83 2366.24,383.07 2358.00,380.63
             2353.53,379.30 2352.62,382.46 2345.00,383.00
             2344.78,379.99 2344.80,379.34 2343.42,376.58
             2342.61,374.95 2340.87,371.72 2339.53,370.60
             2332.66,364.85 2317.49,373.88 2310.00,374.79
             2304.47,375.46 2297.61,370.63 2295.57,365.72
             2294.96,364.23 2295.05,362.57 2295.00,361.00
             2295.00,361.00 2283.00,363.00 2283.00,363.00
             2283.00,363.00 2283.00,361.00 2283.00,361.00
             2283.00,361.00 2289.00,361.00 2289.00,361.00
             2289.00,361.00 2289.00,355.00 2289.00,355.00
             2279.65,351.82 2285.06,340.11 2286.00,333.00
             2282.49,333.00 2278.19,332.62 2275.04,334.31
             2269.18,337.46 2263.03,350.26 2253.00,355.00
             2253.00,355.00 2253.00,351.00 2253.00,351.00
             2258.71,347.57 2255.97,344.43 2257.92,339.05
             2259.67,334.21 2263.21,333.79 2266.43,330.19
             2271.03,325.05 2268.16,316.76 2278.00,319.00
             2276.58,305.77 2282.00,306.61 2286.74,298.99
             2286.74,298.99 2294.42,287.72 2294.42,287.72
             2294.42,287.72 2298.94,280.09 2298.94,280.09
             2298.94,280.09 2304.15,273.68 2304.15,273.68
             2305.51,270.82 2304.43,268.17 2305.97,265.51
             2308.91,260.46 2314.94,259.77 2315.00,245.00
             2315.00,245.00 2319.00,245.00 2319.00,245.00
             2319.00,245.00 2322.41,228.00 2322.41,228.00
             2322.41,228.00 2324.02,220.00 2324.02,220.00
             2324.02,220.00 2329.97,209.63 2329.97,209.63
             2329.97,209.63 2333.98,205.61 2333.98,205.61
             2333.98,205.61 2335.60,196.13 2335.60,196.13
             2335.60,196.13 2346.00,187.00 2346.00,187.00
             2352.60,191.63 2359.70,197.52 2368.00,198.00
             2369.33,200.65 2370.06,202.09 2373.02,203.26
             2379.18,205.71 2397.75,202.40 2404.06,200.00
             2405.23,206.54 2402.69,207.85 2404.06,210.86
             2406.15,215.11 2411.67,213.77 2416.27,216.90
             2423.81,222.05 2421.92,227.22 2425.51,230.40
             2428.06,232.66 2431.32,231.42 2433.26,232.99
             2435.19,234.56 2434.79,237.81 2435.43,240.00
             2436.53,243.79 2439.16,245.92 2443.00,246.65
             2450.03,248.00 2452.28,243.37 2457.00,242.73
             2457.00,242.73 2467.00,242.73 2467.00,242.73
             2470.69,242.38 2471.88,240.83 2475.00,240.89
             2477.09,240.93 2479.02,242.11 2482.00,241.54
             2486.26,240.72 2489.43,236.69 2494.00,236.31
             2502.18,235.64 2500.81,242.63 2509.00,244.00
             2509.64,236.37 2512.29,239.12 2516.15,233.89 Z" />
</svg>
