<?xml version="1.0" encoding="UTF-8" standalone="no"?>
<!DOCTYPE svg PUBLIC "-//W3C//DTD SVG 20010904//EN"
              "http://www.w3.org/TR/2001/REC-SVG-20010904/DTD/svg10.dtd">

<svg xmlns="http://www.w3.org/2000/svg"
     width="6.94358in" height="6.94358in"
     viewBox="0 0 500 500">
  <path id="Selection#2"
        fill="none" stroke="black" stroke-width="1"
        d="M 314.92,138.02
           C 315.73,137.17 317.49,135.25 318.42,134.79
             322.15,132.25 324.07,135.85 328.00,134.79
             328.00,134.79 344.91,125.88 344.91,125.88
             350.37,122.42 349.48,118.18 350.56,115.00
             351.39,112.54 355.68,106.31 357.60,104.55
             359.99,102.34 376.71,96.11 381.69,90.73
             385.26,86.87 383.89,73.13 386.56,67.32
             387.56,65.13 389.61,64.02 391.32,61.82
             393.32,59.24 394.95,54.88 397.60,52.95
             399.75,51.39 403.77,51.40 407.98,48.35
             413.64,44.26 412.55,40.58 419.00,40.06
             429.88,39.18 425.62,45.45 435.00,50.00
             434.02,56.45 432.05,56.26 431.22,61.00
             430.63,64.43 431.52,68.73 430.42,72.00
             428.58,77.43 425.13,77.05 425.00,88.00
             424.95,92.57 424.66,95.92 427.15,100.00
             430.09,104.83 435.03,107.82 435.74,113.00
             436.50,118.61 432.39,122.96 432.04,131.00
             431.56,141.89 434.73,141.39 436.47,149.00
             436.47,149.00 437.43,163.00 437.43,163.00
             438.41,166.76 441.23,169.33 442.95,173.00
             444.06,175.36 445.93,184.07 446.25,187.00
             447.81,194.06 443.99,195.63 446.25,200.99
             447.21,204.11 449.94,206.24 451.59,209.09
             453.05,211.59 457.25,226.25 457.57,229.00
             458.23,234.70 453.19,236.85 452.23,243.00
             451.41,248.24 454.01,251.36 453.90,256.00
             453.82,259.34 452.86,260.18 451.88,263.00
             450.83,265.97 451.04,269.25 449.26,271.96
             446.45,276.22 437.99,279.51 433.00,279.87
             433.00,279.87 427.01,279.87 427.01,279.87
             422.97,280.43 422.25,283.12 418.91,284.41
             418.91,284.41 413.00,285.41 413.00,285.41
             413.00,285.41 407.00,287.51 407.00,287.51
             403.60,288.43 400.98,287.83 397.00,290.09
             392.99,292.36 390.57,296.17 387.01,297.39
             383.07,298.73 381.37,295.95 377.96,295.94
             373.87,295.93 364.29,301.83 361.86,305.06
             356.01,312.84 364.30,318.94 359.84,326.00
             352.98,336.85 342.32,333.92 340.10,350.00
             339.50,354.36 341.38,356.69 341.47,360.00
             341.55,363.04 340.03,365.00 340.84,368.00
             341.50,370.48 343.84,372.61 343.83,375.00
             343.82,377.36 340.18,381.77 338.83,384.00
             335.25,389.91 334.86,391.32 336.00,398.00
             332.87,400.12 329.94,401.90 327.69,405.04
             325.28,408.42 325.44,411.03 320.96,414.01
             314.90,418.04 300.72,422.11 296.62,428.18
             293.10,433.39 299.76,435.11 299.79,441.01
             299.81,445.23 297.40,447.27 295.09,450.28
             295.09,450.28 290.49,457.15 290.49,457.15
             287.33,459.76 278.20,458.95 274.00,459.00
             265.94,459.10 252.01,464.99 245.31,459.91
             241.96,457.37 244.29,455.02 240.70,450.00
             240.70,450.00 233.59,440.58 233.59,440.58
             231.07,438.41 228.38,439.08 226.09,435.77
             223.46,431.98 224.13,424.02 220.30,419.26
             215.20,412.90 206.98,413.54 204.17,411.98
             199.88,409.60 198.31,403.25 189.00,404.11
             183.95,404.58 182.21,407.05 178.00,408.93
             175.15,410.21 172.91,410.22 170.04,412.00
             167.21,413.76 165.32,416.86 161.96,417.68
             152.35,420.04 146.63,408.39 141.96,407.35
             136.03,406.04 121.85,410.66 116.00,412.62
             108.42,415.16 102.87,415.37 100.22,406.00
             99.95,404.20 99.96,400.92 100.22,399.00
             100.22,399.00 102.63,381.00 102.63,381.00
             103.80,376.67 106.22,372.83 105.38,368.00
             103.92,359.56 97.83,361.25 95.39,357.69
             93.23,354.54 89.69,337.49 89.00,333.00
             97.75,329.57 100.89,324.09 101.00,315.00
             101.00,315.00 127.00,315.00 127.00,315.00
             137.03,315.00 144.17,316.02 151.00,307.00
             159.53,310.42 164.45,319.74 174.48,311.81
             175.93,310.67 176.86,309.41 178.00,308.00
             178.00,308.00 171.00,305.00 171.00,305.00
             171.00,305.00 171.00,309.00 171.00,309.00
             157.00,308.83 156.24,301.07 148.00,298.63
             143.53,297.30 142.62,300.46 135.00,301.00
             134.78,297.99 134.80,297.34 133.42,294.58
             132.61,292.95 130.87,289.72 129.53,288.60
             122.66,282.85 107.49,291.88 100.00,292.79
             94.47,293.46 87.61,288.63 85.57,283.72
             84.96,282.23 85.05,280.57 85.00,279.00
             85.00,279.00 73.00,281.00 73.00,281.00
             73.00,281.00 73.00,279.00 73.00,279.00
             73.00,279.00 79.00,279.00 79.00,279.00
             79.00,279.00 79.00,273.00 79.00,273.00
             69.65,269.82 75.06,258.11 76.00,251.00
             72.49,251.00 68.19,250.62 65.04,252.31
             59.18,255.46 53.03,268.26 43.00,273.00
             43.00,273.00 43.00,269.00 43.00,269.00
             48.71,265.57 45.97,262.43 47.92,257.05
             49.67,252.21 53.21,251.79 56.43,248.19
             61.03,243.05 58.16,234.76 68.00,237.00
             66.58,223.77 72.00,224.61 76.74,216.99
             76.74,216.99 84.42,205.72 84.42,205.72
             84.42,205.72 88.94,198.09 88.94,198.09
             88.94,198.09 94.15,191.68 94.15,191.68
             95.51,188.82 94.43,186.17 95.97,183.51
             98.91,178.46 104.94,177.77 105.00,163.00
             105.00,163.00 109.00,163.00 109.00,163.00
             109.00,163.00 112.41,146.00 112.41,146.00
             112.41,146.00 114.02,138.00 114.02,138.00
             114.02,138.00 119.97,127.63 119.97,127.63
             119.97,127.63 123.98,123.61 123.98,123.61
             123.98,123.61 125.60,114.13 125.60,114.13
             125.60,114.13 136.00,105.00 136.00,105.00
             140.21,108.25 146.25,112.23 151.00,114.62
             151.00,114.62 156.72,117.00 156.72,117.00
             160.79,119.41 160.26,121.70 167.00,121.98
             175.00,122.31 186.61,120.93 194.03,118.00
             195.28,124.82 192.29,126.59 194.03,129.58
             196.24,133.26 201.81,131.88 206.27,134.90
             213.53,139.83 211.71,144.20 214.72,147.69
             217.53,150.94 221.12,149.26 223.26,150.99
             225.19,152.56 224.79,155.81 225.43,158.00
             226.60,162.03 229.84,164.65 234.00,165.13
             239.70,165.80 242.09,161.61 247.00,160.85
             247.00,160.85 257.00,160.85 257.00,160.85
             257.00,160.85 264.00,158.91 264.00,158.91
             266.75,158.65 268.72,160.17 272.00,159.54
             277.66,158.46 280.36,153.36 287.98,155.31
             292.29,156.42 292.71,159.66 295.21,160.85
             298.57,162.43 298.96,159.30 299.00,157.00
             311.35,151.48 304.11,149.32 314.92,138.02 Z" />
</svg>
