<?xml version="1.0" encoding="UTF-8" standalone="no"?>
<!DOCTYPE svg PUBLIC "-//W3C//DTD SVG 20010904//EN"
              "http://www.w3.org/TR/2001/REC-SVG-20010904/DTD/svg10.dtd">

<svg xmlns="http://www.w3.org/2000/svg"
     width="43.6334in" height="36.3288in"
     viewBox="0 0 3142 2616">
  <path id="Ukraine"
        fill="Blue" stroke="black" stroke-width="1"
        d="M 2618.00,991.00
           C 2621.72,990.98 2625.63,991.11 2628.00,987.66
             2629.05,986.13 2629.04,984.28 2630.59,982.47
             2630.59,982.47 2638.28,976.51 2638.28,976.51
             2644.79,972.46 2652.47,976.44 2654.96,975.88
             2658.85,974.99 2660.49,970.00 2664.17,969.35
             2670.47,968.24 2671.10,976.20 2681.00,977.00
             2681.20,993.55 2695.49,998.08 2708.00,1005.00
             2708.00,1005.00 2708.00,1007.00 2708.00,1007.00
             2704.55,1008.65 2694.90,1011.93 2693.62,1015.21
             2691.40,1020.88 2699.35,1023.12 2702.15,1027.18
             2704.67,1030.84 2704.96,1036.69 2705.00,1041.00
             2705.00,1041.00 2711.00,1042.00 2711.00,1042.00
             2711.00,1042.00 2709.00,1053.00 2709.00,1053.00
             2714.83,1052.40 2715.54,1051.09 2722.00,1050.81
             2722.00,1050.81 2742.00,1050.81 2742.00,1050.81
             2748.70,1049.28 2752.45,1044.83 2755.85,1045.74
             2759.51,1046.72 2758.99,1052.09 2759.00,1055.00
             2759.00,1055.00 2769.00,1053.00 2769.00,1053.00
             2769.64,1061.77 2780.48,1070.23 2785.00,1078.00
             2783.95,1079.62 2782.81,1080.96 2782.65,1083.00
             2782.21,1088.49 2792.81,1096.49 2797.00,1099.33
             2798.99,1100.68 2802.69,1103.39 2805.00,1103.69
             2811.80,1104.57 2815.18,1094.68 2819.19,1092.31
             2824.63,1089.11 2833.94,1091.60 2835.00,1099.00
             2839.90,1098.67 2844.01,1096.55 2848.00,1097.28
             2852.22,1098.05 2854.40,1101.18 2858.00,1099.85
             2863.54,1097.79 2865.75,1091.13 2869.55,1087.31
             2872.12,1084.72 2875.70,1084.50 2880.00,1081.81
             2884.73,1078.85 2888.60,1074.37 2892.00,1070.00
             2897.25,1072.57 2898.81,1073.93 2903.00,1078.01
             2903.00,1078.01 2915.21,1091.40 2915.21,1091.40
             2918.65,1093.93 2921.78,1092.23 2926.00,1093.84
             2930.00,1095.36 2933.82,1099.44 2937.00,1100.40
             2944.96,1102.78 2948.00,1092.97 2948.00,1087.00
             2951.14,1088.01 2956.99,1090.65 2960.00,1090.32
             2963.50,1089.94 2966.04,1087.08 2970.00,1087.60
             2973.77,1088.09 2989.83,1099.12 2995.69,1088.94
             2996.50,1087.53 2996.63,1086.51 2997.00,1085.00
             3000.39,1086.88 3002.74,1090.04 3006.00,1090.63
             3009.99,1091.36 3013.42,1087.94 3019.00,1089.51
             3027.28,1091.84 3034.63,1102.98 3044.81,1095.33
             3047.01,1093.68 3048.25,1092.02 3050.00,1090.00
             3050.01,1093.22 3049.68,1096.95 3051.74,1099.66
             3054.35,1103.10 3060.47,1104.06 3060.73,1110.00
             3060.93,1114.76 3055.32,1126.99 3052.49,1131.00
             3050.64,1133.62 3045.48,1138.80 3045.91,1141.99
             3046.53,1146.63 3053.32,1148.69 3057.16,1150.00
             3054.71,1155.32 3052.27,1168.95 3057.16,1173.11
             3059.93,1175.27 3063.81,1174.99 3067.00,1175.00
             3067.95,1180.84 3070.07,1182.11 3075.00,1185.00
             3075.00,1185.00 3075.00,1187.00 3075.00,1187.00
             3068.16,1194.18 3078.24,1194.15 3079.71,1199.21
             3081.27,1204.60 3077.84,1215.73 3078.06,1217.00
             3078.77,1221.06 3082.67,1219.53 3083.00,1229.00
             3068.97,1229.04 3061.26,1236.44 3054.00,1238.49
             3054.00,1238.49 3047.00,1239.26 3047.00,1239.26
             3043.95,1239.78 3034.53,1243.33 3032.60,1245.56
             3030.04,1248.53 3031.59,1253.33 3030.49,1257.00
             3028.62,1263.24 3019.13,1269.50 3012.91,1271.00
             3012.91,1271.00 3012.91,1283.00 3012.91,1283.00
             3011.90,1291.72 3008.26,1295.80 3017.00,1306.00
             3014.34,1310.66 3014.12,1313.73 3014.00,1319.00
             3006.88,1319.93 3005.99,1322.17 3000.00,1324.70
             2992.44,1327.89 2990.15,1326.35 2987.05,1328.02
             2981.30,1331.12 2980.76,1339.26 2980.00,1345.00
             2969.26,1346.91 2961.37,1351.49 2956.20,1361.42
             2956.20,1361.42 2953.00,1369.00 2953.00,1369.00
             2950.47,1368.34 2947.62,1367.19 2945.00,1367.48
             2936.30,1368.45 2928.13,1379.78 2927.00,1388.00
             2910.49,1383.99 2894.55,1397.21 2891.00,1413.00
             2879.16,1413.00 2875.64,1412.77 2871.04,1425.00
             2869.75,1428.44 2869.14,1434.91 2866.69,1436.86
             2864.67,1438.46 2861.06,1439.17 2858.13,1441.56
             2858.13,1441.56 2853.55,1446.59 2853.55,1446.59
             2851.73,1448.35 2844.40,1452.84 2842.00,1453.39
             2837.73,1454.37 2834.93,1451.96 2832.00,1451.59
             2829.57,1451.30 2827.28,1452.30 2825.00,1453.00
             2820.04,1446.90 2814.13,1447.10 2816.00,1456.00
             2816.00,1456.00 2812.00,1460.00 2812.00,1460.00
             2802.85,1456.61 2802.92,1455.72 2793.00,1457.00
             2793.01,1459.13 2792.91,1461.99 2793.51,1464.00
             2797.35,1476.79 2813.33,1474.45 2816.82,1475.25
             2821.07,1476.23 2821.59,1480.63 2824.87,1480.09
             2826.88,1479.76 2830.02,1474.82 2832.00,1473.00
             2832.00,1473.00 2841.00,1475.00 2841.00,1475.00
             2841.63,1478.76 2841.65,1479.11 2845.00,1481.00
             2846.17,1484.87 2846.40,1485.15 2850.00,1487.00
             2850.00,1487.00 2849.00,1493.00 2849.00,1493.00
             2849.00,1493.00 2858.00,1491.00 2858.00,1491.00
             2863.49,1495.37 2875.19,1492.68 2882.00,1492.00
             2884.82,1499.73 2883.18,1502.20 2882.62,1510.00
             2881.84,1520.82 2890.32,1513.40 2902.00,1515.26
             2907.09,1516.07 2909.61,1519.22 2913.04,1517.85
             2915.86,1516.72 2919.12,1512.42 2922.00,1510.60
             2924.98,1508.72 2927.65,1509.01 2931.00,1509.00
             2931.00,1509.00 2931.00,1498.00 2931.00,1498.00
             2940.09,1500.21 2949.65,1499.69 2950.00,1488.00
             2950.00,1488.00 2969.00,1484.00 2969.00,1484.00
             2968.90,1493.41 2965.17,1495.41 2965.48,1499.91
             2965.77,1504.07 2971.27,1506.80 2970.12,1510.72
             2969.47,1512.93 2965.92,1514.02 2964.00,1514.80
             2964.00,1514.80 2944.00,1523.44 2944.00,1523.44
             2938.27,1523.33 2934.87,1517.62 2925.00,1519.15
             2921.87,1519.63 2912.46,1526.96 2911.89,1530.01
             2911.60,1531.56 2912.37,1532.01 2913.00,1533.00
             2909.33,1540.41 2904.23,1540.10 2903.00,1552.00
             2896.55,1550.87 2896.13,1552.88 2890.83,1555.47
             2890.83,1555.47 2884.09,1558.26 2884.09,1558.26
             2880.48,1560.23 2875.24,1566.26 2871.96,1569.33
             2869.86,1571.30 2866.62,1573.43 2865.80,1576.09
             2864.62,1578.66 2865.38,1581.46 2865.80,1584.00
             2861.21,1587.92 2861.52,1591.46 2855.00,1592.00
             2854.81,1606.92 2844.15,1602.26 2837.00,1610.00
             2832.11,1608.36 2831.44,1608.27 2831.00,1603.00
             2831.00,1603.00 2819.00,1602.00 2819.00,1602.00
             2823.29,1591.85 2819.23,1591.21 2818.01,1584.00
             2817.07,1578.51 2820.75,1578.22 2820.01,1572.96
             2818.32,1560.99 2812.94,1561.04 2812.00,1551.13
             2812.00,1551.13 2797.00,1551.13 2797.00,1551.13
             2792.88,1551.93 2790.73,1553.71 2786.00,1552.53
             2783.17,1551.82 2778.38,1549.32 2778.03,1546.07
             2777.71,1543.13 2781.41,1541.35 2783.11,1539.24
             2785.22,1536.63 2784.96,1534.16 2785.00,1531.00
             2783.33,1531.12 2781.90,1531.09 2780.34,1531.85
             2777.40,1533.30 2771.98,1539.95 2771.00,1543.00
             2755.16,1543.05 2758.54,1548.84 2745.00,1549.00
             2749.17,1541.45 2751.98,1535.04 2761.00,1533.00
             2761.47,1517.96 2770.53,1517.27 2780.58,1509.82
             2789.73,1503.02 2791.48,1496.08 2805.00,1497.00
             2804.05,1488.12 2807.15,1488.26 2805.56,1485.53
             2803.64,1482.24 2798.69,1483.67 2796.60,1481.98
             2794.37,1480.17 2795.67,1475.50 2796.00,1473.00
             2796.00,1473.00 2793.00,1473.00 2793.00,1473.00
             2793.00,1473.00 2793.00,1467.00 2793.00,1467.00
             2785.62,1467.26 2783.53,1469.63 2783.00,1477.00
             2771.28,1476.86 2772.88,1472.88 2763.00,1471.00
             2763.00,1471.00 2764.00,1477.00 2764.00,1477.00
             2764.00,1477.00 2752.00,1475.00 2752.00,1475.00
             2752.00,1475.00 2753.00,1481.00 2753.00,1481.00
             2743.26,1481.12 2737.22,1485.83 2728.00,1488.29
             2724.11,1489.32 2719.09,1489.00 2715.00,1489.00
             2715.00,1489.00 2715.00,1483.00 2715.00,1483.00
             2715.00,1483.00 2705.00,1487.00 2705.00,1487.00
             2703.21,1480.44 2699.96,1481.02 2694.00,1481.00
             2694.00,1481.00 2700.13,1473.96 2700.13,1473.96
             2700.13,1473.96 2695.00,1465.00 2695.00,1465.00
             2699.84,1465.00 2713.86,1466.74 2716.10,1461.66
             2717.67,1458.11 2714.64,1457.54 2717.00,1451.00
             2717.00,1451.00 2711.00,1449.00 2711.00,1449.00
             2711.00,1449.00 2711.00,1452.92 2711.00,1452.92
             2711.00,1452.92 2700.00,1452.92 2700.00,1452.92
             2700.00,1452.92 2689.00,1452.00 2689.00,1452.00
             2689.00,1452.00 2688.00,1449.00 2688.00,1449.00
             2688.00,1449.00 2678.00,1451.00 2678.00,1451.00
             2678.00,1451.00 2679.00,1455.00 2679.00,1455.00
             2679.00,1455.00 2665.00,1457.28 2665.00,1457.28
             2665.00,1457.28 2659.04,1457.28 2659.04,1457.28
             2655.86,1458.01 2655.04,1459.91 2651.91,1460.69
             2651.91,1460.69 2644.00,1461.47 2644.00,1461.47
             2640.48,1462.35 2634.14,1465.99 2631.00,1468.01
             2621.98,1473.83 2616.24,1478.48 2621.00,1490.00
             2621.00,1490.00 2617.00,1491.00 2617.00,1491.00
             2617.67,1494.57 2618.14,1495.78 2615.13,1498.00
             2615.22,1499.45 2615.53,1500.45 2615.13,1501.98
             2612.94,1514.62 2600.20,1496.40 2599.61,1496.01
             2597.59,1494.65 2588.97,1493.35 2584.02,1490.40
             2575.49,1485.33 2580.95,1479.36 2578.21,1472.28
             2574.48,1462.65 2560.61,1457.30 2551.00,1457.00
             2552.37,1446.59 2552.04,1445.20 2543.00,1439.00
             2543.00,1439.00 2543.00,1437.00 2543.00,1437.00
             2544.17,1435.67 2544.77,1435.04 2545.54,1433.38
             2547.76,1428.60 2544.84,1425.44 2540.00,1424.74
             2536.37,1424.21 2534.33,1426.33 2530.00,1424.74
             2524.43,1422.68 2523.62,1418.89 2516.00,1417.00
             2516.00,1417.00 2520.20,1407.00 2520.20,1407.00
             2520.20,1407.00 2518.91,1400.00 2518.91,1400.00
             2518.91,1400.00 2518.91,1394.01 2518.91,1394.01
             2518.91,1394.01 2511.00,1375.00 2511.00,1375.00
             2505.35,1375.00 2500.10,1373.51 2497.00,1379.00
             2487.42,1373.64 2489.45,1366.77 2475.00,1367.00
             2470.84,1367.07 2469.99,1367.05 2467.00,1370.00
             2461.34,1366.57 2461.67,1363.19 2456.96,1362.58
             2456.96,1362.58 2453.00,1362.58 2453.00,1362.58
             2449.17,1362.18 2447.04,1359.99 2443.00,1359.26
             2440.23,1358.76 2436.32,1359.33 2434.27,1358.40
             2430.55,1356.72 2431.01,1351.32 2424.00,1351.10
             2421.62,1351.03 2406.29,1354.03 2404.00,1355.14
             2400.20,1356.98 2397.57,1359.82 2394.00,1360.69
             2394.00,1360.69 2389.00,1361.21 2389.00,1361.21
             2389.00,1361.21 2372.10,1365.03 2372.10,1365.03
             2368.22,1366.63 2368.34,1369.09 2366.19,1371.46
             2363.29,1374.67 2360.49,1373.87 2357.00,1383.00
             2351.31,1383.20 2346.15,1385.79 2343.55,1391.17
             2341.53,1395.33 2340.92,1401.19 2336.74,1404.02
             2334.53,1405.52 2327.85,1406.86 2325.00,1407.70
             2325.00,1407.70 2304.00,1414.29 2304.00,1414.29
             2298.93,1415.63 2296.84,1414.31 2292.09,1417.94
             2287.18,1421.70 2284.28,1429.10 2283.00,1435.00
             2278.56,1435.49 2275.16,1435.93 2271.00,1433.70
             2265.71,1430.86 2260.70,1423.44 2254.00,1421.51
             2246.08,1419.22 2238.81,1423.66 2232.00,1427.00
             2227.52,1424.64 2227.55,1425.44 2223.00,1424.68
             2223.00,1424.68 2216.00,1423.09 2216.00,1423.09
             2216.00,1423.09 2192.00,1423.09 2192.00,1423.09
             2189.23,1422.99 2186.59,1423.18 2184.00,1422.02
             2180.13,1420.27 2176.76,1415.99 2172.04,1416.76
             2166.97,1417.58 2166.23,1422.83 2166.00,1427.00
             2157.55,1426.33 2159.99,1421.57 2154.82,1419.77
             2151.02,1418.18 2147.45,1421.69 2144.50,1419.77
             2141.88,1418.37 2141.48,1412.94 2137.66,1409.57
             2134.05,1406.38 2130.79,1407.47 2128.15,1406.26
             2124.94,1404.80 2125.46,1402.46 2124.00,1400.14
             2121.69,1396.48 2117.86,1396.92 2117.67,1391.98
             2117.45,1386.43 2121.40,1385.06 2122.73,1380.90
             2122.73,1380.90 2125.68,1367.42 2125.68,1367.42
             2125.68,1367.42 2133.00,1347.00 2133.00,1347.00
             2133.00,1347.00 2151.00,1351.00 2151.00,1351.00
             2151.00,1346.70 2151.36,1343.06 2149.09,1339.18
             2149.09,1339.18 2143.81,1332.48 2143.81,1332.48
             2142.27,1329.28 2143.55,1323.04 2142.53,1319.00
             2141.06,1313.17 2136.46,1309.48 2136.04,1306.00
             2135.76,1303.74 2138.21,1297.50 2139.00,1295.00
             2139.00,1295.00 2145.00,1295.00 2145.00,1295.00
             2145.04,1280.88 2148.68,1284.03 2153.11,1276.20
             2153.11,1276.20 2158.30,1261.17 2158.30,1261.17
             2161.37,1256.05 2168.63,1252.28 2170.46,1250.46
             2173.08,1247.87 2171.49,1246.15 2174.16,1242.74
             2178.19,1237.59 2183.08,1236.10 2185.00,1229.00
             2194.98,1228.68 2196.47,1224.41 2201.03,1216.87
             2202.33,1214.72 2204.31,1212.59 2203.96,1209.91
             2202.84,1201.15 2187.77,1192.38 2201.00,1189.00
             2199.76,1181.51 2193.60,1180.11 2189.40,1173.91
             2189.40,1173.91 2184.18,1163.04 2184.18,1163.04
             2180.70,1157.87 2175.87,1157.27 2173.99,1154.45
             2172.65,1152.42 2173.27,1149.55 2172.40,1146.00
             2170.30,1137.42 2167.13,1137.74 2167.00,1127.22
             2167.00,1127.22 2183.00,1127.22 2183.00,1127.22
             2191.95,1124.40 2200.50,1110.12 2201.00,1101.00
             2201.00,1101.00 2211.00,1099.29 2211.00,1099.29
             2216.23,1098.61 2219.84,1099.69 2225.00,1097.95
             2232.95,1095.26 2236.91,1090.27 2241.00,1089.76
             2241.00,1089.76 2254.00,1091.00 2254.00,1091.00
             2261.86,1090.96 2270.27,1087.53 2278.00,1088.30
             2289.64,1089.45 2291.58,1094.77 2303.00,1090.00
             2308.98,1095.90 2311.79,1091.25 2318.00,1091.25
             2321.14,1091.25 2322.59,1092.80 2328.00,1092.98
             2335.75,1093.25 2336.33,1091.45 2343.00,1091.00
             2344.40,1099.61 2347.72,1095.18 2347.00,1105.00
             2355.92,1102.57 2358.82,1099.12 2369.00,1099.00
             2369.00,1099.00 2371.00,1109.00 2371.00,1109.00
             2380.90,1110.21 2384.36,1107.27 2383.00,1097.00
             2394.47,1101.84 2393.25,1095.30 2401.00,1091.00
             2401.35,1092.40 2401.46,1093.22 2402.17,1094.43
             2405.95,1101.71 2410.08,1096.26 2414.00,1094.43
             2416.01,1093.31 2416.88,1093.30 2419.00,1093.00
             2419.00,1093.00 2421.00,1105.00 2421.00,1105.00
             2424.54,1103.56 2429.47,1101.76 2431.69,1098.48
             2433.39,1095.97 2433.01,1092.92 2435.57,1090.59
             2438.72,1087.73 2437.60,1091.57 2446.00,1083.00
             2447.64,1087.54 2452.14,1097.63 2456.32,1099.96
             2460.09,1102.05 2470.98,1096.77 2473.40,1093.66
             2474.71,1091.99 2474.68,1090.95 2475.00,1089.00
             2477.91,1090.05 2479.77,1091.15 2483.00,1090.60
             2489.02,1089.59 2494.78,1084.06 2501.95,1085.15
             2507.78,1086.04 2504.65,1090.07 2515.00,1095.78
             2517.63,1097.23 2524.65,1101.61 2527.26,1099.31
             2529.08,1097.70 2528.89,1094.21 2529.09,1092.00
             2529.61,1086.08 2531.00,1085.10 2528.11,1079.04
             2525.93,1074.47 2520.98,1069.37 2521.25,1064.00
             2521.43,1060.33 2523.84,1058.69 2524.69,1055.00
             2525.56,1051.25 2524.18,1046.70 2525.98,1043.18
             2527.29,1040.62 2535.64,1033.37 2537.00,1023.00
             2542.35,1024.27 2549.30,1029.09 2551.00,1017.00
             2562.93,1017.00 2562.36,1015.60 2566.00,1015.44
             2566.00,1015.44 2576.00,1016.92 2576.00,1016.92
             2582.98,1016.92 2596.40,1011.93 2599.98,1005.71
             2601.54,1003.00 2601.00,994.45 2601.00,991.00
             2601.00,991.00 2618.00,991.00 2618.00,991.00 Z" />
</svg>
