<?xml version="1.0" encoding="UTF-8" standalone="no"?>
<!DOCTYPE svg PUBLIC "-//W3C//DTD SVG 20010904//EN"
              "http://www.w3.org/TR/2001/REC-SVG-20010904/DTD/svg10.dtd">

<svg xmlns="http://www.w3.org/2000/svg"
     width="13.8872in" height="13.8872in"
     viewBox="0 0 1000 1000">
  <path id="Ukraine"
        fill="Yellow" stroke="black" stroke-width="1"
        d="M 518.00,202.00
           C 521.72,201.98 525.63,202.11 528.00,198.66
             529.05,197.13 529.04,195.28 530.59,193.47
             530.59,193.47 538.28,187.51 538.28,187.51
             544.79,183.46 552.47,187.44 554.96,186.88
             558.85,185.99 560.49,181.00 564.17,180.35
             570.47,179.24 571.10,187.20 581.00,188.00
             581.20,204.55 595.49,209.08 608.00,216.00
             608.00,216.00 608.00,218.00 608.00,218.00
             604.55,219.65 594.90,222.93 593.62,226.21
             591.40,231.88 599.35,234.12 602.15,238.18
             604.67,241.84 604.96,247.69 605.00,252.00
             605.00,252.00 611.00,253.00 611.00,253.00
             611.00,253.00 609.00,264.00 609.00,264.00
             614.83,263.40 615.54,262.09 622.00,261.81
             622.00,261.81 642.00,261.81 642.00,261.81
             648.70,260.28 652.45,255.83 655.85,256.74
             659.51,257.72 658.99,263.09 659.00,266.00
             659.00,266.00 669.00,264.00 669.00,264.00
             669.64,272.77 680.48,281.23 685.00,289.00
             683.95,290.62 682.81,291.96 682.65,294.00
             682.21,299.49 692.81,307.49 697.00,310.33
             698.99,311.68 702.69,314.39 705.00,314.69
             711.80,315.57 715.18,305.68 719.19,303.31
             724.63,300.11 733.94,302.60 735.00,310.00
             739.90,309.67 744.01,307.55 748.00,308.28
             752.22,309.05 754.40,312.18 758.00,310.85
             763.54,308.79 765.75,302.13 769.55,298.31
             772.12,295.72 775.70,295.50 780.00,292.81
             784.73,289.85 788.60,285.37 792.00,281.00
             797.25,283.57 798.81,284.93 803.00,289.01
             803.00,289.01 815.21,302.40 815.21,302.40
             818.65,304.93 821.78,303.23 826.00,304.84
             830.00,306.36 833.82,310.44 837.00,311.40
             844.96,313.78 848.00,303.97 848.00,298.00
             851.14,299.01 856.99,301.65 860.00,301.32
             863.50,300.94 866.04,298.08 870.00,298.60
             873.77,299.09 889.83,310.12 895.69,299.94
             896.50,298.53 896.63,297.51 897.00,296.00
             900.39,297.88 902.74,301.04 906.00,301.63
             909.99,302.36 913.42,298.94 919.00,300.51
             927.28,302.84 934.63,313.98 944.81,306.33
             947.01,304.68 948.25,303.02 950.00,301.00
             950.01,304.22 949.68,307.95 951.74,310.66
             954.35,314.10 960.47,315.06 960.73,321.00
             960.93,325.76 955.32,337.99 952.49,342.00
             950.64,344.62 945.48,349.80 945.91,352.99
             946.53,357.63 953.32,359.69 957.16,361.00
             954.71,366.32 952.27,379.95 957.16,384.11
             959.93,386.27 963.81,385.99 967.00,386.00
             967.95,391.84 970.07,393.11 975.00,396.00
             975.00,396.00 975.00,398.00 975.00,398.00
             968.16,405.18 978.24,405.15 979.71,410.21
             981.27,415.60 977.84,426.73 978.06,428.00
             978.77,432.06 982.67,430.53 983.00,440.00
             968.97,440.04 961.26,447.44 954.00,449.49
             954.00,449.49 947.00,450.26 947.00,450.26
             943.95,450.78 934.53,454.33 932.60,456.56
             930.04,459.53 931.59,464.33 930.49,468.00
             928.62,474.24 919.13,480.50 912.91,482.00
             912.91,482.00 912.91,494.00 912.91,494.00
             911.90,502.72 908.26,506.80 917.00,517.00
             914.34,521.66 914.12,524.73 914.00,530.00
             906.88,530.93 905.99,533.17 900.00,535.70
             892.44,538.89 890.15,537.35 887.05,539.02
             881.30,542.12 880.76,550.26 880.00,556.00
             869.26,557.91 861.37,562.49 856.20,572.42
             856.20,572.42 853.00,580.00 853.00,580.00
             850.47,579.34 847.62,578.19 845.00,578.48
             836.30,579.45 828.13,590.78 827.00,599.00
             810.49,594.99 794.55,608.21 791.00,624.00
             780.03,624.00 775.81,623.40 771.37,635.00
             770.05,638.45 769.06,645.96 766.69,647.86
             764.67,649.46 761.06,650.17 758.13,652.56
             758.13,652.56 753.55,657.59 753.55,657.59
             751.73,659.35 744.40,663.84 742.00,664.39
             737.73,665.37 734.93,662.96 732.00,662.59
             729.57,662.30 727.28,663.30 725.00,664.00
             720.04,657.90 714.13,658.10 716.00,667.00
             716.00,667.00 712.00,671.00 712.00,671.00
             702.85,667.61 702.92,666.72 693.00,668.00
             693.01,670.13 692.91,672.99 693.51,675.00
             697.35,687.79 713.33,685.45 716.82,686.25
             721.07,687.23 721.59,691.63 724.87,691.09
             726.88,690.76 730.02,685.82 732.00,684.00
             732.00,684.00 741.00,686.00 741.00,686.00
             741.63,689.76 741.65,690.11 745.00,692.00
             746.17,695.87 746.40,696.15 750.00,698.00
             750.00,698.00 749.00,704.00 749.00,704.00
             749.00,704.00 758.00,702.00 758.00,702.00
             763.49,706.37 775.19,703.68 782.00,703.00
             784.82,710.73 783.18,713.20 782.62,721.00
             781.84,731.82 790.32,724.40 802.00,726.26
             807.09,727.07 809.61,730.22 813.04,728.85
             815.86,727.72 819.12,723.42 822.00,721.60
             824.98,719.72 827.65,720.01 831.00,720.00
             831.00,720.00 831.00,709.00 831.00,709.00
             840.09,711.21 849.65,710.69 850.00,699.00
             850.00,699.00 869.00,695.00 869.00,695.00
             868.90,704.41 865.17,706.41 865.48,710.91
             865.77,715.07 871.27,717.80 870.12,721.72
             869.47,723.93 865.92,725.02 864.00,725.80
             864.00,725.80 844.00,734.44 844.00,734.44
             838.27,734.33 834.87,728.62 825.00,730.15
             821.87,730.63 812.46,737.96 811.89,741.01
             811.60,742.56 812.37,743.01 813.00,744.00
             809.33,751.41 804.23,751.10 803.00,763.00
             796.55,761.87 796.13,763.88 790.83,766.47
             790.83,766.47 784.09,769.26 784.09,769.26
             780.48,771.23 775.24,777.26 771.96,780.33
             769.86,782.30 766.62,784.43 765.80,787.09
             764.62,789.66 765.38,792.46 765.80,795.00
             761.21,798.92 761.52,802.46 755.00,803.00
             754.81,817.92 744.15,813.26 737.00,821.00
             732.11,819.36 731.44,819.27 731.00,814.00
             731.00,814.00 719.00,813.00 719.00,813.00
             723.29,802.85 719.23,802.21 718.01,795.00
             717.07,789.51 720.75,789.22 720.01,783.96
             718.32,771.99 712.94,772.04 712.00,762.13
             712.00,762.13 697.00,762.13 697.00,762.13
             692.88,762.93 690.73,764.71 686.00,763.53
             683.17,762.82 678.38,760.32 678.03,757.07
             677.71,754.13 681.41,752.35 683.11,750.24
             685.22,747.63 684.96,745.16 685.00,742.00
             683.33,742.12 681.90,742.09 680.34,742.85
             677.40,744.30 671.98,750.95 671.00,754.00
             655.16,754.05 658.54,759.84 645.00,760.00
             649.17,752.45 651.98,746.04 661.00,744.00
             661.47,728.96 670.53,728.27 680.58,720.82
             689.73,714.02 691.48,707.08 705.00,708.00
             704.05,699.12 707.15,699.26 705.56,696.53
             703.64,693.24 698.69,694.67 696.60,692.98
             694.37,691.17 695.67,686.50 696.00,684.00
             696.00,684.00 693.00,684.00 693.00,684.00
             693.00,684.00 693.00,678.00 693.00,678.00
             685.62,678.26 683.53,680.63 683.00,688.00
             671.28,687.86 672.88,683.88 663.00,682.00
             663.00,682.00 664.00,688.00 664.00,688.00
             664.00,688.00 652.00,686.00 652.00,686.00
             652.00,686.00 653.00,692.00 653.00,692.00
             643.26,692.12 637.22,696.83 628.00,699.29
             624.11,700.32 619.09,700.00 615.00,700.00
             615.00,700.00 615.00,694.00 615.00,694.00
             615.00,694.00 605.00,698.00 605.00,698.00
             603.21,691.44 599.96,692.02 594.00,692.00
             594.00,692.00 600.13,684.96 600.13,684.96
             600.13,684.96 595.00,676.00 595.00,676.00
             599.84,676.00 613.86,677.74 616.10,672.66
             617.67,669.11 614.64,668.54 617.00,662.00
             617.00,662.00 611.00,660.00 611.00,660.00
             611.00,660.00 611.00,663.92 611.00,663.92
             611.00,663.92 600.00,663.92 600.00,663.92
             600.00,663.92 589.00,663.00 589.00,663.00
             589.00,663.00 588.00,660.00 588.00,660.00
             588.00,660.00 577.00,662.00 577.00,662.00
             577.00,662.00 579.00,666.00 579.00,666.00
             579.00,666.00 565.00,668.28 565.00,668.28
             565.00,668.28 559.04,668.28 559.04,668.28
             555.86,669.01 555.04,670.91 551.91,671.69
             551.91,671.69 544.00,672.47 544.00,672.47
             540.48,673.35 534.14,676.99 531.00,679.01
             521.98,684.83 516.24,689.48 521.00,701.00
             521.00,701.00 517.00,702.00 517.00,702.00
             517.43,705.53 518.06,706.79 515.13,709.00
             515.22,710.45 515.53,711.45 515.13,712.98
             512.94,725.62 500.20,707.40 499.61,707.01
             497.59,705.65 488.97,704.35 484.02,701.40
             475.49,696.33 480.95,690.36 478.21,683.28
             474.48,673.65 460.61,668.30 451.00,668.00
             452.37,657.59 452.04,656.20 443.00,650.00
             443.00,650.00 443.00,648.00 443.00,648.00
             444.17,646.67 444.77,646.04 445.54,644.38
             447.76,639.60 444.84,636.44 440.00,635.74
             436.37,635.21 434.33,637.33 430.00,635.74
             424.43,633.68 423.62,629.89 416.00,628.00
             416.00,628.00 420.20,618.00 420.20,618.00
             420.20,618.00 418.91,611.00 418.91,611.00
             418.91,611.00 418.91,605.01 418.91,605.01
             418.91,605.01 411.00,586.00 411.00,586.00
             405.35,586.00 400.10,584.51 397.00,590.00
             387.42,584.64 389.45,577.77 375.00,578.00
             370.84,578.07 369.99,578.05 367.00,581.00
             361.34,577.57 361.67,574.19 356.96,573.58
             356.96,573.58 353.00,573.58 353.00,573.58
             349.17,573.18 347.04,570.99 343.00,570.26
             340.23,569.76 336.32,570.33 334.27,569.40
             330.55,567.72 331.01,562.32 324.00,562.10
             321.62,562.03 306.29,565.03 304.00,566.14
             300.20,567.98 297.57,570.82 294.00,571.69
             294.00,571.69 289.00,572.21 289.00,572.21
             289.00,572.21 272.10,576.03 272.10,576.03
             268.22,577.63 268.34,580.09 266.19,582.46
             263.29,585.67 260.49,584.87 257.00,594.00
             251.31,594.20 246.15,596.79 243.55,602.17
             241.53,606.33 240.92,612.19 236.74,615.02
             234.53,616.52 227.85,617.86 225.00,618.70
             225.00,618.70 204.00,625.29 204.00,625.29
             198.93,626.63 196.84,625.31 192.09,628.94
             187.18,632.70 184.28,640.10 183.00,646.00
             178.56,646.49 175.16,646.93 171.00,644.70
             165.71,641.86 160.70,634.44 154.00,632.51
             146.08,630.22 138.81,634.66 132.00,638.00
             127.52,635.64 127.55,636.44 123.00,635.68
             123.00,635.68 116.00,634.09 116.00,634.09
             116.00,634.09 92.00,634.09 92.00,634.09
             89.23,633.99 86.59,634.18 84.00,633.02
             80.13,631.27 76.76,626.99 72.04,627.76
             66.97,628.58 66.23,633.83 66.00,638.00
             57.55,637.33 59.99,632.57 54.82,630.77
             51.02,629.18 47.45,632.69 44.50,630.77
             41.88,629.37 41.48,623.94 37.66,620.57
             34.05,617.38 30.79,618.47 28.15,617.26
             24.94,615.80 25.46,613.46 24.00,611.14
             21.69,607.48 17.86,607.92 17.67,602.98
             17.45,597.43 21.40,596.06 22.73,591.90
             22.73,591.90 25.68,578.42 25.68,578.42
             25.68,578.42 33.00,558.00 33.00,558.00
             33.00,558.00 51.00,562.00 51.00,562.00
             51.00,557.70 51.36,554.06 49.09,550.18
             49.09,550.18 43.81,543.48 43.81,543.48
             42.27,540.28 43.55,534.04 42.53,530.00
             41.06,524.17 36.46,520.48 36.04,517.00
             35.76,514.74 38.21,508.50 39.00,506.00
             39.00,506.00 45.00,506.00 45.00,506.00
             45.04,491.88 48.68,495.03 53.11,487.20
             53.11,487.20 58.30,472.17 58.30,472.17
             61.37,467.05 68.63,463.28 70.46,461.46
             73.08,458.87 71.49,457.15 74.16,453.74
             78.19,448.59 83.08,447.10 85.00,440.00
             94.98,439.68 96.47,435.41 101.03,427.87
             102.33,425.72 104.31,423.59 103.96,420.91
             102.84,412.15 87.77,403.38 101.00,400.00
             99.76,392.51 93.60,391.11 89.40,384.91
             89.40,384.91 84.18,374.04 84.18,374.04
             80.70,368.87 75.87,368.27 73.99,365.45
             72.65,363.42 73.27,360.55 72.40,357.00
             70.30,348.42 67.13,348.74 67.00,338.22
             67.00,338.22 83.00,338.22 83.00,338.22
             91.95,335.40 100.50,321.12 101.00,312.00
             101.00,312.00 111.00,310.29 111.00,310.29
             116.23,309.61 119.84,310.69 125.00,308.95
             132.95,306.26 136.91,301.27 141.00,300.76
             141.00,300.76 154.00,302.00 154.00,302.00
             161.86,301.96 170.27,298.53 178.00,299.30
             189.64,300.45 191.58,305.77 203.00,301.00
             208.98,306.90 211.79,302.25 218.00,302.25
             221.14,302.25 222.59,303.80 228.00,303.98
             235.75,304.25 236.33,302.45 243.00,302.00
             244.40,310.61 247.72,306.18 247.00,316.00
             255.92,313.57 258.82,310.12 269.00,310.00
             269.00,310.00 271.00,320.00 271.00,320.00
             280.90,321.21 284.36,318.27 283.00,308.00
             294.47,312.84 293.25,306.30 301.00,302.00
             301.35,303.40 301.46,304.22 302.17,305.43
             305.95,312.71 310.08,307.26 314.00,305.43
             316.01,304.31 316.88,304.30 319.00,304.00
             319.00,304.00 321.00,316.00 321.00,316.00
             324.54,314.56 329.47,312.76 331.69,309.48
             333.39,306.97 333.01,303.92 335.57,301.59
             338.72,298.73 337.60,302.57 346.00,294.00
             347.64,298.54 352.14,308.63 356.32,310.96
             360.09,313.05 370.98,307.77 373.40,304.66
             374.71,302.99 374.68,301.95 375.00,300.00
             377.91,301.05 379.77,302.15 383.00,301.60
             389.02,300.59 394.78,295.06 401.95,296.15
             407.78,297.04 404.65,301.07 415.00,306.78
             417.63,308.23 424.65,312.61 427.26,310.31
             429.08,308.70 428.89,305.21 429.09,303.00
             429.61,297.08 431.00,296.10 428.11,290.04
             425.93,285.47 420.98,280.37 421.25,275.00
             421.43,271.33 423.84,269.69 424.69,266.00
             425.56,262.25 424.18,257.70 425.98,254.18
             427.29,251.62 435.64,244.37 437.00,234.00
             442.35,235.27 449.30,240.09 451.00,228.00
             462.93,228.00 462.36,226.60 466.00,226.44
             466.00,226.44 476.00,227.92 476.00,227.92
             482.98,227.92 496.40,222.93 499.98,216.71
             501.54,214.00 501.00,205.45 501.00,202.00
             501.00,202.00 518.00,202.00 518.00,202.00 Z" />
</svg>
