<?xml version="1.0" encoding="UTF-8" standalone="no"?>
<!DOCTYPE svg PUBLIC "-//W3C//DTD SVG 20010904//EN"
              "http://www.w3.org/TR/2001/REC-SVG-20010904/DTD/svg10.dtd">

<svg xmlns="http://www.w3.org/2000/svg"
     width="13.8872in" height="13.8872in"
     viewBox="0 0 1000 1000">
  <path id="Selection"
        fill="none" stroke="black" stroke-width="1"
        d="M 410.67,171.86
           C 414.69,175.66 418.48,180.89 424.96,178.40
             429.25,176.75 429.23,172.83 431.53,171.17
             433.65,169.65 439.33,169.96 442.00,170.00
             451.48,170.16 450.69,177.91 456.91,174.93
             459.84,173.53 464.50,166.48 464.19,163.17
             463.98,161.04 461.61,158.89 463.08,156.41
             464.32,154.33 467.71,154.02 470.00,152.85
             470.00,152.85 479.00,146.61 479.00,146.61
             479.00,146.61 487.91,142.86 487.91,142.86
             491.45,140.75 493.46,137.03 493.89,133.00
             494.13,130.81 493.67,127.47 494.99,125.82
             498.94,120.23 509.20,124.40 514.00,125.82
             515.10,132.80 521.41,137.09 525.06,142.59
             525.06,142.59 527.30,148.00 527.30,148.00
             528.73,150.98 532.76,157.16 536.04,157.96
             537.87,158.59 539.25,158.00 541.00,157.96
             552.61,156.69 549.93,166.36 552.73,171.00
             554.37,173.71 565.20,187.63 567.59,189.82
             570.27,192.28 577.12,193.01 581.00,194.02
             581.00,194.02 590.00,197.84 590.00,197.84
             590.00,197.84 608.00,197.84 608.00,197.84
             615.16,197.86 619.96,192.80 623.68,186.99
             625.42,184.27 627.91,178.05 631.21,177.34
             641.24,175.18 641.50,192.05 654.00,191.62
             659.60,191.43 666.25,186.39 673.00,186.04
             681.99,185.57 684.82,189.06 690.00,186.67
             693.46,185.07 695.83,181.62 699.00,180.02
             701.78,178.62 703.53,179.43 707.00,177.44
             709.88,175.80 712.26,172.81 716.00,173.69
             722.46,175.22 728.48,187.06 734.02,191.12
             734.02,191.12 746.91,198.75 746.91,198.75
             751.23,201.97 752.61,206.18 758.01,210.47
             763.72,215.01 772.88,220.37 780.00,222.10
             780.00,222.10 791.00,223.53 791.00,223.53
             797.27,224.95 796.59,226.59 805.00,227.00
             805.00,227.00 805.00,877.00 805.00,877.00
             790.47,876.94 797.22,869.24 783.00,869.00
             770.10,868.79 770.78,870.89 766.00,870.89
             762.07,870.89 761.00,869.00 750.00,869.00
             748.85,866.09 747.34,862.67 744.00,861.59
             740.93,860.86 739.85,863.51 736.00,861.59
             730.56,858.54 730.09,854.28 722.00,853.00
             722.00,855.37 722.38,860.47 721.01,862.35
             717.87,866.66 708.76,863.79 705.01,861.70
             696.00,856.69 693.94,843.96 680.00,843.00
             680.00,843.00 680.00,840.00 680.00,840.00
             672.65,840.07 668.99,842.58 663.00,837.00
             660.16,843.42 654.42,844.26 648.00,843.00
             652.20,834.94 658.22,838.15 662.40,832.74
             664.41,830.14 664.00,826.13 664.00,823.00
             664.00,823.00 656.00,823.00 656.00,823.00
             656.00,823.00 656.00,821.00 656.00,821.00
             656.00,821.00 683.83,820.40 683.83,820.40
             683.83,820.40 692.68,812.01 692.68,812.01
             692.68,812.01 697.48,804.83 697.48,804.83
             697.48,804.83 694.26,791.00 694.26,791.00
             694.26,791.00 700.00,777.00 700.00,777.00
             700.00,777.00 703.00,777.00 703.00,777.00
             703.00,769.25 701.47,753.12 706.00,747.00
             706.00,747.00 706.00,751.00 706.00,751.00
             710.58,746.19 713.47,743.87 714.00,737.00
             714.00,737.00 718.00,738.00 718.00,738.00
             717.43,727.85 714.35,726.31 707.61,720.16
             705.59,718.31 703.73,715.94 700.91,715.37
             696.49,714.37 688.51,719.56 683.47,715.37
             682.36,714.49 681.08,712.41 680.30,711.16
             678.88,708.91 678.69,708.54 678.00,706.00
             678.00,706.00 695.04,694.80 695.04,694.80
             695.04,694.80 703.83,692.41 703.83,692.41
             703.83,692.41 710.00,688.00 710.00,688.00
             710.00,688.00 708.00,686.00 708.00,686.00
             708.00,686.00 714.00,680.00 714.00,680.00
             714.00,680.00 708.00,679.00 708.00,679.00
             708.00,679.00 720.01,669.87 720.01,669.87
             720.01,669.87 735.32,652.22 735.32,652.22
             735.32,652.22 746.98,645.86 746.98,645.86
             746.98,645.86 746.98,637.00 746.98,637.00
             741.39,636.80 740.17,636.35 738.00,631.00
             738.00,631.00 740.00,625.00 740.00,625.00
             733.33,625.00 724.55,623.23 722.00,631.00
             717.16,633.50 717.26,634.90 718.00,640.00
             718.00,640.00 706.00,646.16 706.00,646.16
             706.00,646.16 698.00,647.98 698.00,647.98
             698.00,647.98 688.00,653.00 688.00,653.00
             689.07,644.42 691.46,645.76 682.00,641.00
             683.16,637.79 684.32,635.66 683.73,632.09
             683.18,628.74 680.67,624.77 681.38,621.18
             682.06,617.79 687.93,614.16 691.00,613.14
             693.25,612.39 695.65,612.19 698.00,612.00
             698.00,612.00 699.87,600.96 699.87,600.96
             699.87,600.96 701.60,592.55 701.60,592.55
             701.60,592.55 716.00,586.87 716.00,586.87
             716.00,586.87 751.90,577.00 751.90,577.00
             751.90,577.00 751.90,562.00 751.90,562.00
             751.90,562.00 750.00,549.00 750.00,549.00
             750.00,549.00 752.00,529.00 752.00,529.00
             752.00,529.00 744.00,531.00 744.00,531.00
             743.99,528.37 744.20,525.45 742.99,523.04
             740.13,517.31 736.67,519.40 736.00,511.00
             736.00,511.00 724.00,511.00 724.00,511.00
             724.00,511.00 724.00,495.00 724.00,495.00
             724.00,495.00 738.00,495.00 738.00,495.00
             738.00,490.95 739.15,483.43 733.94,482.46
             729.78,481.26 720.69,487.95 718.66,482.46
             717.15,478.78 721.17,477.47 724.25,477.00
             724.02,474.99 723.96,472.96 724.25,471.00
             726.95,461.96 737.19,455.66 728.89,445.51
             727.90,444.30 726.16,442.76 724.91,441.82
             722.54,440.05 721.76,439.79 719.00,439.00
             719.86,435.96 722.28,431.02 721.64,428.11
             720.42,422.46 709.48,424.00 705.00,424.00
             705.00,424.00 704.00,433.00 704.00,433.00
             704.00,433.00 685.00,425.14 685.00,425.14
             685.00,425.14 674.00,425.14 674.00,425.14
             670.57,424.94 669.07,424.90 666.00,423.13
             664.00,421.98 661.50,419.59 659.09,419.62
             655.28,419.67 654.41,424.10 654.00,427.00
             645.07,427.00 638.55,429.65 636.00,419.00
             636.00,419.00 619.01,423.80 619.01,423.80
             619.01,423.80 609.96,420.09 609.96,420.09
             609.96,420.09 602.00,421.00 602.00,421.00
             602.09,428.22 606.32,431.58 598.00,435.00
             596.17,424.36 587.57,432.17 582.85,428.24
             582.85,428.24 580.47,425.37 580.47,425.37
             580.47,425.37 575.04,420.75 575.04,420.75
             575.04,420.75 569.37,412.59 569.37,412.59
             569.37,412.59 563.58,409.45 563.58,409.45
             557.53,405.18 553.48,402.37 548.36,410.85
             547.15,412.86 546.55,414.74 546.00,417.00
             533.37,418.31 527.34,425.91 519.00,434.00
             519.00,434.00 516.68,431.43 516.68,431.43
             510.27,426.04 506.92,434.34 503.12,434.40
             500.92,434.43 499.18,431.51 497.47,430.05
             495.03,427.97 493.18,427.27 490.00,427.05
             484.71,426.69 481.33,427.74 477.00,430.79
             473.56,433.21 470.59,437.01 466.00,436.81
             461.43,436.61 454.49,430.78 454.26,426.07
             454.12,423.11 456.27,421.49 455.11,418.27
             455.11,418.27 442.79,400.58 442.79,400.58
             441.64,397.82 442.00,392.14 442.00,389.00
             442.00,389.00 434.00,387.21 434.00,387.21
             428.37,386.39 425.21,387.61 424.00,379.00
             424.00,379.00 413.00,380.67 413.00,380.67
             413.00,380.67 402.00,385.30 402.00,385.30
             402.00,385.30 390.00,383.22 390.00,383.22
             390.00,383.22 380.00,385.00 380.00,385.00
             380.00,385.00 380.00,379.00 380.00,379.00
             373.40,377.89 374.26,373.37 371.75,368.00
             369.87,363.98 368.39,362.70 365.00,360.00
             368.66,357.62 373.51,356.49 376.11,352.81
             378.65,349.23 377.96,345.37 374.77,342.47
             372.43,340.34 368.80,339.28 366.00,337.78
             366.00,337.78 353.00,330.00 353.00,330.00
             355.59,316.65 345.89,314.43 337.01,308.87
             334.48,307.28 331.53,303.77 328.91,303.57
             325.88,303.34 318.65,308.02 315.00,309.31
             308.29,311.69 302.99,311.00 296.00,311.00
             296.00,311.00 296.00,317.00 296.00,317.00
             290.92,317.41 289.53,317.97 288.00,323.00
             284.95,323.89 280.51,326.34 278.00,326.36
             271.93,326.39 264.33,321.05 258.16,325.82
             251.98,330.59 260.58,344.03 250.68,349.98
             245.73,352.95 240.14,348.40 233.00,349.00
             231.24,343.08 232.37,341.59 226.00,339.00
             225.89,333.80 224.14,323.53 221.66,319.04
             219.71,315.53 217.14,314.28 216.21,311.91
             215.20,308.41 218.59,306.57 216.21,302.58
             214.31,299.81 206.71,292.85 203.84,290.67
             201.65,289.01 197.23,286.46 196.61,283.68
             196.61,283.68 199.00,271.00 199.00,271.00
             199.00,271.00 206.87,268.18 206.87,268.18
             209.47,268.28 210.11,271.15 213.13,272.40
             214.55,273.00 216.33,272.94 217.83,273.23
             223.02,274.25 222.76,276.65 233.00,271.92
             238.09,269.57 243.64,265.29 246.73,260.58
             251.72,252.96 247.81,245.73 261.00,246.00
             260.72,242.66 258.60,233.87 256.41,231.43
             254.62,229.43 242.15,224.94 239.00,224.00
             239.00,224.00 243.57,214.17 243.57,214.17
             245.24,212.88 252.06,212.76 255.00,211.94
             259.40,210.73 267.45,203.99 269.77,199.96
             271.81,195.63 270.39,192.45 269.77,188.00
             269.77,188.00 269.77,180.00 269.77,180.00
             269.77,180.00 267.95,172.00 267.95,172.00
             267.95,172.00 267.95,162.00 267.95,162.00
             267.38,158.34 265.21,153.64 266.60,150.10
             267.57,147.64 269.85,146.32 272.00,145.02
             283.28,138.17 285.68,142.53 293.00,140.43
             299.29,138.62 298.48,134.66 307.00,131.33
             307.00,131.33 317.00,128.97 317.00,128.97
             317.00,128.97 324.00,125.74 324.00,125.74
             327.39,124.92 326.89,126.61 335.00,124.00
             337.16,134.18 343.31,135.66 352.00,137.51
             355.37,138.22 357.34,139.17 361.00,138.80
             367.07,138.20 370.15,134.48 374.00,133.54
             374.00,133.54 385.00,133.00 385.00,133.00
             386.67,135.99 390.00,139.25 390.55,142.04
             390.62,143.52 390.02,145.53 390.55,148.00
             391.32,150.36 392.50,151.61 393.68,153.58
             396.88,158.91 396.00,160.50 403.00,162.00
             404.86,167.33 406.78,168.18 410.67,171.86 Z" />
</svg>
