<?xml version="1.0" encoding="UTF-8" standalone="no"?>
<!DOCTYPE svg PUBLIC "-//W3C//DTD SVG 20010904//EN"
              "http://www.w3.org/TR/2001/REC-SVG-20010904/DTD/svg10.dtd">

<svg xmlns="http://www.w3.org/2000/svg"
     width="43.6334in" height="36.3288in"
     viewBox="0 0 3142 2616">
  <path id="Voronesh"
        fill="Blue" stroke="black" stroke-width="1"
        d="M 2726.90,798.17
           C 2727.99,800.61 2727.02,802.58 2727.52,805.00
             2727.52,805.00 2732.96,815.87 2732.96,815.87
             2735.06,819.00 2736.99,818.81 2739.20,820.82
             2739.20,820.82 2746.07,828.45 2746.07,828.45
             2749.93,831.97 2753.20,836.96 2759.00,836.89
             2765.92,836.81 2765.92,831.05 2768.53,829.17
             2770.65,827.65 2776.33,827.96 2779.00,828.00
             2787.60,828.15 2785.05,831.75 2790.04,833.16
             2795.75,834.76 2800.75,825.23 2800.72,822.00
             2800.87,819.12 2798.19,816.36 2800.72,813.72
             2801.93,812.29 2805.17,811.63 2807.00,810.70
             2807.00,810.70 2817.00,804.00 2817.00,804.00
             2819.93,802.52 2823.46,802.02 2825.82,800.28
             2832.85,795.09 2830.11,787.47 2831.57,784.20
             2834.69,777.81 2846.28,782.43 2851.00,784.20
             2852.41,790.59 2858.34,795.23 2862.12,800.59
             2864.10,803.40 2862.99,804.70 2868.33,811.96
             2870.74,815.22 2871.76,816.52 2876.00,815.82
             2877.47,815.88 2878.39,815.46 2880.00,815.82
             2889.49,816.39 2886.57,823.37 2889.85,829.00
             2891.54,831.90 2902.02,845.47 2904.59,847.82
             2907.27,850.28 2914.12,851.01 2918.00,852.02
             2918.00,852.02 2927.00,855.84 2927.00,855.84
             2927.00,855.84 2945.00,855.84 2945.00,855.84
             2952.16,855.86 2956.96,850.80 2960.68,844.99
             2962.42,842.27 2964.91,836.05 2968.21,835.34
             2977.97,833.23 2978.47,849.19 2990.00,849.52
             2996.36,849.70 3003.16,844.40 3010.00,844.01
             3015.58,843.75 3023.42,846.26 3028.00,844.01
             3028.00,844.01 3036.00,838.02 3036.00,838.02
             3038.83,836.59 3040.42,837.49 3044.00,835.44
             3046.88,833.80 3049.26,830.81 3053.00,831.69
             3059.54,833.23 3064.97,844.40 3070.04,848.39
             3070.04,848.39 3083.91,856.63 3083.91,856.63
             3088.16,859.92 3089.55,864.13 3095.01,868.47
             3099.22,871.82 3108.87,877.75 3114.00,879.21
             3114.00,879.21 3126.00,880.90 3126.00,880.90
             3133.10,882.62 3133.92,884.60 3142.00,885.00
             3142.00,885.00 3142.00,1535.00 3142.00,1535.00
             3127.47,1534.94 3134.22,1527.24 3120.00,1527.00
             3107.10,1526.79 3107.78,1528.89 3103.00,1528.89
             3099.07,1528.89 3098.00,1527.00 3087.00,1527.00
             3085.85,1524.09 3084.34,1520.67 3081.00,1519.59
             3077.93,1518.86 3076.85,1521.51 3073.00,1519.59
             3067.56,1516.54 3067.09,1512.28 3059.00,1511.00
             3059.00,1513.37 3059.38,1518.47 3058.01,1520.35
             3054.87,1524.66 3045.76,1521.79 3042.01,1519.70
             3033.00,1514.69 3030.94,1501.96 3017.00,1501.00
             3017.00,1501.00 3017.00,1498.00 3017.00,1498.00
             3009.65,1498.07 3005.99,1500.58 3000.00,1495.00
             2997.16,1501.42 2991.42,1502.26 2985.00,1501.00
             2989.20,1492.94 2995.22,1496.15 2999.40,1490.74
             3001.41,1488.14 3001.00,1484.13 3001.00,1481.00
             3001.00,1481.00 2993.00,1481.00 2993.00,1481.00
             2993.00,1481.00 2993.00,1479.00 2993.00,1479.00
             2993.00,1479.00 3020.83,1478.40 3020.83,1478.40
             3020.83,1478.40 3029.68,1470.01 3029.68,1470.01
             3029.68,1470.01 3034.48,1462.83 3034.48,1462.83
             3034.48,1462.83 3031.26,1449.00 3031.26,1449.00
             3031.26,1449.00 3037.00,1435.00 3037.00,1435.00
             3037.00,1435.00 3040.00,1435.00 3040.00,1435.00
             3040.00,1427.25 3038.47,1411.12 3043.00,1405.00
             3043.00,1405.00 3043.00,1409.00 3043.00,1409.00
             3047.58,1404.19 3050.47,1401.87 3051.00,1395.00
             3051.00,1395.00 3055.00,1396.00 3055.00,1396.00
             3054.43,1385.85 3051.35,1384.31 3044.61,1378.16
             3042.59,1376.31 3040.73,1373.94 3037.91,1373.37
             3033.49,1372.37 3025.51,1377.56 3020.47,1373.37
             3019.36,1372.49 3018.08,1370.41 3017.30,1369.16
             3015.88,1366.91 3015.69,1366.54 3015.00,1364.00
             3015.00,1364.00 3032.04,1352.80 3032.04,1352.80
             3032.04,1352.80 3040.83,1350.41 3040.83,1350.41
             3040.83,1350.41 3047.00,1346.00 3047.00,1346.00
             3047.00,1346.00 3045.00,1344.00 3045.00,1344.00
             3045.00,1344.00 3051.00,1338.00 3051.00,1338.00
             3051.00,1338.00 3045.00,1337.00 3045.00,1337.00
             3045.00,1337.00 3057.01,1327.87 3057.01,1327.87
             3057.01,1327.87 3072.32,1310.22 3072.32,1310.22
             3072.32,1310.22 3083.98,1303.86 3083.98,1303.86
             3083.98,1303.86 3083.98,1295.00 3083.98,1295.00
             3078.39,1294.80 3077.17,1294.35 3075.00,1289.00
             3075.00,1289.00 3077.00,1283.00 3077.00,1283.00
             3070.33,1283.00 3061.55,1281.23 3059.00,1289.00
             3054.16,1291.50 3054.26,1292.90 3055.00,1298.00
             3055.00,1298.00 3043.00,1304.16 3043.00,1304.16
             3043.00,1304.16 3035.00,1305.98 3035.00,1305.98
             3035.00,1305.98 3025.00,1311.00 3025.00,1311.00
             3026.07,1302.42 3028.46,1303.76 3019.00,1299.00
             3020.16,1295.79 3021.32,1293.66 3020.73,1290.09
             3020.18,1286.74 3017.67,1282.77 3018.38,1279.18
             3019.06,1275.79 3024.93,1272.16 3028.00,1271.14
             3030.25,1270.39 3032.65,1270.19 3035.00,1270.00
             3035.00,1270.00 3036.87,1258.96 3036.87,1258.96
             3036.87,1258.96 3038.60,1250.55 3038.60,1250.55
             3038.60,1250.55 3053.00,1244.87 3053.00,1244.87
             3053.00,1244.87 3088.90,1235.00 3088.90,1235.00
             3088.90,1235.00 3088.90,1220.00 3088.90,1220.00
             3088.90,1220.00 3087.00,1207.00 3087.00,1207.00
             3087.00,1207.00 3089.00,1187.00 3089.00,1187.00
             3089.00,1187.00 3081.00,1189.00 3081.00,1189.00
             3080.99,1186.37 3081.20,1183.45 3079.99,1181.04
             3077.13,1175.31 3073.67,1177.40 3073.00,1169.00
             3073.00,1169.00 3061.00,1169.00 3061.00,1169.00
             3061.00,1169.00 3061.00,1153.00 3061.00,1153.00
             3061.00,1153.00 3075.00,1153.00 3075.00,1153.00
             3075.00,1148.95 3076.15,1141.43 3070.94,1140.46
             3066.78,1139.26 3057.69,1145.95 3055.66,1140.46
             3054.15,1136.78 3058.17,1135.47 3061.25,1135.00
             3061.02,1132.99 3060.96,1130.96 3061.25,1129.00
             3063.95,1119.96 3074.19,1113.66 3065.89,1103.51
             3064.90,1102.30 3063.16,1100.76 3061.91,1099.82
             3059.54,1098.05 3058.76,1097.79 3056.00,1097.00
             3056.86,1093.96 3059.28,1089.02 3058.64,1086.11
             3057.42,1080.46 3046.48,1082.00 3042.00,1082.00
             3042.00,1082.00 3041.00,1091.00 3041.00,1091.00
             3041.00,1091.00 3022.00,1083.14 3022.00,1083.14
             3022.00,1083.14 3011.00,1083.14 3011.00,1083.14
             3007.57,1082.94 3006.07,1082.90 3003.00,1081.13
             3001.00,1079.98 2998.50,1077.59 2996.09,1077.62
             2992.28,1077.67 2991.41,1082.10 2991.00,1085.00
             2982.07,1085.00 2975.55,1087.65 2973.00,1077.00
             2973.00,1077.00 2956.01,1081.80 2956.01,1081.80
             2956.01,1081.80 2946.96,1078.09 2946.96,1078.09
             2946.96,1078.09 2939.00,1079.00 2939.00,1079.00
             2939.09,1086.22 2943.32,1089.58 2935.00,1093.00
             2933.17,1082.36 2924.57,1090.17 2919.85,1086.24
             2919.85,1086.24 2917.47,1083.37 2917.47,1083.37
             2917.47,1083.37 2912.04,1078.75 2912.04,1078.75
             2912.04,1078.75 2906.37,1070.59 2906.37,1070.59
             2906.37,1070.59 2900.58,1067.45 2900.58,1067.45
             2894.53,1063.18 2890.48,1060.37 2885.36,1068.85
             2884.15,1070.86 2883.55,1072.74 2883.00,1075.00
             2870.37,1076.31 2864.34,1083.91 2856.00,1092.00
             2856.00,1092.00 2853.68,1089.43 2853.68,1089.43
             2847.27,1084.04 2843.92,1092.34 2840.12,1092.40
             2837.92,1092.43 2836.18,1089.51 2834.47,1088.05
             2832.03,1085.97 2830.18,1085.27 2827.00,1085.05
             2821.71,1084.69 2818.33,1085.74 2814.00,1088.79
             2810.56,1091.21 2807.59,1095.01 2803.00,1094.81
             2798.43,1094.61 2791.49,1088.78 2791.26,1084.07
             2791.12,1081.11 2793.27,1079.49 2792.11,1076.27
             2792.11,1076.27 2779.79,1058.58 2779.79,1058.58
             2778.64,1055.82 2779.00,1050.14 2779.00,1047.00
             2779.00,1047.00 2771.00,1045.21 2771.00,1045.21
             2765.37,1044.39 2762.21,1045.61 2761.00,1037.00
             2761.00,1037.00 2750.00,1038.67 2750.00,1038.67
             2750.00,1038.67 2739.00,1043.30 2739.00,1043.30
             2739.00,1043.30 2727.00,1041.22 2727.00,1041.22
             2727.00,1041.22 2717.00,1043.00 2717.00,1043.00
             2717.00,1043.00 2717.00,1037.00 2717.00,1037.00
             2710.40,1035.89 2711.26,1031.37 2708.75,1026.00
             2706.87,1021.98 2705.39,1020.70 2702.00,1018.00
             2705.66,1015.62 2710.51,1014.49 2713.11,1010.81
             2715.65,1007.23 2714.96,1003.37 2711.77,1000.47
             2709.43,998.34 2705.80,997.28 2703.00,995.78
             2703.00,995.78 2690.00,988.00 2690.00,988.00
             2692.59,974.65 2682.89,972.43 2674.01,966.87
             2671.48,965.28 2668.53,961.77 2665.91,961.57
             2662.88,961.34 2655.65,966.02 2652.00,967.31
             2645.29,969.69 2639.99,969.00 2633.00,969.00
             2633.00,969.00 2633.00,975.00 2633.00,975.00
             2627.92,975.41 2626.53,975.97 2625.00,981.00
             2621.95,981.89 2617.51,984.34 2615.00,984.36
             2608.93,984.39 2601.33,979.05 2595.16,983.82
             2588.98,988.59 2597.58,1002.03 2587.68,1007.98
             2582.73,1010.95 2577.14,1006.40 2570.00,1007.00
             2568.24,1001.08 2569.37,999.59 2563.00,997.00
             2562.89,991.80 2561.14,981.53 2558.66,977.04
             2556.71,973.53 2554.14,972.28 2553.21,969.91
             2552.20,966.41 2555.59,964.57 2553.21,960.58
             2551.31,957.81 2543.71,950.85 2540.84,948.67
             2538.65,947.01 2534.23,944.46 2533.61,941.68
             2533.61,941.68 2536.00,929.00 2536.00,929.00
             2536.00,929.00 2543.87,926.18 2543.87,926.18
             2546.47,926.28 2547.11,929.15 2550.13,930.40
             2551.55,931.00 2553.33,930.94 2554.83,931.23
             2560.02,932.25 2559.76,934.65 2570.00,929.92
             2575.09,927.57 2580.64,923.29 2583.73,918.58
             2588.72,910.96 2584.81,903.73 2598.00,904.00
             2597.72,900.66 2595.60,891.87 2593.41,889.43
             2591.62,887.43 2579.15,882.94 2576.00,882.00
             2576.00,882.00 2580.57,872.17 2580.57,872.17
             2582.24,870.88 2589.06,870.76 2592.00,869.94
             2596.40,868.73 2604.45,861.99 2606.77,857.96
             2608.81,853.63 2607.39,850.45 2606.77,846.00
             2606.77,846.00 2606.77,838.00 2606.77,838.00
             2606.77,838.00 2604.95,830.00 2604.95,830.00
             2604.95,830.00 2604.95,820.00 2604.95,820.00
             2604.38,816.34 2602.21,811.64 2603.60,808.10
             2604.46,805.92 2606.14,804.84 2608.02,803.62
             2618.90,796.57 2620.07,800.32 2629.00,798.37
             2636.94,796.63 2635.24,792.86 2643.00,789.63
             2647.66,787.70 2650.34,788.06 2654.00,786.86
             2654.00,786.86 2661.00,783.74 2661.00,783.74
             2664.42,782.91 2663.90,784.60 2672.00,782.00
             2674.16,792.16 2679.64,792.82 2688.00,795.01
             2692.16,796.11 2695.62,797.46 2700.00,796.47
             2704.75,795.39 2707.49,792.46 2711.00,791.52
             2711.00,791.52 2722.00,791.00 2722.00,791.00
             2722.00,791.00 2726.90,798.17 2726.90,798.17 Z" />
</svg>
