<?xml version="1.0" encoding="UTF-8" standalone="no"?>
<!DOCTYPE svg PUBLIC "-//W3C//DTD SVG 20010904//EN"
              "http://www.w3.org/TR/2001/REC-SVG-20010904/DTD/svg10.dtd">

<svg xmlns="http://www.w3.org/2000/svg"
     width="43.6334in" height="36.3288in"
     viewBox="0 0 3142 2616">
  <path id="Naples"
        fill="Green" stroke="black" stroke-width="1"
        d="M 1764.96,1974.85
           C 1769.40,1974.44 1770.17,1971.52 1773.18,1969.98
             1777.34,1967.85 1784.39,1968.04 1787.19,1972.33
             1790.56,1977.48 1786.35,1980.64 1782.00,1982.75
             1774.18,1986.54 1766.78,1991.74 1771.80,2001.68
             1773.90,2005.84 1777.84,2007.78 1781.44,2010.23
             1791.70,2017.20 1799.11,2021.60 1811.00,2025.56
             1811.00,2025.56 1826.00,2031.99 1826.00,2031.99
             1826.00,2031.99 1844.83,2038.01 1844.83,2038.01
             1847.15,2039.30 1848.21,2041.36 1852.01,2043.41
             1852.01,2043.41 1862.45,2047.72 1862.45,2047.72
             1865.42,2049.71 1865.55,2053.09 1868.48,2055.36
             1868.48,2055.36 1872.75,2057.48 1872.75,2057.48
             1875.18,2058.80 1875.75,2060.30 1878.13,2061.12
             1880.42,2061.90 1882.30,2060.94 1888.00,2063.71
             1895.72,2067.47 1899.98,2072.97 1909.00,2075.00
             1909.61,2083.38 1913.08,2082.87 1919.42,2086.08
             1921.81,2087.28 1924.24,2089.02 1926.27,2090.76
             1934.08,2097.45 1938.99,2106.69 1943.00,2116.00
             1941.15,2117.00 1939.56,2117.71 1938.31,2119.53
             1935.77,2123.22 1935.00,2134.40 1935.00,2139.00
             1927.90,2138.09 1917.90,2132.87 1915.48,2125.72
             1914.50,2122.78 1915.77,2120.94 1913.58,2115.00
             1911.54,2109.48 1907.76,2104.88 1907.00,2099.00
             1907.00,2099.00 1880.00,2097.17 1880.00,2097.17
             1877.27,2096.91 1870.24,2097.30 1868.34,2096.43
             1865.07,2094.92 1865.42,2091.34 1864.42,2089.19
             1862.87,2085.85 1855.74,2080.96 1852.00,2081.32
             1848.09,2081.70 1841.23,2085.98 1839.00,2089.18
             1839.00,2089.18 1835.87,2095.45 1835.87,2095.45
             1834.19,2097.53 1832.46,2096.79 1829.09,2101.06
             1825.21,2105.99 1825.23,2109.83 1822.75,2114.96
             1820.88,2118.82 1818.54,2120.23 1817.60,2123.04
             1816.60,2125.99 1817.88,2129.07 1816.88,2132.83
             1815.51,2138.00 1807.89,2144.29 1812.44,2154.96
             1816.29,2164.01 1829.94,2164.52 1832.83,2165.98
             1832.83,2165.98 1845.00,2174.42 1845.00,2174.42
             1847.44,2175.78 1852.65,2177.89 1853.88,2180.34
             1854.85,2182.27 1852.39,2192.09 1852.00,2195.00
             1852.00,2195.00 1855.06,2195.00 1855.06,2195.00
             1855.06,2195.00 1855.06,2208.96 1855.06,2208.96
             1855.06,2208.96 1857.00,2217.00 1857.00,2217.00
             1848.96,2217.00 1843.46,2216.04 1836.00,2219.71
             1828.74,2223.29 1825.12,2229.01 1817.06,2231.00
             1817.06,2231.00 1817.06,2240.00 1817.06,2240.00
             1817.85,2246.44 1819.18,2243.04 1819.00,2255.00
             1818.78,2269.25 1799.90,2274.13 1792.74,2284.29
             1788.87,2289.77 1793.31,2297.84 1787.84,2303.23
             1784.73,2306.13 1782.03,2303.22 1778.00,2303.23
             1778.00,2303.23 1770.09,2304.76 1770.09,2304.76
             1763.19,2304.34 1762.91,2296.08 1763.00,2291.00
             1763.16,2282.20 1766.03,2285.87 1770.42,2279.70
             1773.35,2275.57 1778.17,2264.94 1779.96,2260.00
             1780.71,2257.96 1782.05,2254.26 1781.37,2252.14
             1780.72,2250.12 1776.91,2247.98 1775.00,2246.00
             1776.84,2245.03 1781.26,2242.46 1783.00,2242.17
             1785.32,2241.60 1787.00,2242.54 1789.00,2242.17
             1793.01,2241.64 1796.61,2237.15 1798.32,2233.70
             1800.17,2229.96 1802.24,2224.13 1799.26,2220.47
             1797.08,2217.79 1793.54,2217.84 1791.77,2212.95
             1791.77,2212.95 1785.71,2183.00 1785.71,2183.00
             1783.56,2174.64 1782.93,2169.46 1772.81,2167.00
             1773.00,2163.77 1773.18,2157.94 1772.81,2155.00
             1772.81,2155.00 1771.21,2149.00 1771.21,2149.00
             1770.08,2141.22 1769.66,2137.85 1765.24,2130.96
             1763.07,2127.57 1759.92,2123.02 1756.00,2121.60
             1749.02,2119.06 1745.62,2125.55 1740.96,2125.44
             1733.57,2125.26 1731.57,2116.89 1725.91,2113.98
             1723.20,2112.59 1717.51,2112.53 1714.89,2109.48
             1710.34,2104.19 1718.16,2102.43 1718.84,2096.96
             1719.36,2092.71 1716.38,2088.03 1715.00,2084.00
             1715.00,2084.00 1723.00,2082.00 1723.00,2082.00
             1718.71,2074.83 1716.26,2079.39 1710.09,2077.57
             1705.54,2076.23 1704.87,2071.62 1700.96,2070.75
             1697.75,2070.03 1690.69,2074.48 1683.05,2075.00
             1683.13,2073.20 1683.62,2069.74 1683.05,2068.13
             1681.78,2064.09 1676.60,2063.75 1673.27,2060.99
             1670.29,2058.52 1670.41,2055.27 1665.98,2056.27
             1663.82,2056.76 1661.59,2058.62 1659.26,2057.72
             1656.60,2056.68 1654.00,2049.79 1652.79,2047.17
             1649.90,2040.90 1643.22,2026.22 1637.91,2022.60
             1630.24,2017.36 1619.48,2025.25 1612.58,2017.53
             1611.28,2016.07 1609.87,2012.01 1609.00,2010.00
             1609.00,2010.00 1612.00,2009.00 1612.00,2009.00
             1612.23,2011.80 1612.79,2016.29 1616.91,2015.26
             1620.89,2014.26 1621.41,2008.01 1623.81,2005.59
             1625.77,2003.63 1628.33,2004.14 1630.58,2002.26
             1636.53,1997.30 1632.76,1989.40 1630.00,1984.00
             1639.97,1977.04 1638.25,1980.44 1642.91,1977.99
             1642.91,1977.99 1648.17,1974.30 1648.17,1974.30
             1652.38,1972.52 1652.49,1975.68 1658.00,1969.00
             1658.00,1969.00 1665.00,1970.79 1665.00,1970.79
             1665.00,1970.79 1672.00,1971.63 1672.00,1971.63
             1679.88,1973.87 1679.76,1976.82 1695.00,1977.00
             1695.00,1977.00 1709.00,1976.43 1709.00,1976.43
             1713.38,1976.56 1714.97,1979.55 1717.87,1978.67
             1721.09,1977.69 1723.23,1971.92 1724.00,1969.00
             1726.45,1969.03 1728.70,1968.88 1730.96,1970.02
             1735.33,1972.21 1734.49,1975.11 1740.00,1973.00
             1745.90,1976.26 1749.21,1974.00 1753.00,1969.00
             1757.11,1971.10 1759.87,1975.32 1764.96,1974.85 Z
           M 1780.00,2013.00
           C 1780.00,2013.00 1784.00,2016.00 1784.00,2016.00
             1784.00,2016.00 1780.00,2013.00 1780.00,2013.00 Z" />
</svg>
