<?xml version="1.0" encoding="UTF-8" standalone="no"?>
<!DOCTYPE svg PUBLIC "-//W3C//DTD SVG 20010904//EN"
              "http://www.w3.org/TR/2001/REC-SVG-20010904/DTD/svg10.dtd">

<svg xmlns="http://www.w3.org/2000/svg"
     width="11.1097in" height="6.94358in"
     viewBox="0 0 800 500">
  <path id="Selection"
        fill="blue" stroke="black" stroke-width="1"
        d="M 410.04,123.27
           C 414.29,124.35 416.83,119.42 420.09,118.84
             422.73,118.38 431.67,123.22 437.28,122.71
             437.28,122.71 461.00,116.16 461.00,116.16
             461.00,116.16 477.00,118.37 477.00,118.37
             477.00,118.37 483.00,119.97 483.00,119.97
             483.00,119.97 489.00,119.97 489.00,119.97
             493.06,120.75 494.41,122.77 497.00,123.01
             498.96,123.19 502.06,121.68 504.00,121.00
             507.54,125.30 508.42,125.89 514.00,126.00
             516.59,126.04 521.68,125.73 523.91,126.60
             526.49,127.60 527.70,129.70 530.09,130.99
             532.32,132.19 534.17,131.81 536.25,133.51
             536.25,133.51 543.18,142.00 543.18,142.00
             548.55,147.96 554.90,152.35 563.00,153.44
             572.29,154.68 582.53,144.08 586.09,142.89
             589.76,141.67 591.88,144.02 595.00,144.15
             597.35,144.26 598.80,143.11 601.00,143.04
             601.00,143.04 607.00,143.73 607.00,143.73
             610.32,143.40 614.51,140.49 617.58,139.09
             619.87,138.04 626.40,136.46 629.00,136.00
             629.00,136.00 631.00,126.00 631.00,126.00
             631.00,126.00 647.11,126.00 647.11,126.00
             647.11,126.00 647.11,131.00 647.11,131.00
             648.85,139.80 657.56,137.13 663.91,139.53
             668.79,141.37 669.69,143.51 673.00,145.02
             678.22,147.39 684.09,145.59 689.00,143.55
             695.94,140.66 700.23,142.58 701.00,133.00
             701.00,133.00 715.00,138.92 715.00,138.92
             715.00,138.92 721.00,143.09 721.00,143.09
             721.00,143.09 724.69,145.12 724.69,145.12
             728.20,147.83 726.43,153.25 734.01,155.49
             740.73,157.48 752.82,152.11 761.00,152.00
             776.27,151.80 770.99,153.07 777.16,155.42
             777.16,155.42 783.00,157.00 783.00,157.00
             774.39,160.36 769.38,161.90 773.00,172.00
             767.80,173.62 757.80,175.61 755.60,181.09
             754.88,182.88 755.01,186.03 755.00,188.00
             757.18,188.47 762.68,189.66 763.93,191.58
             765.16,193.49 763.68,196.95 763.15,199.00
             763.15,199.00 759.15,217.00 759.15,217.00
             756.34,225.19 754.67,223.04 754.10,236.00
             754.10,236.00 755.21,257.00 755.21,257.00
             755.89,261.94 757.37,262.31 756.96,270.00
             756.45,279.44 750.70,283.32 751.64,287.81
             752.37,291.30 756.86,292.15 761.00,297.00
             756.57,300.86 748.93,308.31 747.24,314.00
             746.75,316.80 747.01,324.68 747.24,328.00
             746.98,338.53 745.64,334.32 741.22,342.00
             739.00,345.87 739.30,347.90 734.95,350.41
             729.62,353.49 720.20,355.54 715.04,359.46
             707.84,364.93 709.03,369.54 706.18,372.41
             704.45,374.15 697.56,375.54 695.00,376.00
             694.29,380.32 689.20,386.52 684.79,387.93
             684.79,387.93 657.00,387.93 657.00,387.93
             657.00,387.93 537.00,387.93 537.00,387.93
             537.00,387.93 23.00,387.93 23.00,387.93
             23.00,387.93 21.40,379.08 21.40,379.08
             21.72,376.87 23.55,375.50 24.58,372.96
             25.17,370.77 25.12,366.30 24.58,364.00
             23.68,357.55 18.36,347.90 18.73,344.04
             19.47,336.27 27.89,329.39 28.78,323.00
             29.85,315.34 24.00,312.09 23.79,308.80
             23.63,306.22 26.86,304.19 28.21,300.71
             29.51,297.39 28.49,294.99 29.76,291.00
             29.76,291.00 35.87,278.00 35.87,278.00
             40.48,265.92 27.39,248.39 42.00,246.00
             40.04,237.06 33.44,239.84 33.65,233.95
             33.86,227.98 42.77,224.84 39.83,218.00
             34.78,206.25 22.58,199.95 18.00,188.00
             26.56,188.69 25.97,193.01 31.00,193.31
             33.46,193.46 49.54,189.20 51.99,187.95
             51.99,187.95 60.09,183.13 60.09,183.13
             63.89,181.64 66.46,182.35 70.00,181.54
             72.89,180.88 85.41,175.88 87.91,174.41
             92.90,171.48 91.99,168.86 94.49,165.32
             96.79,162.06 102.47,157.68 106.28,156.45
             111.29,154.84 115.53,156.13 119.00,155.71
             121.42,155.41 123.47,154.19 125.96,154.63
             129.31,155.23 130.72,158.34 136.00,157.85
             145.32,156.99 146.34,145.83 158.00,149.00
             158.10,150.87 157.95,152.01 159.09,153.70
             160.39,155.64 169.68,160.19 172.04,160.22
             174.94,160.26 179.02,157.99 181.42,156.42
             190.46,150.51 193.70,143.23 195.75,141.51
             198.09,139.54 201.36,139.89 204.95,137.78
             208.36,135.76 208.81,133.66 211.26,132.60
             211.26,132.60 220.00,131.54 220.00,131.54
             220.00,131.54 234.00,126.60 234.00,126.60
             234.00,126.60 244.83,125.54 244.83,125.54
             244.83,125.54 255.00,122.73 255.00,122.73
             258.49,121.40 261.56,118.96 265.00,118.27
             271.03,117.07 279.73,119.13 280.82,119.04
             283.60,118.82 284.21,116.63 287.18,116.71
             287.18,116.71 298.00,119.55 298.00,119.55
             298.00,119.55 319.00,121.92 319.00,121.92
             319.00,121.92 340.00,121.92 340.00,121.92
             342.75,121.57 350.69,120.13 352.91,120.77
             355.70,121.56 356.75,124.05 360.04,125.44
             369.96,129.64 393.73,124.16 397.00,112.00
             406.25,114.36 404.05,121.75 410.04,123.27 Z" />
</svg>
