<?xml version="1.0" encoding="UTF-8" standalone="no"?>
<!DOCTYPE svg PUBLIC "-//W3C//DTD SVG 20010904//EN"
              "http://www.w3.org/TR/2001/REC-SVG-20010904/DTD/svg10.dtd">

<svg xmlns="http://www.w3.org/2000/svg"
     width="8.33229in" height="8.33229in"
     viewBox="0 0 600 600">
  <path id="Selection"
        fill="blue" stroke="black" stroke-width="1"
        d="M 337.00,135.00
           C 337.00,135.00 337.51,163.82 337.51,163.82
             338.77,167.53 342.31,168.48 343.98,171.32
             346.73,175.99 342.71,179.48 351.00,182.00
             351.00,182.00 353.00,194.00 353.00,194.00
             353.00,194.00 359.00,194.00 359.00,194.00
             359.00,194.00 361.00,205.00 361.00,205.00
             373.23,206.66 370.40,209.54 377.00,212.83
             380.02,214.33 382.22,213.66 385.00,214.58
             390.76,216.48 387.69,217.98 398.00,218.19
             398.00,218.19 415.00,218.19 415.00,218.19
             415.00,218.19 431.00,223.20 431.00,223.20
             434.48,223.55 437.36,221.59 440.82,222.27
             445.02,223.09 445.44,226.99 452.00,230.14
             461.90,234.90 463.79,234.56 474.00,232.36
             476.24,231.87 477.72,231.89 480.00,231.01
             480.00,231.01 489.00,226.00 489.00,226.00
             489.00,226.00 489.00,238.00 489.00,238.00
             489.07,247.83 492.31,247.09 499.99,250.80
             503.94,252.71 504.77,254.84 508.09,255.84
             508.09,255.84 533.00,255.84 533.00,255.84
             536.52,271.64 551.26,283.33 559.00,297.00
             555.34,300.25 550.00,304.19 551.52,309.83
             552.26,312.57 554.36,313.67 554.86,318.00
             555.60,324.36 552.05,325.10 552.05,328.01
             552.04,329.74 553.54,331.06 553.82,334.04
             554.14,337.39 552.54,340.88 553.30,345.00
             553.75,347.47 555.13,349.40 554.89,351.83
             554.89,351.83 548.08,366.44 548.08,366.44
             546.62,370.08 547.27,372.25 545.40,375.96
             544.45,377.85 542.09,380.52 541.71,382.13
             540.69,386.48 548.68,391.84 548.13,398.00
             547.53,404.66 539.63,408.12 537.61,416.00
             536.72,419.50 538.91,431.03 540.45,434.39
             541.70,437.11 544.33,440.24 544.67,443.00
             545.26,447.75 542.01,449.43 538.00,450.00
             538.00,450.00 541.00,465.00 541.00,465.00
             541.00,465.00 524.00,464.04 524.00,464.04
             524.00,464.04 501.00,466.00 501.00,466.00
             501.00,466.00 401.00,466.00 401.00,466.00
             401.00,466.00 300.00,466.00 300.00,466.00
             300.00,466.00 287.00,465.00 287.00,465.00
             287.00,465.00 274.00,465.00 274.00,465.00
             274.00,465.00 259.00,464.00 259.00,464.00
             259.00,464.00 42.10,464.00 42.10,464.00
             42.10,464.00 42.10,306.00 42.10,306.00
             42.00,304.54 41.94,301.49 42.10,300.18
             42.82,298.24 48.30,291.37 50.14,290.60
             52.85,289.46 57.67,290.71 65.00,288.87
             74.85,286.39 71.46,284.02 83.00,283.81
             83.00,283.81 106.00,283.81 106.00,283.81
             106.00,283.81 116.99,281.36 116.99,281.36
             116.99,281.36 123.28,278.60 123.28,278.60
             127.12,277.93 130.32,281.75 138.00,279.90
             148.53,277.36 156.71,270.15 168.00,269.77
             171.05,269.96 176.24,270.23 179.00,269.77
             184.86,268.04 196.76,258.35 202.00,254.48
             202.00,254.48 213.50,246.53 213.50,246.53
             216.38,243.51 216.14,239.85 219.13,236.54
             221.05,234.42 227.13,231.01 229.91,229.00
             233.20,226.62 237.93,221.96 240.86,219.00
             248.65,211.12 245.84,211.99 250.68,204.75
             250.68,204.75 265.75,185.04 265.75,185.04
             269.30,180.92 272.49,181.09 275.11,177.74
             275.11,177.74 283.37,162.00 283.37,162.00
             289.07,153.05 296.97,144.94 301.00,135.00
             312.24,137.74 325.66,137.03 337.00,135.00 Z" />
</svg>
