<?xml version="1.0" encoding="UTF-8" standalone="no"?>
<!DOCTYPE svg PUBLIC "-//W3C//DTD SVG 20010904//EN"
              "http://www.w3.org/TR/2001/REC-SVG-20010904/DTD/svg10.dtd">

<svg xmlns="http://www.w3.org/2000/svg"
     width="43.6334in" height="36.3288in"
     viewBox="0 0 3142 2616">
  <path id="Morocco.svg"
        fill="Cyan" stroke="black" stroke-width="1"
        d="M 295.00,2282.00
           C 295.00,2282.00 295.51,2310.82 295.51,2310.82
             296.77,2314.53 300.31,2315.48 301.98,2318.32
             304.73,2322.99 300.71,2326.48 309.00,2329.00
             309.00,2329.00 311.00,2341.00 311.00,2341.00
             311.00,2341.00 317.00,2341.00 317.00,2341.00
             317.00,2341.00 319.00,2352.00 319.00,2352.00
             331.23,2353.66 328.40,2356.54 335.00,2359.83
             338.02,2361.33 340.22,2360.66 343.00,2361.58
             348.76,2363.48 345.69,2364.98 356.00,2365.19
             356.00,2365.19 373.00,2365.19 373.00,2365.19
             373.00,2365.19 389.00,2370.20 389.00,2370.20
             392.48,2370.55 395.36,2368.59 398.82,2369.27
             403.02,2370.09 403.44,2373.99 410.00,2377.14
             419.90,2381.90 421.79,2381.56 432.00,2379.36
             434.24,2378.87 435.72,2378.89 438.00,2378.01
             438.00,2378.01 447.00,2373.00 447.00,2373.00
             447.00,2373.00 447.00,2385.00 447.00,2385.00
             447.07,2394.83 450.31,2394.09 457.99,2397.80
             461.94,2399.71 462.77,2401.84 466.09,2402.84
             466.09,2402.84 491.00,2402.84 491.00,2402.84
             494.52,2418.64 509.26,2430.33 517.00,2444.00
             513.34,2447.25 508.00,2451.19 509.52,2456.83
             510.26,2459.57 512.36,2460.67 512.86,2465.00
             513.60,2471.36 510.05,2472.10 510.05,2475.01
             510.04,2476.74 511.54,2478.06 511.82,2481.04
             512.14,2484.39 510.54,2487.88 511.30,2492.00
             511.75,2494.47 513.13,2496.40 512.89,2498.83
             512.89,2498.83 506.08,2513.44 506.08,2513.44
             504.62,2517.08 505.27,2519.25 503.40,2522.96
             502.45,2524.85 500.09,2527.52 499.71,2529.13
             498.69,2533.48 506.68,2538.84 506.13,2545.00
             505.53,2551.66 497.63,2555.12 495.61,2563.00
             494.72,2566.50 496.91,2578.03 498.45,2581.39
             499.70,2584.11 502.33,2587.24 502.67,2590.00
             503.26,2594.75 500.01,2596.43 496.00,2597.00
             496.00,2597.00 499.00,2612.00 499.00,2612.00
             499.00,2612.00 482.00,2611.04 482.00,2611.04
             482.00,2611.04 459.00,2613.00 459.00,2613.00
             459.00,2613.00 359.00,2613.00 359.00,2613.00
             359.00,2613.00 258.00,2613.00 258.00,2613.00
             258.00,2613.00 245.00,2612.00 245.00,2612.00
             245.00,2612.00 232.00,2612.00 232.00,2612.00
             232.00,2612.00 217.00,2611.00 217.00,2611.00
             217.00,2611.00 0.10,2611.00 0.10,2611.00
             0.10,2611.00 0.10,2453.00 0.10,2453.00
             0.00,2451.54 -0.06,2448.49 0.10,2447.18
             0.82,2445.24 6.30,2438.37 8.14,2437.60
             10.85,2436.46 15.67,2437.71 23.00,2435.87
             32.85,2433.39 29.46,2431.02 41.00,2430.81
             41.00,2430.81 64.00,2430.81 64.00,2430.81
             64.00,2430.81 74.99,2428.36 74.99,2428.36
             74.99,2428.36 81.28,2425.60 81.28,2425.60
             85.12,2424.93 88.32,2428.75 96.00,2426.90
             106.53,2424.36 114.71,2417.15 126.00,2416.77
             129.05,2416.96 134.24,2417.23 137.00,2416.77
             142.86,2415.04 154.76,2405.35 160.00,2401.48
             160.00,2401.48 171.50,2393.53 171.50,2393.53
             174.38,2390.51 174.14,2386.85 177.13,2383.54
             179.05,2381.42 185.13,2378.01 187.91,2376.00
             191.20,2373.62 195.93,2368.96 198.86,2366.00
             206.65,2358.12 203.84,2358.99 208.68,2351.75
             208.68,2351.75 223.75,2332.04 223.75,2332.04
             227.30,2327.92 230.49,2328.09 233.11,2324.74
             233.11,2324.74 241.37,2309.00 241.37,2309.00
             247.07,2300.05 254.97,2291.94 259.00,2282.00
             270.24,2284.74 283.66,2284.03 295.00,2282.00 Z" />
</svg>
