<?xml version="1.0" encoding="UTF-8" standalone="no"?>
<!DOCTYPE svg PUBLIC "-//W3C//DTD SVG 20010904//EN"
              "http://www.w3.org/TR/2001/REC-SVG-20010904/DTD/svg10.dtd">

<svg xmlns="http://www.w3.org/2000/svg"
     width="5.55486in" height="6.94358in"
     viewBox="0 0 400 500">
  <path id="Selection"
        fill="blue" stroke="black" stroke-width="1"
        d="M 185.53,139.45
           C 187.94,137.21 188.42,133.86 191.26,132.00
             191.26,132.00 196.96,129.87 196.96,129.87
             196.96,129.87 204.32,125.48 204.32,125.48
             204.32,125.48 212.00,124.63 212.00,124.63
             212.00,124.63 229.00,120.65 229.00,120.65
             235.04,119.30 242.00,117.62 248.00,120.00
             237.30,124.33 242.72,125.17 243.00,135.00
             246.41,135.37 249.71,136.02 252.82,134.06
             256.04,132.03 257.17,127.98 261.04,127.44
             263.62,127.08 266.76,128.89 269.00,130.00
             269.00,130.00 265.00,137.00 265.00,137.00
             265.00,137.00 269.00,138.00 269.00,138.00
             267.22,144.23 267.30,145.81 272.02,150.82
             273.48,152.37 277.20,155.23 277.71,157.14
             278.42,159.87 275.55,161.51 274.31,163.51
             272.83,165.91 273.03,168.30 273.00,171.00
             273.00,171.00 281.00,173.00 281.00,173.00
             281.00,173.00 281.00,176.00 281.00,176.00
             289.00,174.94 297.01,173.56 298.00,164.00
             304.56,162.11 306.97,163.19 313.25,158.62
             318.43,154.84 322.63,147.91 329.00,147.00
             329.00,147.00 329.95,161.77 329.95,161.77
             328.36,165.54 321.78,168.00 319.68,172.13
             317.49,176.45 312.88,189.26 309.45,192.03
             306.60,194.34 297.67,196.02 294.09,197.70
             286.89,201.08 280.67,214.26 281.60,222.00
             282.58,230.10 284.73,230.90 286.44,235.17
             286.44,235.17 288.05,241.00 288.05,241.00
             291.36,250.58 296.83,256.53 307.00,258.00
             306.00,265.81 312.48,267.82 319.00,269.00
             319.00,269.00 320.87,281.91 320.87,281.91
             320.57,285.86 317.73,289.37 319.51,294.82
             320.55,298.00 322.97,298.76 325.00,303.00
             316.62,306.39 317.35,313.44 315.00,321.00
             306.84,322.37 310.45,326.25 307.73,331.99
             305.80,336.03 304.36,335.88 303.00,341.00
             295.95,342.18 298.71,344.25 295.42,347.41
             293.55,349.20 291.60,348.72 288.76,350.80
             288.76,350.80 282.25,357.54 282.25,357.54
             282.25,357.54 272.58,362.75 272.58,362.75
             272.58,362.75 263.09,368.82 263.09,368.82
             263.09,368.82 257.83,372.87 257.83,372.87
             257.83,372.87 241.72,380.85 241.72,380.85
             239.80,381.10 237.02,381.00 235.00,380.85
             235.00,380.85 70.00,380.85 70.00,380.85
             74.04,371.27 77.17,376.38 83.24,371.29
             88.65,366.74 89.93,358.53 93.55,355.98
             93.55,355.98 102.00,353.11 102.00,353.11
             107.07,351.25 112.08,348.46 115.96,344.65
             120.47,340.23 119.72,338.61 122.27,334.00
             123.85,331.14 125.91,329.28 126.85,326.00
             126.85,326.00 126.85,316.00 126.85,316.00
             127.05,307.43 128.75,308.92 129.00,301.00
             133.47,299.25 141.10,292.48 140.13,287.05
             139.42,283.13 134.39,282.95 133.30,278.81
             131.84,273.27 136.78,269.15 137.35,263.99
             138.56,253.06 131.21,243.65 132.56,232.00
             132.56,232.00 134.79,224.00 134.79,224.00
             135.13,221.77 134.76,218.22 135.57,216.37
             136.64,213.94 139.17,213.18 140.40,209.96
             141.29,207.65 140.96,201.74 141.00,199.00
             141.11,192.32 142.45,192.43 142.87,188.00
             143.51,181.27 140.26,180.10 136.00,176.00
             141.98,172.96 144.13,171.21 151.00,171.00
             151.00,171.00 155.00,157.00 155.00,157.00
             155.00,157.00 168.00,155.00 168.00,155.00
             168.00,155.00 167.00,143.00 167.00,143.00
             172.84,143.00 180.91,143.75 185.53,139.45 Z" />
</svg>
