<?xml version="1.0" encoding="UTF-8" standalone="no"?>
<!DOCTYPE svg PUBLIC "-//W3C//DTD SVG 20010904//EN"
              "http://www.w3.org/TR/2001/REC-SVG-20010904/DTD/svg10.dtd">

<svg xmlns="http://www.w3.org/2000/svg"
     width="43.6334in" height="36.3288in"
     viewBox="0 0 3142 2616">
  <path id="Denmark"
        fill="Blue" stroke="black" stroke-width="1"
        d="M 1441.00,683.00
           C 1453.08,683.00 1463.73,683.13 1472.48,673.00
             1479.57,664.80 1484.45,651.30 1488.76,648.29
             1491.39,646.45 1494.56,647.32 1498.00,646.62
             1498.00,646.62 1508.00,643.00 1508.00,643.00
             1506.53,651.78 1509.50,652.20 1510.74,660.00
             1511.33,663.68 1509.67,674.86 1507.41,677.66
             1505.61,679.88 1503.60,680.35 1501.00,681.00
             1501.00,681.00 1501.00,692.00 1501.00,692.00
             1501.00,692.00 1497.00,691.00 1497.00,691.00
             1497.00,691.00 1497.00,716.00 1497.00,716.00
             1497.00,716.00 1488.00,716.00 1488.00,716.00
             1488.00,716.00 1489.00,723.00 1489.00,723.00
             1489.00,723.00 1498.00,723.00 1498.00,723.00
             1497.63,725.07 1496.97,727.85 1497.31,729.91
             1497.66,731.93 1498.65,733.17 1499.91,734.70
             1505.25,741.19 1515.42,739.00 1523.00,739.00
             1523.00,748.83 1523.71,747.62 1518.21,755.51
             1517.23,756.93 1516.36,759.02 1514.70,759.86
             1514.70,759.86 1507.00,759.86 1507.00,759.86
             1507.00,759.86 1507.00,754.00 1507.00,754.00
             1504.81,754.29 1501.00,754.78 1499.00,755.47
             1496.30,756.40 1494.36,757.86 1492.48,760.00
             1483.86,769.87 1495.03,772.72 1489.00,787.00
             1487.58,786.18 1485.56,784.88 1484.00,784.51
             1478.26,783.15 1473.16,787.69 1472.00,793.00
             1482.03,795.27 1479.73,799.94 1475.94,800.58
             1473.79,800.95 1469.82,799.36 1467.00,799.05
             1467.00,799.05 1459.00,799.05 1459.00,799.05
             1459.00,799.05 1466.00,813.00 1466.00,813.00
             1458.73,813.49 1453.58,815.04 1453.00,823.00
             1453.00,823.00 1457.00,823.00 1457.00,823.00
             1457.00,823.00 1455.00,827.00 1455.00,827.00
             1450.29,825.32 1447.20,823.41 1442.00,823.09
             1433.21,822.55 1431.11,825.16 1424.00,828.02
             1424.00,828.02 1415.00,831.00 1415.00,831.00
             1415.00,828.21 1415.26,822.49 1414.26,820.09
             1412.50,815.87 1408.62,815.65 1406.54,814.04
             1403.96,812.02 1404.93,811.17 1401.00,809.00
             1400.71,800.49 1395.57,803.37 1391.00,807.00
             1391.47,803.31 1392.15,802.32 1393.48,798.96
             1396.85,790.43 1399.34,785.41 1409.00,783.00
             1408.84,769.70 1401.39,767.77 1398.02,761.00
             1396.55,758.04 1397.00,751.48 1397.00,748.00
             1397.00,748.00 1405.00,752.00 1405.00,752.00
             1405.71,746.11 1408.31,745.97 1402.00,742.00
             1406.43,737.17 1401.98,736.66 1399.92,731.00
             1398.67,727.90 1399.15,726.02 1399.92,723.00
             1399.92,723.00 1412.48,727.82 1412.48,727.82
             1412.48,727.82 1420.75,735.20 1420.75,735.20
             1420.75,735.20 1429.00,735.20 1429.00,735.20
             1429.00,735.20 1427.00,727.00 1427.00,727.00
             1430.19,720.51 1432.49,721.18 1435.42,717.55
             1438.78,713.39 1435.62,711.62 1443.00,711.00
             1442.73,720.34 1437.64,720.89 1437.48,726.09
             1437.34,730.67 1442.29,735.88 1445.00,727.00
             1451.14,730.98 1447.05,734.65 1457.00,735.00
             1457.14,728.50 1460.99,716.82 1451.00,717.00
             1453.14,711.08 1451.46,713.01 1451.55,708.83
             1451.55,708.83 1452.68,703.00 1452.68,703.00
             1453.65,697.59 1453.07,696.52 1459.00,695.00
             1459.60,696.28 1460.11,697.64 1460.99,698.77
             1465.90,705.08 1471.40,697.07 1476.28,695.48
             1479.02,694.59 1483.16,695.63 1484.72,692.69
             1486.74,688.89 1482.82,687.48 1480.00,687.00
             1480.00,687.00 1481.00,683.00 1481.00,683.00
             1481.00,683.00 1467.00,686.90 1467.00,686.90
             1467.00,686.90 1442.00,686.90 1442.00,686.90
             1426.84,687.03 1435.27,693.20 1423.00,692.00
             1423.00,692.00 1419.00,703.00 1419.00,703.00
             1409.51,705.89 1416.49,710.38 1409.00,713.00
             1409.00,713.00 1409.99,700.09 1409.99,700.09
             1409.99,700.09 1423.00,681.00 1423.00,681.00
             1430.27,683.73 1433.45,683.00 1441.00,683.00 Z
           M 1486.00,755.00
           C 1486.00,755.00 1487.00,756.00 1487.00,756.00
             1487.00,756.00 1487.00,755.00 1487.00,755.00
             1487.00,755.00 1486.00,755.00 1486.00,755.00 Z
           M 1488.00,762.00
           C 1488.00,762.00 1485.00,761.00 1485.00,761.00
             1485.00,763.23 1486.42,762.54 1488.00,762.00 Z" />
</svg>
