<?xml version="1.0" encoding="UTF-8" standalone="no"?>
<!DOCTYPE svg PUBLIC "-//W3C//DTD SVG 20010904//EN"
              "http://www.w3.org/TR/2001/REC-SVG-20010904/DTD/svg10.dtd">

<svg xmlns="http://www.w3.org/2000/svg"
     width="43.6334in" height="36.3288in"
     viewBox="0 0 3142 2616">
  <path id="Andalucia"
        fill="Green" stroke="black" stroke-width="1"
        d="M 742.00,1963.73
           C 742.00,1963.73 752.00,1969.21 752.00,1969.21
             752.00,1969.21 759.57,1970.64 759.57,1970.64
             759.57,1970.64 763.72,1977.72 763.72,1977.72
             763.72,1977.72 777.00,1990.00 777.00,1990.00
             775.80,1992.06 766.02,2004.86 764.45,2006.14
             762.58,2007.68 759.37,2008.46 754.00,2013.18
             754.00,2013.18 736.82,2029.71 736.82,2029.71
             730.56,2035.32 723.78,2036.63 721.00,2049.00
             712.82,2051.40 703.10,2065.29 703.33,2074.00
             703.33,2074.00 706.62,2089.00 706.62,2089.00
             706.62,2089.00 705.83,2095.00 705.83,2095.00
             705.83,2095.00 707.91,2109.00 707.91,2109.00
             710.52,2117.02 714.73,2117.24 715.00,2127.00
             717.43,2127.00 721.47,2126.69 723.73,2127.99
             727.20,2130.32 728.43,2134.79 723.73,2137.14
             718.73,2139.85 714.31,2138.27 711.30,2140.17
             708.31,2142.06 708.71,2145.65 704.81,2146.70
             702.69,2147.27 695.35,2146.21 688.00,2148.00
             688.00,2148.00 689.00,2150.00 689.00,2150.00
             684.48,2151.65 683.31,2151.51 681.00,2156.00
             669.82,2156.91 673.27,2164.07 668.57,2168.18
             666.32,2170.15 662.43,2170.57 660.60,2172.56
             657.75,2175.65 660.31,2179.64 657.40,2183.72
             660.97,2178.71 641.10,2202.78 644.82,2198.83
             642.50,2201.29 639.31,2203.21 639.29,2207.00
             639.28,2209.82 641.54,2212.70 643.00,2214.76
             643.00,2214.76 633.00,2214.76 633.00,2214.76
             633.00,2214.76 625.00,2211.60 625.00,2211.60
             625.00,2211.60 617.00,2212.40 617.00,2212.40
             617.00,2212.40 607.00,2208.73 607.00,2208.73
             607.00,2208.73 597.00,2210.00 597.00,2210.00
             597.00,2210.00 599.00,2214.00 599.00,2214.00
             596.93,2215.16 592.64,2218.01 590.71,2218.57
             588.07,2219.32 586.06,2218.62 582.09,2220.57
             582.09,2220.57 571.17,2228.62 571.17,2228.62
             569.23,2229.99 565.91,2231.67 564.54,2233.30
             562.23,2236.03 561.59,2241.21 558.98,2245.72
             554.10,2254.12 542.52,2264.67 533.00,2267.00
             532.02,2264.75 530.62,2260.47 529.11,2258.84
             526.73,2256.26 512.77,2251.68 509.00,2251.00
             507.57,2255.84 502.65,2261.30 497.00,2260.37
             494.53,2259.96 487.00,2255.02 483.99,2253.50
             475.11,2249.03 468.93,2247.00 459.00,2246.64
             455.66,2246.82 449.95,2247.40 447.00,2246.64
             447.00,2246.64 436.83,2240.43 436.83,2240.43
             434.04,2239.43 431.97,2240.37 429.17,2238.99
             426.78,2237.80 425.96,2235.81 421.00,2234.06
             416.21,2232.37 407.36,2233.07 402.00,2233.00
             393.33,2232.88 390.07,2229.60 385.00,2229.26
             380.28,2228.95 375.80,2232.86 372.00,2235.33
             368.30,2237.73 360.40,2240.72 356.00,2240.53
             351.95,2240.36 348.01,2236.71 345.00,2236.09
             345.00,2236.09 334.00,2237.00 334.00,2237.00
             331.15,2237.02 324.37,2236.71 322.01,2237.60
             317.18,2239.43 308.35,2251.90 307.00,2257.00
             299.67,2252.97 301.79,2256.47 294.96,2261.13
             293.02,2262.46 289.29,2263.96 287.00,2265.00
             286.19,2255.15 280.69,2259.36 276.60,2253.86
             274.25,2250.69 275.64,2247.09 273.26,2244.59
             271.26,2242.50 268.03,2243.25 264.14,2239.66
             260.07,2235.90 257.13,2224.54 256.00,2219.00
             256.00,2219.00 263.00,2217.00 263.00,2217.00
             262.90,2208.65 262.27,2211.21 258.87,2205.69
             256.04,2201.09 256.92,2200.49 251.00,2199.00
             251.75,2196.70 252.48,2194.29 253.89,2192.29
             257.10,2187.74 266.54,2182.15 255.00,2179.00
             254.18,2176.35 252.63,2169.97 251.42,2168.09
             251.42,2168.09 247.96,2163.73 247.96,2163.73
             246.82,2161.96 246.65,2160.55 245.11,2158.76
             240.85,2153.77 232.37,2151.54 231.00,2141.00
             234.21,2139.07 234.21,2138.61 235.00,2135.00
             235.00,2135.00 229.00,2135.00 229.00,2135.00
             229.00,2135.00 229.00,2132.00 229.00,2132.00
             225.00,2132.88 224.31,2133.04 223.00,2137.00
             219.44,2136.23 215.99,2135.86 215.00,2132.00
             215.00,2132.00 199.00,2130.00 199.00,2130.00
             199.00,2130.00 202.79,2116.00 202.79,2116.00
             203.83,2108.64 201.36,2104.42 201.85,2102.00
             202.13,2100.64 210.20,2089.73 211.55,2088.60
             214.74,2085.93 217.92,2088.16 221.85,2084.69
             225.58,2081.39 224.39,2077.99 227.31,2075.80
             229.85,2074.31 243.04,2074.47 245.71,2075.80
             247.54,2076.33 248.63,2077.67 250.00,2079.00
             251.18,2073.82 254.62,2069.30 251.00,2065.00
             252.39,2058.97 256.77,2059.27 260.41,2063.53
             262.34,2065.80 261.79,2068.05 263.74,2070.82
             263.74,2070.82 269.00,2076.32 269.00,2076.32
             271.51,2080.23 269.98,2083.96 278.00,2083.58
             286.45,2083.17 281.70,2087.21 289.02,2092.30
             294.46,2096.09 311.37,2097.94 316.96,2094.26
             320.67,2091.82 321.52,2089.13 322.00,2085.00
             322.00,2085.00 327.00,2085.00 327.00,2085.00
             328.84,2093.63 336.82,2095.64 342.78,2089.77
             345.26,2087.33 348.74,2077.56 349.59,2074.00
             350.03,2072.17 349.87,2069.13 350.99,2067.74
             352.68,2065.66 355.75,2066.50 359.00,2065.00
             359.00,2065.00 364.00,2061.95 364.00,2061.95
             371.68,2057.88 373.77,2057.61 382.00,2056.93
             384.62,2056.58 387.40,2055.71 389.87,2056.93
             391.72,2058.03 395.12,2062.78 396.93,2064.72
             396.93,2064.72 402.26,2070.85 402.26,2070.85
             407.69,2076.57 409.01,2076.15 414.56,2084.00
             419.88,2091.52 423.34,2099.00 434.00,2095.00
             438.39,2098.50 452.42,2104.39 458.00,2103.78
             458.00,2103.78 465.00,2102.47 465.00,2102.47
             465.00,2102.47 473.00,2104.68 473.00,2104.68
             473.00,2104.68 478.00,2104.68 478.00,2104.68
             481.49,2105.12 482.74,2106.94 486.00,2107.69
             486.00,2107.69 497.00,2108.30 497.00,2108.30
             497.00,2108.30 503.00,2110.46 503.00,2110.46
             503.00,2110.46 516.00,2113.14 516.00,2113.14
             522.85,2114.49 531.58,2108.62 537.85,2113.14
             542.35,2116.15 540.29,2120.12 540.92,2124.00
             540.92,2124.00 543.08,2131.00 543.08,2131.00
             544.72,2142.01 530.93,2145.26 539.23,2153.85
             542.40,2157.14 546.92,2157.81 551.00,2155.83
             551.00,2155.83 563.91,2147.49 563.91,2147.49
             563.91,2147.49 568.28,2144.16 568.28,2144.16
             568.28,2144.16 584.00,2141.09 584.00,2141.09
             586.71,2140.88 592.55,2140.82 595.00,2141.74
             600.34,2143.74 603.33,2149.67 609.95,2145.26
             617.07,2140.52 614.17,2132.06 615.29,2128.22
             615.74,2126.70 622.13,2120.90 623.59,2119.99
             624.99,2119.12 636.12,2118.23 638.00,2118.44
             639.54,2118.62 640.60,2119.04 641.90,2119.89
             645.37,2122.20 648.59,2129.39 653.74,2125.39
             657.28,2122.64 654.70,2119.98 658.09,2114.00
             660.26,2110.17 661.35,2108.68 660.89,2104.00
             659.67,2091.58 645.58,2099.79 642.92,2089.96
             640.92,2082.56 654.83,2073.06 651.72,2066.10
             648.50,2058.88 630.54,2059.53 633.45,2048.04
             634.23,2044.93 641.27,2037.86 644.17,2036.58
             645.97,2035.79 648.54,2035.95 650.85,2034.26
             653.87,2032.06 653.65,2029.41 655.00,2027.37
             657.80,2023.18 660.35,2024.74 663.00,2017.00
             663.00,2017.00 673.00,2018.00 673.00,2018.00
             673.35,2022.36 676.38,2029.27 681.98,2028.18
             686.87,2027.22 687.48,2019.23 693.37,2015.08
             696.38,2012.96 700.74,2012.85 703.69,2009.73
             706.58,2006.66 705.50,2003.56 707.60,2002.06
             710.15,2000.24 714.94,2003.22 718.86,2000.98
             721.10,1999.70 722.00,1997.22 723.54,1995.28
             723.54,1995.28 727.32,1990.91 727.32,1990.91
             728.59,1988.81 728.50,1986.31 729.13,1984.00
             731.18,1976.35 733.44,1976.16 730.00,1968.00
             730.00,1968.00 742.00,1963.73 742.00,1963.73 Z" />
</svg>
