<?xml version="1.0" encoding="UTF-8" standalone="no"?>
<!DOCTYPE svg PUBLIC "-//W3C//DTD SVG 20010904//EN"
              "http://www.w3.org/TR/2001/REC-SVG-20010904/DTD/svg10.dtd">

<svg xmlns="http://www.w3.org/2000/svg"
     width="43.6334in" height="36.3288in"
     viewBox="0 0 3142 2616">
  <path id="Islands"
        fill="Orange" stroke="black" stroke-width="1"
        d="M 635.00,689.00
           C 635.00,689.00 641.00,687.00 641.00,687.00
             641.00,687.00 642.00,693.00 642.00,693.00
             648.94,690.40 650.04,690.74 657.00,693.00
             657.00,693.00 657.00,683.00 657.00,683.00
             667.39,683.04 663.22,684.71 671.00,687.00
             671.00,687.00 672.00,683.00 672.00,683.00
             672.00,683.00 677.00,691.00 677.00,691.00
             677.00,691.00 668.00,693.00 668.00,693.00
             674.30,697.58 673.82,697.79 678.00,704.00
             681.50,699.35 682.78,702.02 687.42,702.00
             687.42,702.00 697.00,701.00 697.00,701.00
             705.26,700.91 704.62,700.65 711.98,704.27
             713.28,704.91 715.11,705.54 716.01,706.72
             717.40,708.55 716.97,713.65 717.00,716.00
             717.13,725.86 722.50,735.54 725.00,745.00
             725.00,745.00 713.00,751.00 713.00,751.00
             713.00,751.00 713.00,757.00 713.00,757.00
             717.95,757.00 723.85,755.95 728.00,759.00
             726.65,759.10 725.33,759.10 724.02,759.51
             715.86,762.08 720.84,768.99 720.64,772.83
             720.53,774.84 719.36,775.97 719.00,781.00
             722.07,782.07 721.93,781.93 723.00,785.00
             713.96,784.89 714.16,782.55 711.00,782.69
             705.16,782.94 702.02,792.29 701.00,797.00
             701.00,797.00 693.00,795.00 693.00,795.00
             693.00,795.00 687.00,798.00 687.00,798.00
             687.00,798.00 688.00,801.00 688.00,801.00
             682.12,797.69 680.54,793.42 680.00,787.00
             669.48,791.74 672.02,783.64 670.36,778.00
             670.36,778.00 667.49,771.00 667.49,771.00
             666.02,765.52 668.54,760.82 659.99,755.93
             654.68,752.90 647.53,753.32 644.31,759.04
             642.79,761.74 643.07,764.56 641.26,766.01
             639.77,767.21 635.88,767.06 634.00,766.98
             629.56,766.80 628.56,766.00 625.00,763.45
             613.08,754.93 619.18,752.69 611.00,739.00
             611.00,739.00 616.00,737.00 616.00,737.00
             616.00,737.00 616.00,729.00 616.00,729.00
             616.00,729.00 607.00,728.00 607.00,728.00
             607.00,728.00 615.00,727.00 615.00,727.00
             614.74,718.75 613.01,716.13 605.00,719.00
             601.39,714.71 591.55,710.05 586.00,709.00
             586.00,709.00 586.00,707.00 586.00,707.00
             600.96,707.00 594.46,709.00 605.00,711.00
             605.00,711.00 603.00,703.00 603.00,703.00
             610.39,702.97 612.71,703.18 613.00,695.00
             613.00,695.00 607.00,695.00 607.00,695.00
             610.48,689.07 613.68,690.53 619.00,693.00
             619.00,693.00 619.00,683.00 619.00,683.00
             631.00,684.55 634.27,680.30 635.00,689.00 Z
           M 1593.00,777.28
           C 1595.84,777.83 1598.47,779.61 1601.00,781.00
             1598.64,786.90 1596.62,787.89 1597.05,795.00
             1597.33,799.54 1600.34,805.37 1598.40,809.86
             1597.12,812.83 1593.65,813.30 1591.00,814.56
             1586.57,816.67 1582.28,819.91 1581.28,825.00
             1580.36,829.62 1581.51,831.87 1585.05,834.66
             1587.25,836.39 1591.74,839.06 1590.37,842.57
             1589.26,845.43 1585.24,844.41 1580.00,846.68
             1573.00,849.72 1570.33,853.68 1569.00,861.00
             1569.00,861.00 1575.00,861.00 1575.00,861.00
             1573.40,865.58 1571.47,864.94 1567.00,865.00
             1565.63,860.25 1564.02,859.69 1563.29,856.83
             1562.64,854.29 1563.54,850.18 1560.57,847.60
             1558.24,845.57 1547.80,845.58 1544.00,844.74
             1538.51,843.54 1536.17,840.21 1533.00,836.00
             1539.21,830.03 1536.45,828.01 1535.26,821.00
             1534.59,817.07 1535.58,816.50 1533.00,813.00
             1533.00,813.00 1534.00,807.00 1534.00,807.00
             1542.51,806.09 1542.01,803.44 1546.32,800.50
             1548.70,798.88 1550.68,799.02 1552.27,797.41
             1554.70,794.94 1553.00,793.64 1557.00,791.00
             1557.00,791.00 1553.00,809.00 1553.00,809.00
             1553.00,809.00 1561.00,809.00 1561.00,809.00
             1564.93,816.66 1573.56,815.00 1580.91,815.00
             1580.91,815.00 1580.91,793.00 1580.91,793.00
             1580.91,793.00 1575.00,781.00 1575.00,781.00
             1581.23,780.19 1586.50,776.00 1593.00,777.28 Z
           M 1493.00,815.38
           C 1495.34,815.63 1497.05,816.84 1499.00,818.00
             1499.00,818.00 1496.91,823.98 1496.91,823.98
             1496.11,830.35 1505.05,829.00 1509.00,829.00
             1509.00,829.00 1511.00,835.00 1511.00,835.00
             1508.06,840.00 1512.33,840.77 1512.62,845.16
             1512.80,847.96 1510.18,851.29 1509.00,854.00
             1505.00,854.88 1504.31,855.04 1503.00,859.00
             1496.37,856.59 1492.20,855.07 1485.00,855.00
             1486.13,850.10 1488.14,846.66 1481.96,843.85
             1479.87,842.90 1477.34,843.09 1476.02,841.40
             1474.73,839.75 1475.12,836.14 1474.74,834.00
             1474.74,834.00 1471.00,823.00 1471.00,823.00
             1475.38,820.83 1488.51,814.89 1493.00,815.38 Z
           M 1366.55,1897.00
           C 1367.47,1900.56 1369.59,1902.99 1369.51,1906.00
             1369.40,1909.66 1366.18,1912.22 1366.29,1917.00
             1366.38,1921.30 1369.36,1925.14 1368.80,1931.00
             1368.47,1934.48 1366.49,1940.07 1364.35,1942.83
             1360.90,1947.31 1352.91,1951.33 1353.99,1961.00
             1354.68,1967.19 1358.11,1972.32 1349.00,1978.00
             1349.79,1983.73 1347.76,1986.15 1345.00,1991.00
             1345.00,1991.00 1327.00,1980.00 1327.00,1980.00
             1327.66,1977.17 1329.97,1972.77 1328.91,1970.27
             1327.96,1968.02 1324.72,1966.95 1323.98,1963.82
             1322.89,1960.76 1324.80,1958.25 1323.98,1955.00
             1323.36,1950.82 1319.56,1948.71 1319.23,1945.83
             1318.84,1942.59 1322.71,1939.13 1321.26,1934.00
             1320.49,1931.27 1318.09,1928.71 1317.72,1926.00
             1317.31,1922.99 1319.26,1920.96 1319.12,1918.00
             1318.96,1914.46 1316.05,1912.34 1318.39,1908.66
             1319.78,1906.47 1327.76,1898.67 1330.04,1897.73
             1330.04,1897.73 1341.00,1895.40 1341.00,1895.40
             1341.00,1895.40 1350.99,1890.80 1350.99,1890.80
             1354.41,1889.59 1356.06,1891.21 1358.17,1890.80
             1360.89,1890.78 1363.01,1888.65 1365.00,1887.00
             1366.54,1890.88 1365.59,1893.24 1366.55,1897.00 Z
           M 1292.00,2044.26
           C 1295.26,2045.20 1297.76,2044.78 1301.00,2044.26
             1312.50,2042.35 1318.31,2036.96 1327.00,2029.68
             1335.99,2022.14 1339.10,2010.62 1352.90,2017.65
             1356.23,2019.34 1361.34,2026.26 1361.45,2030.00
             1361.94,2032.97 1360.23,2035.22 1361.45,2038.00
             1362.26,2040.88 1365.76,2043.08 1367.57,2047.00
             1369.35,2050.85 1368.76,2055.73 1369.67,2060.00
             1369.67,2060.00 1374.37,2074.00 1374.37,2074.00
             1374.74,2076.75 1373.91,2078.48 1373.07,2081.00
             1370.45,2088.91 1367.07,2094.95 1358.00,2096.00
             1358.00,2096.00 1362.91,2118.00 1362.91,2118.00
             1362.91,2118.00 1358.34,2147.00 1358.34,2147.00
             1358.34,2147.00 1355.13,2161.00 1355.13,2161.00
             1355.13,2161.00 1351.83,2178.00 1351.83,2178.00
             1351.83,2178.00 1348.61,2183.30 1348.61,2183.30
             1348.61,2183.30 1341.00,2181.48 1341.00,2181.48
             1341.00,2181.48 1334.00,2180.51 1334.00,2180.51
             1334.00,2180.51 1319.00,2175.00 1319.00,2175.00
             1316.88,2180.71 1314.37,2180.71 1312.74,2185.00
             1311.17,2189.12 1312.59,2198.07 1308.35,2201.09
             1306.37,2202.36 1303.25,2201.34 1301.00,2201.09
             1297.92,2200.97 1295.03,2201.60 1292.00,2202.00
             1290.96,2197.44 1289.55,2192.74 1286.47,2189.11
             1281.71,2183.48 1278.90,2186.13 1277.00,2176.00
             1285.17,2168.80 1281.71,2164.62 1283.43,2158.00
             1284.27,2154.73 1286.25,2152.93 1287.28,2150.00
             1288.45,2146.66 1287.52,2144.14 1289.18,2140.28
             1291.58,2134.70 1294.47,2132.57 1294.12,2125.42
             1293.87,2120.12 1289.80,2117.56 1289.74,2114.00
             1289.68,2110.51 1293.35,2108.33 1294.24,2104.00
             1295.02,2101.41 1294.28,2098.62 1294.24,2096.00
             1294.24,2096.00 1292.47,2077.00 1292.47,2077.00
             1291.17,2071.23 1287.76,2063.35 1283.41,2059.30
             1279.89,2056.02 1274.90,2055.89 1274.74,2051.90
             1274.66,2049.81 1280.57,2040.50 1282.00,2038.00
             1285.22,2040.27 1288.13,2043.19 1292.00,2044.26 Z
           M 1009.00,2076.10
           C 1010.56,2077.54 1013.08,2080.04 1013.88,2082.00
             1014.90,2084.51 1013.31,2089.02 1013.00,2092.00
             1004.93,2090.69 1005.67,2086.65 999.96,2082.70
             995.26,2079.45 990.27,2079.72 985.00,2081.00
             985.00,2081.00 983.00,2071.00 983.00,2071.00
             992.95,2067.18 1001.02,2068.77 1009.00,2076.10 Z
           M 1369.00,2070.00
           C 1369.00,2070.00 1370.00,2071.00 1370.00,2071.00
             1370.00,2071.00 1370.00,2070.00 1370.00,2070.00
             1370.00,2070.00 1369.00,2070.00 1369.00,2070.00 Z
           M 900.00,2099.07
           C 896.74,2099.58 894.32,2101.67 891.00,2100.47
             888.48,2099.55 884.99,2097.06 886.17,2093.98
             887.58,2090.28 891.86,2089.04 895.00,2087.45
             895.00,2087.45 908.89,2079.04 908.89,2079.04
             912.63,2076.32 912.56,2073.82 915.27,2072.77
             918.20,2071.28 924.79,2072.34 928.00,2072.77
             928.00,2072.77 942.00,2072.77 942.00,2072.77
             941.12,2082.69 936.06,2085.27 937.99,2088.67
             941.00,2093.98 953.12,2082.34 954.78,2092.05
             954.78,2092.05 954.78,2095.00 954.78,2095.00
             954.67,2096.34 954.34,2097.74 953.86,2099.00
             951.54,2105.11 947.67,2106.81 945.41,2109.37
             941.22,2114.13 944.68,2115.67 936.00,2121.03
             934.16,2122.16 932.18,2123.38 930.00,2123.68
             924.30,2124.48 922.99,2119.99 919.79,2118.17
             916.87,2116.50 913.21,2117.30 910.31,2114.99
             908.03,2113.18 906.33,2102.22 906.00,2099.07
             906.00,2099.07 900.00,2099.07 900.00,2099.07 Z
           M 808.09,2124.60
           C 810.57,2123.62 822.55,2124.00 826.00,2124.00
             825.32,2132.51 821.51,2134.54 815.00,2138.59
             813.03,2139.81 811.40,2141.23 809.00,2141.51
             806.72,2141.77 800.74,2139.63 798.00,2139.00
             799.11,2133.80 802.84,2126.67 808.09,2124.60 Z
           M 2944.00,2407.97
           C 2954.15,2411.66 2952.95,2395.11 2957.61,2392.00
             2961.28,2389.54 2969.38,2394.33 2974.78,2390.26
             2981.10,2385.50 2976.01,2374.42 2978.99,2370.74
             2981.54,2367.59 2990.44,2369.56 2994.00,2369.82
             3003.98,2370.53 3012.33,2366.32 3021.00,2362.25
             3024.85,2360.44 3026.93,2360.66 3030.91,2357.89
             3030.91,2357.89 3039.01,2351.09 3039.01,2351.09
             3039.01,2351.09 3053.69,2341.61 3053.69,2341.61
             3056.85,2338.36 3055.90,2334.70 3058.70,2331.39
             3061.29,2328.32 3066.51,2327.11 3069.99,2324.51
             3075.31,2320.53 3075.01,2317.07 3082.00,2315.00
             3078.09,2320.49 3075.32,2321.05 3076.00,2328.00
             3069.36,2333.41 3071.87,2334.11 3067.75,2338.12
             3067.75,2338.12 3057.74,2346.37 3057.74,2346.37
             3055.72,2349.01 3056.40,2351.42 3054.99,2353.59
             3052.11,2358.01 3050.42,2353.99 3048.53,2364.00
             3048.38,2365.59 3047.86,2367.32 3048.53,2368.91
             3050.14,2374.07 3061.14,2378.31 3066.00,2380.00
             3066.00,2380.00 3066.00,2382.00 3066.00,2382.00
             3057.83,2386.52 3047.39,2390.54 3038.00,2391.00
             3037.55,2394.44 3037.16,2402.23 3035.41,2404.71
             3030.65,2411.44 3019.21,2418.08 3012.00,2422.06
             3008.85,2423.80 3002.57,2425.68 3000.61,2428.27
             2998.68,2430.84 2999.92,2433.51 2999.00,2438.00
             2990.45,2435.72 2992.60,2431.13 2986.00,2431.11
             2982.01,2431.11 2980.20,2433.28 2977.00,2434.51
             2974.04,2435.64 2958.80,2435.60 2956.31,2433.98
             2954.21,2432.61 2954.08,2430.31 2952.42,2428.21
             2952.42,2428.21 2946.60,2422.79 2946.60,2422.79
             2944.69,2420.20 2945.15,2416.90 2943.99,2414.00
             2943.99,2414.00 2939.00,2405.00 2939.00,2405.00
             2939.00,2405.00 2944.00,2407.97 2944.00,2407.97 Z
           M 2353.00,2481.00
           C 2356.07,2481.04 2363.31,2480.73 2365.87,2481.57
             2370.58,2483.11 2371.53,2490.65 2379.00,2490.42
             2387.77,2490.14 2396.35,2483.09 2404.00,2480.27
             2408.11,2478.75 2411.69,2478.93 2416.00,2479.00
             2424.53,2479.14 2424.06,2481.67 2430.00,2482.87
             2430.00,2482.87 2451.00,2482.87 2451.00,2482.87
             2451.00,2482.87 2461.00,2483.53 2461.00,2483.53
             2464.91,2482.46 2474.19,2470.87 2474.99,2483.00
             2474.99,2483.00 2474.99,2487.00 2474.99,2487.00
             2474.99,2487.00 2474.99,2495.00 2474.99,2495.00
             2478.49,2495.00 2481.78,2495.30 2485.00,2493.69
             2488.61,2491.88 2493.23,2486.88 2498.00,2485.51
             2504.18,2483.73 2507.79,2487.57 2512.00,2481.00
             2518.91,2487.48 2513.47,2491.56 2509.00,2497.00
             2493.86,2492.29 2494.64,2497.54 2481.00,2500.55
             2481.00,2500.55 2466.00,2503.08 2466.00,2503.08
             2466.00,2503.08 2457.00,2503.08 2457.00,2503.08
             2451.78,2504.18 2452.75,2505.62 2445.00,2506.00
             2445.00,2506.00 2445.00,2511.00 2445.00,2511.00
             2438.00,2511.34 2429.56,2513.57 2423.00,2516.00
             2423.00,2516.00 2422.00,2513.00 2422.00,2513.00
             2422.00,2513.00 2413.00,2517.00 2413.00,2517.00
             2413.00,2517.00 2413.00,2502.81 2413.00,2502.81
             2413.00,2502.81 2399.00,2502.81 2399.00,2502.81
             2399.00,2502.81 2382.00,2498.21 2382.00,2498.21
             2376.32,2497.71 2376.40,2500.74 2369.00,2500.98
             2361.35,2501.23 2353.59,2498.43 2346.00,2497.61
             2337.43,2496.69 2327.61,2506.41 2324.55,2495.98
             2324.55,2495.98 2323.60,2492.00 2323.60,2492.00
             2323.23,2488.92 2324.33,2485.97 2325.00,2483.00
             2331.74,2484.16 2331.88,2482.43 2335.00,2477.00
             2339.60,2478.95 2348.00,2480.93 2353.00,2481.00 Z" />
</svg>
