<?xml version="1.0" encoding="UTF-8" standalone="no"?>
<!DOCTYPE svg PUBLIC "-//W3C//DTD SVG 20010904//EN"
              "http://www.w3.org/TR/2001/REC-SVG-20010904/DTD/svg10.dtd">

<svg xmlns="http://www.w3.org/2000/svg"
     width="43.6334in" height="36.3288in"
     viewBox="0 0 3142 2616">
  <path id="Albania.svg"
        fill="Green" stroke="black" stroke-width="1"
        d="M 2041.00,1923.00
           C 2055.88,1923.00 2049.56,1924.62 2061.00,1929.00
             2061.00,1929.00 2064.31,1944.00 2064.31,1944.00
             2064.31,1944.00 2063.00,1955.00 2063.00,1955.00
             2067.71,1954.02 2068.06,1954.25 2072.00,1957.00
             2072.00,1957.00 2071.00,1953.00 2071.00,1953.00
             2071.00,1953.00 2077.00,1953.00 2077.00,1953.00
             2077.00,1953.00 2079.00,1943.00 2079.00,1943.00
             2084.66,1942.09 2087.94,1938.55 2091.96,1934.66
             2093.58,1933.09 2095.85,1930.21 2098.08,1929.73
             2101.46,1929.00 2103.22,1932.38 2106.09,1933.16
             2110.71,1934.41 2115.79,1928.38 2119.17,1925.82
             2122.97,1922.96 2124.44,1923.03 2129.00,1923.00
             2140.13,1922.92 2137.08,1921.70 2143.00,1921.13
             2148.47,1920.61 2150.48,1923.03 2154.00,1922.02
             2156.62,1921.27 2158.93,1918.64 2162.00,1917.58
             2167.58,1915.66 2168.09,1919.17 2174.00,1912.00
             2180.35,1915.93 2184.02,1922.80 2190.00,1927.66
             2195.40,1932.05 2202.27,1933.80 2209.00,1935.00
             2210.75,1943.17 2212.60,1948.62 2220.00,1953.00
             2217.42,1963.47 2218.11,1974.45 2220.00,1985.00
             2214.55,1985.07 2206.50,1986.60 2207.32,1993.92
             2207.50,1995.59 2208.43,1997.42 2209.00,1999.00
             2199.82,2002.70 2205.84,2004.98 2194.00,2005.00
             2184.70,2005.02 2166.55,2003.06 2159.57,2009.94
             2156.00,2013.46 2157.95,2016.44 2155.40,2019.53
             2152.46,2023.11 2150.88,2021.19 2149.00,2027.00
             2149.00,2027.00 2139.91,2030.87 2139.91,2030.87
             2139.91,2030.87 2129.00,2030.09 2129.00,2030.09
             2129.00,2030.09 2123.00,2032.49 2123.00,2032.49
             2123.00,2032.49 2115.00,2033.64 2115.00,2033.64
             2115.00,2033.64 2107.00,2036.47 2107.00,2036.47
             2107.00,2036.47 2096.00,2032.00 2096.00,2032.00
             2096.00,2032.00 2098.95,2049.93 2098.95,2049.93
             2100.50,2054.40 2103.37,2057.93 2102.73,2063.00
             2102.73,2063.00 2101.00,2071.00 2101.00,2071.00
             2097.65,2071.43 2090.86,2073.00 2088.60,2075.57
             2086.39,2078.09 2087.32,2081.51 2086.74,2085.00
             2085.62,2091.86 2083.07,2097.90 2083.00,2105.00
             2077.04,2106.57 2067.87,2109.31 2063.38,2113.48
             2061.50,2115.22 2059.08,2118.12 2059.64,2120.87
             2060.33,2124.26 2064.25,2125.63 2067.00,2131.00
             2058.29,2131.64 2059.01,2135.64 2059.00,2143.00
             2059.00,2143.00 2047.00,2139.00 2047.00,2139.00
             2047.00,2136.50 2047.17,2132.29 2046.49,2130.00
             2044.83,2124.37 2033.16,2112.01 2028.00,2109.39
             2028.00,2109.39 2014.32,2104.77 2014.32,2104.77
             2014.32,2104.77 2004.00,2097.00 2004.00,2097.00
             2004.00,2097.00 2004.00,2095.00 2004.00,2095.00
             2011.21,2090.42 2009.15,2086.69 2007.43,2079.72
             2006.89,2077.54 2007.09,2075.18 2005.98,2073.17
             2004.08,2069.74 2000.01,2068.53 2000.02,2064.00
             2000.03,2061.90 2002.96,2050.95 2004.00,2049.04
             2005.92,2045.49 2009.25,2044.42 2008.30,2039.99
             2007.65,2036.97 2004.73,2033.75 2004.47,2029.00
             2004.20,2023.93 2007.10,2020.17 2006.74,2016.00
             2006.35,2011.65 2003.52,2009.96 2003.13,2005.93
             2002.68,2001.15 2005.63,1998.45 2006.03,1995.71
             2006.39,1993.26 2004.83,1990.35 2004.00,1988.00
             2004.00,1988.00 2012.00,1987.00 2012.00,1987.00
             2012.00,1987.00 2009.21,1976.00 2009.21,1976.00
             2008.79,1973.07 2009.47,1968.76 2007.98,1966.34
             2006.13,1963.33 1998.37,1960.15 1995.08,1959.00
             1995.77,1953.14 1996.62,1950.03 1995.08,1944.00
             1993.98,1939.16 1991.33,1936.29 1991.49,1933.00
             1991.64,1929.69 1994.18,1927.28 1995.74,1924.58
             1995.74,1924.58 1998.28,1919.00 1998.28,1919.00
             2001.04,1913.82 2005.28,1909.39 2010.00,1906.00
             2010.78,1908.47 2011.80,1912.63 2014.34,1913.85
             2018.73,1915.95 2029.88,1907.83 2033.00,1905.00
             2038.56,1909.52 2040.53,1916.00 2041.00,1923.00 Z
           M 2070.00,2020.00
           C 2070.00,2020.00 2071.00,2021.00 2071.00,2021.00
             2071.00,2021.00 2071.00,2020.00 2071.00,2020.00
             2071.00,2020.00 2070.00,2020.00 2070.00,2020.00 Z" />
</svg>
