<?xml version="1.0" encoding="UTF-8" standalone="no"?>
<!DOCTYPE svg PUBLIC "-//W3C//DTD SVG 20010904//EN"
              "http://www.w3.org/TR/2001/REC-SVG-20010904/DTD/svg10.dtd">

<svg xmlns="http://www.w3.org/2000/svg"
     width="43.6334in" height="36.3288in"
     viewBox="0 0 3142 2616">
  <path id="Bohemia"
        fill="Green" stroke="black" stroke-width="1"
        d="M 1689.00,1205.00
           C 1689.04,1214.99 1689.71,1213.13 1696.83,1217.66
             1698.59,1218.78 1699.90,1220.27 1702.09,1220.56
             1703.88,1220.80 1707.94,1219.44 1710.00,1219.00
             1710.00,1219.00 1712.00,1209.00 1712.00,1209.00
             1715.13,1208.74 1720.08,1206.55 1722.69,1207.64
             1724.78,1208.50 1725.50,1211.54 1726.63,1213.42
             1730.44,1219.78 1732.71,1218.67 1733.00,1227.00
             1733.00,1227.00 1743.00,1227.00 1743.00,1227.00
             1743.00,1227.00 1743.00,1231.00 1743.00,1231.00
             1743.00,1231.00 1749.00,1232.00 1749.00,1232.00
             1751.84,1225.18 1760.88,1232.29 1763.54,1236.00
             1764.53,1237.38 1765.47,1239.11 1767.19,1239.70
             1769.58,1240.53 1772.93,1238.13 1775.00,1237.00
             1778.80,1242.40 1779.80,1236.19 1787.00,1235.00
             1786.47,1242.33 1783.00,1245.28 1776.00,1247.00
             1776.00,1247.00 1781.00,1261.00 1781.00,1261.00
             1781.00,1261.00 1787.00,1260.00 1787.00,1260.00
             1787.00,1260.00 1794.00,1267.00 1794.00,1267.00
             1793.65,1274.33 1796.02,1275.95 1801.91,1279.56
             1804.06,1280.87 1806.33,1282.94 1809.00,1281.85
             1814.00,1279.80 1815.22,1271.42 1821.04,1271.35
             1822.92,1271.33 1825.25,1272.35 1827.00,1273.00
             1827.00,1263.41 1827.71,1263.01 1822.00,1255.00
             1831.32,1256.30 1834.89,1264.02 1842.00,1266.21
             1848.15,1268.48 1850.79,1263.64 1857.00,1266.21
             1857.00,1266.21 1851.00,1267.00 1851.00,1267.00
             1852.90,1275.45 1857.09,1279.49 1863.72,1284.65
             1865.59,1286.11 1867.66,1287.89 1870.01,1288.45
             1873.29,1289.23 1875.82,1287.57 1879.00,1287.22
             1886.61,1286.39 1889.25,1291.56 1895.00,1295.00
             1896.70,1291.65 1897.35,1291.52 1901.00,1291.00
             1901.63,1294.76 1901.65,1295.11 1905.00,1297.00
             1905.73,1306.96 1911.90,1306.09 1917.13,1312.04
             1919.04,1314.22 1919.30,1317.28 1920.00,1319.99
             1920.00,1319.99 1912.00,1319.99 1912.00,1319.99
             1905.51,1321.91 1899.47,1330.45 1899.00,1337.00
             1889.55,1338.33 1892.58,1342.46 1884.00,1345.00
             1884.00,1345.00 1881.00,1361.00 1881.00,1361.00
             1871.36,1362.56 1867.86,1375.89 1859.00,1378.78
             1855.08,1380.24 1842.83,1378.11 1838.00,1378.78
             1833.53,1379.14 1830.35,1381.74 1827.51,1385.03
             1825.69,1387.16 1824.16,1390.22 1820.96,1390.22
             1817.84,1390.21 1805.57,1382.41 1799.00,1383.16
             1795.47,1383.57 1793.21,1386.25 1789.91,1387.31
             1779.07,1390.78 1768.67,1388.29 1764.00,1377.00
             1764.00,1377.00 1753.00,1381.00 1753.00,1381.00
             1751.82,1379.57 1751.46,1378.93 1749.89,1377.76
             1748.59,1376.81 1735.26,1370.19 1734.00,1369.98
             1730.65,1369.43 1729.00,1371.48 1726.00,1370.56
             1721.84,1369.28 1718.86,1362.61 1713.57,1367.87
             1708.15,1373.25 1713.74,1380.50 1710.82,1384.44
             1709.43,1386.32 1706.81,1386.10 1704.02,1387.85
             1699.39,1390.76 1697.37,1395.78 1697.00,1401.00
             1689.36,1397.35 1683.75,1394.46 1679.00,1404.00
             1679.00,1404.00 1665.00,1402.00 1665.00,1402.00
             1664.61,1390.93 1657.65,1393.07 1652.57,1387.24
             1650.58,1384.95 1651.40,1383.13 1649.44,1380.09
             1644.65,1372.63 1637.59,1369.03 1629.00,1369.00
             1628.26,1358.67 1620.80,1357.42 1613.52,1349.16
             1611.23,1346.58 1606.61,1339.70 1604.48,1338.31
             1601.26,1336.20 1596.62,1337.80 1592.60,1332.56
             1590.33,1329.60 1591.73,1327.81 1589.18,1322.09
             1587.19,1317.62 1579.80,1310.82 1580.07,1307.00
             1580.39,1302.61 1586.78,1296.66 1584.82,1291.00
             1582.14,1283.28 1573.38,1280.01 1568.00,1275.00
             1575.74,1273.06 1574.99,1269.94 1575.00,1263.00
             1580.17,1261.21 1582.53,1260.06 1585.00,1254.90
             1585.00,1254.90 1592.00,1254.90 1592.00,1254.90
             1592.00,1254.90 1597.00,1253.89 1597.00,1253.89
             1597.00,1253.89 1604.00,1255.23 1604.00,1255.23
             1604.00,1255.23 1613.00,1253.00 1613.00,1253.00
             1613.00,1253.00 1613.00,1249.00 1613.00,1249.00
             1621.05,1248.74 1624.39,1245.31 1629.00,1239.00
             1636.79,1239.28 1635.15,1234.96 1640.04,1232.68
             1640.04,1232.68 1643.29,1231.77 1643.29,1231.77
             1653.41,1228.37 1650.09,1229.00 1661.00,1229.00
             1661.12,1227.51 1661.05,1225.86 1662.02,1224.59
             1664.13,1221.86 1669.32,1221.54 1672.00,1223.00
             1672.00,1223.00 1679.17,1217.92 1679.17,1217.92
             1684.49,1214.95 1688.58,1215.66 1686.00,1205.00
             1686.00,1205.00 1689.00,1205.00 1689.00,1205.00 Z" />
</svg>
