<?xml version="1.0" encoding="UTF-8" standalone="no"?>
<!DOCTYPE svg PUBLIC "-//W3C//DTD SVG 20010904//EN"
              "http://www.w3.org/TR/2001/REC-SVG-20010904/DTD/svg10.dtd">

<svg xmlns="http://www.w3.org/2000/svg"
     width="43.6334in" height="36.3288in"
     viewBox="0 0 3142 2616">
  <path id="Hungary"
        fill="Green" stroke="black" stroke-width="1"
        d="M 1974.00,1333.00
           C 1974.38,1335.84 1974.92,1344.87 1976.60,1346.56
             1978.94,1348.92 1981.71,1346.87 1985.99,1347.07
             1991.33,1347.33 1992.64,1351.04 1995.62,1349.75
             1999.70,1347.99 2000.95,1338.86 2001.00,1335.00
             2001.00,1335.00 2022.00,1329.33 2022.00,1329.33
             2030.16,1329.13 2039.31,1340.28 2048.69,1331.24
             2050.36,1329.62 2050.34,1329.04 2051.00,1327.00
             2051.00,1327.00 2057.00,1321.00 2057.00,1321.00
             2060.46,1322.24 2063.19,1323.97 2067.00,1323.49
             2069.98,1323.11 2072.97,1321.37 2075.96,1321.97
             2079.86,1322.74 2081.98,1326.73 2086.00,1327.87
             2088.42,1328.16 2090.56,1327.03 2092.59,1327.87
             2094.97,1329.39 2095.14,1332.71 2100.32,1336.63
             2106.56,1341.36 2119.21,1344.91 2127.00,1345.00
             2124.80,1349.19 2123.07,1352.38 2121.72,1357.00
             2119.16,1365.74 2119.38,1379.88 2109.00,1383.00
             2109.00,1383.00 2109.00,1399.00 2109.00,1399.00
             2099.50,1400.36 2104.63,1405.55 2107.10,1405.95
             2109.39,1406.31 2114.80,1403.95 2117.00,1403.00
             2118.89,1406.81 2119.91,1409.14 2123.44,1411.81
             2130.24,1416.96 2137.60,1417.00 2139.00,1427.00
             2141.74,1427.00 2149.47,1426.53 2151.48,1428.02
             2155.26,1430.82 2150.88,1442.81 2147.85,1445.13
             2143.49,1448.46 2128.65,1450.98 2123.00,1451.00
             2121.76,1457.99 2120.66,1463.14 2116.11,1468.78
             2113.67,1471.80 2110.92,1472.06 2109.60,1475.19
             2107.05,1481.20 2112.69,1486.87 2103.00,1489.00
             2103.00,1499.23 2106.12,1512.49 2093.00,1515.00
             2093.00,1515.00 2095.00,1521.00 2095.00,1521.00
             2095.00,1521.00 2095.00,1523.00 2095.00,1523.00
             2095.00,1523.00 2091.00,1533.00 2091.00,1533.00
             2082.88,1536.27 2083.17,1543.15 2083.00,1551.00
             2083.00,1551.00 2077.00,1551.00 2077.00,1551.00
             2077.00,1551.00 2071.00,1581.00 2071.00,1581.00
             2060.68,1581.01 2048.01,1583.43 2045.00,1594.95
             2035.62,1591.04 2035.73,1594.18 2028.00,1594.95
             2021.46,1595.50 2018.08,1593.81 2016.01,1593.96
             2013.22,1594.16 2011.89,1595.98 2009.72,1596.15
             2007.40,1596.84 2005.60,1595.56 2003.00,1596.15
             2003.00,1596.15 1997.00,1597.88 1997.00,1597.88
             1992.69,1598.35 1989.51,1592.62 1981.04,1596.13
             1975.13,1598.58 1975.73,1601.64 1973.28,1604.45
             1970.59,1607.53 1969.41,1606.56 1967.00,1611.00
             1963.72,1611.00 1959.00,1610.70 1956.00,1611.84
             1951.94,1613.38 1949.00,1617.06 1943.00,1619.05
             1937.16,1620.98 1935.29,1618.18 1932.55,1619.82
             1932.55,1619.82 1928.63,1624.65 1928.63,1624.65
             1925.77,1627.85 1920.01,1633.30 1916.00,1634.49
             1909.69,1636.37 1901.98,1632.30 1895.00,1632.34
             1890.03,1632.37 1887.19,1634.68 1885.09,1634.18
             1883.50,1633.80 1882.34,1631.99 1880.74,1631.08
             1878.13,1629.82 1875.72,1630.54 1873.00,1631.08
             1872.27,1620.75 1863.85,1617.27 1855.00,1621.00
             1850.64,1614.46 1847.23,1611.22 1847.00,1603.00
             1836.04,1602.96 1827.32,1599.31 1827.00,1587.00
             1812.94,1586.82 1819.87,1579.34 1805.00,1575.00
             1804.77,1567.69 1803.20,1560.33 1795.00,1559.00
             1795.00,1559.00 1796.27,1551.00 1796.27,1551.00
             1796.27,1551.00 1789.00,1541.00 1789.00,1541.00
             1789.00,1541.00 1805.00,1541.00 1805.00,1541.00
             1805.00,1541.00 1803.68,1533.72 1803.68,1533.72
             1803.68,1533.72 1805.30,1526.00 1805.30,1526.00
             1805.30,1526.00 1803.00,1518.00 1803.00,1518.00
             1806.24,1513.71 1804.36,1511.77 1803.00,1507.00
             1808.47,1505.96 1814.73,1501.64 1816.15,1495.91
             1817.14,1491.96 1813.38,1484.30 1809.90,1482.31
             1807.88,1481.16 1806.22,1481.16 1804.00,1481.00
             1804.00,1481.00 1806.00,1477.00 1806.00,1477.00
             1806.00,1477.00 1820.58,1483.81 1820.58,1483.81
             1820.58,1483.81 1835.00,1481.00 1835.00,1481.00
             1835.00,1468.09 1836.28,1471.18 1836.78,1465.00
             1837.40,1457.22 1833.07,1451.41 1842.00,1446.00
             1842.00,1446.00 1828.51,1436.69 1828.51,1436.69
             1828.51,1436.69 1826.57,1429.17 1826.57,1429.17
             1825.17,1424.60 1822.15,1420.12 1823.31,1415.04
             1824.01,1411.97 1825.70,1412.20 1828.00,1403.00
             1830.32,1393.71 1830.77,1387.07 1842.00,1386.98
             1842.00,1386.98 1849.00,1386.98 1849.00,1386.98
             1854.49,1388.14 1854.26,1389.81 1860.00,1386.98
             1860.00,1386.98 1876.00,1374.94 1876.00,1374.94
             1881.03,1370.32 1883.03,1366.73 1890.00,1365.00
             1889.34,1359.52 1890.08,1352.91 1893.82,1348.47
             1895.75,1346.17 1898.54,1345.53 1902.82,1340.96
             1906.30,1337.25 1910.31,1331.37 1913.00,1327.00
             1913.00,1327.00 1927.00,1327.00 1927.00,1327.00
             1927.14,1328.67 1927.08,1330.16 1928.02,1331.66
             1930.62,1335.79 1941.18,1336.11 1944.79,1333.40
             1948.23,1330.83 1948.78,1326.94 1949.00,1323.00
             1953.41,1322.42 1955.60,1321.93 1958.00,1318.00
             1964.54,1324.95 1961.23,1331.64 1974.00,1333.00 Z" />
</svg>
