<?xml version="1.0" encoding="UTF-8" standalone="no"?>
<!DOCTYPE svg PUBLIC "-//W3C//DTD SVG 20010904//EN"
              "http://www.w3.org/TR/2001/REC-SVG-20010904/DTD/svg10.dtd">

<svg xmlns="http://www.w3.org/2000/svg"
     width="5.55486in" height="5.55486in"
     viewBox="0 0 400 400">
  <path id="Selection"
        fill="green" stroke="black" stroke-width="1"
        d="M 188.96,38.85
           C 193.40,38.44 194.17,35.52 197.18,33.98
             201.34,31.85 208.39,32.04 211.19,36.33
             214.56,41.48 210.35,44.64 206.00,46.75
             198.18,50.54 190.78,55.74 195.80,65.68
             197.90,69.84 201.84,71.78 205.44,74.23
             215.70,81.20 223.11,85.60 235.00,89.56
             235.00,89.56 250.00,95.99 250.00,95.99
             250.00,95.99 268.83,102.01 268.83,102.01
             271.15,103.30 272.21,105.36 276.01,107.41
             276.01,107.41 286.45,111.72 286.45,111.72
             289.42,113.71 289.55,117.09 292.48,119.36
             292.48,119.36 296.75,121.48 296.75,121.48
             299.18,122.80 299.75,124.30 302.13,125.12
             304.42,125.90 306.30,124.94 312.00,127.71
             319.72,131.47 323.98,136.97 333.00,139.00
             333.61,147.38 337.08,146.87 343.42,150.08
             345.81,151.28 348.24,153.02 350.27,154.76
             358.08,161.45 362.99,170.69 367.00,180.00
             365.15,181.00 363.56,181.71 362.31,183.53
             359.77,187.22 359.00,198.40 359.00,203.00
             351.90,202.09 341.90,196.87 339.48,189.72
             338.50,186.78 339.77,184.94 337.58,179.00
             335.54,173.48 331.76,168.88 331.00,163.00
             331.00,163.00 304.00,161.17 304.00,161.17
             301.27,160.91 294.24,161.30 292.34,160.43
             289.07,158.92 289.42,155.34 288.42,153.19
             286.87,149.85 279.74,144.96 276.00,145.32
             272.09,145.70 265.23,149.98 263.00,153.18
             263.00,153.18 259.87,159.45 259.87,159.45
             258.19,161.53 256.46,160.79 253.09,165.06
             249.21,169.99 249.23,173.83 246.75,178.96
             244.88,182.82 242.54,184.23 241.60,187.04
             240.60,189.99 241.88,193.07 240.88,196.83
             239.51,202.00 231.89,208.29 236.44,218.96
             240.29,228.01 253.94,228.52 256.83,229.98
             256.83,229.98 269.00,238.42 269.00,238.42
             271.44,239.78 276.65,241.89 277.88,244.34
             278.85,246.27 276.39,256.09 276.00,259.00
             276.00,259.00 279.06,259.00 279.06,259.00
             279.06,259.00 279.06,272.96 279.06,272.96
             279.06,272.96 281.00,281.00 281.00,281.00
             272.96,281.00 267.46,280.04 260.00,283.71
             252.74,287.29 249.12,293.01 241.06,295.00
             241.06,295.00 241.06,304.00 241.06,304.00
             241.85,310.44 243.18,307.04 243.00,319.00
             242.78,333.25 223.90,338.13 216.74,348.29
             212.87,353.77 217.31,361.84 211.84,367.23
             208.73,370.13 206.03,367.22 202.00,367.23
             202.00,367.23 194.09,368.76 194.09,368.76
             187.19,368.34 186.91,360.08 187.00,355.00
             187.16,346.20 190.03,349.87 194.42,343.70
             197.35,339.57 202.17,328.94 203.96,324.00
             204.71,321.96 206.05,318.26 205.37,316.14
             204.72,314.12 200.91,311.98 199.00,310.00
             200.84,309.03 205.26,306.46 207.00,306.17
             209.32,305.60 211.00,306.54 213.00,306.17
             217.01,305.64 220.61,301.15 222.32,297.70
             224.17,293.96 226.24,288.13 223.26,284.47
             221.08,281.79 217.54,281.84 215.77,276.95
             215.77,276.95 209.71,247.00 209.71,247.00
             207.56,238.64 206.93,233.46 196.81,231.00
             197.00,227.77 197.18,221.94 196.81,219.00
             196.81,219.00 195.21,213.00 195.21,213.00
             194.08,205.22 193.66,201.85 189.24,194.96
             187.07,191.57 183.92,187.02 180.00,185.60
             173.02,183.06 169.62,189.55 164.96,189.44
             157.57,189.26 155.57,180.89 149.91,177.98
             147.20,176.59 141.51,176.53 138.89,173.48
             134.59,168.48 141.61,166.17 142.68,161.91
             143.78,157.55 140.85,152.77 139.00,149.00
             139.00,149.00 147.00,146.00 147.00,146.00
             142.56,138.47 140.36,143.40 134.09,141.57
             129.56,140.25 128.87,135.62 124.96,134.75
             121.75,134.03 114.69,138.48 107.05,139.00
             107.13,137.20 107.62,133.74 107.05,132.13
             105.78,128.09 100.60,127.75 97.27,124.99
             94.29,122.52 94.41,119.27 89.98,120.27
             87.82,120.76 85.59,122.62 83.26,121.72
             80.60,120.68 78.00,113.79 76.79,111.17
             73.90,104.90 67.22,90.22 61.91,86.60
             54.24,81.36 43.48,89.25 36.58,81.53
             35.28,80.07 33.87,76.01 33.00,74.00
             33.00,74.00 34.00,73.00 34.00,73.00
             34.00,73.00 36.97,77.70 36.97,77.70
             42.57,84.47 46.16,71.25 47.82,69.60
             49.82,67.60 52.25,68.37 54.61,66.40
             60.66,61.38 56.81,53.48 54.00,48.00
             55.72,46.80 58.15,44.98 60.00,44.13
             65.82,41.46 65.88,44.81 72.00,37.00
             77.59,38.17 78.43,37.33 82.00,33.00
             91.43,35.93 91.57,34.38 96.00,35.63
             103.86,37.87 103.75,40.82 119.00,41.00
             119.00,41.00 133.00,40.43 133.00,40.43
             137.39,40.56 138.94,43.55 141.90,42.67
             145.33,41.65 147.26,36.09 148.00,33.00
             150.45,33.03 152.70,32.88 154.96,34.02
             159.33,36.21 158.49,39.11 164.00,37.00
             169.90,40.26 173.21,38.00 177.00,33.00
             181.11,35.10 183.87,39.32 188.96,38.85 Z
           M 204.00,77.00
           C 204.00,77.00 208.00,80.00 208.00,80.00
             208.00,80.00 204.00,77.00 204.00,77.00 Z" />
</svg>
