<?xml version="1.0" encoding="UTF-8" standalone="no"?>
<!DOCTYPE svg PUBLIC "-//W3C//DTD SVG 20010904//EN"
              "http://www.w3.org/TR/2001/REC-SVG-20010904/DTD/svg10.dtd">

<svg xmlns="http://www.w3.org/2000/svg"
     width="5.55486in" height="5.55486in"
     viewBox="0 0 400 400">
  <path id="Selection#2"
        fill="green" stroke="black" stroke-width="1"
        d="M 83.90,103.89
           C 86.37,102.74 87.33,100.20 88.95,98.27
             91.19,95.60 93.38,95.20 94.87,92.78
             96.08,90.04 94.88,85.35 94.87,82.00
             95.59,74.17 98.80,73.62 101.42,69.91
             101.42,69.91 104.56,64.37 104.56,64.37
             106.15,62.37 108.08,61.68 109.26,58.90
             110.31,56.43 109.98,49.07 115.25,45.28
             124.07,39.26 126.06,45.02 134.00,45.28
             137.42,45.22 141.11,43.28 145.00,44.60
             148.43,45.76 149.70,48.30 154.00,48.84
             158.85,49.45 162.07,46.89 165.00,46.69
             167.74,46.50 179.21,51.82 181.00,54.00
             172.10,53.12 174.59,57.11 171.74,62.83
             168.90,68.54 167.52,67.47 167.00,75.00
             167.00,75.00 172.00,74.00 172.00,74.00
             172.00,74.00 171.43,85.00 171.43,85.00
             171.43,85.00 174.73,94.00 174.73,94.00
             175.40,97.40 174.54,99.32 176.68,103.91
             178.50,107.80 180.63,108.98 182.06,111.43
             185.19,116.79 182.73,119.03 191.46,126.81
             195.80,130.67 203.01,131.25 210.96,136.67
             220.69,143.31 223.97,149.85 231.52,156.73
             236.77,161.52 249.52,161.18 252.41,168.09
             253.29,170.21 252.61,172.45 255.26,178.83
             259.09,188.02 264.32,196.51 264.20,207.00
             264.11,213.88 265.57,211.75 267.87,217.09
             267.87,217.09 270.57,227.00 270.57,227.00
             272.79,235.91 272.31,233.83 276.21,241.51
             277.31,243.67 277.25,245.65 279.31,247.41
             280.63,248.52 281.50,248.54 283.00,249.00
             283.00,249.00 281.00,257.00 281.00,257.00
             281.00,257.00 286.00,257.00 286.00,257.00
             288.28,264.05 293.63,263.67 298.56,267.73
             304.01,272.23 302.22,276.34 305.57,279.42
             308.15,281.78 313.69,281.72 316.44,283.90
             319.82,286.59 319.85,293.17 325.05,295.98
             330.03,298.66 338.36,295.20 345.00,306.00
             337.60,309.94 339.57,307.49 333.72,308.02
             326.14,308.70 313.20,309.47 306.00,307.37
             306.00,307.37 298.00,303.81 298.00,303.81
             299.81,304.44 281.34,300.30 284.00,300.44
             280.72,300.26 278.73,302.69 276.00,304.01
             276.00,304.01 270.04,306.00 270.04,306.00
             270.04,306.00 264.72,309.17 264.72,309.17
             260.32,311.60 250.21,315.27 248.13,320.10
             246.18,324.63 252.99,329.19 251.31,333.69
             250.39,336.14 247.44,335.80 245.11,337.17
             242.45,338.73 241.95,340.29 241.00,343.00
             236.15,341.20 228.03,340.34 227.16,347.59
             226.93,349.51 228.27,352.22 229.00,354.00
             229.00,354.00 216.00,359.00 216.00,359.00
             213.09,352.57 211.25,352.26 211.00,345.00
             206.64,344.87 190.71,340.30 187.76,337.42
             187.76,337.42 183.25,330.75 183.25,330.75
             179.02,325.51 173.35,321.20 167.00,319.00
             164.43,306.94 163.69,300.82 153.00,293.09
             145.70,287.82 142.48,289.57 139.93,286.49
             137.84,283.96 138.20,279.21 133.94,273.00
             128.20,264.62 111.02,254.31 101.00,253.00
             103.09,240.13 91.18,225.98 79.00,223.00
             80.77,212.57 75.94,205.35 65.00,205.00
             67.14,199.11 67.87,192.36 66.74,186.09
             66.74,186.09 65.22,180.83 65.22,180.83
             64.47,177.34 64.17,174.56 62.62,171.17
             59.15,163.59 55.08,167.22 55.00,156.00
             55.00,156.00 55.00,138.00 55.00,138.00
             59.26,138.58 68.66,143.13 71.85,141.77
             75.32,140.29 74.70,135.99 75.49,133.00
             76.47,129.29 78.28,127.14 78.67,122.00
             79.20,115.04 74.47,108.56 71.00,103.00
             77.77,102.12 80.06,105.67 83.90,103.89 Z" />
</svg>
