<?xml version="1.0" encoding="UTF-8" standalone="no"?>
<!DOCTYPE svg PUBLIC "-//W3C//DTD SVG 20010904//EN"
              "http://www.w3.org/TR/2001/REC-SVG-20010904/DTD/svg10.dtd">

<svg xmlns="http://www.w3.org/2000/svg"
     width="43.6334in" height="36.3288in"
     viewBox="0 0 3142 2616">
  <path id="Rome"
        fill="Green" stroke="black" stroke-width="1"
        d="M 1459.89,1765.65
           C 1462.58,1764.47 1463.03,1762.34 1464.51,1760.27
             1466.69,1757.23 1469.12,1757.29 1470.52,1753.94
             1471.95,1750.54 1470.03,1743.72 1471.89,1739.04
             1473.19,1735.76 1475.44,1734.61 1477.28,1731.91
             1478.85,1729.62 1479.00,1727.65 1480.71,1725.77
             1481.91,1724.44 1483.63,1723.83 1484.83,1721.78
             1486.67,1718.63 1485.42,1710.93 1492.12,1706.81
             1500.60,1701.57 1502.42,1706.79 1510.00,1706.81
             1513.75,1707.14 1517.22,1705.32 1521.00,1706.81
             1524.43,1707.76 1525.70,1710.30 1530.00,1710.84
             1534.85,1711.45 1538.07,1708.89 1541.00,1708.69
             1543.81,1708.49 1555.23,1713.72 1557.00,1716.00
             1548.16,1715.13 1550.55,1719.07 1547.74,1724.83
             1545.10,1730.27 1543.88,1730.15 1543.00,1737.00
             1543.00,1737.00 1548.00,1736.00 1548.00,1736.00
             1548.00,1736.00 1547.43,1747.00 1547.43,1747.00
             1547.43,1747.00 1550.73,1756.00 1550.73,1756.00
             1551.40,1759.40 1550.54,1761.32 1552.68,1765.91
             1554.50,1769.80 1556.63,1770.98 1558.06,1773.43
             1561.31,1778.98 1558.79,1780.93 1567.46,1788.80
             1571.68,1792.62 1579.03,1793.26 1586.96,1798.67
             1596.69,1805.31 1599.97,1811.85 1607.52,1818.73
             1612.77,1823.52 1625.52,1823.18 1628.41,1830.09
             1629.29,1832.21 1628.61,1834.45 1631.26,1840.83
             1635.09,1850.02 1640.32,1858.51 1640.20,1869.00
             1640.11,1875.88 1641.57,1873.75 1643.87,1879.09
             1643.87,1879.09 1646.57,1889.00 1646.57,1889.00
             1648.79,1897.91 1648.31,1895.83 1652.21,1903.51
             1653.31,1905.67 1653.25,1907.65 1655.31,1909.41
             1656.63,1910.52 1657.50,1910.54 1659.00,1911.00
             1659.00,1911.00 1657.00,1919.00 1657.00,1919.00
             1657.00,1919.00 1662.00,1919.00 1662.00,1919.00
             1664.28,1926.05 1669.63,1925.67 1674.56,1929.73
             1680.01,1934.23 1678.22,1938.34 1681.57,1941.42
             1684.15,1943.78 1689.69,1943.72 1692.44,1945.90
             1695.82,1948.59 1695.85,1955.17 1701.05,1957.98
             1706.03,1960.66 1714.36,1957.20 1721.00,1968.00
             1714.94,1971.22 1707.73,1970.53 1701.00,1970.45
             1693.83,1970.37 1689.88,1971.70 1682.00,1969.37
             1682.00,1969.37 1673.00,1965.63 1673.00,1965.63
             1673.00,1965.63 1666.00,1964.51 1666.00,1964.51
             1663.77,1963.93 1661.27,1962.35 1659.00,1962.53
             1656.34,1962.75 1654.34,1964.87 1652.00,1966.01
             1652.00,1966.01 1646.00,1968.15 1646.00,1968.15
             1646.00,1968.15 1641.00,1971.12 1641.00,1971.12
             1636.60,1973.48 1626.17,1977.37 1624.13,1982.10
             1622.11,1986.78 1629.26,1991.01 1627.36,1995.69
             1626.36,1998.14 1623.43,1997.81 1621.11,1999.17
             1618.45,2000.73 1617.95,2002.29 1617.00,2005.00
             1612.32,2003.26 1604.72,2002.11 1603.56,2009.04
             1603.20,2011.14 1604.38,2013.97 1605.00,2016.00
             1605.00,2016.00 1592.00,2021.00 1592.00,2021.00
             1589.09,2014.57 1587.25,2014.26 1587.00,2007.00
             1582.64,2006.87 1566.71,2002.30 1563.76,1999.42
             1563.76,1999.42 1559.25,1992.75 1559.25,1992.75
             1555.02,1987.51 1549.35,1983.20 1543.00,1981.00
             1540.43,1968.94 1539.69,1962.82 1529.00,1955.09
             1521.70,1949.82 1518.48,1951.57 1515.93,1948.49
             1513.84,1945.96 1514.20,1941.21 1509.94,1935.00
             1504.20,1926.62 1487.02,1916.31 1477.00,1915.00
             1479.09,1902.13 1467.18,1887.98 1455.00,1885.00
             1456.77,1874.57 1451.94,1867.35 1441.00,1867.00
             1443.14,1861.11 1443.87,1854.36 1442.74,1848.09
             1442.74,1848.09 1441.22,1842.83 1441.22,1842.83
             1440.47,1839.34 1440.17,1836.56 1438.62,1833.17
             1435.15,1825.59 1431.08,1829.22 1431.00,1818.00
             1431.00,1818.00 1431.00,1800.00 1431.00,1800.00
             1435.26,1800.58 1444.66,1805.13 1447.85,1803.77
             1451.48,1802.22 1450.74,1797.24 1451.63,1794.00
             1452.56,1790.62 1454.39,1787.73 1454.60,1784.00
             1454.97,1777.24 1450.37,1770.39 1447.00,1765.00
             1453.41,1764.17 1456.11,1767.31 1459.89,1765.65 Z" />
</svg>
