<?xml version="1.0" encoding="UTF-8" standalone="no"?>
<!DOCTYPE svg PUBLIC "-//W3C//DTD SVG 20010904//EN"
              "http://www.w3.org/TR/2001/REC-SVG-20010904/DTD/svg10.dtd">

<svg xmlns="http://www.w3.org/2000/svg"
     width="5.55486in" height="5.55486in"
     viewBox="0 0 400 400">
  <path id="Selection"
        fill="green" stroke="black" stroke-width="1"
        d="M 177.18,111.00
           C 177.99,116.06 181.41,120.44 181.76,126.00
             182.09,130.41 179.97,135.34 181.76,140.00
             181.76,140.00 194.13,159.00 194.13,159.00
             194.13,159.00 203.73,181.79 203.73,181.79
             206.84,186.11 216.05,191.48 217.04,192.53
             219.49,195.14 219.94,199.43 226.00,202.20
             232.16,205.01 237.74,203.50 241.91,204.13
             245.59,204.69 246.25,206.61 249.04,207.05
             250.07,207.21 258.73,206.30 263.83,208.26
             263.83,208.26 270.04,212.15 270.04,212.15
             273.00,213.39 275.53,212.67 278.83,214.30
             282.01,215.86 283.23,218.40 291.00,219.83
             291.00,219.83 314.00,221.86 314.00,221.86
             321.22,221.14 320.28,216.96 330.00,221.00
             330.00,221.00 326.04,232.41 326.04,232.41
             326.04,232.41 322.63,236.21 322.63,236.21
             322.63,236.21 313.80,250.00 313.80,250.00
             310.96,256.28 312.71,261.94 311.40,264.70
             309.43,268.88 303.66,266.69 303.00,273.00
             303.00,273.00 296.00,272.38 296.00,272.38
             291.92,272.63 287.64,275.41 288.49,280.00
             289.21,283.96 296.04,289.68 295.13,299.00
             294.66,303.79 292.70,304.72 292.00,311.00
             282.86,310.37 283.27,306.26 276.00,311.00
             275.90,302.56 270.56,290.73 262.00,288.00
             262.00,288.00 264.00,283.00 264.00,283.00
             264.00,283.00 258.00,281.00 258.00,281.00
             256.04,283.77 255.33,283.54 252.00,283.46
             243.13,283.28 241.01,279.35 234.17,274.04
             226.14,267.80 211.38,258.78 202.00,254.79
             198.80,253.44 193.31,250.69 190.00,250.63
             186.65,250.56 180.29,253.45 177.00,254.80
             169.70,257.80 164.05,260.87 162.00,269.00
             158.33,269.51 151.16,272.25 149.02,275.41
             147.82,277.18 148.18,279.27 146.42,281.91
             143.55,286.20 141.64,284.96 140.00,291.00
             140.00,291.00 122.00,296.40 122.00,296.40
             122.00,296.40 110.00,297.00 110.00,297.00
             111.27,293.60 112.96,289.48 115.10,286.58
             117.56,283.26 121.78,279.13 122.50,275.00
             123.06,271.76 121.11,265.61 117.73,264.39
             117.73,264.39 105.00,265.00 105.00,265.00
             102.45,264.98 100.48,265.04 98.00,264.24
             93.39,262.74 80.88,253.66 77.87,250.00
             73.27,244.39 80.82,242.66 76.00,234.00
             81.49,231.04 83.49,229.35 84.00,223.00
             84.00,223.00 97.00,223.00 97.00,223.00
             95.32,217.49 93.41,217.19 88.00,217.00
             88.64,215.25 89.35,213.97 89.01,212.00
             87.94,205.84 79.73,200.29 74.00,199.00
             76.89,190.71 73.78,191.97 71.00,183.00
             71.00,183.00 80.99,184.11 80.99,184.11
             80.99,184.11 100.00,175.00 100.00,175.00
             100.00,175.00 101.72,160.09 101.72,160.09
             101.72,160.09 94.11,147.72 94.11,147.72
             94.11,147.72 94.11,137.00 94.11,137.00
             85.53,135.08 86.01,132.75 86.00,125.00
             86.00,125.00 105.00,125.00 105.00,125.00
             105.00,125.00 128.00,121.07 128.00,121.07
             134.55,120.90 136.19,126.64 143.95,124.69
             146.92,123.94 147.85,122.00 150.24,120.39
             150.24,120.39 155.00,117.51 155.00,117.51
             160.43,113.54 160.80,110.78 168.00,109.00
             168.00,103.68 168.68,100.80 166.00,96.00
             171.12,91.29 170.73,92.00 177.18,90.00
             179.51,96.33 176.85,106.89 177.18,111.00 Z
           M 197.00,202.00
           C 197.00,202.00 201.00,201.00 201.00,201.00
             201.00,201.00 197.00,202.00 197.00,202.00 Z" />
</svg>
