<?xml version="1.0" encoding="UTF-8" standalone="no"?>
<!DOCTYPE svg PUBLIC "-//W3C//DTD SVG 20010904//EN"
              "http://www.w3.org/TR/2001/REC-SVG-20010904/DTD/svg10.dtd">

<svg xmlns="http://www.w3.org/2000/svg"
     width="43.6334in" height="36.3288in"
     viewBox="0 0 3142 2616">
  <path id="Sicily"
        fill="Green" stroke="black" stroke-width="1"
        d="M 1743.05,2292.00
           C 1736.98,2304.60 1736.02,2300.00 1730.70,2308.00
             1727.65,2312.59 1728.64,2315.71 1726.98,2319.00
             1725.51,2321.91 1722.52,2324.07 1721.65,2327.00
             1720.63,2330.42 1723.06,2332.80 1722.28,2336.00
             1721.72,2338.31 1713.05,2348.72 1714.69,2354.96
             1715.60,2358.46 1720.38,2361.32 1721.90,2365.00
             1723.29,2368.36 1721.30,2370.24 1723.61,2373.99
             1725.62,2377.23 1730.77,2380.06 1730.48,2383.81
             1730.29,2386.29 1724.19,2390.65 1722.22,2393.00
             1717.76,2398.34 1715.09,2406.14 1716.00,2413.00
             1704.21,2412.46 1703.47,2410.39 1698.00,2409.34
             1698.00,2409.34 1692.28,2408.45 1692.28,2408.45
             1692.28,2408.45 1686.96,2405.58 1686.96,2405.58
             1683.95,2404.54 1680.94,2405.58 1678.70,2403.40
             1675.85,2400.63 1677.45,2396.62 1675.23,2393.09
             1673.38,2390.16 1667.87,2386.45 1665.00,2384.25
             1657.65,2378.62 1652.35,2372.24 1642.00,2373.58
             1638.67,2373.85 1635.56,2375.97 1631.17,2373.58
             1624.37,2370.16 1621.07,2360.63 1615.00,2359.87
             1615.00,2359.87 1610.00,2359.87 1610.00,2359.87
             1607.03,2359.48 1600.69,2356.09 1598.37,2354.15
             1598.37,2354.15 1588.83,2343.56 1588.83,2343.56
             1585.27,2340.89 1579.96,2340.91 1577.37,2339.52
             1574.65,2338.05 1573.69,2335.12 1569.98,2333.32
             1565.16,2330.97 1557.10,2333.97 1552.00,2335.00
             1550.86,2332.52 1549.73,2329.38 1547.70,2327.54
             1545.46,2325.51 1540.88,2324.43 1539.69,2320.83
             1538.60,2317.54 1541.05,2313.95 1542.12,2311.00
             1542.12,2311.00 1543.89,2303.09 1543.89,2303.09
             1545.52,2299.12 1551.60,2293.81 1556.00,2293.38
             1563.96,2292.62 1568.38,2308.38 1578.96,2298.85
             1580.09,2297.84 1581.46,2296.29 1582.26,2295.00
             1583.66,2292.76 1583.71,2291.49 1584.00,2289.00
             1584.00,2289.00 1597.00,2283.00 1597.00,2283.00
             1601.19,2290.94 1603.03,2291.54 1609.41,2296.84
             1611.59,2298.65 1612.20,2300.25 1615.04,2301.84
             1615.04,2301.84 1621.00,2304.26 1621.00,2304.26
             1623.80,2305.61 1625.73,2307.34 1629.00,2307.74
             1634.82,2308.44 1639.49,2304.05 1645.00,2303.11
             1645.00,2303.11 1670.00,2303.11 1670.00,2303.11
             1685.46,2302.97 1683.64,2296.59 1696.00,2293.38
             1701.90,2291.85 1706.46,2293.05 1711.72,2296.15
             1713.84,2297.40 1715.70,2299.84 1718.01,2299.81
             1721.77,2299.76 1728.43,2291.23 1730.00,2288.00
             1738.90,2289.49 1740.96,2285.98 1748.00,2281.00
             1749.40,2285.79 1745.85,2286.20 1743.05,2292.00 Z" />
</svg>
