<?xml version="1.0" encoding="UTF-8" standalone="no"?>
<!DOCTYPE svg PUBLIC "-//W3C//DTD SVG 20010904//EN"
              "http://www.w3.org/TR/2001/REC-SVG-20010904/DTD/svg10.dtd">

<svg xmlns="http://www.w3.org/2000/svg"
     width="5.55486in" height="5.55486in"
     viewBox="0 0 400 400">
  <path id="Selection"
        fill="green" stroke="black" stroke-width="1"
        d="M 299.05,145.00
           C 293.04,157.56 292.02,153.00 286.70,161.00
             283.64,165.61 284.63,168.84 282.99,171.83
             280.94,175.54 276.61,176.87 277.71,183.00
             277.88,185.68 279.16,187.05 277.71,190.00
             277.25,191.64 275.49,193.49 274.49,195.00
             272.77,197.60 269.89,204.91 270.69,207.96
             271.60,211.46 276.38,214.32 277.90,218.00
             279.29,221.36 277.30,223.24 279.61,226.99
             281.62,230.23 286.77,233.06 286.48,236.81
             286.29,239.31 280.10,243.74 278.14,246.00
             273.56,251.31 271.08,259.09 272.00,266.00
             260.21,265.46 259.47,263.39 254.00,262.34
             254.00,262.34 248.28,261.45 248.28,261.45
             248.28,261.45 242.96,258.58 242.96,258.58
             239.95,257.54 236.94,258.58 234.70,256.40
             231.85,253.63 233.45,249.62 231.23,246.09
             229.37,243.15 223.87,239.46 221.00,237.25
             213.53,231.52 208.59,225.22 198.00,226.58
             194.67,226.85 191.56,228.97 187.17,226.58
             180.37,223.16 177.07,213.63 171.00,212.87
             171.00,212.87 166.00,212.87 166.00,212.87
             163.03,212.48 156.69,209.09 154.37,207.15
             154.37,207.15 144.83,196.56 144.83,196.56
             141.27,193.89 135.96,193.91 133.37,192.52
             130.65,191.05 129.69,188.12 125.98,186.32
             121.16,183.97 113.10,186.97 108.00,188.00
             106.86,185.52 105.73,182.38 103.70,180.54
             101.46,178.51 96.88,177.43 95.69,173.83
             94.60,170.54 97.05,166.95 98.12,164.00
             98.12,164.00 99.89,156.09 99.89,156.09
             101.67,151.75 108.06,146.42 113.00,146.45
             119.86,146.48 124.76,161.04 134.96,151.85
             136.09,150.84 137.46,149.29 138.26,148.00
             139.66,145.76 139.71,144.49 140.00,142.00
             140.00,142.00 153.00,136.00 153.00,136.00
             155.95,141.60 159.70,147.15 166.00,149.00
             166.99,151.04 167.31,152.01 169.14,153.57
             169.14,153.57 183.00,160.50 183.00,160.50
             184.71,160.85 186.24,160.91 188.00,160.50
             195.43,159.57 194.72,156.06 206.00,156.00
             206.00,156.00 226.00,156.00 226.00,156.00
             242.58,155.97 242.02,146.88 256.00,145.52
             258.98,145.23 265.11,147.61 267.72,149.15
             269.84,150.40 271.70,152.84 274.01,152.81
             277.77,152.76 284.43,144.23 286.00,141.00
             294.90,142.49 296.96,138.98 304.00,134.00
             305.44,138.60 302.02,138.81 299.05,145.00 Z" />
</svg>
