<?xml version="1.0" encoding="UTF-8" standalone="no"?>
<!DOCTYPE svg PUBLIC "-//W3C//DTD SVG 20010904//EN"
              "http://www.w3.org/TR/2001/REC-SVG-20010904/DTD/svg10.dtd">

<svg xmlns="http://www.w3.org/2000/svg"
     width="5.55486in" height="5.55486in"
     viewBox="0 0 400 400">
  <path id="Selection#1"
        fill="green" stroke="black" stroke-width="1"
        d="M 196.00,134.86
           C 200.70,134.33 204.45,131.03 206.66,127.00
             207.77,124.96 208.69,121.35 210.55,120.02
             212.31,118.76 215.87,119.00 218.00,118.81
             218.00,118.81 245.00,118.81 245.00,118.81
             251.34,117.40 256.14,113.88 263.00,113.00
             259.70,125.70 261.99,122.31 268.19,130.32
             271.09,134.06 269.87,135.31 275.00,137.00
             274.99,141.11 275.47,142.54 273.00,146.00
             284.16,152.98 277.03,145.28 296.00,149.25
             296.00,149.25 305.00,152.53 305.00,152.53
             305.00,152.53 320.00,155.63 320.00,155.63
             320.00,155.63 327.00,158.38 327.00,158.38
             330.41,158.91 331.89,156.91 336.00,157.51
             336.00,157.51 341.00,158.87 341.00,158.87
             341.00,158.87 351.00,158.87 351.00,158.87
             351.00,158.87 351.00,161.00 351.00,161.00
             351.00,161.00 343.00,163.00 343.00,163.00
             343.00,163.00 344.00,166.00 344.00,166.00
             341.78,167.35 336.78,169.76 335.31,171.30
             334.22,172.45 333.69,173.47 333.31,175.00
             330.71,185.48 340.92,186.25 348.00,188.00
             343.94,192.03 342.07,190.53 339.31,193.31
             337.70,194.94 337.18,196.77 337.08,199.00
             336.79,204.85 340.04,207.06 345.00,209.00
             343.09,214.34 342.71,214.10 346.00,219.00
             338.57,220.27 341.83,223.39 335.00,227.00
             335.00,227.00 335.00,218.00 335.00,218.00
             325.01,218.00 313.78,215.69 313.00,229.00
             313.00,229.00 308.82,228.06 308.82,228.06
             308.82,228.06 290.00,239.00 290.00,239.00
             290.00,239.00 287.00,232.00 287.00,232.00
             279.09,233.96 267.42,241.41 262.05,247.51
             259.69,250.19 256.95,254.30 257.31,258.01
             257.53,260.26 259.09,264.75 260.58,266.45
             262.15,268.25 264.70,269.08 265.77,271.26
             265.77,271.26 266.93,277.00 266.93,277.00
             268.30,281.08 270.77,283.41 274.00,286.00
             266.29,290.23 263.00,283.00 257.00,281.91
             252.96,281.17 249.13,284.98 245.09,284.51
             242.05,284.15 241.01,281.72 236.99,280.42
             232.17,279.19 224.81,280.76 222.00,280.42
             216.32,279.26 217.68,276.25 208.00,276.00
             208.00,276.00 209.00,278.93 209.00,278.93
             200.93,281.78 195.24,278.50 190.00,278.93
             186.71,279.07 184.12,281.05 181.00,281.57
             178.42,282.01 160.79,280.14 158.00,279.25
             152.23,277.40 151.48,274.49 148.79,273.33
             145.90,272.07 142.40,273.66 139.21,272.26
             134.06,270.02 136.07,265.69 128.00,267.00
             123.68,262.15 122.26,264.38 117.00,267.00
             113.00,263.05 110.30,264.02 105.00,264.00
             100.75,263.98 95.85,264.01 92.76,260.58
             90.69,258.29 90.06,254.80 87.59,252.58
             87.59,252.58 83.45,250.04 83.45,250.04
             83.45,250.04 75.92,243.46 75.92,243.46
             73.64,240.67 72.53,232.99 70.46,229.00
             70.46,229.00 59.80,211.09 59.80,211.09
             58.26,208.61 55.67,206.47 54.83,203.96
             53.47,200.46 55.25,197.52 54.83,192.00
             54.31,182.38 47.77,178.01 52.00,172.00
             55.37,178.31 57.45,181.95 65.00,183.00
             63.22,188.94 62.65,190.42 69.00,193.00
             69.00,193.00 69.00,205.00 69.00,205.00
             69.00,205.00 78.09,206.16 78.09,206.16
             78.09,206.16 86.00,203.00 86.00,203.00
             85.80,198.75 84.35,191.95 85.31,188.09
             85.96,185.46 87.42,184.45 88.44,181.93
             89.70,178.78 89.13,176.72 94.02,173.29
             99.94,169.15 100.22,175.17 106.00,168.00
             106.00,168.00 101.00,166.00 101.00,166.00
             101.00,166.00 104.00,154.00 104.00,154.00
             107.48,160.84 110.40,168.57 119.00,170.06
             124.42,170.99 129.91,160.04 134.58,168.15
             134.58,168.15 136.00,172.00 136.00,172.00
             136.00,172.00 151.20,167.00 151.20,167.00
             147.57,163.71 151.54,161.81 151.20,158.09
             151.29,155.58 149.06,154.07 148.00,151.91
             146.88,149.62 147.03,147.47 147.00,145.00
             151.25,146.04 152.27,147.02 156.00,148.95
             164.57,153.39 164.97,154.04 165.00,164.00
             175.86,159.46 169.07,154.80 169.28,150.00
             169.41,146.97 172.35,145.00 172.38,142.09
             172.40,139.75 170.23,138.10 169.63,135.91
             167.68,128.68 175.25,127.03 180.00,125.00
             180.00,125.00 181.00,132.00 181.00,132.00
             188.16,132.67 190.38,135.50 196.00,134.86 Z
           M 194.00,199.00
           C 194.00,199.00 201.00,198.00 201.00,198.00
             201.00,198.00 194.00,199.00 194.00,199.00 Z" />
</svg>
