<?xml version="1.0" encoding="UTF-8" standalone="no"?>
<!DOCTYPE svg PUBLIC "-//W3C//DTD SVG 20010904//EN"
              "http://www.w3.org/TR/2001/REC-SVG-20010904/DTD/svg10.dtd">

<svg xmlns="http://www.w3.org/2000/svg"
     width="43.6334in" height="36.3288in"
     viewBox="0 0 3142 2616">
  <path id="Madrid"
        fill="Green" stroke="black" stroke-width="1"
        d="M 305.06,1894.10
           C 308.18,1893.81 320.05,1901.02 324.00,1901.14
             329.22,1901.30 331.65,1897.50 335.28,1894.99
             337.89,1893.19 343.88,1890.85 347.00,1889.90
             349.24,1889.44 352.51,1888.37 354.58,1889.90
             356.66,1891.20 357.45,1894.82 358.55,1897.00
             360.15,1900.13 362.50,1902.56 365.00,1904.98
             367.01,1906.92 369.05,1909.11 372.00,1909.48
             374.58,1909.49 376.75,1907.57 379.12,1909.48
             380.06,1910.45 380.85,1912.60 383.97,1915.41
             383.97,1915.41 396.25,1925.13 396.25,1925.13
             399.00,1928.32 401.56,1934.10 405.05,1935.98
             407.64,1937.37 411.11,1936.84 414.00,1937.18
             419.99,1937.90 422.49,1940.31 431.00,1937.94
             436.12,1936.52 437.35,1933.58 439.88,1933.60
             443.34,1933.64 444.22,1940.14 449.00,1940.14
             452.82,1940.14 455.35,1935.19 458.44,1932.47
             463.16,1928.31 468.10,1929.07 471.58,1925.58
             474.75,1922.42 474.46,1917.95 476.72,1915.31
             480.11,1911.37 485.17,1914.42 488.67,1911.40
             491.20,1909.22 490.20,1906.37 491.76,1904.60
             493.95,1902.11 497.58,1904.00 502.00,1901.26
             508.80,1897.05 510.34,1890.51 514.13,1888.30
             514.13,1888.30 534.96,1880.90 534.96,1880.90
             540.15,1878.61 544.95,1874.27 551.00,1874.39
             556.40,1874.50 556.84,1877.98 569.00,1878.00
             578.19,1878.01 575.24,1877.12 583.08,1881.05
             583.08,1881.05 587.72,1882.99 587.72,1882.99
             598.92,1889.59 598.36,1902.96 609.00,1906.29
             611.20,1906.97 618.96,1905.95 622.00,1905.76
             627.51,1905.42 628.99,1902.06 633.00,1903.03
             637.27,1904.06 640.74,1909.45 642.84,1913.00
             648.19,1922.01 647.10,1924.40 648.10,1934.00
             648.10,1934.00 649.24,1942.00 649.24,1942.00
             649.39,1946.25 648.04,1944.66 649.24,1952.00
             636.86,1950.67 639.89,1954.57 634.75,1960.00
             632.73,1962.14 628.07,1965.89 628.14,1969.09
             628.19,1971.78 635.22,1981.71 637.21,1984.00
             637.21,1984.00 643.39,1990.42 643.39,1990.42
             646.37,1994.65 642.45,1995.55 647.98,2002.72
             650.06,2005.42 656.17,2011.39 656.63,2014.03
             657.45,2018.77 652.87,2020.33 650.31,2023.21
             648.08,2025.71 648.10,2027.67 646.42,2028.99
             644.69,2030.35 642.31,2029.88 639.21,2032.42
             639.21,2032.42 634.63,2037.42 634.63,2037.42
             628.87,2043.59 624.75,2047.04 628.68,2056.00
             629.76,2058.44 630.93,2060.40 633.19,2061.92
             633.19,2061.92 646.00,2068.00 646.00,2068.00
             642.82,2078.82 628.95,2087.72 642.04,2098.15
             643.56,2099.36 645.18,2100.44 647.00,2101.11
             649.56,2102.06 652.31,2101.98 655.00,2102.00
             654.86,2112.69 651.92,2108.81 649.00,2117.00
             646.50,2115.72 642.39,2112.98 640.00,2112.66
             636.86,2111.79 633.89,2113.20 630.00,2112.66
             626.47,2112.55 623.89,2110.69 621.14,2112.07
             618.14,2113.60 618.56,2116.66 615.69,2119.12
             613.93,2120.63 611.62,2121.11 610.02,2124.06
             607.58,2128.56 610.86,2137.85 606.69,2139.84
             603.18,2141.51 600.00,2136.24 594.00,2135.22
             587.91,2134.19 576.29,2136.16 570.00,2137.33
             564.34,2138.38 563.97,2140.45 559.91,2143.33
             559.91,2143.33 554.09,2146.83 554.09,2146.83
             549.22,2150.16 547.27,2153.19 542.00,2148.00
             545.88,2143.40 550.12,2137.41 549.56,2131.00
             549.56,2131.00 547.30,2123.00 547.30,2123.00
             546.36,2116.11 548.72,2110.61 537.00,2106.14
             530.41,2103.61 521.53,2108.18 517.00,2107.50
             521.53,2108.18 500.31,2103.21 504.00,2104.32
             504.00,2104.32 498.00,2102.07 498.00,2102.07
             498.00,2102.07 488.00,2102.07 488.00,2102.07
             483.06,2100.92 483.92,2098.02 477.00,2098.43
             468.93,2098.90 469.84,2096.23 465.00,2095.89
             461.36,2095.64 459.37,2098.08 455.00,2097.62
             448.63,2096.95 438.07,2090.70 435.00,2089.76
             431.57,2088.71 429.01,2090.32 426.18,2089.22
             422.95,2087.98 419.26,2080.97 417.12,2078.00
             417.12,2078.00 399.03,2058.63 399.03,2058.63
             396.07,2054.98 393.32,2050.41 388.00,2049.94
             386.24,2049.78 383.85,2050.56 382.00,2050.80
             378.84,2051.20 376.12,2050.70 373.00,2051.69
             373.00,2051.69 361.00,2056.83 361.00,2056.83
             361.00,2056.83 356.00,2060.00 356.00,2060.00
             352.17,2061.77 348.69,2060.11 345.74,2064.15
             343.70,2066.94 344.32,2069.90 343.51,2073.00
             343.51,2073.00 341.39,2079.00 341.39,2079.00
             340.63,2081.80 340.49,2085.36 337.00,2086.26
             333.58,2087.14 333.16,2083.25 331.42,2081.43
             329.86,2079.79 328.18,2079.32 326.00,2079.11
             322.26,2078.74 318.18,2079.45 316.32,2083.11
             315.30,2085.13 315.82,2087.48 313.65,2088.98
             311.73,2090.31 306.41,2090.03 304.00,2090.00
             300.47,2089.95 293.30,2089.30 290.99,2086.30
             289.38,2084.21 290.45,2080.42 286.77,2078.17
             284.27,2076.64 278.98,2077.00 276.00,2077.00
             274.12,2070.75 272.80,2072.50 269.59,2068.49
             267.61,2066.01 268.19,2063.92 266.26,2061.30
             260.44,2053.35 252.43,2055.00 244.00,2055.00
             244.00,2055.00 240.84,2038.09 240.84,2038.09
             240.84,2038.09 239.12,2032.83 239.12,2032.83
             239.12,2032.83 239.12,2023.00 239.12,2023.00
             246.20,2019.49 244.19,2016.55 248.47,2013.14
             256.47,2006.76 264.83,2012.39 265.00,1999.00
             266.63,1998.88 268.14,1998.91 269.66,1998.15
             271.95,1996.99 276.71,1989.69 276.37,1987.13
             275.53,1980.73 265.80,1977.89 263.60,1971.99
             263.60,1971.99 261.25,1955.00 261.25,1955.00
             261.51,1951.90 263.15,1949.40 262.69,1946.09
             262.23,1942.76 258.53,1938.80 257.00,1932.00
             262.70,1934.78 263.70,1937.21 270.00,1935.00
             276.33,1942.20 282.52,1939.01 291.00,1939.00
             293.28,1929.68 301.91,1924.11 304.84,1913.91
             306.78,1907.15 308.57,1904.07 301.00,1901.00
             301.22,1898.29 301.50,1894.44 305.06,1894.10 Z" />
</svg>
