<?xml version="1.0" encoding="UTF-8" standalone="no"?>
<!DOCTYPE svg PUBLIC "-//W3C//DTD SVG 20010904//EN"
              "http://www.w3.org/TR/2001/REC-SVG-20010904/DTD/svg10.dtd">

<svg xmlns="http://www.w3.org/2000/svg"
     width="5.55486in" height="5.55486in"
     viewBox="0 0 400 400">
  <path id="Selection"
        fill="green" stroke="black" stroke-width="1"
        d="M 184.00,146.00
           C 196.08,146.00 206.73,146.13 215.48,136.00
             222.57,127.80 227.45,114.30 231.76,111.29
             234.39,109.45 237.56,110.32 241.00,109.62
             241.00,109.62 251.00,106.00 251.00,106.00
             249.53,114.78 252.50,115.20 253.74,123.00
             254.33,126.68 252.67,137.86 250.41,140.66
             248.61,142.88 246.60,143.35 244.00,144.00
             244.00,144.00 244.00,155.00 244.00,155.00
             244.00,155.00 240.00,154.00 240.00,154.00
             240.00,154.00 240.00,179.00 240.00,179.00
             240.00,179.00 231.00,179.00 231.00,179.00
             231.00,179.00 232.00,186.00 232.00,186.00
             232.00,186.00 241.00,186.00 241.00,186.00
             240.63,188.07 239.97,190.85 240.31,192.91
             240.66,194.93 241.65,196.17 242.91,197.70
             248.25,204.19 258.42,202.00 266.00,202.00
             266.00,211.83 266.71,210.62 261.21,218.51
             260.23,219.93 259.36,222.02 257.70,222.86
             257.70,222.86 250.00,222.86 250.00,222.86
             250.00,222.86 250.00,217.00 250.00,217.00
             247.81,217.29 244.00,217.78 242.00,218.47
             239.30,219.40 237.36,220.86 235.48,223.00
             226.86,232.87 238.03,235.72 232.00,250.00
             230.58,249.18 228.56,247.88 227.00,247.51
             221.26,246.15 216.16,250.69 215.00,256.00
             225.03,258.27 222.73,262.94 218.94,263.58
             216.79,263.95 212.82,262.36 210.00,262.05
             210.00,262.05 202.00,262.05 202.00,262.05
             202.00,262.05 209.00,276.00 209.00,276.00
             201.73,276.49 196.58,278.04 196.00,286.00
             196.00,286.00 200.00,286.00 200.00,286.00
             200.00,286.00 197.00,290.24 197.00,290.24
             185.04,283.38 179.66,285.48 168.00,290.24
             168.00,290.24 158.00,294.00 158.00,294.00
             158.00,291.21 158.26,285.49 157.26,283.09
             155.50,278.87 151.62,278.65 149.54,277.04
             146.96,275.02 147.93,274.17 144.00,272.00
             143.71,263.49 138.57,266.37 134.00,270.00
             134.47,266.31 135.15,265.32 136.48,261.96
             139.85,253.43 142.34,248.41 152.00,246.00
             151.84,232.70 144.39,230.77 141.02,224.00
             139.55,221.04 140.00,214.48 140.00,211.00
             140.00,211.00 148.00,215.00 148.00,215.00
             148.71,209.11 151.31,208.97 145.00,205.00
             149.43,200.17 144.98,199.66 142.92,194.00
             141.67,190.90 142.15,189.02 142.92,186.00
             142.92,186.00 155.48,190.82 155.48,190.82
             155.48,190.82 163.75,198.20 163.75,198.20
             163.75,198.20 172.00,198.20 172.00,198.20
             172.00,198.20 170.00,190.00 170.00,190.00
             173.19,183.51 175.49,184.18 178.42,180.55
             181.78,176.39 178.62,174.62 186.00,174.00
             185.73,183.34 180.64,183.89 180.48,189.09
             180.34,193.67 185.29,198.88 188.00,190.00
             194.14,193.98 190.05,197.65 200.00,198.00
             200.14,191.50 203.99,179.82 194.00,180.00
             196.14,174.08 194.46,176.01 194.55,171.83
             194.55,171.83 195.68,166.00 195.68,166.00
             196.65,160.59 196.07,159.52 202.00,158.00
             202.60,159.28 203.11,160.64 203.99,161.77
             208.90,168.08 214.40,160.07 219.28,158.48
             222.02,157.59 226.16,158.63 227.72,155.69
             229.74,151.89 225.82,150.48 223.00,150.00
             223.00,150.00 224.00,146.00 224.00,146.00
             224.00,146.00 210.00,149.90 210.00,149.90
             210.00,149.90 185.00,149.90 185.00,149.90
             169.84,150.03 178.27,156.20 166.00,155.00
             166.00,155.00 162.00,166.00 162.00,166.00
             152.51,168.89 159.49,173.38 152.00,176.00
             152.00,176.00 152.99,163.09 152.99,163.09
             152.99,163.09 166.00,144.00 166.00,144.00
             173.27,146.73 176.45,146.00 184.00,146.00 Z
           M 229.00,218.00
           C 229.00,218.00 230.00,219.00 230.00,219.00
             230.00,219.00 230.00,218.00 230.00,218.00
             230.00,218.00 229.00,218.00 229.00,218.00 Z
           M 231.00,225.00
           C 231.00,225.00 228.00,224.00 228.00,224.00
             228.00,226.23 229.42,225.54 231.00,225.00 Z" />
</svg>
