<?xml version="1.0" encoding="UTF-8" standalone="no"?>
<!DOCTYPE svg PUBLIC "-//W3C//DTD SVG 20010904//EN"
              "http://www.w3.org/TR/2001/REC-SVG-20010904/DTD/svg10.dtd">

<svg xmlns="http://www.w3.org/2000/svg"
     width="43.6334in" height="36.3288in"
     viewBox="0 0 3142 2616">
  <path id="Norway"
        fill="Blue" stroke="black" stroke-width="1"
        d="M 1643.57,0.99
           C 1645.68,-0.49 1653.19,0.00 1656.00,0.00
             1656.00,0.00 1688.00,0.00 1688.00,0.00
             1686.58,5.85 1687.10,8.24 1687.00,14.00
             1686.85,22.12 1683.89,21.10 1678.76,28.00
             1672.52,36.42 1671.01,42.68 1666.83,51.71
             1665.83,53.87 1662.76,58.97 1662.84,60.99
             1663.03,65.42 1671.66,68.04 1675.00,70.19
             1681.39,74.30 1681.03,77.13 1681.00,84.00
             1680.98,87.53 1681.03,88.52 1680.14,92.00
             1679.32,95.18 1678.17,101.34 1675.53,103.35
             1672.99,105.27 1668.77,103.28 1666.00,102.46
             1658.95,100.38 1659.09,101.51 1655.00,100.53
             1651.60,99.72 1649.84,98.11 1646.00,98.57
             1642.31,99.02 1640.12,100.98 1637.00,102.17
             1634.25,103.21 1631.75,103.02 1629.26,104.89
             1626.74,106.78 1626.10,109.50 1622.81,112.48
             1620.77,114.34 1617.39,116.06 1616.02,118.32
             1616.02,118.32 1613.00,131.00 1613.00,131.00
             1613.00,131.00 1610.00,131.00 1610.00,131.00
             1610.00,131.00 1611.00,136.00 1611.00,136.00
             1604.11,139.55 1605.00,139.43 1605.00,153.00
             1600.07,155.57 1598.26,159.78 1597.00,165.00
             1597.00,165.00 1594.00,165.00 1594.00,165.00
             1594.58,177.35 1599.30,178.19 1598.99,190.00
             1598.76,198.18 1594.21,205.42 1598.99,214.00
             1594.81,218.03 1593.56,225.19 1595.38,230.83
             1595.98,232.70 1599.54,238.22 1600.86,242.28
             1601.10,244.37 1601.00,246.84 1600.86,249.00
             1600.86,249.00 1600.86,265.00 1600.86,265.00
             1600.92,270.88 1600.28,270.13 1599.12,275.00
             1599.12,275.00 1599.12,282.00 1599.12,282.00
             1598.26,287.39 1597.05,285.88 1597.00,294.00
             1596.98,296.85 1596.73,301.14 1597.84,303.72
             1600.21,309.24 1604.35,309.96 1605.00,319.06
             1607.48,318.89 1611.81,318.12 1613.91,319.06
             1620.30,322.12 1624.46,336.28 1622.57,342.96
             1621.00,348.50 1617.67,346.65 1617.00,355.00
             1611.46,355.02 1598.71,357.46 1597.37,364.08
             1596.82,366.78 1601.19,378.37 1602.37,381.42
             1605.40,389.29 1610.45,404.78 1609.82,413.00
             1609.24,420.51 1606.65,421.49 1605.51,425.17
             1604.79,427.46 1605.04,431.49 1605.00,434.00
             1604.89,440.13 1602.25,450.28 1595.71,452.52
             1592.05,453.77 1580.60,451.32 1577.74,458.13
             1575.48,463.52 1580.94,466.58 1579.89,470.97
             1578.69,475.95 1570.57,478.32 1569.60,485.00
             1569.60,485.00 1574.27,506.96 1574.27,506.96
             1574.57,510.17 1573.06,511.07 1572.26,514.09
             1569.79,523.32 1572.41,523.70 1565.00,533.00
             1564.49,530.85 1562.37,523.99 1561.15,522.47
             1557.00,517.32 1553.15,521.38 1553.00,510.00
             1553.00,510.00 1536.00,509.00 1536.00,509.00
             1537.07,500.40 1534.34,501.54 1533.26,495.00
             1532.38,489.62 1535.13,488.18 1534.68,484.07
             1534.20,479.67 1531.04,476.54 1531.00,465.00
             1531.00,465.00 1537.00,467.00 1537.00,467.00
             1537.22,459.13 1542.93,452.39 1530.00,447.00
             1530.00,447.00 1522.02,454.34 1522.02,454.34
             1522.02,454.34 1521.00,471.00 1521.00,471.00
             1521.00,471.00 1525.00,471.00 1525.00,471.00
             1525.00,471.00 1523.00,476.00 1523.00,476.00
             1523.00,476.00 1515.00,475.00 1515.00,475.00
             1515.00,475.00 1515.00,479.00 1515.00,479.00
             1508.92,479.34 1511.01,482.40 1512.74,486.28
             1514.71,490.70 1514.44,492.50 1519.00,495.00
             1519.00,495.00 1519.00,503.00 1519.00,503.00
             1510.15,501.55 1511.00,508.58 1511.00,515.00
             1506.61,515.36 1505.13,515.47 1504.00,520.00
             1504.00,520.00 1494.00,527.00 1494.00,527.00
             1494.00,527.00 1493.00,516.00 1493.00,516.00
             1493.00,516.00 1487.00,517.00 1487.00,517.00
             1484.74,508.75 1478.88,511.32 1478.86,515.05
             1478.84,518.61 1482.88,520.65 1485.00,525.00
             1485.00,525.00 1469.02,530.33 1469.02,530.33
             1469.02,530.33 1464.05,534.14 1464.05,534.14
             1464.05,534.14 1468.00,542.00 1468.00,542.00
             1459.28,544.48 1454.46,540.28 1453.00,549.00
             1453.00,549.00 1457.00,550.00 1457.00,550.00
             1446.46,557.82 1451.99,554.25 1445.17,561.53
             1441.86,565.07 1440.73,563.44 1439.00,569.00
             1431.32,570.69 1434.34,573.57 1428.81,577.94
             1422.52,582.92 1418.87,580.70 1412.00,588.00
             1410.56,582.53 1409.68,581.46 1404.00,581.00
             1403.89,583.36 1403.77,585.71 1403.14,588.00
             1400.54,597.47 1389.66,595.00 1382.00,595.00
             1378.74,595.00 1370.89,595.69 1368.60,593.40
             1366.49,591.29 1367.00,585.86 1367.00,583.00
             1367.00,583.00 1356.00,583.00 1356.00,583.00
             1356.00,583.00 1361.00,573.00 1361.00,573.00
             1361.00,573.00 1347.00,571.51 1347.00,571.51
             1347.00,571.51 1339.00,573.00 1339.00,573.00
             1337.10,565.96 1331.95,563.48 1325.00,564.00
             1325.00,564.00 1323.00,553.00 1323.00,553.00
             1306.82,551.84 1300.22,527.95 1311.00,517.00
             1316.16,522.25 1316.05,518.15 1320.83,519.64
             1323.81,520.56 1330.23,528.21 1334.63,524.98
             1338.20,522.37 1333.06,518.38 1338.15,515.70
             1344.68,512.26 1353.43,514.44 1355.00,505.00
             1355.00,505.00 1331.00,511.00 1331.00,511.00
             1331.00,511.00 1327.00,506.00 1327.00,506.00
             1333.26,501.85 1337.41,502.45 1335.00,495.00
             1342.41,490.93 1346.38,489.08 1355.00,489.00
             1355.00,489.00 1355.00,483.00 1355.00,483.00
             1349.62,483.00 1341.21,484.56 1344.07,476.02
             1344.42,474.98 1345.13,473.39 1345.90,472.60
             1347.61,470.82 1349.82,471.18 1351.99,470.50
             1357.19,468.85 1358.63,466.08 1359.00,461.00
             1359.00,461.00 1347.00,463.00 1347.00,463.00
             1347.00,463.00 1351.00,455.00 1351.00,455.00
             1342.09,457.43 1340.86,460.28 1339.00,469.00
             1339.00,469.00 1319.00,464.00 1319.00,464.00
             1319.00,464.00 1319.00,471.00 1319.00,471.00
             1319.00,471.00 1316.80,471.00 1316.80,471.00
             1316.80,471.00 1316.80,460.15 1316.80,460.15
             1316.99,457.56 1319.32,456.22 1321.00,461.00
             1321.00,461.00 1335.00,455.00 1335.00,455.00
             1335.00,455.00 1334.00,451.00 1334.00,451.00
             1338.56,450.28 1338.17,449.68 1342.00,447.95
             1348.51,445.01 1352.29,445.82 1353.00,437.00
             1339.67,437.05 1344.61,440.60 1335.00,443.00
             1335.00,443.00 1337.00,437.00 1337.00,437.00
             1337.00,437.00 1329.00,441.00 1329.00,441.00
             1329.00,441.00 1327.00,436.00 1327.00,436.00
             1327.00,436.00 1339.00,435.00 1339.00,435.00
             1339.10,430.92 1339.82,423.45 1344.14,421.60
             1346.00,420.80 1350.81,421.00 1353.00,421.00
             1353.00,421.00 1353.00,413.00 1353.00,413.00
             1353.00,413.00 1348.00,414.00 1348.00,414.00
             1350.20,405.23 1356.08,402.19 1363.00,397.00
             1361.60,408.04 1349.87,420.72 1365.00,427.00
             1365.00,427.00 1369.00,399.00 1369.00,399.00
             1374.17,397.50 1374.47,395.70 1377.17,394.90
             1382.45,393.34 1389.28,398.53 1391.00,388.00
             1391.00,388.00 1386.00,388.00 1386.00,388.00
             1386.00,388.00 1387.00,379.00 1387.00,379.00
             1384.02,379.17 1380.81,379.32 1378.59,381.65
             1375.92,384.45 1377.36,388.56 1372.00,388.00
             1372.00,388.00 1375.00,383.00 1375.00,383.00
             1375.00,383.00 1356.00,389.89 1356.00,389.89
             1356.00,389.89 1346.51,393.90 1346.51,393.90
             1346.51,393.90 1343.36,399.55 1343.36,399.55
             1343.36,399.55 1331.00,409.00 1331.00,409.00
             1331.00,409.00 1331.00,401.00 1331.00,401.00
             1331.00,401.00 1327.00,401.00 1327.00,401.00
             1330.27,395.70 1333.01,394.90 1334.26,391.90
             1335.46,389.02 1334.94,378.73 1335.00,375.00
             1335.18,365.64 1341.33,365.52 1336.77,360.24
             1335.96,359.31 1334.85,358.43 1333.57,358.34
             1330.58,358.12 1326.40,363.11 1323.00,365.00
             1323.00,365.00 1321.69,356.30 1321.69,356.30
             1323.04,352.58 1327.23,355.04 1329.00,347.00
             1329.00,347.00 1321.17,345.76 1321.17,345.76
             1321.17,345.76 1312.00,349.00 1312.00,349.00
             1312.00,349.00 1317.00,337.00 1317.00,337.00
             1317.00,337.00 1326.00,341.43 1326.00,341.43
             1326.00,341.43 1337.00,337.00 1337.00,337.00
             1340.02,341.16 1342.65,338.07 1345.00,335.00
             1345.00,335.00 1347.00,335.00 1347.00,335.00
             1347.00,335.00 1355.00,337.00 1355.00,337.00
             1355.35,341.24 1355.38,341.68 1359.00,344.00
             1359.00,344.00 1358.00,349.00 1358.00,349.00
             1369.76,347.04 1364.34,341.14 1374.00,338.16
             1377.30,337.14 1379.78,338.33 1383.00,339.00
             1385.35,348.90 1385.06,344.72 1379.00,356.00
             1379.00,356.00 1391.00,353.00 1391.00,353.00
             1391.00,353.00 1389.00,361.00 1389.00,361.00
             1389.00,361.00 1397.00,361.00 1397.00,361.00
             1396.99,350.45 1396.36,351.36 1392.00,342.00
             1404.29,339.80 1400.09,342.58 1410.10,345.00
             1409.84,343.33 1409.38,340.85 1410.10,339.31
             1411.42,336.99 1414.56,336.91 1416.89,335.55
             1419.94,333.77 1420.30,332.20 1421.00,328.93
             1421.00,328.93 1415.00,328.93 1415.00,328.93
             1413.03,328.54 1411.03,327.85 1410.15,325.85
             1407.30,319.35 1424.86,311.04 1415.67,306.08
             1411.67,303.92 1409.87,309.49 1407.53,311.40
             1405.50,313.07 1403.46,312.91 1401.00,313.00
             1401.00,313.00 1401.00,332.00 1401.00,332.00
             1401.00,332.00 1397.00,327.00 1397.00,327.00
             1397.00,327.00 1399.00,323.00 1399.00,323.00
             1399.00,323.00 1393.00,323.00 1393.00,323.00
             1390.00,335.08 1383.96,328.77 1376.00,327.00
             1377.53,324.61 1390.46,313.68 1377.00,310.00
             1376.97,317.67 1377.18,319.37 1369.00,318.00
             1368.94,324.22 1368.89,326.67 1364.00,331.00
             1362.30,329.65 1356.53,324.74 1354.91,324.47
             1352.59,323.52 1350.77,324.70 1348.00,324.47
             1344.94,324.85 1343.65,323.77 1340.00,324.47
             1333.74,325.44 1328.43,329.95 1323.00,333.00
             1323.00,333.00 1323.00,317.00 1323.00,317.00
             1323.00,317.00 1312.00,316.00 1312.00,316.00
             1312.00,316.00 1324.00,313.13 1324.00,313.13
             1330.78,312.37 1336.46,315.35 1339.00,307.00
             1339.00,307.00 1331.00,305.00 1331.00,305.00
             1333.76,305.00 1349.05,305.79 1345.83,299.27
             1344.17,295.90 1331.58,297.00 1328.00,297.00
             1331.50,290.86 1330.99,292.54 1331.00,285.00
             1331.00,285.00 1325.00,284.00 1325.00,284.00
             1325.00,284.00 1328.51,273.08 1328.51,273.08
             1328.51,273.08 1335.00,272.00 1335.00,272.00
             1335.00,272.00 1335.00,267.00 1335.00,267.00
             1335.00,267.00 1341.00,268.00 1341.00,268.00
             1341.00,268.00 1339.00,275.00 1339.00,275.00
             1339.00,275.00 1351.00,273.00 1351.00,273.00
             1351.00,273.00 1347.00,283.00 1347.00,283.00
             1347.00,283.00 1357.00,279.00 1357.00,279.00
             1360.92,284.75 1363.49,278.48 1368.00,278.09
             1370.60,277.86 1372.61,280.07 1376.00,279.69
             1379.12,279.34 1381.73,276.82 1384.00,276.23
             1386.22,275.64 1388.79,276.56 1391.00,277.00
             1390.96,273.82 1391.21,269.40 1387.66,267.91
             1383.63,266.21 1379.92,270.84 1375.00,270.62
             1375.00,270.62 1369.00,269.26 1369.00,269.26
             1366.65,268.87 1363.23,269.22 1361.26,268.42
             1361.26,268.42 1348.00,259.00 1348.00,259.00
             1353.73,258.54 1354.50,257.46 1358.00,253.00
             1364.16,256.91 1363.74,256.97 1371.00,257.00
             1371.00,257.00 1372.00,249.00 1372.00,249.00
             1370.40,248.87 1368.72,248.91 1367.31,247.98
             1364.63,246.19 1364.31,240.08 1365.99,237.55
             1367.59,235.15 1371.40,233.89 1374.00,233.00
             1374.00,233.00 1374.72,240.00 1374.72,240.00
             1374.72,240.00 1377.00,255.00 1377.00,255.00
             1391.11,253.86 1382.44,241.65 1381.00,234.00
             1386.26,232.85 1386.60,231.65 1389.00,227.00
             1389.00,227.00 1391.00,227.00 1391.00,227.00
             1393.37,231.71 1397.07,238.50 1396.02,244.00
             1395.03,249.11 1389.21,252.70 1391.28,256.69
             1392.96,259.92 1403.09,259.71 1405.40,257.40
             1406.73,256.08 1406.72,254.68 1407.00,253.00
             1407.00,253.00 1401.00,251.00 1401.00,251.00
             1402.99,246.75 1410.35,239.54 1413.00,247.00
             1413.00,247.00 1418.84,247.00 1418.84,247.00
             1418.95,245.68 1419.02,244.30 1418.84,243.00
             1416.41,234.10 1407.57,239.00 1403.57,235.11
             1400.71,232.32 1403.13,227.04 1400.83,223.26
             1398.76,219.87 1391.90,218.28 1387.00,214.00
             1388.35,213.40 1390.86,211.97 1392.17,211.80
             1395.21,211.40 1402.68,214.75 1404.18,217.54
             1405.06,219.19 1404.95,221.19 1405.00,223.00
             1405.00,223.00 1411.00,223.00 1411.00,223.00
             1411.19,217.62 1411.33,215.95 1417.00,215.00
             1417.00,215.00 1415.00,223.00 1415.00,223.00
             1415.00,223.00 1423.00,224.48 1423.00,224.48
             1428.42,224.38 1432.58,219.82 1434.00,215.00
             1428.24,214.93 1426.52,215.26 1426.00,209.23
             1426.00,209.23 1440.00,209.23 1440.00,209.23
             1440.00,209.23 1451.11,215.00 1451.11,215.00
             1451.11,215.00 1451.11,211.00 1451.11,211.00
             1451.11,211.00 1451.11,208.15 1451.11,208.15
             1453.31,201.38 1458.39,211.20 1460.13,212.69
             1462.52,214.72 1464.07,214.76 1467.00,215.00
             1466.87,202.17 1462.76,205.72 1458.00,199.00
             1458.00,199.00 1470.00,201.00 1470.00,201.00
             1469.71,196.13 1469.56,195.42 1466.00,192.00
             1469.81,189.46 1471.46,189.70 1473.00,185.00
             1473.00,185.00 1468.00,185.00 1468.00,185.00
             1468.00,185.00 1469.00,179.00 1469.00,179.00
             1469.00,179.00 1473.00,179.00 1473.00,179.00
             1472.12,169.94 1475.17,171.00 1485.00,171.00
             1485.00,171.00 1485.00,167.00 1485.00,167.00
             1485.00,167.00 1473.00,165.00 1473.00,165.00
             1473.00,165.00 1473.00,161.00 1473.00,161.00
             1480.03,158.56 1485.17,150.70 1486.72,157.23
             1486.72,157.23 1486.72,162.00 1486.72,162.00
             1486.72,162.00 1486.72,166.00 1486.72,166.00
             1491.09,164.71 1490.85,163.75 1494.09,161.96
             1497.98,159.82 1509.21,158.53 1505.00,152.00
             1505.00,152.00 1507.00,145.00 1507.00,145.00
             1507.00,145.00 1513.00,145.00 1513.00,145.00
             1513.00,145.00 1514.00,140.00 1514.00,140.00
             1514.00,140.00 1523.00,157.00 1523.00,157.00
             1514.83,157.94 1515.70,163.60 1518.21,164.68
             1520.00,165.45 1521.54,163.69 1524.09,163.75
             1526.88,163.81 1527.23,165.19 1533.00,165.00
             1537.50,167.49 1538.54,162.13 1537.77,160.39
             1536.73,158.08 1532.27,157.08 1530.00,156.00
             1541.58,151.19 1548.50,159.04 1556.94,157.40
             1561.34,156.55 1560.95,152.51 1561.00,149.00
             1561.00,149.00 1558.00,147.00 1558.00,147.00
             1566.40,146.91 1565.00,140.51 1563.00,135.00
             1568.65,134.86 1579.90,132.15 1582.81,126.81
             1585.15,122.53 1581.56,118.68 1581.50,115.17
             1581.50,115.17 1582.94,108.96 1582.94,108.96
             1582.94,108.96 1582.94,95.00 1582.94,95.00
             1579.22,95.01 1575.51,94.68 1572.55,97.53
             1570.19,99.81 1569.56,103.83 1566.70,106.44
             1562.42,110.35 1559.18,108.28 1557.00,115.00
             1550.49,115.38 1549.09,116.51 1548.00,123.00
             1548.00,123.00 1559.00,123.00 1559.00,123.00
             1556.11,129.03 1551.35,130.65 1545.00,131.00
             1545.00,131.00 1543.40,135.66 1543.40,135.66
             1543.40,135.66 1527.00,145.00 1527.00,145.00
             1526.83,140.11 1526.81,139.26 1523.00,136.00
             1527.31,131.33 1530.96,131.34 1533.24,127.87
             1535.07,125.09 1534.46,122.07 1530.94,121.37
             1527.75,120.73 1525.79,122.83 1522.00,122.00
             1522.00,122.00 1529.00,117.11 1529.00,117.11
             1535.27,113.39 1539.33,113.26 1540.00,105.00
             1540.00,105.00 1534.00,104.00 1534.00,104.00
             1534.00,104.00 1539.00,93.00 1539.00,93.00
             1539.00,93.00 1546.94,93.00 1546.94,93.00
             1546.94,93.00 1546.94,84.01 1546.94,84.01
             1548.91,76.13 1558.83,77.00 1565.00,77.00
             1565.00,77.00 1563.00,66.00 1563.00,66.00
             1567.85,66.13 1570.09,65.71 1571.00,71.00
             1571.00,71.00 1577.00,71.00 1577.00,71.00
             1573.89,76.21 1573.20,75.73 1573.00,82.00
             1573.00,82.00 1579.00,82.00 1579.00,82.00
             1580.06,75.79 1586.93,72.10 1592.00,69.00
             1593.02,70.64 1594.03,72.81 1596.11,73.32
             1597.99,73.77 1600.38,72.36 1599.66,70.23
             1598.88,67.89 1595.86,67.76 1593.00,62.00
             1599.19,58.29 1599.28,57.38 1597.00,51.00
             1603.00,49.25 1606.61,47.41 1608.00,41.00
             1608.00,41.00 1601.00,41.00 1601.00,41.00
             1601.00,41.00 1601.00,35.00 1601.00,35.00
             1604.53,33.79 1608.93,32.05 1611.09,28.81
             1613.64,25.01 1611.66,22.07 1607.00,23.03
             1607.00,23.03 1601.00,25.00 1601.00,25.00
             1605.78,18.07 1610.08,22.49 1618.00,20.39
             1626.51,18.14 1631.24,11.20 1641.00,9.00
             1641.09,6.23 1641.02,2.78 1643.57,0.99 Z" />
</svg>
