<?xml version="1.0" encoding="UTF-8" standalone="no"?>
<!DOCTYPE svg PUBLIC "-//W3C//DTD SVG 20010904//EN"
              "http://www.w3.org/TR/2001/REC-SVG-20010904/DTD/svg10.dtd">

<svg xmlns="http://www.w3.org/2000/svg"
     width="6.94358in" height="9.72101in"
     viewBox="0 0 500 700">
  <path id="Selection"
        fill="green" stroke="black" stroke-width="1"
        d="M 397.57,53.99
           C 399.68,52.51 407.19,53.00 410.00,53.00
             410.00,53.00 442.00,53.00 442.00,53.00
             440.58,58.85 441.10,61.24 441.00,67.00
             440.85,75.12 437.89,74.10 432.76,81.00
             426.52,89.42 425.01,95.68 420.83,104.71
             419.83,106.87 416.76,111.97 416.84,113.99
             417.03,118.42 425.66,121.04 429.00,123.19
             435.39,127.30 435.03,130.13 435.00,137.00
             434.98,140.53 435.03,141.52 434.14,145.00
             433.32,148.18 432.17,154.34 429.53,156.35
             426.99,158.27 422.77,156.28 420.00,155.46
             412.95,153.38 413.09,154.51 409.00,153.53
             405.60,152.72 403.84,151.11 400.00,151.57
             396.31,152.02 394.12,153.98 391.00,155.17
             388.25,156.21 385.75,156.02 383.26,157.89
             380.74,159.78 380.10,162.50 376.81,165.48
             374.77,167.34 371.39,169.06 370.02,171.32
             370.02,171.32 367.00,184.00 367.00,184.00
             367.00,184.00 364.00,184.00 364.00,184.00
             364.00,184.00 365.00,189.00 365.00,189.00
             358.11,192.55 359.00,192.43 359.00,206.00
             354.07,208.57 352.26,212.78 351.00,218.00
             351.00,218.00 348.00,218.00 348.00,218.00
             348.58,230.35 353.30,231.19 352.99,243.00
             352.76,251.18 348.21,258.42 352.99,267.00
             348.81,271.03 347.56,278.19 349.38,283.83
             349.98,285.70 353.54,291.22 354.86,295.28
             355.10,297.37 355.00,299.84 354.86,302.00
             354.86,302.00 354.86,318.00 354.86,318.00
             354.92,323.88 354.28,323.13 353.12,328.00
             353.12,328.00 353.12,335.00 353.12,335.00
             352.26,340.39 351.05,338.88 351.00,347.00
             350.98,349.85 350.73,354.14 351.84,356.72
             354.21,362.24 358.35,362.96 359.00,372.06
             361.48,371.89 365.81,371.12 367.91,372.06
             374.30,375.12 378.46,389.28 376.57,395.96
             375.00,401.50 371.67,399.65 371.00,408.00
             365.46,408.02 352.71,410.46 351.37,417.08
             350.82,419.78 355.19,431.37 356.37,434.42
             359.40,442.29 364.45,457.78 363.82,466.00
             363.24,473.51 360.65,474.49 359.51,478.17
             358.79,480.46 359.04,484.49 359.00,487.00
             358.89,493.13 356.25,503.28 349.71,505.52
             346.05,506.77 334.60,504.32 331.74,511.13
             329.48,516.52 334.94,519.58 333.89,523.97
             332.69,528.95 324.57,531.32 323.60,538.00
             323.60,538.00 328.27,559.96 328.27,559.96
             328.57,563.17 327.06,564.07 326.26,567.09
             323.79,576.32 326.41,576.70 319.00,586.00
             318.49,583.85 316.37,576.99 315.15,575.47
             311.00,570.32 307.15,574.38 307.00,563.00
             307.00,563.00 290.00,562.00 290.00,562.00
             291.07,553.40 288.34,554.54 287.26,548.00
             286.38,542.62 289.13,541.18 288.68,537.07
             288.20,532.67 285.04,529.54 285.00,518.00
             285.00,518.00 291.00,520.00 291.00,520.00
             291.22,512.13 296.93,505.39 284.00,500.00
             284.00,500.00 276.02,507.34 276.02,507.34
             276.02,507.34 275.00,524.00 275.00,524.00
             275.00,524.00 279.00,524.00 279.00,524.00
             279.00,524.00 277.00,529.00 277.00,529.00
             277.00,529.00 269.00,528.00 269.00,528.00
             269.00,528.00 269.00,532.00 269.00,532.00
             262.92,532.34 265.01,535.40 266.74,539.28
             268.71,543.70 268.44,545.50 273.00,548.00
             273.00,548.00 273.00,556.00 273.00,556.00
             264.15,554.55 265.00,561.58 265.00,568.00
             260.61,568.36 259.13,568.47 258.00,573.00
             258.00,573.00 248.00,580.00 248.00,580.00
             248.00,580.00 247.00,569.00 247.00,569.00
             247.00,569.00 241.00,570.00 241.00,570.00
             238.74,561.75 232.88,564.32 232.86,568.05
             232.84,571.61 236.88,573.65 239.00,578.00
             239.00,578.00 223.02,583.33 223.02,583.33
             223.02,583.33 218.05,587.14 218.05,587.14
             218.05,587.14 222.00,595.00 222.00,595.00
             213.28,597.48 208.46,593.28 207.00,602.00
             207.00,602.00 211.00,603.00 211.00,603.00
             200.46,610.82 205.99,607.25 199.17,614.53
             195.86,618.07 194.73,616.44 193.00,622.00
             185.32,623.69 188.34,626.57 182.81,630.94
             176.52,635.92 172.87,633.70 166.00,641.00
             164.56,635.53 163.68,634.46 158.00,634.00
             157.89,636.36 157.77,638.71 157.14,641.00
             154.54,650.47 143.66,648.00 136.00,648.00
             132.74,648.00 124.89,648.69 122.60,646.40
             120.49,644.29 121.00,638.86 121.00,636.00
             121.00,636.00 110.00,636.00 110.00,636.00
             110.00,636.00 115.00,626.00 115.00,626.00
             115.00,626.00 101.00,624.51 101.00,624.51
             101.00,624.51 93.00,626.00 93.00,626.00
             91.10,618.96 85.95,616.48 79.00,617.00
             79.00,617.00 77.00,606.00 77.00,606.00
             60.82,604.84 54.22,580.95 65.00,570.00
             70.16,575.25 70.05,571.15 74.83,572.64
             77.81,573.56 84.23,581.21 88.63,577.98
             92.20,575.37 87.06,571.38 92.15,568.70
             98.68,565.26 107.43,567.44 109.00,558.00
             109.00,558.00 85.00,564.00 85.00,564.00
             85.00,564.00 81.00,559.00 81.00,559.00
             87.26,554.85 91.41,555.45 89.00,548.00
             96.41,543.93 100.38,542.08 109.00,542.00
             109.00,542.00 109.00,536.00 109.00,536.00
             103.62,536.00 95.21,537.56 98.07,529.02
             98.42,527.98 99.13,526.39 99.90,525.60
             101.61,523.82 103.82,524.18 105.99,523.50
             111.19,521.85 112.63,519.08 113.00,514.00
             113.00,514.00 101.00,516.00 101.00,516.00
             101.00,516.00 105.00,508.00 105.00,508.00
             96.09,510.43 94.86,513.28 93.00,522.00
             93.00,522.00 73.00,517.00 73.00,517.00
             73.00,517.00 73.00,524.00 73.00,524.00
             73.00,524.00 70.80,524.00 70.80,524.00
             70.80,524.00 70.80,513.15 70.80,513.15
             70.99,510.56 73.32,509.22 75.00,514.00
             75.00,514.00 89.00,508.00 89.00,508.00
             89.00,508.00 88.00,504.00 88.00,504.00
             92.56,503.28 92.17,502.68 96.00,500.95
             102.51,498.01 106.29,498.82 107.00,490.00
             93.67,490.05 98.61,493.60 89.00,496.00
             89.00,496.00 91.00,490.00 91.00,490.00
             91.00,490.00 83.00,494.00 83.00,494.00
             83.00,494.00 81.00,489.00 81.00,489.00
             81.00,489.00 93.00,488.00 93.00,488.00
             93.10,483.92 93.82,476.45 98.14,474.60
             100.00,473.80 104.81,474.00 107.00,474.00
             107.00,474.00 107.00,466.00 107.00,466.00
             107.00,466.00 102.00,467.00 102.00,467.00
             104.20,458.23 110.08,455.19 117.00,450.00
             115.60,461.04 103.87,473.72 119.00,480.00
             119.00,480.00 123.00,452.00 123.00,452.00
             128.17,450.50 128.47,448.70 131.17,447.90
             136.45,446.34 143.28,451.53 145.00,441.00
             145.00,441.00 140.00,441.00 140.00,441.00
             140.00,441.00 141.00,432.00 141.00,432.00
             138.02,432.17 134.81,432.32 132.59,434.65
             129.92,437.45 131.36,441.56 126.00,441.00
             126.00,441.00 129.00,436.00 129.00,436.00
             129.00,436.00 110.00,442.89 110.00,442.89
             110.00,442.89 100.51,446.90 100.51,446.90
             100.51,446.90 97.36,452.55 97.36,452.55
             97.36,452.55 85.00,462.00 85.00,462.00
             85.00,462.00 85.00,454.00 85.00,454.00
             85.00,454.00 81.00,454.00 81.00,454.00
             84.27,448.70 87.01,447.90 88.26,444.90
             89.46,442.02 88.94,431.73 89.00,428.00
             89.18,418.64 95.33,418.52 90.77,413.24
             89.96,412.31 88.85,411.43 87.57,411.34
             84.58,411.12 80.40,416.11 77.00,418.00
             77.00,418.00 75.69,409.30 75.69,409.30
             77.04,405.58 81.23,408.04 83.00,400.00
             83.00,400.00 75.17,398.76 75.17,398.76
             75.17,398.76 66.00,402.00 66.00,402.00
             66.00,402.00 71.00,390.00 71.00,390.00
             71.00,390.00 80.00,394.43 80.00,394.43
             80.00,394.43 91.00,390.00 91.00,390.00
             94.02,394.16 96.65,391.07 99.00,388.00
             99.00,388.00 101.00,388.00 101.00,388.00
             101.00,388.00 109.00,390.00 109.00,390.00
             109.35,394.24 109.38,394.68 113.00,397.00
             113.00,397.00 112.00,402.00 112.00,402.00
             123.76,400.04 118.34,394.14 128.00,391.16
             131.30,390.14 133.78,391.33 137.00,392.00
             139.35,401.90 139.06,397.72 133.00,409.00
             133.00,409.00 145.00,406.00 145.00,406.00
             145.00,406.00 143.00,414.00 143.00,414.00
             143.00,414.00 151.00,414.00 151.00,414.00
             150.99,403.45 150.36,404.36 146.00,395.00
             158.29,392.80 154.09,395.58 164.10,398.00
             163.84,396.33 163.38,393.85 164.10,392.31
             165.42,389.99 168.56,389.91 170.89,388.55
             173.94,386.77 174.30,385.20 175.00,381.93
             175.00,381.93 169.00,381.93 169.00,381.93
             167.03,381.54 165.03,380.85 164.15,378.85
             161.30,372.35 178.86,364.04 169.67,359.08
             165.67,356.92 163.87,362.49 161.53,364.40
             159.50,366.07 157.46,365.91 155.00,366.00
             155.00,366.00 155.00,385.00 155.00,385.00
             155.00,385.00 151.00,380.00 151.00,380.00
             151.00,380.00 153.00,376.00 153.00,376.00
             153.00,376.00 147.00,376.00 147.00,376.00
             144.00,388.08 137.96,381.77 130.00,380.00
             131.53,377.61 144.46,366.68 131.00,363.00
             130.97,370.67 131.18,372.37 123.00,371.00
             122.94,377.22 122.89,379.67 118.00,384.00
             116.30,382.65 110.53,377.74 108.91,377.47
             106.59,376.52 104.77,377.70 102.00,377.47
             98.94,377.85 97.65,376.77 94.00,377.47
             87.74,378.44 82.43,382.95 77.00,386.00
             77.00,386.00 77.00,370.00 77.00,370.00
             77.00,370.00 66.00,369.00 66.00,369.00
             66.00,369.00 78.00,366.13 78.00,366.13
             84.78,365.37 90.46,368.35 93.00,360.00
             93.00,360.00 85.00,358.00 85.00,358.00
             87.76,358.00 103.05,358.79 99.83,352.27
             98.17,348.90 85.58,350.00 82.00,350.00
             85.50,343.86 84.99,345.54 85.00,338.00
             85.00,338.00 79.00,337.00 79.00,337.00
             79.00,337.00 82.51,326.08 82.51,326.08
             82.51,326.08 89.00,325.00 89.00,325.00
             89.00,325.00 89.00,320.00 89.00,320.00
             89.00,320.00 95.00,321.00 95.00,321.00
             95.00,321.00 93.00,328.00 93.00,328.00
             93.00,328.00 105.00,326.00 105.00,326.00
             105.00,326.00 101.00,336.00 101.00,336.00
             101.00,336.00 111.00,332.00 111.00,332.00
             114.92,337.75 117.49,331.48 122.00,331.09
             124.60,330.86 126.61,333.07 130.00,332.69
             133.12,332.34 135.73,329.82 138.00,329.23
             140.22,328.64 142.79,329.56 145.00,330.00
             144.96,326.82 145.21,322.40 141.66,320.91
             137.63,319.21 133.92,323.84 129.00,323.62
             129.00,323.62 123.00,322.26 123.00,322.26
             120.65,321.87 117.23,322.22 115.26,321.42
             115.26,321.42 102.00,312.00 102.00,312.00
             107.73,311.54 108.50,310.46 112.00,306.00
             118.16,309.91 117.74,309.97 125.00,310.00
             125.00,310.00 126.00,302.00 126.00,302.00
             124.40,301.87 122.72,301.91 121.31,300.98
             118.63,299.19 118.31,293.08 119.99,290.55
             121.59,288.15 125.40,286.89 128.00,286.00
             128.00,286.00 128.72,293.00 128.72,293.00
             128.72,293.00 131.00,308.00 131.00,308.00
             145.11,306.86 136.44,294.65 135.00,287.00
             140.26,285.85 140.60,284.65 143.00,280.00
             143.00,280.00 145.00,280.00 145.00,280.00
             147.37,284.71 151.07,291.50 150.02,297.00
             149.03,302.11 143.21,305.70 145.28,309.69
             146.96,312.92 157.09,312.71 159.40,310.40
             160.73,309.08 160.72,307.68 161.00,306.00
             161.00,306.00 155.00,304.00 155.00,304.00
             156.99,299.75 164.35,292.54 167.00,300.00
             167.00,300.00 172.84,300.00 172.84,300.00
             172.95,298.68 173.02,297.30 172.84,296.00
             170.41,287.10 161.57,292.00 157.57,288.11
             154.71,285.32 157.13,280.04 154.83,276.26
             152.76,272.87 145.90,271.28 141.00,267.00
             142.35,266.40 144.86,264.97 146.17,264.80
             149.21,264.40 156.68,267.75 158.18,270.54
             159.06,272.19 158.95,274.19 159.00,276.00
             159.00,276.00 165.00,276.00 165.00,276.00
             165.19,270.62 165.33,268.95 171.00,268.00
             171.00,268.00 169.00,276.00 169.00,276.00
             169.00,276.00 177.00,277.48 177.00,277.48
             182.42,277.38 186.58,272.82 188.00,268.00
             182.24,267.93 180.52,268.26 180.00,262.23
             180.00,262.23 194.00,262.23 194.00,262.23
             194.00,262.23 205.11,268.00 205.11,268.00
             205.11,268.00 205.11,264.00 205.11,264.00
             205.11,264.00 205.11,261.15 205.11,261.15
             207.31,254.38 212.39,264.20 214.13,265.69
             216.52,267.72 218.07,267.76 221.00,268.00
             220.87,255.17 216.76,258.72 212.00,252.00
             212.00,252.00 224.00,254.00 224.00,254.00
             223.71,249.13 223.56,248.42 220.00,245.00
             223.81,242.46 225.46,242.70 227.00,238.00
             227.00,238.00 222.00,238.00 222.00,238.00
             222.00,238.00 223.00,232.00 223.00,232.00
             223.00,232.00 227.00,232.00 227.00,232.00
             226.12,222.94 229.17,224.00 239.00,224.00
             239.00,224.00 239.00,220.00 239.00,220.00
             239.00,220.00 227.00,218.00 227.00,218.00
             227.00,218.00 227.00,214.00 227.00,214.00
             234.03,211.56 239.17,203.70 240.72,210.23
             240.72,210.23 240.72,215.00 240.72,215.00
             240.72,215.00 240.72,219.00 240.72,219.00
             245.09,217.71 244.85,216.75 248.09,214.96
             251.98,212.82 263.21,211.53 259.00,205.00
             259.00,205.00 261.00,198.00 261.00,198.00
             261.00,198.00 267.00,198.00 267.00,198.00
             267.00,198.00 268.00,193.00 268.00,193.00
             268.00,193.00 277.00,210.00 277.00,210.00
             268.83,210.94 269.70,216.60 272.21,217.68
             274.00,218.45 275.54,216.69 278.09,216.75
             280.88,216.81 281.23,218.19 287.00,218.00
             291.50,220.49 292.54,215.13 291.77,213.39
             290.73,211.08 286.27,210.08 284.00,209.00
             295.58,204.19 302.50,212.04 310.94,210.40
             315.34,209.55 314.95,205.51 315.00,202.00
             315.00,202.00 312.00,200.00 312.00,200.00
             320.40,199.91 319.00,193.51 317.00,188.00
             322.65,187.86 333.90,185.15 336.81,179.81
             339.15,175.53 335.56,171.68 335.50,168.17
             335.50,168.17 336.94,161.96 336.94,161.96
             336.94,161.96 336.94,148.00 336.94,148.00
             333.22,148.01 329.51,147.68 326.55,150.53
             324.19,152.81 323.56,156.83 320.70,159.44
             316.42,163.35 313.18,161.28 311.00,168.00
             304.49,168.38 303.09,169.51 302.00,176.00
             302.00,176.00 313.00,176.00 313.00,176.00
             310.11,182.03 305.35,183.65 299.00,184.00
             299.00,184.00 297.40,188.66 297.40,188.66
             297.40,188.66 281.00,198.00 281.00,198.00
             280.83,193.11 280.81,192.26 277.00,189.00
             281.31,184.33 284.96,184.34 287.24,180.87
             289.07,178.09 288.46,175.07 284.94,174.37
             281.75,173.73 279.79,175.83 276.00,175.00
             276.00,175.00 283.00,170.11 283.00,170.11
             289.27,166.39 293.33,166.26 294.00,158.00
             294.00,158.00 288.00,157.00 288.00,157.00
             288.00,157.00 293.00,146.00 293.00,146.00
             293.00,146.00 300.94,146.00 300.94,146.00
             300.94,146.00 300.94,137.01 300.94,137.01
             302.91,129.13 312.83,130.00 319.00,130.00
             319.00,130.00 317.00,119.00 317.00,119.00
             321.85,119.13 324.09,118.71 325.00,124.00
             325.00,124.00 331.00,124.00 331.00,124.00
             327.89,129.21 327.20,128.73 327.00,135.00
             327.00,135.00 333.00,135.00 333.00,135.00
             334.06,128.79 340.93,125.10 346.00,122.00
             347.02,123.64 348.03,125.81 350.11,126.32
             351.99,126.77 354.38,125.36 353.66,123.23
             352.88,120.89 349.86,120.76 347.00,115.00
             353.19,111.29 353.28,110.38 351.00,104.00
             357.00,102.25 360.61,100.41 362.00,94.00
             362.00,94.00 355.00,94.00 355.00,94.00
             355.00,94.00 355.00,88.00 355.00,88.00
             358.53,86.79 362.93,85.05 365.09,81.81
             367.64,78.01 365.66,75.07 361.00,76.03
             361.00,76.03 355.00,78.00 355.00,78.00
             359.78,71.07 364.08,75.49 372.00,73.39
             380.51,71.14 385.24,64.20 395.00,62.00
             395.09,59.23 395.02,55.78 397.57,53.99 Z" />
</svg>
