<?xml version="1.0" encoding="UTF-8" standalone="no"?>
<!DOCTYPE svg PUBLIC "-//W3C//DTD SVG 20010904//EN"
              "http://www.w3.org/TR/2001/REC-SVG-20010904/DTD/svg10.dtd">

<svg xmlns="http://www.w3.org/2000/svg"
     width="9.72101in" height="12.4984in"
     viewBox="0 0 700 900">
  <path id="Selection"
        fill="green" stroke="black" stroke-width="1"
        d="M 193.82,493.18
           C 195.95,492.72 199.34,488.39 201.00,486.66
             202.99,484.58 210.75,477.56 211.42,475.87
             212.22,473.81 211.97,469.36 212.00,467.00
             212.15,455.67 218.84,449.57 217.87,441.04
             217.87,441.04 204.43,400.02 204.43,400.02
             203.45,391.17 215.63,397.80 221.69,392.99
             224.39,390.85 223.74,387.99 224.46,385.00
             225.63,380.07 231.81,370.40 231.43,366.09
             231.19,363.36 228.20,361.09 226.55,358.97
             223.54,355.09 221.61,350.75 217.82,347.26
             213.43,343.22 205.89,340.51 204.32,333.99
             203.37,330.06 205.36,325.86 206.00,322.00
             206.00,322.00 206.00,312.00 206.00,312.00
             206.97,305.44 207.98,308.40 208.00,298.00
             208.00,298.00 207.38,277.04 207.38,277.04
             206.54,273.12 202.50,270.45 203.09,260.00
             203.09,260.00 206.18,229.00 206.18,229.00
             206.18,229.00 206.18,220.01 206.18,220.01
             205.71,214.07 201.37,212.38 202.05,202.00
             202.69,192.37 207.91,191.53 209.40,187.87
             209.40,187.87 210.51,179.04 210.51,179.04
             211.68,175.17 214.08,174.55 216.18,169.91
             218.36,165.08 218.48,158.49 220.98,154.00
             222.63,151.03 227.69,146.55 230.42,144.25
             239.84,136.35 253.14,139.20 264.00,141.37
             268.03,142.17 276.04,144.71 279.73,142.35
             283.90,139.69 285.67,132.44 286.86,128.00
             288.20,122.94 288.06,121.15 288.00,116.00
             287.94,111.39 286.61,102.74 282.85,99.76
             279.71,97.28 270.99,95.43 270.53,90.99
             270.32,88.98 274.34,81.93 275.38,79.71
             278.55,72.99 281.52,66.19 285.67,60.00
             285.67,60.00 292.98,50.83 292.98,50.83
             295.35,46.45 292.37,40.45 295.83,35.06
             298.19,31.37 302.11,32.01 306.00,32.00
             306.00,32.00 548.00,32.00 548.00,32.00
             547.51,39.56 543.10,42.51 539.76,49.00
             537.84,52.74 537.94,55.08 537.00,59.00
             537.00,59.00 532.00,57.00 532.00,57.00
             532.15,68.32 535.83,63.33 540.00,71.00
             540.00,71.00 535.00,71.00 535.00,71.00
             535.00,71.00 535.00,75.00 535.00,75.00
             540.49,76.75 538.71,78.06 542.26,81.31
             542.26,81.31 546.24,84.18 546.24,84.18
             550.49,87.83 551.83,92.64 552.00,98.00
             543.76,98.68 545.46,102.12 543.46,106.63
             541.69,110.63 540.54,108.36 540.00,115.00
             531.75,117.51 535.15,121.57 533.57,127.72
             533.57,127.72 526.00,149.00 526.00,149.00
             524.70,148.55 523.63,147.93 522.17,148.06
             520.55,148.20 514.00,152.12 512.89,153.42
             512.89,153.42 509.44,158.59 509.44,158.59
             506.61,161.55 504.13,161.14 500.73,166.20
             498.29,169.83 496.29,174.49 492.00,176.00
             488.78,171.19 481.10,171.86 482.00,181.00
             482.00,181.00 474.00,179.00 474.00,179.00
             474.00,179.00 475.00,192.00 475.00,192.00
             470.20,194.06 469.49,195.01 468.00,200.00
             460.65,197.38 462.19,197.03 454.00,197.00
             453.64,208.60 448.23,208.62 446.00,217.00
             442.11,217.28 434.45,219.35 437.71,224.90
             438.90,226.93 442.88,229.09 445.00,231.00
             434.91,231.82 441.63,236.04 430.00,237.00
             429.41,226.24 427.33,224.95 418.00,222.00
             416.81,233.17 420.67,229.36 423.43,236.09
             425.13,240.20 423.80,241.95 428.00,247.00
             428.00,247.00 428.00,249.00 428.00,249.00
             424.18,253.80 425.95,258.18 426.00,264.00
             426.00,264.00 417.00,268.00 417.00,268.00
             413.46,258.46 404.48,266.31 403.52,271.00
             401.95,278.64 411.71,290.91 411.78,296.09
             411.78,296.09 404.45,318.00 404.45,318.00
             403.30,323.26 404.49,326.14 406.00,331.00
             404.14,331.15 402.75,331.12 401.02,332.02
             391.81,336.84 397.92,349.18 397.90,353.04
             397.87,358.61 393.80,361.50 399.00,365.00
             399.00,365.00 399.97,382.00 399.97,382.00
             399.97,382.00 399.45,398.00 399.45,398.00
             399.45,398.00 405.84,415.99 405.84,415.99
             405.84,415.99 402.00,427.00 402.00,427.00
             402.00,427.00 421.22,430.00 421.22,430.00
             421.05,431.56 420.94,432.41 421.22,433.98
             424.59,443.71 431.42,435.54 436.00,433.00
             440.99,451.79 455.38,446.84 456.00,467.00
             466.15,467.85 458.04,473.33 468.00,475.00
             468.00,475.00 468.00,469.00 468.00,469.00
             468.00,469.00 470.00,469.00 470.00,469.00
             472.56,480.33 476.88,476.65 475.00,491.00
             475.00,491.00 479.00,492.00 479.00,492.00
             473.43,494.97 468.22,497.06 472.00,504.00
             468.06,508.50 467.27,508.96 468.00,515.00
             455.82,523.10 461.00,518.18 454.00,521.19
             454.00,521.19 449.00,524.04 449.00,524.04
             446.68,525.16 443.66,525.34 442.65,528.13
             441.91,530.17 444.55,536.89 445.00,540.00
             445.00,540.00 454.00,539.00 454.00,539.00
             454.00,539.00 458.00,551.00 458.00,551.00
             448.23,552.37 444.64,560.56 438.00,566.00
             437.97,557.00 436.63,549.37 426.00,549.00
             426.00,549.00 428.00,554.00 428.00,554.00
             428.00,554.00 424.00,555.00 424.00,555.00
             424.00,555.00 424.85,568.00 424.85,568.00
             422.64,573.72 418.13,572.18 419.00,581.00
             410.62,584.71 410.58,583.08 402.00,583.00
             401.85,584.91 401.91,586.11 400.99,587.91
             394.91,599.91 386.49,592.07 377.00,591.13
             373.59,590.79 364.70,592.41 365.11,597.13
             365.48,601.38 372.95,601.37 376.00,601.26
             388.07,600.82 390.27,599.50 394.00,611.00
             384.46,610.35 378.23,602.37 375.00,613.00
             380.31,613.68 384.24,615.09 388.00,619.00
             388.00,619.00 384.00,619.00 384.00,619.00
             384.00,619.00 387.72,626.09 387.72,626.09
             387.72,626.09 390.00,633.00 390.00,633.00
             390.00,633.00 389.00,643.00 389.00,643.00
             382.94,645.01 384.48,647.96 386.00,653.00
             386.00,653.00 380.00,654.94 380.00,654.94
             377.77,655.62 375.41,656.34 374.99,659.05
             374.19,664.26 381.82,667.17 384.71,669.75
             386.19,671.06 386.14,671.41 387.00,673.00
             382.02,674.49 382.68,677.50 381.58,681.72
             381.58,681.72 380.00,687.00 380.00,687.00
             397.31,689.46 379.07,704.41 378.13,714.00
             377.63,719.10 380.14,723.43 382.00,728.00
             376.10,733.36 377.16,740.01 375.54,747.00
             374.33,752.23 372.61,752.95 373.00,759.00
             366.44,761.18 368.00,767.20 368.00,773.00
             368.00,773.00 364.00,773.00 364.00,773.00
             364.00,780.51 363.47,798.07 355.81,802.18
             351.68,804.40 346.45,798.32 342.09,798.34
             339.93,798.35 338.70,799.86 336.83,800.22
             334.44,800.67 332.72,799.39 330.00,799.67
             330.00,799.67 323.00,801.66 323.00,801.66
             320.53,802.22 319.16,801.44 317.00,801.66
             313.98,801.59 312.71,802.96 308.00,802.96
             302.76,802.97 303.06,801.55 296.00,802.00
             296.00,802.00 298.00,813.00 298.00,813.00
             295.76,812.52 292.09,811.19 290.00,811.73
             284.52,813.13 280.00,821.25 277.79,826.09
             275.86,830.34 273.52,834.14 274.26,839.00
             275.65,848.03 281.91,849.88 278.49,860.00
             277.98,861.49 277.32,863.49 276.28,864.69
             271.44,870.25 267.82,862.22 257.00,862.59
             253.71,862.71 249.08,863.03 246.00,864.05
             242.66,865.16 236.10,868.47 233.00,868.49
             231.26,868.50 229.67,867.81 228.00,867.45
             225.84,866.99 222.23,867.12 220.77,865.40
             220.02,864.53 218.05,852.83 218.00,851.00
             223.65,850.80 226.76,849.60 225.85,843.00
             224.79,835.30 218.39,838.32 218.00,827.00
             218.00,827.00 212.99,825.26 212.99,825.26
             212.99,825.26 211.27,817.00 211.27,817.00
             211.27,817.00 204.00,799.00 204.00,799.00
             204.00,799.00 209.00,800.48 209.00,800.48
             211.15,800.78 212.94,800.42 214.40,798.69
             218.46,793.87 211.98,787.44 210.00,783.00
             212.57,782.97 215.58,783.17 217.69,781.40
             221.30,778.36 220.00,763.90 220.00,759.00
             220.00,759.00 212.00,761.00 212.00,761.00
             211.45,754.34 210.01,755.92 206.89,750.96
             206.89,750.96 202.97,743.42 202.97,743.42
             202.97,743.42 195.21,731.00 195.21,731.00
             193.48,727.66 188.80,713.70 188.49,710.09
             188.19,706.68 190.12,705.77 189.49,701.99
             188.53,696.21 185.22,693.04 180.00,691.00
             180.00,685.83 181.19,679.33 178.00,675.00
             178.00,675.00 178.00,673.00 178.00,673.00
             178.00,673.00 180.00,669.00 180.00,669.00
             180.00,669.00 174.00,669.00 174.00,669.00
             174.00,669.00 174.00,661.00 174.00,661.00
             174.00,661.00 170.00,661.00 170.00,661.00
             170.00,661.00 175.61,645.00 175.61,645.00
             175.61,645.00 176.24,637.17 176.24,637.17
             176.24,637.17 177.87,631.91 177.87,631.91
             177.87,631.91 177.87,615.00 177.87,615.00
             177.87,615.00 170.00,617.00 170.00,617.00
             173.26,607.89 168.48,607.12 160.00,605.00
             160.00,605.00 160.00,609.00 160.00,609.00
             160.00,609.00 158.00,609.00 158.00,609.00
             156.71,604.19 155.43,604.52 154.48,601.68
             153.71,599.35 154.18,595.61 153.87,593.04
             153.21,587.55 152.02,590.68 152.00,581.00
             151.99,574.52 153.52,569.35 148.00,565.00
             148.00,565.00 148.00,563.00 148.00,563.00
             148.00,563.00 150.00,559.00 150.00,559.00
             151.52,559.13 153.12,559.05 154.42,560.02
             157.79,562.55 158.00,571.15 158.00,575.00
             161.30,575.00 164.93,575.38 167.81,573.49
             171.51,571.08 171.26,568.68 172.79,565.42
             177.49,555.40 180.60,549.64 179.96,538.00
             179.63,532.13 178.10,532.60 178.00,525.00
             177.97,522.15 177.63,516.71 179.02,514.32
             180.55,511.68 183.84,510.68 185.35,505.99
             186.96,500.97 184.87,496.57 186.00,491.00
             188.05,491.73 191.80,493.62 193.82,493.18 Z" />
</svg>
