<?xml version="1.0" encoding="UTF-8" standalone="no"?>
<!DOCTYPE svg PUBLIC "-//W3C//DTD SVG 20010904//EN"
              "http://www.w3.org/TR/2001/REC-SVG-20010904/DTD/svg10.dtd">

<svg xmlns="http://www.w3.org/2000/svg"
     width="43.6334in" height="36.3288in"
     viewBox="0 0 3142 2616">
  <path id="Savoy"
        fill="Green" stroke="black" stroke-width="1"
        d="M 1330.14,1596.00
           C 1330.56,1601.46 1334.28,1605.90 1334.62,1612.00
             1335.20,1616.45 1333.31,1620.82 1334.62,1625.00
             1335.44,1628.77 1337.90,1630.34 1340.04,1633.28
             1340.04,1633.28 1347.13,1645.00 1347.13,1645.00
             1347.13,1645.00 1356.73,1667.79 1356.73,1667.79
             1360.01,1672.35 1368.53,1676.71 1370.04,1678.43
             1372.00,1680.65 1372.92,1684.50 1377.04,1687.15
             1382.34,1690.56 1388.24,1689.57 1393.96,1690.05
             1398.77,1690.45 1398.89,1692.56 1402.04,1693.05
             1403.14,1693.22 1409.00,1692.14 1416.00,1694.00
             1419.25,1694.87 1420.30,1696.68 1423.00,1697.98
             1425.84,1699.35 1428.12,1698.79 1430.91,1699.89
             1434.96,1701.48 1435.53,1704.27 1444.00,1705.83
             1444.00,1705.83 1466.00,1707.86 1466.00,1707.86
             1473.80,1707.44 1472.96,1702.83 1483.00,1707.00
             1481.35,1711.96 1480.19,1712.63 1481.00,1718.00
             1472.92,1723.18 1476.02,1722.76 1472.09,1728.72
             1470.55,1731.03 1468.91,1731.97 1467.27,1735.01
             1464.39,1740.40 1465.00,1747.07 1465.00,1753.00
             1460.91,1753.53 1456.50,1754.27 1456.00,1759.00
             1456.00,1759.00 1449.00,1758.38 1449.00,1758.38
             1444.92,1758.63 1440.64,1761.41 1441.49,1766.00
             1442.21,1769.96 1449.04,1775.68 1448.13,1785.00
             1447.66,1789.79 1445.70,1790.72 1445.00,1797.00
             1435.86,1796.37 1436.27,1792.26 1429.00,1797.00
             1428.90,1788.56 1423.56,1776.73 1415.00,1774.00
             1415.00,1774.00 1417.00,1769.00 1417.00,1769.00
             1417.00,1769.00 1411.00,1767.00 1411.00,1767.00
             1409.04,1769.77 1408.33,1769.54 1405.00,1769.46
             1396.13,1769.28 1394.01,1765.35 1387.17,1760.04
             1379.14,1753.80 1364.38,1744.78 1355.00,1740.79
             1351.80,1739.44 1346.31,1736.69 1343.00,1736.63
             1339.65,1736.56 1333.29,1739.45 1330.00,1740.80
             1322.70,1743.80 1317.05,1746.87 1315.00,1755.00
             1311.33,1755.51 1304.16,1758.25 1302.02,1761.41
             1300.82,1763.18 1301.18,1765.27 1299.42,1767.91
             1296.55,1772.20 1294.64,1770.96 1293.00,1777.00
             1293.00,1777.00 1275.00,1782.40 1275.00,1782.40
             1275.00,1782.40 1263.00,1783.00 1263.00,1783.00
             1264.27,1779.60 1265.96,1775.48 1268.10,1772.58
             1270.56,1769.26 1274.78,1765.13 1275.50,1761.00
             1276.06,1757.76 1274.11,1751.61 1270.73,1750.39
             1270.73,1750.39 1258.00,1751.00 1258.00,1751.00
             1255.45,1750.98 1253.48,1751.04 1251.00,1750.24
             1246.39,1748.74 1233.88,1739.66 1230.87,1736.00
             1226.27,1730.39 1233.82,1728.66 1229.00,1720.00
             1234.49,1717.04 1236.49,1715.35 1237.00,1709.00
             1237.00,1709.00 1250.00,1709.00 1250.00,1709.00
             1248.32,1703.49 1246.41,1703.19 1241.00,1703.00
             1241.64,1701.25 1242.35,1699.97 1242.01,1698.00
             1240.94,1691.84 1232.73,1686.29 1227.00,1685.00
             1229.89,1676.71 1226.78,1677.97 1224.00,1669.00
             1224.00,1669.00 1233.99,1670.11 1233.99,1670.11
             1233.99,1670.11 1253.00,1661.00 1253.00,1661.00
             1253.00,1661.00 1254.72,1646.09 1254.72,1646.09
             1254.72,1646.09 1247.11,1633.72 1247.11,1633.72
             1247.11,1633.72 1247.11,1623.00 1247.11,1623.00
             1238.53,1621.08 1239.01,1618.75 1239.00,1611.00
             1239.00,1611.00 1258.00,1611.00 1258.00,1611.00
             1258.00,1611.00 1281.00,1607.07 1281.00,1607.07
             1287.55,1606.90 1289.19,1612.64 1296.95,1610.69
             1299.92,1609.94 1300.85,1608.00 1303.24,1606.39
             1303.24,1606.39 1308.00,1603.51 1308.00,1603.51
             1313.43,1599.54 1313.80,1596.78 1321.00,1595.00
             1321.00,1589.68 1321.68,1586.80 1319.00,1582.00
             1324.12,1577.29 1323.73,1578.00 1330.14,1576.00
             1332.49,1582.28 1330.00,1590.86 1330.14,1596.00 Z
           M 1350.00,1688.00
           C 1350.00,1688.00 1354.00,1687.00 1354.00,1687.00
             1354.00,1687.00 1350.00,1688.00 1350.00,1688.00 Z" />
</svg>
