<?xml version="1.0" encoding="UTF-8" standalone="no"?>
<!DOCTYPE svg PUBLIC "-//W3C//DTD SVG 20010904//EN"
              "http://www.w3.org/TR/2001/REC-SVG-20010904/DTD/svg10.dtd">

<svg xmlns="http://www.w3.org/2000/svg"
     width="43.6334in" height="36.3288in"
     viewBox="0 0 3142 2616">
  <path id="Venice"
        fill="Venice" stroke="black" stroke-width="1"
        d="M 1482.00,1554.86
           C 1486.70,1554.33 1490.45,1551.03 1492.66,1547.00
             1493.77,1544.96 1494.69,1541.35 1496.55,1540.02
             1498.31,1538.76 1501.87,1539.00 1504.00,1538.81
             1504.00,1538.81 1531.00,1538.81 1531.00,1538.81
             1537.34,1537.40 1542.14,1533.88 1549.00,1533.00
             1545.70,1545.70 1547.99,1542.31 1554.19,1550.32
             1557.09,1554.06 1555.87,1555.31 1561.00,1557.00
             1560.99,1561.11 1561.47,1562.54 1559.00,1566.00
             1570.16,1572.98 1563.03,1565.28 1582.00,1569.25
             1582.00,1569.25 1591.00,1572.53 1591.00,1572.53
             1591.00,1572.53 1606.00,1575.63 1606.00,1575.63
             1606.00,1575.63 1613.00,1578.38 1613.00,1578.38
             1616.41,1578.91 1617.89,1576.91 1622.00,1577.51
             1622.00,1577.51 1627.00,1578.87 1627.00,1578.87
             1627.00,1578.87 1637.00,1578.87 1637.00,1578.87
             1637.00,1578.87 1637.00,1581.00 1637.00,1581.00
             1637.00,1581.00 1629.00,1583.00 1629.00,1583.00
             1629.00,1583.00 1630.00,1586.00 1630.00,1586.00
             1627.78,1587.35 1622.78,1589.76 1621.31,1591.30
             1620.22,1592.45 1619.69,1593.47 1619.31,1595.00
             1616.71,1605.48 1626.92,1606.25 1634.00,1608.00
             1629.94,1612.03 1628.07,1610.53 1625.31,1613.31
             1623.70,1614.94 1623.18,1616.77 1623.08,1619.00
             1622.79,1624.85 1626.04,1627.06 1631.00,1629.00
             1629.09,1634.34 1628.71,1634.10 1632.00,1639.00
             1624.57,1640.27 1627.83,1643.39 1621.00,1647.00
             1621.00,1647.00 1621.00,1638.00 1621.00,1638.00
             1611.01,1638.00 1599.78,1635.69 1599.00,1649.00
             1599.00,1649.00 1594.82,1648.06 1594.82,1648.06
             1594.82,1648.06 1576.00,1659.00 1576.00,1659.00
             1576.00,1659.00 1573.00,1652.00 1573.00,1652.00
             1565.09,1653.96 1553.42,1661.41 1548.05,1667.51
             1545.69,1670.19 1542.95,1674.30 1543.31,1678.01
             1543.53,1680.26 1545.09,1684.75 1546.58,1686.45
             1548.15,1688.25 1550.70,1689.08 1551.77,1691.26
             1551.77,1691.26 1552.93,1697.00 1552.93,1697.00
             1554.30,1701.08 1556.77,1703.41 1560.00,1706.00
             1552.04,1710.38 1548.90,1703.00 1543.00,1701.91
             1538.98,1701.17 1535.20,1704.94 1531.09,1704.52
             1528.10,1704.21 1526.75,1701.83 1522.99,1700.46
             1518.14,1699.13 1511.01,1700.77 1508.00,1700.46
             1502.33,1699.34 1503.19,1696.29 1494.00,1696.00
             1494.00,1696.00 1495.00,1699.07 1495.00,1699.07
             1487.30,1701.65 1482.96,1698.72 1476.00,1699.07
             1472.01,1699.39 1470.28,1701.22 1467.00,1701.69
             1464.24,1702.09 1445.94,1700.11 1443.01,1699.08
             1437.95,1697.31 1437.12,1694.51 1433.96,1693.30
             1431.24,1692.27 1427.92,1693.54 1425.21,1692.40
             1420.08,1690.25 1422.22,1685.66 1414.00,1687.00
             1409.64,1682.11 1408.76,1684.50 1403.00,1687.00
             1396.93,1681.01 1389.10,1686.06 1382.05,1682.99
             1377.40,1680.97 1377.24,1677.30 1374.95,1674.14
             1374.95,1674.14 1364.87,1666.02 1364.87,1666.02
             1363.39,1665.20 1362.55,1665.25 1361.00,1665.00
             1359.60,1651.41 1352.69,1643.45 1346.32,1632.04
             1344.00,1627.87 1341.35,1626.57 1340.63,1622.99
             1339.76,1620.28 1340.63,1617.67 1340.63,1615.00
             1341.56,1604.45 1333.28,1598.37 1337.00,1589.00
             1339.53,1596.39 1342.74,1601.85 1351.00,1603.00
             1349.22,1608.94 1348.65,1610.42 1355.00,1613.00
             1355.00,1613.00 1355.00,1625.00 1355.00,1625.00
             1355.00,1625.00 1364.09,1626.16 1364.09,1626.16
             1364.09,1626.16 1372.00,1623.00 1372.00,1623.00
             1371.80,1618.75 1370.35,1611.95 1371.31,1608.09
             1371.96,1605.46 1373.42,1604.45 1374.44,1601.93
             1375.70,1598.78 1375.13,1596.72 1380.02,1593.29
             1385.94,1589.15 1386.22,1595.17 1392.00,1588.00
             1392.00,1588.00 1387.00,1586.00 1387.00,1586.00
             1387.00,1586.00 1390.00,1574.00 1390.00,1574.00
             1393.48,1580.84 1396.40,1588.57 1405.00,1590.06
             1410.42,1590.99 1415.91,1580.04 1420.58,1588.15
             1420.58,1588.15 1422.00,1592.00 1422.00,1592.00
             1422.00,1592.00 1437.20,1587.00 1437.20,1587.00
             1433.57,1583.71 1437.54,1581.81 1437.20,1578.09
             1437.29,1575.58 1435.06,1574.07 1434.00,1571.91
             1432.88,1569.62 1433.03,1567.47 1433.00,1565.00
             1437.68,1566.14 1448.93,1571.31 1450.85,1576.02
             1451.53,1578.23 1451.09,1581.59 1450.85,1584.00
             1461.64,1578.99 1455.01,1575.19 1455.28,1570.00
             1455.43,1566.94 1458.35,1565.00 1458.38,1562.09
             1458.40,1559.75 1456.23,1558.10 1455.63,1555.91
             1453.68,1548.68 1461.25,1547.03 1466.00,1545.00
             1466.00,1545.00 1467.00,1552.00 1467.00,1552.00
             1474.16,1552.67 1476.38,1555.50 1482.00,1554.86 Z
           M 1480.00,1619.00
           C 1480.00,1619.00 1487.00,1618.00 1487.00,1618.00
             1487.00,1618.00 1480.00,1619.00 1480.00,1619.00 Z" />
</svg>
