<?xml version="1.0" encoding="UTF-8" standalone="no"?>
<!DOCTYPE svg PUBLIC "-//W3C//DTD SVG 20010904//EN"
              "http://www.w3.org/TR/2001/REC-SVG-20010904/DTD/svg10.dtd">

<svg xmlns="http://www.w3.org/2000/svg"
     width="43.6334in" height="36.3288in"
     viewBox="0 0 3142 2616">
  <path id="Baltic"
        fill="Green" stroke="black" stroke-width="1"
        d="M 2208.00,453.05
           C 2208.00,453.05 2215.00,453.05 2215.00,453.05
             2215.00,453.05 2225.00,458.03 2225.00,458.03
             2225.00,458.03 2242.00,455.10 2242.00,455.10
             2242.00,455.10 2251.00,455.10 2251.00,455.10
             2251.00,455.10 2261.99,455.62 2261.99,455.62
             2261.99,455.62 2273.00,449.00 2273.00,449.00
             2273.00,449.00 2263.51,463.17 2263.51,463.17
             2263.51,463.17 2263.00,485.00 2263.00,485.00
             2263.00,485.00 2259.00,483.00 2259.00,483.00
             2259.00,483.00 2262.69,489.99 2262.69,489.99
             2262.69,489.99 2268.40,497.17 2268.40,497.17
             2268.40,497.17 2269.76,514.00 2269.76,514.00
             2269.76,514.00 2275.00,529.00 2275.00,529.00
             2275.00,529.00 2271.00,529.00 2271.00,529.00
             2271.00,529.00 2272.00,535.00 2272.00,535.00
             2269.03,536.99 2269.29,537.51 2269.00,541.00
             2269.00,541.00 2261.00,550.00 2261.00,550.00
             2261.00,550.00 2268.03,561.17 2268.03,561.17
             2269.69,564.30 2269.37,569.98 2279.00,577.00
             2277.11,580.35 2276.76,580.37 2273.00,581.00
             2273.00,581.00 2270.61,587.17 2270.61,587.17
             2270.61,587.17 2269.23,594.00 2269.23,594.00
             2269.23,594.00 2265.48,603.00 2265.48,603.00
             2265.48,603.00 2267.00,613.00 2267.00,613.00
             2267.00,613.00 2275.00,613.00 2275.00,613.00
             2275.00,613.00 2275.00,619.00 2275.00,619.00
             2277.84,619.37 2288.26,622.79 2290.06,624.72
             2295.16,630.19 2292.05,637.91 2291.10,644.00
             2291.10,644.00 2291.10,667.00 2291.10,667.00
             2291.10,667.00 2301.00,665.00 2301.00,665.00
             2301.70,674.75 2305.64,673.09 2309.00,677.41
             2311.18,680.22 2310.51,682.89 2313.57,686.16
             2315.86,688.60 2318.73,689.62 2320.01,691.55
             2321.70,694.12 2320.40,697.90 2321.65,701.99
             2321.65,701.99 2324.27,708.28 2324.27,708.28
             2324.89,714.68 2318.47,718.61 2313.00,719.00
             2312.55,733.48 2302.29,735.21 2304.00,749.00
             2299.12,749.00 2282.47,748.24 2279.02,750.02
             2274.35,752.43 2272.07,758.18 2271.00,763.00
             2267.79,763.00 2263.93,762.70 2261.03,764.31
             2255.87,767.22 2255.74,772.15 2261.03,775.00
             2259.21,779.22 2255.36,792.78 2256.69,796.96
             2257.34,799.00 2259.06,800.62 2261.02,801.21
             2263.51,802.43 2268.81,801.10 2272.00,801.21
             2270.41,804.72 2268.00,808.89 2263.99,810.40
             2259.77,811.99 2254.14,809.25 2249.57,814.34
             2246.17,818.13 2247.00,824.22 2247.00,829.00
             2243.65,829.43 2236.87,830.99 2234.60,833.57
             2232.84,835.56 2233.26,837.67 2232.42,839.91
             2231.51,842.39 2229.80,843.62 2229.40,846.09
             2229.40,846.09 2231.54,860.78 2231.54,860.78
             2232.15,862.39 2232.44,862.24 2233.00,863.00
             2233.00,863.00 2233.00,865.00 2233.00,865.00
             2227.14,871.66 2229.28,881.15 2224.45,887.91
             2219.36,895.05 2215.13,891.44 2211.57,894.60
             2209.09,896.80 2209.10,899.98 2209.00,903.00
             2204.21,903.00 2195.86,902.77 2193.60,908.13
             2192.80,910.03 2193.00,914.78 2193.00,917.00
             2193.00,917.00 2179.00,926.15 2179.00,926.15
             2179.00,926.15 2164.00,925.27 2164.00,925.27
             2164.00,925.27 2139.00,931.00 2139.00,931.00
             2139.00,931.00 2135.72,922.00 2135.72,922.00
             2133.90,915.98 2134.31,912.08 2127.98,908.26
             2122.17,904.75 2117.03,905.25 2115.31,904.40
             2110.72,902.14 2115.32,897.07 2106.00,898.00
             2106.00,898.00 2096.00,892.00 2096.00,892.00
             2096.00,892.00 2093.00,895.00 2093.00,895.00
             2093.00,890.29 2092.62,878.96 2093.60,875.00
             2095.38,867.75 2098.84,866.16 2098.09,862.01
             2096.63,853.94 2084.42,851.02 2083.00,841.00
             2076.20,841.21 2076.76,842.34 2072.00,843.06
             2072.00,843.06 2063.00,843.06 2063.00,843.06
             2060.04,843.74 2058.16,844.99 2055.00,844.69
             2046.65,843.89 2043.08,840.02 2039.00,838.59
             2036.51,837.72 2029.94,838.00 2027.00,838.00
             2024.47,832.54 2017.73,828.57 2013.93,822.83
             2012.09,820.06 2004.66,804.97 2004.21,802.00
             2003.26,795.73 2005.01,789.94 2004.93,786.00
             2004.60,778.62 2000.80,776.96 2004.93,769.00
             1994.15,759.71 1996.98,742.70 1996.99,730.00
             1996.99,730.00 1996.99,716.00 1996.99,716.00
             1996.97,713.40 1996.26,708.20 1996.99,706.09
             1998.83,700.66 2003.87,702.20 2007.57,693.42
             2009.75,688.26 2008.93,682.48 2009.00,677.00
             2009.19,663.27 2018.22,652.48 2019.00,641.00
             2019.00,641.00 2036.83,634.67 2036.83,634.67
             2036.83,634.67 2052.00,626.00 2052.00,626.00
             2055.33,631.49 2056.80,634.52 2057.00,641.00
             2070.81,641.17 2067.70,648.20 2079.00,651.00
             2080.44,656.95 2083.68,660.76 2085.89,666.09
             2087.27,669.42 2087.14,672.98 2090.23,675.41
             2092.72,677.37 2095.34,676.79 2100.00,679.21
             2103.49,681.02 2106.86,684.18 2111.00,684.25
             2122.58,684.44 2132.35,671.65 2138.14,663.13
             2139.75,660.76 2143.21,656.20 2144.19,653.72
             2145.99,649.16 2143.98,645.44 2143.19,641.00
             2143.19,641.00 2137.02,610.00 2137.02,610.00
             2136.84,603.35 2137.00,600.76 2144.00,599.00
             2144.00,599.00 2144.00,589.00 2144.00,589.00
             2144.00,589.00 2138.94,591.00 2138.94,591.00
             2138.94,591.00 2138.94,581.04 2138.94,581.04
             2138.45,577.55 2137.08,576.42 2137.10,572.96
             2137.12,568.68 2140.13,564.38 2138.26,560.14
             2136.08,555.21 2128.58,555.96 2125.30,559.28
             2123.51,561.09 2122.18,564.63 2121.00,567.00
             2114.52,564.29 2116.37,564.10 2109.00,565.00
             2104.48,559.70 2102.98,561.85 2100.60,559.41
             2098.70,557.46 2099.34,554.84 2098.15,552.28
             2095.13,545.81 2091.14,548.20 2091.00,537.00
             2098.18,536.06 2100.74,534.36 2101.00,527.00
             2101.00,527.00 2087.00,528.00 2087.00,528.00
             2087.00,528.00 2085.00,519.00 2085.00,519.00
             2085.00,519.00 2093.00,519.00 2093.00,519.00
             2092.97,511.61 2093.18,509.29 2085.00,509.00
             2087.53,502.02 2086.97,503.38 2086.00,496.00
             2086.00,496.00 2096.09,490.12 2096.09,490.12
             2100.20,488.41 2102.70,489.52 2105.68,488.16
             2110.97,485.74 2115.96,476.45 2117.00,471.00
             2117.00,471.00 2129.00,472.37 2129.00,472.37
             2129.00,472.37 2145.00,465.60 2145.00,465.60
             2145.00,465.60 2153.00,467.00 2153.00,467.00
             2153.00,467.00 2153.00,463.00 2153.00,463.00
             2160.53,465.64 2166.37,463.54 2167.00,455.00
             2175.80,455.17 2179.05,457.03 2185.00,449.00
             2185.00,449.00 2208.00,453.05 2208.00,453.05 Z" />
</svg>
