<?xml version="1.0" encoding="UTF-8" standalone="no"?>
<!DOCTYPE svg PUBLIC "-//W3C//DTD SVG 20010904//EN"
              "http://www.w3.org/TR/2001/REC-SVG-20010904/DTD/svg10.dtd">

<svg xmlns="http://www.w3.org/2000/svg"
     width="43.6334in" height="36.3288in"
     viewBox="0 0 3142 2616">
  <path id="Belgium"
        fill="Green" stroke="black" stroke-width="1"
        d="M 1134.35,1113.99
           C 1135.75,1115.02 1136.27,1116.52 1137.00,1118.00
             1137.00,1118.00 1141.00,1117.00 1141.00,1117.00
             1141.00,1117.00 1139.00,1121.00 1139.00,1121.00
             1139.00,1121.00 1153.99,1129.33 1153.99,1129.33
             1153.99,1129.33 1162.07,1135.89 1162.07,1135.89
             1162.07,1135.89 1169.37,1131.56 1169.37,1131.56
             1169.37,1131.56 1182.00,1131.00 1182.00,1131.00
             1182.00,1131.00 1181.00,1135.00 1181.00,1135.00
             1181.00,1135.00 1195.00,1136.00 1195.00,1136.00
             1195.00,1136.00 1201.00,1151.00 1201.00,1151.00
             1203.95,1151.00 1214.64,1150.64 1216.70,1151.60
             1219.11,1152.72 1219.47,1155.40 1221.56,1157.66
             1224.46,1160.78 1227.05,1160.87 1231.00,1161.00
             1229.10,1164.47 1228.60,1164.49 1225.00,1166.00
             1225.00,1166.00 1239.00,1177.00 1239.00,1177.00
             1239.00,1177.00 1241.00,1183.00 1241.00,1183.00
             1241.00,1183.00 1237.00,1190.00 1237.00,1190.00
             1237.00,1190.00 1234.00,1189.00 1234.00,1189.00
             1234.00,1189.00 1233.00,1197.00 1233.00,1197.00
             1233.00,1197.00 1239.00,1197.00 1239.00,1197.00
             1240.30,1202.02 1243.23,1204.50 1243.34,1208.00
             1243.44,1211.25 1240.87,1213.51 1242.42,1216.48
             1244.36,1220.19 1249.54,1220.14 1250.30,1225.05
             1251.86,1235.22 1243.30,1232.20 1241.00,1243.00
             1241.00,1243.00 1235.00,1241.00 1235.00,1241.00
             1237.25,1248.91 1234.11,1256.14 1239.30,1266.83
             1242.88,1274.20 1250.95,1275.91 1251.22,1281.00
             1251.46,1285.67 1245.66,1288.43 1242.00,1298.00
             1230.17,1295.12 1229.17,1300.76 1223.00,1294.00
             1223.00,1294.00 1225.00,1288.00 1225.00,1288.00
             1216.88,1291.44 1209.58,1291.00 1201.00,1291.00
             1200.75,1286.79 1196.64,1276.44 1192.86,1274.40
             1190.31,1273.03 1188.30,1274.14 1185.42,1272.22
             1180.60,1269.00 1182.86,1267.45 1172.00,1263.00
             1175.24,1254.15 1172.00,1255.44 1172.72,1250.09
             1173.14,1246.99 1175.61,1245.17 1177.00,1239.14
             1177.00,1239.14 1162.48,1239.14 1162.48,1239.14
             1162.48,1239.14 1154.89,1245.15 1154.89,1245.15
             1154.89,1245.15 1136.00,1245.15 1136.00,1245.15
             1137.55,1242.30 1140.16,1240.37 1140.63,1237.91
             1141.57,1233.03 1135.99,1228.38 1144.00,1227.00
             1141.82,1216.74 1137.16,1221.13 1137.00,1209.00
             1126.75,1212.31 1126.85,1209.11 1117.00,1207.00
             1116.19,1202.73 1111.34,1192.76 1106.82,1191.56
             1104.39,1190.92 1101.33,1192.28 1099.00,1193.00
             1098.99,1185.25 1097.83,1167.65 1087.99,1166.00
             1084.73,1165.46 1076.49,1168.09 1073.00,1169.00
             1071.95,1162.59 1069.80,1163.62 1068.88,1159.91
             1067.71,1155.20 1071.07,1150.53 1067.00,1145.00
             1070.55,1138.48 1079.83,1137.99 1085.99,1134.40
             1090.91,1131.54 1090.89,1129.27 1097.00,1129.02
             1100.79,1128.86 1103.44,1128.26 1105.00,1132.00
             1105.00,1132.00 1113.00,1131.00 1113.00,1131.00
             1114.44,1126.55 1119.18,1122.77 1123.00,1127.00
             1123.00,1127.00 1128.00,1126.00 1128.00,1126.00
             1128.00,1126.00 1127.11,1119.03 1127.11,1119.03
             1127.11,1119.03 1119.00,1112.00 1119.00,1112.00
             1122.90,1110.91 1131.14,1111.62 1134.35,1113.99 Z
           M 1232.00,1180.00
           C 1232.00,1180.00 1233.00,1181.00 1233.00,1181.00
             1233.00,1181.00 1233.00,1180.00 1233.00,1180.00
             1233.00,1180.00 1232.00,1180.00 1232.00,1180.00 Z" />
</svg>
