<?xml version="1.0" encoding="UTF-8" standalone="no"?>
<!DOCTYPE svg PUBLIC "-//W3C//DTD SVG 20010904//EN"
              "http://www.w3.org/TR/2001/REC-SVG-20010904/DTD/svg10.dtd">

<svg xmlns="http://www.w3.org/2000/svg"
     width="43.6334in" height="36.3288in"
     viewBox="0 0 3142 2616">
  <path id="Champagne"
        fill="Green" stroke="black" stroke-width="1"
        d="M 1028.00,1145.00
           C 1035.28,1144.87 1053.89,1144.27 1060.00,1146.00
             1059.10,1149.69 1058.39,1155.13 1059.49,1158.83
             1060.28,1161.46 1063.68,1166.19 1065.53,1168.28
             1072.40,1176.07 1078.05,1179.20 1088.00,1175.00
             1089.84,1181.47 1088.29,1185.87 1089.51,1189.99
             1091.77,1197.64 1102.02,1200.11 1109.00,1201.00
             1109.00,1201.00 1109.00,1215.00 1109.00,1215.00
             1114.37,1215.00 1128.91,1216.47 1131.98,1221.30
             1133.28,1223.34 1133.00,1227.57 1133.00,1230.00
             1133.00,1231.89 1133.13,1235.03 1132.42,1236.74
             1131.03,1240.09 1126.09,1240.97 1128.86,1245.27
             1132.95,1251.64 1136.47,1249.87 1142.00,1252.00
             1144.14,1252.83 1146.84,1254.93 1149.00,1254.85
             1151.21,1254.76 1153.05,1252.88 1155.00,1252.00
             1157.67,1250.80 1160.15,1251.01 1163.00,1251.00
             1163.00,1251.00 1163.00,1255.00 1163.00,1255.00
             1170.37,1257.61 1162.82,1261.49 1166.61,1266.79
             1169.04,1270.19 1173.27,1270.39 1175.83,1271.98
             1178.93,1273.92 1181.21,1277.89 1183.00,1281.00
             1173.40,1283.05 1175.52,1289.40 1172.55,1296.91
             1171.18,1300.37 1170.30,1300.43 1168.69,1303.09
             1168.69,1303.09 1162.90,1316.00 1162.90,1316.00
             1161.24,1321.08 1162.08,1327.85 1162.90,1333.00
             1154.82,1337.90 1157.24,1342.86 1159.45,1351.00
             1162.61,1362.66 1161.48,1364.70 1171.00,1373.98
             1174.30,1377.20 1175.62,1378.51 1180.00,1380.00
             1178.40,1391.05 1186.45,1387.15 1188.08,1397.00
             1188.96,1402.27 1184.30,1404.16 1187.51,1410.00
             1191.16,1416.63 1199.04,1419.75 1197.34,1424.74
             1196.75,1426.50 1191.05,1430.87 1189.22,1433.00
             1187.95,1434.49 1185.87,1438.09 1184.51,1438.89
             1182.34,1440.17 1180.00,1438.68 1177.26,1440.64
             1175.54,1441.87 1171.48,1448.77 1170.00,1451.00
             1161.00,1446.90 1163.89,1441.56 1152.00,1432.00
             1154.18,1422.89 1151.16,1423.92 1147.25,1418.76
             1144.92,1415.71 1143.91,1411.95 1140.87,1409.43
             1135.28,1404.79 1122.88,1407.92 1116.00,1408.00
             1112.34,1408.04 1104.15,1408.31 1101.00,1407.32
             1099.27,1406.77 1096.82,1405.50 1095.51,1404.25
             1095.51,1404.25 1086.22,1390.00 1086.22,1390.00
             1084.86,1386.59 1086.29,1384.59 1084.00,1380.01
             1080.80,1373.65 1075.94,1373.58 1075.31,1367.99
             1074.37,1359.47 1081.01,1356.50 1082.47,1351.00
             1083.44,1347.36 1081.56,1345.27 1081.63,1342.00
             1081.63,1342.00 1082.52,1336.00 1082.52,1336.00
             1082.40,1333.61 1080.60,1330.41 1079.75,1328.00
             1079.75,1328.00 1074.56,1313.00 1074.56,1313.00
             1070.10,1304.63 1063.54,1304.91 1056.00,1302.47
             1052.34,1301.28 1050.28,1299.04 1046.00,1298.26
             1043.32,1297.77 1040.66,1298.29 1038.00,1297.42
             1038.00,1297.42 1033.00,1294.95 1033.00,1294.95
             1033.00,1294.95 1027.00,1292.87 1027.00,1292.87
             1023.74,1291.38 1023.20,1290.32 1019.00,1288.90
             1010.18,1285.92 1007.75,1287.60 1004.00,1286.69
             999.38,1285.56 992.86,1277.40 987.06,1286.06
             987.06,1286.06 985.00,1290.00 985.00,1290.00
             973.70,1288.56 972.88,1304.45 964.96,1309.52
             953.74,1316.70 948.22,1309.34 935.00,1316.00
             933.57,1312.40 932.04,1306.90 929.70,1304.09
             927.20,1301.08 922.90,1298.84 921.80,1295.00
             920.93,1292.83 922.11,1286.36 921.80,1283.00
             921.73,1277.82 919.89,1275.20 920.67,1272.00
             921.84,1267.25 923.88,1269.45 924.00,1260.00
             927.37,1262.09 927.52,1263.44 929.00,1267.00
             929.00,1267.00 934.00,1266.00 934.00,1266.00
             934.00,1266.00 929.00,1251.00 929.00,1251.00
             925.48,1250.25 910.27,1248.02 912.16,1242.98
             912.73,1241.47 914.47,1239.88 915.44,1238.58
             918.59,1234.33 916.60,1233.73 925.00,1231.41
             946.46,1225.48 952.93,1228.93 978.00,1220.02
             985.78,1217.26 994.43,1214.77 997.00,1206.00
             997.00,1206.00 1006.00,1211.00 1006.00,1211.00
             1005.24,1199.80 1003.62,1199.91 1005.13,1187.00
             1005.13,1187.00 1006.80,1180.00 1006.80,1180.00
             1010.03,1166.03 1011.00,1165.67 1011.00,1151.00
             1022.93,1150.18 1017.73,1145.19 1028.00,1145.00 Z" />
</svg>
