<?xml version="1.0" encoding="UTF-8" standalone="no"?>
<!DOCTYPE svg PUBLIC "-//W3C//DTD SVG 20010904//EN"
              "http://www.w3.org/TR/2001/REC-SVG-20010904/DTD/svg10.dtd">

<svg xmlns="http://www.w3.org/2000/svg"
     width="43.6334in" height="36.3288in"
     viewBox="0 0 3142 2616">
  <path id="Languedoc"
        fill="Green" stroke="black" stroke-width="1"
        d="M 1115.02,1564.66
           C 1116.28,1565.33 1117.55,1565.81 1119.00,1565.48
             1125.34,1564.03 1127.00,1552.16 1129.20,1547.00
             1130.29,1544.43 1131.93,1540.91 1135.10,1540.69
             1139.43,1540.39 1146.47,1543.46 1148.96,1547.09
             1151.86,1551.33 1154.99,1559.78 1160.04,1561.64
             1162.80,1562.90 1165.26,1561.18 1168.00,1561.64
             1173.23,1562.09 1172.38,1565.80 1180.00,1563.65
             1180.00,1563.65 1193.85,1558.18 1193.85,1558.18
             1197.68,1558.30 1196.27,1562.12 1195.00,1564.00
             1202.30,1564.51 1205.86,1563.67 1213.00,1567.00
             1213.00,1567.00 1213.00,1565.00 1213.00,1565.00
             1213.00,1565.00 1216.00,1565.00 1216.00,1565.00
             1216.00,1565.00 1213.00,1564.00 1213.00,1564.00
             1213.00,1564.00 1213.00,1560.80 1213.00,1560.80
             1218.49,1559.67 1224.43,1559.60 1230.00,1560.80
             1232.08,1560.97 1234.37,1561.19 1235.40,1563.31
             1236.79,1566.16 1235.50,1575.60 1234.80,1578.83
             1234.41,1580.64 1233.20,1582.98 1234.15,1584.72
             1235.18,1586.62 1237.16,1586.69 1239.00,1587.00
             1239.01,1589.00 1238.88,1592.08 1239.60,1593.91
             1240.45,1596.07 1250.31,1603.95 1239.00,1604.98
             1239.00,1604.98 1235.00,1604.98 1235.00,1604.98
             1235.00,1604.98 1230.89,1604.98 1230.89,1604.98
             1230.89,1604.98 1230.89,1619.91 1230.89,1619.91
             1230.89,1619.91 1237.98,1627.26 1237.98,1627.26
             1237.98,1627.26 1239.84,1636.96 1239.84,1636.96
             1239.84,1636.96 1245.75,1646.09 1245.75,1646.09
             1245.75,1646.09 1245.00,1657.00 1245.00,1657.00
             1245.00,1657.00 1233.72,1660.52 1233.72,1660.52
             1233.72,1660.52 1227.00,1661.47 1227.00,1661.47
             1227.00,1661.47 1215.00,1665.00 1215.00,1665.00
             1215.13,1675.54 1218.02,1673.45 1219.36,1680.00
             1220.04,1683.30 1218.68,1686.13 1221.65,1689.66
             1224.55,1693.09 1227.55,1692.00 1235.00,1699.00
             1232.76,1703.31 1231.80,1702.57 1229.63,1705.51
             1226.59,1709.62 1230.27,1711.77 1223.00,1713.00
             1223.00,1713.00 1223.00,1722.00 1223.00,1722.00
             1222.95,1733.15 1219.77,1733.52 1227.79,1743.00
             1229.26,1744.74 1231.42,1747.39 1233.30,1748.62
             1237.09,1751.11 1239.26,1749.24 1242.82,1751.57
             1245.72,1753.47 1249.19,1759.47 1254.00,1760.36
             1258.02,1761.11 1261.12,1757.54 1269.00,1757.00
             1267.80,1766.19 1263.85,1766.73 1258.33,1772.87
             1253.71,1778.00 1255.97,1779.57 1253.40,1782.11
             1253.40,1782.11 1241.99,1790.04 1241.99,1790.04
             1241.99,1790.04 1236.09,1792.31 1236.09,1792.31
             1233.73,1793.65 1232.74,1795.25 1230.83,1796.73
             1226.90,1799.77 1225.18,1798.41 1222.34,1799.85
             1219.29,1801.40 1218.04,1805.00 1217.00,1808.16
             1213.80,1807.44 1211.15,1806.65 1208.09,1808.16
             1201.91,1811.69 1203.60,1817.58 1195.00,1819.00
             1195.00,1819.00 1196.00,1825.00 1196.00,1825.00
             1192.63,1826.26 1183.38,1828.41 1180.00,1828.66
             1180.00,1828.66 1174.00,1828.66 1174.00,1828.66
             1174.00,1828.66 1165.00,1830.49 1165.00,1830.49
             1159.80,1830.48 1159.95,1827.44 1150.00,1829.00
             1149.69,1827.16 1149.74,1826.02 1148.40,1824.50
             1146.66,1822.50 1135.97,1818.63 1133.00,1817.72
             1133.00,1817.72 1128.39,1816.44 1128.39,1816.44
             1123.51,1813.90 1126.36,1806.96 1123.11,1803.37
             1122.41,1802.59 1121.84,1802.24 1120.81,1802.05
             1120.81,1802.05 1105.00,1803.00 1105.00,1803.00
             1103.89,1798.90 1097.21,1789.56 1092.11,1792.08
             1089.26,1793.49 1089.05,1796.53 1085.00,1799.00
             1084.06,1785.70 1077.45,1787.17 1067.00,1787.00
             1060.52,1786.89 1059.08,1785.72 1054.00,1782.00
             1054.00,1782.00 1054.00,1780.00 1054.00,1780.00
             1061.05,1775.85 1061.72,1773.34 1067.17,1768.86
             1067.17,1768.86 1074.61,1763.70 1074.61,1763.70
             1077.29,1761.02 1078.01,1757.43 1081.33,1754.81
             1085.61,1751.43 1093.30,1750.69 1095.82,1745.94
             1099.02,1739.92 1093.28,1734.03 1090.83,1729.00
             1088.02,1723.22 1089.69,1720.60 1088.26,1717.04
             1085.64,1710.52 1078.96,1710.01 1073.00,1710.00
             1068.53,1709.99 1063.02,1710.40 1059.11,1707.91
             1055.94,1705.90 1051.48,1695.72 1050.62,1692.00
             1050.62,1692.00 1050.62,1679.00 1050.62,1679.00
             1051.40,1668.76 1058.05,1668.49 1065.00,1665.18
             1065.00,1665.18 1081.82,1655.44 1081.82,1655.44
             1083.80,1653.78 1084.91,1651.96 1086.51,1650.03
             1088.36,1647.82 1092.08,1644.90 1092.15,1641.96
             1092.24,1638.57 1088.07,1633.87 1085.95,1631.42
             1085.95,1631.42 1079.78,1623.75 1079.78,1623.75
             1077.16,1621.89 1074.90,1622.68 1072.00,1622.32
             1072.00,1622.32 1062.00,1620.00 1062.00,1620.00
             1062.54,1616.99 1063.18,1614.08 1062.87,1611.00
             1062.18,1604.18 1055.29,1591.37 1056.04,1579.00
             1056.55,1570.71 1061.36,1573.26 1064.12,1568.78
             1064.12,1568.78 1066.00,1556.00 1066.00,1556.00
             1066.00,1556.00 1068.00,1556.00 1068.00,1556.00
             1069.85,1558.36 1071.11,1560.24 1074.01,1561.32
             1078.00,1563.07 1082.95,1562.00 1087.00,1561.32
             1099.72,1558.69 1097.62,1559.68 1110.00,1554.00
             1110.06,1558.87 1110.17,1562.08 1115.02,1564.66 Z
           M 1187.00,1563.00
           C 1187.00,1563.00 1191.00,1566.00 1191.00,1566.00
             1189.93,1563.13 1190.04,1563.20 1187.00,1563.00 Z
           M 1193.00,1564.00
           C 1193.00,1564.00 1194.00,1565.00 1194.00,1565.00
             1194.00,1565.00 1194.00,1564.00 1194.00,1564.00
             1194.00,1564.00 1193.00,1564.00 1193.00,1564.00 Z
           M 1216.00,1566.00
           C 1216.00,1566.00 1217.00,1567.00 1217.00,1567.00
             1217.00,1567.00 1217.00,1566.00 1217.00,1566.00
             1217.00,1566.00 1216.00,1566.00 1216.00,1566.00 Z
           M 1217.00,1567.00
           C 1217.00,1567.00 1218.00,1568.00 1218.00,1568.00
             1218.00,1568.00 1218.00,1567.00 1218.00,1567.00
             1218.00,1567.00 1217.00,1567.00 1217.00,1567.00 Z
           M 1080.00,1659.00
           C 1080.00,1659.00 1081.00,1660.00 1081.00,1660.00
             1081.00,1660.00 1081.00,1659.00 1081.00,1659.00
             1081.00,1659.00 1080.00,1659.00 1080.00,1659.00 Z
           M 1154.00,1794.00
           C 1154.00,1794.00 1155.00,1795.00 1155.00,1795.00
             1155.00,1795.00 1155.00,1794.00 1155.00,1794.00
             1155.00,1794.00 1154.00,1794.00 1154.00,1794.00 Z" />
</svg>
