<?xml version="1.0" encoding="UTF-8" standalone="no"?>
<!DOCTYPE svg PUBLIC "-//W3C//DTD SVG 20010904//EN"
              "http://www.w3.org/TR/2001/REC-SVG-20010904/DTD/svg10.dtd">

<svg xmlns="http://www.w3.org/2000/svg"
     width="43.6334in" height="36.3288in"
     viewBox="0 0 3142 2616">
  <path id="Poitou"
        fill="Green" stroke="black" stroke-width="1"
        d="M 831.99,1445.25
           C 835.98,1443.78 837.19,1440.13 841.04,1439.36
             845.61,1438.44 851.63,1443.22 857.00,1443.77
             862.03,1444.29 863.93,1441.37 866.83,1442.32
             873.52,1444.50 873.37,1454.59 874.74,1457.98
             877.86,1465.75 887.80,1464.62 894.00,1462.00
             894.00,1462.00 901.69,1479.00 901.69,1479.00
             901.69,1479.00 903.89,1495.00 903.89,1495.00
             903.89,1495.00 912.00,1509.00 912.00,1509.00
             904.75,1512.12 889.35,1516.51 887.32,1525.00
             886.28,1529.36 889.00,1535.60 890.00,1540.00
             881.98,1544.09 883.98,1545.20 879.07,1552.00
             877.75,1553.83 874.93,1556.94 874.42,1559.00
             873.49,1562.79 878.42,1574.99 882.13,1577.23
             884.69,1578.79 888.10,1577.84 891.00,1578.06
             899.21,1578.69 898.48,1585.18 901.12,1589.91
             902.15,1591.75 903.68,1593.36 905.00,1595.00
             899.80,1599.45 897.77,1606.33 899.80,1613.00
             900.94,1616.75 903.06,1618.76 903.69,1622.00
             904.20,1624.63 903.09,1629.77 903.01,1633.00
             902.95,1635.62 903.32,1639.51 901.98,1641.79
             900.58,1644.16 897.27,1645.59 895.00,1647.10
             891.94,1649.14 889.31,1651.79 886.00,1653.45
             881.47,1655.72 878.75,1655.55 874.64,1659.68
             869.66,1664.68 873.49,1666.50 871.85,1669.69
             870.54,1672.25 867.08,1671.77 865.01,1675.14
             863.56,1677.50 863.58,1682.26 862.30,1684.78
             861.29,1686.77 855.02,1691.22 853.00,1692.22
             848.23,1694.60 846.98,1690.64 842.00,1690.19
             837.48,1689.78 834.17,1692.73 830.00,1693.61
             822.71,1695.15 815.98,1689.20 813.00,1699.00
             807.60,1698.27 802.50,1694.47 797.05,1697.31
             791.48,1700.23 789.98,1710.66 786.55,1716.00
             785.19,1718.10 782.53,1720.53 783.50,1723.27
             784.81,1727.01 790.62,1729.53 794.00,1731.00
             790.93,1743.64 798.03,1743.82 793.18,1750.90
             791.09,1753.95 786.15,1756.59 783.09,1759.01
             783.09,1759.01 777.49,1764.42 777.49,1764.42
             771.92,1769.65 767.08,1774.72 767.00,1783.00
             764.14,1783.00 759.54,1783.32 757.06,1781.98
             752.33,1779.42 749.34,1770.05 749.00,1765.00
             737.13,1769.32 738.62,1763.56 731.91,1758.87
             728.83,1756.73 724.64,1755.65 721.00,1755.00
             721.00,1755.00 721.00,1747.00 721.00,1747.00
             721.00,1747.00 716.00,1747.00 716.00,1747.00
             715.99,1734.57 715.61,1732.33 703.00,1729.00
             704.71,1723.16 710.98,1717.44 714.49,1711.72
             714.49,1711.72 721.74,1700.00 721.74,1700.00
             721.74,1700.00 731.52,1676.96 731.52,1676.96
             736.15,1666.23 742.89,1664.70 738.00,1661.00
             738.00,1661.00 739.00,1655.00 739.00,1655.00
             739.00,1655.00 743.00,1655.00 743.00,1655.00
             743.38,1651.28 745.77,1641.24 747.39,1638.00
             749.06,1634.67 751.49,1632.73 752.36,1630.00
             753.83,1625.46 750.61,1625.67 755.00,1617.00
             754.63,1616.56 754.12,1616.73 754.00,1615.46
             754.00,1615.46 758.30,1602.01 758.30,1602.01
             758.30,1602.01 760.54,1594.83 760.54,1594.83
             760.54,1594.83 761.55,1588.28 761.55,1588.28
             762.39,1586.01 763.95,1585.08 764.69,1581.99
             764.69,1581.99 765.34,1574.00 765.34,1574.00
             766.02,1570.57 770.33,1560.00 773.00,1558.00
             773.00,1558.00 773.00,1565.00 773.00,1565.00
             776.82,1564.02 778.71,1564.44 781.00,1561.00
             781.00,1561.00 785.00,1563.00 785.00,1563.00
             786.40,1557.37 788.53,1555.60 781.00,1555.00
             781.00,1555.00 771.00,1536.00 771.00,1536.00
             771.00,1536.00 779.00,1539.00 779.00,1539.00
             779.00,1539.00 778.43,1532.32 778.43,1532.32
             778.43,1532.32 786.37,1521.93 786.37,1521.93
             786.37,1521.93 784.05,1512.96 784.05,1512.96
             784.05,1512.96 781.00,1502.00 781.00,1502.00
             790.32,1498.04 788.94,1495.07 794.02,1495.35
             802.89,1495.83 801.69,1501.57 812.00,1500.34
             814.42,1500.05 815.81,1499.93 817.98,1498.65
             826.48,1493.64 821.23,1488.77 821.59,1484.00
             821.90,1479.95 825.26,1477.28 824.63,1472.00
             824.29,1469.14 822.82,1466.69 821.98,1464.00
             821.98,1464.00 820.75,1457.00 820.75,1457.00
             819.46,1451.34 817.51,1450.27 819.00,1444.00
             822.75,1444.83 828.28,1446.61 831.99,1445.25 Z" />
</svg>
