<?xml version="1.0" encoding="UTF-8" standalone="no"?>
<!DOCTYPE svg PUBLIC "-//W3C//DTD SVG 20010904//EN"
              "http://www.w3.org/TR/2001/REC-SVG-20010904/DTD/svg10.dtd">

<svg xmlns="http://www.w3.org/2000/svg"
     width="43.6334in" height="36.3288in"
     viewBox="0 0 3142 2616">
  <path id="Ireland"
        fill="Red" stroke="black" stroke-width="1"
        d="M 509.51,735.80
           C 509.51,735.80 519.96,728.05 519.96,728.05
             513.57,731.29 535.48,721.53 529.43,723.84
             529.43,723.84 531.17,723.84 531.17,723.84
             532.78,723.82 535.47,725.24 537.00,725.93
             546.84,730.30 544.92,728.29 548.32,737.00
             550.44,742.41 550.61,740.88 550.00,747.00
             556.50,746.77 558.45,745.76 559.00,739.00
             565.47,739.21 563.93,739.87 569.04,742.88
             569.04,742.88 574.83,745.89 574.83,745.89
             576.48,746.98 578.92,749.82 580.82,749.80
             582.92,749.79 583.43,747.52 584.00,745.85
             584.00,745.85 586.94,745.85 586.94,745.85
             594.03,743.58 586.14,738.96 584.00,735.00
             584.00,735.00 604.00,735.00 604.00,735.00
             604.00,735.00 607.05,749.00 607.05,749.00
             607.05,749.00 610.58,759.66 610.58,759.66
             610.58,759.66 618.69,765.55 618.69,765.55
             618.69,765.55 625.06,773.73 625.06,773.73
             625.06,773.73 643.00,779.00 643.00,779.00
             645.38,769.51 650.21,772.87 651.00,763.00
             651.00,763.00 657.00,761.00 657.00,761.00
             658.64,767.25 656.66,767.60 657.65,772.00
             658.60,776.20 661.71,779.34 662.29,782.00
             662.95,784.99 661.04,787.31 661.44,789.90
             662.31,795.55 670.84,795.00 675.00,795.00
             672.71,807.83 677.00,807.69 676.90,814.96
             676.83,819.89 673.43,820.13 673.01,823.14
             672.77,824.86 674.06,826.64 674.54,828.28
             674.54,828.28 677.00,839.00 677.00,839.00
             672.01,840.47 670.47,842.01 669.00,847.00
             669.00,847.00 673.00,848.00 673.00,848.00
             673.00,848.00 667.98,854.01 667.98,854.01
             667.98,854.01 669.43,866.00 669.43,866.00
             669.43,866.00 668.00,889.00 668.00,889.00
             659.09,892.09 660.25,893.56 656.28,900.58
             654.73,903.32 653.12,904.58 651.63,908.00
             649.09,913.86 650.95,913.76 644.98,918.85
             638.39,924.47 631.83,923.90 630.28,928.13
             629.45,930.39 632.34,936.06 633.00,939.00
             628.43,937.08 627.85,936.88 623.00,938.00
             620.55,932.59 616.72,929.47 611.00,928.00
             611.00,928.00 611.00,933.00 611.00,933.00
             611.00,933.00 609.00,933.00 609.00,933.00
             609.00,933.00 609.00,928.00 609.00,928.00
             609.00,928.00 603.00,928.00 603.00,928.00
             603.00,928.00 603.00,933.00 603.00,933.00
             592.08,928.39 578.55,932.09 565.00,927.00
             565.30,928.29 566.51,931.79 566.17,932.93
             564.89,936.86 555.81,933.50 553.00,932.93
             551.18,941.53 544.77,942.91 537.00,943.00
             536.94,941.39 537.03,939.66 536.40,938.13
             535.47,935.84 530.34,931.61 527.93,931.11
             524.42,930.39 522.22,933.01 525.00,937.00
             525.00,937.00 525.00,939.00 525.00,939.00
             522.87,942.32 523.92,943.40 525.00,947.00
             517.47,946.02 513.50,941.21 511.00,949.00
             505.52,946.75 505.50,947.31 500.00,949.00
             497.59,945.31 497.33,944.95 493.00,944.00
             493.00,944.00 493.00,949.00 493.00,949.00
             493.00,949.00 483.00,947.11 483.00,947.11
             483.00,947.11 475.26,948.16 475.26,948.16
             475.26,948.16 464.00,942.00 464.00,942.00
             469.20,932.12 473.20,936.93 474.00,926.96
             474.00,926.96 459.00,926.96 459.00,926.96
             459.00,926.96 451.17,925.98 451.17,925.98
             451.17,925.98 443.00,925.98 443.00,925.98
             443.00,925.98 447.00,925.00 447.00,925.00
             444.17,917.38 445.16,917.05 450.00,911.00
             445.05,912.85 443.08,914.01 439.00,910.00
             439.00,910.00 441.00,903.00 441.00,903.00
             441.00,903.00 436.00,902.00 436.00,902.00
             436.00,902.00 448.41,897.26 448.41,897.26
             448.41,897.26 453.15,890.17 453.15,890.17
             453.15,890.17 464.00,887.00 464.00,887.00
             464.00,887.00 445.00,884.00 445.00,884.00
             445.00,884.00 441.00,881.17 441.00,881.17
             446.70,874.33 449.56,878.40 456.00,881.17
             461.54,883.86 468.92,886.81 475.00,887.00
             475.00,887.00 473.00,871.00 473.00,871.00
             473.00,871.00 485.00,871.00 485.00,871.00
             485.01,867.15 484.12,864.61 488.00,863.00
             488.00,863.00 487.00,867.00 487.00,867.00
             487.00,867.00 496.00,866.00 496.00,866.00
             496.00,866.00 495.00,869.00 495.00,869.00
             495.00,869.00 502.00,859.00 502.00,859.00
             502.00,859.00 496.00,858.00 496.00,858.00
             496.38,853.47 495.60,853.37 492.00,851.00
             500.38,850.99 506.33,850.38 506.00,840.00
             506.00,840.00 513.00,841.00 513.00,841.00
             513.00,841.00 511.29,834.83 511.29,834.83
             510.92,830.55 514.62,826.03 519.01,825.93
             522.96,825.83 530.29,831.41 536.95,827.83
             542.82,824.66 542.03,818.60 542.00,813.00
             534.31,812.91 532.51,809.86 525.00,813.00
             525.00,813.00 514.14,807.49 514.14,807.49
             514.14,807.49 515.00,795.00 515.00,795.00
             515.00,795.00 503.00,795.00 503.00,795.00
             503.87,786.38 499.24,787.97 493.00,789.00
             493.00,789.00 492.00,784.00 492.00,784.00
             495.67,781.56 495.42,781.06 494.00,777.00
             494.00,777.00 503.00,778.78 503.00,778.78
             503.00,778.78 515.00,781.00 515.00,781.00
             515.00,781.00 515.00,777.00 515.00,777.00
             504.54,774.40 506.24,766.93 512.02,765.56
             516.47,764.51 518.16,768.16 526.00,769.00
             526.00,769.00 529.00,754.00 529.00,754.00
             517.67,752.50 520.44,752.46 518.00,744.00
             517.83,748.89 515.83,753.58 510.22,749.40
             507.80,747.60 506.09,743.76 505.00,741.00
             507.72,739.89 507.41,737.77 509.51,735.80 Z
           M 530.00,852.00
           C 530.00,852.00 531.00,853.00 531.00,853.00
             531.00,853.00 531.00,852.00 531.00,852.00
             531.00,852.00 530.00,852.00 530.00,852.00 Z
           M 618.00,852.00
           C 618.00,852.00 619.00,853.00 619.00,853.00
             619.00,853.00 619.00,852.00 619.00,852.00
             619.00,852.00 618.00,852.00 618.00,852.00 Z
           M 467.00,920.00
           C 467.00,920.00 468.00,921.00 468.00,921.00
             468.00,921.00 468.00,920.00 468.00,920.00
             468.00,920.00 467.00,920.00 467.00,920.00 Z" />
</svg>
