<?xml version="1.0" encoding="UTF-8" standalone="no"?>
<!DOCTYPE svg PUBLIC "-//W3C//DTD SVG 20010904//EN"
              "http://www.w3.org/TR/2001/REC-SVG-20010904/DTD/svg10.dtd">

<svg xmlns="http://www.w3.org/2000/svg"
     width="43.6334in" height="36.3288in"
     viewBox="0 0 3142 2616">
  <path id="Algeria"
        fill="Cyan" stroke="black" stroke-width="1"
        d="M 894.04,2346.27
           C 898.29,2347.35 900.83,2342.42 904.09,2341.84
             906.73,2341.38 915.67,2346.22 921.28,2345.71
             921.28,2345.71 945.00,2339.16 945.00,2339.16
             945.00,2339.16 961.00,2341.37 961.00,2341.37
             961.00,2341.37 967.00,2342.97 967.00,2342.97
             967.00,2342.97 973.00,2342.97 973.00,2342.97
             977.06,2343.75 978.41,2345.77 981.00,2346.01
             982.96,2346.19 986.06,2344.68 988.00,2344.00
             991.54,2348.30 992.42,2348.89 998.00,2349.00
             1000.59,2349.04 1005.68,2348.73 1007.91,2349.60
             1010.49,2350.60 1011.70,2352.70 1014.09,2353.99
             1016.32,2355.19 1018.17,2354.81 1020.25,2356.51
             1020.25,2356.51 1027.18,2365.00 1027.18,2365.00
             1032.55,2370.96 1038.90,2375.35 1047.00,2376.44
             1056.29,2377.68 1066.53,2367.08 1070.09,2365.89
             1073.76,2364.67 1075.88,2367.02 1079.00,2367.15
             1081.35,2367.26 1082.80,2366.11 1085.00,2366.04
             1085.00,2366.04 1091.00,2366.73 1091.00,2366.73
             1094.32,2366.40 1098.51,2363.49 1101.58,2362.09
             1103.87,2361.04 1110.40,2359.46 1113.00,2359.00
             1113.00,2359.00 1115.00,2349.00 1115.00,2349.00
             1115.00,2349.00 1131.11,2349.00 1131.11,2349.00
             1131.11,2349.00 1131.11,2354.00 1131.11,2354.00
             1132.85,2362.80 1141.56,2360.13 1147.91,2362.53
             1152.79,2364.37 1153.69,2366.51 1157.00,2368.02
             1162.22,2370.39 1168.09,2368.59 1173.00,2366.55
             1179.94,2363.66 1184.23,2365.58 1185.00,2356.00
             1185.00,2356.00 1199.00,2361.92 1199.00,2361.92
             1199.00,2361.92 1205.00,2366.09 1205.00,2366.09
             1205.00,2366.09 1208.69,2368.12 1208.69,2368.12
             1212.20,2370.83 1210.43,2376.25 1218.01,2378.49
             1224.73,2380.48 1236.82,2375.11 1245.00,2375.00
             1260.27,2374.80 1254.99,2376.07 1261.16,2378.42
             1261.16,2378.42 1267.00,2380.00 1267.00,2380.00
             1258.39,2383.36 1253.38,2384.90 1257.00,2395.00
             1251.80,2396.62 1241.80,2398.61 1239.60,2404.09
             1238.88,2405.88 1239.01,2409.03 1239.00,2411.00
             1241.18,2411.47 1246.68,2412.66 1247.93,2414.58
             1249.16,2416.49 1247.68,2419.95 1247.15,2422.00
             1247.15,2422.00 1243.15,2440.00 1243.15,2440.00
             1240.34,2448.19 1238.67,2446.04 1238.10,2459.00
             1238.10,2459.00 1239.21,2480.00 1239.21,2480.00
             1239.89,2484.94 1241.37,2485.31 1240.96,2493.00
             1240.45,2502.44 1234.70,2506.32 1235.64,2510.81
             1236.37,2514.30 1240.86,2515.15 1245.00,2520.00
             1240.57,2523.86 1232.93,2531.31 1231.24,2537.00
             1230.75,2539.80 1231.01,2547.68 1231.24,2551.00
             1230.98,2561.53 1229.64,2557.32 1225.22,2565.00
             1223.00,2568.87 1223.30,2570.90 1218.95,2573.41
             1213.62,2576.49 1204.20,2578.54 1199.04,2582.46
             1191.84,2587.93 1193.03,2592.54 1190.18,2595.41
             1188.45,2597.15 1181.56,2598.54 1179.00,2599.00
             1178.29,2603.32 1173.20,2609.52 1168.79,2610.93
             1168.79,2610.93 1141.00,2610.93 1141.00,2610.93
             1141.00,2610.93 1021.00,2610.93 1021.00,2610.93
             1021.00,2610.93 507.00,2610.93 507.00,2610.93
             507.00,2610.93 505.40,2602.08 505.40,2602.08
             505.72,2599.87 507.55,2598.50 508.58,2595.96
             509.17,2593.77 509.12,2589.30 508.58,2587.00
             507.68,2580.55 502.36,2570.90 502.73,2567.04
             503.47,2559.27 511.89,2552.39 512.78,2546.00
             513.85,2538.34 508.00,2535.09 507.79,2531.80
             507.63,2529.22 510.86,2527.19 512.21,2523.71
             513.51,2520.39 512.49,2517.99 513.76,2514.00
             513.76,2514.00 519.87,2501.00 519.87,2501.00
             524.48,2488.92 511.39,2471.39 526.00,2469.00
             524.04,2460.06 517.44,2462.84 517.65,2456.95
             517.86,2450.98 526.77,2447.84 523.83,2441.00
             518.78,2429.25 506.58,2422.95 502.00,2411.00
             510.56,2411.69 509.97,2416.01 515.00,2416.31
             517.46,2416.46 533.54,2412.20 535.99,2410.95
             535.99,2410.95 544.09,2406.13 544.09,2406.13
             547.89,2404.64 550.46,2405.35 554.00,2404.54
             556.89,2403.88 569.41,2398.88 571.91,2397.41
             576.90,2394.48 575.99,2391.86 578.49,2388.32
             580.79,2385.06 586.47,2380.68 590.28,2379.45
             595.29,2377.84 599.53,2379.13 603.00,2378.71
             605.42,2378.41 607.47,2377.19 609.96,2377.63
             613.31,2378.23 614.72,2381.34 620.00,2380.85
             629.32,2379.99 630.34,2368.83 642.00,2372.00
             642.10,2373.87 641.95,2375.01 643.09,2376.70
             644.39,2378.64 653.68,2383.19 656.04,2383.22
             658.94,2383.26 663.02,2380.99 665.42,2379.42
             674.46,2373.51 677.70,2366.23 679.75,2364.51
             682.09,2362.54 685.36,2362.89 688.95,2360.78
             692.36,2358.76 692.81,2356.66 695.26,2355.60
             695.26,2355.60 704.00,2354.54 704.00,2354.54
             704.00,2354.54 718.00,2349.60 718.00,2349.60
             718.00,2349.60 728.83,2348.54 728.83,2348.54
             728.83,2348.54 739.00,2345.73 739.00,2345.73
             742.49,2344.40 745.56,2341.96 749.00,2341.27
             755.03,2340.07 763.73,2342.13 764.82,2342.04
             767.60,2341.82 768.21,2339.63 771.18,2339.71
             771.18,2339.71 782.00,2342.55 782.00,2342.55
             782.00,2342.55 803.00,2344.92 803.00,2344.92
             803.00,2344.92 824.00,2344.92 824.00,2344.92
             826.75,2344.57 834.69,2343.13 836.91,2343.77
             839.70,2344.56 840.75,2347.05 844.04,2348.44
             853.96,2352.64 877.73,2347.16 881.00,2335.00
             890.25,2337.36 888.05,2344.75 894.04,2346.27 Z" />
</svg>
