<?xml version="1.0" encoding="UTF-8" standalone="no"?>
<!DOCTYPE svg PUBLIC "-//W3C//DTD SVG 20010904//EN"
              "http://www.w3.org/TR/2001/REC-SVG-20010904/DTD/svg10.dtd">

<svg xmlns="http://www.w3.org/2000/svg"
     width="43.6334in" height="36.3288in"
     viewBox="0 0 3142 2616">
  <path id="Tunisia"
        fill="Green" stroke="black" stroke-width="1"
        d="M 1297.53,2369.45
           C 1299.94,2367.21 1300.42,2363.86 1303.26,2362.00
             1303.26,2362.00 1308.96,2359.87 1308.96,2359.87
             1308.96,2359.87 1316.32,2355.48 1316.32,2355.48
             1316.32,2355.48 1324.00,2354.63 1324.00,2354.63
             1324.00,2354.63 1341.00,2350.65 1341.00,2350.65
             1347.04,2349.30 1354.00,2347.62 1360.00,2350.00
             1349.30,2354.33 1354.72,2355.17 1355.00,2365.00
             1358.41,2365.37 1361.71,2366.02 1364.82,2364.06
             1368.04,2362.03 1369.17,2357.98 1373.04,2357.44
             1375.62,2357.08 1378.76,2358.89 1381.00,2360.00
             1381.00,2360.00 1377.00,2367.00 1377.00,2367.00
             1377.00,2367.00 1381.00,2368.00 1381.00,2368.00
             1379.22,2374.23 1379.30,2375.81 1384.02,2380.82
             1385.48,2382.37 1389.20,2385.23 1389.71,2387.14
             1390.42,2389.87 1387.55,2391.51 1386.31,2393.51
             1384.83,2395.91 1385.03,2398.30 1385.00,2401.00
             1385.00,2401.00 1393.00,2403.00 1393.00,2403.00
             1393.00,2403.00 1393.00,2406.00 1393.00,2406.00
             1401.00,2404.94 1409.01,2403.56 1410.00,2394.00
             1416.56,2392.11 1418.97,2393.19 1425.25,2388.62
             1430.43,2384.84 1434.63,2377.91 1441.00,2377.00
             1441.00,2377.00 1441.95,2391.77 1441.95,2391.77
             1440.36,2395.54 1433.78,2398.00 1431.68,2402.13
             1429.49,2406.45 1424.88,2419.26 1421.45,2422.03
             1418.60,2424.34 1409.67,2426.02 1406.09,2427.70
             1398.89,2431.08 1392.67,2444.26 1393.60,2452.00
             1394.58,2460.10 1396.73,2460.90 1398.44,2465.17
             1398.44,2465.17 1400.05,2471.00 1400.05,2471.00
             1403.36,2480.58 1408.83,2486.53 1419.00,2488.00
             1418.00,2495.81 1424.48,2497.82 1431.00,2499.00
             1431.00,2499.00 1432.87,2511.91 1432.87,2511.91
             1432.57,2515.86 1429.73,2519.37 1431.51,2524.82
             1432.55,2528.00 1434.97,2528.76 1437.00,2533.00
             1428.62,2536.39 1429.35,2543.44 1427.00,2551.00
             1418.84,2552.37 1422.45,2556.25 1419.73,2561.99
             1417.80,2566.03 1416.36,2565.88 1415.00,2571.00
             1407.95,2572.18 1410.71,2574.25 1407.42,2577.41
             1405.55,2579.20 1403.60,2578.72 1400.76,2580.80
             1400.76,2580.80 1394.25,2587.54 1394.25,2587.54
             1394.25,2587.54 1384.58,2592.75 1384.58,2592.75
             1384.58,2592.75 1375.09,2598.82 1375.09,2598.82
             1375.09,2598.82 1369.83,2602.87 1369.83,2602.87
             1369.83,2602.87 1353.72,2610.85 1353.72,2610.85
             1351.80,2611.10 1349.02,2611.00 1347.00,2610.85
             1347.00,2610.85 1182.00,2610.85 1182.00,2610.85
             1186.04,2601.27 1189.17,2606.38 1195.24,2601.29
             1200.65,2596.74 1201.93,2588.53 1205.55,2585.98
             1205.55,2585.98 1214.00,2583.11 1214.00,2583.11
             1219.07,2581.25 1224.08,2578.46 1227.96,2574.65
             1232.47,2570.23 1231.72,2568.61 1234.27,2564.00
             1235.85,2561.14 1237.91,2559.28 1238.85,2556.00
             1238.85,2556.00 1238.85,2546.00 1238.85,2546.00
             1239.05,2537.43 1240.75,2538.92 1241.00,2531.00
             1245.47,2529.25 1253.10,2522.48 1252.13,2517.05
             1251.42,2513.13 1246.39,2512.95 1245.30,2508.81
             1243.84,2503.27 1248.78,2499.15 1249.35,2493.99
             1250.56,2483.06 1243.21,2473.65 1244.56,2462.00
             1244.56,2462.00 1246.79,2454.00 1246.79,2454.00
             1247.13,2451.77 1246.76,2448.22 1247.57,2446.37
             1248.64,2443.94 1251.17,2443.18 1252.40,2439.96
             1253.29,2437.65 1252.96,2431.74 1253.00,2429.00
             1253.11,2422.32 1254.45,2422.43 1254.87,2418.00
             1255.51,2411.27 1252.26,2410.10 1248.00,2406.00
             1253.98,2402.96 1256.13,2401.21 1263.00,2401.00
             1263.00,2401.00 1267.00,2387.00 1267.00,2387.00
             1267.00,2387.00 1280.00,2385.00 1280.00,2385.00
             1280.00,2385.00 1279.00,2373.00 1279.00,2373.00
             1284.84,2373.00 1292.91,2373.75 1297.53,2369.45 Z" />
</svg>
