<?xml version="1.0" encoding="UTF-8" standalone="no"?>
<!DOCTYPE svg PUBLIC "-//W3C//DTD SVG 20010904//EN"
              "http://www.w3.org/TR/2001/REC-SVG-20010904/DTD/svg10.dtd">

<svg xmlns="http://www.w3.org/2000/svg"
     width="43.6334in" height="36.3288in"
     viewBox="0 0 3142 2616">
  <path id="England"
        fill="Red" stroke="black" stroke-width="1"
        d="M 929.00,748.00
           C 929.00,748.00 928.32,782.00 928.32,782.00
             928.32,782.00 929.75,797.71 929.75,797.71
             929.75,797.71 934.50,808.84 934.50,808.84
             934.50,808.84 932.00,820.00 932.00,820.00
             942.92,816.90 943.66,821.80 953.00,825.00
             955.14,832.85 959.92,830.95 962.27,836.13
             964.46,840.98 965.12,851.61 965.58,852.83
             966.81,856.06 969.54,856.53 974.00,866.00
             964.43,875.94 972.97,892.39 977.00,903.00
             972.54,902.25 971.75,901.46 971.00,897.00
             971.00,897.00 967.00,897.00 967.00,897.00
             967.00,897.00 967.00,889.00 967.00,889.00
             966.43,893.32 964.20,906.27 965.85,909.68
             967.27,912.60 977.15,918.69 980.16,926.09
             981.63,929.71 981.00,947.89 981.00,953.00
             972.11,956.37 961.53,960.82 959.00,971.00
             959.00,971.00 967.00,971.00 967.00,971.00
             967.49,976.91 971.20,979.76 977.00,980.91
             980.38,981.57 987.11,978.22 989.27,975.61
             991.11,973.38 990.91,970.59 993.31,969.65
             995.62,968.75 999.72,970.69 1002.00,971.47
             1002.00,971.47 1022.82,976.70 1022.82,976.70
             1025.68,978.24 1028.66,982.48 1031.04,985.00
             1034.55,988.72 1040.72,994.53 1042.30,999.44
             1043.54,1003.29 1042.07,1005.37 1041.37,1009.00
             1041.37,1009.00 1040.61,1015.00 1040.61,1015.00
             1039.18,1021.28 1035.36,1027.49 1032.26,1033.00
             1029.18,1038.46 1029.15,1043.28 1027.26,1045.86
             1025.46,1048.32 1017.04,1052.15 1014.00,1053.00
             1010.61,1047.27 1004.49,1044.12 1003.00,1053.00
             1003.00,1053.00 997.00,1053.00 997.00,1053.00
             997.00,1053.00 997.00,1059.00 997.00,1059.00
             997.00,1059.00 1008.00,1060.00 1008.00,1060.00
             1005.81,1064.58 1004.41,1065.62 1000.00,1068.00
             996.50,1057.57 986.55,1061.75 983.00,1069.00
             973.84,1069.74 975.36,1074.78 979.02,1076.02
             981.08,1076.72 983.88,1075.49 986.00,1075.00
             986.00,1075.00 984.65,1079.00 984.65,1079.00
             980.08,1088.86 974.72,1081.20 968.00,1080.82
             965.89,1080.70 961.71,1082.46 959.00,1083.00
             959.00,1083.00 959.00,1087.00 959.00,1087.00
             953.46,1084.73 950.91,1084.73 949.00,1091.00
             949.00,1091.00 958.00,1092.54 958.00,1092.54
             958.00,1092.54 968.00,1092.00 968.00,1092.00
             964.78,1094.61 964.11,1094.94 963.00,1099.00
             963.00,1099.00 971.91,1100.02 971.91,1100.02
             971.91,1100.02 980.01,1106.39 980.01,1106.39
             980.01,1106.39 991.00,1105.21 991.00,1105.21
             991.00,1105.21 1004.00,1107.00 1004.00,1107.00
             1004.00,1107.00 1003.00,1121.00 1003.00,1121.00
             1003.00,1121.00 992.00,1124.74 992.00,1124.74
             989.63,1125.15 986.13,1124.77 984.13,1125.60
             980.92,1126.93 980.37,1130.10 976.95,1131.98
             976.95,1131.98 968.00,1134.54 968.00,1134.54
             957.53,1138.29 964.86,1138.93 951.00,1139.00
             943.37,1139.04 939.90,1141.47 936.00,1140.48
             936.00,1140.48 927.00,1136.08 927.00,1136.08
             920.74,1133.20 908.78,1129.11 902.00,1129.09
             902.00,1129.09 890.04,1129.09 890.04,1129.09
             884.08,1127.81 885.21,1121.52 875.00,1121.09
             873.14,1120.79 869.77,1120.83 868.00,1121.09
             865.70,1121.87 863.93,1123.06 862.05,1124.47
             856.52,1128.60 857.69,1130.74 863.00,1134.00
             857.22,1141.40 855.10,1137.53 850.00,1132.00
             850.00,1132.00 853.00,1131.00 853.00,1131.00
             853.00,1131.00 848.00,1121.00 848.00,1121.00
             839.30,1124.67 840.60,1121.53 836.00,1121.53
             833.86,1121.53 832.11,1122.92 830.00,1122.79
             828.86,1122.38 814.74,1110.50 815.36,1122.79
             815.36,1122.79 816.00,1127.00 816.00,1127.00
             806.64,1122.41 803.57,1120.11 793.00,1122.00
             791.12,1119.38 781.43,1108.73 778.82,1107.66
             772.96,1105.01 760.57,1107.60 754.00,1107.66
             748.23,1107.87 745.97,1104.71 743.39,1106.15
             741.77,1107.05 739.22,1115.43 737.78,1118.00
             734.78,1123.33 727.51,1130.74 723.00,1135.00
             723.00,1135.00 722.00,1131.00 722.00,1131.00
             722.00,1131.00 719.00,1132.00 719.00,1132.00
             712.33,1123.32 707.76,1127.59 707.00,1116.94
             697.87,1118.20 695.12,1118.00 686.00,1116.94
             681.28,1116.29 679.65,1114.60 674.01,1115.06
             668.19,1115.53 668.39,1118.91 663.99,1119.40
             659.48,1119.90 650.27,1113.00 647.00,1125.00
             647.00,1125.00 643.00,1125.00 643.00,1125.00
             643.00,1125.00 644.00,1134.00 644.00,1134.00
             644.00,1134.00 633.00,1122.00 633.00,1122.00
             633.00,1122.00 633.00,1120.00 633.00,1120.00
             641.58,1116.97 644.63,1115.44 651.99,1109.77
             654.84,1107.57 662.03,1101.10 665.00,1100.24
             666.70,1099.75 672.32,1100.92 675.00,1101.00
             675.00,1101.00 674.00,1098.00 674.00,1098.00
             678.82,1096.22 680.10,1096.39 681.00,1091.00
             681.00,1091.00 697.00,1083.00 697.00,1083.00
             697.00,1075.65 696.09,1073.57 700.00,1067.00
             708.23,1069.56 719.80,1071.63 723.00,1061.00
             723.00,1061.00 719.00,1061.00 719.00,1061.00
             719.00,1061.00 721.00,1057.00 721.00,1057.00
             724.61,1057.94 727.17,1059.00 731.00,1058.95
             734.32,1058.90 737.83,1057.74 740.98,1058.41
             744.85,1059.22 745.61,1061.29 748.26,1062.73
             752.55,1065.06 753.97,1063.16 755.00,1069.00
             755.00,1069.00 763.00,1070.74 763.00,1070.74
             763.00,1070.74 783.00,1072.00 783.00,1072.00
             783.45,1063.75 785.13,1060.55 792.00,1056.00
             794.12,1054.60 796.44,1052.97 799.00,1052.79
             800.70,1052.33 803.25,1052.79 805.00,1052.79
             805.26,1044.93 807.07,1047.37 811.46,1043.33
             813.39,1041.56 813.18,1040.40 816.14,1038.72
             818.59,1037.32 821.17,1037.15 823.11,1034.70
             825.27,1031.97 824.99,1028.27 825.00,1025.00
             825.00,1025.00 817.00,1025.00 817.00,1025.00
             816.86,1035.52 814.60,1030.89 808.00,1034.51
             803.63,1036.90 802.61,1038.66 797.00,1040.27
             790.45,1042.16 781.72,1041.06 775.00,1041.00
             775.00,1041.00 775.00,1049.00 775.00,1049.00
             770.17,1048.94 762.44,1046.84 758.95,1043.46
             758.95,1043.46 755.34,1038.58 755.34,1038.58
             753.97,1036.63 752.08,1034.01 751.22,1031.72
             750.84,1029.59 751.00,1025.34 751.22,1023.00
             751.22,1023.00 733.00,1022.00 733.00,1022.00
             733.00,1022.00 737.00,1021.00 737.00,1021.00
             737.00,1021.00 737.00,1015.00 737.00,1015.00
             726.55,1013.10 727.00,1010.36 727.00,1001.00
             727.00,1001.00 718.00,1002.74 718.00,1002.74
             718.00,1002.74 711.00,1003.37 711.00,1003.37
             711.00,1003.37 701.18,1004.74 701.18,1004.74
             701.18,1004.74 694.82,1001.03 694.82,1001.03
             694.82,1001.03 688.89,995.87 688.89,995.87
             688.89,995.87 687.00,983.00 687.00,983.00
             687.00,983.00 696.00,979.00 696.00,979.00
             701.06,987.96 710.48,977.29 717.00,976.06
             719.98,975.25 721.56,976.55 723.99,976.06
             726.89,975.86 728.39,973.65 731.17,973.56
             733.91,973.11 735.84,974.86 738.83,973.56
             741.95,972.56 752.47,964.03 754.38,961.13
             757.01,957.13 756.75,955.26 758.00,953.37
             760.81,949.14 763.32,950.86 765.00,943.00
             765.00,943.00 757.00,943.00 757.00,943.00
             757.00,943.00 763.92,933.72 763.92,933.72
             763.92,933.72 761.22,925.00 761.22,925.00
             761.22,925.00 765.00,914.00 765.00,914.00
             765.00,914.00 744.00,910.00 744.00,910.00
             744.00,910.00 760.00,899.00 760.00,899.00
             756.22,896.17 756.98,894.85 759.00,891.00
             749.81,891.77 750.37,878.68 752.02,876.60
             753.66,874.52 758.55,875.00 761.00,875.00
             761.01,881.71 760.32,883.58 766.00,888.00
             767.58,892.72 772.85,892.46 777.00,893.24
             777.00,893.24 792.00,896.86 792.00,896.86
             799.94,897.52 806.54,890.15 811.00,901.00
             816.81,898.73 821.20,898.33 820.00,891.00
             823.60,892.19 823.69,892.46 825.00,896.00
             825.00,896.00 831.00,894.00 831.00,894.00
             828.54,890.56 829.31,889.85 828.41,886.00
             826.91,879.58 825.61,876.13 832.58,872.25
             836.45,870.10 840.04,871.85 842.22,869.40
             843.02,868.51 843.33,867.29 843.04,866.13
             842.08,862.27 836.01,863.00 833.00,863.00
             833.00,863.00 834.00,856.00 834.00,856.00
             834.00,856.00 841.00,857.00 841.00,857.00
             841.00,857.00 841.00,849.00 841.00,849.00
             841.00,849.00 849.00,849.00 849.00,849.00
             849.00,849.00 847.00,841.00 847.00,841.00
             854.71,838.65 851.15,836.24 853.71,831.17
             854.80,829.00 858.06,826.28 855.40,823.79
             853.20,821.74 850.56,824.29 846.00,825.00
             846.00,825.00 846.00,821.00 846.00,821.00
             836.09,822.15 838.98,826.71 833.00,831.00
             833.00,831.00 835.00,818.93 835.00,818.93
             835.00,818.93 832.02,818.93 832.02,818.93
             824.51,817.63 829.94,812.15 828.48,807.18
             827.48,803.78 822.68,801.05 822.78,796.00
             822.85,792.14 826.91,788.26 829.25,785.42
             829.25,785.42 841.00,769.00 841.00,769.00
             841.00,769.00 845.00,770.00 845.00,770.00
             845.92,766.74 845.79,766.25 849.00,765.00
             849.38,767.27 849.56,769.46 852.13,770.34
             856.02,771.69 857.41,767.59 859.63,765.55
             859.63,765.55 872.00,758.74 872.00,758.74
             878.88,754.78 882.25,754.74 889.00,751.99
             898.12,748.27 920.17,738.10 928.00,733.00
             928.00,733.00 929.00,748.00 929.00,748.00 Z" />
</svg>
