<?xml version="1.0" encoding="UTF-8" standalone="no"?>
<!DOCTYPE svg PUBLIC "-//W3C//DTD SVG 20010904//EN"
              "http://www.w3.org/TR/2001/REC-SVG-20010904/DTD/svg10.dtd">

<svg xmlns="http://www.w3.org/2000/svg"
     width="43.6334in" height="36.3288in"
     viewBox="0 0 3142 2616">
  <path id="Brittany"
        fill="Cyan" stroke="black" stroke-width="1"
        d="M 818.09,1214.42
           C 818.09,1214.42 840.00,1215.00 840.00,1215.00
             840.00,1215.00 832.72,1227.04 832.72,1227.04
             832.72,1227.04 835.89,1236.09 835.89,1236.09
             835.89,1236.09 837.00,1245.00 837.00,1245.00
             837.00,1245.00 848.00,1243.84 848.00,1243.84
             848.00,1243.84 860.00,1249.88 860.00,1249.88
             860.00,1249.88 876.00,1254.42 876.00,1254.42
             882.33,1256.77 886.98,1262.37 894.00,1261.83
             904.85,1260.99 908.60,1257.11 918.00,1257.00
             917.96,1268.64 914.68,1266.09 914.23,1272.00
             913.96,1275.61 916.24,1279.48 915.95,1286.00
             915.75,1290.76 913.96,1292.96 914.84,1296.00
             916.22,1300.78 922.47,1304.07 925.16,1308.09
             926.99,1310.82 929.03,1317.66 930.31,1321.00
             930.31,1321.00 935.53,1336.00 935.53,1336.00
             936.65,1343.73 928.38,1341.63 925.16,1347.11
             921.73,1352.94 924.95,1358.18 926.00,1364.00
             923.27,1366.08 921.38,1367.50 920.43,1371.00
             918.87,1376.71 922.42,1380.38 917.72,1385.72
             916.00,1387.66 907.65,1396.73 905.96,1397.40
             907.29,1396.88 890.95,1400.99 893.00,1400.91
             889.88,1401.03 887.77,1397.98 883.13,1402.23
             879.54,1405.52 877.93,1411.56 875.91,1416.00
             873.95,1420.28 866.06,1432.56 862.68,1435.43
             854.96,1441.97 849.49,1431.22 839.00,1433.34
             831.65,1434.83 833.15,1440.68 826.00,1439.64
             823.06,1439.22 820.42,1437.37 818.04,1437.86
             813.84,1438.72 812.08,1444.28 812.33,1448.00
             812.33,1448.00 818.41,1473.00 818.41,1473.00
             818.59,1476.74 815.96,1479.44 815.48,1483.00
             815.11,1485.71 816.38,1489.26 817.00,1492.00
             814.85,1492.66 810.15,1494.06 808.00,1493.82
             804.28,1493.42 802.72,1489.89 794.00,1489.18
             789.97,1488.86 781.88,1490.04 778.47,1488.02
             778.47,1488.02 774.45,1484.30 774.45,1484.30
             772.09,1482.70 770.52,1483.30 767.52,1480.87
             761.46,1475.96 763.29,1474.14 754.00,1470.00
             755.97,1461.81 752.96,1454.98 748.44,1448.27
             746.52,1445.43 741.80,1439.45 741.78,1436.09
             741.77,1431.16 752.57,1427.98 752.72,1421.04
             752.83,1416.23 739.68,1405.94 749.06,1403.16
             749.06,1403.16 752.00,1403.16 752.00,1403.16
             754.59,1407.64 763.03,1409.86 768.00,1412.00
             765.86,1409.61 761.54,1404.26 759.90,1401.59
             758.75,1399.73 758.32,1397.65 756.43,1396.31
             751.79,1393.03 742.03,1395.93 737.00,1397.00
             737.00,1397.00 729.00,1387.00 729.00,1387.00
             733.18,1385.73 733.73,1385.18 735.00,1381.00
             735.00,1381.00 740.00,1381.00 740.00,1381.00
             740.00,1381.00 740.00,1377.00 740.00,1377.00
             740.00,1377.00 734.00,1376.00 734.00,1376.00
             734.73,1367.57 728.82,1372.68 726.02,1369.36
             724.60,1367.68 725.00,1361.33 725.00,1359.00
             725.00,1359.00 715.00,1360.12 715.00,1360.12
             715.00,1360.12 708.00,1357.51 708.00,1357.51
             708.00,1357.51 699.00,1357.00 699.00,1357.00
             700.93,1353.79 701.39,1353.79 705.00,1353.00
             705.00,1353.00 705.00,1345.00 705.00,1345.00
             705.00,1345.00 697.00,1345.00 697.00,1345.00
             695.69,1341.04 695.00,1340.88 691.00,1340.00
             691.00,1340.00 691.00,1343.00 691.00,1343.00
             691.00,1343.00 683.00,1343.00 683.00,1343.00
             683.00,1343.00 685.00,1335.00 685.00,1335.00
             685.00,1335.00 677.30,1335.72 677.30,1335.72
             677.30,1335.72 673.13,1331.01 673.13,1331.01
             673.13,1331.01 666.00,1331.01 666.00,1331.01
             666.00,1331.01 665.00,1321.00 665.00,1321.00
             665.00,1321.00 657.00,1322.24 657.00,1322.24
             654.59,1321.95 652.55,1320.18 650.00,1319.51
             645.43,1318.30 643.41,1320.51 640.00,1323.00
             640.00,1323.00 640.00,1307.00 640.00,1307.00
             640.00,1307.00 636.00,1305.00 636.00,1305.00
             636.00,1305.00 651.00,1305.00 651.00,1305.00
             651.00,1305.00 651.00,1294.00 651.00,1294.00
             651.00,1294.00 659.00,1295.00 659.00,1295.00
             659.00,1295.00 653.00,1275.00 653.00,1275.00
             653.00,1275.00 636.00,1275.00 636.00,1275.00
             634.47,1274.97 631.86,1275.03 630.64,1273.98
             628.23,1271.88 631.08,1265.44 633.30,1264.02
             635.33,1262.72 638.62,1263.15 641.00,1262.74
             641.00,1262.74 651.91,1259.37 651.91,1259.37
             654.64,1259.19 655.74,1260.53 659.04,1260.87
             664.65,1261.45 666.48,1258.73 670.41,1260.08
             674.53,1261.51 674.53,1263.99 677.30,1266.24
             679.93,1268.39 683.77,1269.12 687.00,1270.00
             687.00,1270.00 687.00,1265.00 687.00,1265.00
             692.31,1267.39 701.89,1276.13 702.97,1264.00
             702.97,1264.00 702.97,1259.00 702.97,1259.00
             711.00,1261.90 714.64,1261.00 723.00,1261.00
             723.00,1261.00 721.00,1269.00 721.00,1269.00
             721.00,1269.00 727.00,1268.00 727.00,1268.00
             727.00,1268.00 732.63,1278.09 732.63,1278.09
             733.36,1280.46 732.14,1282.10 733.26,1284.83
             734.89,1288.81 736.72,1286.97 737.00,1295.00
             748.50,1294.64 748.16,1289.51 757.00,1287.00
             759.69,1291.48 762.17,1290.95 767.00,1291.00
             767.00,1291.00 767.00,1297.00 767.00,1297.00
             767.00,1297.00 773.00,1295.00 773.00,1295.00
             773.00,1295.00 783.00,1299.00 783.00,1299.00
             783.00,1299.00 785.00,1292.00 785.00,1292.00
             785.00,1292.00 786.00,1297.00 786.00,1297.00
             794.85,1298.12 793.55,1299.98 805.00,1299.00
             805.00,1299.00 805.00,1303.00 805.00,1303.00
             812.77,1302.92 818.35,1301.88 819.00,1293.00
             815.31,1293.00 809.68,1294.00 809.20,1288.94
             808.81,1284.86 813.18,1276.36 814.49,1272.00
             817.02,1263.55 812.49,1264.34 813.52,1258.96
             814.15,1255.66 817.16,1252.18 817.17,1249.04
             817.18,1246.95 815.92,1245.48 815.55,1243.72
             814.96,1240.83 816.46,1238.06 814.81,1235.30
             813.19,1232.59 809.18,1232.26 808.10,1227.98
             807.01,1223.68 810.96,1219.93 811.00,1210.00
             811.00,1210.00 818.09,1214.42 818.09,1214.42 Z" />
</svg>
