<?xml version="1.0" encoding="UTF-8" standalone="no"?>
<!DOCTYPE svg PUBLIC "-//W3C//DTD SVG 20010904//EN"
              "http://www.w3.org/TR/2001/REC-SVG-20010904/DTD/svg10.dtd">

<svg xmlns="http://www.w3.org/2000/svg"
     width="8.33229in" height="5.55486in"
     viewBox="0 0 600 400">
  <path id="Selection"
        fill="green" stroke="black" stroke-width="1"
        d="M 554.00,49.07
           C 556.64,49.67 559.75,52.82 563.00,53.96
             566.74,55.27 569.03,53.61 571.57,55.64
             573.63,57.27 573.88,60.21 575.72,62.72
             577.85,65.60 585.94,72.81 589.00,75.00
             587.80,77.06 578.02,89.86 576.45,91.14
             574.58,92.68 571.37,93.46 566.00,98.18
             566.00,98.18 548.82,114.71 548.82,114.71
             542.56,120.32 535.78,121.63 533.00,134.00
             524.82,136.40 515.10,150.29 515.33,159.00
             515.33,159.00 518.62,174.00 518.62,174.00
             518.62,174.00 517.83,180.00 517.83,180.00
             517.83,180.00 519.91,194.00 519.91,194.00
             522.52,202.02 526.73,202.24 527.00,212.00
             529.43,212.00 533.47,211.69 535.73,212.99
             539.20,215.32 540.43,219.79 535.73,222.14
             530.73,224.85 526.31,223.27 523.30,225.17
             520.31,227.06 520.71,230.65 516.81,231.70
             514.69,232.27 507.35,231.21 500.00,233.00
             500.00,233.00 501.00,235.00 501.00,235.00
             496.48,236.65 495.31,236.51 493.00,241.00
             481.82,241.91 485.27,249.07 480.57,253.18
             478.32,255.15 474.43,255.57 472.60,257.56
             469.75,260.65 472.31,264.64 469.40,268.72
             472.97,263.71 453.10,287.78 456.82,283.83
             454.50,286.29 451.31,288.21 451.29,292.00
             451.28,294.82 453.54,297.70 455.00,299.76
             455.00,299.76 445.00,299.76 445.00,299.76
             445.00,299.76 437.00,296.60 437.00,296.60
             437.00,296.60 429.00,297.40 429.00,297.40
             429.00,297.40 419.00,293.64 419.00,293.64
             419.00,293.64 409.00,295.00 409.00,295.00
             409.00,295.00 411.00,299.00 411.00,299.00
             408.93,300.16 404.64,303.01 402.71,303.57
             400.07,304.32 398.06,303.62 394.09,305.57
             394.09,305.57 383.17,313.62 383.17,313.62
             381.23,314.99 377.91,316.67 376.54,318.30
             374.23,321.03 373.59,326.21 370.98,330.72
             366.10,339.12 354.52,349.67 345.00,352.00
             344.02,349.75 342.62,345.47 341.11,343.84
             338.73,341.26 324.77,336.68 321.00,336.00
             319.57,340.84 314.65,346.30 309.00,345.37
             306.53,344.96 299.00,340.02 295.99,338.50
             287.11,334.03 280.93,332.00 271.00,331.64
             267.66,331.82 261.95,332.40 259.00,331.64
             259.00,331.64 248.83,325.43 248.83,325.43
             246.04,324.43 243.97,325.37 241.17,323.99
             238.78,322.80 237.96,320.81 233.00,319.06
             228.21,317.37 219.36,318.07 214.00,318.00
             205.33,317.88 202.07,314.60 197.00,314.26
             192.28,313.95 187.80,317.86 184.00,320.33
             180.30,322.73 172.40,325.72 168.00,325.53
             163.95,325.36 160.01,321.71 157.00,321.09
             157.00,321.09 146.00,322.00 146.00,322.00
             143.15,322.02 136.37,321.71 134.01,322.60
             129.18,324.43 120.35,336.90 119.00,342.00
             111.67,337.97 113.79,341.47 106.96,346.13
             105.02,347.46 101.29,348.96 99.00,350.00
             98.19,340.15 92.69,344.36 88.60,338.86
             86.25,335.69 87.64,332.09 85.26,329.59
             83.26,327.50 80.03,328.25 76.14,324.66
             72.07,320.90 69.13,309.54 68.00,304.00
             68.00,304.00 75.00,302.00 75.00,302.00
             74.90,293.65 74.27,296.21 70.87,290.69
             68.04,286.09 68.92,285.49 63.00,284.00
             63.75,281.70 64.48,279.29 65.89,277.29
             69.10,272.74 78.54,267.15 67.00,264.00
             66.18,261.35 64.63,254.97 63.42,253.09
             63.42,253.09 59.96,248.73 59.96,248.73
             58.82,246.96 58.65,245.55 57.11,243.76
             52.85,238.77 44.37,236.54 43.00,226.00
             46.21,224.07 46.21,223.61 47.00,220.00
             47.00,220.00 41.00,220.00 41.00,220.00
             41.00,220.00 41.00,217.00 41.00,217.00
             37.00,217.88 36.31,218.04 35.00,222.00
             31.44,221.23 27.99,220.86 27.00,217.00
             27.00,217.00 11.00,215.00 11.00,215.00
             11.00,215.00 14.79,201.00 14.79,201.00
             15.83,193.64 13.36,189.42 13.85,187.00
             14.13,185.64 22.20,174.73 23.55,173.60
             26.74,170.93 29.92,173.16 33.85,169.69
             37.58,166.39 36.39,162.99 39.31,160.80
             41.85,159.31 55.04,159.47 57.71,160.80
             59.54,161.33 60.63,162.67 62.00,164.00
             63.18,158.82 66.62,154.30 63.00,150.00
             63.00,150.00 64.00,145.00 64.00,145.00
             76.41,147.06 71.69,151.80 77.21,157.49
             78.51,158.83 79.94,159.68 81.00,161.32
             83.51,165.23 81.98,168.96 90.00,168.58
             98.55,168.17 93.63,172.25 100.11,176.87
             105.67,180.84 122.03,182.86 128.00,179.83
             132.43,177.57 133.63,174.63 134.00,170.00
             134.00,170.00 139.00,170.00 139.00,170.00
             140.85,178.68 148.69,180.59 154.87,174.77
             159.88,170.06 162.37,153.84 162.57,153.44
             164.03,150.63 166.86,152.20 171.00,150.15
             176.19,147.58 182.19,143.20 188.00,141.91
             188.00,141.91 195.00,141.91 195.00,141.91
             196.81,141.67 199.15,141.11 200.90,141.91
             203.47,142.54 206.08,146.71 208.05,148.83
             208.05,148.83 215.13,156.84 215.13,156.84
             220.93,162.68 221.97,162.30 227.26,170.00
             232.43,177.54 235.81,184.08 246.00,180.00
             250.61,183.73 264.03,189.43 270.00,188.78
             270.00,188.78 277.00,187.47 277.00,187.47
             280.25,187.59 281.16,189.38 289.00,189.71
             294.21,189.93 294.54,192.28 298.58,193.02
             301.03,193.48 306.03,192.42 310.00,193.54
             310.00,193.54 315.00,195.46 315.00,195.46
             315.00,195.46 329.00,198.58 329.00,198.58
             333.57,199.04 342.13,195.35 347.00,196.69
             354.30,198.69 352.49,204.10 352.81,208.00
             353.19,212.69 355.93,215.14 354.61,221.00
             353.03,228.00 343.49,231.85 351.53,239.57
             360.60,248.28 373.84,231.54 382.00,228.59
             386.12,227.11 401.68,225.24 405.99,226.43
             411.81,228.05 413.04,234.39 420.96,230.99
             429.53,227.32 425.84,216.06 427.57,212.41
             429.05,209.30 431.81,210.54 435.00,204.01
             435.00,204.01 451.98,204.01 451.98,204.01
             457.05,205.91 458.51,212.43 463.95,211.46
             469.34,210.50 467.62,205.52 468.66,202.00
             469.72,198.42 475.76,191.97 471.98,185.06
             468.28,178.29 457.08,183.54 454.95,174.96
             453.23,168.05 466.70,157.77 463.72,151.10
             460.45,143.76 444.12,144.91 445.43,134.01
             445.89,130.23 452.82,123.06 456.17,121.58
             457.97,120.79 460.54,120.95 462.85,119.26
             465.87,117.06 465.65,114.41 467.00,112.37
             469.80,108.18 472.35,109.74 475.00,102.00
             475.00,102.00 485.00,103.00 485.00,103.00
             485.29,107.91 488.61,115.64 494.94,112.87
             498.61,111.28 498.52,107.35 502.68,102.94
             507.89,97.41 511.10,98.86 514.85,95.57
             518.46,92.41 517.54,89.34 519.02,87.61
             521.50,84.70 526.60,88.41 530.86,85.98
             533.10,84.70 534.00,82.22 535.54,80.28
             535.54,80.28 539.32,75.91 539.32,75.91
             539.32,75.91 543.75,60.00 543.75,60.00
             543.98,57.65 543.41,55.30 543.00,53.00
             545.84,51.49 550.78,48.34 554.00,49.07 Z" />
</svg>
