<?xml version="1.0" encoding="UTF-8" standalone="no"?>
<!DOCTYPE svg PUBLIC "-//W3C//DTD SVG 20010904//EN"
              "http://www.w3.org/TR/2001/REC-SVG-20010904/DTD/svg10.dtd">

<svg xmlns="http://www.w3.org/2000/svg"
     width="8.33229in" height="5.55486in"
     viewBox="0 0 600 400">
  <path id="Selection"
        fill="green" stroke="black" stroke-width="1"
        d="M 154.17,49.13
           C 159.87,52.95 165.08,50.81 167.00,63.00
             167.00,63.00 175.22,63.00 175.22,63.00
             174.57,64.61 173.61,66.87 175.22,68.11
             177.20,69.29 180.03,67.53 183.00,66.95
             183.00,66.95 194.91,66.95 194.91,66.95
             199.90,67.46 198.18,69.69 205.00,66.95
             209.72,69.81 214.93,71.53 220.00,73.60
             222.23,74.51 225.51,75.53 226.21,78.14
             227.91,84.44 216.49,87.39 220.78,93.86
             223.78,98.38 228.93,96.14 234.00,97.76
             247.20,101.98 250.80,110.29 260.00,113.00
             262.66,122.14 267.37,118.24 268.00,129.00
             280.82,129.00 282.38,128.03 295.00,132.00
             295.00,132.00 300.00,145.00 300.00,145.00
             312.35,145.00 314.75,144.12 327.00,147.70
             331.39,148.98 343.95,153.69 347.81,152.48
             352.19,151.10 351.95,146.72 352.00,143.00
             352.00,143.00 373.00,153.09 373.00,153.09
             373.00,153.09 379.00,157.44 379.00,157.44
             379.00,157.44 390.00,164.00 390.00,164.00
             385.46,172.13 386.00,176.16 386.00,185.00
             395.92,184.88 402.59,179.86 412.91,186.27
             418.22,189.57 417.95,194.62 422.19,196.40
             427.57,198.67 434.65,193.49 439.83,194.87
             442.40,195.55 447.99,200.75 451.00,202.60
             454.59,204.80 459.82,205.70 464.00,207.00
             468.12,198.58 479.79,199.00 488.00,199.00
             488.14,210.38 491.18,208.41 497.00,213.00
             497.00,213.00 484.00,212.00 484.00,212.00
             484.00,219.96 484.99,232.57 490.00,239.00
             490.00,239.00 490.00,241.00 490.00,241.00
             490.00,241.00 479.00,249.21 479.00,249.21
             479.00,249.21 463.96,256.50 463.96,256.50
             463.96,256.50 453.00,259.34 453.00,259.34
             453.00,259.34 432.00,267.61 432.00,267.61
             426.81,269.39 424.03,268.80 422.11,269.60
             418.58,271.06 418.51,274.13 416.73,276.81
             415.14,279.20 412.65,280.84 410.00,281.86
             410.00,281.86 393.00,283.12 393.00,283.12
             393.00,283.12 385.00,284.87 385.00,284.87
             385.00,284.87 363.00,286.00 363.00,286.00
             363.00,286.00 349.00,287.00 349.00,287.00
             345.17,287.04 340.55,286.52 337.09,288.27
             337.09,288.27 329.82,293.74 329.82,293.74
             326.01,295.88 323.81,294.70 318.38,300.98
             316.62,303.00 312.23,308.22 312.72,310.95
             313.18,313.46 317.03,315.32 319.00,317.00
             308.33,317.00 305.66,315.08 299.00,324.00
             294.14,321.70 288.81,316.32 285.77,311.83
             283.70,308.77 283.08,305.96 279.90,303.31
             275.83,299.92 272.88,301.69 269.00,300.44
             264.93,299.12 262.04,295.18 258.00,295.12
             254.02,295.06 241.97,301.78 241.30,306.02
             240.84,308.95 243.15,311.05 242.14,314.96
             241.17,318.76 238.32,319.68 237.09,322.21
             235.81,324.83 237.85,324.29 233.00,334.00
             227.34,333.18 222.67,331.30 218.74,337.06
             216.89,339.77 217.32,342.32 215.41,344.08
             215.41,344.08 206.09,348.70 206.09,348.70
             201.97,351.68 200.17,356.26 197.00,360.00
             196.69,357.78 196.73,355.09 195.37,353.23
             193.00,349.99 189.10,350.19 186.09,348.97
             186.09,348.97 174.54,342.07 174.54,342.07
             173.29,341.08 168.72,335.27 168.29,333.79
             167.65,331.62 168.36,329.29 166.26,326.04
             163.03,321.04 153.27,315.13 153.08,308.00
             152.95,303.40 157.51,303.14 160.00,295.94
             162.29,296.18 165.85,296.88 167.89,295.94
             172.20,293.80 173.01,283.31 172.70,279.00
             172.70,279.00 171.21,272.00 171.21,272.00
             171.21,272.00 170.61,261.00 170.61,261.00
             168.82,252.56 160.80,239.62 153.00,235.68
             150.37,234.36 146.90,233.77 144.00,233.00
             144.27,230.92 145.05,221.86 145.99,220.62
             148.14,218.26 151.65,220.88 155.00,220.62
             164.69,219.32 161.59,210.10 160.00,204.00
             163.73,202.93 167.76,203.05 170.96,200.57
             172.80,199.14 174.42,197.19 175.12,195.00
             176.68,191.30 177.23,177.65 175.12,174.23
             172.35,170.23 168.77,173.95 164.26,168.37
             160.78,164.06 163.07,161.05 160.26,157.37
             156.13,151.96 144.62,146.83 138.00,150.17
             134.99,151.70 133.00,154.39 131.00,157.00
             125.41,155.37 124.65,153.91 121.00,152.69
             118.35,151.81 116.38,152.21 114.68,151.01
             114.68,151.01 110.73,146.37 110.73,146.37
             108.75,144.39 105.67,142.96 105.12,139.96
             104.65,137.32 109.17,126.88 109.80,123.00
             111.20,114.23 111.89,117.06 113.11,111.99
             113.75,109.36 113.10,106.99 114.11,105.64
             115.78,103.40 123.84,106.09 124.62,98.00
             125.01,93.91 121.63,91.00 119.45,88.00
             119.45,88.00 112.00,76.00 112.00,76.00
             114.67,77.19 118.85,80.13 121.00,80.51
             125.55,81.33 130.50,76.58 128.72,72.00
             127.70,69.38 124.66,67.20 123.16,64.72
             119.04,57.91 121.41,52.94 107.00,50.00
             107.00,50.00 118.00,42.00 118.00,42.00
             120.54,43.76 124.44,47.12 127.00,48.15
             133.48,50.75 140.46,48.04 142.00,41.00
             147.64,43.99 149.40,45.93 154.17,49.13 Z" />
</svg>
