<?xml version="1.0" encoding="UTF-8" standalone="no"?>
<!DOCTYPE svg PUBLIC "-//W3C//DTD SVG 20010904//EN"
              "http://www.w3.org/TR/2001/REC-SVG-20010904/DTD/svg10.dtd">

<svg xmlns="http://www.w3.org/2000/svg"
     width="43.6334in" height="36.3288in"
     viewBox="0 0 3142 2616">
  <path id="Catalonia"
        fill="Green" stroke="black" stroke-width="1"
        d="M 637.17,1711.13
           C 642.87,1714.95 648.08,1712.81 650.00,1725.00
             650.00,1725.00 658.22,1725.00 658.22,1725.00
             657.57,1726.61 656.61,1728.87 658.22,1730.11
             660.20,1731.29 663.03,1729.53 666.00,1728.95
             666.00,1728.95 677.91,1728.95 677.91,1728.95
             682.90,1729.46 681.18,1731.69 688.00,1728.95
             692.72,1731.81 697.93,1733.53 703.00,1735.60
             705.23,1736.51 708.51,1737.53 709.21,1740.14
             710.91,1746.44 699.49,1749.39 703.78,1755.86
             706.78,1760.38 711.93,1758.14 717.00,1759.76
             730.20,1763.98 733.80,1772.29 743.00,1775.00
             745.66,1784.14 750.37,1780.24 751.00,1791.00
             763.82,1791.00 765.38,1790.03 778.00,1794.00
             778.00,1794.00 783.00,1807.00 783.00,1807.00
             795.35,1807.00 797.75,1806.12 810.00,1809.70
             814.39,1810.98 826.95,1815.69 830.81,1814.48
             835.19,1813.10 834.95,1808.72 835.00,1805.00
             835.00,1805.00 856.00,1815.09 856.00,1815.09
             856.00,1815.09 862.00,1819.44 862.00,1819.44
             862.00,1819.44 873.00,1826.00 873.00,1826.00
             868.46,1834.13 869.00,1838.16 869.00,1847.00
             878.92,1846.88 885.59,1841.86 895.91,1848.27
             901.22,1851.57 900.95,1856.62 905.19,1858.40
             910.57,1860.67 917.65,1855.49 922.83,1856.87
             925.40,1857.55 930.99,1862.75 934.00,1864.60
             937.59,1866.80 942.82,1867.70 947.00,1869.00
             951.12,1860.58 962.79,1861.00 971.00,1861.00
             971.14,1872.38 974.18,1870.41 980.00,1875.00
             980.00,1875.00 967.00,1874.00 967.00,1874.00
             967.00,1881.96 967.99,1894.57 973.00,1901.00
             973.00,1901.00 973.00,1903.00 973.00,1903.00
             973.00,1903.00 962.00,1911.21 962.00,1911.21
             962.00,1911.21 946.96,1918.50 946.96,1918.50
             946.96,1918.50 936.00,1921.34 936.00,1921.34
             936.00,1921.34 915.00,1929.61 915.00,1929.61
             909.81,1931.39 907.03,1930.80 905.11,1931.60
             901.58,1933.06 901.51,1936.13 899.73,1938.81
             898.14,1941.20 895.65,1942.84 893.00,1943.86
             893.00,1943.86 876.00,1945.12 876.00,1945.12
             876.00,1945.12 868.00,1946.87 868.00,1946.87
             868.00,1946.87 846.00,1948.00 846.00,1948.00
             846.00,1948.00 832.00,1949.00 832.00,1949.00
             828.17,1949.04 823.55,1948.52 820.09,1950.27
             820.09,1950.27 812.82,1955.74 812.82,1955.74
             809.01,1957.88 806.81,1956.70 801.38,1962.98
             799.62,1965.00 795.23,1970.22 795.72,1972.95
             796.18,1975.46 800.03,1977.32 802.00,1979.00
             791.33,1979.00 788.66,1977.08 782.00,1986.00
             777.74,1983.99 771.60,1978.46 768.89,1974.58
             767.06,1971.96 765.90,1967.33 761.91,1964.60
             758.22,1962.08 755.64,1963.97 752.00,1962.75
             748.11,1961.44 744.92,1957.23 741.58,1957.07
             738.01,1956.91 725.77,1963.53 724.90,1967.04
             723.57,1970.42 726.22,1972.81 724.90,1976.96
             724.15,1980.78 721.32,1981.68 720.09,1984.21
             718.81,1986.83 720.85,1986.29 716.00,1996.00
             710.56,1995.28 705.52,1993.74 701.74,1999.11
             699.88,2001.74 700.34,2004.29 698.41,2006.08
             696.73,2007.63 691.51,2008.78 688.17,2011.49
             684.40,2014.56 682.99,2019.45 679.00,2022.00
             680.45,2011.98 675.41,2013.52 669.09,2010.97
             669.09,2010.97 657.54,2004.07 657.54,2004.07
             656.29,2003.08 651.72,1997.27 651.29,1995.79
             650.65,1993.60 651.37,1991.26 649.26,1988.09
             645.66,1982.67 635.42,1976.82 635.95,1969.09
             636.07,1967.25 642.33,1959.86 644.00,1957.00
             653.72,1960.52 654.01,1955.87 654.65,1948.00
             654.65,1948.00 655.59,1943.00 655.59,1943.00
             656.00,1939.55 654.47,1936.38 654.09,1933.00
             654.09,1933.00 653.48,1923.00 653.48,1923.00
             652.75,1918.43 647.40,1908.69 644.53,1905.01
             642.14,1901.95 638.53,1899.05 635.00,1897.41
             632.33,1896.17 629.19,1896.03 628.11,1894.41
             627.09,1892.88 627.90,1884.17 628.99,1882.65
             629.97,1881.27 631.56,1880.71 633.00,1880.00
             637.21,1884.09 643.26,1882.61 644.68,1876.96
             645.55,1873.48 643.87,1869.35 643.00,1866.00
             646.73,1864.93 650.76,1865.05 653.96,1862.57
             655.80,1861.14 657.42,1859.19 658.06,1857.00
             659.78,1853.05 660.03,1839.91 658.06,1836.23
             655.49,1832.24 651.79,1835.96 647.26,1830.37
             643.78,1826.06 646.07,1823.05 643.26,1819.37
             639.41,1814.33 628.29,1809.36 622.00,1811.74
             618.46,1813.08 616.21,1816.11 614.00,1819.00
             614.00,1819.00 604.00,1814.85 604.00,1814.85
             602.04,1814.20 599.19,1814.08 597.68,1813.01
             597.68,1813.01 593.73,1808.59 593.73,1808.59
             591.90,1806.87 589.15,1805.45 588.23,1802.96
             587.34,1800.54 589.25,1796.50 590.00,1794.00
             590.00,1794.00 592.61,1786.00 592.61,1786.00
             592.61,1786.00 593.54,1780.00 593.54,1780.00
             593.54,1780.00 595.46,1775.00 595.46,1775.00
             595.46,1775.00 596.60,1768.32 596.60,1768.32
             598.38,1764.75 606.62,1767.76 607.50,1760.00
             607.93,1756.15 604.50,1752.84 602.45,1750.00
             600.27,1746.98 596.42,1740.41 595.00,1737.00
             597.67,1738.62 601.17,1741.84 604.00,1742.32
             607.98,1743.01 612.91,1739.31 612.04,1735.00
             611.46,1732.12 608.35,1729.99 606.72,1727.72
             606.72,1727.72 602.35,1719.02 602.35,1719.02
             598.48,1713.59 595.69,1713.76 590.00,1712.00
             590.00,1712.00 590.00,1710.00 590.00,1710.00
             590.00,1710.00 602.00,1704.00 602.00,1704.00
             604.13,1706.03 606.36,1708.33 609.00,1709.69
             615.48,1713.01 623.36,1710.45 625.00,1703.00
             630.64,1705.99 632.40,1707.93 637.17,1711.13 Z" />

 <path id="Galicia"
        fill="green" stroke="black" stroke-width="1"
        d="M 323.00,1597.80
           C 323.00,1597.80 337.00,1595.00 337.00,1595.00
             337.00,1595.00 335.00,1601.00 335.00,1601.00
             335.00,1601.00 350.00,1600.00 350.00,1600.00
             350.00,1600.00 349.00,1607.00 349.00,1607.00
             349.00,1607.00 360.00,1603.00 360.00,1603.00
             363.17,1611.72 367.53,1612.85 368.00,1623.00
             368.00,1623.00 376.49,1623.84 376.49,1623.84
             376.49,1623.84 382.00,1628.67 382.00,1628.67
             382.00,1628.67 390.01,1627.23 390.01,1627.23
             390.01,1627.23 400.00,1632.25 400.00,1632.25
             400.00,1632.25 410.00,1635.05 410.00,1635.05
             410.00,1635.05 419.00,1638.27 419.00,1638.27
             419.00,1638.27 424.83,1639.23 424.83,1639.23
             424.83,1639.23 434.00,1641.37 434.00,1641.37
             434.00,1641.37 446.41,1644.06 446.41,1644.06
             446.41,1644.06 455.00,1643.00 455.00,1643.00
             458.34,1651.52 465.26,1654.52 474.00,1655.00
             473.84,1663.99 480.26,1659.49 485.00,1657.00
             486.74,1669.37 499.28,1667.20 505.00,1670.02
             505.00,1670.02 512.00,1675.16 512.00,1675.16
             512.00,1675.16 531.00,1686.02 531.00,1686.02
             534.27,1687.49 540.29,1686.95 544.00,1687.00
             553.01,1687.12 557.48,1691.12 567.00,1689.00
             567.00,1689.00 567.00,1693.00 567.00,1693.00
             567.00,1693.00 587.00,1689.00 587.00,1689.00
             587.00,1689.00 587.00,1701.00 587.00,1701.00
             587.00,1701.00 595.00,1702.00 595.00,1702.00
             589.98,1703.50 582.82,1705.09 583.97,1712.00
             584.25,1713.72 584.97,1715.26 586.31,1716.42
             589.04,1718.78 593.48,1718.14 596.44,1720.72
             599.46,1723.35 599.42,1727.22 600.98,1729.95
             602.81,1733.16 604.52,1733.03 606.00,1737.00
             606.00,1737.00 598.00,1732.19 598.00,1732.19
             592.51,1729.77 588.50,1735.22 589.47,1739.99
             590.36,1744.38 599.65,1755.01 602.00,1760.00
             598.56,1760.16 593.95,1760.36 591.60,1763.30
             589.07,1766.46 591.31,1769.24 589.93,1773.00
             589.19,1775.03 587.66,1776.44 587.02,1779.00
             586.12,1782.58 588.12,1781.54 584.26,1793.00
             582.61,1797.86 579.98,1800.93 583.01,1805.98
             585.10,1809.47 587.18,1810.17 589.51,1812.59
             591.60,1814.77 592.29,1817.25 595.11,1818.83
             597.99,1820.44 600.56,1819.46 605.00,1821.41
             607.85,1822.67 611.66,1825.65 614.91,1824.93
             620.14,1823.78 620.23,1815.00 630.00,1817.72
             640.93,1820.76 637.13,1827.71 642.93,1834.41
             648.98,1841.40 652.72,1839.07 653.57,1845.02
             654.05,1848.39 653.21,1856.64 649.77,1858.26
             647.03,1859.56 641.73,1858.36 638.87,1862.28
             636.01,1865.86 638.61,1871.64 638.87,1876.00
             636.80,1875.32 634.33,1874.26 632.00,1874.52
             623.72,1875.43 622.28,1881.27 621.78,1888.00
             621.30,1894.52 620.53,1893.40 623.00,1899.89
             618.58,1899.52 611.29,1900.87 609.09,1899.89
             604.13,1897.34 602.83,1890.15 599.59,1886.09
             598.01,1884.11 592.10,1878.38 589.98,1877.16
             589.98,1877.16 585.59,1875.07 585.59,1875.07
             583.84,1873.90 583.17,1872.46 580.90,1871.94
             580.90,1871.94 570.00,1871.94 570.00,1871.94
             556.93,1871.98 555.34,1867.81 550.00,1867.93
             545.35,1868.03 536.26,1873.38 532.00,1875.48
             525.40,1878.75 513.34,1881.32 509.06,1884.64
             504.71,1888.00 505.33,1890.72 502.57,1893.66
             496.84,1899.77 485.12,1894.13 484.00,1908.00
             480.19,1908.00 475.49,1907.31 472.64,1910.31
             469.57,1913.55 469.11,1919.26 467.18,1921.27
             465.22,1923.30 459.24,1923.85 456.13,1925.92
             453.10,1927.94 453.10,1930.08 448.00,1934.00
             447.59,1932.62 447.33,1931.39 446.56,1930.12
             441.85,1922.32 433.47,1931.30 427.00,1932.53
             424.26,1933.05 411.78,1931.44 409.10,1930.69
             405.06,1929.55 402.93,1924.14 400.40,1921.05
             400.40,1921.05 388.28,1911.14 388.28,1911.14
             385.88,1908.83 384.79,1905.63 381.94,1903.74
             375.91,1899.73 373.14,1905.87 367.04,1899.52
             362.06,1894.33 361.53,1884.69 354.98,1882.92
             350.85,1881.80 336.90,1887.13 333.04,1889.27
             326.98,1892.64 326.10,1899.26 317.00,1891.00
             317.00,1891.00 323.00,1891.00 323.00,1891.00
             323.00,1891.00 320.89,1879.17 320.89,1879.17
             320.89,1879.17 324.57,1870.83 324.57,1870.83
             324.57,1870.83 328.82,1856.01 328.82,1856.01
             328.82,1856.01 332.71,1847.91 332.71,1847.91
             332.71,1847.91 331.00,1833.00 331.00,1833.00
             340.64,1831.44 339.14,1824.19 346.01,1821.60
             346.01,1821.60 356.00,1820.53 356.00,1820.53
             356.00,1820.53 372.74,1813.84 372.74,1813.84
             372.74,1813.84 379.93,1807.14 379.93,1807.14
             383.66,1804.00 388.05,1799.30 387.20,1794.00
             387.20,1794.00 385.00,1787.00 385.00,1787.00
             386.93,1786.40 391.50,1784.43 388.42,1781.78
             385.35,1779.13 376.71,1785.24 372.37,1781.11
             370.80,1779.31 371.58,1777.11 372.37,1775.00
             373.59,1769.76 378.77,1756.99 368.98,1756.36
             368.98,1756.36 363.00,1757.00 363.00,1757.00
             360.91,1747.52 356.62,1753.18 351.00,1750.90
             345.51,1748.68 344.00,1743.76 335.04,1744.84
             329.31,1745.53 329.75,1750.49 326.70,1751.72
             324.80,1752.49 321.85,1751.17 320.00,1750.53
             312.97,1748.08 308.27,1747.28 307.00,1739.00
             307.00,1739.00 293.00,1739.00 293.00,1739.00
             293.00,1739.00 293.00,1733.00 293.00,1733.00
             280.40,1733.85 276.89,1742.01 274.00,1730.00
             276.75,1728.60 282.44,1726.23 283.97,1723.66
             286.43,1719.55 280.02,1710.17 275.98,1709.36
             272.72,1708.69 269.83,1710.80 265.00,1710.94
             258.68,1711.14 254.89,1708.44 251.17,1709.62
             251.17,1709.62 243.99,1713.86 243.99,1713.86
             240.70,1715.24 237.48,1715.00 234.00,1715.00
             234.00,1715.00 237.00,1711.00 237.00,1711.00
             237.00,1711.00 236.00,1707.00 236.00,1707.00
             244.23,1704.97 243.39,1701.32 248.09,1699.25
             251.19,1697.88 254.05,1699.39 256.94,1698.67
             261.63,1697.51 261.47,1691.00 262.00,1687.00
             262.00,1687.00 257.00,1686.00 257.00,1686.00
             260.53,1683.53 261.65,1683.20 263.00,1679.00
             263.00,1679.00 251.00,1679.00 251.00,1679.00
             252.24,1676.28 253.95,1671.81 255.55,1669.52
             259.08,1664.49 261.48,1666.04 263.00,1659.00
             263.00,1659.00 257.00,1659.00 257.00,1659.00
             257.00,1659.00 257.00,1655.00 257.00,1655.00
             247.38,1655.31 249.34,1658.43 242.00,1662.00
             246.05,1650.22 256.08,1654.19 257.00,1643.00
             257.00,1643.00 247.29,1641.69 247.29,1641.69
             247.29,1641.69 244.53,1635.00 244.53,1635.00
             244.53,1635.00 241.00,1623.00 241.00,1623.00
             247.81,1621.15 250.37,1618.53 254.00,1617.51
             254.00,1617.51 262.96,1616.40 262.96,1616.40
             266.59,1615.01 267.99,1611.34 271.02,1611.03
             274.93,1610.63 275.23,1614.25 275.00,1617.00
             275.00,1617.00 282.00,1616.34 282.00,1616.34
             290.83,1616.34 286.86,1618.15 297.00,1615.00
             300.32,1617.13 301.40,1616.08 305.00,1615.00
             305.00,1615.00 307.00,1622.00 307.00,1622.00
             307.00,1622.00 312.00,1623.00 312.00,1623.00
             311.48,1616.60 313.75,1618.19 315.83,1613.72
             316.51,1612.25 316.78,1606.97 317.00,1605.00
             317.00,1605.00 312.00,1604.00 312.00,1604.00
             312.00,1604.00 312.00,1602.00 312.00,1602.00
             312.00,1602.00 323.00,1597.80 323.00,1597.80 Z" />

 <path id="Madrid"
        fill="Green" stroke="black" stroke-width="1"
        d="M 305.06,1894.10
           C 308.18,1893.81 320.05,1901.02 324.00,1901.14
             329.22,1901.30 331.65,1897.50 335.28,1894.99
             337.89,1893.19 343.88,1890.85 347.00,1889.90
             349.24,1889.44 352.51,1888.37 354.58,1889.90
             356.66,1891.20 357.45,1894.82 358.55,1897.00
             360.15,1900.13 362.50,1902.56 365.00,1904.98
             367.01,1906.92 369.05,1909.11 372.00,1909.48
             374.58,1909.49 376.75,1907.57 379.12,1909.48
             380.06,1910.45 380.85,1912.60 383.97,1915.41
             383.97,1915.41 396.25,1925.13 396.25,1925.13
             399.00,1928.32 401.56,1934.10 405.05,1935.98
             407.64,1937.37 411.11,1936.84 414.00,1937.18
             419.99,1937.90 422.49,1940.31 431.00,1937.94
             436.12,1936.52 437.35,1933.58 439.88,1933.60
             443.34,1933.64 444.22,1940.14 449.00,1940.14
             452.82,1940.14 455.35,1935.19 458.44,1932.47
             463.16,1928.31 468.10,1929.07 471.58,1925.58
             474.75,1922.42 474.46,1917.95 476.72,1915.31
             480.11,1911.37 485.17,1914.42 488.67,1911.40
             491.20,1909.22 490.20,1906.37 491.76,1904.60
             493.95,1902.11 497.58,1904.00 502.00,1901.26
             508.80,1897.05 510.34,1890.51 514.13,1888.30
             514.13,1888.30 534.96,1880.90 534.96,1880.90
             540.15,1878.61 544.95,1874.27 551.00,1874.39
             556.40,1874.50 556.84,1877.98 569.00,1878.00
             578.19,1878.01 575.24,1877.12 583.08,1881.05
             583.08,1881.05 587.72,1882.99 587.72,1882.99
             598.92,1889.59 598.36,1902.96 609.00,1906.29
             611.20,1906.97 618.96,1905.95 622.00,1905.76
             627.51,1905.42 628.99,1902.06 633.00,1903.03
             637.27,1904.06 640.74,1909.45 642.84,1913.00
             648.19,1922.01 647.10,1924.40 648.10,1934.00
             648.10,1934.00 649.24,1942.00 649.24,1942.00
             649.39,1946.25 648.04,1944.66 649.24,1952.00
             636.86,1950.67 639.89,1954.57 634.75,1960.00
             632.73,1962.14 628.07,1965.89 628.14,1969.09
             628.19,1971.78 635.22,1981.71 637.21,1984.00
             637.21,1984.00 643.39,1990.42 643.39,1990.42
             646.37,1994.65 642.45,1995.55 647.98,2002.72
             650.06,2005.42 656.17,2011.39 656.63,2014.03
             657.45,2018.77 652.87,2020.33 650.31,2023.21
             648.08,2025.71 648.10,2027.67 646.42,2028.99
             644.69,2030.35 642.31,2029.88 639.21,2032.42
             639.21,2032.42 634.63,2037.42 634.63,2037.42
             628.87,2043.59 624.75,2047.04 628.68,2056.00
             629.76,2058.44 630.93,2060.40 633.19,2061.92
             633.19,2061.92 646.00,2068.00 646.00,2068.00
             642.82,2078.82 628.95,2087.72 642.04,2098.15
             643.56,2099.36 645.18,2100.44 647.00,2101.11
             649.56,2102.06 652.31,2101.98 655.00,2102.00
             654.86,2112.69 651.92,2108.81 649.00,2117.00
             646.50,2115.72 642.39,2112.98 640.00,2112.66
             636.86,2111.79 633.89,2113.20 630.00,2112.66
             626.47,2112.55 623.89,2110.69 621.14,2112.07
             618.14,2113.60 618.56,2116.66 615.69,2119.12
             613.93,2120.63 611.62,2121.11 610.02,2124.06
             607.58,2128.56 610.86,2137.85 606.69,2139.84
             603.18,2141.51 600.00,2136.24 594.00,2135.22
             587.91,2134.19 576.29,2136.16 570.00,2137.33
             564.34,2138.38 563.97,2140.45 559.91,2143.33
             559.91,2143.33 554.09,2146.83 554.09,2146.83
             549.22,2150.16 547.27,2153.19 542.00,2148.00
             545.88,2143.40 550.12,2137.41 549.56,2131.00
             549.56,2131.00 547.30,2123.00 547.30,2123.00
             546.36,2116.11 548.72,2110.61 537.00,2106.14
             530.41,2103.61 521.53,2108.18 517.00,2107.50
             521.53,2108.18 500.31,2103.21 504.00,2104.32
             504.00,2104.32 498.00,2102.07 498.00,2102.07
             498.00,2102.07 488.00,2102.07 488.00,2102.07
             483.06,2100.92 483.92,2098.02 477.00,2098.43
             468.93,2098.90 469.84,2096.23 465.00,2095.89
             461.36,2095.64 459.37,2098.08 455.00,2097.62
             448.63,2096.95 438.07,2090.70 435.00,2089.76
             431.57,2088.71 429.01,2090.32 426.18,2089.22
             422.95,2087.98 419.26,2080.97 417.12,2078.00
             417.12,2078.00 399.03,2058.63 399.03,2058.63
             396.07,2054.98 393.32,2050.41 388.00,2049.94
             386.24,2049.78 383.85,2050.56 382.00,2050.80
             378.84,2051.20 376.12,2050.70 373.00,2051.69
             373.00,2051.69 361.00,2056.83 361.00,2056.83
             361.00,2056.83 356.00,2060.00 356.00,2060.00
             352.17,2061.77 348.69,2060.11 345.74,2064.15
             343.70,2066.94 344.32,2069.90 343.51,2073.00
             343.51,2073.00 341.39,2079.00 341.39,2079.00
             340.63,2081.80 340.49,2085.36 337.00,2086.26
             333.58,2087.14 333.16,2083.25 331.42,2081.43
             329.86,2079.79 328.18,2079.32 326.00,2079.11
             322.26,2078.74 318.18,2079.45 316.32,2083.11
             315.30,2085.13 315.82,2087.48 313.65,2088.98
             311.73,2090.31 306.41,2090.03 304.00,2090.00
             300.47,2089.95 293.30,2089.30 290.99,2086.30
             289.38,2084.21 290.45,2080.42 286.77,2078.17
             284.27,2076.64 278.98,2077.00 276.00,2077.00
             274.12,2070.75 272.80,2072.50 269.59,2068.49
             267.61,2066.01 268.19,2063.92 266.26,2061.30
             260.44,2053.35 252.43,2055.00 244.00,2055.00
             244.00,2055.00 240.84,2038.09 240.84,2038.09
             240.84,2038.09 239.12,2032.83 239.12,2032.83
             239.12,2032.83 239.12,2023.00 239.12,2023.00
             246.20,2019.49 244.19,2016.55 248.47,2013.14
             256.47,2006.76 264.83,2012.39 265.00,1999.00
             266.63,1998.88 268.14,1998.91 269.66,1998.15
             271.95,1996.99 276.71,1989.69 276.37,1987.13
             275.53,1980.73 265.80,1977.89 263.60,1971.99
             263.60,1971.99 261.25,1955.00 261.25,1955.00
             261.51,1951.90 263.15,1949.40 262.69,1946.09
             262.23,1942.76 258.53,1938.80 257.00,1932.00
             262.70,1934.78 263.70,1937.21 270.00,1935.00
             276.33,1942.20 282.52,1939.01 291.00,1939.00
             293.28,1929.68 301.91,1924.11 304.84,1913.91
             306.78,1907.15 308.57,1904.07 301.00,1901.00
             301.22,1898.29 301.50,1894.44 305.06,1894.10 Z" />
</svg>
