<?xml version="1.0" encoding="UTF-8" standalone="no"?>
<!DOCTYPE svg PUBLIC "-//W3C//DTD SVG 20010904//EN"
              "http://www.w3.org/TR/2001/REC-SVG-20010904/DTD/svg10.dtd">

<svg xmlns="http://www.w3.org/2000/svg"
     width="6.24922in" height="5.55486in"
     viewBox="0 0 450 400">
  <path id="Selection"
        fill="green" stroke="black" stroke-width="1"
        d="M 104.00,33.80
           C 104.00,33.80 118.00,31.00 118.00,31.00
             118.00,31.00 116.00,37.00 116.00,37.00
             116.00,37.00 131.00,36.00 131.00,36.00
             131.00,36.00 130.00,43.00 130.00,43.00
             130.00,43.00 141.00,39.00 141.00,39.00
             144.17,47.72 148.53,48.85 149.00,59.00
             149.00,59.00 157.49,59.84 157.49,59.84
             157.49,59.84 163.00,64.67 163.00,64.67
             163.00,64.67 171.01,63.23 171.01,63.23
             171.01,63.23 181.00,68.25 181.00,68.25
             181.00,68.25 191.00,71.05 191.00,71.05
             191.00,71.05 200.00,74.27 200.00,74.27
             200.00,74.27 205.83,75.23 205.83,75.23
             205.83,75.23 215.00,77.37 215.00,77.37
             215.00,77.37 227.41,80.06 227.41,80.06
             227.41,80.06 236.00,79.00 236.00,79.00
             239.34,87.52 246.26,90.52 255.00,91.00
             254.84,99.99 261.26,95.49 266.00,93.00
             267.74,105.37 280.28,103.20 286.00,106.02
             286.00,106.02 293.00,111.16 293.00,111.16
             293.00,111.16 312.00,122.02 312.00,122.02
             315.27,123.49 321.29,122.95 325.00,123.00
             334.01,123.12 338.48,127.12 348.00,125.00
             348.00,125.00 348.00,129.00 348.00,129.00
             348.00,129.00 368.00,125.00 368.00,125.00
             368.00,125.00 368.00,137.00 368.00,137.00
             368.00,137.00 376.00,138.00 376.00,138.00
             370.91,139.20 363.86,141.31 364.97,148.00
             365.25,149.72 365.97,151.26 367.31,152.42
             370.15,154.86 374.27,153.89 377.58,157.30
             380.25,160.05 381.26,165.32 382.00,169.00
             380.42,168.34 378.76,167.46 377.00,167.41
             372.47,167.28 369.49,171.75 370.33,175.99
             371.13,180.05 380.69,191.09 383.00,196.00
             379.67,196.08 375.92,196.08 373.31,198.51
             370.07,201.54 371.71,204.92 370.99,208.00
             370.99,208.00 367.89,215.00 367.89,215.00
             367.13,217.95 368.37,218.86 366.77,224.00
             365.06,229.47 360.69,236.84 363.89,241.98
             365.97,245.33 368.27,246.26 370.51,248.59
             372.60,250.77 373.29,253.25 376.11,254.83
             378.81,256.34 381.31,255.58 385.00,257.07
             388.17,258.35 392.43,261.91 395.96,261.05
             401.36,259.74 401.34,250.85 411.00,253.80
             422.30,257.25 417.82,263.10 423.11,269.57
             429.56,277.47 433.69,274.84 434.57,281.02
             435.05,284.39 434.21,292.64 430.77,294.26
             428.06,295.54 422.62,294.41 419.80,298.28
             416.96,301.66 419.62,307.76 419.80,312.00
             417.68,311.16 415.37,309.79 412.83,310.30
             408.61,311.15 403.80,314.64 402.72,319.00
             402.72,319.00 402.72,325.00 402.72,325.00
             402.28,331.05 401.74,329.95 404.00,335.89
             395.54,334.68 393.93,337.70 390.10,335.89
             385.54,333.51 383.69,325.96 380.59,322.09
             379.00,320.10 373.10,314.38 370.98,313.16
             370.98,313.16 366.59,311.07 366.59,311.07
             364.84,309.90 364.17,308.46 361.90,307.94
             361.90,307.94 351.00,307.94 351.00,307.94
             338.88,307.98 335.37,303.34 330.00,303.96
             324.87,304.55 315.84,310.29 311.00,312.38
             305.24,314.87 294.01,317.57 290.06,320.64
             285.71,324.00 286.33,326.72 283.57,329.66
             277.73,335.90 266.15,329.81 265.00,344.00
             261.19,344.00 256.49,343.31 253.64,346.31
             250.57,349.55 250.11,355.26 248.18,357.27
             246.40,359.11 240.84,359.89 238.04,361.39
             233.63,363.76 234.21,366.25 229.00,368.76
             223.15,356.53 216.56,366.74 208.00,368.76
             202.45,369.67 200.47,367.84 196.00,367.21
             196.00,367.21 190.10,366.69 190.10,366.69
             186.07,365.57 183.92,360.13 181.40,357.05
             181.40,357.05 169.28,347.14 169.28,347.14
             166.30,344.24 166.74,342.13 163.78,340.01
             157.53,335.53 154.72,341.80 148.89,335.87
             142.83,329.70 142.39,320.72 135.98,318.91
             131.53,317.65 118.12,322.98 114.04,325.27
             108.52,328.37 106.70,334.79 98.00,327.00
             98.00,327.00 104.00,327.00 104.00,327.00
             104.00,327.00 101.89,315.17 101.89,315.17
             101.89,315.17 105.57,306.83 105.57,306.83
             105.57,306.83 109.82,292.01 109.82,292.01
             109.82,292.01 113.71,283.91 113.71,283.91
             113.71,283.91 112.00,269.00 112.00,269.00
             121.28,267.50 119.77,261.32 126.04,258.02
             129.27,256.32 133.11,257.52 137.00,256.53
             137.00,256.53 153.74,249.84 153.74,249.84
             153.74,249.84 160.93,243.14 160.93,243.14
             164.64,240.01 169.07,235.29 168.20,230.00
             167.92,228.32 166.69,225.64 166.00,224.00
             167.78,222.92 172.52,220.31 169.54,217.77
             166.11,214.84 157.78,221.30 153.37,217.11
             151.80,215.31 152.58,213.11 153.37,211.00
             154.59,205.76 159.77,192.99 149.98,192.36
             149.98,192.36 144.00,193.00 144.00,193.00
             141.91,183.52 137.62,189.18 132.00,186.90
             126.51,184.68 125.00,179.76 116.04,180.84
             110.31,181.53 110.75,186.49 107.70,187.72
             105.80,188.49 102.85,187.17 101.00,186.53
             93.97,184.08 89.27,183.28 88.00,175.00
             88.00,175.00 74.00,175.00 74.00,175.00
             74.00,175.00 74.00,169.00 74.00,169.00
             61.40,169.85 57.89,178.01 55.00,166.00
             57.75,164.60 63.44,162.23 64.97,159.66
             67.43,155.55 61.02,146.17 56.98,145.36
             53.72,144.69 50.83,146.80 46.00,146.94
             39.68,147.14 35.89,144.44 32.17,145.62
             32.17,145.62 24.99,149.86 24.99,149.86
             21.70,151.24 18.48,151.00 15.00,151.00
             15.00,151.00 18.00,147.00 18.00,147.00
             18.00,147.00 17.00,143.00 17.00,143.00
             25.23,140.97 24.39,137.32 29.09,135.25
             32.19,133.88 35.05,135.39 37.94,134.67
             42.63,133.51 42.47,127.00 43.00,123.00
             43.00,123.00 38.00,122.00 38.00,122.00
             41.53,119.53 42.65,119.20 44.00,115.00
             44.00,115.00 32.00,115.00 32.00,115.00
             33.24,112.28 34.95,107.81 36.55,105.52
             40.08,100.49 42.48,102.04 44.00,95.00
             44.00,95.00 38.00,95.00 38.00,95.00
             38.00,95.00 38.00,91.00 38.00,91.00
             28.38,91.31 30.34,94.43 23.00,98.00
             27.05,86.22 37.08,90.19 38.00,79.00
             38.00,79.00 28.29,77.69 28.29,77.69
             28.29,77.69 25.53,71.00 25.53,71.00
             25.53,71.00 22.00,59.00 22.00,59.00
             28.81,57.15 31.37,54.53 35.00,53.51
             35.00,53.51 43.96,52.40 43.96,52.40
             47.59,51.01 48.99,47.34 52.02,47.03
             55.93,46.63 56.23,50.25 56.00,53.00
             56.00,53.00 63.00,52.34 63.00,52.34
             71.83,52.34 67.86,54.15 78.00,51.00
             81.32,53.13 82.40,52.08 86.00,51.00
             86.00,51.00 88.00,58.00 88.00,58.00
             88.00,58.00 93.00,59.00 93.00,59.00
             92.48,52.60 94.75,54.19 96.83,49.72
             97.51,48.25 97.78,42.97 98.00,41.00
             98.00,41.00 93.00,40.00 93.00,40.00
             93.00,40.00 93.00,38.00 93.00,38.00
             93.00,38.00 104.00,33.80 104.00,33.80 Z" />
</svg>
