<?xml version="1.0" encoding="UTF-8" standalone="no"?>
<!DOCTYPE svg PUBLIC "-//W3C//DTD SVG 20010904//EN"
              "http://www.w3.org/TR/2001/REC-SVG-20010904/DTD/svg10.dtd">

<svg xmlns="http://www.w3.org/2000/svg"
     width="43.6334in" height="36.3288in"
     viewBox="0 0 3142 2616">
  <path id="Galicia"
        fill="green" stroke="black" stroke-width="1"
        d="M 323.00,1597.80
           C 323.00,1597.80 337.00,1595.00 337.00,1595.00
             337.00,1595.00 335.00,1601.00 335.00,1601.00
             335.00,1601.00 350.00,1600.00 350.00,1600.00
             350.00,1600.00 349.00,1607.00 349.00,1607.00
             349.00,1607.00 360.00,1603.00 360.00,1603.00
             363.17,1611.72 367.53,1612.85 368.00,1623.00
             368.00,1623.00 376.49,1623.84 376.49,1623.84
             376.49,1623.84 382.00,1628.67 382.00,1628.67
             382.00,1628.67 390.01,1627.23 390.01,1627.23
             390.01,1627.23 400.00,1632.25 400.00,1632.25
             400.00,1632.25 410.00,1635.05 410.00,1635.05
             410.00,1635.05 419.00,1638.27 419.00,1638.27
             419.00,1638.27 424.83,1639.23 424.83,1639.23
             424.83,1639.23 434.00,1641.37 434.00,1641.37
             434.00,1641.37 446.41,1644.06 446.41,1644.06
             446.41,1644.06 455.00,1643.00 455.00,1643.00
             458.34,1651.52 465.26,1654.52 474.00,1655.00
             473.84,1663.99 480.26,1659.49 485.00,1657.00
             486.74,1669.37 499.28,1667.20 505.00,1670.02
             505.00,1670.02 512.00,1675.16 512.00,1675.16
             512.00,1675.16 531.00,1686.02 531.00,1686.02
             534.27,1687.49 540.29,1686.95 544.00,1687.00
             553.01,1687.12 557.48,1691.12 567.00,1689.00
             567.00,1689.00 567.00,1693.00 567.00,1693.00
             567.00,1693.00 587.00,1689.00 587.00,1689.00
             587.00,1689.00 587.00,1701.00 587.00,1701.00
             587.00,1701.00 595.00,1702.00 595.00,1702.00
             589.98,1703.50 582.82,1705.09 583.97,1712.00
             584.25,1713.72 584.97,1715.26 586.31,1716.42
             589.04,1718.78 593.48,1718.14 596.44,1720.72
             599.46,1723.35 599.42,1727.22 600.98,1729.95
             602.81,1733.16 604.52,1733.03 606.00,1737.00
             606.00,1737.00 598.00,1732.19 598.00,1732.19
             592.51,1729.77 588.50,1735.22 589.47,1739.99
             590.36,1744.38 599.65,1755.01 602.00,1760.00
             598.56,1760.16 593.95,1760.36 591.60,1763.30
             589.07,1766.46 591.31,1769.24 589.93,1773.00
             589.19,1775.03 587.66,1776.44 587.02,1779.00
             586.12,1782.58 588.12,1781.54 584.26,1793.00
             582.61,1797.86 579.98,1800.93 583.01,1805.98
             585.10,1809.47 587.18,1810.17 589.51,1812.59
             591.60,1814.77 592.29,1817.25 595.11,1818.83
             597.99,1820.44 600.56,1819.46 605.00,1821.41
             607.85,1822.67 611.66,1825.65 614.91,1824.93
             620.14,1823.78 620.23,1815.00 630.00,1817.72
             640.93,1820.76 637.13,1827.71 642.93,1834.41
             648.98,1841.40 652.72,1839.07 653.57,1845.02
             654.05,1848.39 653.21,1856.64 649.77,1858.26
             647.03,1859.56 641.73,1858.36 638.87,1862.28
             636.01,1865.86 638.61,1871.64 638.87,1876.00
             636.80,1875.32 634.33,1874.26 632.00,1874.52
             623.72,1875.43 622.28,1881.27 621.78,1888.00
             621.30,1894.52 620.53,1893.40 623.00,1899.89
             618.58,1899.52 611.29,1900.87 609.09,1899.89
             604.13,1897.34 602.83,1890.15 599.59,1886.09
             598.01,1884.11 592.10,1878.38 589.98,1877.16
             589.98,1877.16 585.59,1875.07 585.59,1875.07
             583.84,1873.90 583.17,1872.46 580.90,1871.94
             580.90,1871.94 570.00,1871.94 570.00,1871.94
             556.93,1871.98 555.34,1867.81 550.00,1867.93
             545.35,1868.03 536.26,1873.38 532.00,1875.48
             525.40,1878.75 513.34,1881.32 509.06,1884.64
             504.71,1888.00 505.33,1890.72 502.57,1893.66
             496.84,1899.77 485.12,1894.13 484.00,1908.00
             480.19,1908.00 475.49,1907.31 472.64,1910.31
             469.57,1913.55 469.11,1919.26 467.18,1921.27
             465.22,1923.30 459.24,1923.85 456.13,1925.92
             453.10,1927.94 453.10,1930.08 448.00,1934.00
             447.59,1932.62 447.33,1931.39 446.56,1930.12
             441.85,1922.32 433.47,1931.30 427.00,1932.53
             424.26,1933.05 411.78,1931.44 409.10,1930.69
             405.06,1929.55 402.93,1924.14 400.40,1921.05
             400.40,1921.05 388.28,1911.14 388.28,1911.14
             385.88,1908.83 384.79,1905.63 381.94,1903.74
             375.91,1899.73 373.14,1905.87 367.04,1899.52
             362.06,1894.33 361.53,1884.69 354.98,1882.92
             350.85,1881.80 336.90,1887.13 333.04,1889.27
             326.98,1892.64 326.10,1899.26 317.00,1891.00
             317.00,1891.00 323.00,1891.00 323.00,1891.00
             323.00,1891.00 320.89,1879.17 320.89,1879.17
             320.89,1879.17 324.57,1870.83 324.57,1870.83
             324.57,1870.83 328.82,1856.01 328.82,1856.01
             328.82,1856.01 332.71,1847.91 332.71,1847.91
             332.71,1847.91 331.00,1833.00 331.00,1833.00
             340.64,1831.44 339.14,1824.19 346.01,1821.60
             346.01,1821.60 356.00,1820.53 356.00,1820.53
             356.00,1820.53 372.74,1813.84 372.74,1813.84
             372.74,1813.84 379.93,1807.14 379.93,1807.14
             383.66,1804.00 388.05,1799.30 387.20,1794.00
             387.20,1794.00 385.00,1787.00 385.00,1787.00
             386.93,1786.40 391.50,1784.43 388.42,1781.78
             385.35,1779.13 376.71,1785.24 372.37,1781.11
             370.80,1779.31 371.58,1777.11 372.37,1775.00
             373.59,1769.76 378.77,1756.99 368.98,1756.36
             368.98,1756.36 363.00,1757.00 363.00,1757.00
             360.91,1747.52 356.62,1753.18 351.00,1750.90
             345.51,1748.68 344.00,1743.76 335.04,1744.84
             329.31,1745.53 329.75,1750.49 326.70,1751.72
             324.80,1752.49 321.85,1751.17 320.00,1750.53
             312.97,1748.08 308.27,1747.28 307.00,1739.00
             307.00,1739.00 293.00,1739.00 293.00,1739.00
             293.00,1739.00 293.00,1733.00 293.00,1733.00
             280.40,1733.85 276.89,1742.01 274.00,1730.00
             276.75,1728.60 282.44,1726.23 283.97,1723.66
             286.43,1719.55 280.02,1710.17 275.98,1709.36
             272.72,1708.69 269.83,1710.80 265.00,1710.94
             258.68,1711.14 254.89,1708.44 251.17,1709.62
             251.17,1709.62 243.99,1713.86 243.99,1713.86
             240.70,1715.24 237.48,1715.00 234.00,1715.00
             234.00,1715.00 237.00,1711.00 237.00,1711.00
             237.00,1711.00 236.00,1707.00 236.00,1707.00
             244.23,1704.97 243.39,1701.32 248.09,1699.25
             251.19,1697.88 254.05,1699.39 256.94,1698.67
             261.63,1697.51 261.47,1691.00 262.00,1687.00
             262.00,1687.00 257.00,1686.00 257.00,1686.00
             260.53,1683.53 261.65,1683.20 263.00,1679.00
             263.00,1679.00 251.00,1679.00 251.00,1679.00
             252.24,1676.28 253.95,1671.81 255.55,1669.52
             259.08,1664.49 261.48,1666.04 263.00,1659.00
             263.00,1659.00 257.00,1659.00 257.00,1659.00
             257.00,1659.00 257.00,1655.00 257.00,1655.00
             247.38,1655.31 249.34,1658.43 242.00,1662.00
             246.05,1650.22 256.08,1654.19 257.00,1643.00
             257.00,1643.00 247.29,1641.69 247.29,1641.69
             247.29,1641.69 244.53,1635.00 244.53,1635.00
             244.53,1635.00 241.00,1623.00 241.00,1623.00
             247.81,1621.15 250.37,1618.53 254.00,1617.51
             254.00,1617.51 262.96,1616.40 262.96,1616.40
             266.59,1615.01 267.99,1611.34 271.02,1611.03
             274.93,1610.63 275.23,1614.25 275.00,1617.00
             275.00,1617.00 282.00,1616.34 282.00,1616.34
             290.83,1616.34 286.86,1618.15 297.00,1615.00
             300.32,1617.13 301.40,1616.08 305.00,1615.00
             305.00,1615.00 307.00,1622.00 307.00,1622.00
             307.00,1622.00 312.00,1623.00 312.00,1623.00
             311.48,1616.60 313.75,1618.19 315.83,1613.72
             316.51,1612.25 316.78,1606.97 317.00,1605.00
             317.00,1605.00 312.00,1604.00 312.00,1604.00
             312.00,1604.00 312.00,1602.00 312.00,1602.00
             312.00,1602.00 323.00,1597.80 323.00,1597.80 Z" />
</svg>
