<?xml version="1.0" encoding="UTF-8" standalone="no"?>
<!DOCTYPE svg PUBLIC "-//W3C//DTD SVG 20010904//EN"
              "http://www.w3.org/TR/2001/REC-SVG-20010904/DTD/svg10.dtd">

<svg xmlns="http://www.w3.org/2000/svg"
     width="6.24922in" height="5.55486in"
     viewBox="0 0 450 400">
  <path id="Selection"
        fill="green" stroke="black" stroke-width="1"
        d="M 220.99,124.89
           C 227.18,133.66 231.61,123.35 236.29,119.77
             239.51,117.30 241.80,117.46 244.98,116.01
             252.86,112.43 250.43,106.01 254.43,102.60
             257.67,99.82 262.63,102.00 265.57,99.98
             268.62,97.88 267.25,93.87 269.60,92.02
             272.05,90.09 275.23,92.35 280.91,88.06
             287.45,83.12 286.64,78.59 292.05,75.97
             292.05,75.97 312.96,68.46 312.96,68.46
             317.98,66.00 322.95,61.81 329.00,62.61
             335.67,63.49 334.09,65.98 346.00,66.00
             355.19,66.01 352.24,65.12 360.08,69.05
             362.23,70.12 363.41,70.04 365.58,71.56
             375.60,78.58 374.82,87.98 383.02,93.21
             386.67,95.23 397.95,94.72 402.00,93.21
             404.91,92.49 406.68,90.30 410.00,91.15
             414.32,92.26 417.70,97.39 419.84,101.00
             424.86,109.46 423.86,113.96 425.20,123.00
             425.20,123.00 426.22,129.00 426.22,129.00
             426.72,133.06 425.05,132.71 426.22,140.00
             414.48,138.60 417.39,141.43 410.96,148.57
             409.18,150.55 405.08,154.28 405.14,157.09
             405.26,163.00 420.74,178.97 420.96,179.37
             422.95,183.01 419.75,183.74 424.96,190.71
             426.77,193.14 433.30,200.15 433.63,202.04
             434.45,206.77 429.86,208.34 427.31,211.21
             425.08,213.71 425.09,215.70 423.42,216.98
             421.84,218.19 419.67,217.82 417.09,219.60
             415.27,220.85 413.41,223.26 411.85,224.91
             409.67,227.20 407.11,229.22 405.57,232.04
             402.70,237.29 404.53,245.60 409.21,249.30
             409.21,249.30 423.00,256.00 423.00,256.00
             419.77,266.98 405.77,275.66 419.04,286.32
             420.49,287.48 422.25,288.65 424.00,289.28
             426.41,290.14 429.45,289.99 432.00,290.00
             431.86,301.02 428.50,296.85 426.00,305.00
             423.50,303.72 419.39,300.98 417.00,300.66
             413.86,299.79 410.89,301.20 407.00,300.66
             403.88,300.59 401.39,299.07 399.06,299.73
             395.55,300.70 395.35,304.21 393.28,306.46
             391.51,308.39 388.72,308.93 387.02,312.06
             384.68,316.38 387.73,325.79 383.57,327.84
             380.20,329.49 377.00,324.24 371.00,323.22
             364.24,322.07 358.47,323.60 352.00,324.68
             352.00,324.68 346.00,325.34 346.00,325.34
             341.08,326.38 340.51,328.75 336.91,331.31
             336.91,331.31 331.00,334.68 331.00,334.68
             326.08,337.81 324.09,341.00 319.00,336.00
             321.99,332.46 324.37,329.55 325.70,325.00
             327.95,317.27 325.36,316.72 324.49,312.00
             323.95,309.11 324.81,305.40 323.44,302.00
             321.21,296.51 313.74,292.81 308.00,293.30
             308.00,293.30 295.00,295.48 295.00,295.48
             295.00,295.48 281.00,292.20 281.00,292.20
             281.00,292.20 275.00,289.79 275.00,289.79
             271.37,289.06 268.38,290.43 265.00,289.79
             262.04,289.04 260.43,287.31 258.00,286.53
             255.37,285.87 253.50,286.74 251.00,286.53
             251.00,286.53 243.00,283.89 243.00,283.89
             238.58,283.11 236.95,285.77 233.00,285.66
             231.65,285.62 219.57,281.67 218.00,280.91
             218.00,280.91 212.00,277.76 212.00,277.76
             208.45,276.67 206.11,278.44 203.09,276.94
             199.84,275.32 195.97,268.15 193.48,265.00
             193.48,265.00 176.45,246.83 176.45,246.83
             173.47,243.38 171.05,238.74 166.00,237.86
             163.71,237.46 161.29,238.49 159.00,238.79
             159.00,238.79 150.00,239.51 150.00,239.51
             150.00,239.51 138.00,244.83 138.00,244.83
             138.00,244.83 133.00,248.00 133.00,248.00
             129.17,249.77 125.69,248.11 122.74,252.15
             120.70,254.94 121.32,257.90 120.51,261.00
             120.51,261.00 118.11,268.00 118.11,268.00
             117.44,270.45 116.87,273.48 113.95,274.26
             110.61,275.14 110.12,271.21 108.42,269.43
             106.28,267.18 102.94,266.82 100.00,267.11
             91.29,267.96 93.41,274.13 91.32,276.40
             89.66,278.20 86.26,277.98 84.00,278.00
             79.53,278.03 73.15,278.00 69.29,275.44
             66.02,273.28 67.66,270.21 65.26,267.31
             62.70,264.22 56.70,265.00 53.00,265.00
             51.23,259.03 49.66,260.07 46.58,255.83
             44.64,253.15 44.97,251.05 42.57,248.32
             36.44,241.38 29.16,243.00 21.00,243.00
             21.00,243.00 17.84,226.09 17.84,226.09
             17.84,226.09 16.12,220.83 16.12,220.83
             16.12,220.83 16.12,211.00 16.12,211.00
             23.20,207.49 21.19,204.55 25.47,201.14
             33.47,194.76 41.83,200.39 42.00,187.00
             43.63,186.88 45.14,186.91 46.66,186.15
             48.95,184.99 53.71,177.69 53.37,175.13
             52.53,168.73 42.80,165.89 40.60,159.99
             40.60,159.99 38.25,143.00 38.25,143.00
             38.51,139.90 40.15,137.40 39.69,134.09
             39.23,130.76 35.53,126.80 34.00,120.00
             39.70,122.78 40.70,125.21 47.00,123.00
             53.33,130.20 59.52,127.01 68.00,127.00
             70.28,117.68 78.91,112.11 81.84,101.91
             83.78,95.15 85.57,92.07 78.00,89.00
             78.22,86.29 78.50,82.44 82.06,82.10
             85.02,81.82 97.67,89.27 101.00,89.33
             106.20,89.43 109.86,84.52 114.00,82.07
             119.26,78.95 125.27,77.86 131.00,76.00
             135.16,82.73 138.82,93.54 147.00,96.94
             150.26,98.21 151.38,95.98 157.00,96.94
             157.91,104.05 166.88,107.34 171.63,111.54
             175.14,114.65 178.32,122.09 181.22,123.83
             183.87,125.41 187.95,124.82 191.00,125.18
             196.94,125.89 199.41,128.30 208.00,125.94
             213.80,124.35 212.49,122.43 219.00,121.00
             219.61,122.33 220.14,123.69 220.99,124.89 Z" />
</svg>
