<?xml version="1.0" encoding="UTF-8" standalone="no"?>
<!DOCTYPE svg PUBLIC "-//W3C//DTD SVG 20010904//EN"
              "http://www.w3.org/TR/2001/REC-SVG-20010904/DTD/svg10.dtd">

<svg xmlns="http://www.w3.org/2000/svg"
     width="43.6333in" height="36.3333in"
     viewBox="0 0 3927 3270">
  <path id="Selection"
        fill="none" stroke="black" stroke-width="1"
        d="M 231.44,2319.00
           C 232.44,2315.01 240.64,2306.71 243.53,2302.00
             243.53,2302.00 252.84,2281.26 252.84,2281.26
             254.70,2278.79 257.26,2278.11 259.61,2275.66
             259.61,2275.66 270.64,2259.00 270.64,2259.00
             273.74,2253.55 278.80,2238.22 279.94,2232.00
             279.94,2232.00 279.94,2225.00 279.94,2225.00
             280.65,2220.59 282.20,2217.67 281.81,2213.00
             281.47,2208.77 279.73,2205.64 280.20,2201.00
             280.76,2195.38 283.86,2191.83 285.79,2187.00
             287.39,2183.02 287.95,2178.26 288.00,2174.00
             288.07,2168.07 287.00,2161.06 290.65,2156.04
             293.76,2151.77 299.16,2149.56 304.00,2147.86
             316.37,2143.52 333.22,2142.97 345.00,2149.00
             341.39,2157.45 335.51,2159.06 335.13,2168.00
             335.13,2168.00 335.13,2173.00 335.13,2173.00
             337.10,2183.15 346.70,2176.60 358.00,2177.04
             358.00,2177.04 371.98,2179.10 371.98,2179.10
             381.28,2181.05 375.17,2186.97 386.00,2191.79
             389.01,2193.13 405.42,2197.72 408.00,2197.08
             412.26,2196.02 416.15,2190.05 422.00,2190.32
             427.86,2190.59 432.97,2196.64 437.00,2198.13
             440.42,2199.40 443.69,2197.86 447.00,2197.00
             447.00,2197.00 447.00,2202.00 447.00,2202.00
             447.00,2202.00 460.00,2202.00 460.00,2202.00
             460.00,2208.16 460.17,2210.04 457.94,2216.00
             456.80,2219.02 454.18,2223.01 455.49,2226.16
             459.32,2235.47 479.40,2235.24 472.55,2249.00
             467.40,2259.33 451.71,2265.81 441.00,2268.35
             434.47,2269.89 423.74,2270.37 419.73,2276.10
             418.07,2278.48 417.54,2282.17 417.00,2285.00
             412.68,2285.00 406.26,2284.20 404.13,2289.06
             402.09,2293.67 408.38,2297.95 406.62,2307.00
             406.62,2307.00 395.31,2339.00 395.31,2339.00
             391.30,2349.96 389.06,2347.14 393.00,2359.00
             384.90,2359.00 378.28,2358.84 372.11,2365.10
             370.48,2366.75 368.97,2368.69 368.47,2371.00
             367.26,2376.63 373.11,2381.73 374.32,2387.00
             375.68,2392.91 369.41,2399.25 366.46,2404.00
             364.46,2407.22 363.25,2410.03 359.96,2412.28
             354.97,2415.67 348.58,2415.13 343.00,2414.00
             343.00,2414.00 312.00,2405.00 312.00,2405.00
             312.00,2405.00 313.96,2418.00 313.96,2418.00
             313.96,2418.00 320.67,2434.00 320.67,2434.00
             320.67,2434.00 320.00,2455.00 320.00,2455.00
             320.00,2455.00 322.00,2481.00 322.00,2481.00
             330.63,2481.01 333.77,2480.60 338.00,2489.00
             330.03,2491.99 325.58,2492.13 325.00,2502.00
             320.62,2503.03 307.35,2508.69 304.10,2511.41
             300.80,2514.19 298.64,2519.24 296.40,2523.00
             291.26,2531.61 288.50,2533.00 285.00,2543.00
             296.43,2546.93 293.80,2557.80 297.48,2567.00
             299.75,2572.67 302.99,2575.64 305.00,2582.00
             305.00,2582.00 283.04,2586.17 283.04,2586.17
             278.28,2588.67 276.69,2594.54 271.91,2598.61
             267.12,2602.69 262.47,2602.41 258.39,2607.11
             258.39,2607.11 253.51,2615.00 253.51,2615.00
             250.63,2618.97 246.47,2621.78 245.62,2627.00
             244.91,2631.35 247.54,2634.03 246.60,2639.00
             246.02,2642.05 241.80,2649.21 240.00,2662.00
             240.00,2662.00 201.00,2667.00 201.00,2667.00
             201.00,2667.00 190.00,2665.57 190.00,2665.57
             190.00,2665.57 177.00,2654.49 177.00,2654.49
             177.00,2654.49 160.00,2646.09 160.00,2646.09
             160.00,2646.09 148.00,2640.00 148.00,2640.00
             148.00,2640.00 148.00,2635.00 148.00,2635.00
             135.02,2637.44 127.46,2639.41 114.00,2637.00
             114.00,2637.00 124.07,2623.57 124.07,2623.57
             125.95,2621.54 128.18,2622.18 129.83,2619.69
             131.45,2617.23 130.46,2614.07 133.15,2610.18
             136.06,2605.97 138.94,2606.29 141.95,2600.00
             146.72,2590.02 153.67,2570.81 156.11,2560.00
             157.71,2552.92 156.23,2547.95 157.93,2544.00
             157.93,2544.00 170.32,2527.00 170.32,2527.00
             172.66,2523.07 175.31,2509.92 176.00,2505.00
             176.00,2505.00 188.00,2507.00 188.00,2507.00
             188.00,2507.00 188.00,2502.00 188.00,2502.00
             188.00,2502.00 182.00,2502.00 182.00,2502.00
             182.00,2502.00 187.00,2486.00 187.00,2486.00
             187.00,2486.00 173.00,2494.00 173.00,2494.00
             173.00,2494.00 173.00,2487.00 173.00,2487.00
             173.00,2487.00 153.04,2491.48 153.04,2491.48
             144.97,2489.82 147.23,2472.86 148.00,2467.00
             154.45,2470.12 155.20,2474.52 159.01,2474.99
             161.69,2475.31 164.86,2472.59 167.00,2471.21
             167.00,2471.21 176.65,2466.42 176.65,2466.42
             180.08,2462.57 176.20,2453.07 176.65,2450.04
             177.39,2447.88 182.13,2443.12 184.00,2440.00
             177.57,2442.25 171.86,2444.83 167.21,2450.04
             163.52,2454.17 162.78,2458.29 158.82,2460.55
             153.35,2463.67 144.10,2460.44 139.00,2457.68
             136.42,2456.28 132.85,2454.41 133.30,2450.96
             134.02,2445.55 142.45,2436.41 145.49,2432.00
             148.92,2427.03 147.62,2422.82 150.72,2418.00
             153.50,2413.68 160.56,2408.31 163.15,2404.00
             165.09,2400.76 165.69,2395.74 166.00,2392.00
             168.10,2392.32 172.16,2393.34 174.00,2392.94
             177.28,2392.22 180.93,2387.90 184.00,2385.85
             186.29,2384.33 189.85,2383.17 191.44,2381.49
             193.65,2379.17 193.34,2376.11 196.56,2372.17
             196.56,2372.17 203.78,2364.99 203.78,2364.99
             207.06,2361.13 206.86,2359.26 208.99,2356.09
             208.99,2356.09 215.51,2348.96 215.51,2348.96
             219.97,2343.08 223.90,2333.38 232.00,2332.00
             232.00,2332.00 231.44,2319.00 231.44,2319.00 Z
           M 316.00,2147.00
           C 316.00,2147.00 333.00,2146.00 333.00,2146.00
             333.00,2146.00 316.00,2147.00 316.00,2147.00 Z
           M 341.00,2149.00
           C 341.00,2149.00 342.00,2150.00 342.00,2150.00
             342.00,2150.00 342.00,2149.00 342.00,2149.00
             342.00,2149.00 341.00,2149.00 341.00,2149.00 Z
           M 302.00,2150.00
           C 302.00,2150.00 303.00,2151.00 303.00,2151.00
             303.00,2151.00 303.00,2150.00 303.00,2150.00
             303.00,2150.00 302.00,2150.00 302.00,2150.00 Z
           M 342.00,2150.00
           C 342.00,2150.00 343.00,2151.00 343.00,2151.00
             343.00,2151.00 343.00,2150.00 343.00,2150.00
             343.00,2150.00 342.00,2150.00 342.00,2150.00 Z
           M 341.00,2151.00
           C 341.00,2151.00 342.00,2152.00 342.00,2152.00
             342.00,2152.00 342.00,2151.00 342.00,2151.00
             342.00,2151.00 341.00,2151.00 341.00,2151.00 Z
           M 298.00,2152.00
           C 298.00,2152.00 299.00,2153.00 299.00,2153.00
             299.00,2153.00 299.00,2152.00 299.00,2152.00
             299.00,2152.00 298.00,2152.00 298.00,2152.00 Z
           M 340.00,2152.00
           C 340.00,2152.00 341.00,2153.00 341.00,2153.00
             341.00,2153.00 341.00,2152.00 341.00,2152.00
             341.00,2152.00 340.00,2152.00 340.00,2152.00 Z
           M 296.00,2153.00
           C 296.00,2153.00 297.00,2154.00 297.00,2154.00
             297.00,2154.00 297.00,2153.00 297.00,2153.00
             297.00,2153.00 296.00,2153.00 296.00,2153.00 Z
           M 339.00,2153.00
           C 339.00,2153.00 340.00,2154.00 340.00,2154.00
             340.00,2154.00 340.00,2153.00 340.00,2153.00
             340.00,2153.00 339.00,2153.00 339.00,2153.00 Z
           M 294.00,2154.00
           C 294.00,2154.00 295.00,2155.00 295.00,2155.00
             295.00,2155.00 295.00,2154.00 295.00,2154.00
             295.00,2154.00 294.00,2154.00 294.00,2154.00 Z
           M 293.00,2155.00
           C 293.00,2155.00 294.00,2156.00 294.00,2156.00
             294.00,2156.00 294.00,2155.00 294.00,2155.00
             294.00,2155.00 293.00,2155.00 293.00,2155.00 Z
           M 338.00,2155.00
           C 338.00,2155.00 339.00,2156.00 339.00,2156.00
             339.00,2156.00 339.00,2155.00 339.00,2155.00
             339.00,2155.00 338.00,2155.00 338.00,2155.00 Z
           M 292.00,2156.00
           C 292.00,2156.00 293.00,2157.00 293.00,2157.00
             293.00,2157.00 293.00,2156.00 293.00,2156.00
             293.00,2156.00 292.00,2156.00 292.00,2156.00 Z
           M 337.00,2156.00
           C 337.00,2156.00 338.00,2157.00 338.00,2157.00
             338.00,2157.00 338.00,2156.00 338.00,2156.00
             338.00,2156.00 337.00,2156.00 337.00,2156.00 Z
           M 336.00,2157.00
           C 336.00,2157.00 337.00,2158.00 337.00,2158.00
             337.00,2158.00 337.00,2157.00 337.00,2157.00
             337.00,2157.00 336.00,2157.00 336.00,2157.00 Z
           M 335.00,2158.00
           C 335.00,2158.00 336.00,2159.00 336.00,2159.00
             336.00,2159.00 336.00,2158.00 336.00,2158.00
             336.00,2158.00 335.00,2158.00 335.00,2158.00 Z
           M 334.00,2160.00
           C 334.00,2160.00 335.00,2161.00 335.00,2161.00
             335.00,2161.00 335.00,2160.00 335.00,2160.00
             335.00,2160.00 334.00,2160.00 334.00,2160.00 Z
           M 290.00,2182.00
           C 290.00,2182.00 290.00,2162.00 290.00,2162.00
             288.42,2165.99 288.42,2178.01 290.00,2182.00 Z
           M 334.00,2167.00
           C 334.00,2167.00 334.00,2162.00 334.00,2162.00
             334.00,2162.00 334.00,2167.00 334.00,2167.00 Z
           M 334.00,2178.00
           C 334.00,2178.00 335.00,2179.00 335.00,2179.00
             335.00,2179.00 335.00,2178.00 335.00,2178.00
             335.00,2178.00 334.00,2178.00 334.00,2178.00 Z
           M 335.00,2179.00
           C 335.00,2179.00 336.00,2180.00 336.00,2180.00
             336.00,2180.00 336.00,2179.00 336.00,2179.00
             336.00,2179.00 335.00,2179.00 335.00,2179.00 Z
           M 347.00,2180.00
           C 347.00,2180.00 352.00,2179.00 352.00,2179.00
             352.00,2179.00 347.00,2180.00 347.00,2180.00 Z
           M 340.00,2181.00
           C 340.00,2181.00 341.00,2182.00 341.00,2182.00
             341.00,2182.00 341.00,2181.00 341.00,2181.00
             341.00,2181.00 340.00,2181.00 340.00,2181.00 Z
           M 372.00,2182.00
           C 372.00,2182.00 376.00,2183.00 376.00,2183.00
             374.37,2181.17 374.34,2181.24 372.00,2182.00 Z
           M 378.00,2189.00
           C 378.00,2189.00 379.00,2190.00 379.00,2190.00
             379.00,2190.00 379.00,2189.00 379.00,2189.00
             379.00,2189.00 378.00,2189.00 378.00,2189.00 Z
           M 379.00,2190.00
           C 379.00,2190.00 380.00,2191.00 380.00,2191.00
             380.00,2191.00 380.00,2190.00 380.00,2190.00
             380.00,2190.00 379.00,2190.00 379.00,2190.00 Z
           M 380.00,2191.00
           C 380.00,2191.00 381.00,2192.00 381.00,2192.00
             381.00,2192.00 381.00,2191.00 381.00,2191.00
             381.00,2191.00 380.00,2191.00 380.00,2191.00 Z
           M 285.00,2192.00
           C 285.00,2192.00 286.00,2193.00 286.00,2193.00
             286.00,2193.00 286.00,2192.00 286.00,2192.00
             286.00,2192.00 285.00,2192.00 285.00,2192.00 Z
           M 382.00,2192.00
           C 382.00,2192.00 383.00,2193.00 383.00,2193.00
             383.00,2193.00 383.00,2192.00 383.00,2192.00
             383.00,2192.00 382.00,2192.00 382.00,2192.00 Z
           M 419.00,2192.00
           C 419.00,2192.00 420.00,2193.00 420.00,2193.00
             420.00,2193.00 420.00,2192.00 420.00,2192.00
             420.00,2192.00 419.00,2192.00 419.00,2192.00 Z
           M 417.00,2193.00
           C 417.00,2193.00 418.00,2194.00 418.00,2194.00
             418.00,2194.00 418.00,2193.00 418.00,2193.00
             418.00,2193.00 417.00,2193.00 417.00,2193.00 Z
           M 416.00,2194.00
           C 416.00,2194.00 417.00,2195.00 417.00,2195.00
             417.00,2195.00 417.00,2194.00 417.00,2194.00
             417.00,2194.00 416.00,2194.00 416.00,2194.00 Z
           M 427.00,2194.00
           C 427.00,2194.00 428.00,2195.00 428.00,2195.00
             428.00,2195.00 428.00,2194.00 428.00,2194.00
             428.00,2194.00 427.00,2194.00 427.00,2194.00 Z
           M 415.00,2195.00
           C 415.00,2195.00 416.00,2196.00 416.00,2196.00
             416.00,2196.00 416.00,2195.00 416.00,2195.00
             416.00,2195.00 415.00,2195.00 415.00,2195.00 Z
           M 429.00,2195.00
           C 429.00,2195.00 430.00,2196.00 430.00,2196.00
             430.00,2196.00 430.00,2195.00 430.00,2195.00
             430.00,2195.00 429.00,2195.00 429.00,2195.00 Z
           M 413.00,2196.00
           C 413.00,2196.00 414.00,2197.00 414.00,2197.00
             414.00,2197.00 414.00,2196.00 414.00,2196.00
             414.00,2196.00 413.00,2196.00 413.00,2196.00 Z
           M 430.00,2196.00
           C 430.00,2196.00 431.00,2197.00 431.00,2197.00
             431.00,2197.00 431.00,2196.00 431.00,2196.00
             431.00,2196.00 430.00,2196.00 430.00,2196.00 Z
           M 412.00,2197.00
           C 412.00,2197.00 413.00,2198.00 413.00,2198.00
             413.00,2198.00 413.00,2197.00 413.00,2197.00
             413.00,2197.00 412.00,2197.00 412.00,2197.00 Z
           M 431.00,2197.00
           C 431.00,2197.00 432.00,2198.00 432.00,2198.00
             432.00,2198.00 432.00,2197.00 432.00,2197.00
             432.00,2197.00 431.00,2197.00 431.00,2197.00 Z
           M 411.00,2198.00
           C 411.00,2198.00 412.00,2199.00 412.00,2199.00
             412.00,2199.00 412.00,2198.00 412.00,2198.00
             412.00,2198.00 411.00,2198.00 411.00,2198.00 Z
           M 432.00,2198.00
           C 432.00,2198.00 433.00,2199.00 433.00,2199.00
             433.00,2199.00 433.00,2198.00 433.00,2198.00
             433.00,2198.00 432.00,2198.00 432.00,2198.00 Z
           M 404.00,2200.00
           C 404.00,2200.00 410.00,2199.00 410.00,2199.00
             410.00,2199.00 404.00,2200.00 404.00,2200.00 Z
           M 446.00,2204.00
           C 446.00,2204.00 446.00,2199.00 446.00,2199.00
             446.00,2199.00 446.00,2204.00 446.00,2204.00 Z
           M 435.00,2200.00
           C 435.00,2200.00 436.00,2201.00 436.00,2201.00
             436.00,2201.00 436.00,2200.00 436.00,2200.00
             436.00,2200.00 435.00,2200.00 435.00,2200.00 Z
           M 455.00,2216.00
           C 455.00,2216.00 456.00,2217.00 456.00,2217.00
             456.00,2217.00 456.00,2216.00 456.00,2216.00
             456.00,2216.00 455.00,2216.00 455.00,2216.00 Z
           M 454.00,2218.00
           C 454.00,2218.00 455.00,2219.00 455.00,2219.00
             455.00,2219.00 455.00,2218.00 455.00,2218.00
             455.00,2218.00 454.00,2218.00 454.00,2218.00 Z
           M 453.00,2228.00
           C 453.00,2228.00 454.00,2229.00 454.00,2229.00
             454.00,2229.00 454.00,2228.00 454.00,2228.00
             454.00,2228.00 453.00,2228.00 453.00,2228.00 Z
           M 454.00,2230.00
           C 454.00,2230.00 455.00,2231.00 455.00,2231.00
             455.00,2231.00 455.00,2230.00 455.00,2230.00
             455.00,2230.00 454.00,2230.00 454.00,2230.00 Z
           M 455.00,2231.00
           C 455.00,2231.00 456.00,2232.00 456.00,2232.00
             456.00,2232.00 456.00,2231.00 456.00,2231.00
             456.00,2231.00 455.00,2231.00 455.00,2231.00 Z
           M 457.00,2232.00
           C 457.00,2232.00 458.00,2233.00 458.00,2233.00
             458.00,2233.00 458.00,2232.00 458.00,2232.00
             458.00,2232.00 457.00,2232.00 457.00,2232.00 Z
           M 458.00,2233.00
           C 458.00,2233.00 459.00,2234.00 459.00,2234.00
             459.00,2234.00 459.00,2233.00 459.00,2233.00
             459.00,2233.00 458.00,2233.00 458.00,2233.00 Z
           M 460.00,2234.00
           C 460.00,2234.00 461.00,2235.00 461.00,2235.00
             461.00,2235.00 461.00,2234.00 461.00,2234.00
             461.00,2234.00 460.00,2234.00 460.00,2234.00 Z
           M 462.00,2235.00
           C 462.00,2235.00 463.00,2236.00 463.00,2236.00
             463.00,2236.00 463.00,2235.00 463.00,2235.00
             463.00,2235.00 462.00,2235.00 462.00,2235.00 Z
           M 468.00,2238.00
           C 468.00,2238.00 469.00,2239.00 469.00,2239.00
             469.00,2239.00 469.00,2238.00 469.00,2238.00
             469.00,2238.00 468.00,2238.00 468.00,2238.00 Z
           M 469.00,2239.00
           C 469.00,2239.00 470.00,2240.00 470.00,2240.00
             470.00,2240.00 470.00,2239.00 470.00,2239.00
             470.00,2239.00 469.00,2239.00 469.00,2239.00 Z
           M 471.00,2241.00
           C 471.00,2241.00 472.00,2242.00 472.00,2242.00
             472.00,2242.00 472.00,2241.00 472.00,2241.00
             472.00,2241.00 471.00,2241.00 471.00,2241.00 Z
           M 471.00,2246.00
           C 471.00,2246.00 472.00,2247.00 472.00,2247.00
             472.00,2247.00 472.00,2246.00 472.00,2246.00
             472.00,2246.00 471.00,2246.00 471.00,2246.00 Z
           M 470.00,2248.00
           C 470.00,2248.00 471.00,2249.00 471.00,2249.00
             471.00,2249.00 471.00,2248.00 471.00,2248.00
             471.00,2248.00 470.00,2248.00 470.00,2248.00 Z
           M 469.00,2250.00
           C 469.00,2250.00 470.00,2251.00 470.00,2251.00
             470.00,2251.00 470.00,2250.00 470.00,2250.00
             470.00,2250.00 469.00,2250.00 469.00,2250.00 Z
           M 468.00,2251.00
           C 468.00,2251.00 469.00,2252.00 469.00,2252.00
             469.00,2252.00 469.00,2251.00 469.00,2251.00
             469.00,2251.00 468.00,2251.00 468.00,2251.00 Z
           M 467.00,2252.00
           C 467.00,2252.00 468.00,2253.00 468.00,2253.00
             468.00,2253.00 468.00,2252.00 468.00,2252.00
             468.00,2252.00 467.00,2252.00 467.00,2252.00 Z
           M 466.00,2253.00
           C 466.00,2253.00 467.00,2254.00 467.00,2254.00
             467.00,2254.00 467.00,2253.00 467.00,2253.00
             467.00,2253.00 466.00,2253.00 466.00,2253.00 Z
           M 465.00,2254.00
           C 465.00,2254.00 466.00,2255.00 466.00,2255.00
             466.00,2255.00 466.00,2254.00 466.00,2254.00
             466.00,2254.00 465.00,2254.00 465.00,2254.00 Z
           M 464.00,2255.00
           C 464.00,2255.00 465.00,2256.00 465.00,2256.00
             465.00,2256.00 465.00,2255.00 465.00,2255.00
             465.00,2255.00 464.00,2255.00 464.00,2255.00 Z
           M 463.00,2256.00
           C 463.00,2256.00 464.00,2257.00 464.00,2257.00
             464.00,2257.00 464.00,2256.00 464.00,2256.00
             464.00,2256.00 463.00,2256.00 463.00,2256.00 Z
           M 461.00,2257.00
           C 461.00,2257.00 462.00,2258.00 462.00,2258.00
             462.00,2258.00 462.00,2257.00 462.00,2257.00
             462.00,2257.00 461.00,2257.00 461.00,2257.00 Z
           M 273.00,2258.00
           C 273.00,2258.00 274.00,2259.00 274.00,2259.00
             274.00,2259.00 274.00,2258.00 274.00,2258.00
             274.00,2258.00 273.00,2258.00 273.00,2258.00 Z
           M 460.00,2258.00
           C 460.00,2258.00 461.00,2259.00 461.00,2259.00
             461.00,2259.00 461.00,2258.00 461.00,2258.00
             461.00,2258.00 460.00,2258.00 460.00,2258.00 Z
           M 458.00,2259.00
           C 458.00,2259.00 459.00,2260.00 459.00,2260.00
             459.00,2260.00 459.00,2259.00 459.00,2259.00
             459.00,2259.00 458.00,2259.00 458.00,2259.00 Z
           M 272.00,2260.00
           C 272.00,2260.00 273.00,2261.00 273.00,2261.00
             273.00,2261.00 273.00,2260.00 273.00,2260.00
             273.00,2260.00 272.00,2260.00 272.00,2260.00 Z
           M 456.00,2260.00
           C 456.00,2260.00 457.00,2261.00 457.00,2261.00
             457.00,2261.00 457.00,2260.00 457.00,2260.00
             457.00,2260.00 456.00,2260.00 456.00,2260.00 Z
           M 454.00,2261.00
           C 454.00,2261.00 455.00,2262.00 455.00,2262.00
             455.00,2262.00 455.00,2261.00 455.00,2261.00
             455.00,2261.00 454.00,2261.00 454.00,2261.00 Z
           M 271.00,2262.00
           C 271.00,2262.00 272.00,2263.00 272.00,2263.00
             272.00,2263.00 272.00,2262.00 272.00,2262.00
             272.00,2262.00 271.00,2262.00 271.00,2262.00 Z
           M 270.00,2263.00
           C 270.00,2263.00 271.00,2264.00 271.00,2264.00
             271.00,2264.00 271.00,2263.00 271.00,2263.00
             271.00,2263.00 270.00,2263.00 270.00,2263.00 Z
           M 269.00,2264.00
           C 269.00,2264.00 270.00,2265.00 270.00,2265.00
             270.00,2265.00 270.00,2264.00 270.00,2264.00
             270.00,2264.00 269.00,2264.00 269.00,2264.00 Z
           M 268.00,2266.00
           C 268.00,2266.00 269.00,2267.00 269.00,2267.00
             269.00,2267.00 269.00,2266.00 269.00,2266.00
             269.00,2266.00 268.00,2266.00 268.00,2266.00 Z
           M 267.00,2267.00
           C 267.00,2267.00 268.00,2268.00 268.00,2268.00
             268.00,2268.00 268.00,2267.00 268.00,2267.00
             268.00,2267.00 267.00,2267.00 267.00,2267.00 Z
           M 266.00,2268.00
           C 266.00,2268.00 267.00,2269.00 267.00,2269.00
             267.00,2269.00 267.00,2268.00 267.00,2268.00
             267.00,2268.00 266.00,2268.00 266.00,2268.00 Z
           M 265.00,2270.00
           C 265.00,2270.00 266.00,2271.00 266.00,2271.00
             266.00,2271.00 266.00,2270.00 266.00,2270.00
             266.00,2270.00 265.00,2270.00 265.00,2270.00 Z
           M 422.00,2270.00
           C 422.00,2270.00 423.00,2271.00 423.00,2271.00
             423.00,2271.00 423.00,2270.00 423.00,2270.00
             423.00,2270.00 422.00,2270.00 422.00,2270.00 Z
           M 420.00,2271.00
           C 420.00,2271.00 421.00,2272.00 421.00,2272.00
             421.00,2272.00 421.00,2271.00 421.00,2271.00
             421.00,2271.00 420.00,2271.00 420.00,2271.00 Z
           M 419.00,2272.00
           C 419.00,2272.00 420.00,2273.00 420.00,2273.00
             420.00,2273.00 420.00,2272.00 420.00,2272.00
             420.00,2272.00 419.00,2272.00 419.00,2272.00 Z
           M 418.00,2273.00
           C 418.00,2273.00 419.00,2274.00 419.00,2274.00
             419.00,2274.00 419.00,2273.00 419.00,2273.00
             419.00,2273.00 418.00,2273.00 418.00,2273.00 Z
           M 261.00,2277.00
           C 261.00,2277.00 262.00,2278.00 262.00,2278.00
             262.00,2278.00 262.00,2277.00 262.00,2277.00
             262.00,2277.00 261.00,2277.00 261.00,2277.00 Z
           M 260.00,2278.00
           C 260.00,2278.00 261.00,2279.00 261.00,2279.00
             261.00,2279.00 261.00,2278.00 261.00,2278.00
             261.00,2278.00 260.00,2278.00 260.00,2278.00 Z
           M 410.00,2283.00
           C 413.44,2282.88 414.60,2283.37 416.00,2280.00
             416.00,2280.00 410.00,2283.00 410.00,2283.00 Z
           M 254.00,2281.00
           C 254.00,2281.00 255.00,2282.00 255.00,2282.00
             255.00,2282.00 255.00,2281.00 255.00,2281.00
             255.00,2281.00 254.00,2281.00 254.00,2281.00 Z
           M 404.00,2284.00
           C 404.00,2284.00 405.00,2285.00 405.00,2285.00
             405.00,2285.00 405.00,2284.00 405.00,2284.00
             405.00,2284.00 404.00,2284.00 404.00,2284.00 Z
           M 402.00,2286.00
           C 402.00,2286.00 403.00,2287.00 403.00,2287.00
             403.00,2287.00 403.00,2286.00 403.00,2286.00
             403.00,2286.00 402.00,2286.00 402.00,2286.00 Z
           M 403.00,2297.00
           C 403.00,2297.00 404.00,2298.00 404.00,2298.00
             404.00,2298.00 404.00,2297.00 404.00,2297.00
             404.00,2297.00 403.00,2297.00 403.00,2297.00 Z
           M 243.00,2306.00
           C 243.00,2306.00 244.00,2307.00 244.00,2307.00
             244.00,2307.00 244.00,2306.00 244.00,2306.00
             244.00,2306.00 243.00,2306.00 243.00,2306.00 Z
           M 242.00,2307.00
           C 242.00,2307.00 243.00,2308.00 243.00,2308.00
             243.00,2308.00 243.00,2307.00 243.00,2307.00
             243.00,2307.00 242.00,2307.00 242.00,2307.00 Z
           M 241.00,2309.00
           C 241.00,2309.00 242.00,2310.00 242.00,2310.00
             242.00,2310.00 242.00,2309.00 242.00,2309.00
             242.00,2309.00 241.00,2309.00 241.00,2309.00 Z
           M 240.00,2310.00
           C 240.00,2310.00 241.00,2311.00 241.00,2311.00
             241.00,2311.00 241.00,2310.00 241.00,2310.00
             241.00,2310.00 240.00,2310.00 240.00,2310.00 Z
           M 239.00,2311.00
           C 239.00,2311.00 240.00,2312.00 240.00,2312.00
             240.00,2312.00 240.00,2311.00 240.00,2311.00
             240.00,2311.00 239.00,2311.00 239.00,2311.00 Z
           M 238.00,2312.00
           C 238.00,2312.00 239.00,2313.00 239.00,2313.00
             239.00,2313.00 239.00,2312.00 239.00,2312.00
             239.00,2312.00 238.00,2312.00 238.00,2312.00 Z
           M 237.00,2313.00
           C 237.00,2313.00 238.00,2314.00 238.00,2314.00
             238.00,2314.00 238.00,2313.00 238.00,2313.00
             238.00,2313.00 237.00,2313.00 237.00,2313.00 Z
           M 236.00,2314.00
           C 236.00,2314.00 237.00,2315.00 237.00,2315.00
             237.00,2315.00 237.00,2314.00 237.00,2314.00
             237.00,2314.00 236.00,2314.00 236.00,2314.00 Z
           M 235.00,2315.00
           C 235.00,2315.00 236.00,2316.00 236.00,2316.00
             236.00,2316.00 236.00,2315.00 236.00,2315.00
             236.00,2315.00 235.00,2315.00 235.00,2315.00 Z
           M 234.00,2316.00
           C 234.00,2316.00 235.00,2317.00 235.00,2317.00
             235.00,2317.00 235.00,2316.00 235.00,2316.00
             235.00,2316.00 234.00,2316.00 234.00,2316.00 Z
           M 234.00,2329.00
           C 234.00,2329.00 234.00,2323.00 234.00,2323.00
             234.00,2323.00 234.00,2329.00 234.00,2329.00 Z
           M 228.00,2335.00
           C 228.00,2335.00 229.00,2336.00 229.00,2336.00
             229.00,2336.00 229.00,2335.00 229.00,2335.00
             229.00,2335.00 228.00,2335.00 228.00,2335.00 Z
           M 227.00,2336.00
           C 227.00,2336.00 228.00,2337.00 228.00,2337.00
             228.00,2337.00 228.00,2336.00 228.00,2336.00
             228.00,2336.00 227.00,2336.00 227.00,2336.00 Z
           M 226.00,2338.00
           C 226.00,2338.00 227.00,2339.00 227.00,2339.00
             227.00,2339.00 227.00,2338.00 227.00,2338.00
             227.00,2338.00 226.00,2338.00 226.00,2338.00 Z
           M 225.00,2339.00
           C 225.00,2339.00 226.00,2340.00 226.00,2340.00
             226.00,2340.00 226.00,2339.00 226.00,2339.00
             226.00,2339.00 225.00,2339.00 225.00,2339.00 Z
           M 224.00,2340.00
           C 224.00,2340.00 225.00,2341.00 225.00,2341.00
             225.00,2341.00 225.00,2340.00 225.00,2340.00
             225.00,2340.00 224.00,2340.00 224.00,2340.00 Z
           M 392.00,2340.00
           C 392.00,2340.00 393.00,2341.00 393.00,2341.00
             393.00,2341.00 393.00,2340.00 393.00,2340.00
             393.00,2340.00 392.00,2340.00 392.00,2340.00 Z
           M 222.00,2341.00
           C 222.00,2341.00 223.00,2342.00 223.00,2342.00
             223.00,2342.00 223.00,2341.00 223.00,2341.00
             223.00,2341.00 222.00,2341.00 222.00,2341.00 Z
           M 221.00,2342.00
           C 221.00,2342.00 222.00,2343.00 222.00,2343.00
             222.00,2343.00 222.00,2342.00 222.00,2342.00
             222.00,2342.00 221.00,2342.00 221.00,2342.00 Z
           M 220.00,2344.00
           C 220.00,2344.00 221.00,2345.00 221.00,2345.00
             221.00,2345.00 221.00,2344.00 221.00,2344.00
             221.00,2344.00 220.00,2344.00 220.00,2344.00 Z
           M 217.00,2350.00
           C 217.00,2350.00 218.00,2351.00 218.00,2351.00
             218.00,2351.00 218.00,2350.00 218.00,2350.00
             218.00,2350.00 217.00,2350.00 217.00,2350.00 Z
           M 216.00,2351.00
           C 216.00,2351.00 217.00,2352.00 217.00,2352.00
             217.00,2352.00 217.00,2351.00 217.00,2351.00
             217.00,2351.00 216.00,2351.00 216.00,2351.00 Z
           M 215.00,2352.00
           C 215.00,2352.00 216.00,2353.00 216.00,2353.00
             216.00,2353.00 216.00,2352.00 216.00,2352.00
             216.00,2352.00 215.00,2352.00 215.00,2352.00 Z
           M 214.00,2353.00
           C 214.00,2353.00 215.00,2354.00 215.00,2354.00
             215.00,2354.00 215.00,2353.00 215.00,2353.00
             215.00,2353.00 214.00,2353.00 214.00,2353.00 Z
           M 213.00,2354.00
           C 213.00,2354.00 214.00,2355.00 214.00,2355.00
             214.00,2355.00 214.00,2354.00 214.00,2354.00
             214.00,2354.00 213.00,2354.00 213.00,2354.00 Z
           M 211.00,2355.00
           C 211.00,2355.00 212.00,2356.00 212.00,2356.00
             212.00,2356.00 212.00,2355.00 212.00,2355.00
             212.00,2355.00 211.00,2355.00 211.00,2355.00 Z
           M 381.00,2358.00
           C 381.00,2358.00 390.00,2357.00 390.00,2357.00
             390.00,2357.00 381.00,2358.00 381.00,2358.00 Z
           M 375.00,2359.00
           C 375.00,2359.00 376.00,2360.00 376.00,2360.00
             376.00,2360.00 376.00,2359.00 376.00,2359.00
             376.00,2359.00 375.00,2359.00 375.00,2359.00 Z
           M 373.00,2360.00
           C 373.00,2360.00 374.00,2361.00 374.00,2361.00
             374.00,2361.00 374.00,2360.00 374.00,2360.00
             374.00,2360.00 373.00,2360.00 373.00,2360.00 Z
           M 372.00,2361.00
           C 372.00,2361.00 373.00,2362.00 373.00,2362.00
             373.00,2362.00 373.00,2361.00 373.00,2361.00
             373.00,2361.00 372.00,2361.00 372.00,2361.00 Z
           M 371.00,2362.00
           C 371.00,2362.00 372.00,2363.00 372.00,2363.00
             372.00,2363.00 372.00,2362.00 372.00,2362.00
             372.00,2362.00 371.00,2362.00 371.00,2362.00 Z
           M 369.00,2364.00
           C 369.00,2364.00 370.00,2365.00 370.00,2365.00
             370.00,2365.00 370.00,2364.00 370.00,2364.00
             370.00,2364.00 369.00,2364.00 369.00,2364.00 Z
           M 206.00,2365.00
           C 206.00,2365.00 207.00,2366.00 207.00,2366.00
             207.00,2366.00 207.00,2365.00 207.00,2365.00
             207.00,2365.00 206.00,2365.00 206.00,2365.00 Z
           M 368.00,2365.00
           C 368.00,2365.00 369.00,2366.00 369.00,2366.00
             369.00,2366.00 369.00,2365.00 369.00,2365.00
             369.00,2365.00 368.00,2365.00 368.00,2365.00 Z
           M 205.00,2366.00
           C 205.00,2366.00 206.00,2367.00 206.00,2367.00
             206.00,2367.00 206.00,2366.00 206.00,2366.00
             206.00,2366.00 205.00,2366.00 205.00,2366.00 Z
           M 367.00,2366.00
           C 367.00,2366.00 368.00,2367.00 368.00,2367.00
             368.00,2367.00 368.00,2366.00 368.00,2366.00
             368.00,2366.00 367.00,2366.00 367.00,2366.00 Z
           M 204.00,2367.00
           C 204.00,2367.00 205.00,2368.00 205.00,2368.00
             205.00,2368.00 205.00,2367.00 205.00,2367.00
             205.00,2367.00 204.00,2367.00 204.00,2367.00 Z
           M 203.00,2368.00
           C 203.00,2368.00 204.00,2369.00 204.00,2369.00
             204.00,2369.00 204.00,2368.00 204.00,2368.00
             204.00,2368.00 203.00,2368.00 203.00,2368.00 Z
           M 202.00,2369.00
           C 202.00,2369.00 203.00,2370.00 203.00,2370.00
             203.00,2370.00 203.00,2369.00 203.00,2369.00
             203.00,2369.00 202.00,2369.00 202.00,2369.00 Z
           M 201.00,2370.00
           C 201.00,2370.00 202.00,2371.00 202.00,2371.00
             202.00,2371.00 202.00,2370.00 202.00,2370.00
             202.00,2370.00 201.00,2370.00 201.00,2370.00 Z
           M 200.00,2371.00
           C 200.00,2371.00 201.00,2372.00 201.00,2372.00
             201.00,2372.00 201.00,2371.00 201.00,2371.00
             201.00,2371.00 200.00,2371.00 200.00,2371.00 Z
           M 199.00,2372.00
           C 199.00,2372.00 200.00,2373.00 200.00,2373.00
             200.00,2373.00 200.00,2372.00 200.00,2372.00
             200.00,2372.00 199.00,2372.00 199.00,2372.00 Z
           M 365.00,2372.00
           C 365.00,2372.00 366.00,2373.00 366.00,2373.00
             366.00,2373.00 366.00,2372.00 366.00,2372.00
             366.00,2372.00 365.00,2372.00 365.00,2372.00 Z
           M 198.00,2373.00
           C 198.00,2373.00 199.00,2374.00 199.00,2374.00
             199.00,2374.00 199.00,2373.00 199.00,2373.00
             199.00,2373.00 198.00,2373.00 198.00,2373.00 Z
           M 197.00,2374.00
           C 197.00,2374.00 198.00,2375.00 198.00,2375.00
             198.00,2375.00 198.00,2374.00 198.00,2374.00
             198.00,2374.00 197.00,2374.00 197.00,2374.00 Z
           M 196.00,2375.00
           C 196.00,2375.00 197.00,2376.00 197.00,2376.00
             197.00,2376.00 197.00,2375.00 197.00,2375.00
             197.00,2375.00 196.00,2375.00 196.00,2375.00 Z
           M 367.00,2378.00
           C 367.00,2378.00 368.00,2379.00 368.00,2379.00
             368.00,2379.00 368.00,2378.00 368.00,2378.00
             368.00,2378.00 367.00,2378.00 367.00,2378.00 Z
           M 368.00,2380.00
           C 368.00,2380.00 369.00,2381.00 369.00,2381.00
             369.00,2381.00 369.00,2380.00 369.00,2380.00
             369.00,2380.00 368.00,2380.00 368.00,2380.00 Z
           M 369.00,2381.00
           C 369.00,2381.00 370.00,2382.00 370.00,2382.00
             370.00,2382.00 370.00,2381.00 370.00,2381.00
             370.00,2381.00 369.00,2381.00 369.00,2381.00 Z
           M 370.00,2383.00
           C 370.00,2383.00 371.00,2384.00 371.00,2384.00
             371.00,2384.00 371.00,2383.00 371.00,2383.00
             371.00,2383.00 370.00,2383.00 370.00,2383.00 Z
           M 188.00,2385.00
           C 188.00,2385.00 189.00,2386.00 189.00,2386.00
             189.00,2386.00 189.00,2385.00 189.00,2385.00
             189.00,2385.00 188.00,2385.00 188.00,2385.00 Z
           M 186.00,2386.00
           C 186.00,2386.00 187.00,2387.00 187.00,2387.00
             187.00,2387.00 187.00,2386.00 187.00,2386.00
             187.00,2386.00 186.00,2386.00 186.00,2386.00 Z
           M 373.00,2392.00
           C 373.00,2392.00 373.00,2386.00 373.00,2386.00
             373.00,2386.00 373.00,2392.00 373.00,2392.00 Z
           M 185.00,2387.00
           C 185.00,2387.00 186.00,2388.00 186.00,2388.00
             186.00,2388.00 186.00,2387.00 186.00,2387.00
             186.00,2387.00 185.00,2387.00 185.00,2387.00 Z
           M 183.00,2388.00
           C 183.00,2388.00 184.00,2389.00 184.00,2389.00
             184.00,2389.00 184.00,2388.00 184.00,2388.00
             184.00,2388.00 183.00,2388.00 183.00,2388.00 Z
           M 182.00,2389.00
           C 182.00,2389.00 183.00,2390.00 183.00,2390.00
             183.00,2390.00 183.00,2389.00 183.00,2389.00
             183.00,2389.00 182.00,2389.00 182.00,2389.00 Z
           M 181.00,2390.00
           C 181.00,2390.00 182.00,2391.00 182.00,2391.00
             182.00,2391.00 182.00,2390.00 182.00,2390.00
             182.00,2390.00 181.00,2390.00 181.00,2390.00 Z
           M 178.00,2393.00
           C 178.00,2393.00 179.00,2394.00 179.00,2394.00
             179.00,2394.00 179.00,2393.00 179.00,2393.00
             179.00,2393.00 178.00,2393.00 178.00,2393.00 Z
           M 177.00,2394.00
           C 177.00,2394.00 178.00,2395.00 178.00,2395.00
             178.00,2395.00 178.00,2394.00 178.00,2394.00
             178.00,2394.00 177.00,2394.00 177.00,2394.00 Z
           M 370.00,2394.00
           C 370.00,2394.00 371.00,2395.00 371.00,2395.00
             371.00,2395.00 371.00,2394.00 371.00,2394.00
             371.00,2394.00 370.00,2394.00 370.00,2394.00 Z
           M 171.00,2396.00
           C 171.00,2396.00 176.00,2395.00 176.00,2395.00
             176.00,2395.00 171.00,2396.00 171.00,2396.00 Z
           M 369.00,2395.00
           C 369.00,2395.00 370.00,2396.00 370.00,2396.00
             370.00,2396.00 370.00,2395.00 370.00,2395.00
             370.00,2395.00 369.00,2395.00 369.00,2395.00 Z
           M 368.00,2396.00
           C 368.00,2396.00 369.00,2397.00 369.00,2397.00
             369.00,2397.00 369.00,2396.00 369.00,2396.00
             369.00,2396.00 368.00,2396.00 368.00,2396.00 Z
           M 367.00,2398.00
           C 367.00,2398.00 368.00,2399.00 368.00,2399.00
             368.00,2399.00 368.00,2398.00 368.00,2398.00
             368.00,2398.00 367.00,2398.00 367.00,2398.00 Z
           M 366.00,2399.00
           C 366.00,2399.00 367.00,2400.00 367.00,2400.00
             367.00,2400.00 367.00,2399.00 367.00,2399.00
             367.00,2399.00 366.00,2399.00 366.00,2399.00 Z
           M 365.00,2401.00
           C 365.00,2401.00 366.00,2402.00 366.00,2402.00
             366.00,2402.00 366.00,2401.00 366.00,2401.00
             366.00,2401.00 365.00,2401.00 365.00,2401.00 Z
           M 311.00,2402.00
           C 311.00,2402.00 312.00,2403.00 312.00,2403.00
             312.00,2403.00 312.00,2402.00 312.00,2402.00
             312.00,2402.00 311.00,2402.00 311.00,2402.00 Z
           M 311.00,2408.00
           C 311.00,2408.00 311.00,2403.00 311.00,2403.00
             311.00,2403.00 311.00,2408.00 311.00,2408.00 Z
           M 362.00,2406.00
           C 362.00,2406.00 363.00,2407.00 363.00,2407.00
             363.00,2407.00 363.00,2406.00 363.00,2406.00
             363.00,2406.00 362.00,2406.00 362.00,2406.00 Z
           M 360.00,2409.00
           C 360.00,2409.00 361.00,2410.00 361.00,2410.00
             361.00,2410.00 361.00,2409.00 361.00,2409.00
             361.00,2409.00 360.00,2409.00 360.00,2409.00 Z
           M 359.00,2410.00
           C 359.00,2410.00 360.00,2411.00 360.00,2411.00
             360.00,2411.00 360.00,2410.00 360.00,2410.00
             360.00,2410.00 359.00,2410.00 359.00,2410.00 Z
           M 357.00,2411.00
           C 357.00,2411.00 358.00,2412.00 358.00,2412.00
             358.00,2412.00 358.00,2411.00 358.00,2411.00
             358.00,2411.00 357.00,2411.00 357.00,2411.00 Z
           M 159.00,2412.00
           C 159.00,2412.00 160.00,2413.00 160.00,2413.00
             160.00,2413.00 160.00,2412.00 160.00,2412.00
             160.00,2412.00 159.00,2412.00 159.00,2412.00 Z
           M 158.00,2413.00
           C 158.00,2413.00 159.00,2414.00 159.00,2414.00
             159.00,2414.00 159.00,2413.00 159.00,2413.00
             159.00,2413.00 158.00,2413.00 158.00,2413.00 Z
           M 312.00,2419.00
           C 312.00,2419.00 312.00,2413.00 312.00,2413.00
             312.00,2413.00 312.00,2419.00 312.00,2419.00 Z
           M 157.00,2414.00
           C 157.00,2414.00 158.00,2415.00 158.00,2415.00
             158.00,2415.00 158.00,2414.00 158.00,2414.00
             158.00,2414.00 157.00,2414.00 157.00,2414.00 Z
           M 155.00,2416.00
           C 155.00,2416.00 156.00,2417.00 156.00,2417.00
             156.00,2417.00 156.00,2416.00 156.00,2416.00
             156.00,2416.00 155.00,2416.00 155.00,2416.00 Z
           M 154.00,2417.00
           C 154.00,2417.00 155.00,2418.00 155.00,2418.00
             155.00,2418.00 155.00,2417.00 155.00,2417.00
             155.00,2417.00 154.00,2417.00 154.00,2417.00 Z
           M 153.00,2418.00
           C 153.00,2418.00 154.00,2419.00 154.00,2419.00
             154.00,2419.00 154.00,2418.00 154.00,2418.00
             154.00,2418.00 153.00,2418.00 153.00,2418.00 Z
           M 152.00,2419.00
           C 152.00,2419.00 153.00,2420.00 153.00,2420.00
             153.00,2420.00 153.00,2419.00 153.00,2419.00
             153.00,2419.00 152.00,2419.00 152.00,2419.00 Z
           M 151.00,2420.00
           C 151.00,2420.00 152.00,2421.00 152.00,2421.00
             152.00,2421.00 152.00,2420.00 152.00,2420.00
             152.00,2420.00 151.00,2420.00 151.00,2420.00 Z
           M 312.00,2420.00
           C 312.00,2420.00 313.00,2421.00 313.00,2421.00
             313.00,2421.00 313.00,2420.00 313.00,2420.00
             313.00,2420.00 312.00,2420.00 312.00,2420.00 Z
           M 313.00,2422.00
           C 313.00,2422.00 314.00,2423.00 314.00,2423.00
             314.00,2423.00 314.00,2422.00 314.00,2422.00
             314.00,2422.00 313.00,2422.00 313.00,2422.00 Z
           M 314.00,2424.00
           C 314.00,2424.00 315.00,2425.00 315.00,2425.00
             315.00,2425.00 315.00,2424.00 315.00,2424.00
             315.00,2424.00 314.00,2424.00 314.00,2424.00 Z
           M 315.00,2426.00
           C 315.00,2426.00 316.00,2427.00 316.00,2427.00
             316.00,2427.00 316.00,2426.00 316.00,2426.00
             316.00,2426.00 315.00,2426.00 315.00,2426.00 Z
           M 316.00,2428.00
           C 316.00,2428.00 317.00,2429.00 317.00,2429.00
             317.00,2429.00 317.00,2428.00 317.00,2428.00
             317.00,2428.00 316.00,2428.00 316.00,2428.00 Z
           M 317.00,2430.00
           C 317.00,2430.00 318.00,2431.00 318.00,2431.00
             318.00,2431.00 318.00,2430.00 318.00,2430.00
             318.00,2430.00 317.00,2430.00 317.00,2430.00 Z
           M 318.00,2432.00
           C 318.00,2432.00 319.00,2433.00 319.00,2433.00
             319.00,2433.00 319.00,2432.00 319.00,2432.00
             319.00,2432.00 318.00,2432.00 318.00,2432.00 Z
           M 147.00,2433.00
           C 147.00,2433.00 148.00,2434.00 148.00,2434.00
             148.00,2434.00 148.00,2433.00 148.00,2433.00
             148.00,2433.00 147.00,2433.00 147.00,2433.00 Z
           M 146.00,2434.00
           C 146.00,2434.00 147.00,2435.00 147.00,2435.00
             147.00,2435.00 147.00,2434.00 147.00,2434.00
             147.00,2434.00 146.00,2434.00 146.00,2434.00 Z
           M 145.00,2435.00
           C 145.00,2435.00 146.00,2436.00 146.00,2436.00
             146.00,2436.00 146.00,2435.00 146.00,2435.00
             146.00,2435.00 145.00,2435.00 145.00,2435.00 Z
           M 144.00,2436.00
           C 144.00,2436.00 145.00,2437.00 145.00,2437.00
             145.00,2437.00 145.00,2436.00 145.00,2436.00
             145.00,2436.00 144.00,2436.00 144.00,2436.00 Z
           M 143.00,2437.00
           C 143.00,2437.00 144.00,2438.00 144.00,2438.00
             144.00,2438.00 144.00,2437.00 144.00,2437.00
             144.00,2437.00 143.00,2437.00 143.00,2437.00 Z
           M 186.00,2437.00
           C 186.00,2437.00 187.00,2438.00 187.00,2438.00
             187.00,2438.00 187.00,2437.00 187.00,2437.00
             187.00,2437.00 186.00,2437.00 186.00,2437.00 Z
           M 142.00,2438.00
           C 142.00,2438.00 143.00,2439.00 143.00,2439.00
             143.00,2439.00 143.00,2438.00 143.00,2438.00
             143.00,2438.00 142.00,2438.00 142.00,2438.00 Z
           M 319.00,2444.00
           C 319.00,2444.00 319.00,2439.00 319.00,2439.00
             319.00,2439.00 319.00,2444.00 319.00,2444.00 Z
           M 176.00,2440.00
           C 176.00,2440.00 177.00,2441.00 177.00,2441.00
             177.00,2441.00 177.00,2440.00 177.00,2440.00
             177.00,2440.00 176.00,2440.00 176.00,2440.00 Z
           M 140.00,2441.00
           C 140.00,2441.00 141.00,2442.00 141.00,2442.00
             141.00,2442.00 141.00,2441.00 141.00,2441.00
             141.00,2441.00 140.00,2441.00 140.00,2441.00 Z
           M 174.00,2441.00
           C 174.00,2441.00 175.00,2442.00 175.00,2442.00
             175.00,2442.00 175.00,2441.00 175.00,2441.00
             175.00,2441.00 174.00,2441.00 174.00,2441.00 Z
           M 172.00,2442.00
           C 172.00,2442.00 173.00,2443.00 173.00,2443.00
             173.00,2443.00 173.00,2442.00 173.00,2442.00
             173.00,2442.00 172.00,2442.00 172.00,2442.00 Z
           M 139.00,2443.00
           C 139.00,2443.00 140.00,2444.00 140.00,2444.00
             140.00,2444.00 140.00,2443.00 140.00,2443.00
             140.00,2443.00 139.00,2443.00 139.00,2443.00 Z
           M 171.00,2443.00
           C 171.00,2443.00 172.00,2444.00 172.00,2444.00
             172.00,2444.00 172.00,2443.00 172.00,2443.00
             172.00,2443.00 171.00,2443.00 171.00,2443.00 Z
           M 169.00,2444.00
           C 169.00,2444.00 170.00,2445.00 170.00,2445.00
             170.00,2445.00 170.00,2444.00 170.00,2444.00
             170.00,2444.00 169.00,2444.00 169.00,2444.00 Z
           M 138.00,2445.00
           C 138.00,2445.00 139.00,2446.00 139.00,2446.00
             139.00,2446.00 139.00,2445.00 139.00,2445.00
             139.00,2445.00 138.00,2445.00 138.00,2445.00 Z
           M 168.00,2445.00
           C 168.00,2445.00 169.00,2446.00 169.00,2446.00
             169.00,2446.00 169.00,2445.00 169.00,2445.00
             169.00,2445.00 168.00,2445.00 168.00,2445.00 Z
           M 183.00,2445.00
           C 183.00,2445.00 184.00,2446.00 184.00,2446.00
             184.00,2446.00 184.00,2445.00 184.00,2445.00
             184.00,2445.00 183.00,2445.00 183.00,2445.00 Z
           M 167.00,2446.00
           C 167.00,2446.00 168.00,2447.00 168.00,2447.00
             168.00,2447.00 168.00,2446.00 168.00,2446.00
             168.00,2446.00 167.00,2446.00 167.00,2446.00 Z
           M 182.00,2446.00
           C 182.00,2446.00 183.00,2447.00 183.00,2447.00
             183.00,2447.00 183.00,2446.00 183.00,2446.00
             183.00,2446.00 182.00,2446.00 182.00,2446.00 Z
           M 166.00,2447.00
           C 166.00,2447.00 167.00,2448.00 167.00,2448.00
             167.00,2448.00 167.00,2447.00 167.00,2447.00
             167.00,2447.00 166.00,2447.00 166.00,2447.00 Z
           M 181.00,2447.00
           C 181.00,2447.00 182.00,2448.00 182.00,2448.00
             182.00,2448.00 182.00,2447.00 182.00,2447.00
             182.00,2447.00 181.00,2447.00 181.00,2447.00 Z
           M 136.00,2448.00
           C 136.00,2448.00 137.00,2449.00 137.00,2449.00
             137.00,2449.00 137.00,2448.00 137.00,2448.00
             137.00,2448.00 136.00,2448.00 136.00,2448.00 Z
           M 165.00,2448.00
           C 165.00,2448.00 166.00,2449.00 166.00,2449.00
             166.00,2449.00 166.00,2448.00 166.00,2448.00
             166.00,2448.00 165.00,2448.00 165.00,2448.00 Z
           M 180.00,2448.00
           C 180.00,2448.00 181.00,2449.00 181.00,2449.00
             181.00,2449.00 181.00,2448.00 181.00,2448.00
             181.00,2448.00 180.00,2448.00 180.00,2448.00 Z
           M 164.00,2449.00
           C 164.00,2449.00 165.00,2450.00 165.00,2450.00
             165.00,2450.00 165.00,2449.00 165.00,2449.00
             165.00,2449.00 164.00,2449.00 164.00,2449.00 Z
           M 135.00,2450.00
           C 135.00,2450.00 136.00,2451.00 136.00,2451.00
             136.00,2451.00 136.00,2450.00 136.00,2450.00
             136.00,2450.00 135.00,2450.00 135.00,2450.00 Z
           M 135.00,2452.00
           C 135.00,2452.00 136.00,2453.00 136.00,2453.00
             136.00,2453.00 136.00,2452.00 136.00,2452.00
             136.00,2452.00 135.00,2452.00 135.00,2452.00 Z
           M 162.00,2452.00
           C 162.00,2452.00 163.00,2453.00 163.00,2453.00
             163.00,2453.00 163.00,2452.00 163.00,2452.00
             163.00,2452.00 162.00,2452.00 162.00,2452.00 Z
           M 136.00,2453.00
           C 136.00,2453.00 137.00,2454.00 137.00,2454.00
             137.00,2454.00 137.00,2453.00 137.00,2453.00
             137.00,2453.00 136.00,2453.00 136.00,2453.00 Z
           M 137.00,2454.00
           C 137.00,2454.00 138.00,2455.00 138.00,2455.00
             138.00,2455.00 138.00,2454.00 138.00,2454.00
             138.00,2454.00 137.00,2454.00 137.00,2454.00 Z
           M 161.00,2454.00
           C 161.00,2454.00 162.00,2455.00 162.00,2455.00
             162.00,2455.00 162.00,2454.00 162.00,2454.00
             162.00,2454.00 161.00,2454.00 161.00,2454.00 Z
           M 180.00,2459.00
           C 180.00,2459.00 180.00,2454.00 180.00,2454.00
             180.00,2454.00 180.00,2459.00 180.00,2459.00 Z
           M 139.00,2455.00
           C 139.00,2455.00 140.00,2456.00 140.00,2456.00
             140.00,2456.00 140.00,2455.00 140.00,2455.00
             140.00,2455.00 139.00,2455.00 139.00,2455.00 Z
           M 160.00,2456.00
           C 160.00,2456.00 161.00,2457.00 161.00,2457.00
             161.00,2457.00 161.00,2456.00 161.00,2456.00
             161.00,2456.00 160.00,2456.00 160.00,2456.00 Z
           M 319.00,2464.00
           C 319.00,2464.00 319.00,2456.00 319.00,2456.00
             317.75,2459.17 317.75,2460.83 319.00,2464.00 Z
           M 159.00,2457.00
           C 159.00,2457.00 160.00,2458.00 160.00,2458.00
             160.00,2458.00 160.00,2457.00 160.00,2457.00
             160.00,2457.00 159.00,2457.00 159.00,2457.00 Z
           M 158.00,2458.00
           C 158.00,2458.00 159.00,2459.00 159.00,2459.00
             159.00,2459.00 159.00,2458.00 159.00,2458.00
             159.00,2458.00 158.00,2458.00 158.00,2458.00 Z
           M 180.00,2469.00
           C 180.00,2469.00 180.00,2464.00 180.00,2464.00
             180.00,2464.00 180.00,2469.00 180.00,2469.00 Z
           M 320.00,2475.00
           C 320.00,2475.00 320.00,2467.00 320.00,2467.00
             318.75,2470.17 318.75,2471.83 320.00,2475.00 Z
           M 173.00,2470.00
           C 173.00,2470.00 178.00,2469.00 178.00,2469.00
             178.00,2469.00 173.00,2470.00 173.00,2470.00 Z
           M 149.00,2470.00
           C 149.00,2470.00 150.00,2486.00 150.00,2486.00
             150.00,2486.00 151.00,2470.00 151.00,2470.00
             151.00,2470.00 149.00,2470.00 149.00,2470.00 Z
           M 151.00,2471.00
           C 151.00,2471.00 152.00,2472.00 152.00,2472.00
             152.00,2472.00 152.00,2471.00 152.00,2471.00
             152.00,2471.00 151.00,2471.00 151.00,2471.00 Z
           M 170.00,2471.00
           C 170.00,2471.00 171.00,2472.00 171.00,2472.00
             171.00,2472.00 171.00,2471.00 171.00,2471.00
             171.00,2471.00 170.00,2471.00 170.00,2471.00 Z
           M 168.00,2472.00
           C 168.00,2472.00 169.00,2473.00 169.00,2473.00
             169.00,2473.00 169.00,2472.00 169.00,2472.00
             169.00,2472.00 168.00,2472.00 168.00,2472.00 Z
           M 167.00,2473.00
           C 167.00,2473.00 168.00,2474.00 168.00,2474.00
             168.00,2474.00 168.00,2473.00 168.00,2473.00
             168.00,2473.00 167.00,2473.00 167.00,2473.00 Z
           M 153.00,2474.00
           C 153.00,2474.00 154.00,2475.00 154.00,2475.00
             154.00,2475.00 154.00,2474.00 154.00,2474.00
             154.00,2474.00 153.00,2474.00 153.00,2474.00 Z
           M 166.00,2474.00
           C 166.00,2474.00 167.00,2475.00 167.00,2475.00
             167.00,2475.00 167.00,2474.00 167.00,2474.00
             167.00,2474.00 166.00,2474.00 166.00,2474.00 Z
           M 164.00,2475.00
           C 164.00,2475.00 165.00,2476.00 165.00,2476.00
             165.00,2476.00 165.00,2475.00 165.00,2475.00
             165.00,2475.00 164.00,2475.00 164.00,2475.00 Z
           M 154.00,2476.00
           C 154.00,2476.00 155.00,2477.00 155.00,2477.00
             155.00,2477.00 155.00,2476.00 155.00,2476.00
             155.00,2476.00 154.00,2476.00 154.00,2476.00 Z
           M 163.00,2476.00
           C 163.00,2476.00 164.00,2477.00 164.00,2477.00
             164.00,2477.00 164.00,2476.00 164.00,2476.00
             164.00,2476.00 163.00,2476.00 163.00,2476.00 Z
           M 156.00,2477.00
           C 156.00,2477.00 157.00,2478.00 157.00,2478.00
             157.00,2478.00 157.00,2477.00 157.00,2477.00
             157.00,2477.00 156.00,2477.00 156.00,2477.00 Z
           M 161.00,2477.00
           C 161.00,2477.00 162.00,2478.00 162.00,2478.00
             162.00,2478.00 162.00,2477.00 162.00,2477.00
             162.00,2477.00 161.00,2477.00 161.00,2477.00 Z
           M 320.00,2483.00
           C 320.00,2483.00 329.00,2482.00 329.00,2482.00
             329.00,2482.00 321.00,2482.00 321.00,2482.00
             321.00,2482.00 321.00,2478.00 321.00,2478.00
             321.00,2478.00 320.00,2483.00 320.00,2483.00 Z
           M 332.00,2484.00
           C 332.00,2484.00 333.00,2485.00 333.00,2485.00
             333.00,2485.00 333.00,2484.00 333.00,2484.00
             333.00,2484.00 332.00,2484.00 332.00,2484.00 Z
           M 168.00,2486.00
           C 168.00,2486.00 174.00,2486.00 174.00,2486.00
             174.00,2486.00 175.00,2491.00 175.00,2491.00
             175.00,2491.00 175.00,2485.00 175.00,2485.00
             175.00,2485.00 168.00,2486.00 168.00,2486.00 Z
           M 333.00,2485.00
           C 333.00,2485.00 334.00,2486.00 334.00,2486.00
             334.00,2486.00 334.00,2485.00 334.00,2485.00
             334.00,2485.00 333.00,2485.00 333.00,2485.00 Z
           M 179.00,2486.00
           C 179.00,2486.00 180.00,2487.00 180.00,2487.00
             180.00,2487.00 180.00,2486.00 180.00,2486.00
             180.00,2486.00 179.00,2486.00 179.00,2486.00 Z
           M 334.00,2486.00
           C 334.00,2486.00 335.00,2487.00 335.00,2487.00
             335.00,2487.00 335.00,2486.00 335.00,2486.00
             335.00,2486.00 334.00,2486.00 334.00,2486.00 Z
           M 150.00,2487.00
           C 150.00,2487.00 151.00,2488.00 151.00,2488.00
             151.00,2488.00 151.00,2487.00 151.00,2487.00
             151.00,2487.00 150.00,2487.00 150.00,2487.00 Z
           M 178.00,2487.00
           C 178.00,2487.00 179.00,2488.00 179.00,2488.00
             179.00,2488.00 179.00,2487.00 179.00,2487.00
             179.00,2487.00 178.00,2487.00 178.00,2487.00 Z
           M 327.00,2490.00
           C 327.00,2490.00 328.00,2491.00 328.00,2491.00
             328.00,2491.00 328.00,2490.00 328.00,2490.00
             328.00,2490.00 327.00,2490.00 327.00,2490.00 Z
           M 326.00,2491.00
           C 326.00,2491.00 327.00,2492.00 327.00,2492.00
             327.00,2492.00 327.00,2491.00 327.00,2491.00
             327.00,2491.00 326.00,2491.00 326.00,2491.00 Z
           M 325.00,2492.00
           C 325.00,2492.00 326.00,2493.00 326.00,2493.00
             326.00,2493.00 326.00,2492.00 326.00,2492.00
             326.00,2492.00 325.00,2492.00 325.00,2492.00 Z
           M 324.00,2500.00
           C 324.00,2500.00 324.00,2495.00 324.00,2495.00
             324.00,2495.00 324.00,2500.00 324.00,2500.00 Z
           M 184.00,2499.00
           C 184.00,2499.00 185.00,2500.00 185.00,2500.00
             185.00,2500.00 185.00,2499.00 185.00,2499.00
             185.00,2499.00 184.00,2499.00 184.00,2499.00 Z
           M 185.00,2501.00
           C 185.00,2501.00 189.00,2501.00 189.00,2501.00
             189.00,2501.00 190.00,2509.00 190.00,2509.00
             190.00,2509.00 190.00,2500.00 190.00,2500.00
             190.00,2500.00 185.00,2501.00 185.00,2501.00 Z
           M 316.00,2502.00
           C 316.00,2502.00 317.00,2503.00 317.00,2503.00
             317.00,2503.00 317.00,2502.00 317.00,2502.00
             317.00,2502.00 316.00,2502.00 316.00,2502.00 Z
           M 314.00,2503.00
           C 314.00,2503.00 315.00,2504.00 315.00,2504.00
             315.00,2504.00 315.00,2503.00 315.00,2503.00
             315.00,2503.00 314.00,2503.00 314.00,2503.00 Z
           M 178.00,2506.00
           C 178.00,2506.00 179.00,2507.00 179.00,2507.00
             179.00,2507.00 179.00,2506.00 179.00,2506.00
             179.00,2506.00 178.00,2506.00 178.00,2506.00 Z
           M 302.00,2509.00
           C 302.00,2509.00 303.00,2510.00 303.00,2510.00
             303.00,2510.00 303.00,2509.00 303.00,2509.00
             303.00,2509.00 302.00,2509.00 302.00,2509.00 Z
           M 301.00,2510.00
           C 301.00,2510.00 302.00,2511.00 302.00,2511.00
             302.00,2511.00 302.00,2510.00 302.00,2510.00
             302.00,2510.00 301.00,2510.00 301.00,2510.00 Z
           M 300.00,2511.00
           C 300.00,2511.00 301.00,2512.00 301.00,2512.00
             301.00,2512.00 301.00,2511.00 301.00,2511.00
             301.00,2511.00 300.00,2511.00 300.00,2511.00 Z
           M 297.00,2516.00
           C 297.00,2516.00 298.00,2517.00 298.00,2517.00
             298.00,2517.00 298.00,2516.00 298.00,2516.00
             298.00,2516.00 297.00,2516.00 297.00,2516.00 Z
           M 296.00,2518.00
           C 296.00,2518.00 297.00,2519.00 297.00,2519.00
             297.00,2519.00 297.00,2518.00 297.00,2518.00
             297.00,2518.00 296.00,2518.00 296.00,2518.00 Z
           M 295.00,2520.00
           C 295.00,2520.00 296.00,2521.00 296.00,2521.00
             296.00,2521.00 296.00,2520.00 296.00,2520.00
             296.00,2520.00 295.00,2520.00 295.00,2520.00 Z
           M 292.00,2525.00
           C 292.00,2525.00 293.00,2526.00 293.00,2526.00
             293.00,2526.00 293.00,2525.00 293.00,2525.00
             293.00,2525.00 292.00,2525.00 292.00,2525.00 Z
           M 291.00,2526.00
           C 291.00,2526.00 292.00,2527.00 292.00,2527.00
             292.00,2527.00 292.00,2526.00 292.00,2526.00
             292.00,2526.00 291.00,2526.00 291.00,2526.00 Z
           M 172.00,2528.00
           C 172.00,2528.00 173.00,2529.00 173.00,2529.00
             173.00,2529.00 173.00,2528.00 173.00,2528.00
             173.00,2528.00 172.00,2528.00 172.00,2528.00 Z
           M 171.00,2529.00
           C 171.00,2529.00 172.00,2530.00 172.00,2530.00
             172.00,2530.00 172.00,2529.00 172.00,2529.00
             172.00,2529.00 171.00,2529.00 171.00,2529.00 Z
           M 289.00,2529.00
           C 289.00,2529.00 290.00,2530.00 290.00,2530.00
             290.00,2530.00 290.00,2529.00 290.00,2529.00
             290.00,2529.00 289.00,2529.00 289.00,2529.00 Z
           M 170.00,2530.00
           C 170.00,2530.00 171.00,2531.00 171.00,2531.00
             171.00,2531.00 171.00,2530.00 171.00,2530.00
             171.00,2530.00 170.00,2530.00 170.00,2530.00 Z
           M 288.00,2530.00
           C 288.00,2530.00 289.00,2531.00 289.00,2531.00
             289.00,2531.00 289.00,2530.00 289.00,2530.00
             289.00,2530.00 288.00,2530.00 288.00,2530.00 Z
           M 287.00,2532.00
           C 287.00,2532.00 288.00,2533.00 288.00,2533.00
             288.00,2533.00 288.00,2532.00 288.00,2532.00
             288.00,2532.00 287.00,2532.00 287.00,2532.00 Z
           M 168.00,2533.00
           C 168.00,2533.00 169.00,2534.00 169.00,2534.00
             169.00,2534.00 169.00,2533.00 169.00,2533.00
             169.00,2533.00 168.00,2533.00 168.00,2533.00 Z
           M 286.00,2533.00
           C 286.00,2533.00 287.00,2534.00 287.00,2534.00
             287.00,2534.00 287.00,2533.00 287.00,2533.00
             287.00,2533.00 286.00,2533.00 286.00,2533.00 Z
           M 167.00,2534.00
           C 167.00,2534.00 168.00,2535.00 168.00,2535.00
             168.00,2535.00 168.00,2534.00 168.00,2534.00
             168.00,2534.00 167.00,2534.00 167.00,2534.00 Z
           M 166.00,2535.00
           C 166.00,2535.00 167.00,2536.00 167.00,2536.00
             167.00,2536.00 167.00,2535.00 167.00,2535.00
             167.00,2535.00 166.00,2535.00 166.00,2535.00 Z
           M 165.00,2537.00
           C 165.00,2537.00 166.00,2538.00 166.00,2538.00
             166.00,2538.00 166.00,2537.00 166.00,2537.00
             166.00,2537.00 165.00,2537.00 165.00,2537.00 Z
           M 164.00,2538.00
           C 164.00,2538.00 165.00,2539.00 165.00,2539.00
             165.00,2539.00 165.00,2538.00 165.00,2538.00
             165.00,2538.00 164.00,2538.00 164.00,2538.00 Z
           M 163.00,2539.00
           C 163.00,2539.00 164.00,2540.00 164.00,2540.00
             164.00,2540.00 164.00,2539.00 164.00,2539.00
             164.00,2539.00 163.00,2539.00 163.00,2539.00 Z
           M 162.00,2541.00
           C 162.00,2541.00 163.00,2542.00 163.00,2542.00
             163.00,2542.00 163.00,2541.00 163.00,2541.00
             163.00,2541.00 162.00,2541.00 162.00,2541.00 Z
           M 161.00,2542.00
           C 161.00,2542.00 162.00,2543.00 162.00,2543.00
             162.00,2543.00 162.00,2542.00 162.00,2542.00
             162.00,2542.00 161.00,2542.00 161.00,2542.00 Z
           M 160.00,2543.00
           C 160.00,2543.00 161.00,2544.00 161.00,2544.00
             161.00,2544.00 161.00,2543.00 161.00,2543.00
             161.00,2543.00 160.00,2543.00 160.00,2543.00 Z
           M 159.00,2544.00
           C 159.00,2544.00 160.00,2545.00 160.00,2545.00
             160.00,2545.00 160.00,2544.00 160.00,2544.00
             160.00,2544.00 159.00,2544.00 159.00,2544.00 Z
           M 286.00,2545.00
           C 286.00,2545.00 287.00,2546.00 287.00,2546.00
             287.00,2546.00 287.00,2545.00 287.00,2545.00
             287.00,2545.00 286.00,2545.00 286.00,2545.00 Z
           M 159.00,2555.00
           C 159.00,2555.00 159.00,2546.00 159.00,2546.00
             157.69,2549.30 157.69,2551.70 159.00,2555.00 Z
           M 288.00,2546.00
           C 288.00,2546.00 289.00,2547.00 289.00,2547.00
             289.00,2547.00 289.00,2546.00 289.00,2546.00
             289.00,2546.00 288.00,2546.00 288.00,2546.00 Z
           M 289.00,2547.00
           C 289.00,2547.00 290.00,2548.00 290.00,2548.00
             290.00,2548.00 290.00,2547.00 290.00,2547.00
             290.00,2547.00 289.00,2547.00 289.00,2547.00 Z
           M 290.00,2549.00
           C 290.00,2549.00 291.00,2550.00 291.00,2550.00
             291.00,2550.00 291.00,2549.00 291.00,2549.00
             291.00,2549.00 290.00,2549.00 290.00,2549.00 Z
           M 296.00,2570.00
           C 296.00,2570.00 297.00,2571.00 297.00,2571.00
             297.00,2571.00 297.00,2570.00 297.00,2570.00
             297.00,2570.00 296.00,2570.00 296.00,2570.00 Z
           M 298.00,2573.00
           C 298.00,2573.00 299.00,2574.00 299.00,2574.00
             299.00,2574.00 299.00,2573.00 299.00,2573.00
             299.00,2573.00 298.00,2573.00 298.00,2573.00 Z
           M 299.00,2575.00
           C 299.00,2575.00 300.00,2576.00 300.00,2576.00
             300.00,2576.00 300.00,2575.00 300.00,2575.00
             300.00,2575.00 299.00,2575.00 299.00,2575.00 Z
           M 301.00,2578.00
           C 301.00,2578.00 302.00,2579.00 302.00,2579.00
             302.00,2579.00 302.00,2578.00 302.00,2578.00
             302.00,2578.00 301.00,2578.00 301.00,2578.00 Z
           M 152.00,2579.00
           C 152.00,2579.00 153.00,2580.00 153.00,2580.00
             153.00,2580.00 153.00,2579.00 153.00,2579.00
             153.00,2579.00 152.00,2579.00 152.00,2579.00 Z
           M 302.00,2580.00
           C 302.00,2580.00 303.00,2581.00 303.00,2581.00
             303.00,2581.00 303.00,2580.00 303.00,2580.00
             303.00,2580.00 302.00,2580.00 302.00,2580.00 Z
           M 286.00,2583.00
           C 286.00,2583.00 298.00,2582.00 298.00,2582.00
             298.00,2582.00 286.00,2583.00 286.00,2583.00 Z
           M 150.00,2584.00
           C 150.00,2584.00 151.00,2585.00 151.00,2585.00
             151.00,2585.00 151.00,2584.00 151.00,2584.00
             151.00,2584.00 150.00,2584.00 150.00,2584.00 Z
           M 280.00,2584.00
           C 280.00,2584.00 281.00,2585.00 281.00,2585.00
             281.00,2585.00 281.00,2584.00 281.00,2584.00
             281.00,2584.00 280.00,2584.00 280.00,2584.00 Z
           M 279.00,2585.00
           C 279.00,2585.00 280.00,2586.00 280.00,2586.00
             280.00,2586.00 280.00,2585.00 280.00,2585.00
             280.00,2585.00 279.00,2585.00 279.00,2585.00 Z
           M 278.00,2586.00
           C 278.00,2586.00 279.00,2587.00 279.00,2587.00
             279.00,2587.00 279.00,2586.00 279.00,2586.00
             279.00,2586.00 278.00,2586.00 278.00,2586.00 Z
           M 277.00,2587.00
           C 277.00,2587.00 278.00,2588.00 278.00,2588.00
             278.00,2588.00 278.00,2587.00 278.00,2587.00
             278.00,2587.00 277.00,2587.00 277.00,2587.00 Z
           M 148.00,2589.00
           C 148.00,2589.00 149.00,2590.00 149.00,2590.00
             149.00,2590.00 149.00,2589.00 149.00,2589.00
             149.00,2589.00 148.00,2589.00 148.00,2589.00 Z
           M 276.00,2589.00
           C 276.00,2589.00 277.00,2590.00 277.00,2590.00
             277.00,2590.00 277.00,2589.00 277.00,2589.00
             277.00,2589.00 276.00,2589.00 276.00,2589.00 Z
           M 275.00,2590.00
           C 275.00,2590.00 276.00,2591.00 276.00,2591.00
             276.00,2591.00 276.00,2590.00 276.00,2590.00
             276.00,2590.00 275.00,2590.00 275.00,2590.00 Z
           M 274.00,2592.00
           C 274.00,2592.00 275.00,2593.00 275.00,2593.00
             275.00,2593.00 275.00,2592.00 275.00,2592.00
             275.00,2592.00 274.00,2592.00 274.00,2592.00 Z
           M 146.00,2594.00
           C 146.00,2594.00 147.00,2595.00 147.00,2595.00
             147.00,2595.00 147.00,2594.00 147.00,2594.00
             147.00,2594.00 146.00,2594.00 146.00,2594.00 Z
           M 272.00,2595.00
           C 272.00,2595.00 273.00,2596.00 273.00,2596.00
             273.00,2596.00 273.00,2595.00 273.00,2595.00
             273.00,2595.00 272.00,2595.00 272.00,2595.00 Z
           M 271.00,2596.00
           C 271.00,2596.00 272.00,2597.00 272.00,2597.00
             272.00,2597.00 272.00,2596.00 272.00,2596.00
             272.00,2596.00 271.00,2596.00 271.00,2596.00 Z
           M 270.00,2597.00
           C 270.00,2597.00 271.00,2598.00 271.00,2598.00
             271.00,2598.00 271.00,2597.00 271.00,2597.00
             271.00,2597.00 270.00,2597.00 270.00,2597.00 Z
           M 268.00,2598.00
           C 268.00,2598.00 269.00,2599.00 269.00,2599.00
             269.00,2599.00 269.00,2598.00 269.00,2598.00
             269.00,2598.00 268.00,2598.00 268.00,2598.00 Z
           M 144.00,2599.00
           C 144.00,2599.00 145.00,2600.00 145.00,2600.00
             145.00,2600.00 145.00,2599.00 145.00,2599.00
             145.00,2599.00 144.00,2599.00 144.00,2599.00 Z
           M 264.00,2600.00
           C 264.00,2600.00 265.00,2601.00 265.00,2601.00
             265.00,2601.00 265.00,2600.00 265.00,2600.00
             265.00,2600.00 264.00,2600.00 264.00,2600.00 Z
           M 258.00,2603.00
           C 258.00,2603.00 259.00,2604.00 259.00,2604.00
             259.00,2604.00 259.00,2603.00 259.00,2603.00
             259.00,2603.00 258.00,2603.00 258.00,2603.00 Z
           M 142.00,2604.00
           C 142.00,2604.00 143.00,2605.00 143.00,2605.00
             143.00,2605.00 143.00,2604.00 143.00,2604.00
             143.00,2604.00 142.00,2604.00 142.00,2604.00 Z
           M 257.00,2604.00
           C 257.00,2604.00 258.00,2605.00 258.00,2605.00
             258.00,2605.00 258.00,2604.00 258.00,2604.00
             258.00,2604.00 257.00,2604.00 257.00,2604.00 Z
           M 256.00,2605.00
           C 256.00,2605.00 257.00,2606.00 257.00,2606.00
             257.00,2606.00 257.00,2605.00 257.00,2605.00
             257.00,2605.00 256.00,2605.00 256.00,2605.00 Z
           M 141.00,2606.00
           C 141.00,2606.00 142.00,2607.00 142.00,2607.00
             142.00,2607.00 142.00,2606.00 142.00,2606.00
             142.00,2606.00 141.00,2606.00 141.00,2606.00 Z
           M 255.00,2606.00
           C 255.00,2606.00 256.00,2607.00 256.00,2607.00
             256.00,2607.00 256.00,2606.00 256.00,2606.00
             256.00,2606.00 255.00,2606.00 255.00,2606.00 Z
           M 137.00,2608.00
           C 137.00,2608.00 138.00,2609.00 138.00,2609.00
             138.00,2609.00 138.00,2608.00 138.00,2608.00
             138.00,2608.00 137.00,2608.00 137.00,2608.00 Z
           M 254.00,2608.00
           C 254.00,2608.00 255.00,2609.00 255.00,2609.00
             255.00,2609.00 255.00,2608.00 255.00,2608.00
             255.00,2608.00 254.00,2608.00 254.00,2608.00 Z
           M 136.00,2609.00
           C 136.00,2609.00 137.00,2610.00 137.00,2610.00
             137.00,2610.00 137.00,2609.00 137.00,2609.00
             137.00,2609.00 136.00,2609.00 136.00,2609.00 Z
           M 135.00,2610.00
           C 135.00,2610.00 136.00,2611.00 136.00,2611.00
             136.00,2611.00 136.00,2610.00 136.00,2610.00
             136.00,2610.00 135.00,2610.00 135.00,2610.00 Z
           M 134.00,2611.00
           C 134.00,2611.00 135.00,2612.00 135.00,2612.00
             135.00,2612.00 135.00,2611.00 135.00,2611.00
             135.00,2611.00 134.00,2611.00 134.00,2611.00 Z
           M 133.00,2613.00
           C 133.00,2613.00 134.00,2614.00 134.00,2614.00
             134.00,2614.00 134.00,2613.00 134.00,2613.00
             134.00,2613.00 133.00,2613.00 133.00,2613.00 Z
           M 252.00,2613.00
           C 252.00,2613.00 253.00,2614.00 253.00,2614.00
             253.00,2614.00 253.00,2613.00 253.00,2613.00
             253.00,2613.00 252.00,2613.00 252.00,2613.00 Z
           M 250.00,2614.00
           C 250.00,2614.00 251.00,2615.00 251.00,2615.00
             251.00,2615.00 251.00,2614.00 251.00,2614.00
             251.00,2614.00 250.00,2614.00 250.00,2614.00 Z
           M 133.00,2621.00
           C 133.00,2621.00 133.00,2615.00 133.00,2615.00
             133.00,2615.00 133.00,2621.00 133.00,2621.00 Z
           M 249.00,2615.00
           C 249.00,2615.00 250.00,2616.00 250.00,2616.00
             250.00,2616.00 250.00,2615.00 250.00,2615.00
             250.00,2615.00 249.00,2615.00 249.00,2615.00 Z
           M 248.00,2616.00
           C 248.00,2616.00 249.00,2617.00 249.00,2617.00
             249.00,2617.00 249.00,2616.00 249.00,2616.00
             249.00,2616.00 248.00,2616.00 248.00,2616.00 Z
           M 246.00,2619.00
           C 246.00,2619.00 247.00,2620.00 247.00,2620.00
             247.00,2620.00 247.00,2619.00 247.00,2619.00
             247.00,2619.00 246.00,2619.00 246.00,2619.00 Z
           M 131.00,2622.00
           C 131.00,2622.00 132.00,2623.00 132.00,2623.00
             132.00,2623.00 132.00,2622.00 132.00,2622.00
             132.00,2622.00 131.00,2622.00 131.00,2622.00 Z
           M 125.00,2624.00
           C 125.00,2624.00 126.00,2625.00 126.00,2625.00
             126.00,2625.00 126.00,2624.00 126.00,2624.00
             126.00,2624.00 125.00,2624.00 125.00,2624.00 Z
           M 244.00,2632.00
           C 244.00,2632.00 244.00,2625.00 244.00,2625.00
             244.00,2625.00 244.00,2632.00 244.00,2632.00 Z
           M 122.00,2630.00
           C 122.00,2630.00 123.00,2631.00 123.00,2631.00
             123.00,2631.00 123.00,2630.00 123.00,2630.00
             123.00,2630.00 122.00,2630.00 122.00,2630.00 Z
           M 148.00,2632.00
           C 148.00,2632.00 149.00,2633.00 149.00,2633.00
             149.00,2633.00 149.00,2632.00 149.00,2632.00
             149.00,2632.00 148.00,2632.00 148.00,2632.00 Z
           M 120.00,2633.00
           C 120.00,2633.00 121.00,2634.00 121.00,2634.00
             121.00,2634.00 121.00,2633.00 121.00,2633.00
             121.00,2633.00 120.00,2633.00 120.00,2633.00 Z
           M 150.00,2638.00
           C 150.00,2638.00 150.00,2633.00 150.00,2633.00
             150.00,2633.00 150.00,2638.00 150.00,2638.00 Z
           M 118.00,2634.00
           C 118.00,2634.00 119.00,2635.00 119.00,2635.00
             119.00,2635.00 119.00,2634.00 119.00,2634.00
             119.00,2634.00 118.00,2634.00 118.00,2634.00 Z
           M 120.00,2637.00
           C 120.00,2637.00 130.00,2636.00 130.00,2636.00
             130.00,2636.00 120.00,2637.00 120.00,2637.00 Z
           M 244.00,2639.00
           C 244.00,2639.00 245.00,2640.00 245.00,2640.00
             245.00,2640.00 245.00,2639.00 245.00,2639.00
             245.00,2639.00 244.00,2639.00 244.00,2639.00 Z
           M 155.00,2640.00
           C 155.00,2640.00 156.00,2641.00 156.00,2641.00
             156.00,2641.00 156.00,2640.00 156.00,2640.00
             156.00,2640.00 155.00,2640.00 155.00,2640.00 Z
           M 156.00,2641.00
           C 156.00,2641.00 157.00,2642.00 157.00,2642.00
             157.00,2642.00 157.00,2641.00 157.00,2641.00
             157.00,2641.00 156.00,2641.00 156.00,2641.00 Z
           M 243.00,2641.00
           C 243.00,2641.00 244.00,2642.00 244.00,2642.00
             244.00,2642.00 244.00,2641.00 244.00,2641.00
             244.00,2641.00 243.00,2641.00 243.00,2641.00 Z
           M 157.00,2642.00
           C 157.00,2642.00 158.00,2643.00 158.00,2643.00
             158.00,2643.00 158.00,2642.00 158.00,2642.00
             158.00,2642.00 157.00,2642.00 157.00,2642.00 Z
           M 159.00,2643.00
           C 159.00,2643.00 160.00,2644.00 160.00,2644.00
             160.00,2644.00 160.00,2643.00 160.00,2643.00
             160.00,2643.00 159.00,2643.00 159.00,2643.00 Z
           M 169.00,2647.00
           C 169.00,2647.00 170.00,2648.00 170.00,2648.00
             170.00,2648.00 170.00,2647.00 170.00,2647.00
             170.00,2647.00 169.00,2647.00 169.00,2647.00 Z
           M 171.00,2648.00
           C 171.00,2648.00 172.00,2649.00 172.00,2649.00
             172.00,2649.00 172.00,2648.00 172.00,2648.00
             172.00,2648.00 171.00,2648.00 171.00,2648.00 Z
           M 173.00,2649.00
           C 173.00,2649.00 174.00,2650.00 174.00,2650.00
             174.00,2650.00 174.00,2649.00 174.00,2649.00
             174.00,2649.00 173.00,2649.00 173.00,2649.00 Z
           M 175.00,2650.00
           C 175.00,2650.00 176.00,2651.00 176.00,2651.00
             176.00,2651.00 176.00,2650.00 176.00,2650.00
             176.00,2650.00 175.00,2650.00 175.00,2650.00 Z
           M 178.00,2652.00
           C 178.00,2652.00 179.00,2653.00 179.00,2653.00
             179.00,2653.00 179.00,2652.00 179.00,2652.00
             179.00,2652.00 178.00,2652.00 178.00,2652.00 Z
           M 179.00,2653.00
           C 179.00,2653.00 180.00,2654.00 180.00,2654.00
             180.00,2654.00 180.00,2653.00 180.00,2653.00
             180.00,2653.00 179.00,2653.00 179.00,2653.00 Z
           M 180.00,2654.00
           C 180.00,2654.00 181.00,2655.00 181.00,2655.00
             181.00,2655.00 181.00,2654.00 181.00,2654.00
             181.00,2654.00 180.00,2654.00 180.00,2654.00 Z
           M 182.00,2655.00
           C 182.00,2655.00 183.00,2656.00 183.00,2656.00
             183.00,2656.00 183.00,2655.00 183.00,2655.00
             183.00,2655.00 182.00,2655.00 182.00,2655.00 Z
           M 183.00,2656.00
           C 183.00,2656.00 184.00,2657.00 184.00,2657.00
             184.00,2657.00 184.00,2656.00 184.00,2656.00
             184.00,2656.00 183.00,2656.00 183.00,2656.00 Z
           M 184.00,2657.00
           C 184.00,2657.00 185.00,2658.00 185.00,2658.00
             185.00,2658.00 185.00,2657.00 185.00,2657.00
             185.00,2657.00 184.00,2657.00 184.00,2657.00 Z
           M 185.00,2658.00
           C 185.00,2658.00 186.00,2659.00 186.00,2659.00
             186.00,2659.00 186.00,2658.00 186.00,2658.00
             186.00,2658.00 185.00,2658.00 185.00,2658.00 Z
           M 186.00,2659.00
           C 186.00,2659.00 187.00,2660.00 187.00,2660.00
             187.00,2660.00 187.00,2659.00 187.00,2659.00
             187.00,2659.00 186.00,2659.00 186.00,2659.00 Z
           M 230.00,2661.00
           C 230.00,2661.00 238.00,2660.00 238.00,2660.00
             238.00,2660.00 230.00,2661.00 230.00,2661.00 Z
           M 187.00,2661.00
           C 187.00,2661.00 188.00,2662.00 188.00,2662.00
             188.00,2662.00 188.00,2661.00 188.00,2661.00
             188.00,2661.00 187.00,2661.00 187.00,2661.00 Z
           M 188.00,2662.00
           C 188.00,2662.00 189.00,2663.00 189.00,2663.00
             189.00,2663.00 189.00,2662.00 189.00,2662.00
             189.00,2662.00 188.00,2662.00 188.00,2662.00 Z
           M 189.00,2663.00
           C 189.00,2663.00 190.00,2664.00 190.00,2664.00
             190.00,2664.00 190.00,2663.00 190.00,2663.00
             190.00,2663.00 189.00,2663.00 189.00,2663.00 Z
           M 210.00,2665.00
           C 210.00,2665.00 216.00,2664.00 216.00,2664.00
             216.00,2664.00 210.00,2665.00 210.00,2665.00 Z
           M 196.00,2666.00
           C 196.00,2666.00 205.00,2665.00 205.00,2665.00
             205.00,2665.00 196.00,2666.00 196.00,2666.00 Z" />
</svg>
