<?xml version="1.0" encoding="UTF-8" standalone="no"?>
<!DOCTYPE svg PUBLIC "-//W3C//DTD SVG 20010904//EN"
              "http://www.w3.org/TR/2001/REC-SVG-20010904/DTD/svg10.dtd">

<svg xmlns="http://www.w3.org/2000/svg"
     width="5.55486in" height="6.94358in"
     viewBox="0 0 400 500">
  <path id="Selection"
        fill="red" stroke="black" stroke-width="1"
        d="M 177.10,139.37
           C 177.10,139.37 180.87,134.79 180.87,134.79
             183.37,130.92 188.11,115.84 189.02,111.00
             189.02,111.00 189.02,105.00 189.02,105.00
             189.02,105.00 190.86,98.00 190.86,98.00
             191.23,93.12 188.72,90.66 189.15,86.00
             189.83,78.63 194.93,79.32 195.00,68.00
             195.00,68.00 195.00,58.00 195.00,58.00
             195.15,50.30 199.28,47.99 206.00,45.06
             215.00,41.26 230.41,39.89 239.00,45.06
             233.15,52.91 230.56,51.86 231.02,63.00
             231.11,65.22 231.21,67.64 233.31,68.96
             236.08,70.71 240.86,68.56 244.00,68.18
             254.09,66.98 256.87,69.27 265.00,70.00
             265.78,80.62 274.77,80.23 283.00,82.45
             285.43,83.11 288.56,84.94 291.00,84.37
             295.19,83.38 297.28,77.73 302.00,78.36
             306.66,78.98 310.84,84.56 313.21,85.40
             315.93,86.36 318.54,85.04 321.00,84.00
             321.00,84.00 321.00,88.00 321.00,88.00
             321.00,88.00 331.00,88.00 331.00,88.00
             330.99,90.54 331.16,93.15 330.28,95.58
             328.99,99.11 325.72,102.87 326.91,106.91
             329.24,114.83 346.89,113.27 341.19,123.96
             336.47,132.79 323.22,137.41 314.00,139.55
             304.60,141.73 297.67,139.96 297.00,152.00
             293.43,152.00 287.65,151.33 285.90,155.34
             283.88,159.96 289.58,163.64 288.75,169.83
             288.75,169.83 278.49,197.96 278.49,197.96
             277.65,200.35 275.63,203.09 275.42,205.09
             275.21,207.15 276.38,210.00 277.00,211.94
             274.73,211.92 271.06,211.55 269.00,211.94
             262.95,212.81 256.28,218.19 257.32,224.91
             258.02,229.43 264.04,233.13 262.65,238.00
             262.05,240.12 259.52,242.57 258.19,244.42
             255.79,247.76 254.39,252.57 250.81,254.69
             241.68,260.09 222.95,249.03 213.00,248.00
             213.00,248.00 213.76,260.00 213.76,260.00
             213.76,260.00 220.12,272.91 220.12,272.91
             220.12,272.91 219.06,280.04 219.06,280.04
             219.06,280.04 219.06,290.00 219.06,290.00
             219.06,290.00 221.00,311.00 221.00,311.00
             226.74,311.00 230.64,309.88 233.00,316.00
             225.86,317.55 223.26,318.42 223.00,326.00
             215.98,327.33 216.50,328.85 211.00,331.18
             208.59,332.20 206.81,332.10 205.00,334.31
             205.00,334.31 199.26,344.73 199.26,344.73
             195.29,350.32 192.35,352.91 191.00,360.00
             200.46,362.87 198.10,372.72 201.41,380.99
             201.41,380.99 207.00,390.00 207.00,390.00
             197.96,393.82 193.36,390.62 189.19,393.02
             185.21,395.31 184.91,400.64 179.91,404.11
             174.55,407.83 168.56,406.39 167.00,416.00
             161.09,419.08 156.64,428.08 161.00,434.00
             161.00,434.00 161.00,436.00 161.00,436.00
             157.74,440.01 155.93,448.80 155.00,454.00
             141.60,454.04 142.71,458.04 124.00,458.00
             112.47,457.98 116.60,455.61 107.91,448.80
             100.22,442.78 94.48,442.42 91.09,440.55
             87.12,438.37 88.04,436.61 83.00,436.00
             83.00,436.00 83.00,432.00 83.00,432.00
             76.05,433.48 63.68,436.65 57.00,434.00
             60.96,431.01 62.69,428.83 64.00,424.00
             71.83,424.14 68.37,420.79 70.14,416.17
             71.36,412.97 73.90,411.01 77.00,410.00
             77.00,410.00 86.58,386.00 86.58,386.00
             86.58,386.00 90.69,370.91 90.69,370.91
             90.69,370.91 90.19,362.18 90.19,362.18
             90.19,362.18 102.02,346.91 102.02,346.91
             102.02,346.91 106.00,330.00 106.00,330.00
             106.00,330.00 115.00,332.00 115.00,332.00
             115.00,332.00 115.00,326.00 115.00,326.00
             115.00,326.00 111.00,326.00 111.00,326.00
             111.00,326.00 115.00,313.00 115.00,313.00
             108.20,313.64 108.01,314.83 103.00,319.00
             103.00,319.00 103.00,314.00 103.00,314.00
             92.31,314.13 89.78,319.29 85.29,317.24
             81.79,315.64 83.00,303.62 83.00,300.00
             87.59,302.86 86.72,306.23 90.13,307.12
             93.45,307.98 96.52,304.29 99.00,302.56
             102.11,300.40 103.36,300.26 107.00,300.00
             107.83,293.26 107.68,291.65 106.00,285.00
             109.90,281.95 111.57,280.91 113.00,276.00
             107.09,276.42 99.58,280.48 95.91,285.21
             94.11,287.53 93.14,291.49 90.70,292.98
             85.72,296.04 74.48,290.76 71.00,287.00
             71.00,287.00 76.85,276.81 76.85,276.81
             76.85,276.81 82.40,270.79 82.40,270.79
             82.40,270.79 84.51,261.32 84.51,261.32
             84.51,261.32 95.98,249.74 95.98,249.74
             95.98,249.74 98.00,240.00 98.00,240.00
             109.76,244.67 106.19,233.79 119.00,232.00
             120.04,222.30 123.98,223.37 128.43,217.82
             130.98,214.65 130.62,212.48 131.97,210.55
             133.32,208.62 135.60,207.85 137.11,206.16
             139.01,204.05 138.76,202.17 140.00,200.25
             142.31,196.71 144.16,197.82 147.00,192.00
             147.00,192.00 151.00,192.00 151.00,192.00
             151.00,192.00 149.71,180.91 149.71,180.91
             150.63,177.64 155.43,174.28 157.80,171.00
             161.24,166.24 165.64,155.71 167.00,150.00
             174.75,147.74 173.41,144.70 177.10,139.37 Z
           M 202.00,106.00
           C 202.00,106.00 206.00,109.00 206.00,109.00
             206.00,109.00 207.00,105.00 207.00,105.00
             207.00,105.00 202.00,106.00 202.00,106.00 Z
           M 313.00,106.00
           C 313.00,106.00 317.00,115.00 317.00,115.00
             317.00,115.00 317.00,105.00 317.00,105.00
             317.00,105.00 313.00,106.00 313.00,106.00 Z
           M 272.00,113.00
           C 272.00,113.00 275.00,117.00 275.00,117.00
             275.00,117.00 275.00,113.00 275.00,113.00
             275.00,113.00 272.00,113.00 272.00,113.00 Z
           M 313.00,127.00
           C 313.00,127.00 320.00,126.00 320.00,126.00
             316.50,123.66 317.05,121.95 317.00,118.00
             317.00,118.00 313.00,127.00 313.00,127.00 Z" />
</svg>
