<?xml version="1.0" encoding="UTF-8" standalone="no"?>
<!DOCTYPE svg PUBLIC "-//W3C//DTD SVG 20010904//EN"
              "http://www.w3.org/TR/2001/REC-SVG-20010904/DTD/svg10.dtd">

<svg xmlns="http://www.w3.org/2000/svg"
     width="43.6334in" height="36.3288in"
     viewBox="0 0 3142 2616">
  <path id="Auvergne"
        fill="Cyan" stroke="black" stroke-width="1"
        d="M 1009.00,1503.15
           C 1012.79,1501.92 1017.55,1498.46 1021.61,1501.02
             1024.92,1503.11 1026.34,1511.29 1034.00,1513.49
             1039.45,1515.05 1042.37,1511.30 1049.00,1512.33
             1058.01,1513.73 1059.16,1520.45 1064.04,1526.96
             1067.08,1531.01 1069.92,1531.48 1069.97,1537.02
             1070.05,1546.25 1063.97,1545.79 1060.22,1555.00
             1058.26,1559.83 1059.73,1562.75 1058.01,1565.41
             1056.25,1568.12 1051.34,1569.84 1050.23,1576.00
             1047.94,1588.58 1055.76,1603.17 1056.72,1611.00
             1057.53,1617.58 1051.53,1619.88 1054.54,1623.44
             1056.06,1625.24 1059.81,1625.66 1062.00,1626.09
             1068.09,1627.29 1069.60,1629.24 1076.00,1628.00
             1076.00,1628.00 1086.00,1642.00 1086.00,1642.00
             1079.31,1647.23 1081.14,1647.68 1078.32,1650.44
             1078.32,1650.44 1067.00,1657.38 1067.00,1657.38
             1060.89,1661.07 1054.33,1661.50 1049.39,1667.17
             1043.78,1673.61 1044.46,1678.49 1044.89,1686.00
             1044.87,1689.13 1044.14,1690.65 1044.89,1694.00
             1044.89,1694.00 1047.80,1701.00 1047.80,1701.00
             1049.22,1704.70 1050.27,1707.90 1053.21,1710.78
             1061.73,1719.14 1074.59,1714.36 1079.85,1716.74
             1083.66,1718.46 1082.75,1722.61 1083.53,1726.00
             1085.45,1734.42 1089.60,1735.59 1091.00,1744.00
             1087.23,1744.77 1086.37,1745.35 1083.00,1747.04
             1072.55,1752.27 1076.21,1752.97 1070.62,1758.63
             1070.62,1758.63 1061.28,1766.29 1061.28,1766.29
             1058.45,1769.08 1054.10,1774.38 1050.58,1776.11
             1043.10,1779.80 1036.57,1770.47 1031.00,1781.00
             1031.00,1781.00 1024.00,1783.00 1024.00,1783.00
             1022.20,1776.53 1022.04,1775.18 1015.00,1774.00
             1017.68,1779.77 1018.87,1784.42 1013.15,1788.61
             1011.79,1789.60 1010.52,1790.42 1008.83,1790.71
             1005.66,1791.25 1002.96,1789.45 998.00,1791.35
             993.98,1792.88 985.71,1799.99 982.00,1803.00
             976.48,1800.42 976.26,1804.59 974.85,1808.82
             972.57,1815.62 971.01,1810.35 971.00,1823.00
             971.00,1823.00 965.00,1823.00 965.00,1823.00
             965.00,1823.00 969.40,1833.00 969.40,1833.00
             969.40,1833.00 967.13,1845.00 967.13,1845.00
             967.13,1845.00 967.13,1853.00 967.13,1853.00
             967.13,1853.00 958.00,1854.87 958.00,1854.87
             955.31,1855.17 951.45,1854.68 949.04,1855.60
             945.28,1857.02 943.73,1861.10 940.07,1860.26
             938.17,1859.82 934.21,1855.67 931.99,1854.17
             924.19,1848.92 917.92,1847.23 909.00,1851.00
             909.00,1851.00 896.00,1841.00 896.00,1841.00
             897.53,1832.28 894.54,1827.26 886.00,1823.99
             882.79,1822.76 880.20,1823.24 878.60,1821.98
             876.43,1820.27 877.53,1816.99 874.69,1815.19
             872.00,1813.49 868.58,1815.08 866.13,1814.60
             862.11,1813.82 861.86,1809.49 857.87,1806.72
             857.87,1806.72 849.00,1802.95 849.00,1802.95
             845.09,1800.98 839.28,1797.02 835.00,1796.26
             827.64,1794.96 827.05,1801.71 827.00,1807.00
             819.56,1805.01 819.23,1802.10 810.02,1802.27
             802.64,1802.40 806.31,1798.47 797.00,1798.02
             797.00,1798.02 786.00,1798.02 786.00,1798.02
             785.11,1787.96 777.38,1787.25 770.00,1784.00
             775.74,1778.84 773.45,1776.69 777.41,1772.59
             777.41,1772.59 787.21,1763.04 787.21,1763.04
             792.82,1758.38 800.79,1754.74 801.85,1746.42
             802.28,1743.10 799.49,1741.14 799.23,1737.00
             799.23,1737.00 799.75,1730.05 799.75,1730.05
             798.98,1726.10 793.31,1724.41 790.00,1723.00
             790.00,1723.00 796.23,1709.00 796.23,1709.00
             797.03,1706.96 798.15,1704.13 800.22,1702.88
             804.15,1701.09 812.16,1708.66 817.28,1702.88
             818.34,1701.45 818.50,1700.43 819.00,1699.00
             822.79,1699.50 827.21,1700.45 831.00,1699.73
             834.74,1699.01 837.15,1696.70 840.00,1696.69
             843.82,1696.68 846.18,1700.49 851.00,1699.53
             853.52,1699.03 855.86,1697.14 858.00,1695.79
             866.83,1690.22 869.06,1689.22 870.00,1678.00
             875.46,1677.11 877.83,1674.45 879.06,1669.00
             879.66,1666.33 879.05,1664.05 881.44,1662.08
             883.06,1660.75 886.86,1659.87 889.00,1658.73
             892.30,1656.96 894.07,1654.69 897.00,1652.64
             900.54,1650.17 903.65,1649.68 906.57,1645.95
             907.57,1644.67 908.14,1643.56 908.57,1642.00
             908.57,1642.00 909.89,1622.00 909.89,1622.00
             909.30,1615.93 905.29,1614.30 905.14,1608.00
             904.94,1599.91 913.26,1597.84 909.99,1591.09
             909.99,1591.09 906.13,1585.83 906.13,1585.83
             904.33,1582.83 903.29,1577.03 897.96,1573.98
             892.14,1570.66 884.19,1573.68 882.24,1565.98
             880.51,1559.16 884.57,1552.26 889.46,1547.63
             891.71,1545.49 895.23,1544.32 896.05,1540.96
             897.15,1536.48 890.37,1529.88 894.60,1524.33
             897.45,1520.58 903.82,1519.09 908.00,1517.21
             910.09,1516.27 912.65,1514.70 915.00,1514.95
             918.48,1515.31 921.40,1519.28 926.00,1519.72
             929.84,1520.10 932.00,1517.82 935.00,1517.82
             938.40,1517.82 940.75,1520.67 947.00,1519.86
             951.16,1519.32 953.13,1517.00 956.91,1517.18
             960.18,1517.33 962.16,1519.70 965.01,1520.92
             967.10,1521.81 977.77,1522.77 980.00,1522.41
             982.87,1521.94 985.22,1519.81 988.00,1518.68
             991.98,1517.06 999.99,1516.12 1000.89,1510.96
             1001.14,1509.50 1000.33,1506.53 1000.00,1505.00
             1000.00,1505.00 1009.00,1503.15 1009.00,1503.15 Z" />
</svg>
