<?xml version="1.0" encoding="UTF-8" standalone="no"?>
<!DOCTYPE svg PUBLIC "-//W3C//DTD SVG 20010904//EN"
              "http://www.w3.org/TR/2001/REC-SVG-20010904/DTD/svg10.dtd">

<svg xmlns="http://www.w3.org/2000/svg"
     width="6.94358in" height="6.94358in"
     viewBox="0 0 500 500">
  <path id="Selection"
        fill="cyan" stroke="black" stroke-width="1"
        d="M 329.00,73.20
           C 332.81,72.06 337.64,68.52 341.61,71.02
             344.92,73.10 346.34,81.29 354.00,83.49
             359.45,85.05 362.37,81.30 369.00,82.33
             378.63,83.82 379.20,91.19 384.60,97.90
             386.72,100.53 389.31,101.58 389.87,105.10
             391.23,113.71 385.56,115.69 381.76,122.00
             378.77,126.99 378.66,130.43 379.00,136.00
             360.69,145.86 374.68,166.32 376.58,181.00
             377.40,187.32 371.18,189.66 374.53,193.44
             376.14,195.26 379.74,195.65 382.00,196.09
             388.09,197.29 389.60,199.24 396.00,198.00
             396.00,198.00 406.00,212.00 406.00,212.00
             399.51,217.07 401.21,217.52 398.32,220.31
             398.32,220.31 387.00,227.38 387.00,227.38
             380.60,231.24 374.71,231.12 369.39,237.17
             363.39,244.00 364.58,248.24 364.71,256.00
             364.70,258.73 364.11,260.02 364.71,263.00
             364.71,263.00 367.80,271.00 367.80,271.00
             369.24,274.75 370.25,277.84 373.21,280.79
             381.77,289.32 394.38,284.26 399.85,286.74
             403.67,288.47 402.50,292.65 403.31,296.00
             405.18,303.74 409.62,305.71 411.00,314.00
             406.27,314.96 398.66,318.35 395.53,322.06
             395.53,322.06 391.39,327.73 391.39,327.73
             391.39,327.73 383.61,333.82 383.61,333.82
             379.46,337.74 376.08,342.63 371.00,345.49
             362.86,350.08 356.58,340.45 351.00,351.00
             351.00,351.00 344.00,353.00 344.00,353.00
             341.92,345.54 342.00,346.17 335.00,343.00
             337.04,349.30 339.33,354.07 333.15,358.61
             331.79,359.60 330.52,360.42 328.83,360.71
             325.66,361.25 322.96,359.45 318.00,361.35
             313.98,362.88 305.71,369.99 302.00,373.00
             296.48,370.42 296.26,374.59 294.85,378.82
             292.57,385.62 291.01,380.35 291.00,393.00
             291.00,393.00 285.00,393.00 285.00,393.00
             285.00,393.00 289.40,403.00 289.40,403.00
             289.40,403.00 287.13,415.00 287.13,415.00
             287.13,415.00 287.13,423.00 287.13,423.00
             287.13,423.00 278.00,424.87 278.00,424.87
             275.31,425.17 271.45,424.68 269.04,425.60
             265.28,427.02 263.73,431.10 260.07,430.26
             258.17,429.82 254.21,425.67 251.99,424.17
             244.19,418.92 237.92,417.23 229.00,421.00
             229.00,421.00 216.00,411.00 216.00,411.00
             217.53,402.28 214.54,397.26 206.00,393.99
             202.79,392.76 200.20,393.24 198.60,391.98
             196.43,390.27 197.53,386.99 194.69,385.19
             192.00,383.49 188.58,385.08 186.13,384.60
             182.11,383.82 181.86,379.49 177.87,376.72
             177.87,376.72 169.00,372.95 169.00,372.95
             165.09,370.98 159.28,367.02 155.00,366.26
             147.64,364.96 147.05,371.71 147.00,377.00
             139.56,375.01 139.23,372.10 130.02,372.27
             122.64,372.40 126.31,368.47 117.00,368.02
             117.00,368.02 106.00,368.02 106.00,368.02
             105.11,357.96 97.38,357.25 90.00,354.00
             95.74,348.84 93.45,346.69 97.41,342.59
             97.41,342.59 108.04,332.52 108.04,332.52
             113.53,327.99 120.16,324.79 121.73,317.00
             122.79,311.76 118.75,313.63 119.78,303.00
             120.43,296.20 115.29,295.25 110.00,293.00
             110.00,293.00 116.31,279.00 116.31,279.00
             117.11,277.10 118.37,274.07 120.27,272.88
             124.10,271.09 132.16,278.66 137.28,272.88
             138.34,271.45 138.50,270.43 139.00,269.00
             142.79,269.50 147.21,270.45 151.00,269.73
             154.74,269.01 157.15,266.70 160.00,266.69
             163.83,266.68 166.09,270.46 171.00,269.54
             173.80,269.02 176.59,266.79 179.00,265.31
             187.61,259.99 189.12,258.47 190.00,248.00
             195.51,247.10 197.77,244.43 199.14,239.00
             199.79,236.42 199.26,233.95 201.47,232.08
             203.03,230.77 206.90,229.85 209.00,228.73
             212.30,226.96 214.07,224.69 217.00,222.64
             220.55,220.17 223.64,219.68 226.57,215.95
             230.29,211.20 228.73,206.35 229.38,201.00
             229.49,197.28 230.54,193.80 229.38,190.00
             228.45,185.59 225.35,183.77 225.21,178.17
             224.99,169.80 233.53,168.34 229.99,161.09
             229.99,161.09 226.13,155.83 226.13,155.83
             224.15,152.52 223.78,147.41 217.98,143.85
             211.93,140.14 204.27,144.00 202.24,135.98
             200.51,129.16 204.57,122.26 209.46,117.63
             211.71,115.49 215.23,114.32 216.05,110.96
             217.15,106.48 210.37,99.88 214.60,94.33
             217.45,90.58 223.82,89.09 228.00,87.21
             230.09,86.27 232.65,84.70 235.00,84.95
             238.48,85.31 241.36,89.25 246.00,89.73
             249.43,90.08 251.79,88.25 255.00,88.25
             258.75,88.25 261.33,90.59 267.00,89.86
             271.16,89.32 273.13,87.00 276.91,87.18
             280.54,87.35 282.18,90.02 286.00,91.30
             286.00,91.30 298.00,92.66 298.00,92.66
             302.78,92.82 303.97,90.38 308.00,88.69
             311.98,87.03 319.99,86.16 320.89,80.96
             321.14,79.50 320.33,76.53 320.00,75.00
             320.00,75.00 329.00,73.20 329.00,73.20 Z" />
</svg>
