<?xml version="1.0" encoding="UTF-8" standalone="no"?>
<!DOCTYPE svg PUBLIC "-//W3C//DTD SVG 20010904//EN"
              "http://www.w3.org/TR/2001/REC-SVG-20010904/DTD/svg10.dtd">

<svg xmlns="http://www.w3.org/2000/svg"
     width="6.94358in" height="6.94358in"
     viewBox="0 0 500 500">
  <path id="Selection"
        fill="cyan" stroke="black" stroke-width="1"
        d="M 286.09,112.42
           C 286.09,112.42 308.00,113.00 308.00,113.00
             308.00,113.00 300.72,125.04 300.72,125.04
             300.72,125.04 303.89,134.09 303.89,134.09
             303.89,134.09 305.00,143.00 305.00,143.00
             305.00,143.00 316.00,141.84 316.00,141.84
             316.00,141.84 328.00,147.88 328.00,147.88
             328.00,147.88 344.00,152.42 344.00,152.42
             350.33,154.77 354.98,160.37 362.00,159.83
             372.85,158.99 376.60,155.11 386.00,155.00
             385.96,166.48 383.06,163.00 382.26,169.01
             381.70,173.25 384.25,177.12 383.95,184.00
             383.75,188.76 381.96,190.96 382.84,194.00
             384.22,198.78 390.47,202.07 393.16,206.09
             394.99,208.82 397.03,215.66 398.31,219.00
             398.31,219.00 403.53,234.00 403.53,234.00
             404.65,241.73 396.38,239.63 393.16,245.11
             389.73,250.94 392.95,256.18 394.00,262.00
             391.25,264.09 389.40,265.48 388.43,269.00
             387.00,274.22 389.70,278.97 385.69,283.72
             384.13,285.56 375.60,294.75 373.96,295.40
             375.29,294.88 358.95,298.99 361.00,298.91
             357.82,299.03 355.86,295.97 351.11,300.23
             347.20,303.73 346.38,308.44 344.33,313.00
             342.35,317.44 334.15,330.49 330.68,333.43
             324.19,338.92 319.02,331.78 311.00,331.11
             301.23,330.29 301.52,336.49 296.89,337.48
             292.73,338.36 288.84,334.46 285.09,336.12
             276.94,339.75 281.20,349.98 282.55,356.00
             283.30,359.37 282.73,360.15 284.10,364.00
             284.88,366.18 286.31,368.66 286.40,371.00
             286.54,374.58 283.91,377.11 283.38,381.00
             282.96,384.08 284.24,387.07 285.00,390.00
             282.47,390.78 278.64,391.86 276.00,391.53
             272.56,391.11 269.39,387.66 261.28,386.96
             256.99,386.59 250.38,388.34 246.47,386.02
             246.47,386.02 242.45,382.30 242.45,382.30
             240.09,380.70 238.52,381.30 235.52,378.87
             229.46,373.96 231.29,372.14 222.00,368.00
             223.97,359.81 220.96,352.98 216.44,346.27
             214.52,343.43 209.80,337.45 209.78,334.09
             209.77,329.16 220.57,325.98 220.72,319.04
             220.83,314.23 207.68,303.94 217.06,301.16
             217.06,301.16 220.00,301.16 220.00,301.16
             222.59,305.64 231.03,307.86 236.00,310.00
             233.86,307.61 229.54,302.26 227.90,299.59
             226.75,297.73 226.32,295.65 224.43,294.31
             219.79,291.03 210.03,293.93 205.00,295.00
             205.00,295.00 197.00,285.00 197.00,285.00
             201.18,283.73 201.73,283.18 203.00,279.00
             203.00,279.00 208.00,279.00 208.00,279.00
             208.00,279.00 208.00,275.00 208.00,275.00
             208.00,275.00 202.00,274.00 202.00,274.00
             202.73,265.57 196.82,270.68 194.02,267.36
             192.60,265.68 193.00,259.33 193.00,257.00
             193.00,257.00 183.00,258.12 183.00,258.12
             183.00,258.12 176.00,255.51 176.00,255.51
             176.00,255.51 167.00,255.00 167.00,255.00
             168.93,251.79 169.39,251.79 173.00,251.00
             173.00,251.00 173.00,243.00 173.00,243.00
             173.00,243.00 165.00,243.00 165.00,243.00
             163.69,239.04 163.00,238.88 159.00,238.00
             159.00,238.00 159.00,241.00 159.00,241.00
             159.00,241.00 151.00,241.00 151.00,241.00
             151.00,241.00 153.00,233.00 153.00,233.00
             153.00,233.00 145.30,233.72 145.30,233.72
             145.30,233.72 141.13,229.01 141.13,229.01
             141.13,229.01 134.00,229.01 134.00,229.01
             134.00,229.01 133.00,219.00 133.00,219.00
             133.00,219.00 125.00,220.24 125.00,220.24
             122.59,219.95 120.55,218.18 118.00,217.51
             113.43,216.30 111.41,218.51 108.00,221.00
             108.00,221.00 108.00,205.00 108.00,205.00
             108.00,205.00 104.00,203.00 104.00,203.00
             104.00,203.00 119.00,203.00 119.00,203.00
             119.00,203.00 119.00,192.00 119.00,192.00
             119.00,192.00 127.00,193.00 127.00,193.00
             127.00,193.00 121.00,173.00 121.00,173.00
             121.00,173.00 104.00,173.00 104.00,173.00
             102.47,172.97 99.86,173.03 98.64,171.98
             96.23,169.88 99.08,163.44 101.30,162.02
             103.33,160.72 106.62,161.15 109.00,160.74
             109.00,160.74 119.91,157.37 119.91,157.37
             122.64,157.19 123.74,158.53 127.04,158.87
             132.65,159.45 134.48,156.73 138.41,158.08
             142.53,159.51 142.53,161.99 145.30,164.24
             147.93,166.39 151.77,167.12 155.00,168.00
             155.00,168.00 155.00,163.00 155.00,163.00
             160.31,165.39 169.89,174.13 170.97,162.00
             170.97,162.00 170.97,157.00 170.97,157.00
             179.00,159.90 182.64,159.00 191.00,159.00
             191.00,159.00 189.00,167.00 189.00,167.00
             189.00,167.00 195.00,166.00 195.00,166.00
             195.00,166.00 200.63,176.09 200.63,176.09
             201.36,178.46 200.14,180.10 201.26,182.83
             202.89,186.81 204.72,184.97 205.00,193.00
             216.50,192.64 216.16,187.51 225.00,185.00
             227.69,189.48 230.17,188.95 235.00,189.00
             235.00,189.00 235.00,195.00 235.00,195.00
             235.00,195.00 241.00,193.00 241.00,193.00
             241.00,193.00 251.00,197.00 251.00,197.00
             251.00,197.00 253.00,190.00 253.00,190.00
             253.00,190.00 254.00,195.00 254.00,195.00
             262.85,196.12 261.55,197.98 273.00,197.00
             273.00,197.00 273.00,201.00 273.00,201.00
             280.77,200.92 286.35,199.88 287.00,191.00
             283.31,191.00 277.68,192.00 277.20,186.94
             276.81,182.86 281.18,174.36 282.49,170.00
             285.02,161.55 280.49,162.34 281.52,156.96
             282.15,153.66 285.16,150.18 285.17,147.04
             285.18,144.95 283.92,143.48 283.55,141.72
             282.96,138.83 284.46,136.06 282.81,133.30
             281.19,130.59 277.18,130.26 276.10,125.98
             275.01,121.68 278.96,117.93 279.00,108.00
             279.00,108.00 286.09,112.42 286.09,112.42 Z" />
</svg>
