<?xml version="1.0" encoding="UTF-8" standalone="no"?>
<!DOCTYPE svg PUBLIC "-//W3C//DTD SVG 20010904//EN"
              "http://www.w3.org/TR/2001/REC-SVG-20010904/DTD/svg10.dtd">

<svg xmlns="http://www.w3.org/2000/svg"
     width="5.55486in" height="5.55486in"
     viewBox="0 0 400 400">
  <path id="Selection"
        fill="cyan" stroke="black" stroke-width="1"
        d="M 118.96,104.76
           C 123.01,105.76 124.20,109.00 126.68,111.90
             128.38,113.89 131.88,116.46 132.78,118.21
             134.24,121.02 132.71,123.21 133.53,126.00
             134.30,128.63 139.57,134.85 141.37,138.00
             143.44,141.64 143.30,144.38 147.11,146.93
             157.70,154.03 172.18,150.28 184.00,150.01
             186.23,149.96 189.70,149.81 191.61,151.02
             195.92,153.76 194.98,159.76 202.00,164.00
             199.55,175.54 204.02,171.83 210.45,181.29
             212.36,184.10 211.83,185.87 214.22,188.53
             223.27,198.57 229.90,192.47 235.00,183.00
             246.67,183.85 244.24,177.57 250.14,172.31
             254.86,168.11 257.26,171.10 259.00,163.00
             265.67,163.37 265.16,163.45 271.00,160.00
             272.21,162.08 274.45,166.64 276.68,167.60
             280.01,168.90 281.02,164.77 289.00,167.60
             293.99,169.47 304.30,175.32 307.69,179.18
             309.55,181.30 309.72,182.73 310.95,185.00
             310.95,185.00 313.83,190.00 313.83,190.00
             314.75,192.53 313.93,194.25 314.45,197.00
             315.01,199.99 316.67,201.46 315.84,204.72
             315.35,206.64 313.32,211.57 311.71,212.69
             309.83,214.00 307.28,213.93 305.58,215.59
             304.18,216.97 302.79,221.91 302.00,224.00
             302.00,224.00 310.00,223.00 310.00,223.00
             306.62,229.79 295.05,234.64 293.00,244.00
             284.95,244.20 277.52,247.06 274.75,255.29
             273.46,259.10 274.56,262.15 272.98,264.53
             270.65,268.02 257.26,273.44 253.00,274.00
             253.49,276.63 255.63,281.75 254.77,283.86
             253.60,286.69 249.52,287.18 247.00,288.44
             242.75,290.57 237.48,295.07 232.17,294.55
             229.34,294.27 228.16,292.06 224.99,291.75
             222.43,291.50 219.66,293.13 217.18,292.31
             212.55,290.78 211.01,282.07 205.89,277.47
             203.38,275.21 201.24,273.99 198.00,273.12
             195.40,272.42 190.50,270.92 188.00,271.47
             179.78,273.29 176.11,288.92 174.00,296.00
             174.00,296.00 172.00,296.00 172.00,296.00
             171.14,293.02 171.07,288.69 168.69,286.95
             165.39,284.05 162.29,285.84 159.00,286.95
             150.37,290.65 150.73,290.33 142.00,292.00
             138.19,292.73 131.70,294.31 128.91,290.69
             126.24,287.22 129.01,284.32 129.98,281.00
             131.25,277.67 131.53,270.22 129.98,267.10
             128.31,264.32 125.79,263.43 123.04,259.90
             118.59,254.17 117.01,246.69 111.96,244.58
             99.73,239.50 90.87,249.66 85.38,239.96
             81.57,233.22 87.77,231.50 88.76,225.00
             89.46,220.43 87.06,216.78 87.55,212.00
             87.55,212.00 88.87,204.00 88.87,204.00
             88.97,200.06 87.62,197.70 87.06,194.00
             87.06,194.00 87.06,186.00 87.06,186.00
             86.76,183.19 85.16,179.07 85.73,177.13
             86.78,173.51 91.87,173.31 92.87,169.53
             93.83,165.93 90.06,162.00 92.02,157.04
             93.32,153.77 96.10,152.37 98.22,149.79
             100.21,147.38 104.64,138.95 105.45,136.00
             106.44,132.41 104.81,126.37 103.06,123.17
             102.03,121.27 99.80,119.25 99.74,117.05
             99.67,113.97 102.86,113.25 105.00,107.00
             109.15,106.41 115.53,103.93 118.96,104.76 Z" />
</svg>
