<?xml version="1.0" encoding="UTF-8" standalone="no"?>
<!DOCTYPE svg PUBLIC "-//W3C//DTD SVG 20010904//EN"
              "http://www.w3.org/TR/2001/REC-SVG-20010904/DTD/svg10.dtd">

<svg xmlns="http://www.w3.org/2000/svg"
     width="43.6334in" height="36.3288in"
     viewBox="0 0 3142 2616">
  <path id="Burgundy"
        fill="Green" stroke="black" stroke-width="1"
        d="M 1063.96,1367.76
           C 1068.03,1368.79 1069.13,1371.93 1071.68,1374.82
             1073.39,1376.76 1076.78,1379.19 1077.78,1381.18
             1079.24,1384.07 1077.71,1386.20 1078.53,1389.00
             1079.30,1391.63 1084.57,1397.85 1086.37,1401.00
             1088.43,1404.61 1088.32,1407.40 1092.11,1409.93
             1102.65,1416.96 1117.27,1413.28 1129.00,1413.01
             1131.25,1412.96 1134.68,1412.81 1136.62,1414.02
             1141.31,1416.95 1140.03,1422.78 1147.00,1427.00
             1144.84,1437.84 1148.23,1434.52 1154.87,1443.43
             1157.41,1446.83 1156.73,1448.29 1158.58,1450.74
             1163.58,1457.38 1170.96,1458.84 1176.39,1451.96
             1177.83,1450.13 1178.90,1448.04 1180.00,1446.00
             1191.54,1446.84 1188.82,1440.86 1195.13,1435.31
             1199.89,1431.13 1202.26,1434.07 1204.00,1426.00
             1210.67,1426.37 1210.16,1426.45 1216.00,1423.00
             1217.41,1425.43 1219.23,1429.45 1222.10,1430.47
             1225.62,1431.28 1226.64,1427.99 1234.00,1430.47
             1238.99,1432.47 1249.30,1438.32 1252.69,1442.18
             1254.55,1444.30 1254.72,1445.73 1255.95,1448.00
             1255.95,1448.00 1258.83,1453.00 1258.83,1453.00
             1259.75,1455.53 1258.93,1457.25 1259.45,1460.00
             1260.01,1462.99 1261.67,1464.46 1260.84,1467.72
             1260.35,1469.64 1258.32,1474.57 1256.71,1475.69
             1254.83,1477.00 1252.28,1476.93 1250.58,1478.59
             1249.18,1479.97 1247.79,1484.91 1247.00,1487.00
             1247.00,1487.00 1255.00,1486.00 1255.00,1486.00
             1251.62,1492.79 1240.05,1497.64 1238.00,1507.00
             1229.95,1507.20 1222.52,1510.06 1219.75,1518.29
             1218.46,1522.10 1219.56,1525.15 1217.98,1527.53
             1215.65,1531.02 1202.26,1536.44 1198.00,1537.00
             1198.49,1539.63 1200.63,1544.75 1199.77,1546.86
             1198.60,1549.69 1194.52,1550.18 1192.00,1551.44
             1187.76,1553.57 1182.34,1558.29 1177.17,1557.63
             1174.41,1557.27 1173.13,1555.06 1169.99,1554.75
             1167.43,1554.50 1164.67,1556.13 1162.18,1555.31
             1157.34,1553.72 1155.76,1544.86 1150.89,1540.47
             1148.39,1538.21 1146.24,1536.99 1143.00,1536.12
             1140.40,1535.42 1135.50,1533.92 1133.00,1534.47
             1124.78,1536.29 1121.11,1551.92 1119.00,1559.00
             1119.00,1559.00 1117.00,1559.00 1117.00,1559.00
             1116.14,1556.02 1116.07,1551.69 1113.69,1549.95
             1110.39,1547.05 1107.29,1548.84 1104.00,1549.95
             1095.38,1553.65 1095.60,1553.27 1087.00,1555.12
             1083.30,1555.91 1076.44,1557.16 1073.76,1553.69
             1071.19,1550.37 1073.87,1547.18 1074.92,1544.00
             1076.25,1540.57 1076.60,1533.35 1074.92,1530.10
             1073.31,1527.32 1070.79,1526.43 1068.04,1522.90
             1064.50,1518.34 1061.94,1509.72 1056.96,1507.84
             1054.37,1506.86 1047.82,1505.88 1045.00,1506.11
             1039.60,1506.54 1034.63,1510.46 1030.38,1502.96
             1026.04,1495.28 1034.53,1494.45 1033.81,1485.00
             1033.81,1485.00 1032.46,1476.00 1032.46,1476.00
             1032.54,1472.53 1034.11,1468.79 1033.75,1465.00
             1033.75,1465.00 1032.04,1458.00 1032.04,1458.00
             1032.04,1458.00 1032.04,1448.00 1032.04,1448.00
             1031.60,1445.58 1030.18,1442.14 1030.56,1440.13
             1031.34,1435.93 1036.67,1437.09 1037.59,1431.96
             1038.24,1428.36 1035.18,1424.67 1036.90,1420.04
             1038.13,1416.76 1041.40,1414.66 1043.62,1411.96
             1045.64,1409.52 1049.63,1402.01 1050.45,1399.00
             1052.63,1391.09 1044.89,1382.65 1044.56,1380.06
             1044.07,1376.30 1047.63,1376.81 1050.00,1370.00
             1054.35,1369.33 1060.05,1366.78 1063.96,1367.76 Z" />
</svg>
