<?xml version="1.0" encoding="UTF-8" standalone="no"?>
<!DOCTYPE svg PUBLIC "-//W3C//DTD SVG 20010904//EN"
              "http://www.w3.org/TR/2001/REC-SVG-20010904/DTD/svg10.dtd">

<svg xmlns="http://www.w3.org/2000/svg"
     width="4.16615in" height="4.16615in"
     viewBox="0 0 300 300">
  <path id="Selection"
        fill="red" stroke="black" stroke-width="1"
        d="M 166.00,53.00
           C 166.00,53.00 173.00,58.00 173.00,58.00
             173.00,58.00 170.00,59.00 170.00,59.00
             178.76,65.82 177.22,61.32 186.00,62.30
             192.85,63.07 194.41,66.13 198.00,65.74
             198.00,65.74 208.00,61.71 208.00,61.71
             217.10,58.76 218.73,59.00 228.00,59.00
             228.01,61.45 227.80,64.72 229.02,66.89
             230.80,70.06 233.97,70.52 235.69,71.92
             237.69,73.53 240.09,80.43 240.28,83.00
             240.70,88.72 237.60,98.97 234.78,104.00
             232.87,107.40 230.01,110.27 228.76,114.01
             227.81,116.87 228.00,120.02 228.00,123.00
             222.39,121.81 215.05,118.58 211.17,125.19
             210.13,126.97 210.11,129.09 209.44,131.00
             208.29,134.27 205.80,136.29 207.95,139.24
             211.39,143.95 221.74,144.40 228.00,148.00
             222.39,152.99 220.94,160.45 214.68,165.32
             210.72,168.40 207.82,169.40 206.00,164.00
             206.00,164.00 201.00,169.00 201.00,169.00
             201.00,169.00 204.00,168.00 204.00,168.00
             204.02,174.42 203.78,174.98 208.00,180.00
             208.00,180.00 196.04,184.85 196.04,184.85
             196.04,184.85 188.00,184.85 188.00,184.85
             181.31,182.44 180.08,178.79 173.00,180.00
             173.00,180.00 170.00,176.00 170.00,176.00
             169.91,180.12 169.81,182.12 168.10,186.00
             166.70,189.16 164.11,192.34 164.37,195.91
             164.73,200.77 174.85,214.61 173.86,223.00
             172.97,230.65 165.78,232.67 164.18,236.32
             163.05,238.91 165.37,244.07 166.00,247.00
             166.00,247.00 157.00,247.00 157.00,247.00
             159.15,237.70 153.79,237.08 146.00,237.00
             145.19,233.22 143.72,225.79 138.98,225.43
             136.51,225.24 132.92,227.84 129.17,226.40
             127.43,225.73 122.96,221.51 120.83,220.00
             121.85,217.02 123.43,213.27 120.83,210.85
             117.65,208.24 112.68,209.21 109.00,208.28
             109.00,208.28 101.00,206.02 101.00,206.02
             101.00,206.02 86.00,206.02 86.00,206.02
             86.00,206.02 70.00,205.00 70.00,205.00
             70.00,205.00 70.00,203.00 70.00,203.00
             70.00,203.00 75.00,203.00 75.00,203.00
             73.02,200.65 71.80,198.99 69.25,197.17
             67.40,195.85 64.18,194.68 63.14,192.74
             62.29,191.18 62.95,189.67 62.48,187.72
             62.06,185.97 60.68,184.24 61.02,182.09
             62.38,173.48 76.16,178.42 81.00,180.00
             81.00,180.00 80.00,173.00 80.00,173.00
             80.00,173.00 72.00,170.00 72.00,170.00
             75.84,167.97 77.40,168.97 81.00,171.00
             81.00,171.00 82.22,165.00 82.22,165.00
             77.44,162.34 78.90,160.32 82.22,157.35
             90.13,150.89 97.17,151.05 98.00,139.00
             107.93,133.07 105.82,124.88 109.80,116.00
             111.77,111.62 114.53,110.23 115.70,106.00
             117.05,101.12 116.92,95.15 120.00,91.00
             120.00,91.00 120.00,95.00 120.00,95.00
             120.00,95.00 122.00,95.00 122.00,95.00
             122.00,85.64 119.51,72.90 132.00,72.00
             132.00,72.00 130.00,67.00 130.00,67.00
             137.67,66.18 140.37,64.05 143.00,57.00
             153.72,61.53 156.49,56.60 166.00,53.00 Z
           M 166.00,59.00
           C 166.00,59.00 167.00,60.00 167.00,60.00
             167.00,60.00 167.00,59.00 167.00,59.00
             167.00,59.00 166.00,59.00 166.00,59.00 Z
           M 161.00,61.00
           C 161.00,61.00 162.00,62.00 162.00,62.00
             162.00,62.00 162.00,61.00 162.00,61.00
             162.00,61.00 161.00,61.00 161.00,61.00 Z" />
</svg>
