<?xml version="1.0" encoding="UTF-8" standalone="no"?>
<!DOCTYPE svg PUBLIC "-//W3C//DTD SVG 20010904//EN"
              "http://www.w3.org/TR/2001/REC-SVG-20010904/DTD/svg10.dtd">

<svg xmlns="http://www.w3.org/2000/svg"
     width="5.55486in" height="5.55486in"
     viewBox="0 0 400 400">
  <path id="Selection"
        fill="cyan" stroke="black" stroke-width="1"
        d="M 188.59,60.34
           C 191.48,63.36 194.88,73.32 200.04,76.40
             203.52,78.33 205.80,76.13 209.00,76.40
             212.18,76.85 213.80,79.16 217.00,79.37
             217.00,79.37 228.00,77.00 228.00,77.00
             228.00,77.00 232.00,82.00 232.00,82.00
             232.00,82.00 229.00,77.00 229.00,77.00
             230.35,75.64 232.01,73.75 233.96,73.30
             236.98,72.60 238.58,75.16 236.00,79.00
             236.00,79.00 254.00,80.00 254.00,80.00
             254.00,80.00 257.00,80.00 257.00,80.00
             257.00,80.00 254.00,79.00 254.00,79.00
             254.00,79.00 254.00,75.80 254.00,75.80
             259.49,74.67 265.43,74.60 271.00,75.80
             273.08,75.97 275.37,76.19 276.40,78.31
             277.79,81.16 276.50,90.60 275.80,93.83
             275.41,95.64 274.20,97.98 275.15,99.72
             276.18,101.62 278.16,101.69 280.00,102.00
             280.01,104.00 279.88,107.08 280.60,108.91
             281.45,111.07 291.31,118.95 280.00,119.98
             280.00,119.98 276.00,119.98 276.00,119.98
             276.00,119.98 271.89,119.98 271.89,119.98
             271.89,119.98 271.89,134.91 271.89,134.91
             271.89,134.91 278.98,142.26 278.98,142.26
             278.98,142.26 280.84,151.96 280.84,151.96
             280.84,151.96 286.75,161.09 286.75,161.09
             286.75,161.09 286.00,172.00 286.00,172.00
             286.00,172.00 274.72,175.52 274.72,175.52
             274.72,175.52 268.00,176.47 268.00,176.47
             268.00,176.47 256.00,180.00 256.00,180.00
             256.13,190.54 259.02,188.45 260.36,195.00
             261.04,198.30 259.68,201.13 262.65,204.66
             265.55,208.09 268.55,207.00 276.00,214.00
             273.76,218.31 272.80,217.57 270.63,220.51
             267.59,224.62 271.27,226.77 264.00,228.00
             264.00,228.00 264.00,237.00 264.00,237.00
             263.95,248.15 260.77,248.52 268.79,258.00
             270.26,259.74 272.42,262.39 274.30,263.62
             278.09,266.11 280.26,264.24 283.82,266.57
             286.72,268.47 290.19,274.47 295.00,275.36
             299.02,276.11 302.12,272.54 310.00,272.00
             308.80,281.19 304.85,281.73 299.33,287.87
             294.71,293.00 296.97,294.57 294.40,297.11
             294.40,297.11 282.99,305.04 282.99,305.04
             282.99,305.04 277.09,307.31 277.09,307.31
             274.73,308.65 273.74,310.25 271.83,311.73
             267.90,314.77 266.18,313.41 263.34,314.85
             260.29,316.40 259.04,320.00 258.00,323.16
             254.80,322.44 252.15,321.65 249.09,323.16
             242.91,326.69 244.60,332.58 236.00,334.00
             236.00,334.00 237.00,340.00 237.00,340.00
             233.63,341.26 224.38,343.41 221.00,343.66
             221.00,343.66 215.00,343.66 215.00,343.66
             215.00,343.66 206.00,345.49 206.00,345.49
             200.80,345.48 200.95,342.44 191.00,344.00
             190.69,342.16 190.74,341.02 189.40,339.50
             187.66,337.50 176.97,333.63 174.00,332.72
             174.00,332.72 169.39,331.44 169.39,331.44
             164.51,328.90 167.36,321.96 164.11,318.37
             163.41,317.59 162.84,317.24 161.81,317.05
             161.81,317.05 146.00,318.00 146.00,318.00
             144.89,313.90 138.21,304.56 133.11,307.08
             130.26,308.49 130.05,311.53 126.00,314.00
             125.06,300.70 118.45,302.17 108.00,302.00
             101.52,301.89 100.08,300.72 95.00,297.00
             95.00,297.00 95.00,295.00 95.00,295.00
             102.73,290.49 102.52,288.51 108.17,283.86
             108.17,283.86 115.61,278.70 115.61,278.70
             118.75,275.55 118.82,272.12 123.18,269.33
             128.61,265.85 139.15,264.58 137.77,256.00
             136.98,251.09 133.26,247.44 131.36,243.00
             129.29,238.13 130.55,235.24 129.26,232.04
             127.03,226.49 121.35,225.08 116.00,225.00
             111.14,224.94 104.32,225.64 100.13,222.91
             96.70,220.69 92.80,211.04 92.14,207.00
             92.14,207.00 92.14,200.00 92.14,200.00
             92.14,200.00 91.51,194.00 91.51,194.00
             92.12,184.87 98.34,183.55 105.00,180.64
             105.00,180.64 122.82,170.57 122.82,170.57
             124.70,168.98 125.93,166.93 127.51,165.09
             129.20,163.11 132.67,160.42 133.18,157.96
             133.86,154.68 129.88,149.52 127.85,147.17
             125.97,145.01 121.80,139.24 119.89,138.17
             119.89,138.17 103.00,135.00 103.00,135.00
             106.05,118.00 96.42,110.87 97.02,95.00
             97.38,85.45 103.30,88.58 105.66,83.78
             106.86,81.31 105.28,78.06 107.00,71.00
             107.00,71.00 109.00,71.00 109.00,71.00
             110.83,73.47 112.01,75.22 115.00,76.32
             119.03,78.07 123.92,77.00 128.00,76.32
             138.75,74.08 140.66,74.24 151.00,69.00
             151.02,70.83 150.93,73.24 151.60,74.96
             153.61,80.13 159.47,82.60 163.73,77.92
             167.40,73.90 168.45,64.36 174.00,55.00
             178.41,55.99 185.49,57.11 188.59,60.34 Z
           M 234.00,79.00
           C 234.00,79.00 235.00,80.00 235.00,80.00
             235.00,80.00 235.00,79.00 235.00,79.00
             235.00,79.00 234.00,79.00 234.00,79.00 Z
           M 259.00,83.00
           C 259.00,83.00 260.00,84.00 260.00,84.00
             260.00,84.00 260.00,83.00 260.00,83.00
             260.00,83.00 259.00,83.00 259.00,83.00 Z
           M 121.00,174.00
           C 121.00,174.00 122.00,175.00 122.00,175.00
             122.00,175.00 122.00,174.00 122.00,174.00
             122.00,174.00 121.00,174.00 121.00,174.00 Z
           M 195.00,309.00
           C 195.00,309.00 196.00,310.00 196.00,310.00
             196.00,310.00 196.00,309.00 196.00,309.00
             196.00,309.00 195.00,309.00 195.00,309.00 Z" />
</svg>
