<?xml version="1.0" encoding="UTF-8" standalone="no"?>
<!DOCTYPE svg PUBLIC "-//W3C//DTD SVG 20010904//EN"
              "http://www.w3.org/TR/2001/REC-SVG-20010904/DTD/svg10.dtd">

<svg xmlns="http://www.w3.org/2000/svg"
     width="6.94358in" height="6.94358in"
     viewBox="0 0 500 500">
  <path id="Selection#1"
        fill="cyan" stroke="black" stroke-width="1"
        d="M 224.00,97.00
           C 231.28,96.87 249.89,96.27 256.00,98.00
             255.10,101.69 254.39,107.13 255.49,110.83
             256.28,113.46 259.68,118.19 261.53,120.28
             268.40,128.07 274.05,131.20 284.00,127.00
             285.84,133.47 284.29,137.87 285.51,141.99
             287.77,149.64 298.02,152.11 305.00,153.00
             305.00,153.00 305.00,167.00 305.00,167.00
             310.37,167.00 324.91,168.47 327.98,173.30
             329.28,175.34 329.00,179.57 329.00,182.00
             329.00,183.89 329.13,187.03 328.42,188.74
             327.03,192.09 322.09,192.97 324.86,197.27
             328.95,203.64 332.47,201.87 338.00,204.00
             340.14,204.83 342.84,206.93 345.00,206.85
             347.21,206.76 349.05,204.88 351.00,204.00
             353.67,202.80 356.15,203.01 359.00,203.00
             359.00,203.00 359.00,207.00 359.00,207.00
             366.37,209.61 358.82,213.49 362.61,218.79
             365.04,222.19 369.27,222.39 371.83,223.98
             374.93,225.92 377.21,229.89 379.00,233.00
             369.37,235.06 371.54,241.40 368.55,248.91
             367.02,252.75 365.56,253.06 363.99,256.04
             363.99,256.04 362.10,261.00 362.10,261.00
             357.42,271.73 356.85,272.97 359.00,285.00
             350.59,290.03 353.18,294.70 355.45,303.00
             358.74,315.09 357.05,316.29 367.00,325.98
             370.30,329.20 371.61,330.50 376.00,332.00
             374.39,343.11 382.41,338.96 383.94,349.00
             384.76,354.39 380.43,356.27 383.43,362.00
             386.93,368.67 395.09,371.60 393.34,376.74
             392.75,378.50 387.05,382.87 385.22,385.00
             383.95,386.49 381.87,390.09 380.51,390.89
             378.34,392.17 376.00,390.68 373.26,392.64
             371.54,393.87 367.48,400.77 366.00,403.00
             356.08,398.48 361.56,394.75 348.00,384.00
             350.18,374.87 347.14,375.91 343.25,370.76
             343.25,370.76 338.31,362.39 338.31,362.39
             334.95,358.58 329.62,358.95 325.00,359.00
             316.02,359.11 299.70,362.69 292.27,356.89
             292.27,356.89 282.69,343.00 282.69,343.00
             280.58,338.86 282.44,337.00 280.08,332.01
             276.89,325.29 271.30,325.68 271.28,319.00
             271.25,310.11 277.24,308.51 278.55,303.00
             279.40,299.42 277.56,297.21 277.63,294.00
             277.68,291.59 278.87,289.88 278.51,287.00
             278.22,284.64 276.41,281.39 275.54,279.00
             273.10,272.29 271.93,264.17 265.96,259.63
             259.33,254.60 255.57,255.87 251.00,254.11
             247.67,252.82 246.00,250.99 242.00,250.26
             239.32,249.77 236.66,250.29 234.00,249.42
             234.00,249.42 228.00,246.49 228.00,246.49
             218.73,242.67 213.31,239.47 203.00,238.98
             195.19,238.61 189.54,229.49 183.72,237.15
             182.70,238.49 182.52,239.50 182.00,241.00
             168.14,241.82 170.06,255.70 160.96,261.52
             149.74,268.70 144.22,261.34 131.00,268.00
             129.57,264.40 128.04,258.90 125.70,256.09
             123.23,253.12 118.84,250.80 117.80,247.00
             117.80,247.00 117.80,234.00 117.80,234.00
             117.69,230.97 116.20,226.51 116.75,224.00
             117.72,219.57 120.64,219.62 120.00,212.00
             123.39,214.13 123.35,215.17 124.00,219.00
             131.07,217.44 129.84,214.38 126.88,209.00
             126.06,207.52 124.62,204.77 123.46,203.65
             119.30,199.65 105.90,201.02 108.16,194.98
             108.73,193.47 110.47,191.88 111.44,190.58
             112.52,189.13 113.35,186.98 114.58,185.97
             118.15,183.02 129.30,181.51 134.00,180.80
             134.00,180.80 141.00,179.00 141.00,179.00
             141.00,179.00 149.00,179.00 149.00,179.00
             157.47,177.62 165.95,174.88 174.00,172.02
             181.78,169.26 190.43,166.77 193.00,158.00
             193.00,158.00 202.00,163.00 202.00,163.00
             201.24,151.80 199.62,151.91 201.13,139.00
             201.13,139.00 202.80,132.00 202.80,132.00
             206.03,118.03 207.00,117.67 207.00,103.00
             218.93,102.18 213.73,97.19 224.00,97.00 Z" />
</svg>
