<?xml version="1.0" encoding="UTF-8" standalone="no"?>
<!DOCTYPE svg PUBLIC "-//W3C//DTD SVG 20010904//EN"
              "http://www.w3.org/TR/2001/REC-SVG-20010904/DTD/svg10.dtd">

<svg xmlns="http://www.w3.org/2000/svg"
     width="6.94358in" height="6.94358in"
     viewBox="0 0 500 500">
  <path id="Selection#2"
        fill="cyan" stroke="black" stroke-width="1"
        d="M 277.04,140.57
           C 281.41,141.79 285.83,139.76 294.00,142.99
             294.00,142.99 313.00,151.57 313.00,151.57
             313.00,151.57 322.00,152.57 322.00,152.57
             322.00,152.57 331.00,156.59 331.00,156.59
             335.70,157.91 340.79,157.55 344.15,162.21
             345.39,163.93 351.84,182.01 351.88,184.00
             351.92,185.92 351.06,187.25 350.77,189.00
             350.08,193.27 352.60,194.89 351.99,197.83
             351.26,201.38 347.99,200.71 346.00,210.00
             346.00,210.00 337.00,209.27 337.00,209.27
             334.70,209.39 323.92,212.28 322.30,213.59
             320.77,214.82 319.72,217.09 318.50,218.72
             316.09,221.93 313.82,223.42 314.25,228.00
             314.83,234.08 321.88,239.41 320.15,246.00
             319.65,247.87 316.26,255.12 315.03,256.59
             312.32,259.84 307.96,260.14 306.26,268.00
             305.42,271.91 307.03,275.29 308.00,279.00
             296.51,283.02 301.10,292.04 302.00,297.00
             302.00,297.00 302.00,307.00 302.00,307.00
             302.00,307.00 303.70,314.00 303.70,314.00
             303.93,318.20 301.58,320.52 301.87,324.00
             301.70,327.96 305.90,333.68 301.87,338.77
             299.18,342.72 295.81,341.18 291.84,342.06
             291.84,342.06 283.00,345.51 283.00,345.51
             283.00,345.51 277.00,346.57 277.00,346.57
             270.75,348.40 267.68,352.67 269.00,359.00
             261.13,361.11 253.42,365.77 245.00,363.69
             240.51,362.57 239.40,359.23 235.00,358.74
             229.64,358.14 225.68,361.27 222.00,361.67
             218.22,362.08 216.31,359.86 213.00,359.33
             206.28,358.28 203.11,365.16 196.39,357.81
             194.75,356.03 185.84,341.15 185.21,339.00
             183.63,333.60 184.36,328.09 183.57,325.00
             183.57,325.00 175.16,307.11 175.16,307.11
             169.48,299.08 163.24,309.26 157.57,304.83
             155.31,303.05 156.62,300.05 154.52,295.01
             152.39,289.91 148.36,287.89 147.92,284.00
             147.54,280.51 151.04,276.66 152.97,274.00
             157.96,267.13 159.25,258.50 164.00,254.00
             170.47,261.48 171.85,254.25 178.04,252.43
             180.20,251.79 182.36,252.17 185.00,250.83
             189.22,248.68 191.05,244.52 194.21,241.28
             197.28,238.13 200.37,236.47 201.97,232.00
             203.75,227.02 201.33,223.59 202.61,220.09
             203.80,216.84 207.38,215.38 208.22,211.99
             209.12,208.36 205.48,204.02 206.36,200.14
             207.32,195.88 213.38,196.79 216.83,190.00
             220.98,181.79 210.92,174.24 217.43,168.60
             221.11,165.40 226.82,169.13 237.00,165.95
             241.40,164.57 246.52,161.56 249.37,157.91
             251.95,154.60 254.39,148.50 257.71,145.59
             261.85,141.97 266.49,145.25 268.00,136.00
             273.31,137.58 273.32,139.54 277.04,140.57 Z" />
</svg>
