<?xml version="1.0" encoding="UTF-8" standalone="no"?>
<!DOCTYPE svg PUBLIC "-//W3C//DTD SVG 20010904//EN"
              "http://www.w3.org/TR/2001/REC-SVG-20010904/DTD/svg10.dtd">

<svg xmlns="http://www.w3.org/2000/svg"
     width="43.6334in" height="36.3288in"
     viewBox="0 0 3142 2616">
  <path id="Paris"
        fill="Green" stroke="black" stroke-width="1"
        d="M 1002.00,1292.69
           C 1006.08,1293.68 1010.09,1291.86 1018.00,1294.99
             1018.00,1294.99 1037.00,1303.57 1037.00,1303.57
             1037.00,1303.57 1046.00,1304.57 1046.00,1304.57
             1046.00,1304.57 1055.00,1308.59 1055.00,1308.59
             1059.80,1309.94 1064.73,1309.56 1068.28,1314.21
             1069.92,1316.37 1072.69,1325.87 1073.74,1329.00
             1074.41,1330.99 1075.84,1334.02 1075.88,1336.00
             1075.92,1337.92 1075.05,1339.25 1074.77,1341.00
             1074.07,1345.31 1076.68,1347.00 1076.13,1349.83
             1075.44,1353.42 1072.03,1352.53 1070.00,1362.00
             1070.00,1362.00 1061.00,1361.30 1061.00,1361.30
             1058.89,1361.45 1047.74,1364.43 1046.30,1365.59
             1044.77,1366.82 1043.72,1369.09 1042.50,1370.72
             1040.09,1373.93 1037.82,1375.42 1038.25,1380.00
             1038.83,1386.08 1045.88,1391.41 1044.15,1398.00
             1043.65,1399.87 1040.26,1407.12 1039.03,1408.59
             1036.11,1412.09 1031.36,1412.75 1030.04,1420.58
             1029.51,1423.78 1031.18,1427.85 1032.00,1431.00
             1020.51,1435.02 1025.10,1444.04 1025.79,1449.00
             1025.06,1443.68 1027.97,1472.96 1027.72,1466.00
             1027.87,1470.29 1025.58,1472.55 1025.87,1476.00
             1025.70,1479.96 1029.90,1485.64 1025.87,1490.85
             1023.21,1494.85 1019.75,1493.58 1016.00,1494.22
             1012.34,1494.84 1011.05,1496.31 1008.00,1497.31
             1002.66,1499.04 991.13,1498.03 993.00,1511.00
             984.74,1513.22 977.94,1517.46 969.04,1515.77
             963.99,1514.82 963.75,1511.26 959.00,1510.74
             953.61,1510.15 949.69,1513.27 946.00,1513.67
             942.18,1514.09 940.32,1511.82 937.00,1511.38
             930.68,1510.55 927.51,1516.51 921.21,1510.66
             918.71,1508.33 909.75,1493.28 908.97,1490.00
             908.97,1490.00 907.57,1477.00 907.57,1477.00
             907.57,1477.00 899.59,1460.09 899.59,1460.09
             893.67,1450.46 887.42,1461.41 881.57,1456.83
             879.31,1455.05 880.62,1452.05 878.52,1447.01
             876.39,1441.91 872.36,1439.89 871.92,1436.00
             871.54,1432.51 875.04,1428.66 876.97,1426.00
             881.96,1419.13 883.25,1410.50 888.00,1406.00
             894.61,1413.64 895.87,1405.98 902.04,1404.31
             904.23,1403.72 906.22,1404.23 909.00,1402.83
             913.37,1400.61 915.03,1396.51 918.21,1393.17
             921.24,1389.97 924.36,1388.49 925.97,1384.00
             927.74,1379.04 925.33,1375.58 926.61,1372.09
             927.80,1368.84 931.38,1367.38 932.22,1363.99
             933.12,1360.36 929.48,1356.02 930.36,1352.14
             931.32,1347.88 937.40,1348.78 940.92,1342.00
             944.67,1334.38 935.41,1326.54 940.92,1320.57
             944.07,1317.31 952.16,1320.70 961.00,1317.95
             965.34,1316.60 970.58,1313.53 973.36,1309.91
             975.99,1306.48 977.92,1300.88 981.71,1297.59
             985.90,1293.96 990.49,1297.23 992.00,1288.00
             997.57,1289.61 998.14,1291.75 1002.00,1292.69 Z" />
</svg>
