<?xml version="1.0" encoding="UTF-8" standalone="no"?>
<!DOCTYPE svg PUBLIC "-//W3C//DTD SVG 20010904//EN"
              "http://www.w3.org/TR/2001/REC-SVG-20010904/DTD/svg10.dtd">

<svg xmlns="http://www.w3.org/2000/svg"
     width="5.55486in" height="5.55486in"
     viewBox="0 0 400 400">
  <path id="Selection#1"
        fill="cyan" stroke="black" stroke-width="1"
        d="M 225.96,33.83
           C 229.52,32.00 230.72,28.50 235.01,28.25
             239.20,28.01 245.08,32.27 250.00,32.77
             253.78,33.16 256.62,31.32 260.00,30.00
             261.95,32.61 265.00,36.07 266.11,39.00
             267.41,42.42 266.50,45.68 268.74,48.89
             272.84,54.79 281.36,53.38 287.00,51.00
             287.00,51.00 294.69,68.00 294.69,68.00
             294.69,68.00 296.81,84.00 296.81,84.00
             296.81,84.00 305.00,98.00 305.00,98.00
             297.32,101.30 281.50,105.42 280.15,115.00
             279.47,119.78 281.93,124.43 283.00,129.00
             274.67,133.19 276.44,134.78 271.25,142.00
             269.79,144.02 267.43,146.45 267.28,149.00
             267.28,149.00 269.00,156.00 269.00,156.00
             269.91,159.70 271.63,164.18 275.10,166.23
             277.73,167.79 281.06,166.84 284.00,167.06
             293.28,167.77 289.92,174.70 298.00,184.00
             292.60,188.61 290.69,195.10 292.80,202.00
             293.96,205.78 296.05,207.76 296.69,211.00
             297.20,213.63 296.09,218.77 296.01,222.00
             295.95,224.60 296.32,228.54 294.98,230.78
             293.62,233.05 290.20,234.47 288.00,235.99
             288.00,235.99 280.00,241.92 280.00,241.92
             276.13,244.13 272.24,244.28 268.06,248.21
             262.54,253.41 266.48,255.53 264.85,258.69
             263.54,261.25 260.08,260.77 258.01,264.14
             256.56,266.50 256.58,271.26 255.30,273.78
             254.24,275.87 248.12,280.02 246.00,281.07
             241.04,283.53 239.99,279.64 235.00,279.19
             230.43,278.77 227.18,281.76 223.00,282.61
             215.91,284.05 209.01,278.09 206.00,288.00
             200.71,287.28 197.42,284.57 193.00,285.24
             185.29,286.41 184.01,296.05 181.21,302.00
             178.86,307.01 175.38,309.05 176.50,312.28
             177.72,315.82 182.89,318.30 184.43,319.95
             185.18,320.76 185.40,321.15 185.71,322.21
             185.24,320.60 187.87,337.08 187.90,335.00
             187.88,336.07 187.63,337.01 187.22,337.98
             185.36,342.45 180.66,344.42 177.02,347.16
             173.37,349.90 173.25,350.65 170.41,353.42
             164.94,358.75 160.08,363.65 160.00,372.00
             157.14,372.00 152.54,372.32 150.06,370.98
             145.33,368.42 142.34,359.05 142.00,354.00
             130.13,358.32 131.62,352.56 124.91,347.87
             121.83,345.73 117.64,344.65 114.00,344.00
             114.00,344.00 114.00,336.00 114.00,336.00
             114.00,336.00 109.00,336.00 109.00,336.00
             108.99,323.57 108.61,321.33 96.00,318.00
             97.71,312.16 103.98,306.44 107.49,300.72
             107.49,300.72 114.74,289.00 114.74,289.00
             114.74,289.00 124.52,265.96 124.52,265.96
             129.15,255.23 135.89,253.70 131.00,250.00
             131.00,250.00 132.00,244.00 132.00,244.00
             132.00,244.00 136.00,244.00 136.00,244.00
             136.38,240.28 138.77,230.24 140.39,227.00
             142.06,223.67 144.49,221.73 145.36,219.00
             146.83,214.46 143.61,214.67 148.00,206.00
             147.63,205.56 147.12,205.73 147.00,204.46
             147.00,204.46 151.30,191.01 151.30,191.01
             151.30,191.01 153.54,183.83 153.54,183.83
             153.54,183.83 154.55,177.28 154.55,177.28
             155.39,175.01 156.95,174.08 157.69,170.99
             157.69,170.99 158.34,163.00 158.34,163.00
             159.02,159.57 163.33,149.00 166.00,147.00
             166.00,147.00 166.00,154.00 166.00,154.00
             169.82,153.02 171.71,153.44 174.00,150.00
             174.00,150.00 178.00,152.00 178.00,152.00
             179.40,146.37 181.53,144.60 174.00,144.00
             174.00,144.00 164.00,125.00 164.00,125.00
             164.00,125.00 172.00,128.00 172.00,128.00
             172.00,128.00 171.43,121.32 171.43,121.32
             171.43,121.32 179.37,110.93 179.37,110.93
             179.37,110.93 177.05,101.96 177.05,101.96
             177.05,101.96 174.00,91.00 174.00,91.00
             183.32,87.04 181.94,84.07 187.02,84.35
             195.89,84.83 199.32,93.24 210.00,88.19
             219.54,83.67 214.47,77.57 214.71,73.00
             214.93,68.76 218.26,66.29 217.63,61.00
             217.29,58.12 215.81,55.71 215.03,53.00
             215.03,53.00 214.06,47.00 214.06,47.00
             212.88,41.23 210.70,39.42 212.00,33.00
             216.31,34.24 221.70,36.02 225.96,33.83 Z" />
</svg>
