<?xml version="1.0" encoding="UTF-8" standalone="no"?>
<!DOCTYPE svg PUBLIC "-//W3C//DTD SVG 20010904//EN"
              "http://www.w3.org/TR/2001/REC-SVG-20010904/DTD/svg10.dtd">

<svg xmlns="http://www.w3.org/2000/svg"
     width="43.6334in" height="36.3288in"
     viewBox="0 0 3142 2616">
  <path id="Selection"
        fill="none" stroke="black" stroke-width="1"
        d="M 1247.00,971.00
           C 1247.00,971.00 1254.00,976.00 1254.00,976.00
             1254.00,976.00 1251.00,977.00 1251.00,977.00
             1259.76,983.82 1258.22,979.32 1267.00,980.30
             1273.85,981.07 1275.41,984.13 1279.00,983.74
             1279.00,983.74 1289.00,979.71 1289.00,979.71
             1298.10,976.76 1299.73,977.00 1309.00,977.00
             1309.01,979.45 1308.80,982.72 1310.02,984.89
             1311.80,988.06 1314.97,988.52 1316.69,989.92
             1318.69,991.53 1321.09,998.43 1321.28,1001.00
             1321.70,1006.72 1318.60,1016.97 1315.78,1022.00
             1313.87,1025.40 1311.01,1028.27 1309.76,1032.01
             1308.81,1034.87 1309.00,1038.02 1309.00,1041.00
             1303.39,1039.81 1296.05,1036.58 1292.17,1043.19
             1291.13,1044.97 1291.11,1047.09 1290.44,1049.00
             1289.29,1052.27 1286.80,1054.29 1288.95,1057.24
             1292.39,1061.95 1302.74,1062.40 1309.00,1066.00
             1303.39,1070.99 1301.94,1078.45 1295.68,1083.32
             1291.72,1086.40 1288.82,1087.40 1287.00,1082.00
             1287.00,1082.00 1283.00,1085.00 1283.00,1085.00
             1283.00,1085.00 1289.00,1098.00 1289.00,1098.00
             1289.00,1098.00 1277.04,1102.85 1277.04,1102.85
             1277.04,1102.85 1269.00,1102.85 1269.00,1102.85
             1262.31,1100.44 1261.08,1096.79 1254.00,1098.00
             1254.00,1098.00 1251.00,1094.00 1251.00,1094.00
             1250.91,1098.12 1250.81,1100.12 1249.10,1104.00
             1247.70,1107.16 1245.11,1110.34 1245.37,1113.91
             1245.73,1118.77 1255.85,1132.61 1254.86,1141.00
             1253.97,1148.65 1246.78,1150.67 1245.18,1154.32
             1244.05,1156.91 1246.37,1162.07 1247.00,1165.00
             1247.00,1165.00 1238.00,1165.00 1238.00,1165.00
             1240.15,1155.70 1234.79,1155.08 1227.00,1155.00
             1226.19,1151.22 1224.72,1143.79 1219.98,1143.43
             1217.51,1143.24 1213.92,1145.84 1210.17,1144.40
             1208.43,1143.73 1203.96,1139.51 1201.82,1138.00
             1202.83,1135.07 1204.44,1131.21 1201.82,1128.85
             1199.11,1126.71 1193.49,1127.18 1190.00,1126.29
             1178.33,1123.31 1175.25,1124.40 1164.00,1123.95
             1158.27,1123.73 1160.08,1122.81 1151.00,1123.00
             1151.00,1123.00 1151.00,1121.00 1151.00,1121.00
             1151.00,1121.00 1156.00,1121.00 1156.00,1121.00
             1154.02,1118.65 1152.80,1116.99 1150.25,1115.17
             1148.40,1113.85 1145.18,1112.68 1144.14,1110.74
             1143.28,1109.16 1143.96,1107.67 1143.48,1105.72
             1143.03,1103.94 1141.59,1102.16 1141.88,1100.09
             1143.11,1091.49 1157.28,1096.45 1162.00,1098.00
             1162.00,1098.00 1161.00,1091.00 1161.00,1091.00
             1161.00,1091.00 1153.00,1088.00 1153.00,1088.00
             1156.84,1085.97 1158.40,1086.97 1162.00,1089.00
             1162.00,1089.00 1163.22,1083.00 1163.22,1083.00
             1158.44,1080.34 1159.90,1078.32 1163.22,1075.35
             1171.13,1068.89 1178.17,1069.05 1179.00,1057.00
             1188.93,1051.07 1186.82,1042.88 1190.80,1034.00
             1192.77,1029.62 1195.53,1028.23 1196.70,1024.00
             1198.05,1019.12 1197.92,1013.15 1201.00,1009.00
             1201.00,1009.00 1201.00,1013.00 1201.00,1013.00
             1201.00,1013.00 1203.00,1013.00 1203.00,1013.00
             1203.00,1003.64 1200.51,990.90 1213.00,990.00
             1213.00,990.00 1211.00,985.00 1211.00,985.00
             1218.67,984.18 1221.37,982.05 1224.00,975.00
             1234.72,979.53 1237.49,974.60 1247.00,971.00 Z
           M 1247.00,977.00
           C 1247.00,977.00 1248.00,978.00 1248.00,978.00
             1248.00,978.00 1248.00,977.00 1248.00,977.00
             1248.00,977.00 1247.00,977.00 1247.00,977.00 Z
           M 1242.00,979.00
           C 1242.00,979.00 1243.00,980.00 1243.00,980.00
             1243.00,980.00 1243.00,979.00 1243.00,979.00
             1243.00,979.00 1242.00,979.00 1242.00,979.00 Z
           M 1282.00,1086.00
           C 1282.00,1086.00 1283.00,1087.00 1283.00,1087.00
             1283.00,1087.00 1283.00,1086.00 1283.00,1086.00
             1283.00,1086.00 1282.00,1086.00 1282.00,1086.00 Z" />
</svg>
