<?xml version="1.0" encoding="UTF-8" standalone="no"?>
<!DOCTYPE svg PUBLIC "-//W3C//DTD SVG 20010904//EN"
              "http://www.w3.org/TR/2001/REC-SVG-20010904/DTD/svg10.dtd">

<svg xmlns="http://www.w3.org/2000/svg"
     width="2.77743in" height="2.77743in"
     viewBox="0 0 200 200">
  <path id="Selection"
        fill="purple" stroke="black" stroke-width="1"
        d="M 72.39,139.40
           C 66.81,133.19 62.80,140.11 58.17,139.40
             55.53,139.25 47.47,131.36 46.33,128.96
             43.98,125.11 46.09,123.49 46.33,120.00
             46.87,117.18 45.86,114.51 44.67,112.00
             44.67,112.00 36.69,97.22 36.69,97.22
             33.93,94.17 26.06,91.70 21.53,83.00
             19.98,80.02 15.57,64.11 16.29,61.21
             17.12,57.89 20.11,57.46 20.74,52.98
             20.74,52.98 20.05,42.00 20.05,42.00
             20.43,33.56 28.37,24.94 30.95,17.00
             31.95,13.95 33.11,7.93 36.15,6.58
             39.19,5.24 43.77,8.06 47.00,9.00
             47.00,9.00 47.00,17.00 47.00,17.00
             47.00,17.00 57.96,18.53 57.96,18.53
             57.96,18.53 66.83,18.53 66.83,18.53
             66.83,18.53 80.00,32.00 80.00,32.00
             80.78,30.58 81.28,29.58 82.33,28.29
             89.81,19.00 91.04,26.83 103.00,29.00
             103.45,35.38 107.36,41.12 109.75,47.00
             111.00,50.05 111.67,53.05 115.06,54.40
             119.17,56.04 124.71,53.54 129.00,53.00
             130.75,63.77 143.61,65.50 151.00,59.00
             151.00,59.00 153.00,59.00 153.00,59.00
             154.90,61.78 159.56,68.80 162.32,70.15
             164.90,71.40 176.88,71.83 180.76,75.31
             184.58,78.70 186.71,85.92 180.76,88.42
             179.15,89.08 176.72,88.98 175.00,89.00
             174.78,95.37 173.37,96.78 167.00,97.00
             167.00,97.00 161.47,115.17 161.47,115.17
             161.47,115.17 160.73,123.99 160.73,123.99
             160.11,126.95 153.18,137.66 150.82,139.41
             149.32,140.51 148.64,140.51 147.00,141.00
             147.00,141.00 151.00,157.00 151.00,157.00
             151.00,157.00 144.90,159.00 144.90,159.00
             145.00,160.87 145.09,164.19 144.90,165.91
             144.00,169.07 138.85,175.32 144.90,183.00
             143.33,187.27 137.69,196.30 132.09,195.18
             127.92,194.35 129.25,190.54 120.07,190.00
             120.11,188.66 120.32,187.35 120.07,186.00
             120.07,186.00 117.90,179.00 117.90,179.00
             117.63,176.41 118.99,174.84 117.90,172.00
             117.25,170.39 115.52,168.52 114.56,167.00
             112.92,164.39 112.72,162.59 110.69,160.01
             107.81,156.36 104.68,154.72 101.09,152.12
             93.16,146.37 85.27,141.28 75.00,143.00
             75.00,143.00 72.39,139.40 72.39,139.40 Z
           M 51.00,117.00
           C 51.00,117.00 52.00,118.00 52.00,118.00
             52.00,118.00 52.00,117.00 52.00,117.00
             52.00,117.00 51.00,117.00 51.00,117.00 Z" />
</svg>
