<?xml version="1.0" encoding="UTF-8" standalone="no"?>
<!DOCTYPE svg PUBLIC "-//W3C//DTD SVG 20010904//EN"
              "http://www.w3.org/TR/2001/REC-SVG-20010904/DTD/svg10.dtd">

<svg xmlns="http://www.w3.org/2000/svg"
     width="43.6334in" height="36.3288in"
     viewBox="0 0 3142 2616">
  <path id="Alsace"
        fill="Pink" stroke="black" stroke-width="1"
        d="M 1195.00,1289.00
           C 1195.00,1289.00 1195.00,1297.00 1195.00,1297.00
             1195.00,1297.00 1205.96,1298.53 1205.96,1298.53
             1205.96,1298.53 1214.83,1298.53 1214.83,1298.53
             1214.83,1298.53 1228.00,1312.00 1228.00,1312.00
             1228.78,1310.58 1229.28,1309.58 1230.33,1308.29
             1237.81,1299.00 1239.04,1306.83 1251.00,1309.00
             1251.45,1315.38 1255.36,1321.12 1257.75,1327.00
             1259.00,1330.05 1259.67,1333.05 1263.06,1334.40
             1267.17,1336.04 1272.71,1333.54 1277.00,1333.00
             1278.75,1343.77 1291.61,1345.50 1299.00,1339.00
             1299.00,1339.00 1301.00,1339.00 1301.00,1339.00
             1302.90,1341.78 1307.56,1348.80 1310.32,1350.15
             1312.62,1351.27 1324.96,1351.90 1328.76,1355.31
             1332.58,1358.70 1334.71,1365.92 1328.76,1368.42
             1327.15,1369.08 1324.72,1368.98 1323.00,1369.00
             1322.76,1375.74 1321.74,1376.76 1315.00,1377.00
             1315.00,1377.00 1309.47,1395.17 1309.47,1395.17
             1309.47,1395.17 1308.73,1403.99 1308.73,1403.99
             1308.11,1406.95 1301.18,1417.66 1298.82,1419.41
             1297.32,1420.51 1296.64,1420.51 1295.00,1421.00
             1295.00,1421.00 1299.00,1437.00 1299.00,1437.00
             1299.00,1437.00 1292.90,1439.00 1292.90,1439.00
             1293.00,1440.87 1293.09,1444.19 1292.90,1445.91
             1292.00,1449.07 1286.85,1455.32 1292.90,1463.00
             1291.33,1467.27 1285.69,1476.30 1280.09,1475.18
             1275.92,1474.35 1277.25,1470.54 1268.07,1470.00
             1268.11,1468.66 1268.32,1467.35 1268.07,1466.00
             1268.07,1466.00 1265.90,1459.00 1265.90,1459.00
             1265.63,1456.41 1266.99,1454.84 1265.90,1452.00
             1265.25,1450.39 1263.52,1448.52 1262.56,1447.00
             1260.95,1444.44 1260.68,1442.51 1258.69,1440.04
             1256.16,1436.89 1252.27,1434.45 1249.00,1432.13
             1241.12,1426.55 1233.07,1421.32 1223.00,1423.00
             1223.00,1423.00 1220.39,1419.40 1220.39,1419.40
             1214.81,1413.19 1210.80,1420.11 1206.17,1419.40
             1203.81,1419.29 1198.93,1414.34 1197.09,1412.58
             1187.48,1403.36 1199.18,1404.54 1192.18,1391.00
             1192.18,1391.00 1184.69,1377.22 1184.69,1377.22
             1182.11,1374.37 1179.55,1374.53 1174.02,1368.98
             1167.96,1362.90 1167.75,1358.82 1165.72,1351.00
             1165.10,1348.64 1164.25,1346.48 1164.12,1344.01
             1163.79,1338.05 1167.45,1337.77 1168.71,1333.00
             1169.36,1329.33 1166.70,1323.02 1168.71,1317.00
             1168.71,1317.00 1171.54,1312.00 1171.54,1312.00
             1171.54,1312.00 1173.98,1306.28 1173.98,1306.28
             1173.98,1306.28 1177.09,1301.91 1177.09,1301.91
             1179.23,1298.16 1180.87,1291.32 1181.00,1287.00
             1188.98,1284.77 1187.28,1286.75 1195.00,1289.00 Z
           M 1199.00,1397.00
           C 1199.00,1397.00 1200.00,1398.00 1200.00,1398.00
             1200.00,1398.00 1200.00,1397.00 1200.00,1397.00
             1200.00,1397.00 1199.00,1397.00 1199.00,1397.00 Z" />
</svg>
