<?xml version="1.0" encoding="UTF-8" standalone="no"?>
<!DOCTYPE svg PUBLIC "-//W3C//DTD SVG 20010904//EN"
              "http://www.w3.org/TR/2001/REC-SVG-20010904/DTD/svg10.dtd">

<svg xmlns="http://www.w3.org/2000/svg"
     width="43.6334in" height="36.3288in"
     viewBox="0 0 3142 2616">
  <path id="Bavaria"
        fill="Pink" stroke="black" stroke-width="1"
        d="M 1523.00,1185.91
           C 1525.64,1186.00 1527.97,1188.10 1531.00,1188.44
             1534.09,1188.92 1536.30,1187.35 1538.63,1188.44
             1540.06,1189.02 1545.17,1195.24 1547.00,1196.94
             1550.81,1200.49 1558.80,1203.37 1564.00,1203.40
             1570.16,1203.44 1570.50,1196.64 1574.21,1195.82
             1577.51,1195.10 1586.41,1202.70 1586.39,1205.06
             1586.37,1208.75 1581.01,1207.11 1577.17,1209.56
             1577.17,1209.56 1572.85,1213.14 1572.85,1213.14
             1566.86,1218.23 1569.06,1218.19 1568.00,1225.00
             1563.81,1223.98 1553.75,1222.87 1550.23,1225.60
             1545.90,1228.94 1547.82,1233.49 1547.96,1238.00
             1548.27,1247.93 1543.51,1250.69 1555.00,1259.00
             1555.00,1259.00 1551.00,1266.00 1551.00,1266.00
             1555.56,1266.98 1555.46,1267.44 1560.00,1266.00
             1561.17,1270.13 1560.71,1273.41 1562.16,1276.58
             1565.83,1284.61 1569.36,1284.11 1572.44,1286.81
             1572.44,1286.81 1577.00,1293.00 1577.00,1293.00
             1577.00,1293.00 1577.00,1295.00 1577.00,1295.00
             1574.81,1297.90 1570.80,1307.65 1572.70,1310.95
             1574.66,1314.35 1578.82,1315.09 1580.40,1319.05
             1581.32,1321.36 1580.56,1324.36 1582.90,1329.91
             1584.55,1333.81 1587.00,1335.43 1589.22,1339.04
             1590.68,1341.41 1591.40,1344.24 1594.14,1345.20
             1596.99,1346.61 1602.01,1345.54 1605.00,1345.20
             1605.37,1350.17 1609.15,1357.88 1613.21,1361.16
             1616.17,1363.56 1620.35,1364.43 1622.02,1366.55
             1623.96,1369.00 1624.13,1375.87 1628.14,1377.43
             1630.91,1378.50 1634.53,1376.20 1637.00,1375.00
             1638.26,1382.61 1641.77,1380.90 1645.26,1386.09
             1647.38,1389.24 1647.02,1393.37 1646.93,1397.00
             1646.93,1397.00 1646.93,1400.94 1646.93,1400.94
             1645.28,1410.24 1632.91,1399.11 1627.75,1404.60
             1625.67,1406.82 1626.87,1412.06 1627.00,1415.00
             1627.00,1415.00 1624.00,1415.00 1624.00,1415.00
             1623.57,1422.23 1621.81,1421.22 1619.00,1427.00
             1604.76,1426.56 1604.31,1427.47 1592.83,1436.00
             1590.54,1437.71 1586.41,1440.10 1585.74,1443.04
             1585.01,1446.24 1587.95,1448.15 1589.42,1450.28
             1592.48,1454.71 1589.89,1456.48 1599.01,1463.00
             1596.76,1469.48 1590.92,1474.32 1599.01,1479.22
             1600.36,1480.03 1601.56,1480.45 1603.00,1481.00
             1603.00,1481.00 1602.00,1493.00 1602.00,1493.00
             1598.59,1490.43 1597.06,1488.89 1595.14,1485.00
             1593.98,1482.66 1592.86,1478.17 1590.70,1476.88
             1588.69,1475.53 1582.36,1477.16 1579.00,1476.88
             1569.80,1476.37 1558.15,1465.11 1553.74,1476.02
             1553.19,1477.38 1553.16,1478.59 1553.00,1480.00
             1544.20,1477.86 1545.20,1479.79 1538.00,1480.79
             1538.00,1480.79 1525.00,1481.31 1525.00,1481.31
             1521.36,1482.22 1520.03,1484.47 1517.00,1485.99
             1517.00,1485.99 1510.13,1488.31 1510.13,1488.31
             1506.85,1490.25 1506.72,1493.12 1503.78,1494.40
             1503.78,1494.40 1489.00,1496.00 1489.00,1496.00
             1489.00,1496.00 1482.00,1483.00 1482.00,1483.00
             1470.05,1488.38 1472.56,1475.90 1463.00,1473.00
             1463.00,1473.00 1463.00,1479.00 1463.00,1479.00
             1451.11,1479.15 1453.00,1483.59 1453.00,1497.00
             1453.00,1497.00 1448.00,1499.00 1448.00,1499.00
             1444.74,1495.19 1443.89,1495.17 1439.00,1495.00
             1441.18,1482.14 1434.68,1486.35 1424.00,1474.00
             1427.61,1471.70 1431.36,1469.39 1432.57,1465.00
             1432.57,1465.00 1433.58,1456.00 1433.58,1456.00
             1433.58,1456.00 1437.21,1449.00 1437.21,1449.00
             1437.21,1449.00 1437.21,1440.00 1437.21,1440.00
             1438.02,1435.38 1439.95,1430.75 1439.81,1426.00
             1439.63,1419.82 1434.61,1412.74 1430.00,1409.00
             1431.30,1406.80 1433.08,1403.37 1435.26,1402.02
             1437.50,1400.63 1451.01,1399.28 1452.00,1387.00
             1454.00,1386.99 1457.07,1387.12 1458.90,1386.41
             1464.83,1384.07 1469.12,1374.06 1467.29,1368.00
             1464.54,1358.89 1456.55,1355.85 1453.59,1351.82
             1453.59,1351.82 1447.95,1338.00 1447.95,1338.00
             1446.97,1335.37 1445.49,1329.74 1445.61,1327.00
             1445.88,1322.84 1447.88,1319.58 1445.61,1315.06
             1443.10,1310.24 1439.81,1312.56 1436.00,1314.00
             1436.00,1314.00 1435.16,1308.00 1435.16,1308.00
             1435.33,1304.38 1436.95,1299.49 1435.16,1296.15
             1432.61,1292.13 1428.20,1293.44 1425.00,1292.69
             1421.00,1291.76 1418.50,1288.40 1414.00,1289.33
             1411.10,1289.93 1400.79,1298.70 1397.00,1301.00
             1397.00,1301.00 1396.18,1286.00 1396.18,1286.00
             1396.18,1286.00 1396.91,1276.00 1396.91,1276.00
             1396.61,1270.08 1396.28,1268.33 1400.17,1263.15
             1406.27,1255.04 1412.90,1271.88 1421.57,1261.79
             1422.55,1260.65 1423.19,1259.48 1423.24,1258.00
             1423.84,1256.16 1423.38,1254.75 1423.24,1253.00
             1431.13,1250.58 1428.34,1246.99 1432.43,1244.17
             1432.59,1244.06 1453.20,1237.57 1454.63,1229.00
             1455.85,1221.69 1445.92,1222.76 1448.04,1216.00
             1448.04,1216.00 1452.30,1208.00 1452.30,1208.00
             1453.34,1204.93 1452.54,1201.98 1454.60,1199.21
             1457.69,1195.05 1460.65,1196.69 1464.00,1190.00
             1473.31,1189.09 1471.16,1192.09 1477.00,1192.69
             1481.88,1193.18 1484.50,1190.15 1491.13,1191.00
             1490.75,1192.95 1490.39,1193.99 1491.13,1195.95
             1492.59,1198.90 1500.87,1205.57 1504.00,1206.43
             1507.91,1207.50 1512.86,1206.22 1514.21,1201.96
             1515.65,1197.37 1511.17,1196.27 1510.00,1189.00
             1518.58,1188.57 1519.35,1185.78 1523.00,1185.91 Z
           M 1579.00,1358.00
           C 1579.00,1358.00 1580.00,1359.00 1580.00,1359.00
             1580.00,1359.00 1580.00,1358.00 1580.00,1358.00
             1580.00,1358.00 1579.00,1358.00 1579.00,1358.00 Z" />
</svg>
