<?xml version="1.0" encoding="UTF-8" standalone="no"?>
<!DOCTYPE svg PUBLIC "-//W3C//DTD SVG 20010904//EN"
              "http://www.w3.org/TR/2001/REC-SVG-20010904/DTD/svg10.dtd">

<svg xmlns="http://www.w3.org/2000/svg"
     width="43.6334in" height="36.3288in"
     viewBox="0 0 3142 2616">
  <path id="Berlin"
        fill="Pink" stroke="black" stroke-width="1"
        d="M 1647.67,1013.67
           C 1652.08,1009.24 1651.92,1004.97 1653.40,1002.30
             1656.51,996.69 1665.17,993.69 1670.98,996.42
             1675.36,998.47 1679.13,1004.93 1676.98,1009.72
             1676.16,1011.54 1671.91,1015.77 1671.35,1020.00
             1670.35,1027.58 1678.74,1031.10 1685.00,1030.00
             1686.99,1033.63 1688.71,1040.07 1692.11,1041.98
             1699.18,1045.95 1715.19,1037.87 1723.00,1036.37
             1726.57,1035.69 1730.73,1036.70 1733.44,1033.69
             1738.84,1027.69 1732.08,1018.36 1737.29,1015.74
             1742.09,1013.32 1746.75,1017.23 1751.00,1018.74
             1751.00,1018.74 1759.00,1021.00 1759.00,1021.00
             1759.00,1021.00 1754.58,1032.00 1754.58,1032.00
             1754.58,1032.00 1752.19,1041.00 1752.19,1041.00
             1752.19,1041.00 1753.00,1062.00 1753.00,1062.00
             1753.00,1062.00 1739.00,1060.62 1739.00,1060.62
             1735.98,1061.09 1731.36,1063.41 1729.06,1065.39
             1725.67,1068.29 1726.00,1069.25 1724.63,1072.96
             1723.04,1077.26 1719.66,1078.97 1720.45,1081.81
             1721.76,1086.51 1732.08,1090.16 1735.91,1092.30
             1739.29,1094.19 1742.22,1098.76 1744.30,1102.00
             1745.58,1103.98 1748.48,1108.28 1747.59,1110.69
             1745.73,1115.73 1730.57,1114.20 1727.21,1116.17
             1723.33,1118.46 1719.12,1127.49 1719.19,1132.00
             1719.19,1132.00 1720.22,1139.00 1720.22,1139.00
             1719.94,1145.36 1717.25,1140.70 1719.00,1154.00
             1714.26,1152.83 1709.97,1150.05 1705.00,1150.08
             1705.00,1150.08 1683.00,1153.79 1683.00,1153.79
             1683.00,1153.79 1676.00,1156.48 1676.00,1156.48
             1671.98,1157.26 1670.48,1155.60 1666.00,1156.48
             1661.94,1157.54 1656.27,1159.89 1652.00,1160.20
             1644.58,1160.74 1647.83,1154.53 1638.00,1155.00
             1638.00,1155.00 1631.00,1150.00 1631.00,1150.00
             1632.29,1143.08 1638.33,1133.94 1636.08,1130.31
             1634.22,1127.32 1622.00,1127.25 1618.02,1125.75
             1616.21,1125.08 1614.28,1124.24 1613.17,1122.59
             1611.76,1120.47 1612.23,1117.58 1610.83,1115.11
             1608.41,1110.86 1602.09,1109.82 1598.18,1112.60
             1596.82,1113.57 1596.03,1114.75 1595.00,1116.00
             1595.00,1116.00 1586.00,1108.00 1586.00,1108.00
             1588.00,1105.02 1591.47,1098.62 1591.25,1095.00
             1591.25,1095.00 1589.10,1086.00 1589.10,1086.00
             1588.76,1082.39 1589.45,1078.50 1588.30,1075.00
             1586.78,1070.32 1583.20,1067.02 1580.90,1063.00
             1580.90,1063.00 1572.04,1047.04 1572.04,1047.04
             1569.62,1043.55 1567.45,1042.82 1564.86,1039.79
             1564.86,1039.79 1558.71,1032.02 1558.71,1032.02
             1552.98,1025.61 1549.93,1026.72 1547.00,1022.00
             1551.18,1020.73 1551.73,1020.18 1553.00,1016.00
             1562.55,1016.00 1568.77,1018.40 1573.00,1008.00
             1582.50,1012.00 1581.00,1010.20 1585.00,1011.58
             1585.00,1011.58 1592.00,1015.11 1592.00,1015.11
             1592.00,1015.11 1598.90,1016.59 1598.90,1016.59
             1602.25,1017.98 1602.68,1020.81 1606.10,1022.26
             1606.10,1022.26 1613.91,1023.89 1613.91,1023.89
             1618.41,1025.74 1621.65,1032.45 1627.98,1032.45
             1634.43,1032.44 1633.53,1026.34 1633.00,1022.00
             1637.67,1019.37 1644.02,1017.34 1647.67,1013.67 Z
           M 1610.00,1093.00
           C 1610.00,1093.00 1611.00,1094.00 1611.00,1094.00
             1611.00,1094.00 1611.00,1093.00 1611.00,1093.00
             1611.00,1093.00 1610.00,1093.00 1610.00,1093.00 Z" />
</svg>
