<?xml version="1.0" encoding="UTF-8" standalone="no"?>
<!DOCTYPE svg PUBLIC "-//W3C//DTD SVG 20010904//EN"
              "http://www.w3.org/TR/2001/REC-SVG-20010904/DTD/svg10.dtd">

<svg xmlns="http://www.w3.org/2000/svg"
     width="4.16615in" height="4.16615in"
     viewBox="0 0 300 300">
  <path id="Selection"
        fill="purple" stroke="black" stroke-width="1"
        d="M 83.00,84.98
           C 83.00,84.98 89.00,88.29 89.00,88.29
             91.98,89.44 94.57,88.90 96.74,90.10
             99.16,91.43 99.58,93.72 103.05,95.30
             103.05,95.30 111.83,97.56 111.83,97.56
             115.44,99.20 120.73,107.25 126.89,105.17
             132.37,103.32 129.06,97.92 132.35,94.30
             134.96,91.43 139.87,91.41 144.70,86.67
             149.57,81.89 148.82,78.16 150.40,75.32
             152.96,70.75 160.84,67.22 166.00,68.66
             171.43,70.17 176.40,77.51 173.98,82.58
             172.96,84.72 167.51,89.28 168.29,95.00
             169.55,104.16 180.37,102.81 183.00,105.57
             185.80,108.52 184.80,114.76 192.00,115.85
             199.98,117.07 211.68,111.28 220.00,109.52
             224.08,108.65 228.38,109.79 231.15,105.85
             235.66,99.45 229.24,91.28 234.29,88.74
             239.38,86.18 243.63,90.51 248.00,92.12
             248.00,92.12 256.00,94.00 256.00,94.00
             252.77,99.38 248.74,110.69 249.08,117.00
             249.43,120.52 251.23,130.66 249.08,133.37
             246.46,136.44 241.81,132.39 236.00,133.37
             232.20,133.98 225.14,137.83 223.17,141.18
             223.17,141.18 220.83,147.83 220.83,147.83
             219.74,149.83 217.16,151.84 217.19,153.94
             217.23,156.39 223.04,160.26 225.00,161.63
             229.00,164.42 231.16,164.37 233.71,166.08
             236.82,168.17 239.78,172.83 241.82,176.00
             242.91,177.70 244.96,180.77 244.77,182.86
             244.53,185.34 241.96,185.90 239.99,186.53
             231.43,189.28 227.22,186.73 223.27,189.74
             220.26,192.03 216.26,200.16 216.14,204.00
             216.14,204.00 217.14,212.00 217.14,212.00
             216.68,218.47 214.18,213.21 216.00,227.00
             211.64,225.77 207.59,223.35 203.00,223.11
             199.20,222.91 195.70,224.39 192.00,224.99
             192.00,224.99 180.00,226.63 180.00,226.63
             177.27,227.41 174.86,229.10 172.00,229.36
             172.00,229.36 164.00,229.36 164.00,229.36
             160.53,229.80 157.09,232.15 150.00,232.68
             140.98,233.34 144.92,227.84 135.00,228.00
             132.93,225.61 128.83,223.07 129.00,219.96
             129.19,216.37 135.56,206.95 133.19,203.31
             131.24,200.31 119.06,200.27 115.02,198.75
             113.21,198.08 111.28,197.24 110.17,195.59
             108.76,193.47 109.23,190.59 107.83,188.11
             105.33,183.71 99.20,182.46 95.18,185.52
             93.87,186.52 93.02,187.75 92.00,189.00
             92.00,189.00 90.00,189.00 90.00,189.00
             90.00,189.00 83.00,181.00 83.00,181.00
             85.48,177.61 89.02,171.34 88.27,167.00
             87.82,164.45 86.51,163.17 86.10,159.00
             85.75,155.34 86.40,151.60 85.36,148.00
             83.75,142.42 80.30,140.06 77.92,136.00
             77.92,136.00 69.04,120.04 69.04,120.04
             66.62,116.55 64.45,115.82 61.86,112.79
             61.86,112.79 55.71,105.02 55.71,105.02
             50.53,99.22 46.70,99.20 44.00,95.00
             48.46,94.02 49.22,93.56 50.00,89.00
             59.47,89.36 64.75,91.65 70.00,82.00
             70.00,82.00 83.00,84.98 83.00,84.98 Z
           M 107.00,166.00
           C 107.00,166.00 108.00,167.00 108.00,167.00
             108.00,167.00 108.00,166.00 108.00,166.00
             108.00,166.00 107.00,166.00 107.00,166.00 Z" />
</svg>
