<?xml version="1.0" encoding="UTF-8" standalone="no"?>
<!DOCTYPE svg PUBLIC "-//W3C//DTD SVG 20010904//EN"
              "http://www.w3.org/TR/2001/REC-SVG-20010904/DTD/svg10.dtd">

<svg xmlns="http://www.w3.org/2000/svg"
     width="5.55486in" height="5.55486in"
     viewBox="0 0 400 400">
  <path id="Selection"
        fill="purple" stroke="black" stroke-width="1"
        d="M 181.63,103.00
           C 182.56,101.42 183.90,98.62 186.04,98.58
             188.98,98.54 191.06,103.24 196.00,103.13
             201.05,103.02 207.77,100.35 212.79,102.10
             216.12,103.25 216.29,106.31 219.37,109.55
             219.37,109.55 223.21,113.26 223.21,113.26
             224.70,115.12 225.08,116.60 227.22,118.79
             227.22,118.79 234.68,125.10 234.68,125.10
             237.26,127.89 237.74,129.50 241.09,132.25
             249.50,139.14 257.06,138.41 267.00,139.09
             267.00,139.09 283.00,140.00 283.00,140.00
             284.73,150.66 293.39,149.98 299.00,152.98
             299.00,152.98 307.00,158.73 307.00,158.73
             314.29,163.25 317.50,161.85 322.00,173.00
             322.00,173.00 315.00,180.00 315.00,180.00
             303.24,176.19 305.16,179.77 299.00,178.88
             295.29,178.35 294.28,176.26 289.00,179.94
             277.43,188.03 281.33,204.95 294.00,209.00
             294.00,209.00 290.47,218.00 290.47,218.00
             289.52,221.74 290.49,223.59 287.93,229.99
             285.97,234.88 284.33,235.30 282.98,238.09
             281.75,240.62 282.23,242.61 281.01,244.47
             278.84,247.78 273.95,247.86 271.06,254.02
             268.40,259.69 270.20,265.81 269.30,270.00
             267.57,278.02 262.79,278.52 258.63,284.04
             256.64,286.69 255.63,290.16 252.79,292.07
             249.49,294.28 244.94,293.65 242.00,294.43
             238.42,295.37 236.54,297.66 233.00,298.57
             233.00,298.57 223.00,299.18 223.00,299.18
             223.00,299.18 214.00,301.00 214.00,301.00
             216.99,295.31 221.78,285.43 217.26,279.32
             215.36,276.74 211.00,274.80 207.00,270.00
             208.13,268.33 209.18,266.97 209.82,265.00
             212.46,256.86 203.46,251.64 202.22,245.00
             202.22,245.00 201.62,239.00 201.62,239.00
             200.82,234.99 198.49,231.20 198.27,227.00
             198.02,222.30 201.62,212.17 194.89,207.61
             190.16,204.41 188.12,209.46 181.28,205.69
             177.24,203.46 170.91,197.33 166.00,197.92
             159.97,198.65 154.54,208.68 155.70,213.00
             156.92,217.56 163.47,219.94 160.18,226.94
             159.42,228.55 158.48,229.69 156.81,230.40
             154.49,231.39 141.40,231.00 138.00,231.00
             141.48,220.28 139.10,223.17 138.74,215.00
             138.61,211.92 139.25,210.01 137.26,207.18
             135.47,204.62 131.71,202.67 129.00,201.15
             126.12,199.54 123.46,197.81 120.00,198.46
             115.60,199.29 106.59,207.61 98.00,211.00
             96.56,201.20 87.17,200.01 79.00,200.00
             79.00,200.00 82.00,190.00 82.00,190.00
             82.00,190.00 89.00,192.36 89.00,192.36
             100.90,194.28 99.43,177.37 101.17,174.17
             104.87,167.35 111.97,166.82 112.00,153.00
             112.01,147.24 110.38,141.17 116.00,138.00
             117.31,142.05 118.11,142.42 121.79,144.00
             121.98,142.25 122.04,139.69 121.79,138.04
             119.41,130.52 108.67,131.57 105.60,128.41
             100.56,123.23 107.90,120.30 112.00,120.00
             112.01,116.88 111.73,112.00 114.01,109.57
             115.85,107.60 119.50,108.00 122.00,108.00
             122.00,108.00 143.00,108.00 143.00,108.00
             144.72,108.04 146.96,107.96 148.42,109.02
             150.04,110.20 153.82,117.68 153.31,119.63
             152.98,120.92 150.93,122.93 150.00,124.00
             150.00,124.00 168.00,124.00 168.00,124.00
             168.00,124.00 167.00,120.00 167.00,120.00
             167.00,120.00 172.00,123.00 172.00,123.00
             172.00,123.00 180.00,119.00 180.00,119.00
             176.62,110.19 176.71,111.35 181.63,103.00 Z" />
</svg>
