<?xml version="1.0" encoding="UTF-8" standalone="no"?>
<!DOCTYPE svg PUBLIC "-//W3C//DTD SVG 20010904//EN"
              "http://www.w3.org/TR/2001/REC-SVG-20010904/DTD/svg10.dtd">

<svg xmlns="http://www.w3.org/2000/svg"
     width="5.55486in" height="5.55486in"
     viewBox="0 0 400 400">
  <path id="Selection"
        fill="purple" stroke="black" stroke-width="1"
        d="M 162.18,81.31
           C 163.71,78.98 166.51,78.88 169.00,77.71
             174.17,75.27 183.99,66.18 189.00,67.18
             192.18,67.81 197.10,70.82 198.17,74.09
             198.17,74.09 198.17,79.00 198.17,79.00
             198.80,82.36 199.70,83.22 199.24,87.00
             198.73,91.33 196.70,96.17 201.23,99.18
             203.94,101.27 209.77,99.06 214.00,99.18
             217.02,98.96 225.62,99.34 227.94,98.40
             232.05,96.75 234.24,87.03 233.62,83.00
             232.61,76.44 226.70,76.12 229.16,70.04
             229.60,68.95 230.31,67.70 231.42,67.15
             235.31,65.21 240.31,71.50 243.07,73.43
             248.84,77.47 251.75,76.62 257.80,75.00
             259.33,81.30 258.19,80.42 257.80,86.00
             257.02,91.30 260.03,96.08 261.37,101.00
             261.37,101.00 262.43,110.00 262.43,110.00
             263.77,114.92 268.49,117.54 269.42,123.00
             270.33,128.41 265.68,130.98 266.73,134.82
             267.88,139.03 277.37,141.26 278.65,147.09
             279.37,150.36 277.78,154.93 275.57,157.34
             273.07,160.07 267.30,162.91 271.43,167.70
             276.05,173.05 283.54,167.95 289.00,167.70
             289.00,167.70 300.00,167.70 300.00,167.70
             302.74,177.61 309.62,183.33 308.36,190.00
             306.84,198.03 302.52,197.63 298.31,203.02
             295.14,207.08 296.38,209.56 295.15,213.00
             293.87,216.57 291.19,218.37 290.06,221.00
             287.38,227.22 293.57,232.88 298.00,236.00
             298.00,236.00 287.00,243.00 287.00,243.00
             287.00,243.00 278.10,245.85 278.10,245.85
             278.10,245.85 272.37,252.41 272.37,252.41
             272.37,252.41 264.70,258.06 264.70,258.06
             264.70,258.06 266.00,266.00 266.00,266.00
             258.68,264.26 257.08,261.49 253.00,261.19
             249.86,260.96 247.37,262.56 244.00,262.78
             244.00,262.78 236.00,262.78 236.00,262.78
             233.51,263.01 231.43,264.26 229.00,264.16
             225.64,264.01 222.27,261.09 219.09,261.80
             215.89,262.52 214.14,266.66 209.00,267.29
             201.41,268.21 195.78,259.98 186.00,265.53
             175.00,271.78 179.13,282.33 168.83,287.98
             165.30,289.92 160.68,288.08 157.22,290.17
             154.14,292.04 154.28,295.31 151.70,297.40
             148.70,299.83 144.48,298.36 141.43,300.85
             138.40,303.34 139.56,307.10 137.83,309.69
             135.96,312.49 132.91,311.59 130.59,314.31
             129.70,315.37 125.39,329.91 125.00,332.00
             125.00,332.00 115.00,334.00 115.00,334.00
             109.44,323.97 110.49,320.04 107.42,315.32
             105.14,311.83 99.92,308.57 100.44,304.04
             100.83,300.66 104.08,299.28 106.69,294.91
             110.14,289.12 110.00,286.43 110.00,280.00
             104.59,279.83 103.37,279.39 99.00,275.98
             96.84,274.29 94.58,272.45 93.31,269.96
             92.24,267.85 92.02,265.33 92.03,263.00
             92.06,252.99 97.87,245.32 108.06,244.00
             108.06,244.00 108.06,237.09 108.06,237.09
             108.06,237.09 109.08,231.83 109.08,231.83
             109.01,227.12 105.94,223.93 102.00,222.00
             103.08,219.02 104.56,216.52 103.16,213.32
             100.86,208.08 89.90,203.85 96.31,195.33
             97.33,193.97 97.72,193.90 99.00,193.00
             96.99,185.75 96.75,184.01 91.00,179.00
             99.28,176.08 106.37,175.44 102.00,165.00
             104.38,162.39 107.71,159.23 109.01,155.96
             113.59,144.44 105.21,127.56 103.00,116.00
             103.00,116.00 114.00,117.95 114.00,117.95
             121.61,118.46 129.96,116.20 137.00,113.40
             139.81,112.28 146.45,110.23 147.13,106.96
             147.57,104.84 144.17,101.03 143.00,99.00
             143.00,99.00 151.00,98.00 151.00,98.00
             151.03,90.56 155.82,90.08 162.18,90.00
             161.82,87.50 161.08,83.51 162.18,81.31 Z" />
</svg>
