<?xml version="1.0" encoding="UTF-8" standalone="no"?>
<!DOCTYPE svg PUBLIC "-//W3C//DTD SVG 20010904//EN"
              "http://www.w3.org/TR/2001/REC-SVG-20010904/DTD/svg10.dtd">

<svg xmlns="http://www.w3.org/2000/svg"
     width="43.6334in" height="36.3288in"
     viewBox="0 0 3142 2616">
  <path id="Hesse"
        fill="Pink" stroke="black" stroke-width="1"
        d="M 1329.00,1064.93
           C 1332.58,1062.39 1336.31,1058.81 1341.00,1060.31
             1349.58,1063.08 1348.73,1066.49 1349.46,1072.00
             1349.83,1074.83 1350.70,1075.77 1350.44,1079.00
             1350.06,1083.51 1347.53,1088.91 1352.28,1092.18
             1354.48,1093.96 1363.29,1092.01 1367.00,1092.18
             1369.70,1092.00 1376.77,1092.28 1378.94,1091.40
             1382.88,1089.82 1385.00,1080.92 1384.70,1077.00
             1384.19,1070.41 1376.84,1068.36 1380.46,1062.15
             1381.09,1061.07 1381.93,1060.13 1383.21,1059.87
             1387.66,1058.95 1391.39,1065.71 1398.00,1068.22
             1404.73,1070.78 1405.97,1067.65 1408.59,1069.15
             1411.42,1071.02 1409.06,1077.35 1408.59,1080.00
             1408.25,1084.90 1411.13,1089.43 1412.37,1094.00
             1413.30,1097.41 1412.77,1099.48 1413.23,1102.00
             1414.30,1107.86 1419.43,1110.13 1420.42,1116.00
             1421.36,1121.57 1416.50,1123.82 1418.15,1127.91
             1420.02,1132.54 1429.22,1134.66 1429.77,1141.04
             1429.98,1143.60 1428.84,1147.64 1427.28,1149.68
             1424.70,1153.05 1417.04,1156.52 1423.23,1161.40
             1428.25,1165.36 1434.82,1160.76 1440.00,1160.25
             1440.00,1160.25 1451.00,1161.00 1451.00,1161.00
             1453.68,1170.39 1460.57,1176.47 1459.50,1183.00
             1458.08,1191.71 1453.79,1190.41 1449.31,1196.04
             1445.85,1200.39 1447.76,1203.23 1446.26,1206.91
             1445.03,1209.94 1442.23,1211.44 1441.06,1214.04
             1438.30,1220.18 1444.65,1225.94 1449.00,1229.00
             1449.00,1229.00 1438.00,1236.00 1438.00,1236.00
             1434.57,1237.42 1431.34,1236.89 1428.22,1239.51
             1425.84,1241.51 1425.16,1244.14 1423.93,1245.43
             1422.13,1247.31 1420.12,1246.79 1418.14,1248.02
             1413.82,1250.72 1416.00,1255.14 1417.00,1259.00
             1409.78,1257.62 1408.41,1254.46 1404.00,1254.24
             1401.50,1254.12 1398.61,1255.43 1396.00,1255.79
             1396.00,1255.79 1380.00,1257.16 1380.00,1257.16
             1376.58,1256.97 1373.25,1254.09 1370.09,1254.80
             1366.89,1255.52 1365.14,1259.66 1360.00,1260.29
             1352.54,1261.20 1347.01,1253.36 1338.00,1258.19
             1325.67,1264.80 1330.65,1275.27 1319.91,1280.98
             1316.29,1282.90 1311.62,1281.09 1308.27,1283.17
             1305.22,1285.08 1305.47,1288.71 1301.87,1291.26
             1298.46,1293.68 1295.04,1292.30 1292.31,1294.60
             1289.54,1296.94 1290.40,1300.34 1288.83,1302.69
             1286.95,1305.49 1283.87,1304.60 1281.60,1307.31
             1281.60,1307.31 1276.00,1325.00 1276.00,1325.00
             1276.00,1325.00 1266.00,1327.00 1266.00,1327.00
             1260.44,1316.97 1261.49,1313.04 1258.42,1308.32
             1256.14,1304.83 1250.92,1301.57 1251.44,1297.04
             1251.83,1293.66 1255.08,1292.28 1257.69,1287.91
             1261.14,1282.12 1261.00,1279.43 1261.00,1273.00
             1255.59,1272.83 1254.37,1272.39 1250.00,1268.98
             1247.84,1267.29 1245.58,1265.45 1244.31,1262.96
             1243.24,1260.85 1243.02,1258.33 1243.03,1256.00
             1243.06,1245.99 1248.87,1238.32 1259.06,1237.00
             1259.06,1237.00 1259.06,1230.09 1259.06,1230.09
             1259.06,1230.09 1260.08,1224.83 1260.08,1224.83
             1260.01,1220.12 1256.94,1216.93 1253.00,1215.00
             1254.08,1212.02 1255.56,1209.52 1254.16,1206.32
             1251.86,1201.08 1240.90,1196.85 1247.31,1188.33
             1248.33,1186.97 1248.72,1186.90 1250.00,1186.00
             1247.99,1178.75 1247.75,1177.01 1242.00,1172.00
             1250.28,1169.08 1257.37,1168.44 1253.00,1158.00
             1255.38,1155.39 1258.71,1152.23 1260.01,1148.96
             1264.59,1137.44 1256.21,1120.56 1254.00,1109.00
             1254.00,1109.00 1265.00,1110.95 1265.00,1110.95
             1272.61,1111.46 1280.96,1109.20 1288.00,1106.40
             1290.81,1105.28 1297.45,1103.23 1298.13,1099.96
             1298.57,1097.84 1295.17,1094.03 1294.00,1092.00
             1294.00,1092.00 1302.00,1091.00 1302.00,1091.00
             1302.03,1083.56 1306.82,1083.08 1313.00,1083.00
             1313.00,1083.00 1313.00,1072.00 1313.00,1072.00
             1320.05,1071.61 1323.35,1068.92 1329.00,1064.93 Z" />
</svg>
