<?xml version="1.0" encoding="UTF-8" standalone="no"?>
<!DOCTYPE svg PUBLIC "-//W3C//DTD SVG 20010904//EN"
              "http://www.w3.org/TR/2001/REC-SVG-20010904/DTD/svg10.dtd">

<svg xmlns="http://www.w3.org/2000/svg"
     width="5.55486in" height="5.55486in"
     viewBox="0 0 400 400">
  <path id="Selection"
        fill="Purple" stroke="black" stroke-width="1"
        d="M 212.00,180.74
           C 218.72,179.59 225.70,174.53 232.00,172.13
             236.90,170.26 239.97,171.57 242.91,170.40
             248.15,168.33 255.99,153.59 259.68,150.57
             261.89,148.77 265.19,148.93 268.00,148.12
             272.20,146.91 277.18,144.57 281.00,142.42
             290.02,137.35 292.79,131.78 296.52,129.77
             300.38,127.69 306.72,127.44 311.00,126.77
             314.81,126.22 319.04,123.82 322.51,126.77
             325.12,128.94 328.76,139.41 330.00,143.00
             320.23,146.60 323.47,147.47 320.05,155.00
             318.84,157.64 317.48,158.81 316.57,162.00
             316.57,162.00 315.43,167.59 315.43,167.59
             314.29,169.92 311.42,170.56 309.60,173.13
             307.18,176.54 308.68,181.11 309.00,185.22
             305.69,184.63 302.01,183.94 298.87,185.22
             298.87,185.22 292.83,189.41 292.83,189.41
             290.58,190.32 288.76,189.72 285.00,191.43
             282.98,192.35 281.21,193.80 279.00,194.28
             275.57,195.01 266.90,191.91 264.79,198.11
             263.62,201.56 266.50,204.36 267.94,209.00
             269.49,213.98 268.53,216.27 267.00,221.00
             267.00,221.00 273.00,222.00 273.00,222.00
             275.56,229.12 280.09,234.47 270.00,238.00
             265.66,234.00 265.42,236.12 261.17,234.41
             257.10,232.78 256.85,229.12 249.00,230.44
             247.48,230.70 245.45,231.16 244.13,231.98
             240.85,234.03 240.92,236.90 238.49,239.37
             233.03,244.93 231.26,241.16 232.00,252.00
             229.62,252.00 226.21,252.16 224.00,251.42
             224.00,251.42 217.00,247.77 217.00,247.77
             212.44,246.31 204.39,248.60 202.02,253.04
             199.28,258.18 203.30,265.62 200.21,268.05
             198.92,269.06 196.57,268.96 195.00,269.20
             195.00,269.20 188.00,270.62 188.00,270.62
             182.70,270.87 180.13,268.33 178.00,274.99
             178.00,274.99 167.56,274.99 167.56,274.99
             167.56,274.99 160.49,262.84 160.49,262.84
             160.49,262.84 149.00,262.00 149.00,262.00
             151.13,253.14 154.54,253.83 155.97,249.00
             156.66,246.68 155.92,244.28 155.44,242.00
             153.19,231.09 147.96,229.62 138.00,227.00
             137.06,221.31 135.71,221.88 131.58,218.58
             124.33,212.78 123.21,212.23 114.00,212.92
             111.63,213.10 110.30,212.99 108.00,213.92
             108.00,213.92 100.00,218.00 100.00,218.00
             99.40,210.57 96.79,210.09 90.00,210.00
             91.45,206.43 91.62,205.91 95.00,204.00
             92.76,198.65 94.13,194.58 90.03,189.21
             87.06,185.31 83.63,185.59 80.21,182.59
             73.49,176.70 71.68,170.33 70.00,162.00
             70.00,162.00 81.00,163.43 81.00,163.43
             81.00,163.43 91.00,160.00 91.00,160.00
             91.00,160.00 91.00,166.00 91.00,166.00
             94.30,163.74 98.98,162.05 101.16,158.89
             104.25,154.44 103.06,148.27 108.06,147.03
             110.74,146.41 111.84,148.20 118.00,147.03
             118.00,147.03 116.00,159.00 116.00,159.00
             116.00,159.00 100.00,173.00 100.00,173.00
             100.00,173.00 103.79,177.74 103.79,177.74
             103.79,177.74 109.21,185.36 109.21,185.36
             109.21,185.36 126.00,182.00 126.00,182.00
             125.46,183.39 123.91,186.67 123.99,187.99
             124.17,191.25 131.51,195.81 134.00,198.00
             136.24,195.82 138.85,193.76 140.00,198.00
             140.00,198.00 147.00,199.00 147.00,199.00
             147.00,199.00 144.00,201.00 144.00,201.00
             144.00,201.00 156.00,201.75 156.00,201.75
             156.00,201.75 167.00,198.00 167.00,198.00
             167.00,198.00 166.00,201.00 166.00,201.00
             173.14,198.69 179.25,200.23 180.00,191.00
             185.86,189.63 185.89,187.87 192.00,189.00
             194.43,182.02 205.87,181.80 212.00,180.74 Z" />
</svg>
