<?xml version="1.0" encoding="UTF-8" standalone="no"?>
<!DOCTYPE svg PUBLIC "-//W3C//DTD SVG 20010904//EN"
              "http://www.w3.org/TR/2001/REC-SVG-20010904/DTD/svg10.dtd">

<svg xmlns="http://www.w3.org/2000/svg"
     width="43.6334in" height="36.3288in"
     viewBox="0 0 3142 2616">
  <path id="Pomerania"
        fill="Pink" stroke="black" stroke-width="1"
        d="M 1740.00,941.74
           C 1746.72,940.59 1753.70,935.53 1760.00,933.13
             1764.90,931.26 1767.97,932.57 1770.91,931.40
             1776.15,929.33 1783.99,914.59 1787.68,911.57
             1789.89,909.77 1793.19,909.93 1796.00,909.12
             1800.20,907.91 1805.18,905.57 1809.00,903.42
             1818.02,898.35 1820.79,892.78 1824.52,890.77
             1828.38,888.69 1834.71,888.44 1839.00,887.70
             1842.70,887.24 1847.17,884.73 1850.51,887.70
             1852.88,889.64 1857.06,900.67 1858.00,904.00
             1847.25,907.96 1851.13,910.25 1848.13,916.58
             1847.16,918.63 1845.66,919.83 1844.65,923.00
             1844.65,923.00 1843.43,928.61 1843.43,928.61
             1841.97,931.66 1837.94,932.08 1836.69,936.04
             1835.92,938.47 1837.49,944.30 1838.00,947.00
             1834.32,946.11 1829.64,945.26 1826.09,947.00
             1826.09,947.00 1820.83,950.41 1820.83,950.41
             1820.83,950.41 1814.00,952.00 1814.00,952.00
             1814.00,952.00 1808.00,955.08 1808.00,955.08
             1804.71,956.09 1802.20,954.74 1799.00,955.08
             1787.05,956.73 1795.91,966.95 1796.64,973.00
             1797.04,976.33 1796.00,978.91 1795.00,982.00
             1795.00,982.00 1801.00,982.00 1801.00,982.00
             1803.12,989.44 1808.73,995.24 1798.00,999.00
             1793.75,995.08 1793.46,997.09 1789.17,995.42
             1786.45,994.37 1785.29,992.26 1781.99,991.54
             1780.11,990.98 1777.87,991.23 1776.00,991.54
             1768.93,993.15 1770.00,996.37 1767.28,999.61
             1767.28,999.61 1761.35,1004.39 1761.35,1004.39
             1758.06,1008.09 1761.24,1011.76 1757.68,1013.39
             1752.09,1015.94 1749.06,1007.95 1741.00,1008.62
             1734.24,1009.19 1729.22,1011.29 1729.08,1019.00
             1729.01,1023.03 1730.87,1026.98 1728.40,1028.98
             1727.70,1029.54 1717.33,1031.56 1716.00,1031.63
             1710.46,1031.90 1709.13,1029.92 1706.00,1035.99
             1706.00,1035.99 1695.54,1035.99 1695.54,1035.99
             1695.54,1035.99 1688.44,1023.94 1688.44,1023.94
             1688.44,1023.94 1677.00,1023.00 1677.00,1023.00
             1679.48,1012.62 1684.47,1013.82 1683.97,1007.00
             1683.53,1000.92 1681.65,994.51 1675.98,991.44
             1673.22,989.94 1669.47,989.52 1667.55,987.92
             1666.86,987.33 1662.89,980.71 1654.99,976.00
             1650.96,973.60 1641.44,973.25 1637.00,974.70
             1637.00,974.70 1628.00,979.00 1628.00,979.00
             1627.40,971.57 1624.79,971.09 1618.00,971.00
             1619.26,967.47 1619.39,966.37 1623.00,965.00
             1620.97,960.25 1621.58,955.44 1618.35,951.04
             1614.89,946.34 1611.53,946.48 1608.13,943.59
             1601.58,938.01 1599.26,931.17 1598.00,923.00
             1598.00,923.00 1609.00,924.43 1609.00,924.43
             1609.00,924.43 1619.00,921.00 1619.00,921.00
             1619.00,921.00 1619.00,927.00 1619.00,927.00
             1622.09,924.81 1627.20,922.63 1629.16,919.87
             1632.23,915.53 1631.04,909.27 1636.06,908.06
             1639.84,907.14 1639.58,909.97 1647.00,907.00
             1647.00,907.00 1644.00,920.00 1644.00,920.00
             1644.00,920.00 1628.00,934.00 1628.00,934.00
             1628.00,934.00 1631.79,938.74 1631.79,938.74
             1631.79,938.74 1637.21,946.36 1637.21,946.36
             1637.21,946.36 1654.00,943.00 1654.00,943.00
             1653.46,944.39 1651.91,947.67 1651.99,948.99
             1652.17,952.25 1659.51,956.81 1662.00,959.00
             1663.93,956.13 1666.87,954.77 1668.00,959.00
             1668.00,959.00 1675.00,960.00 1675.00,960.00
             1675.00,960.00 1672.00,962.00 1672.00,962.00
             1672.00,962.00 1684.00,962.75 1684.00,962.75
             1684.00,962.75 1695.00,959.00 1695.00,959.00
             1695.00,959.00 1694.00,962.00 1694.00,962.00
             1701.14,959.69 1707.25,961.23 1708.00,952.00
             1713.86,950.63 1713.89,948.87 1720.00,950.00
             1722.43,943.02 1733.87,942.80 1740.00,941.74 Z" />
</svg>
