<?xml version="1.0" encoding="UTF-8" standalone="no"?>
<!DOCTYPE svg PUBLIC "-//W3C//DTD SVG 20010904//EN"
              "http://www.w3.org/TR/2001/REC-SVG-20010904/DTD/svg10.dtd">

<svg xmlns="http://www.w3.org/2000/svg"
     width="5.55486in" height="5.55486in"
     viewBox="0 0 400 400">
  <path id="Selection"
        fill="none" stroke="black" stroke-width="1"
        d="M 266.00,125.71
           C 269.25,126.41 270.18,128.93 276.00,128.96
             279.18,128.98 280.12,128.45 283.00,127.71
             285.58,127.04 289.20,127.02 291.11,125.11
             299.25,116.96 280.68,104.19 295.00,97.00
             300.02,103.05 301.77,101.38 308.00,103.82
             308.00,103.82 313.00,106.18 313.00,106.18
             313.00,106.18 321.00,108.86 321.00,108.86
             322.97,109.73 326.03,111.82 328.00,111.91
             330.59,112.03 332.39,109.99 336.00,109.27
             336.00,109.27 352.00,108.00 352.00,108.00
             356.99,114.49 362.15,114.45 364.09,120.01
             365.73,124.72 362.42,126.88 360.58,130.00
             358.25,133.96 359.57,136.18 357.98,138.51
             356.84,140.16 345.89,144.92 345.81,154.00
             345.74,161.64 352.57,164.06 353.51,169.01
             354.95,176.59 345.00,175.92 345.10,185.00
             345.17,192.14 353.53,204.22 354.61,209.00
             355.23,211.77 355.09,215.40 353.69,217.91
             350.39,223.82 336.14,232.94 330.00,236.43
             326.81,238.25 320.39,241.91 317.00,242.57
             313.32,243.36 310.71,242.20 307.00,242.57
             302.73,242.90 294.02,245.44 290.00,247.09
             286.74,248.43 282.95,250.51 280.63,253.21
             278.85,255.28 277.62,258.57 274.90,259.61
             271.58,260.88 268.87,257.90 266.00,257.80
             263.46,257.72 261.18,259.66 259.00,260.80
             252.98,263.94 248.19,262.81 246.00,270.00
             246.00,270.00 238.00,272.33 238.00,272.33
             238.00,272.33 228.00,271.64 228.00,271.64
             228.00,271.64 217.00,278.00 217.00,278.00
             214.95,273.00 214.51,271.85 209.00,272.03
             205.95,272.07 202.58,270.92 200.00,272.03
             200.00,272.03 187.00,281.05 187.00,281.05
             187.00,281.05 176.01,286.51 176.01,286.51
             170.60,290.43 168.63,295.83 167.00,302.00
             154.60,297.75 156.62,294.08 153.28,289.01
             151.23,285.90 148.41,284.27 147.71,281.83
             146.78,278.49 150.59,274.72 147.71,269.04
             145.13,264.03 140.42,263.60 138.58,262.03
             136.49,260.25 134.53,251.57 127.02,253.67
             122.96,254.80 121.70,257.89 118.79,260.41
             116.90,262.05 114.16,263.68 112.00,265.00
             106.36,260.17 99.46,258.70 93.05,263.51
             89.44,266.23 89.00,269.39 84.95,271.35
             84.95,271.35 78.10,273.51 78.10,273.51
             75.35,274.80 74.82,276.40 72.63,277.87
             68.06,280.92 67.08,278.88 64.00,285.00
             54.58,283.31 45.28,286.35 36.00,288.00
             39.71,280.63 40.21,283.61 38.00,275.00
             42.54,271.46 42.81,270.60 42.00,265.00
             49.30,260.47 48.42,255.69 53.02,255.62
             56.87,255.57 68.32,264.85 72.00,264.43
             74.31,264.17 77.23,261.99 78.98,260.53
             87.44,253.50 85.33,249.54 81.38,241.00
             78.84,235.52 73.62,224.57 73.00,219.00
             86.92,220.83 80.77,219.08 91.00,215.69
             91.00,215.69 96.99,214.41 96.99,214.41
             100.13,213.23 101.67,210.67 104.17,210.44
             107.54,210.12 110.31,213.78 113.00,214.60
             117.15,215.87 119.63,211.58 119.68,208.00
             119.74,204.14 116.56,200.83 117.34,197.18
             118.22,193.01 123.37,192.80 124.92,189.73
             125.90,187.57 124.47,185.34 124.92,183.09
             125.56,180.66 127.81,179.22 128.99,176.91
             128.99,176.91 130.59,171.31 130.59,171.31
             132.35,167.87 137.71,169.51 138.58,163.98
             139.18,160.23 132.72,149.33 131.00,142.00
             131.00,142.00 152.00,140.00 152.00,140.00
             152.00,140.00 157.24,153.00 157.24,153.00
             157.24,153.00 159.68,164.91 159.68,164.91
             161.61,169.87 169.01,175.62 174.00,177.24
             181.19,179.57 190.77,175.55 197.00,180.00
             201.38,176.83 208.66,173.84 214.00,173.00
             214.89,169.33 217.15,168.71 219.47,165.91
             219.47,165.91 229.69,151.00 229.69,151.00
             229.69,151.00 232.60,128.15 232.60,128.15
             233.99,124.96 237.02,125.06 240.00,125.00
             247.44,124.87 248.68,125.75 256.00,123.00
             260.00,129.16 260.96,124.62 266.00,125.71 Z" />
</svg>
