<?xml version="1.0" encoding="UTF-8" standalone="no"?>
<!DOCTYPE svg PUBLIC "-//W3C//DTD SVG 20010904//EN"
              "http://www.w3.org/TR/2001/REC-SVG-20010904/DTD/svg10.dtd">

<svg xmlns="http://www.w3.org/2000/svg"
     width="5.55486in" height="5.55486in"
     viewBox="0 0 400 400">
  <path id="SH"
        fill="Purple" stroke="black" stroke-width="1"
        d="M 90.99,111.53
           C 93.79,107.28 99.75,107.87 103.96,106.85
             107.25,106.07 108.09,104.27 111.09,103.43
             116.15,102.01 127.28,103.70 130.73,107.85
             131.92,109.29 132.49,112.18 133.00,114.00
             125.41,115.88 123.77,118.59 125.00,126.00
             118.36,127.14 119.07,131.45 121.45,132.93
             124.79,135.00 125.27,130.70 132.00,135.00
             132.00,135.00 128.00,141.00 128.00,141.00
             125.35,140.95 124.01,140.33 123.00,143.00
             123.00,143.00 116.00,152.00 116.00,152.00
             116.00,152.00 117.00,152.00 117.00,152.00
             117.00,152.00 119.00,150.00 119.00,150.00
             125.22,153.00 124.90,148.37 129.00,148.88
             131.89,149.24 131.26,151.45 138.00,152.00
             139.62,156.86 141.32,156.57 146.00,156.00
             146.00,156.00 147.35,166.00 147.35,166.00
             147.35,166.00 139.00,182.00 139.00,182.00
             139.00,182.00 152.00,180.00 152.00,180.00
             152.00,180.00 150.00,194.00 150.00,194.00
             160.46,192.53 156.80,185.87 164.02,186.19
             170.31,186.47 174.88,193.83 181.00,195.49
             185.58,196.73 190.89,193.87 195.00,192.00
             195.54,193.89 195.90,194.97 195.94,197.00
             196.13,207.16 184.15,209.42 181.04,215.29
             178.17,220.72 185.15,220.47 183.00,229.00
             183.00,229.00 194.00,229.00 194.00,229.00
             194.00,229.00 193.00,225.00 193.00,225.00
             193.00,225.00 200.00,223.00 200.00,223.00
             200.00,223.00 203.00,232.00 203.00,232.00
             203.00,232.00 199.00,233.00 199.00,233.00
             199.00,233.00 203.00,233.00 203.00,233.00
             205.53,236.42 210.62,233.78 213.24,231.42
             213.24,231.42 218.60,225.59 218.60,225.59
             218.60,225.59 222.52,222.37 222.52,222.37
             222.52,222.37 226.64,216.89 226.64,216.89
             230.15,213.96 239.45,212.05 244.00,212.00
             246.14,216.38 247.19,217.22 252.00,218.00
             252.00,218.00 256.00,204.00 256.00,204.00
             256.00,204.00 266.00,206.00 266.00,206.00
             266.00,206.00 267.00,200.00 267.00,200.00
             269.98,209.01 269.70,212.21 277.30,219.70
             282.43,224.75 286.47,224.36 288.69,228.21
             291.35,232.85 289.26,239.26 285.00,242.00
             287.06,248.21 288.32,249.52 295.00,250.00
             298.03,263.93 309.50,254.93 314.00,253.64
             316.15,253.02 318.77,252.94 321.00,253.04
             325.21,253.23 330.45,254.99 330.99,259.97
             331.42,263.91 325.67,267.56 323.52,270.37
             320.49,274.33 321.85,278.54 317.66,282.72
             311.82,288.56 300.55,286.95 302.00,299.00
             296.47,295.89 296.58,294.22 292.96,292.09
             289.44,290.01 286.30,290.36 284.37,289.44
             281.97,288.30 280.92,285.72 277.96,284.17
             275.12,282.69 272.49,283.27 270.09,282.57
             266.63,281.56 265.84,279.29 261.99,278.31
             261.99,278.31 257.00,277.67 257.00,277.67
             251.90,276.73 249.20,273.89 246.06,274.73
             241.78,275.87 242.77,280.72 238.86,282.40
             232.06,285.32 223.00,276.75 222.00,289.16
             220.03,289.33 217.98,289.86 216.00,289.16
             216.00,289.16 199.09,279.41 199.09,279.41
             199.09,279.41 193.83,275.13 193.83,275.13
             190.37,273.10 186.12,274.25 185.00,270.00
             179.23,267.98 182.33,265.71 179.26,262.60
             177.74,261.06 175.05,260.86 173.00,260.75
             162.88,260.19 148.17,262.97 139.02,256.97
             134.11,253.76 133.12,250.04 130.47,247.22
             127.68,244.25 125.60,244.42 123.49,242.44
             123.49,242.44 114.85,231.72 114.85,231.72
             113.02,229.01 113.30,226.58 111.42,224.49
             104.46,216.79 94.72,223.76 92.00,216.00
             98.16,213.50 99.55,208.28 100.00,202.00
             100.00,202.00 90.00,200.00 90.00,200.00
             90.00,200.00 90.00,194.00 90.00,194.00
             90.00,194.00 98.00,192.00 98.00,192.00
             98.00,192.00 98.00,186.00 98.00,186.00
             98.00,186.00 87.00,183.00 87.00,183.00
             88.69,182.51 94.20,181.74 95.03,180.69
             96.46,178.89 91.77,171.12 88.00,170.00
             87.39,167.41 84.99,160.08 83.53,158.09
             79.80,152.98 76.96,154.31 76.00,146.00
             76.00,146.00 68.00,150.00 68.00,150.00
             68.00,150.00 68.00,142.00 68.00,142.00
             68.00,142.00 73.00,142.00 73.00,142.00
             73.00,142.00 77.00,136.00 77.00,136.00
             77.00,136.00 73.00,135.00 73.00,135.00
             73.00,135.00 73.00,133.00 73.00,133.00
             73.00,133.00 83.00,126.00 83.00,126.00
             83.86,120.99 85.11,120.57 90.00,120.00
             90.00,117.64 89.69,113.51 90.99,111.53 Z" />
</svg>
