<?xml version="1.0" encoding="UTF-8" standalone="no"?>
<!DOCTYPE svg PUBLIC "-//W3C//DTD SVG 20010904//EN"
              "http://www.w3.org/TR/2001/REC-SVG-20010904/DTD/svg10.dtd">

<svg xmlns="http://www.w3.org/2000/svg"
     width="43.6334in" height="36.3288in"
     viewBox="0 0 3142 2616">
  <path id="SH"
        fill="Pink" stroke="black" stroke-width="1"
        d="M 1415.15,840.18
           C 1417.12,833.67 1427.40,834.44 1429.91,833.60
             1433.08,832.53 1434.39,829.76 1440.00,829.20
             1444.19,828.78 1453.08,831.50 1455.73,834.83
             1456.92,836.33 1457.48,839.12 1458.00,841.00
             1450.41,842.88 1448.77,845.59 1450.00,853.00
             1443.36,854.14 1444.07,858.45 1446.45,859.93
             1449.79,862.00 1450.27,857.70 1457.00,862.00
             1457.00,862.00 1453.00,868.00 1453.00,868.00
             1450.35,867.95 1449.01,867.33 1448.00,870.00
             1448.00,870.00 1441.00,879.00 1441.00,879.00
             1441.00,879.00 1442.00,879.00 1442.00,879.00
             1442.00,879.00 1444.00,877.00 1444.00,877.00
             1450.22,880.00 1449.90,875.37 1454.00,875.88
             1456.89,876.24 1456.26,878.45 1463.00,879.00
             1464.62,883.86 1466.32,883.57 1471.00,883.00
             1471.00,883.00 1472.35,893.00 1472.35,893.00
             1472.35,893.00 1464.00,909.00 1464.00,909.00
             1464.00,909.00 1477.00,907.00 1477.00,907.00
             1477.00,907.00 1475.00,921.00 1475.00,921.00
             1485.46,919.53 1481.80,912.87 1489.02,913.19
             1495.31,913.47 1499.88,920.83 1506.00,922.49
             1510.58,923.73 1515.89,920.87 1520.00,919.00
             1520.54,920.89 1520.90,921.97 1520.94,924.00
             1521.13,934.16 1509.15,936.42 1506.04,942.29
             1503.17,947.72 1510.15,947.47 1508.00,956.00
             1508.00,956.00 1519.00,956.00 1519.00,956.00
             1519.00,956.00 1518.00,952.00 1518.00,952.00
             1518.00,952.00 1525.00,950.00 1525.00,950.00
             1525.00,950.00 1528.00,959.00 1528.00,959.00
             1528.00,959.00 1524.00,960.00 1524.00,960.00
             1524.00,960.00 1528.00,960.00 1528.00,960.00
             1530.53,963.42 1535.62,960.78 1538.24,958.42
             1538.24,958.42 1543.60,952.59 1543.60,952.59
             1543.60,952.59 1547.52,949.37 1547.52,949.37
             1547.52,949.37 1551.64,943.89 1551.64,943.89
             1555.15,940.96 1564.45,939.05 1569.00,939.00
             1571.14,943.38 1572.19,944.22 1577.00,945.00
             1577.00,945.00 1581.00,931.00 1581.00,931.00
             1581.00,931.00 1591.00,933.00 1591.00,933.00
             1591.00,933.00 1592.00,927.00 1592.00,927.00
             1595.15,935.62 1594.99,939.30 1602.32,946.70
             1607.46,951.88 1611.50,951.08 1613.83,955.13
             1616.54,959.87 1614.35,966.25 1610.00,969.00
             1612.21,975.66 1614.01,976.61 1621.00,977.00
             1623.16,990.23 1633.78,982.28 1638.00,980.81
             1640.56,979.92 1643.32,979.94 1646.00,980.02
             1650.23,980.14 1655.86,981.83 1656.18,987.00
             1656.47,991.68 1651.03,994.34 1648.58,997.45
             1646.08,1000.63 1647.06,1005.44 1643.35,1009.47
             1637.99,1015.30 1625.81,1013.97 1627.00,1026.00
             1622.31,1023.68 1622.49,1022.22 1618.91,1019.70
             1615.00,1016.95 1611.37,1017.40 1609.26,1016.42
             1606.72,1015.24 1605.87,1012.72 1602.95,1011.17
             1599.60,1009.40 1596.70,1010.63 1593.17,1008.84
             1593.17,1008.84 1588.83,1005.98 1588.83,1005.98
             1585.90,1004.56 1583.49,1005.35 1580.00,1004.37
             1577.57,1003.68 1574.40,1001.68 1572.02,1001.82
             1566.73,1002.13 1567.76,1007.84 1564.57,1009.52
             1561.02,1011.19 1553.36,1008.31 1550.15,1009.52
             1545.92,1011.32 1547.95,1017.29 1541.98,1016.59
             1536.57,1015.96 1523.98,1005.66 1519.00,1002.58
             1516.60,1001.10 1511.11,1000.01 1508.00,999.00
             1508.00,999.00 1510.00,997.00 1510.00,997.00
             1503.01,994.55 1508.50,990.11 1500.00,988.41
             1495.44,987.35 1494.45,988.49 1491.00,988.41
             1483.77,988.56 1470.03,987.86 1464.00,983.97
             1458.04,980.12 1457.63,976.28 1454.61,973.43
             1454.61,973.43 1448.49,969.44 1448.49,969.44
             1448.49,969.44 1440.51,959.72 1440.51,959.72
             1437.95,956.46 1438.44,954.15 1435.70,951.39
             1427.63,943.26 1419.80,950.98 1417.00,943.00
             1423.16,940.50 1424.55,935.28 1425.00,929.00
             1425.00,929.00 1415.00,927.00 1415.00,927.00
             1415.00,927.00 1415.00,921.00 1415.00,921.00
             1415.00,921.00 1423.00,919.00 1423.00,919.00
             1423.00,919.00 1423.00,913.00 1423.00,913.00
             1423.00,913.00 1412.00,910.00 1412.00,910.00
             1412.00,910.00 1421.00,909.00 1421.00,909.00
             1419.83,905.01 1417.19,898.33 1413.00,897.00
             1413.00,897.00 1409.16,886.09 1409.16,886.09
             1409.16,886.09 1400.00,874.00 1400.00,874.00
             1400.00,874.00 1393.00,877.00 1393.00,877.00
             1393.00,877.00 1393.00,869.00 1393.00,869.00
             1393.00,869.00 1398.00,869.00 1398.00,869.00
             1398.00,869.00 1401.00,863.00 1401.00,863.00
             1401.00,863.00 1398.00,862.00 1398.00,862.00
             1398.00,862.00 1398.00,860.00 1398.00,860.00
             1409.37,852.08 1405.85,847.75 1415.15,847.00
             1415.00,845.42 1414.91,841.54 1415.15,840.18 Z
           M 1400.00,873.00
           C 1400.00,873.00 1401.00,874.00 1401.00,874.00
             1401.00,874.00 1401.00,873.00 1401.00,873.00
             1401.00,873.00 1400.00,873.00 1400.00,873.00 Z" />
</svg>
