<?xml version="1.0" encoding="UTF-8" standalone="no"?>
<!DOCTYPE svg PUBLIC "-//W3C//DTD SVG 20010904//EN"
              "http://www.w3.org/TR/2001/REC-SVG-20010904/DTD/svg10.dtd">

<svg xmlns="http://www.w3.org/2000/svg"
     width="43.6334in" height="36.3288in"
     viewBox="0 0 3142 2616">
  <path id="Silesia"
        fill="Pink" stroke="black" stroke-width="1"
        d="M 1855.82,1001.00
           C 1857.54,1007.74 1854.29,1009.20 1855.82,1012.85
             1856.98,1016.48 1862.82,1017.63 1866.00,1012.00
             1871.80,1016.10 1864.86,1021.39 1867.60,1027.86
             1868.85,1030.81 1871.54,1031.00 1873.41,1033.30
             1875.75,1036.19 1874.22,1038.14 1879.06,1042.82
             1882.61,1046.26 1886.84,1047.30 1886.03,1053.00
             1886.03,1053.00 1884.40,1063.00 1884.40,1063.00
             1883.23,1067.90 1882.47,1068.37 1882.00,1074.00
             1880.04,1073.67 1877.99,1073.18 1876.00,1073.48
             1872.46,1074.03 1868.73,1077.06 1866.00,1079.26
             1859.96,1084.14 1853.71,1089.64 1849.21,1096.01
             1846.58,1099.73 1844.44,1103.38 1844.10,1108.00
             1843.10,1121.64 1853.03,1125.51 1858.24,1131.13
             1862.17,1135.35 1864.58,1140.67 1866.65,1146.00
             1869.10,1152.28 1866.50,1153.73 1867.24,1159.00
             1867.63,1161.88 1868.86,1163.50 1869.51,1166.00
             1869.51,1166.00 1871.13,1178.00 1871.13,1178.00
             1871.02,1181.87 1867.51,1184.52 1868.57,1187.87
             1869.48,1190.78 1873.54,1191.82 1875.87,1193.36
             1879.11,1195.50 1879.70,1197.72 1883.05,1200.47
             1883.05,1200.47 1890.94,1205.63 1890.94,1205.63
             1897.41,1210.75 1894.32,1216.20 1897.60,1220.91
             1901.34,1226.28 1910.02,1228.40 1916.00,1230.00
             1916.00,1230.00 1914.26,1236.00 1914.26,1236.00
             1913.61,1239.82 1913.53,1254.83 1915.17,1257.96
             1918.72,1264.70 1932.55,1266.42 1928.57,1279.95
             1926.98,1285.34 1920.57,1285.12 1916.00,1286.12
             1916.00,1286.12 1908.00,1288.44 1908.00,1288.44
             1900.11,1289.34 1893.76,1285.78 1892.00,1278.00
             1892.00,1278.00 1882.00,1280.00 1882.00,1280.00
             1882.00,1280.00 1882.00,1276.00 1882.00,1276.00
             1875.29,1278.17 1877.11,1281.89 1873.59,1283.41
             1867.56,1286.01 1868.29,1277.36 1860.00,1274.00
             1860.00,1274.00 1860.00,1270.00 1860.00,1270.00
             1860.00,1270.00 1867.00,1270.00 1867.00,1270.00
             1866.00,1266.65 1864.45,1258.99 1860.86,1257.73
             1857.94,1256.71 1855.58,1259.03 1852.00,1259.73
             1847.19,1260.66 1838.76,1260.18 1836.60,1254.90
             1835.93,1253.25 1836.02,1250.78 1836.00,1249.00
             1832.41,1249.87 1829.70,1250.31 1826.00,1249.61
             1823.03,1249.08 1818.07,1246.81 1815.54,1249.61
             1812.54,1252.90 1818.71,1256.84 1819.34,1260.95
             1819.88,1264.42 1816.50,1265.32 1814.56,1267.41
             1809.77,1272.59 1813.21,1275.70 1804.00,1276.00
             1802.03,1267.24 1793.31,1253.50 1784.00,1252.00
             1784.00,1252.00 1784.00,1248.00 1784.00,1248.00
             1786.93,1247.20 1790.87,1246.10 1792.69,1243.45
             1795.19,1239.79 1791.80,1231.80 1788.52,1229.55
             1784.16,1226.57 1777.45,1232.85 1772.21,1231.69
             1769.52,1231.10 1769.79,1229.36 1763.00,1227.00
             1763.00,1227.00 1739.15,1219.42 1739.15,1219.42
             1736.10,1217.97 1736.13,1215.26 1734.93,1212.44
             1733.35,1208.75 1731.08,1205.86 1727.96,1203.33
             1723.23,1199.49 1721.38,1200.54 1718.28,1199.53
             1718.28,1199.53 1707.45,1194.03 1707.45,1194.03
             1709.48,1195.50 1693.48,1181.57 1695.43,1183.79
             1692.93,1180.95 1693.15,1178.28 1689.86,1175.70
             1684.20,1171.25 1679.21,1171.73 1673.00,1170.79
             1665.70,1169.68 1670.07,1168.01 1657.00,1168.00
             1661.32,1161.46 1671.66,1163.36 1676.00,1162.65
             1679.00,1162.16 1681.22,1160.69 1684.00,1159.84
             1684.00,1159.84 1705.00,1156.35 1705.00,1156.35
             1711.15,1156.52 1716.25,1162.33 1721.85,1158.26
             1726.53,1154.87 1724.03,1150.31 1724.60,1147.00
             1725.18,1143.58 1727.81,1141.72 1727.84,1139.00
             1727.86,1136.91 1726.14,1135.00 1725.62,1133.00
             1724.76,1129.65 1727.06,1124.77 1729.61,1122.60
             1732.20,1120.39 1735.87,1121.23 1739.00,1120.79
             1741.63,1120.43 1748.57,1118.34 1751.00,1117.20
             1753.16,1116.18 1756.33,1114.67 1756.38,1111.90
             1756.41,1109.82 1754.17,1106.77 1753.07,1105.00
             1750.44,1100.75 1744.43,1091.38 1740.83,1088.43
             1734.86,1083.52 1726.49,1086.31 1730.43,1075.02
             1730.85,1073.80 1731.24,1072.44 1731.98,1071.38
             1739.32,1060.84 1751.61,1072.55 1757.26,1065.69
             1759.79,1062.62 1759.18,1051.11 1758.84,1047.00
             1758.53,1043.35 1757.54,1039.81 1761.25,1037.45
             1763.58,1035.97 1780.15,1032.58 1782.91,1032.67
             1785.67,1032.77 1787.03,1034.77 1789.09,1034.97
             1793.58,1035.39 1795.43,1030.52 1796.00,1027.00
             1797.72,1026.63 1799.39,1026.32 1801.00,1025.58
             1801.00,1025.58 1815.96,1017.49 1815.96,1017.49
             1819.79,1014.61 1820.57,1011.22 1824.10,1009.74
             1831.52,1006.63 1834.67,1014.11 1840.94,1014.09
             1842.03,1014.09 1842.57,1013.95 1843.46,1013.31
             1843.46,1013.31 1854.00,1001.00 1854.00,1001.00
             1854.00,1001.00 1855.82,1001.00 1855.82,1001.00 Z
           M 1771.00,1138.00
           C 1771.00,1138.00 1772.00,1139.00 1772.00,1139.00
             1772.00,1139.00 1772.00,1138.00 1772.00,1138.00
             1772.00,1138.00 1771.00,1138.00 1771.00,1138.00 Z
           M 1770.00,1139.00
           C 1770.00,1139.00 1771.00,1140.00 1771.00,1140.00
             1771.00,1140.00 1771.00,1139.00 1771.00,1139.00
             1771.00,1139.00 1770.00,1139.00 1770.00,1139.00 Z
           M 1769.00,1140.00
           C 1769.00,1140.00 1770.00,1141.00 1770.00,1141.00
             1770.00,1141.00 1770.00,1140.00 1770.00,1140.00
             1770.00,1140.00 1769.00,1140.00 1769.00,1140.00 Z" />
</svg>
