<?xml version="1.0" encoding="UTF-8" standalone="no"?>
<!DOCTYPE svg PUBLIC "-//W3C//DTD SVG 20010904//EN"
              "http://www.w3.org/TR/2001/REC-SVG-20010904/DTD/svg10.dtd">

<svg xmlns="http://www.w3.org/2000/svg"
     width="5.55486in" height="5.55486in"
     viewBox="0 0 400 400">
  <path id="Selection"
        fill="purple" stroke="black" stroke-width="1"
        d="M 400.00,0.00
           C 400.00,0.00 400.00,400.00 400.00,400.00
             400.00,400.00 0.00,400.00 0.00,400.00
             0.00,400.00 0.00,0.00 0.00,0.00
             0.00,0.00 400.00,0.00 400.00,0.00 Z
           M 262.00,56.00
           C 262.00,56.00 251.46,68.31 251.46,68.31
             250.57,68.95 250.03,69.09 248.94,69.09
             242.67,69.11 239.52,61.63 232.10,64.74
             228.57,66.22 227.73,69.68 223.96,72.49
             220.77,74.87 218.06,74.75 215.28,76.26
             210.84,78.68 212.06,80.08 204.00,82.00
             203.35,85.05 202.29,88.57 198.97,89.75
             195.45,91.00 194.37,87.38 189.96,87.65
             186.36,87.88 172.05,90.68 169.23,92.45
             165.34,94.89 166.29,98.20 166.72,102.00
             167.19,106.18 167.72,117.44 165.15,120.69
             161.77,124.94 155.30,122.16 151.00,121.56
             147.16,121.02 142.19,122.99 139.98,126.26
             139.27,127.31 138.84,128.81 138.43,130.00
             134.43,141.62 143.49,138.67 149.57,144.34
             153.61,148.10 156.63,153.38 159.59,158.00
             160.98,160.16 164.45,164.44 164.09,166.95
             163.75,169.37 160.95,170.99 159.00,172.02
             156.40,173.40 149.92,175.39 147.00,175.79
             143.82,176.24 140.23,175.39 137.60,177.60
             134.89,179.86 132.61,184.45 133.60,188.00
             134.15,189.98 135.86,191.95 135.84,194.00
             135.81,196.72 133.18,198.58 132.60,202.00
             132.04,205.28 134.52,209.92 129.85,213.26
             124.54,217.07 119.50,211.35 113.00,211.19
             113.00,211.19 92.00,214.63 92.00,214.63
             92.00,214.63 84.00,217.60 84.00,217.60
             80.13,218.34 70.85,216.03 64.00,223.00
             78.71,223.00 73.27,224.61 81.00,225.79
             87.21,226.73 92.20,226.25 97.86,230.70
             101.16,233.29 101.01,235.99 103.14,238.75
             105.16,241.37 107.47,241.77 109.95,243.64
             109.95,243.64 115.45,249.08 115.45,249.08
             115.45,249.08 126.28,254.53 126.28,254.53
             129.44,255.55 131.24,254.50 135.96,258.33
             139.08,260.86 141.35,263.75 142.93,267.44
             144.13,270.26 144.10,272.97 147.15,274.42
             147.15,274.42 171.00,282.00 171.00,282.00
             177.79,284.36 177.52,286.10 180.21,286.69
             185.45,287.85 192.16,281.57 196.52,284.55
             199.80,286.80 203.19,294.79 200.69,298.45
             198.87,301.10 194.93,302.20 192.00,303.00
             192.00,303.00 192.00,307.00 192.00,307.00
             201.31,308.50 210.03,322.24 212.00,331.00
             221.21,330.70 217.77,327.59 222.56,322.41
             224.50,320.32 227.88,319.42 227.34,315.95
             226.71,311.84 220.54,307.90 223.54,304.61
             226.07,301.81 231.03,304.08 234.00,304.61
             237.70,305.31 240.41,304.87 244.00,304.00
             244.02,305.78 243.93,308.25 244.60,309.90
             246.75,315.17 255.19,315.68 260.00,314.73
             263.84,313.96 265.34,311.74 268.11,312.40
             272.44,313.43 273.89,321.29 275.00,325.00
             275.00,325.00 268.00,325.00 268.00,325.00
             268.00,325.00 268.00,329.00 268.00,329.00
             276.29,332.36 275.56,341.01 281.59,338.41
             285.11,336.89 283.29,333.17 290.00,331.00
             290.00,331.00 290.00,335.00 290.00,335.00
             290.00,335.00 300.00,333.00 300.00,333.00
             301.76,340.78 308.11,344.34 316.00,343.44
             316.00,343.44 324.00,341.12 324.00,341.12
             328.57,340.12 334.98,340.34 336.57,334.95
             340.52,321.54 326.73,319.50 323.17,312.91
             321.53,309.86 321.62,294.77 322.26,291.00
             322.26,291.00 324.00,285.00 324.00,285.00
             318.08,283.17 309.40,281.29 305.60,275.90
             302.03,270.84 305.62,265.34 298.89,260.44
             298.89,260.44 290.21,254.63 290.21,254.63
             287.60,252.24 287.24,250.53 283.90,248.36
             281.51,246.81 276.88,245.53 276.25,242.37
             275.69,239.52 279.00,236.69 279.21,233.00
             279.21,233.00 277.51,221.00 277.51,221.00
             276.86,218.49 275.63,216.87 275.24,214.00
             274.50,208.70 277.08,207.51 274.68,201.00
             272.47,195.03 269.90,189.82 265.41,185.21
             260.17,179.83 254.31,177.60 252.48,169.00
             249.72,156.05 262.28,144.69 271.00,136.95
             277.62,131.08 280.91,127.46 290.00,129.00
             290.53,122.72 291.41,123.00 292.54,118.00
             292.54,118.00 293.21,112.00 293.21,112.00
             293.50,109.90 294.58,107.08 294.06,105.09
             293.27,102.11 289.24,99.94 287.06,97.82
             282.22,93.14 283.75,91.19 281.41,88.30
             279.54,86.00 276.85,85.81 275.60,82.86
             272.86,76.39 279.80,71.10 274.00,67.00
             270.82,72.63 264.98,71.48 263.82,67.85
             262.29,64.20 265.54,62.74 263.82,56.00
             263.82,56.00 262.00,56.00 262.00,56.00 Z" />
</svg>
