<?xml version="1.0" encoding="UTF-8" standalone="no"?>
<!DOCTYPE svg PUBLIC "-//W3C//DTD SVG 20010904//EN"
              "http://www.w3.org/TR/2001/REC-SVG-20010904/DTD/svg10.dtd">

<svg xmlns="http://www.w3.org/2000/svg"
     width="43.6334in" height="36.3288in"
     viewBox="0 0 3142 2616">
  <path id="Thuringen"
        fill="Green" stroke="black" stroke-width="1"
        d="M 1461.00,1169.00
           C 1459.77,1166.82 1457.18,1162.82 1457.81,1160.26
             1459.05,1155.17 1468.11,1154.97 1472.00,1152.77
             1477.79,1149.51 1477.94,1145.57 1480.64,1142.18
             1480.64,1142.18 1487.61,1135.82 1487.61,1135.82
             1489.94,1133.21 1492.49,1128.51 1492.86,1125.00
             1493.33,1120.48 1491.36,1116.69 1493.59,1112.04
             1495.83,1107.39 1499.77,1107.09 1502.69,1103.79
             1505.31,1100.82 1504.63,1098.59 1505.55,1096.28
             1506.95,1092.80 1509.13,1092.93 1511.97,1084.00
             1511.97,1084.00 1514.99,1071.00 1514.99,1071.00
             1515.89,1068.53 1517.97,1065.76 1517.27,1063.04
             1516.33,1059.40 1512.31,1058.60 1510.11,1057.08
             1506.30,1054.47 1503.75,1047.45 1506.18,1043.19
             1509.33,1037.66 1513.46,1040.95 1518.00,1040.52
             1520.87,1040.25 1522.30,1038.90 1526.00,1039.59
             1528.68,1040.09 1531.14,1041.92 1533.98,1041.13
             1539.37,1039.65 1538.70,1032.83 1545.00,1031.47
             1552.10,1029.95 1556.90,1039.44 1560.59,1043.95
             1560.59,1043.95 1567.01,1050.26 1567.01,1050.26
             1567.01,1050.26 1573.37,1061.00 1573.37,1061.00
             1574.37,1063.16 1574.57,1064.62 1575.99,1066.83
             1577.79,1069.65 1580.64,1071.75 1582.18,1076.00
             1583.64,1080.02 1582.48,1083.87 1583.07,1088.00
             1583.07,1088.00 1584.38,1094.00 1584.38,1094.00
             1584.73,1097.17 1583.44,1101.15 1581.46,1103.63
             1579.71,1105.81 1576.17,1107.43 1577.96,1110.80
             1579.08,1112.90 1581.95,1114.03 1583.79,1115.35
             1587.05,1117.67 1589.45,1122.58 1594.00,1122.15
             1598.16,1121.76 1600.73,1116.74 1603.78,1117.73
             1606.84,1118.73 1605.26,1123.69 1609.28,1127.73
             1612.86,1131.34 1623.86,1133.84 1629.00,1135.00
             1627.89,1141.80 1624.20,1146.88 1624.18,1149.56
             1624.17,1152.49 1633.48,1159.41 1636.09,1160.41
             1637.45,1160.93 1638.60,1160.89 1640.00,1161.00
             1637.79,1165.48 1635.97,1169.76 1642.04,1172.26
             1646.14,1173.95 1656.43,1173.74 1661.00,1174.05
             1665.88,1174.39 1666.94,1175.90 1671.00,1176.66
             1675.77,1177.55 1676.86,1176.14 1682.95,1178.89
             1688.51,1181.40 1687.36,1183.68 1690.79,1187.87
             1693.50,1191.19 1695.09,1190.96 1697.74,1192.99
             1702.45,1196.58 1700.66,1198.49 1708.00,1201.00
             1708.00,1201.00 1703.00,1214.00 1703.00,1214.00
             1696.67,1208.66 1698.35,1202.95 1693.66,1200.02
             1692.07,1199.03 1689.82,1199.00 1688.00,1198.54
             1688.00,1198.54 1682.00,1196.72 1682.00,1196.72
             1677.82,1196.17 1673.31,1198.36 1673.26,1203.04
             1673.24,1205.18 1674.19,1207.08 1675.00,1209.00
             1675.00,1209.00 1670.00,1207.00 1670.00,1207.00
             1670.00,1207.00 1669.00,1214.00 1669.00,1214.00
             1662.18,1215.96 1654.83,1214.71 1653.00,1223.00
             1645.30,1223.00 1637.52,1221.74 1635.00,1230.99
             1635.00,1230.99 1630.09,1230.99 1630.09,1230.99
             1630.09,1230.99 1619.10,1236.31 1619.10,1236.31
             1619.10,1236.31 1619.10,1240.00 1619.10,1240.00
             1612.61,1241.82 1608.66,1239.55 1605.00,1246.00
             1598.64,1244.52 1599.70,1245.56 1594.00,1246.63
             1586.84,1247.97 1584.75,1244.80 1576.00,1256.00
             1572.09,1255.82 1571.06,1256.72 1568.00,1259.00
             1568.00,1259.00 1567.00,1252.85 1567.00,1252.85
             1567.00,1252.85 1557.06,1252.85 1557.06,1252.85
             1557.06,1252.85 1553.77,1248.98 1553.77,1248.98
             1553.77,1248.98 1553.00,1231.00 1553.00,1231.00
             1563.14,1228.12 1570.27,1233.69 1573.82,1227.77
             1575.38,1225.18 1574.33,1222.53 1575.29,1220.09
             1578.96,1210.74 1593.50,1216.22 1593.55,1206.00
             1593.57,1203.98 1592.58,1200.97 1591.28,1199.41
             1589.53,1197.32 1578.73,1189.97 1576.00,1189.40
             1568.17,1187.74 1567.14,1194.37 1564.51,1195.79
             1562.74,1196.91 1558.92,1196.17 1557.00,1195.79
             1547.65,1193.39 1546.29,1184.85 1540.96,1182.13
             1536.98,1180.20 1534.55,1182.81 1531.00,1182.13
             1528.24,1181.50 1526.27,1179.13 1523.00,1179.13
             1520.07,1179.14 1517.63,1181.20 1515.00,1182.16
             1511.85,1183.31 1509.32,1182.73 1507.15,1184.02
             1500.45,1188.00 1505.74,1196.37 1508.00,1201.00
             1508.00,1201.00 1497.00,1194.00 1497.00,1194.00
             1497.00,1194.00 1497.77,1189.00 1497.77,1189.00
             1497.97,1178.16 1482.27,1186.67 1478.09,1186.36
             1473.06,1185.99 1475.30,1181.66 1466.00,1183.00
             1465.64,1176.59 1464.09,1174.46 1461.00,1169.00 Z
           M 1504.00,1109.00
           C 1504.00,1109.00 1505.00,1110.00 1505.00,1110.00
             1505.00,1110.00 1505.00,1109.00 1505.00,1109.00
             1505.00,1109.00 1504.00,1109.00 1504.00,1109.00 Z" />
</svg>
