<?xml version="1.0" encoding="UTF-8" standalone="no"?>
<!DOCTYPE svg PUBLIC "-//W3C//DTD SVG 20010904//EN"
              "http://www.w3.org/TR/2001/REC-SVG-20010904/DTD/svg10.dtd">

<svg xmlns="http://www.w3.org/2000/svg"
     width="5.55486in" height="5.55486in"
     viewBox="0 0 400 400">
  <path id="Selection"
        fill="purple" stroke="black" stroke-width="1"
        d="M 79.14,224.00
           C 77.91,221.78 75.18,217.85 75.81,215.26
             77.09,209.93 86.54,210.13 90.96,207.47
             95.83,204.53 95.36,201.94 98.41,198.01
             98.41,198.01 105.61,190.83 105.61,190.83
             108.02,188.07 110.41,183.66 110.87,180.00
             111.32,176.37 110.44,170.23 111.74,167.05
             113.60,162.50 118.47,162.13 121.40,157.91
             123.35,155.10 122.56,153.11 123.95,150.42
             125.43,147.57 127.62,146.80 130.48,138.00
             130.48,138.00 132.99,126.00 132.99,126.00
             133.89,123.53 135.98,120.77 135.27,118.04
             134.25,114.10 129.68,113.55 127.28,111.44
             123.96,108.55 122.42,101.12 124.99,97.35
             127.66,93.41 131.24,95.32 134.00,95.53
             137.76,95.82 139.57,94.08 143.00,94.49
             145.70,94.81 148.27,96.70 151.00,96.36
             155.71,95.77 156.36,91.34 159.30,88.72
             161.91,86.39 164.78,85.78 167.99,87.32
             172.89,89.67 175.89,95.94 179.37,99.90
             179.37,99.90 184.93,105.37 184.93,105.37
             184.93,105.37 193.82,121.83 193.82,121.83
             195.97,125.11 200.23,127.92 200.74,134.00
             200.74,134.00 200.74,142.00 200.74,142.00
             200.74,142.00 202.37,150.00 202.37,150.00
             202.43,152.46 200.95,156.70 199.42,158.63
             197.92,160.53 194.63,162.03 195.49,164.94
             196.17,167.24 199.17,168.65 200.97,169.95
             205.24,173.04 208.10,178.47 213.00,177.16
             216.55,176.20 218.92,171.81 221.77,172.73
             224.91,173.74 222.87,178.48 227.23,182.73
             230.93,186.34 241.78,188.82 247.00,190.00
             245.76,197.61 242.27,200.29 242.22,203.98
             242.15,208.56 252.87,215.32 257.00,216.00
             255.83,220.69 254.23,224.87 260.04,227.26
             264.14,228.95 274.43,228.74 279.00,229.05
             283.87,229.39 284.92,230.90 289.00,231.66
             293.90,232.58 295.80,231.41 301.87,234.36
             306.11,236.42 306.01,239.42 308.79,242.89
             311.85,246.72 313.91,246.43 316.55,248.69
             320.60,252.18 319.05,253.62 326.00,256.00
             326.00,256.00 321.00,269.00 321.00,269.00
             314.67,263.66 316.35,257.95 311.66,255.02
             310.07,254.03 307.82,254.00 306.00,253.54
             306.00,253.54 300.00,251.72 300.00,251.72
             295.82,251.17 291.31,253.36 291.26,258.04
             291.24,260.18 292.19,262.08 293.00,264.00
             293.00,264.00 288.00,262.00 288.00,262.00
             288.00,262.00 285.00,266.00 285.00,266.00
             285.00,266.00 287.00,269.00 287.00,269.00
             280.18,270.96 272.83,269.71 271.00,278.00
             263.30,278.00 255.52,276.74 253.00,285.99
             253.00,285.99 248.09,285.99 248.09,285.99
             248.09,285.99 237.10,291.31 237.10,291.31
             237.10,291.31 237.10,295.00 237.10,295.00
             230.61,296.82 226.66,294.55 223.00,301.00
             221.17,300.57 219.94,300.18 218.00,300.30
             218.00,300.30 202.01,303.31 202.01,303.31
             195.01,306.91 197.82,310.47 187.00,311.00
             187.00,311.00 186.00,314.00 186.00,314.00
             186.00,314.00 185.00,308.00 185.00,308.00
             181.79,308.00 175.79,308.55 173.33,306.40
             172.19,305.41 171.80,304.44 171.60,302.98
             171.18,299.94 173.16,294.90 171.00,286.00
             180.70,283.24 187.13,288.43 191.26,283.57
             193.44,281.01 192.58,277.69 193.59,275.17
             197.53,265.38 213.71,271.64 211.64,259.00
             211.35,257.26 210.67,255.72 209.49,254.39
             207.96,252.66 197.21,245.33 195.00,244.65
             186.53,242.06 185.09,249.40 182.51,250.72
             180.64,251.96 177.00,251.08 175.00,250.72
             165.60,248.12 164.79,241.01 159.90,237.74
             155.58,234.86 152.62,237.62 149.00,236.96
             146.10,236.42 144.25,234.14 141.00,234.13
             138.23,234.13 135.55,236.08 133.00,237.01
             129.82,238.18 127.13,237.84 125.15,239.02
             119.09,242.64 122.77,250.93 126.00,255.00
             126.00,255.00 121.00,255.00 121.00,255.00
             119.66,250.79 118.91,250.80 115.00,249.00
             115.00,249.00 115.77,244.00 115.77,244.00
             115.97,233.16 100.24,241.68 96.10,241.36
             93.29,241.14 92.48,238.91 90.63,237.96
             88.42,236.75 86.30,237.54 84.00,237.96
             83.66,231.85 82.07,229.31 79.14,224.00 Z" />
</svg>
