<?xml version="1.0" encoding="UTF-8" standalone="no"?>
<!DOCTYPE svg PUBLIC "-//W3C//DTD SVG 20010904//EN"
              "http://www.w3.org/TR/2001/REC-SVG-20010904/DTD/svg10.dtd">

<svg xmlns="http://www.w3.org/2000/svg"
     width="4.16615in" height="4.16615in"
     viewBox="0 0 300 300">
  <path id="Selection"
        fill="purple" stroke="black" stroke-width="1"
        d="M 91.37,70.02
           C 93.93,68.45 97.20,69.45 100.00,68.40
             102.68,67.40 108.72,61.20 110.59,58.83
             114.93,53.34 112.28,48.58 118.06,45.45
             124.71,41.85 131.25,47.90 138.00,47.81
             144.03,47.72 147.70,43.32 151.00,42.99
             153.63,42.73 155.60,44.66 159.00,44.77
             162.16,44.86 164.07,43.08 172.00,43.00
             172.00,43.00 168.68,50.00 168.68,50.00
             168.01,52.86 169.52,55.16 169.70,58.00
             169.70,58.00 168.48,67.00 168.48,67.00
             168.48,67.00 169.82,75.00 169.82,75.00
             170.20,78.19 169.31,84.13 171.60,86.40
             175.81,90.58 181.50,84.71 185.00,83.24
             187.55,82.17 189.63,82.77 191.76,81.41
             193.77,80.12 193.79,79.09 194.00,77.00
             202.41,80.00 199.60,79.99 209.00,80.00
             208.61,88.57 205.17,103.06 219.00,101.00
             218.62,109.23 217.63,112.69 221.07,121.00
             221.07,121.00 224.01,127.00 224.01,127.00
             225.30,130.32 224.95,132.64 227.15,135.90
             230.71,141.18 242.30,144.42 240.02,154.91
             238.02,164.09 230.21,160.51 227.31,162.69
             224.03,165.16 226.23,168.74 222.69,172.32
             218.68,176.36 215.30,175.28 212.02,177.02
             209.03,178.60 206.62,182.08 205.06,185.00
             198.99,196.33 213.65,196.11 212.53,209.00
             212.01,215.03 210.25,218.00 209.66,221.00
             209.66,221.00 209.66,227.83 209.66,227.83
             209.12,230.62 207.13,231.60 206.31,235.01
             205.55,238.21 206.69,242.55 204.83,245.70
             200.65,252.75 192.89,248.13 192.00,259.00
             179.55,257.21 178.88,251.62 173.91,249.02
             171.37,247.69 168.72,248.19 166.00,247.87
             158.48,246.50 159.28,244.50 151.00,247.87
             150.51,246.68 149.79,244.44 149.02,243.34
             143.70,235.76 136.19,241.84 130.00,243.91
             126.08,245.22 122.11,245.81 118.00,246.00
             118.00,246.00 123.00,251.00 123.00,251.00
             116.90,251.00 116.53,247.37 112.00,246.72
             108.24,246.19 104.83,249.76 101.01,250.07
             96.72,250.41 95.73,247.02 91.96,246.38
             88.02,245.67 82.07,249.98 78.98,246.38
             78.10,245.38 77.66,243.31 77.45,242.00
             76.45,235.96 78.62,229.42 81.53,224.18
             81.53,224.18 84.80,218.68 84.80,218.68
             85.89,215.92 82.52,208.32 84.80,203.28
             84.80,203.28 92.62,191.58 92.62,191.58
             94.88,187.40 93.40,185.27 94.43,181.29
             96.28,174.14 99.86,175.28 100.00,164.00
             105.55,161.87 114.67,155.14 118.20,150.24
             121.86,145.17 117.68,141.39 126.00,140.00
             124.31,133.82 121.35,134.06 116.28,131.24
             106.71,125.90 101.02,124.00 90.00,124.00
             90.00,124.00 85.00,114.00 85.00,114.00
             79.83,115.34 78.56,114.48 74.00,112.00
             69.62,119.06 61.47,114.17 60.66,110.67
             60.02,107.92 64.29,97.60 65.00,93.00
             72.25,91.82 74.60,86.83 75.00,80.00
             87.28,78.88 86.91,72.76 91.37,70.02 Z" />
</svg>
