<?xml version="1.0" encoding="UTF-8" standalone="no"?>
<!DOCTYPE svg PUBLIC "-//W3C//DTD SVG 20010904//EN"
              "http://www.w3.org/TR/2001/REC-SVG-20010904/DTD/svg10.dtd">

<svg xmlns="http://www.w3.org/2000/svg"
     width="43.6334in" height="36.3288in"
     viewBox="0 0 3142 2616">
  <path id="Sweden"
        fill="Blue" stroke="black" stroke-width="1"
        d="M 1594.82,461.18
           C 1596.95,460.72 1600.34,456.39 1602.00,454.66
             1603.99,452.58 1611.75,445.56 1612.42,443.87
             1613.22,441.81 1612.97,437.36 1613.00,435.00
             1613.15,423.67 1619.84,417.57 1618.87,409.04
             1618.87,409.04 1605.43,368.02 1605.43,368.02
             1604.45,359.17 1616.63,365.80 1622.69,360.99
             1625.39,358.85 1624.74,355.99 1625.46,353.00
             1626.63,348.07 1632.81,338.40 1632.43,334.09
             1632.19,331.36 1629.20,329.09 1627.55,326.97
             1624.54,323.09 1622.61,318.75 1618.82,315.26
             1614.43,311.22 1606.89,308.51 1605.32,301.99
             1604.37,298.06 1606.36,293.86 1607.00,290.00
             1607.00,290.00 1607.00,280.00 1607.00,280.00
             1607.97,273.44 1608.98,276.40 1609.00,266.00
             1609.00,266.00 1608.38,245.04 1608.38,245.04
             1607.54,241.12 1603.50,238.45 1604.09,228.00
             1604.09,228.00 1607.18,197.00 1607.18,197.00
             1607.18,197.00 1607.18,188.01 1607.18,188.01
             1606.71,182.07 1602.37,180.38 1603.05,170.00
             1603.69,160.37 1608.91,159.53 1610.40,155.87
             1610.40,155.87 1611.51,147.04 1611.51,147.04
             1612.68,143.17 1615.08,142.55 1617.18,137.91
             1619.36,133.08 1619.48,126.49 1621.98,122.00
             1623.63,119.03 1628.69,114.55 1631.42,112.25
             1640.84,104.35 1654.14,107.20 1665.00,109.37
             1669.03,110.17 1677.04,112.71 1680.73,110.35
             1684.90,107.69 1686.67,100.44 1687.86,96.00
             1689.20,90.94 1689.06,89.15 1689.00,84.00
             1688.94,79.39 1687.61,70.74 1683.85,67.76
             1680.71,65.28 1671.99,63.43 1671.53,58.99
             1671.32,56.98 1675.34,49.93 1676.38,47.71
             1679.55,40.99 1682.52,34.19 1686.67,28.00
             1686.67,28.00 1693.98,18.83 1693.98,18.83
             1696.35,14.45 1693.37,8.45 1696.83,3.06
             1699.19,-0.63 1703.11,0.01 1707.00,0.00
             1707.00,0.00 1949.00,0.00 1949.00,0.00
             1948.51,7.56 1944.10,10.51 1940.76,17.00
             1938.84,20.74 1938.94,23.08 1938.00,27.00
             1938.00,27.00 1933.00,25.00 1933.00,25.00
             1933.15,36.32 1936.83,31.33 1941.00,39.00
             1941.00,39.00 1936.00,39.00 1936.00,39.00
             1936.00,39.00 1936.00,43.00 1936.00,43.00
             1941.49,44.75 1939.71,46.06 1943.26,49.31
             1943.26,49.31 1947.24,52.18 1947.24,52.18
             1951.49,55.83 1952.83,60.64 1953.00,66.00
             1944.76,66.68 1946.46,70.12 1944.46,74.63
             1942.69,78.63 1941.54,76.36 1941.00,83.00
             1932.75,85.51 1936.15,89.57 1934.57,95.72
             1934.57,95.72 1927.00,117.00 1927.00,117.00
             1925.70,116.55 1924.63,115.93 1923.17,116.06
             1921.55,116.20 1915.00,120.12 1913.89,121.42
             1913.89,121.42 1910.44,126.59 1910.44,126.59
             1907.61,129.55 1905.13,129.14 1901.73,134.20
             1899.29,137.83 1897.29,142.49 1893.00,144.00
             1889.78,139.19 1882.10,139.86 1883.00,149.00
             1883.00,149.00 1875.00,147.00 1875.00,147.00
             1875.00,147.00 1876.00,160.00 1876.00,160.00
             1871.20,162.06 1870.49,163.01 1869.00,168.00
             1861.65,165.38 1863.19,165.03 1855.00,165.00
             1854.64,176.60 1849.23,176.62 1847.00,185.00
             1843.11,185.28 1835.45,187.35 1838.71,192.90
             1839.90,194.93 1843.88,197.09 1846.00,199.00
             1835.91,199.82 1842.63,204.04 1831.00,205.00
             1830.41,194.24 1828.33,192.95 1819.00,190.00
             1817.81,201.17 1821.67,197.36 1824.43,204.09
             1826.13,208.20 1824.80,209.95 1829.00,215.00
             1829.00,215.00 1829.00,217.00 1829.00,217.00
             1825.18,221.80 1826.95,226.18 1827.00,232.00
             1827.00,232.00 1818.00,236.00 1818.00,236.00
             1814.46,226.46 1805.48,234.31 1804.52,239.00
             1802.95,246.64 1812.71,258.91 1812.78,264.09
             1812.78,264.09 1805.45,286.00 1805.45,286.00
             1804.30,291.26 1805.49,294.14 1807.00,299.00
             1805.14,299.15 1803.75,299.12 1802.02,300.02
             1792.81,304.84 1798.92,317.18 1798.90,321.04
             1798.87,326.61 1794.80,329.50 1800.00,333.00
             1800.00,333.00 1800.97,350.00 1800.97,350.00
             1800.97,350.00 1800.45,366.00 1800.45,366.00
             1800.45,366.00 1806.84,383.99 1806.84,383.99
             1806.84,383.99 1803.00,395.00 1803.00,395.00
             1803.00,395.00 1822.22,398.00 1822.22,398.00
             1822.05,399.56 1821.94,400.41 1822.22,401.98
             1825.59,411.71 1832.42,403.54 1837.00,401.00
             1841.99,419.79 1856.38,414.84 1857.00,435.00
             1867.15,435.85 1859.04,441.33 1869.00,443.00
             1869.00,443.00 1869.00,437.00 1869.00,437.00
             1869.00,437.00 1871.00,437.00 1871.00,437.00
             1873.56,448.33 1877.88,444.65 1876.00,459.00
             1876.00,459.00 1880.00,460.00 1880.00,460.00
             1874.43,462.97 1869.22,465.06 1873.00,472.00
             1869.06,476.50 1868.27,476.96 1869.00,483.00
             1856.82,491.10 1862.00,486.18 1855.00,489.19
             1855.00,489.19 1850.00,492.04 1850.00,492.04
             1847.68,493.16 1844.66,493.34 1843.65,496.13
             1842.91,498.17 1845.55,504.89 1846.00,508.00
             1846.00,508.00 1855.00,507.00 1855.00,507.00
             1855.00,507.00 1859.00,519.00 1859.00,519.00
             1849.23,520.37 1845.64,528.56 1839.00,534.00
             1838.97,525.00 1837.63,517.37 1827.00,517.00
             1827.00,517.00 1829.00,522.00 1829.00,522.00
             1829.00,522.00 1825.00,523.00 1825.00,523.00
             1825.00,523.00 1825.85,536.00 1825.85,536.00
             1823.64,541.72 1819.13,540.18 1820.00,549.00
             1811.62,552.71 1811.58,551.08 1803.00,551.00
             1802.85,552.91 1802.91,554.11 1801.99,555.91
             1795.91,567.91 1787.49,560.07 1778.00,559.13
             1774.59,558.79 1765.70,560.41 1766.11,565.13
             1766.48,569.38 1773.95,569.37 1777.00,569.26
             1789.07,568.82 1791.27,567.50 1795.00,579.00
             1785.46,578.35 1779.23,570.37 1776.00,581.00
             1781.31,581.68 1785.24,583.09 1789.00,587.00
             1789.00,587.00 1785.00,587.00 1785.00,587.00
             1785.00,587.00 1788.72,594.09 1788.72,594.09
             1788.72,594.09 1791.00,601.00 1791.00,601.00
             1791.00,601.00 1790.00,611.00 1790.00,611.00
             1783.94,613.01 1785.48,615.96 1787.00,621.00
             1787.00,621.00 1781.00,622.94 1781.00,622.94
             1778.77,623.62 1776.41,624.34 1775.99,627.05
             1775.19,632.26 1782.82,635.17 1785.71,637.75
             1787.19,639.06 1787.14,639.41 1788.00,641.00
             1783.02,642.49 1783.68,645.50 1782.58,649.72
             1782.58,649.72 1781.00,655.00 1781.00,655.00
             1798.31,657.46 1780.07,672.41 1779.13,682.00
             1778.63,687.10 1781.14,691.43 1783.00,696.00
             1777.10,701.36 1778.16,708.01 1776.54,715.00
             1775.33,720.23 1773.61,720.95 1774.00,727.00
             1767.44,729.18 1769.00,735.20 1769.00,741.00
             1769.00,741.00 1765.00,741.00 1765.00,741.00
             1765.00,748.51 1764.47,766.07 1756.81,770.18
             1752.68,772.40 1747.45,766.32 1743.09,766.34
             1740.93,766.35 1739.70,767.86 1737.83,768.22
             1735.44,768.67 1733.72,767.39 1731.00,767.67
             1731.00,767.67 1724.00,769.66 1724.00,769.66
             1721.53,770.22 1720.16,769.44 1718.00,769.66
             1714.98,769.59 1713.71,770.96 1709.00,770.96
             1703.76,770.97 1704.06,769.55 1697.00,770.00
             1697.00,770.00 1699.00,781.00 1699.00,781.00
             1696.76,780.52 1693.09,779.19 1691.00,779.73
             1685.52,781.13 1681.00,789.25 1678.79,794.09
             1676.86,798.34 1674.52,802.14 1675.26,807.00
             1676.65,816.03 1682.91,817.88 1679.49,828.00
             1678.98,829.49 1678.32,831.49 1677.28,832.69
             1672.44,838.25 1668.82,830.22 1658.00,830.59
             1654.71,830.71 1650.08,831.03 1647.00,832.05
             1643.66,833.16 1637.10,836.47 1634.00,836.49
             1632.26,836.50 1630.67,835.81 1629.00,835.45
             1626.84,834.99 1623.23,835.12 1621.77,833.40
             1621.02,832.53 1619.05,820.83 1619.00,819.00
             1624.65,818.80 1627.76,817.60 1626.85,811.00
             1625.79,803.30 1619.39,806.32 1619.00,795.00
             1619.00,795.00 1613.99,793.26 1613.99,793.26
             1613.99,793.26 1612.27,785.00 1612.27,785.00
             1612.27,785.00 1605.00,767.00 1605.00,767.00
             1605.00,767.00 1610.00,768.48 1610.00,768.48
             1612.15,768.78 1613.94,768.42 1615.40,766.69
             1619.46,761.87 1612.98,755.44 1611.00,751.00
             1613.57,750.97 1616.58,751.17 1618.69,749.40
             1622.30,746.36 1621.00,731.90 1621.00,727.00
             1621.00,727.00 1613.00,729.00 1613.00,729.00
             1612.45,722.34 1611.01,723.92 1607.89,718.96
             1607.89,718.96 1603.97,711.42 1603.97,711.42
             1603.97,711.42 1596.21,699.00 1596.21,699.00
             1594.48,695.66 1589.80,681.70 1589.49,678.09
             1589.19,674.68 1591.12,673.77 1590.49,669.99
             1589.53,664.21 1586.22,661.04 1581.00,659.00
             1581.00,653.83 1582.19,647.33 1579.00,643.00
             1579.00,643.00 1579.00,641.00 1579.00,641.00
             1579.00,641.00 1581.00,637.00 1581.00,637.00
             1581.00,637.00 1575.00,637.00 1575.00,637.00
             1575.00,637.00 1575.00,629.00 1575.00,629.00
             1575.00,629.00 1571.00,629.00 1571.00,629.00
             1571.00,629.00 1576.61,613.00 1576.61,613.00
             1576.61,613.00 1577.24,605.17 1577.24,605.17
             1577.24,605.17 1578.87,599.91 1578.87,599.91
             1578.87,599.91 1578.87,583.00 1578.87,583.00
             1578.87,583.00 1571.00,585.00 1571.00,585.00
             1574.26,575.89 1569.48,575.12 1561.00,573.00
             1561.00,573.00 1561.00,577.00 1561.00,577.00
             1561.00,577.00 1559.00,577.00 1559.00,577.00
             1557.71,572.19 1556.43,572.52 1555.48,569.68
             1554.71,567.35 1555.18,563.61 1554.87,561.04
             1554.21,555.55 1553.02,558.68 1553.00,549.00
             1552.99,542.52 1554.52,537.35 1549.00,533.00
             1549.00,533.00 1549.00,531.00 1549.00,531.00
             1549.00,531.00 1551.00,527.00 1551.00,527.00
             1552.52,527.13 1554.12,527.05 1555.42,528.02
             1558.79,530.55 1559.00,539.15 1559.00,543.00
             1562.30,543.00 1565.93,543.38 1568.81,541.49
             1572.51,539.08 1572.26,536.68 1573.79,533.42
             1578.49,523.40 1581.60,517.64 1580.96,506.00
             1580.63,500.13 1579.10,500.60 1579.00,493.00
             1578.97,490.15 1578.63,484.71 1580.02,482.32
             1581.55,479.68 1584.84,478.68 1586.35,473.99
             1587.96,468.97 1585.87,464.57 1587.00,459.00
             1589.05,459.73 1592.80,461.62 1594.82,461.18 Z" />
</svg>
