<?xml version="1.0" encoding="UTF-8" standalone="no"?>
<!DOCTYPE svg PUBLIC "-//W3C//DTD SVG 20010904//EN"
              "http://www.w3.org/TR/2001/REC-SVG-20010904/DTD/svg10.dtd">

<svg xmlns="http://www.w3.org/2000/svg"
     width="43.6334in" height="36.3288in"
     viewBox="0 0 3142 2616">
  <path id="Austria.svg"
        fill="Green" stroke="black" stroke-width="1"
        d="M 1738.00,1379.61
           C 1738.00,1379.61 1752.00,1385.64 1752.00,1385.64
             1755.36,1385.98 1757.99,1384.26 1762.00,1385.64
             1766.74,1387.74 1770.46,1393.35 1775.00,1395.69
             1778.12,1397.29 1781.60,1397.01 1785.00,1397.00
             1790.91,1396.99 1796.26,1397.24 1797.00,1390.00
             1804.22,1389.73 1802.15,1394.04 1806.34,1395.62
             1808.12,1396.44 1809.93,1395.47 1812.00,1395.62
             1812.00,1395.62 1819.00,1397.00 1819.00,1397.00
             1819.00,1397.00 1817.90,1408.00 1817.90,1408.00
             1817.90,1408.00 1813.54,1418.00 1813.54,1418.00
             1813.54,1418.00 1819.92,1430.58 1819.92,1430.58
             1819.92,1430.58 1824.00,1445.00 1824.00,1445.00
             1824.00,1445.00 1828.00,1444.00 1828.00,1444.00
             1828.00,1444.00 1829.00,1474.76 1829.00,1474.76
             1826.05,1475.00 1820.66,1475.20 1818.00,1474.76
             1812.89,1473.25 1809.57,1468.95 1804.01,1471.95
             1800.63,1473.77 1793.20,1480.41 1796.62,1484.69
             1799.37,1488.14 1803.20,1485.72 1809.00,1492.00
             1801.74,1499.69 1797.69,1497.12 1795.37,1502.13
             1794.25,1505.35 1795.66,1512.42 1795.37,1515.00
             1794.63,1517.51 1792.84,1519.12 1793.19,1521.72
             1793.33,1522.79 1796.97,1530.10 1795.72,1532.63
             1794.27,1535.58 1790.86,1532.45 1787.19,1534.56
             1783.14,1536.89 1782.18,1542.67 1779.46,1545.67
             1774.40,1551.24 1767.82,1547.78 1767.00,1559.00
             1763.44,1559.00 1758.29,1558.70 1755.00,1559.76
             1751.09,1561.03 1747.97,1563.93 1744.00,1564.86
             1744.00,1564.86 1722.00,1564.86 1722.00,1564.86
             1715.85,1565.04 1712.39,1565.99 1707.52,1570.01
             1699.63,1576.52 1703.87,1578.77 1693.00,1581.70
             1689.91,1582.54 1688.34,1583.19 1685.00,1582.87
             1685.00,1582.87 1668.00,1579.37 1668.00,1579.37
             1668.00,1579.37 1634.00,1572.56 1634.00,1572.56
             1634.00,1572.56 1622.83,1568.75 1622.83,1568.75
             1619.64,1568.29 1617.99,1570.50 1614.00,1570.20
             1614.00,1570.20 1585.00,1563.58 1585.00,1563.58
             1585.00,1563.58 1571.11,1559.83 1571.11,1559.83
             1567.15,1557.55 1566.38,1552.18 1564.34,1548.29
             1562.09,1543.98 1559.89,1542.66 1556.00,1540.00
             1558.66,1531.70 1558.99,1534.34 1559.00,1525.00
             1549.29,1525.00 1540.02,1523.82 1533.00,1532.00
             1518.95,1528.28 1519.69,1530.97 1511.00,1530.97
             1505.42,1530.97 1503.46,1529.26 1498.00,1532.19
             1489.22,1536.90 1487.20,1544.76 1481.91,1545.40
             1477.59,1545.92 1474.23,1541.81 1471.00,1539.64
             1467.30,1537.17 1465.25,1537.11 1461.00,1537.00
             1460.35,1534.79 1460.25,1533.99 1458.69,1532.09
             1457.74,1530.94 1456.26,1529.68 1455.00,1528.89
             1445.48,1522.94 1441.96,1535.80 1436.07,1536.56
             1432.91,1536.97 1427.36,1531.94 1425.00,1530.00
             1425.60,1528.68 1426.36,1527.69 1425.71,1526.13
             1424.57,1523.40 1414.93,1519.24 1412.00,1518.00
             1411.53,1511.42 1407.12,1497.71 1418.00,1499.00
             1417.41,1494.91 1417.22,1494.78 1415.91,1491.00
             1412.26,1480.45 1426.56,1487.77 1428.71,1489.86
             1432.56,1493.59 1429.72,1497.26 1432.60,1500.69
             1434.18,1502.56 1435.80,1502.64 1438.00,1503.00
             1438.00,1503.00 1437.00,1511.00 1437.00,1511.00
             1440.30,1510.78 1446.08,1509.56 1448.96,1508.00
             1453.98,1505.29 1451.94,1503.58 1459.00,1503.00
             1459.19,1496.36 1461.50,1492.47 1465.00,1487.00
             1474.46,1490.04 1481.53,1491.80 1483.00,1502.94
             1483.00,1502.94 1493.00,1502.94 1493.00,1502.94
             1493.00,1502.94 1498.83,1501.72 1498.83,1501.72
             1498.83,1501.72 1504.09,1501.72 1504.09,1501.72
             1504.09,1501.72 1524.00,1489.00 1524.00,1489.00
             1530.99,1492.06 1539.44,1486.80 1547.00,1487.02
             1551.39,1487.15 1554.58,1488.91 1556.57,1487.85
             1558.91,1486.60 1558.87,1483.26 1559.00,1481.00
             1571.30,1482.27 1569.01,1486.15 1585.00,1485.00
             1586.89,1492.62 1590.56,1494.16 1597.00,1497.64
             1599.59,1499.04 1601.95,1500.68 1604.69,1498.46
             1607.35,1496.31 1611.81,1481.39 1609.97,1478.34
             1608.24,1475.47 1604.57,1475.35 1603.62,1472.70
             1602.91,1469.63 1606.99,1465.44 1603.62,1458.09
             1601.49,1454.06 1593.83,1445.95 1595.87,1441.54
             1596.95,1439.20 1600.74,1437.71 1603.00,1436.81
             1610.44,1433.84 1616.48,1433.68 1623.91,1429.49
             1628.10,1427.12 1631.28,1423.58 1632.53,1418.83
             1633.20,1416.31 1632.76,1413.15 1634.02,1411.61
             1636.24,1408.92 1641.25,1412.13 1646.90,1409.49
             1652.22,1407.01 1653.72,1400.81 1656.00,1396.00
             1656.00,1396.00 1659.00,1408.00 1659.00,1408.00
             1670.68,1408.11 1672.82,1411.42 1678.00,1410.72
             1682.07,1410.18 1686.37,1407.04 1691.00,1407.11
             1696.36,1407.20 1697.73,1411.32 1700.72,1409.83
             1704.49,1407.96 1701.86,1400.56 1704.02,1397.31
             1706.15,1394.12 1713.50,1395.00 1717.00,1395.00
             1717.00,1395.00 1719.00,1378.00 1719.00,1378.00
             1724.58,1379.10 1730.46,1377.59 1738.00,1379.61 Z" />
</svg>
