<?xml version="1.0" encoding="UTF-8" standalone="no"?>
<!DOCTYPE svg PUBLIC "-//W3C//DTD SVG 20010904//EN"
              "http://www.w3.org/TR/2001/REC-SVG-20010904/DTD/svg10.dtd">

<svg xmlns="http://www.w3.org/2000/svg"
     width="43.6334in" height="36.3288in"
     viewBox="0 0 3142 2616">
  <path id="Bulgaria"
        fill="Green" stroke="black" stroke-width="1"
        d="M 2368.00,1772.74
           C 2370.69,1771.30 2375.55,1769.62 2377.42,1767.53
             2377.42,1767.53 2382.75,1757.00 2382.75,1757.00
             2385.69,1752.25 2394.65,1742.63 2399.00,1739.31
             2403.36,1735.98 2409.87,1735.48 2415.00,1733.58
             2415.00,1733.58 2442.00,1721.73 2442.00,1721.73
             2446.17,1720.53 2454.03,1720.58 2457.99,1722.41
             2461.93,1724.24 2464.03,1727.18 2467.04,1727.79
             2472.67,1728.92 2481.44,1721.93 2483.00,1731.00
             2491.22,1730.74 2490.93,1728.86 2498.00,1726.00
             2499.29,1728.57 2501.39,1734.15 2503.56,1735.69
             2505.40,1736.98 2509.54,1737.21 2512.00,1737.86
             2523.80,1741.00 2526.35,1742.27 2539.00,1740.00
             2539.71,1745.59 2545.83,1757.09 2541.40,1761.40
             2538.46,1764.26 2534.50,1761.09 2531.00,1761.40
             2528.65,1761.61 2520.09,1766.67 2518.34,1768.39
             2512.92,1773.70 2516.01,1780.89 2508.00,1785.00
             2509.08,1791.90 2508.95,1792.06 2509.00,1799.00
             2509.05,1807.14 2510.49,1805.72 2510.87,1810.09
             2510.87,1810.09 2510.35,1818.00 2510.35,1818.00
             2510.41,1820.53 2511.49,1823.07 2511.08,1824.95
             2510.26,1828.64 2505.33,1830.05 2502.13,1832.76
             2498.22,1836.08 2498.39,1838.32 2499.00,1843.00
             2499.00,1843.00 2493.00,1845.00 2493.00,1845.00
             2497.83,1853.49 2497.51,1856.72 2508.00,1859.00
             2510.08,1873.40 2520.62,1873.34 2528.00,1883.00
             2518.29,1884.27 2514.14,1890.97 2508.09,1892.24
             2506.11,1892.65 2498.41,1890.81 2496.96,1889.43
             2494.93,1887.48 2494.26,1883.17 2488.98,1882.38
             2486.52,1882.02 2474.12,1885.71 2472.09,1887.28
             2472.09,1887.28 2465.53,1894.02 2465.53,1894.02
             2462.74,1895.74 2442.19,1898.24 2441.40,1906.09
             2441.20,1908.10 2442.39,1911.04 2443.00,1913.00
             2436.19,1915.14 2430.31,1915.97 2429.00,1923.91
             2427.42,1923.78 2426.69,1923.50 2425.00,1923.91
             2419.99,1924.78 2411.66,1931.13 2413.87,1936.96
             2416.78,1944.63 2424.60,1942.35 2425.00,1955.00
             2415.45,1955.56 2418.26,1959.23 2412.90,1960.69
             2412.90,1960.69 2407.00,1961.26 2407.00,1961.26
             2407.00,1961.26 2401.00,1962.87 2401.00,1962.87
             2401.00,1962.87 2387.00,1962.87 2387.00,1962.87
             2387.00,1962.87 2387.00,1969.00 2387.00,1969.00
             2383.54,1969.49 2373.31,1972.40 2371.00,1971.90
             2367.89,1971.24 2358.58,1963.77 2352.00,1963.30
             2348.19,1963.02 2330.59,1969.20 2325.85,1957.98
             2325.12,1956.25 2325.13,1954.81 2325.00,1953.00
             2325.00,1953.00 2308.00,1956.49 2308.00,1956.49
             2298.89,1958.31 2291.54,1954.87 2287.00,1968.00
             2278.48,1966.54 2277.11,1972.45 2270.00,1974.49
             2266.87,1975.39 2262.35,1974.75 2259.00,1975.13
             2259.00,1975.13 2252.00,1976.62 2252.00,1976.62
             2248.89,1976.78 2246.83,1975.10 2244.32,1975.98
             2241.16,1977.09 2239.19,1982.30 2236.48,1984.01
             2234.33,1985.37 2229.59,1985.00 2227.32,1985.00
             2229.84,1977.06 2227.91,1980.65 2227.32,1974.00
             2227.41,1971.77 2227.95,1970.77 2227.32,1968.00
             2227.32,1968.00 2226.06,1963.04 2226.06,1963.04
             2225.81,1959.31 2228.87,1958.80 2227.58,1954.97
             2227.58,1954.97 2218.04,1939.44 2218.04,1939.44
             2216.42,1936.50 2213.21,1928.09 2211.50,1926.60
             2208.84,1924.28 2204.30,1925.26 2201.00,1924.87
             2195.42,1924.21 2187.76,1918.40 2186.24,1913.00
             2185.20,1909.30 2188.58,1906.64 2190.01,1902.96
             2193.34,1894.40 2189.65,1890.54 2183.00,1886.00
             2185.34,1879.76 2186.37,1872.04 2183.00,1866.00
             2185.91,1865.16 2189.54,1864.95 2192.00,1863.69
             2198.71,1860.22 2201.19,1853.56 2205.65,1848.09
             2209.47,1843.41 2214.52,1839.91 2212.49,1833.00
             2209.82,1823.90 2200.65,1825.14 2199.00,1814.76
             2196.99,1814.98 2194.97,1815.02 2193.00,1814.76
             2190.67,1813.94 2181.31,1809.22 2180.02,1807.46
             2178.61,1805.53 2179.42,1803.40 2176.45,1798.28
             2172.71,1791.86 2169.23,1787.88 2169.02,1780.00
             2168.82,1772.63 2169.02,1773.53 2173.53,1768.49
             2177.62,1763.93 2176.04,1763.24 2183.00,1763.00
             2183.00,1763.00 2180.00,1753.00 2180.00,1753.00
             2186.91,1753.24 2190.83,1756.64 2196.00,1761.00
             2196.00,1761.00 2192.02,1764.33 2192.02,1764.33
             2192.02,1764.33 2191.00,1781.00 2191.00,1781.00
             2196.30,1782.13 2202.86,1785.58 2208.00,1784.62
             2216.35,1783.06 2220.35,1776.64 2230.00,1777.05
             2234.21,1777.22 2235.33,1778.24 2239.00,1778.80
             2251.59,1780.71 2265.63,1785.02 2278.00,1785.00
             2281.52,1784.99 2284.83,1785.29 2287.91,1783.26
             2290.77,1781.38 2292.37,1778.00 2296.01,1777.42
             2298.76,1776.97 2301.55,1778.76 2305.00,1778.84
             2307.43,1778.90 2321.53,1776.04 2324.00,1775.00
             2334.18,1780.37 2343.18,1772.16 2345.00,1783.00
             2355.77,1779.61 2358.27,1777.97 2368.00,1772.74 Z" />
</svg>
