<?xml version="1.0" encoding="UTF-8" standalone="no"?>
<!DOCTYPE svg PUBLIC "-//W3C//DTD SVG 20010904//EN"
              "http://www.w3.org/TR/2001/REC-SVG-20010904/DTD/svg10.dtd">

<svg xmlns="http://www.w3.org/2000/svg"
     width="4.16615in" height="5.55486in"
     viewBox="0 0 300 400">
  <path id="Selection"
        fill="red" stroke="black" stroke-width="1"
        d="M 125.35,109.99
           C 126.75,111.02 127.27,112.52 128.00,114.00
             128.00,114.00 132.00,113.00 132.00,113.00
             132.00,113.00 130.00,117.00 130.00,117.00
             130.00,117.00 144.99,125.33 144.99,125.33
             144.99,125.33 153.07,131.89 153.07,131.89
             153.07,131.89 160.37,127.56 160.37,127.56
             160.37,127.56 173.00,127.00 173.00,127.00
             173.00,127.00 172.00,131.00 172.00,131.00
             172.00,131.00 186.00,132.00 186.00,132.00
             186.00,132.00 192.00,147.00 192.00,147.00
             194.95,147.00 205.64,146.64 207.70,147.60
             210.11,148.72 210.47,151.40 212.56,153.66
             215.46,156.78 218.05,156.87 222.00,157.00
             220.10,160.47 219.60,160.49 216.00,162.00
             216.00,162.00 230.00,173.00 230.00,173.00
             230.00,173.00 232.00,179.00 232.00,179.00
             232.00,179.00 228.00,186.00 228.00,186.00
             228.00,186.00 225.00,185.00 225.00,185.00
             225.00,185.00 224.00,193.00 224.00,193.00
             224.00,193.00 230.00,193.00 230.00,193.00
             231.30,198.02 234.23,200.50 234.34,204.00
             234.44,207.25 231.87,209.51 233.42,212.48
             235.36,216.19 240.54,216.14 241.30,221.05
             242.86,231.22 234.30,228.20 232.00,239.00
             232.00,239.00 226.00,237.00 226.00,237.00
             228.25,244.91 225.11,252.14 230.30,262.83
             233.88,270.20 241.95,271.91 242.22,277.00
             242.46,281.67 236.66,284.43 233.00,294.00
             221.17,291.12 220.17,296.76 214.00,290.00
             214.00,290.00 216.00,284.00 216.00,284.00
             206.85,287.44 201.45,287.00 192.00,287.00
             191.75,282.79 187.64,272.44 183.86,270.40
             181.31,269.03 179.30,270.14 176.42,268.22
             171.60,265.00 173.86,263.45 163.00,259.00
             166.24,250.15 163.00,251.44 163.72,246.09
             164.14,242.99 166.61,241.17 168.00,235.14
             168.00,235.14 153.48,235.14 153.48,235.14
             153.48,235.14 145.89,241.15 145.89,241.15
             145.89,241.15 127.00,241.15 127.00,241.15
             128.55,238.30 131.16,236.37 131.63,233.91
             132.57,229.03 126.99,224.38 135.00,223.00
             132.82,212.74 128.16,217.13 128.00,205.00
             117.75,208.31 117.85,205.11 108.00,203.00
             107.19,198.73 102.34,188.76 97.82,187.56
             95.39,186.92 92.33,188.28 90.00,189.00
             89.99,181.25 88.83,163.65 78.99,162.00
             75.73,161.46 67.49,164.09 64.00,165.00
             62.95,158.59 60.80,159.62 59.88,155.91
             58.71,151.20 62.07,146.53 58.00,141.00
             61.55,134.48 70.83,133.99 76.99,130.40
             81.91,127.54 81.89,125.27 88.00,125.02
             91.79,124.86 94.44,124.26 96.00,128.00
             96.00,128.00 104.00,127.00 104.00,127.00
             105.44,122.55 110.18,118.77 114.00,123.00
             114.00,123.00 119.00,122.00 119.00,122.00
             119.00,122.00 121.00,115.00 121.00,115.00
             115.74,113.34 112.64,113.15 110.00,108.00
             113.90,106.91 122.14,107.62 125.35,109.99 Z
           M 106.00,127.00
           C 106.00,127.00 111.00,125.00 111.00,125.00
             111.00,125.00 106.00,127.00 106.00,127.00 Z
           M 223.00,176.00
           C 223.00,176.00 224.00,177.00 224.00,177.00
             224.00,177.00 224.00,176.00 224.00,176.00
             224.00,176.00 223.00,176.00 223.00,176.00 Z" />
</svg>
