<?xml version="1.0" encoding="UTF-8" standalone="no"?>
<!DOCTYPE svg PUBLIC "-//W3C//DTD SVG 20010904//EN"
              "http://www.w3.org/TR/2001/REC-SVG-20010904/DTD/svg10.dtd">

<svg xmlns="http://www.w3.org/2000/svg"
     width="43.6334in" height="36.3288in"
     viewBox="0 0 3142 2616">
  <path id="Hanover"
        fill="Pink" stroke="black" stroke-width="1"
        d="M 1398.63,958.00
           C 1399.56,956.42 1400.90,953.62 1403.04,953.58
             1405.98,953.54 1408.06,958.24 1413.00,958.13
             1418.13,958.02 1424.75,955.37 1429.87,957.12
             1433.35,958.31 1433.24,961.15 1436.37,964.41
             1436.37,964.41 1440.21,968.21 1440.21,968.21
             1441.72,970.15 1442.15,971.70 1444.22,973.78
             1444.22,973.78 1450.54,978.49 1450.54,978.49
             1453.37,981.04 1454.63,984.20 1460.00,988.32
             1467.31,993.92 1475.46,993.50 1484.00,994.09
             1484.00,994.09 1500.00,995.00 1500.00,995.00
             1502.11,1004.93 1507.63,1004.27 1515.00,1007.50
             1518.15,1008.88 1520.95,1011.65 1524.00,1013.53
             1531.05,1017.88 1536.43,1018.53 1539.00,1028.00
             1539.00,1028.00 1533.00,1035.00 1533.00,1035.00
             1517.62,1031.54 1525.58,1034.09 1517.00,1034.10
             1512.70,1034.11 1511.31,1031.52 1506.00,1035.01
             1494.15,1042.80 1498.73,1059.81 1511.00,1064.00
             1511.00,1064.00 1507.63,1073.00 1507.63,1073.00
             1507.63,1073.00 1504.64,1085.96 1504.64,1085.96
             1504.64,1085.96 1500.00,1093.09 1500.00,1093.09
             1500.00,1093.09 1497.98,1099.61 1497.98,1099.61
             1497.98,1099.61 1488.45,1109.00 1488.45,1109.00
             1488.45,1109.00 1485.00,1128.96 1485.00,1128.96
             1485.00,1128.96 1477.21,1137.30 1477.21,1137.30
             1477.21,1137.30 1469.79,1147.15 1469.79,1147.15
             1469.79,1147.15 1459.00,1149.57 1459.00,1149.57
             1459.00,1149.57 1449.00,1154.15 1449.00,1154.15
             1449.00,1154.15 1440.00,1154.15 1440.00,1154.15
             1440.00,1154.15 1429.00,1156.00 1429.00,1156.00
             1434.27,1151.78 1438.58,1141.36 1434.40,1135.04
             1434.40,1135.04 1424.00,1125.00 1424.00,1125.00
             1425.14,1123.31 1426.17,1122.01 1426.77,1120.00
             1429.19,1111.92 1420.61,1106.20 1419.31,1101.00
             1419.31,1101.00 1418.37,1093.00 1418.37,1093.00
             1417.30,1089.08 1415.44,1086.53 1415.26,1082.00
             1415.03,1076.16 1418.43,1067.61 1411.67,1062.75
             1407.17,1059.51 1405.11,1064.40 1398.28,1060.70
             1394.14,1058.45 1386.89,1051.98 1382.00,1053.22
             1377.03,1054.47 1371.05,1064.22 1373.07,1069.00
             1374.84,1073.16 1380.65,1075.51 1377.43,1081.94
             1374.30,1088.18 1366.43,1084.95 1355.00,1087.00
             1358.10,1073.22 1356.45,1081.77 1355.66,1071.00
             1355.44,1068.04 1356.54,1065.43 1354.26,1062.18
             1352.47,1059.63 1348.71,1057.67 1346.00,1056.15
             1343.09,1054.53 1340.48,1052.79 1337.00,1053.54
             1331.45,1054.73 1322.47,1063.53 1315.00,1066.00
             1313.56,1056.20 1304.17,1055.01 1296.00,1055.00
             1296.00,1055.00 1299.00,1045.00 1299.00,1045.00
             1299.00,1045.00 1306.00,1047.36 1306.00,1047.36
             1317.90,1049.28 1316.43,1032.37 1318.17,1029.17
             1321.87,1022.35 1328.97,1021.82 1329.00,1008.00
             1329.01,1002.24 1327.38,996.17 1333.00,993.00
             1334.31,997.05 1335.11,997.42 1338.79,999.00
             1338.98,997.25 1339.04,994.69 1338.79,993.04
             1336.41,985.52 1325.67,986.57 1322.60,983.41
             1317.56,978.23 1324.90,975.30 1329.00,975.00
             1329.01,971.88 1328.73,967.00 1331.01,964.57
             1332.85,962.60 1336.50,963.00 1339.00,963.00
             1339.00,963.00 1360.00,963.00 1360.00,963.00
             1361.72,963.04 1363.96,962.96 1365.42,964.02
             1367.04,965.20 1370.82,972.68 1370.31,974.63
             1369.98,975.92 1367.93,977.93 1367.00,979.00
             1367.00,979.00 1385.00,979.00 1385.00,979.00
             1385.00,979.00 1384.00,975.00 1384.00,975.00
             1384.00,975.00 1389.00,978.00 1389.00,978.00
             1389.00,978.00 1397.00,974.00 1397.00,974.00
             1393.62,965.19 1393.71,966.35 1398.63,958.00 Z" />
</svg>
