<?xml version="1.0" encoding="UTF-8" standalone="no"?>
<!DOCTYPE svg PUBLIC "-//W3C//DTD SVG 20010904//EN"
              "http://www.w3.org/TR/2001/REC-SVG-20010904/DTD/svg10.dtd">

<svg xmlns="http://www.w3.org/2000/svg"
     width="43.6334in" height="36.3288in"
     viewBox="0 0 3142 2616">
  <path id="Prussia"
        fill="Pink" stroke="black" stroke-width="1"
        d="M 1992.00,867.71
           C 1995.25,868.41 1996.18,870.93 2002.00,870.96
             2005.18,870.98 2006.12,870.45 2009.00,869.71
             2011.58,869.04 2015.20,869.02 2017.11,867.11
             2025.25,858.96 2006.68,846.19 2021.00,839.00
             2026.02,845.05 2027.77,843.38 2034.00,845.82
             2034.00,845.82 2039.00,848.18 2039.00,848.18
             2039.00,848.18 2047.00,850.86 2047.00,850.86
             2048.97,851.73 2052.03,853.82 2054.00,853.91
             2056.59,854.03 2058.39,851.99 2062.00,851.27
             2062.00,851.27 2078.00,850.00 2078.00,850.00
             2082.99,856.49 2088.15,856.45 2090.09,862.01
             2091.73,866.72 2088.42,868.88 2086.58,872.00
             2084.24,875.97 2085.58,878.11 2083.98,880.53
             2082.17,883.26 2072.32,886.23 2072.10,896.00
             2071.91,904.51 2078.78,905.91 2079.63,911.01
             2080.80,918.04 2071.22,918.94 2071.11,927.00
             2071.02,933.43 2079.81,947.13 2080.57,950.00
             2081.33,952.84 2081.12,957.32 2079.69,959.91
             2076.42,965.80 2063.04,974.55 2057.00,978.00
             2053.31,980.11 2046.99,983.81 2043.00,984.62
             2035.44,986.16 2031.78,983.20 2017.00,988.71
             2013.88,989.87 2009.73,992.00 2007.39,994.38
             2004.98,996.81 2003.83,1000.49 2000.90,1001.62
             1997.66,1002.86 1994.80,1000.08 1992.04,999.94
             1989.25,999.80 1987.99,1001.75 1984.91,1003.21
             1978.90,1006.05 1974.25,1004.59 1972.00,1012.00
             1972.00,1012.00 1964.00,1014.45 1964.00,1014.45
             1964.00,1014.45 1955.00,1013.41 1955.00,1013.41
             1955.00,1013.41 1943.00,1020.00 1943.00,1020.00
             1940.95,1015.01 1940.51,1013.84 1935.00,1014.10
             1931.98,1014.07 1928.72,1013.00 1926.00,1014.10
             1926.00,1014.10 1917.83,1020.36 1917.83,1020.36
             1917.83,1020.36 1910.00,1025.06 1910.00,1025.06
             1910.00,1025.06 1904.00,1027.45 1904.00,1027.45
             1897.48,1030.87 1894.78,1037.28 1893.00,1044.00
             1889.13,1042.89 1885.06,1041.27 1882.58,1037.90
             1879.16,1033.23 1881.51,1030.06 1873.00,1026.00
             1873.51,1018.55 1878.22,1010.13 1867.98,1005.85
             1866.23,1005.12 1864.83,1005.13 1863.00,1005.00
             1862.85,1003.14 1862.88,1001.75 1861.98,1000.02
             1857.13,990.74 1850.53,997.12 1845.72,1001.68
             1845.72,1001.68 1840.00,1007.00 1840.00,1007.00
             1832.95,1003.91 1826.64,1000.06 1819.05,1005.65
             1815.19,1008.49 1814.90,1011.59 1810.95,1013.57
             1810.95,1013.57 1804.13,1015.70 1804.13,1015.70
             1801.53,1016.91 1800.95,1018.48 1798.74,1019.88
             1793.95,1022.93 1792.05,1021.18 1790.00,1028.00
             1790.00,1028.00 1784.00,1026.22 1784.00,1026.22
             1784.00,1026.22 1762.00,1030.00 1762.00,1030.00
             1765.71,1022.63 1766.21,1025.61 1764.00,1017.00
             1768.54,1013.46 1768.81,1012.60 1768.00,1007.00
             1775.66,1002.25 1773.70,998.18 1778.11,997.57
             1780.75,997.21 1782.85,999.14 1785.00,1000.32
             1785.00,1000.32 1790.72,1002.96 1790.72,1002.96
             1794.64,1005.27 1795.67,1008.74 1803.00,1003.78
             1804.48,1002.77 1806.57,1001.14 1807.77,999.83
             1809.66,997.78 1810.73,995.83 1810.80,993.00
             1810.90,988.98 1808.51,985.51 1806.88,982.00
             1804.46,976.78 1799.60,966.34 1799.00,961.00
             1813.50,962.91 1808.13,960.43 1817.00,957.55
             1817.00,957.55 1822.99,956.27 1822.99,956.27
             1826.41,954.96 1827.94,952.25 1831.00,952.27
             1834.36,952.28 1836.14,955.70 1839.01,956.60
             1843.19,957.92 1845.45,953.52 1845.49,950.00
             1845.53,946.25 1842.58,942.72 1843.34,939.18
             1844.22,935.07 1849.41,934.53 1850.85,931.61
             1851.92,929.46 1850.37,927.29 1850.85,925.09
             1851.39,922.66 1853.78,921.20 1854.98,918.91
             1854.98,918.91 1856.59,913.31 1856.59,913.31
             1858.35,909.87 1863.71,911.51 1864.58,905.98
             1865.18,902.23 1858.72,891.33 1857.00,884.00
             1857.00,884.00 1878.00,882.00 1878.00,882.00
             1878.00,882.00 1883.24,895.00 1883.24,895.00
             1883.24,895.00 1885.68,906.91 1885.68,906.91
             1887.61,911.87 1895.01,917.62 1900.00,919.24
             1907.19,921.57 1916.77,917.55 1923.00,922.00
             1927.18,918.38 1934.55,915.84 1940.00,915.00
             1940.89,911.33 1943.15,910.71 1945.47,907.91
             1945.47,907.91 1955.49,893.00 1955.49,893.00
             1955.49,893.00 1958.60,870.15 1958.60,870.15
             1959.99,866.96 1963.02,867.06 1966.00,867.00
             1973.44,866.87 1974.68,867.75 1982.00,865.00
             1986.00,871.16 1986.96,866.62 1992.00,867.71 Z" />
</svg>
