<?xml version="1.0" encoding="UTF-8" standalone="no"?>
<!DOCTYPE svg PUBLIC "-//W3C//DTD SVG 20010904//EN"
              "http://www.w3.org/TR/2001/REC-SVG-20010904/DTD/svg10.dtd">

<svg xmlns="http://www.w3.org/2000/svg"
     width="43.6334in" height="36.3288in"
     viewBox="0 0 3142 2616">
  <path id="Switzerland"
        fill="none" stroke="black" stroke-width="1"
        d="M 1368.00,1472.79
           C 1373.63,1473.59 1387.87,1471.08 1391.26,1474.59
             1392.54,1475.91 1392.63,1477.34 1393.00,1479.00
             1400.40,1479.50 1403.80,1480.61 1405.35,1488.01
             1406.18,1491.52 1406.50,1492.43 1405.35,1495.99
             1403.62,1500.89 1401.56,1501.11 1400.02,1504.09
             1398.36,1507.30 1399.58,1510.39 1398.25,1515.00
             1397.66,1517.08 1396.21,1519.45 1397.21,1521.63
             1398.31,1524.04 1403.65,1526.80 1406.00,1528.00
             1406.00,1528.00 1405.00,1525.00 1405.00,1525.00
             1405.00,1525.00 1418.00,1527.00 1418.00,1527.00
             1418.00,1529.67 1417.70,1534.46 1419.17,1536.69
             1420.68,1538.95 1422.82,1538.70 1424.63,1539.54
             1427.65,1540.93 1429.95,1545.22 1436.00,1544.02
             1442.37,1542.76 1443.85,1538.77 1451.00,1537.00
             1451.00,1537.00 1447.00,1560.00 1447.00,1560.00
             1444.61,1559.06 1441.44,1557.27 1438.96,1557.34
             1433.06,1557.49 1424.18,1563.89 1423.33,1569.99
             1422.98,1572.47 1424.18,1574.73 1425.00,1577.00
             1421.74,1577.00 1415.90,1576.66 1413.04,1577.85
             1409.56,1579.30 1408.07,1582.38 1404.97,1582.18
             1396.70,1581.64 1397.00,1570.67 1397.00,1565.00
             1393.07,1565.00 1383.65,1564.13 1380.89,1566.89
             1377.52,1570.26 1379.80,1575.83 1379.30,1579.91
             1378.70,1584.89 1373.79,1588.98 1370.83,1592.58
             1369.29,1594.45 1368.05,1596.78 1365.87,1597.98
             1364.20,1598.90 1362.80,1598.85 1361.00,1599.00
             1361.39,1604.52 1364.00,1606.17 1360.00,1611.00
             1359.05,1609.40 1357.97,1607.86 1357.41,1606.00
             1356.89,1602.35 1359.58,1599.56 1357.41,1596.28
             1354.73,1592.83 1350.82,1594.30 1348.13,1592.90
             1348.13,1592.90 1338.15,1581.68 1338.15,1581.68
             1336.43,1577.85 1342.75,1569.60 1337.57,1566.02
             1330.48,1561.12 1321.86,1571.72 1317.00,1575.21
             1315.28,1576.45 1311.10,1578.52 1310.29,1580.30
             1309.62,1581.76 1311.59,1587.04 1312.00,1589.00
             1305.55,1592.31 1308.58,1594.16 1305.41,1597.27
             1302.60,1600.01 1301.03,1597.53 1296.00,1604.00
             1287.81,1601.97 1285.66,1598.26 1281.00,1598.65
             1281.00,1598.65 1263.00,1603.42 1263.00,1603.42
             1260.54,1603.78 1256.70,1604.46 1254.57,1602.83
             1252.89,1601.55 1253.12,1599.56 1251.41,1597.03
             1251.41,1597.03 1246.02,1590.83 1246.02,1590.83
             1243.56,1586.41 1243.62,1574.47 1243.17,1569.00
             1242.73,1563.52 1244.66,1562.40 1243.71,1560.24
             1242.72,1557.96 1238.22,1555.64 1236.00,1554.48
             1230.81,1552.46 1219.25,1552.19 1214.00,1554.48
             1211.12,1555.44 1208.59,1557.33 1206.00,1559.00
             1203.66,1548.14 1209.06,1550.85 1208.00,1541.00
             1208.00,1541.00 1228.00,1531.00 1228.00,1531.00
             1228.00,1531.00 1229.00,1514.00 1229.00,1514.00
             1235.99,1514.00 1245.29,1516.09 1244.00,1506.00
             1255.52,1500.63 1254.23,1501.34 1262.00,1491.18
             1263.71,1488.94 1266.98,1486.21 1266.36,1483.15
             1265.92,1480.97 1263.59,1479.38 1262.00,1478.00
             1262.00,1478.00 1269.00,1475.00 1269.00,1475.00
             1269.00,1475.00 1269.00,1481.00 1269.00,1481.00
             1269.00,1481.00 1279.00,1481.00 1279.00,1481.00
             1279.00,1481.00 1279.00,1484.00 1279.00,1484.00
             1283.03,1483.66 1285.67,1483.34 1288.96,1480.70
             1291.22,1478.89 1293.20,1475.65 1296.09,1475.26
             1296.09,1475.26 1302.00,1475.26 1302.00,1475.26
             1305.11,1475.05 1306.37,1473.31 1310.00,1473.73
             1310.00,1473.73 1318.00,1475.61 1318.00,1475.61
             1318.00,1475.61 1331.00,1475.00 1331.00,1475.00
             1331.00,1475.00 1350.95,1477.57 1350.95,1477.57
             1354.40,1476.32 1355.91,1472.15 1357.00,1469.00
             1360.63,1470.36 1364.10,1472.24 1368.00,1472.79 Z
           M 1379.00,1522.00
           C 1379.00,1522.00 1384.00,1526.00 1384.00,1526.00
             1384.00,1526.00 1384.00,1521.00 1384.00,1521.00
             1384.00,1521.00 1379.00,1522.00 1379.00,1522.00 Z
           M 1256.00,1522.00
           C 1256.00,1522.00 1257.00,1523.00 1257.00,1523.00
             1257.00,1523.00 1257.00,1522.00 1257.00,1522.00
             1257.00,1522.00 1256.00,1522.00 1256.00,1522.00 Z
           M 1253.00,1526.00
           C 1253.00,1526.00 1254.00,1527.00 1254.00,1527.00
             1254.00,1527.00 1254.00,1526.00 1254.00,1526.00
             1254.00,1526.00 1253.00,1526.00 1253.00,1526.00 Z
           M 1351.00,1554.00
           C 1351.00,1554.00 1352.00,1555.00 1352.00,1555.00
             1352.00,1555.00 1352.00,1554.00 1352.00,1554.00
             1352.00,1554.00 1351.00,1554.00 1351.00,1554.00 Z" />
</svg>
