<?xml version="1.0" encoding="UTF-8" standalone="no"?>
<!DOCTYPE svg PUBLIC "-//W3C//DTD SVG 20010904//EN"
              "http://www.w3.org/TR/2001/REC-SVG-20010904/DTD/svg10.dtd">

<svg xmlns="http://www.w3.org/2000/svg"
     width="43.6334in" height="36.3288in"
     viewBox="0 0 3142 2616">
  <path id="Wuttenberg"
        fill="Pink" stroke="black" stroke-width="1"
        d="M 1305.96,1295.57
           C 1305.96,1295.57 1312.37,1289.02 1312.37,1289.02
             1314.93,1287.45 1318.20,1288.45 1321.00,1287.40
             1323.82,1286.35 1328.69,1281.11 1330.81,1278.72
             1336.32,1272.49 1333.07,1267.66 1339.06,1264.31
             1345.89,1260.49 1352.25,1266.89 1359.00,1266.81
             1365.01,1266.73 1368.71,1262.32 1372.00,1261.99
             1374.63,1261.73 1376.60,1263.66 1380.00,1263.77
             1383.16,1263.86 1385.07,1262.08 1393.00,1262.00
             1393.00,1262.00 1389.68,1269.00 1389.68,1269.00
             1389.01,1271.86 1390.52,1274.16 1390.70,1277.00
             1390.70,1277.00 1389.51,1286.00 1389.51,1286.00
             1389.51,1286.00 1390.90,1294.00 1390.90,1294.00
             1391.16,1296.87 1390.51,1302.42 1392.02,1304.69
             1395.84,1310.40 1403.31,1303.22 1406.00,1302.09
             1408.56,1301.02 1410.69,1301.83 1412.69,1300.31
             1414.32,1299.08 1414.46,1297.77 1415.00,1296.00
             1415.00,1296.00 1420.49,1297.96 1420.49,1297.96
             1423.26,1298.71 1427.36,1297.76 1429.09,1299.79
             1430.65,1301.85 1428.80,1305.40 1429.09,1310.00
             1429.93,1318.83 1432.74,1320.99 1441.00,1320.00
             1437.92,1333.70 1440.14,1333.56 1445.03,1346.00
             1446.33,1349.32 1446.24,1351.90 1448.51,1354.96
             1452.10,1359.79 1463.42,1364.15 1461.12,1373.96
             1458.95,1383.22 1451.55,1379.46 1448.31,1381.83
             1445.00,1384.26 1447.24,1387.66 1443.69,1391.37
             1439.51,1395.71 1436.38,1394.27 1433.02,1396.02
             1430.05,1397.57 1427.61,1401.10 1426.06,1404.00
             1420.05,1415.21 1434.65,1415.12 1433.53,1428.00
             1433.53,1428.00 1430.63,1440.00 1430.63,1440.00
             1430.63,1440.00 1430.63,1447.72 1430.63,1447.72
             1429.72,1449.86 1428.05,1450.90 1427.31,1454.01
             1426.53,1457.29 1427.70,1461.80 1425.98,1464.82
             1421.87,1471.99 1413.89,1467.03 1413.00,1478.00
             1400.55,1476.21 1399.88,1470.62 1394.91,1468.02
             1392.37,1466.69 1389.72,1467.19 1387.00,1466.87
             1379.48,1465.50 1380.28,1463.50 1372.00,1466.87
             1371.51,1465.68 1370.79,1463.44 1370.02,1462.34
             1364.70,1454.76 1357.19,1460.84 1351.00,1462.91
             1347.08,1464.22 1343.11,1464.81 1339.00,1465.00
             1339.00,1465.00 1344.00,1470.00 1344.00,1470.00
             1337.90,1470.00 1337.53,1466.37 1333.00,1465.72
             1329.24,1465.19 1325.83,1468.76 1322.01,1469.07
             1317.72,1469.41 1316.73,1466.02 1312.96,1465.38
             1309.02,1464.67 1303.07,1468.98 1299.98,1465.38
             1299.10,1464.38 1298.66,1462.31 1298.45,1461.00
             1297.45,1454.96 1299.62,1448.42 1302.53,1443.18
             1302.53,1443.18 1305.80,1437.68 1305.80,1437.68
             1306.89,1434.92 1303.52,1427.32 1305.80,1422.28
             1305.80,1422.28 1313.62,1410.58 1313.62,1410.58
             1315.88,1406.40 1314.40,1404.27 1315.43,1400.29
             1317.28,1393.14 1320.86,1394.28 1321.00,1383.00
             1326.55,1380.87 1335.67,1374.14 1339.20,1369.24
             1342.86,1364.17 1338.68,1360.39 1347.00,1359.00
             1345.31,1352.82 1342.35,1353.06 1337.28,1350.24
             1327.71,1344.90 1322.02,1343.00 1311.00,1343.00
             1311.00,1343.00 1306.00,1333.00 1306.00,1333.00
             1300.83,1334.34 1299.56,1333.48 1295.00,1331.00
             1290.62,1338.06 1282.47,1333.17 1281.66,1329.67
             1281.02,1326.92 1285.29,1316.60 1286.00,1312.00
             1293.30,1310.81 1295.37,1305.79 1296.00,1299.00
             1299.62,1298.31 1302.94,1297.90 1305.96,1295.57 Z" />
</svg>
